<svg width="17" height="20" viewBox="0 0 17 20" fill="none" xmlns="http://www.w3.org/2000/svg">
<g clip-path="url(#clip0_10946_466)">
<path d="M0 3.4375C0 2.91992 0.419922 2.5 0.9375 2.5H16.5625C17.082 2.5 17.5 2.91992 17.5 3.4375C17.5 3.95703 17.082 4.375 16.5625 4.375H0.9375C0.419922 4.375 0 3.95703 0 3.4375ZM0 9.6875C0 9.16797 0.419922 8.75 0.9375 8.75H16.5625C17.082 8.75 17.5 9.16797 17.5 9.6875C17.5 10.207 17.082 10.625 16.5625 10.625H0.9375C0.419922 10.625 0 10.207 0 9.6875ZM16.5625 16.875H0.9375C0.419922 16.875 0 16.457 0 15.9375C0 15.418 0.419922 15 0.9375 15H16.5625C17.082 15 17.5 15.418 17.5 15.9375C17.5 16.457 17.082 16.875 16.5625 16.875Z" fill="#56A8EB"/>
</g>
<defs>
<clipPath id="clip0_10946_466">
<rect width="17.5" height="20" fill="white"/>
</clipPath>
</defs>
</svg>
