<svg width="390" height="367" viewBox="0 0 390 367" fill="none" xmlns="http://www.w3.org/2000/svg">
<g clip-path="url(#clip0_8916_34062)">
<path d="M46.9463 222.504C46.9463 222.273 42.2147 217.294 41.7854 217.294C17.2497 217.294 20.6839 234.807 20.6839 234.807L24.433 264.622C25.2915 270.134 31.5685 278.544 39.0857 279.771C43.7029 280.526 46.4884 282.376 71.6346 276.22C71.3389 273.766 44.6186 264.572 44.2752 262.117C41.7377 245.53 44.7808 234.545 46.9368 222.494L46.9463 222.504Z" fill="#5C8E9F"/>
<path d="M332.999 99.4808C303.102 73.6891 224.267 87.2992 224.267 87.2992C224.267 87.2992 245.331 62.9359 232.424 47.8874C219.517 32.8389 161.068 38.5726 161.068 38.5726L126.411 47.1732C126.411 47.1732 131.619 72.4921 128.223 72.4921C124.827 72.4921 107.379 36.1886 107.379 36.1886C107.379 36.1886 88.3479 15.6478 63.2112 34.9916C44.8667 49.1046 60.4924 71.5365 60.4924 71.5365C35.1649 84.5631 41.2416 118.825 42.5581 124.749C64.5658 131.026 85.2857 142.695 100.186 160.55C126.897 193.745 149.792 234.988 144.068 279.248C143.448 285.173 142.323 290.876 140.758 296.359C206.276 299.487 295.518 298.853 322.801 275.043C386.001 219.869 361.875 124.397 332.999 99.4808Z" fill="white"/>
<path d="M103.287 125.695C78.15 101.553 42.8346 124.558 42.8346 124.558C19.9492 140.804 14.4926 168.658 16.3242 184.038C19.5962 211.55 43.5023 222.736 43.5023 222.736C34.4398 268.354 66.6071 290.806 66.6071 290.806C66.6071 290.806 98.8222 294.357 140.758 296.359C142.322 290.876 143.448 285.173 144.068 279.248C149.792 234.988 133.794 155.007 103.277 125.695H103.287Z" fill="#BDEFF4"/>
<path d="M166.734 260.709C127.155 262.449 92.4022 264.894 66.0349 281.059C68.6774 289.388 71.2149 297.817 73.8669 306.207C74.0195 306.166 74.1626 306.126 74.3152 306.096C94.1861 301.408 127.956 321.778 146.348 331.888C177.609 349.089 208.87 351 226.986 351C245.102 351 324.385 349.089 332.093 270.748C332.093 270.748 231.975 257.852 166.734 260.719V260.709Z" fill="white"/>
<path d="M351.124 266.443C357.916 316.598 333.457 340.146 303.045 346.745C272.633 353.344 243.718 336.827 238.453 309.848C233.187 282.869 263.179 223.359 293.582 216.761C323.994 210.162 347.423 239.172 351.115 266.443H351.124Z" fill="white"/>
<path d="M326.207 68.4988C314.883 58.158 284.653 50.4125 259.287 90.4982C237.222 125.373 174.996 86.4645 184.087 102.64C193.168 118.815 254.412 159.776 292.189 149.073C344.475 134.266 349.865 90.1059 326.207 68.4888V68.4988Z" fill="white"/>
<path d="M353.538 246.767C367.437 293.442 346.793 331.938 305.983 339.502C277.422 344.794 249.576 330.761 245.054 307.585C240.532 284.408 259.888 260.619 288.297 254.462C316.705 248.296 344.446 216.238 353.538 246.767Z" fill="#C7EAF3"/>
<path d="M60.7786 214.367C74.1713 214.367 85.0282 202.918 85.0282 188.796C85.0282 174.674 74.1713 163.226 60.7786 163.226C47.386 163.226 36.5291 174.674 36.5291 188.796C36.5291 202.918 47.386 214.367 60.7786 214.367Z" fill="#BDEFF4"/>
<path d="M365.996 178.254C365.996 255.438 298.304 313.52 217.771 313.52C137.238 313.52 71.9494 250.942 71.9494 173.748C71.9494 96.5538 137.238 33.9858 217.771 33.9858C298.304 33.9858 365.996 101.06 365.996 178.244V178.254Z" fill="#DDFAFA"/>
<path d="M109.797 153.72C136.905 147.837 155.213 124.281 150.689 101.106C146.166 77.9305 120.524 63.9125 93.4165 69.7955C66.3091 75.6786 48.0011 99.2349 52.5245 122.41C57.048 145.585 82.6899 159.603 109.797 153.72Z" fill="#CBEEF0"/>
<path d="M28.7544 186.06C35.5752 197.487 55.799 196.984 104.613 154.736C139.604 124.448 193.025 142.091 187.025 130.161C181.034 118.231 124.436 92.4394 82.9008 111.542C36.8248 132.736 16.6678 165.801 28.7544 186.06Z" fill="#DDFAFA"/>
<path d="M370.566 127.385C363.755 115.958 343.521 116.461 294.707 158.709C259.716 188.997 206.295 171.354 212.295 183.284C218.286 195.214 274.884 221.005 316.419 201.903C362.505 180.709 382.652 147.644 370.566 127.385Z" fill="#DDFAFA"/>
<path d="M109.726 299.236C142.254 299.236 168.623 271.43 168.623 237.13C168.623 202.831 142.254 175.025 109.726 175.025C77.198 175.025 50.8289 202.831 50.8289 237.13C50.8289 271.43 77.198 299.236 109.726 299.236Z" fill="#DDFAFA"/>
<path d="M76.8623 33.5533C71.4533 35.1225 66.5119 40.5947 68.3816 50.8651C70.3563 61.7189 86.0107 58.6408 90.4275 53.4C98.3453 43.9846 87.8804 30.3545 76.8623 33.5533Z" fill="#DDFAFA"/>
<path d="M73.1419 97.6098C75.6031 96.8956 77.8449 94.411 76.9959 89.7435C76.0991 84.8045 68.9826 86.2027 66.9698 88.5968C63.3734 92.8719 68.1241 99.0684 73.1323 97.6199L73.1419 97.6098Z" fill="#A7DADF"/>
<path d="M313.825 77.9141C302.625 65.7727 280.57 66.7987 254.947 99.7525C232.653 128.421 184.106 102.589 190.097 114.509C196.088 126.439 243.594 153.931 276.659 142.936C322.41 127.727 329.574 94.9644 313.825 77.904V77.9141Z" fill="#BDEFF4"/>
<path d="M329.861 179.23C314.149 175.739 296.386 189.551 292.532 231.97C289.184 268.877 235.228 275.969 246.504 282.346C257.789 288.724 311.754 283.624 333.381 255.066C363.316 215.544 351.935 184.139 329.851 179.23H329.861Z" fill="#BDEFF4"/>
<path d="M225.841 208.21C213.02 235.481 170.111 240.601 130.007 219.648C89.8933 198.684 94.9779 161.093 107.79 133.813C120.611 106.542 136.303 99.9135 176.417 120.877C216.531 141.84 238.663 180.94 225.841 208.21Z" fill="#BDEFF4"/>
<path d="M195.62 301.821C228.148 301.821 254.517 274.015 254.517 239.716C254.517 205.416 228.148 177.61 195.62 177.61C163.092 177.61 136.723 205.416 136.723 239.716C136.723 274.015 163.092 301.821 195.62 301.821Z" fill="#A1E5EC"/>
<path opacity="0.21" d="M153.207 236.125C153.207 236.125 186.205 249.966 200.008 254.945C208.155 257.882 230.277 260.689 251.474 260.236C249.938 254.875 248.574 249.493 247.649 244.001C195.286 247.642 153.207 236.135 153.207 236.135V236.125Z" fill="#6474A2"/>
<path opacity="0.14" d="M218.982 47.5657C218.982 47.5657 151.166 54.8485 133.413 113.443C125.333 140.1 139.833 137.796 144.736 117.034C150.794 91.3935 176.15 58.4799 218.982 47.5557V47.5657Z" fill="#6474A2"/>
<path d="M115.402 346.564C155.195 346.564 187.454 321.524 187.454 290.635C187.454 259.746 155.195 234.706 115.402 234.706C75.6087 234.706 43.3499 259.746 43.3499 290.635C43.3499 321.524 75.6087 346.564 115.402 346.564Z" fill="#D3F7F5"/>
<path d="M215.777 44.0651C215.777 44.0651 147.98 36.2391 119.275 92.5905C106.215 118.221 120.849 119.127 129.664 98.8573C140.548 73.81 171.724 45.6343 215.768 44.0651H215.777Z" fill="white"/>
<path d="M44.1226 262.037C43.7219 259.401 43.4739 256.917 43.3212 254.543C33.982 250.318 25.5968 244.413 20.6458 235.722L24.2708 264.542C25.1293 270.054 31.4064 278.464 38.9235 279.691C43.5407 280.445 46.9654 282.236 72.0544 276.643C71.7586 274.188 44.4565 264.491 44.113 262.037H44.1226Z" fill="#5C8E9F"/>
<path opacity="0.21" d="M309.045 303.068C309.045 303.068 291.483 268.726 277.107 258.838C262.74 248.94 223.571 256.706 190.717 247.009C178.926 243.528 111.3 213.089 66.1494 270.054C66.1494 270.054 94.6822 235.109 159.914 251.545C205.408 263.013 270.229 307.876 309.045 303.078V303.068Z" fill="#6474A2"/>
<path d="M263.58 99.9135C257.598 103.203 246.504 101.382 239.12 101.05C226.147 100.477 206.715 92.017 181.797 92.0472C172.63 92.0573 159.265 96.8152 153.274 103.062C156.785 100.608 160.047 99.2496 164.082 97.8513C181.816 91.7052 213.993 105.637 230.897 108.444C242.431 110.355 256.969 105.506 262.111 102.579C262.092 102.388 262.053 102.197 262.168 102.076C262.702 101.422 263.179 100.698 263.58 99.9235V99.9135Z" fill="white"/>
<path d="M248.66 118.463C250.415 113.785 257.169 112.125 261.271 110.234C268.483 106.915 282.64 108.695 295.986 101.312C300.898 98.5957 305.954 90.4277 306.412 83.1248C305.611 86.3437 304.466 88.5064 302.93 90.9407C296.138 101.624 272.728 98.7466 262.426 101.251C255.395 102.961 249.738 111.552 248.288 115.666C248.383 115.827 248.488 115.988 248.479 116.129C248.479 116.863 248.545 117.648 248.669 118.452L248.66 118.463Z" fill="white"/>
<path d="M45.6966 234.445C29.7274 236.617 25.2915 231.829 23.5076 229.445C21.9431 227.333 27.6764 261.997 27.6764 261.997C27.6764 261.997 31.0534 277.82 52.794 274.772C69.9461 272.368 108.6 263.475 140.605 256.937C137.715 244.091 134.758 231.256 131.839 218.43C94.3006 225.562 53.4904 233.378 45.6966 234.445Z" fill="#D3F7F5"/>
<path d="M45.6966 237.754C29.7274 239.927 25.2915 235.139 23.5076 232.755C21.9431 230.642 27.6764 265.306 27.6764 265.306C27.6764 265.306 31.0534 281.129 52.794 278.081C69.9461 275.677 108.6 266.785 140.605 260.246C137.715 247.401 134.758 234.565 131.839 221.74C94.3006 228.872 53.4904 236.688 45.6966 237.754Z" fill="#73B6C4"/>
<path d="M200.686 326.677C247.233 326.677 284.967 301.637 284.967 270.748C284.967 239.859 247.233 214.819 200.686 214.819C154.138 214.819 116.404 239.859 116.404 270.748C116.404 301.637 154.138 326.677 200.686 326.677Z" fill="#D3F7F5"/>
<path d="M109.159 69.0626L105.241 65.8809L107.47 59.863L103.483 42.6135L113.766 37.3573L119.837 43.1874L113.79 64.7737L109.159 69.0626Z" fill="#8D4134"/>
<path d="M111.904 57.5174L112.593 65.2981L125.92 77.3201L130.842 77.9115L136.455 73.9747L139.635 64.7347L141.138 54.262L145.607 42.2357L139.054 30.2359L123.462 23.5487L109.016 30.1284L105.981 42.3625L106.637 55.0402L111.904 57.5174Z" fill="#E8A481"/>
<path d="M144.993 33.3669L127.586 47.5233L106.234 56.1525L102.409 46.6505L102.965 28.9846L122.3 17.1862L133.346 19.8378L144.993 33.3669Z" fill="#A15544"/>
<path d="M141.783 35.8108L143.976 44.4202L141.143 54.2668L140.211 60.4492L150.835 48.4871L148.604 31.7712L141.864 26.8521L141.783 35.8108Z" fill="#A15544"/>
<path d="M132.09 51.66L134.962 52.3273L135.521 57.0426L139.606 64.0028L141.137 54.264L143.971 44.4174L141.723 35.8713L135.114 44.3822L132.09 51.66Z" fill="#D18672"/>
<path d="M133.46 19.8944L122.405 17.2433L103.08 29.0412L102.513 46.6976L106.348 56.2091L112.419 45.0468L120.682 35.6444L112.408 37.9965L118.523 26.9628L133.46 19.8944Z" fill="#8D4134"/>
<path d="M141.725 35.8556L143.755 44.6145L141.12 53.6953L140.307 59.5695L147.533 45.4464L141.725 35.8556Z" fill="#8D4134"/>
<path d="M127.415 88.696L130.458 68.8566L112.335 59.2183L104.199 83.0783L127.415 88.696Z" fill="#E8A481"/>
<path d="M141.725 35.8711L127.798 47.3192L106.972 55.9413L111.308 57.9631L111.593 60.5269L103.872 81.5149L102.372 84.6345L108.363 87.2556L112.297 78.5507L122.852 75.2345L114.458 67.5302L119.03 57.3016L130.368 55.2544L141.725 35.8711Z" fill="#D18672"/>
<path d="M111.595 60.5317L102.375 84.8507L104.559 86.0773L111.595 60.5317Z" fill="#B56760"/>
<path d="M123.899 67.8329L129.229 66.9024L132.474 67.4093L135.057 69.5017L132.49 71.0246L127.897 70.3355L123.899 67.8329Z" fill="#A15544"/>
<path d="M123.907 67.8279L128.908 67.0051L132.482 67.4043L135.064 69.4967L130.165 68.0379L123.907 67.8279Z" fill="#8D4134"/>
<path d="M133.715 94.3769L128.564 87.6775L105.669 80.8674L96.1773 89.9911L88.9749 113.338L94.1835 132.783L101.729 152.056L95.6908 168.674L91.9036 179.749L102.588 185.141L106.07 191.015L122.545 207.07L150.963 201.054L155.742 174.75L150.362 155.627L151.697 140.096L149.828 125.882L150.791 114.515L133.715 94.3769Z" fill="#E8A481"/>
<path d="M103.284 85.5393L93.086 88.9091L72.4138 122.064L67.4437 135.835L77.8513 144.848L92.3705 129.427L108.216 111.985L110.295 91.5144L103.284 85.5393Z" fill="#E8A481"/>
<path d="M119.151 180.367L108.457 192.689L105.223 210.333L119.285 297.606L141.092 298.099L152.005 239.726L157.319 204.096L155.63 182.157L142.494 186.694L119.151 180.367Z" fill="#D18672"/>
<path d="M104.689 176.393L90.5325 193.896L87.2891 211.53L102.514 298.833L125.466 299.356L132.058 240.883L136.513 202.336L149.058 187.489L117.014 183.867L104.689 176.393Z" fill="#E8A481"/>
<path d="M93.3466 169.161L110.613 175.88L132.526 183.243L150.632 180.819L155.783 174.331L158.33 199.61L148.981 208.743L133.48 224.174L117.854 213.511L98.9082 210.826L85.7722 211.178L84.9518 191.512L93.3466 169.161Z" fill="#8FA6D3"/>
<path d="M100.225 86.3238L109.287 91.2528L114.467 106.834L109.85 123.472L93.9763 132.998L96.6855 140.251L99.4043 146.427L113.647 147.071L151.509 145.029L151.681 135.694L154.972 127.395L156.155 120.877L141.626 102.72L129.282 88.9191L138.297 106.301L120.639 93.6569L111.615 86.5854L103.955 82.9741L100.225 86.3238Z" fill="#8FA6D3"/>
<path d="M140.682 165.66L145.919 168.436L148.886 165.539L140.682 165.66Z" fill="#C47865"/>
<path d="M110.623 175.458L94.0526 169.352L84.9518 191.512L85.7722 211.178L101.036 211.63L109.573 212.465L109.554 203.13L109.793 196.26L116.728 180.749L124.264 180.487L110.623 175.458Z" fill="#708BBB"/>
<path d="M67.0843 135.533L70.3373 153.931L95.5312 183.294L100.272 183.566L99.3375 177.631L94.0621 158.729L89.2733 144.053L80.2393 133.773L67.0843 135.533Z" fill="#E8A481"/>
<path d="M112.989 187.046C112.989 187.046 110.117 182.61 109.678 181.252C109.24 179.904 104.851 175.76 103.478 175.136C100.311 173.687 97.2865 173.637 95.369 173.728C93.4611 173.818 92.7934 177.59 92.6503 178.747C92.5072 179.904 91.3434 199.399 91.4197 201.229C91.496 203.05 93.2799 201.451 93.8046 200.284C94.3292 199.117 94.0907 194.691 94.6917 193.444C95.121 192.548 97.2006 203.815 97.2006 203.815C97.2006 203.815 97.8302 207.728 99.1085 206.299C99.1085 206.299 99.6714 207.788 100.244 207.587C101.713 207.074 101.722 205.585 102.009 201.259C102.266 197.387 101.522 192.609 102.257 191.884C102.991 191.16 105.615 203.382 105.615 203.382C105.615 203.382 106.912 206.983 107.122 202.859C107.332 198.735 105.653 190.587 105.624 189.903C105.595 189.219 105.347 184.219 105.51 183.525C105.672 182.831 108.257 184.29 108.867 184.954C109.468 185.607 111.157 189.188 112.979 187.046H112.989Z" fill="#E8A481"/>
<path d="M109.812 85.4687L104.651 88.7882L100.225 86.3237L103.754 82.5415L109.812 85.4687Z" fill="#708BBB"/>
<path d="M109.268 92.1179L118.207 118.081L124.57 125.746L139.375 130.152L116.909 136.952L108.772 146.639L99.4043 146.427L95.493 138.823L92.946 128.673L109.449 123.251L112.206 107.86L109.268 92.1179Z" fill="#708BBB"/>
<path d="M100.225 86.3237L93.0891 88.9089L72.4169 122.064L67.0843 135.533L70.3373 153.931L92.6026 181.081L92.8792 177.198L74.4584 151.879L72.7699 134.447L77.9021 122.325L96.4279 92.4699L104.651 88.7882L100.225 86.3237Z" fill="#D18672"/>
<path d="M93.0509 128.683L105.729 116.079L109.43 103.927L109.259 92.3291L112.206 107.86L109.449 123.251L98.622 130.091L93.0509 128.683Z" fill="#D18672"/>
<path d="M116.499 146.96L108.772 146.638L99.4043 146.427L101.732 152.06L95.2641 163.296L97.42 170.72L125.18 180.93L106.864 169.996L107.532 162.391L111.729 151.215L116.499 146.96Z" fill="#D18672"/>
<path d="M108.142 212.325L98.9082 210.826L87.2891 211.53L102.514 298.833L108.887 298.008L101.121 252.531L101.732 217.545L108.142 212.325Z" fill="#D18672"/>
<path d="M133.479 224.174L158.33 199.61L155.783 174.331L154.228 191.039L150.717 203.201L133.479 224.174Z" fill="#708BBB"/>
<path d="M94.0525 127.697L96.2275 137.555L101.14 146.256L98.0878 146.397L94.3864 138.159L92.2877 129.558L94.0525 127.697Z" fill="#6474A2"/>
<path d="M93.8713 128.16L98.4216 129.548L109.049 123.03L112.206 107.86L110.241 124.448L99.1943 131.61L94.2242 130.745" fill="#6474A2"/>
<path d="M105.729 116.079L88.1571 133.863L99.948 124.76L105.729 116.079Z" fill="#B56760"/>
<path d="M104.651 88.7882L99.4519 85.7402L92.6216 88.0136L71.8445 121.47L66.55 135.09L69.4214 154.193L92.4404 181.262L92.6025 178.928L71.0623 153.378L68.1718 135.272L73.3327 121.933L94.0812 89.3414L99.4233 87.0278L104.651 88.7882Z" fill="#B56760"/>
<path d="M102.648 82.2297L99.4519 85.7404L101.331 86.6357L105.872 83.8794L102.648 82.2297Z" fill="#6474A2"/>
<path d="M149.535 129.528L156.155 120.877L154.972 127.395L151.681 135.694L149.535 129.528Z" fill="#708BBB"/>
<path d="M99.4043 146.427L101.732 152.06L95.2641 163.296L97.42 170.72L105.662 174.049L97.7444 168.296L97.8112 162.924L104.479 152.131L102.123 148.207L116.947 146.829L99.4043 146.427Z" fill="#B56760"/>
<path d="M89.8933 178.214L92.6121 181.081L92.1828 192.81L91.9062 200.183C91.9062 200.183 91.9539 201.692 92.6216 201.37C93.2894 201.048 93.6233 199.348 93.6233 199.348L94.6822 193.524L98.1069 206.561L99.7954 207.466L101.207 206.812L102.257 191.884L103.087 211.53L85.5051 211.168L84.3413 190.738L89.8742 178.204L89.8933 178.214Z" fill="#6474A2"/>
<path d="M87.2985 211.228L102.991 302.173L105.433 302.233L89.4354 211.047L87.2985 211.228Z" fill="#B56760"/>
<path d="M123.358 82.4209L136.294 92.2587L139.251 100.055L123.358 82.4209Z" fill="#E8A481"/>
<path d="M316.152 234.294C289.976 215.694 299.468 269.068 278.004 250.016C270.954 243.749 240.895 247.099 216.349 264.773C183.4 288.513 192.348 278.494 142.723 279.097C113.103 279.459 91.4196 292.959 78.6557 303.913C79.581 305.935 80.535 307.947 81.5176 309.929C92.5548 306.187 108.209 303.772 125.304 310.14C155.84 321.517 208.165 367.809 270.878 337.933C333.6 308.058 332.904 246.184 316.143 234.284L316.152 234.294Z" fill="#D3F7F5"/>
<path d="M318.07 149.988C317.679 144.083 313.1 138.38 301.891 139.607C290.052 140.905 289.632 157.894 294.106 163.015C302.139 172.199 318.861 162.029 318.07 149.988Z" fill="white"/>
<path d="M194.323 229.797C193.645 226.055 187.969 222.273 174.652 222.595C160.581 222.937 160.705 233.63 166.229 237.04C176.131 243.156 195.706 237.422 194.323 229.797Z" fill="white"/>
<path d="M256.849 74.6312L252.173 73.0448L252.408 66.5792L243.293 51.7867L251.362 43.1213L258.909 46.432L259.896 68.924L256.849 74.6312Z" fill="#8D4134"/>
<path d="M255.857 62.7618L258.917 69.8406L275.218 76.3671L280.052 75.1491L284.26 59.5695L282.433 49.1742L282.913 36.2441L273.009 27.3074L256.226 26.6262L244.633 38.0215L245.563 50.634L250.119 62.3355L255.857 62.7618Z" fill="#E8A481"/>
<path d="M279.597 28.1139L267.552 47.7122L248.769 64.7455L242.948 55.9025L238.579 39.1254L253.159 21.0571L264.402 19.5726L279.597 28.1139Z" fill="#A15544"/>
<path d="M277.352 30.7799L282.056 38.8877L282.437 49.1728L283.587 54.8937L289.784 40.2452L282.493 25.3167L274.609 23.1052L277.352 30.7799Z" fill="#A15544"/>
<path d="M264.402 19.5726L253.159 21.0571L238.579 39.1254L241.948 56.9271L248.738 65.0659L252.364 50.8345L257.242 39.0089L250.162 44.2029L252.508 31.6056L264.402 19.5726Z" fill="#8D4134"/>
<path d="M277.445 31.3552L282.061 38.8885L282.375 48.3788L283.41 54.1997L285.883 38.3201L277.445 31.3552Z" fill="#8D4134"/>
<path d="M256.744 65.8092L253.271 87.9385L251.946 91.7109L253.047 92.5052L255.206 89.2282L257.456 68.4455L256.744 65.8092Z" fill="#B56760"/>
<path d="M270.221 90.0901L270.448 73.7496L257.596 63.2934L253.346 88.5813L270.221 90.0901Z" fill="#E8A481"/>
<path d="M277.122 31.9179L267.545 47.7135L251.05 62.2101L255.347 62.9713L256.887 65.9609L253.337 88.578L251.461 92.5999L257.09 94.5417L260.464 74.131L272.113 74.8791L260.182 67.3625L261.513 58.9923L271.969 47.1631L277.122 31.9179Z" fill="#D18672"/>
<path d="M268.283 63.9566L274.322 61.9765L277.955 61.3795L281.526 61.8175L279.08 67.2597L273.935 68.1341L268.283 63.9566Z" fill="#A15544"/>
<path d="M270.082 64.2001L280.441 62.4377C280.441 62.4377 277.671 65.9988 276.56 66.1839C275.449 66.3691 271.881 65.2138 270.081 64.2101L270.082 64.2001Z" fill="white"/>
<path d="M279.991 100.645L270.032 88.1821L253.089 88.3129L248.987 98.704L248.186 116.539L254.387 132.734L261.255 140.751L267.685 156.504L267.923 169.168L257.382 184.519L254.11 192.636L257.611 198.36L273.714 213.71L298.021 205.552L298.249 181.068L295.96 169.661L297.544 145.58L295.245 131.457L299.499 116.992L279.991 100.645Z" fill="#E8A481"/>
<path d="M250.911 93.9482L244.615 98.3642L228.665 131.549L223.084 146.688L232.08 151.014L245.292 134.638L256.654 115.294L258.638 98.505L250.911 93.9482Z" fill="#E8A481"/>
<path d="M223.237 146.316L228.436 166.092L246.38 194.741L251.026 195.103L251.217 192.347L243.385 171.766L238.558 157.753L232.061 144.938L223.237 146.316Z" fill="#E8A481"/>
<path d="M265.478 187.257L256.225 200.002L253.935 217.766L269.933 304.386L283.546 303.893L295.48 226.357L297.235 206.571V188.856L285.855 192.629L265.478 187.257Z" fill="#D18672"/>
<path d="M256.549 183.787L245.178 201.843L243.06 219.597L258.104 306.247L278.566 305.824L282.058 247.139L283.479 208.462L293.582 193.122L267.272 190.758L256.549 183.787Z" fill="#E8A481"/>
<path d="M258.524 180.316L272.671 186.09L290.491 191.25L298.39 188.826L298.18 212.988L283.269 230.36L270.839 220.311L253.735 215.191L243.661 218.943L245.264 199.268L258.524 180.316Z" fill="#8FA6D3"/>
<path d="M258.61 180.417L245.35 199.368L242.164 220.15L253.687 215.302L254.651 202.295L258.295 200.787L266.737 202.476L273.711 197.749L273.882 192.166L261.968 186.684L264.734 182.328L258.61 180.417Z" fill="#708BBB"/>
<path d="M245.741 192.277L263.122 188.595C263.122 188.595 267.3 188.504 267.863 188.183C268.426 187.861 273.367 191.502 273.367 191.502C273.367 191.502 273.654 193.021 273.1 192.88C272.556 192.749 267.663 190.838 267.663 190.838C267.663 190.838 271.498 194.681 272.89 196.009C274.274 197.336 274.607 197.457 274.15 197.91C273.692 198.362 271.698 198.986 271.698 198.986C271.698 198.986 272.232 199.58 271.459 199.67C270.687 199.761 269.599 199.258 268.321 198.051C267.043 196.843 263.351 195.325 263.351 195.325L261.491 195.143L265.24 198.171C265.24 198.171 266.909 201.008 267.548 201.732C268.187 202.456 265.545 202.587 264.591 201.511C263.637 200.435 257.808 196.984 257.808 196.984C257.808 196.984 252.314 200.384 250.587 199.398C248.86 198.413 245.178 196.662 245.75 192.277H245.741Z" fill="#E8A481"/>
<path d="M249.003 95.0548L258.247 99.1589L264.171 113.855L259.926 130.684L251.827 126.771L254.46 134.024L261.128 142.574L264.915 154.092L284.958 147.885L299.763 145.652L295.68 129.95L300.297 116.33L273.94 93.0429L286.751 110.164L269.666 100.426L259.583 94.6222L251.608 92.4998L249.003 95.0548Z" fill="#8FA6D3"/>
<path d="M292.303 167.098L293.935 173.858L292.036 175.709L292.303 167.098Z" fill="#C47865"/>
<path d="M297.455 145.874L282.363 148.258L266.174 153.529L267.682 156.506L267.92 169.171L259.955 180.708L272.547 186.04L274.588 186.563L268.435 180.316L270.963 170.398L274.55 155.078L281.991 150.199L297.455 145.874Z" fill="#D18672"/>
<path d="M243.06 219.597L259.287 313.127L264.295 312.453L255.786 263.455L253.554 228.721L253.687 215.302L243.06 219.597Z" fill="#D18672"/>
<path d="M251.875 96.1412L247.467 99.8128L226.729 145.33L231.699 164.714L248.393 194.057L250.883 196.371L257.999 195.797L261.5 197.869L264.276 201.108L257.837 197.739L253.592 199.328C253.592 199.328 251.169 200.455 249.738 200.052C248.307 199.65 245.55 193.695 245.55 193.695L228.446 166.113L223.247 146.336L230.859 126.148L244.625 98.3844L249.013 95.075L251.884 96.1613L251.875 96.1412Z" fill="#D18672"/>
<path d="M257.398 93.8879L253.382 96.8251L249.003 95.0547L251.989 91.5642L257.398 93.8879Z" fill="#708BBB"/>
<path d="M258.247 99.1589L273.968 123.532L285.759 122.637L272.308 132.797L269.742 137.575L272.118 144.606L271.736 151.809L264.915 154.092L260.861 141.83L253.802 134.245L251.827 126.771L260.432 129.175L264.009 113.644L258.247 99.1589Z" fill="#708BBB"/>
<path d="M251.169 123.784L254.594 118.412L259.249 113.02L258.61 100.447L264.009 113.644L260.432 129.175L251.827 126.771L251.169 123.784Z" fill="#D18672"/>
<path d="M298.008 190.234L287.257 225.663L283.269 230.36L299.62 212.958L298.008 190.234Z" fill="#708BBB"/>
<path d="M248.431 95.0649L244.043 98.3845L230.268 126.148L222.941 146.548L227.978 165.288L245.378 194.329L247.63 196.964L229.705 165.107L224.668 146.226L231.365 126.771L245.102 98.7164L249.805 95.8999L248.431 95.0649Z" fill="#B56760"/>
<path d="M265.974 153.961L267.348 156.406L267.577 168.959L259.344 180.829L266.661 183.575L262.559 180.145L268.846 169.513L268.731 156.054L268.807 152.905L265.974 153.961Z" fill="#B56760"/>
<path d="M251.465 123.673L254.097 133.601L261.367 141.609L265.459 153.327L267.386 153.297L263.236 154.555L259.392 142.655L253.401 134.688L249.862 126.812L251.465 123.673Z" fill="#6474A2"/>
<path d="M258.61 180.417L250.892 191.522L250.253 189.711L257.513 180.658L258.61 180.417Z" fill="#6474A2"/>
<path d="M246.914 196.652L249.728 200.032L257.827 197.719L261.519 199.147L264.934 201.863L260.107 199.71L256.435 199.469L247.153 204.167L244.882 219.024L241.295 220.171L245.226 199.046L246.914 196.652Z" fill="#6474A2"/>
<path d="M261.491 195.143L265.24 198.171L268.321 198.05L263.79 195.344L261.491 195.143Z" fill="#6474A2"/>
<path d="M243.06 219.597L256.206 297.153L258.543 297.002L244.882 219.024L243.06 219.597Z" fill="#B56760"/>
<path d="M250.806 126.58L260.432 129.175L264.009 113.644L261.481 131.087L251.865 128.602L250.806 126.58Z" fill="#6474A2"/>
<path d="M256.931 116.149L253.258 119.589L245.292 134.638L253.706 121.873L256.931 116.149Z" fill="#B56760"/>
<path d="M249.003 95.0547L257.827 98.847L247.401 96.2719L249.003 95.0547Z" fill="#9F584B"/>
<path d="M299.496 116.994L295.68 129.95L294.059 120.323L299.496 116.994Z" fill="#708BBB"/>
<path d="M285.196 300.624C263.513 313.882 215.663 311.598 187.025 299.708C158.387 287.818 128.528 277.156 107.265 277.759C92.5357 278.182 80.2774 282.96 71.1099 288.251C72.083 290.434 73.1132 292.596 74.1817 294.719C159.293 269.692 175.034 355.718 248.145 347.248C327.085 338.104 330.185 253.064 330.185 253.064C330.185 253.064 306.87 287.366 285.187 300.624H285.196Z" fill="#C0EFF3"/>
<path d="M330.357 327.13C327.895 328.92 322.83 332.451 319.033 334.292C321.59 333.326 323.822 332.169 325.587 330.791C327.819 329.051 329.355 327.884 330.347 327.13H330.357Z" fill="white"/>
<path d="M269.151 334.091C241.877 326.275 190.698 288.261 138.669 275.627C115.545 270.014 93.6805 275.285 76.6047 283.071C77.9117 283.875 79.2186 284.69 80.5255 285.535C86.6403 283.02 93.8332 281.039 102.257 280.153C137.524 276.432 220.633 326.737 256.759 341.172C292.876 355.607 316.581 335.288 316.581 335.288C317.287 335.086 318.127 334.734 319.043 334.292C306.422 339.03 285.53 338.778 269.16 334.091H269.151Z" fill="white"/>
<path d="M330.357 327.13C332.074 325.882 332.513 325.5 330.357 327.13V327.13Z" fill="white"/>
<path d="M338.732 318.277C338.57 318.448 334.058 324.695 324.776 329.715C313.1 336.022 293.21 339.19 273.272 333.437C245.655 325.47 193.731 287.124 141.063 274.208C112.922 267.308 90.1795 273.856 74.8972 282.034C75.8416 282.598 76.7764 283.171 77.7113 283.754C85.8104 280.304 95.2164 277.628 105.328 277.045C151.214 274.42 222.808 320.591 259.401 335.237C295.995 349.883 321.227 334.865 321.227 334.865C334.764 326.969 339.915 317.04 338.723 318.277H338.732Z" fill="#A7DADF"/>
<path d="M190.259 142.132C186.071 142.584 182.236 145.512 183.686 152.07C185.222 159.001 197.356 158.599 200.781 155.772C206.915 150.692 198.806 141.216 190.268 142.142L190.259 142.132Z" fill="#A7DADF"/>
<path d="M93.3275 245.892C87.2413 246.918 81.7084 247.833 79.6097 248.306C62.9727 252.018 67.1987 267.529 67.1987 267.529L71.73 297.666C72.6267 303.823 77.1485 310.019 84.9709 311.397C89.7788 312.242 94.0621 311.578 101.465 309.737C101.16 306.991 103.468 304.959 103.115 302.213C100.482 283.674 96.3802 261.564 93.3275 245.902V245.892Z" fill="#5C8E9F"/>
<path d="M73.8382 294.699C73.8382 294.699 76.9958 310.532 97.3628 307.555C126.105 303.35 219.364 278.614 226.013 283.453L221.444 251.193C221.444 251.193 221.138 241.667 201.019 245.62C161.678 253.346 100.186 265.869 90.7232 267.217C75.7652 269.34 71.377 263.958 69.7172 261.564C68.2481 259.452 73.8478 294.699 73.8478 294.699H73.8382Z" fill="#D3F7F5"/>
<path d="M73.8382 298.25C73.8382 298.25 76.9958 314.083 97.3627 311.105C126.105 306.901 219.86 284.227 226.509 289.066L221.434 254.734C221.434 254.734 221.129 245.208 201.01 249.161C161.669 256.886 100.177 269.41 90.7137 270.758C75.7557 272.881 71.3675 267.408 69.4977 265.226C69.3928 265.105 73.8382 298.25 73.8382 298.25Z" fill="#73B6C4"/>
<path d="M226.605 286.531C226.605 286.531 238.882 318.851 225.536 324.243C216.54 327.874 207.964 329.383 201.239 328.94C194.513 328.498 188.628 322.372 187.168 314.194L183.066 283.684C183.066 283.684 180.595 272.327 196.536 268.807C201.945 267.61 205.808 266.624 210.673 265.457C217.857 263.737 222.15 259.13 221.224 253.627C220.795 251.092 226.614 286.531 226.614 286.531H226.605Z" fill="#5C8E9F"/>
<path d="M104.651 297.878L101.799 298.451L94.1193 287.819L96.2371 299.568L93.3848 300.141L90.1699 282.286L93.0222 281.713L100.711 292.365L98.5933 280.596L101.436 280.023L104.651 297.878Z" fill="white"/>
<path d="M116.986 286.571C117.3 288.332 117.339 289.921 117.1 291.339C116.852 292.758 116.346 293.924 115.583 294.82C114.82 295.715 113.847 296.288 112.693 296.52C111.539 296.751 110.451 296.6 109.43 296.067C108.4 295.534 107.522 294.659 106.788 293.442C106.053 292.224 105.529 290.756 105.214 289.036L105.052 288.151C104.737 286.39 104.699 284.801 104.956 283.362C105.204 281.924 105.719 280.767 106.483 279.872C107.246 278.977 108.209 278.413 109.373 278.182C110.537 277.951 111.615 278.101 112.645 278.635C113.675 279.168 114.553 280.053 115.288 281.29C116.022 282.527 116.547 284.026 116.862 285.767L117.005 286.561L116.986 286.571ZM113.942 286.34C113.609 284.469 113.084 283.101 112.397 282.226C111.701 281.361 110.871 281.019 109.907 281.21C108.944 281.401 108.295 282.035 107.952 283.091C107.608 284.157 107.599 285.616 107.923 287.477L108.076 288.352C108.4 290.172 108.915 291.54 109.621 292.436C110.327 293.341 111.166 293.693 112.14 293.492C113.113 293.291 113.742 292.667 114.086 291.601C114.429 290.525 114.429 289.066 114.105 287.205L113.952 286.33L113.942 286.34Z" fill="white"/>
<path d="M125.457 293.703L122.242 275.848L126.506 274.993C127.727 274.752 128.881 274.882 129.969 275.395C131.056 275.908 131.991 276.764 132.764 277.961C133.537 279.158 134.071 280.586 134.376 282.246L134.529 283.071C134.825 284.73 134.825 286.259 134.529 287.658C134.233 289.056 133.661 290.203 132.831 291.108C131.991 292.013 130.971 292.587 129.759 292.838L125.466 293.703H125.457ZM125.628 278.262L127.775 290.182L129.158 289.901C130.274 289.679 131.047 289.036 131.467 287.979C131.886 286.923 131.944 285.515 131.648 283.765L131.476 282.819C131.152 281.008 130.608 279.691 129.854 278.866C129.101 278.041 128.166 277.749 127.04 277.971L125.628 278.252V278.262Z" fill="white"/>
<path d="M141.159 290.555L138.306 291.128L135.092 273.273L137.944 272.7L141.159 290.555Z" fill="white"/>
<path d="M150.746 280.616L145.261 281.713L146.119 286.491L152.549 285.203L153.083 288.161L143.792 290.022L140.577 272.167L149.849 270.306L150.383 273.283L143.973 274.571L144.736 278.826L150.221 277.729L150.736 280.606L150.746 280.616Z" fill="white"/>
<path d="M164.063 270.376L159.818 271.231L162.499 286.098L159.646 286.672L156.966 271.804L152.778 272.649L152.244 269.672L163.529 267.408L164.063 270.386V270.376Z" fill="white"/>
<path d="M174.566 278.826C174.442 278.132 174.156 277.639 173.708 277.337C173.259 277.045 172.506 276.784 171.437 276.572C170.369 276.361 169.52 276.11 168.871 275.828C167.097 275.043 166.047 273.736 165.714 271.875C165.542 270.909 165.599 270.004 165.885 269.169C166.171 268.324 166.668 267.62 167.383 267.036C168.098 266.453 168.947 266.061 169.93 265.869C170.913 265.678 171.848 265.729 172.697 266.03C173.555 266.332 174.271 266.865 174.852 267.62C175.434 268.374 175.816 269.29 176.016 270.356L173.164 270.929C173.021 270.114 172.706 269.521 172.22 269.139C171.733 268.756 171.132 268.656 170.417 268.797C169.701 268.937 169.215 269.239 168.89 269.692C168.575 270.145 168.471 270.688 168.585 271.311C168.69 271.895 169.005 272.337 169.529 272.629C170.054 272.931 170.789 273.162 171.733 273.333C173.469 273.635 174.795 274.178 175.701 274.963C176.608 275.748 177.19 276.834 177.447 278.222C177.724 279.771 177.485 281.069 176.741 282.135C175.988 283.191 174.852 283.875 173.317 284.187C172.248 284.398 171.237 284.348 170.264 284.016C169.3 283.684 168.509 283.131 167.889 282.356C167.269 281.572 166.858 280.606 166.648 279.459L169.51 278.886C169.863 280.858 170.96 281.662 172.782 281.29C173.46 281.149 173.956 280.868 174.28 280.435C174.595 280.003 174.7 279.469 174.585 278.836L174.566 278.826Z" fill="white"/>
<path d="M189.601 307.796C189.601 307.796 191.327 328.659 214.108 324.796C242.955 319.907 307.061 303.581 335.012 297.184L328.611 259.2C328.611 259.2 323.097 259.965 287.104 268.324C247.744 277.468 216.636 283.221 207.172 284.911C192.663 287.497 187.922 282.205 186.243 279.811C184.764 277.699 189.591 307.796 189.591 307.796H189.601Z" fill="#D3F7F5"/>
<path d="M311.678 285.113L296.921 247.813L370.032 271.623L314.139 326.768L311.678 285.113Z" fill="#D3F7F5"/>
<path d="M189.601 310.995C189.601 310.995 191.327 331.857 214.108 327.995C242.955 323.106 307.061 306.78 335.012 300.382L328.611 262.399C328.611 262.399 323.097 263.163 287.104 271.523C247.744 280.666 216.636 286.42 207.172 288.11C192.663 290.695 187.922 285.404 186.243 283.01C184.764 280.898 189.591 310.995 189.591 310.995H189.601Z" fill="#73B6C4"/>
<path d="M214.995 309.094L212.725 309.576L213.974 316.095L211.122 316.698L207.716 298.894L212.858 297.807C214.489 297.465 215.844 297.666 216.903 298.411C217.971 299.155 218.668 300.392 218.992 302.103C219.221 303.32 219.211 304.376 218.963 305.271C218.706 306.166 218.21 306.951 217.475 307.605L221.854 314.244L221.882 314.415L218.82 315.069L214.985 309.104L214.995 309.094ZM212.152 306.599L214.451 306.106C215.167 305.955 215.672 305.603 215.977 305.05C216.283 304.497 216.35 303.813 216.197 302.988C216.044 302.163 215.729 301.529 215.262 301.127C214.795 300.724 214.184 300.604 213.421 300.765L211.131 301.247L212.152 306.589V306.599Z" fill="white"/>
<path d="M230.382 304.577L224.907 305.734L225.822 310.502L232.242 309.134L232.805 312.081L223.533 314.053L220.127 296.248L229.381 294.287L229.953 297.254L223.552 298.612L224.363 302.857L229.838 301.7L230.392 304.577H230.382Z" fill="white"/>
<path d="M244.195 300.835C244.51 302.495 244.577 303.984 244.396 305.301C244.215 306.619 243.823 307.726 243.222 308.621L245.97 310.462L244.548 312.916L241.019 310.492C240.694 310.633 240.351 310.743 239.998 310.824C238.853 311.065 237.766 310.924 236.726 310.411C235.696 309.888 234.799 309.023 234.055 307.816C233.311 306.609 232.767 305.14 232.433 303.43L232.261 302.545C231.928 300.795 231.88 299.195 232.109 297.757C232.347 296.319 232.843 295.152 233.607 294.246C234.37 293.341 235.324 292.768 236.478 292.526C237.632 292.285 238.72 292.426 239.76 292.949C240.799 293.472 241.677 294.347 242.431 295.574C243.175 296.801 243.718 298.29 244.052 300.03L244.205 300.825L244.195 300.835ZM241.152 300.644C240.799 298.773 240.265 297.415 239.559 296.55C238.853 295.695 238.023 295.363 237.06 295.564C236.096 295.765 235.457 296.399 235.123 297.475C234.789 298.542 234.789 300 235.142 301.861L235.305 302.726C235.648 304.547 236.182 305.895 236.888 306.79C237.604 307.685 238.443 308.027 239.416 307.816C240.389 307.605 241.019 306.971 241.343 305.895C241.667 304.819 241.658 303.36 241.315 301.499L241.152 300.634V300.644Z" fill="white"/>
<path d="M254.975 288.855L257.217 300.584C257.589 302.535 257.408 304.175 256.683 305.513C255.948 306.851 254.765 307.685 253.124 308.038C251.484 308.39 250.12 308.098 248.965 307.203C247.801 306.307 247.029 304.889 246.647 302.978L244.377 291.118L247.229 290.514L249.471 302.274C249.69 303.441 250.072 304.245 250.606 304.688C251.14 305.13 251.789 305.271 252.562 305.11C254.164 304.768 254.775 303.511 254.384 301.338L252.123 289.488L254.985 288.885L254.975 288.855Z" fill="white"/>
<path d="M264.419 305.06L261.567 305.664L258.161 287.859L261.014 287.255L264.419 305.06Z" fill="white"/>
<path d="M271.612 296.671L269.342 297.153L270.591 303.672L267.739 304.275L264.333 286.471L269.475 285.384C271.106 285.042 272.461 285.243 273.52 285.988C274.588 286.732 275.285 287.969 275.609 289.679C275.838 290.897 275.829 291.953 275.581 292.848C275.323 293.743 274.827 294.528 274.092 295.182L278.471 301.821L278.5 301.992L275.437 302.646L271.603 296.681L271.612 296.671ZM268.769 294.176L271.068 293.683C271.784 293.532 272.289 293.18 272.595 292.627C272.9 292.074 272.967 291.389 272.814 290.565C272.661 289.74 272.347 289.106 271.879 288.704C271.412 288.301 270.801 288.181 270.038 288.342L267.749 288.824L268.769 294.166V294.176Z" fill="white"/>
<path d="M286.999 292.154L281.524 293.311L282.439 298.079L288.86 296.711L289.422 299.658L280.15 301.63L276.744 283.825L285.998 281.864L286.57 284.831L280.169 286.189L280.98 290.434L286.456 289.277L287.009 292.154H286.999Z" fill="white"/>
<path d="M291.092 299.316L287.686 281.511L291.941 280.606C293.152 280.345 294.316 280.465 295.404 280.968C296.501 281.471 297.436 282.316 298.227 283.503C299.019 284.69 299.563 286.109 299.878 287.768L300.03 288.583C300.345 290.243 300.364 291.762 300.078 293.17C299.792 294.568 299.239 295.725 298.409 296.64C297.579 297.556 296.568 298.139 295.356 298.411L291.073 299.316H291.092ZM291.111 283.875L293.381 295.765L294.755 295.474C295.871 295.232 296.634 294.588 297.045 293.522C297.455 292.456 297.502 291.058 297.178 289.307L296.997 288.362C296.653 286.551 296.1 285.243 295.337 284.429C294.574 283.614 293.639 283.332 292.513 283.574L291.111 283.875Z" fill="white"/>
<path d="M315.561 285.243L302.005 253.305L364.356 272.659L316.83 319.897L315.561 285.243Z" fill="#73B6C4"/>
<path opacity="0.46" d="M194.285 280.143L201.239 328.94L191.928 322.04L186.872 305L184.516 279.791L186.872 278.725L194.285 280.143Z" fill="#5C8E9F"/>
<path opacity="0.46" d="M79.581 264.994L86.2015 310.955L77.1389 307.595L72.3119 297.415L67.5994 262.741L71.4152 256.464L79.581 264.994Z" fill="#5C8E9F"/>
<path opacity="0.46" d="M33.3429 233.278L39.9633 279.238L30.109 273.152L26.0737 265.698L21.3612 231.024L25.177 224.748L33.3429 233.278Z" fill="#5C8E9F"/>
</g>
<defs>
<clipPath id="clip0_8916_34062">
<rect width="358" height="335" fill="white" transform="translate(16 16)"/>
</clipPath>
</defs>
</svg>
