<svg width="85" height="80" viewBox="0 0 85 80" fill="none" xmlns="http://www.w3.org/2000/svg">
<g clip-path="url(#clip0_8984_53051)">
<path d="M57.3489 70.1158C56.8082 71.4119 56.0357 72.7595 54.9713 74.1157C54.3791 74.8625 54.2074 74.7423 54.5851 73.8668C54.9713 72.9655 55.4692 71.7123 55.9498 70.1759C56.7138 67.7468 57.4434 64.6224 57.6408 61.1804C57.6923 60.2276 57.9841 60.1761 58.1987 61.1032C58.6365 62.9915 58.9626 66.3305 57.3489 70.1158Z" fill="#DFCBAD"/>
<path d="M31.3057 74.1152C30.2757 72.802 29.5203 71.5059 28.9881 70.2527C27.3144 66.4158 27.6405 63.0168 28.0783 61.1027C28.2843 60.1757 28.5847 60.2271 28.6362 61.1799C28.8422 64.682 29.589 67.8493 30.3701 70.3042C30.8422 71.7805 31.3228 72.9908 31.7005 73.8663C32.0696 74.7418 31.8979 74.862 31.3057 74.1152Z" fill="#DFCBAD"/>
<path d="M43.0575 67.5499C42.9545 67.9104 42.6626 67.9104 42.5596 67.5499C41.9416 65.507 42.4652 62.1251 42.7399 60.7089C42.8086 60.3483 42.9287 60.3483 42.9974 60.7089C43.6669 64.4513 43.3322 66.58 43.0575 67.5499Z" fill="#DFCBAD"/>
<path d="M36.3197 23.5499C31.307 29.2751 29.0409 35.1634 28.174 37.9616C27.8993 38.8714 27.7191 38.8457 27.7791 37.9015C28.3714 29.1378 33.4099 24.7859 35.9764 23.1207C36.7746 22.6057 36.9463 22.8375 36.3197 23.5499Z" fill="#DFCBAD"/>
<path d="M43.1269 12.8621C42.9981 13.8063 42.6119 13.8063 42.4746 12.8707C41.6677 7.54893 42.3544 0.441802 42.7063 -3.25768C42.7921 -4.20187 42.9638 -4.20187 43.0411 -3.25768C43.9252 6.51033 43.4874 10.3386 43.1269 12.8621Z" fill="#DFCBAD"/>
<path d="M77.9401 10.9917C76.6697 12.9573 75.2878 16.0302 75.1505 16.2877C75.099 16.3821 75.0561 16.468 74.9874 16.5538C74.0775 18.116 72.5669 19.1203 70.7815 19.7383C66.258 21.3091 59.9663 20.3735 56.9965 19.7812C56.0609 19.5924 56.0866 19.4207 57.0394 19.4293C64.4813 19.5065 68.3953 18.9486 71.1592 17.6782C72.0175 17.189 73.1934 16.468 74.1033 14.3049C74.9531 12.2621 76.3608 11.0604 77.4509 10.3823C78.2577 9.88444 78.4551 10.1934 77.9401 10.9917Z" fill="#DFCBAD"/>
<path d="M7.46909 10.9917C8.73944 12.9573 10.1214 16.0302 10.2587 16.2877C10.3102 16.3821 10.3531 16.468 10.4218 16.5538C11.3316 18.116 12.8423 19.1203 14.6277 19.7383C19.1512 21.3091 25.4428 20.3735 28.4127 19.7812C29.3483 19.5924 29.3225 19.4207 28.3698 19.4293C20.9279 19.5065 17.0139 18.9486 14.25 17.6782C13.3917 17.189 12.2157 16.468 11.3059 14.3049C10.4561 12.2621 9.04842 11.0604 7.95832 10.3823C7.15148 9.88444 6.95408 10.1934 7.46909 10.9917Z" fill="#DFCBAD"/>
<path d="M58.0363 37.9782C57.0578 35.1457 54.603 29.1115 49.9336 23.5751C49.3242 22.8455 49.5044 22.6052 50.3027 23.1202C52.8691 24.7854 57.9076 29.1372 58.4999 37.901C58.5599 38.8451 58.3454 38.8795 58.0363 37.9782Z" fill="#DFCBAD"/>
<path d="M51.281 32.9831C49.4098 33.3093 47.3154 33.4638 45.2296 33.5153C44.2855 33.5325 43.5301 34.2964 43.5387 35.2492C43.573 37.8071 43.5645 40.4679 43.5387 43.0945C43.5215 44.0473 44.2855 44.8198 45.2296 44.8455C46.6545 44.8798 47.8133 44.9657 48.6716 45.0429C49.6244 45.1288 49.633 45.412 48.6888 45.5408C47.5901 45.6953 46.4142 45.7811 45.2125 45.824C44.2683 45.8498 43.4786 46.6223 43.4615 47.5665C43.307 54.8882 43.1181 55.1629 42.8692 55.635C42.2684 55.9955 42.2254 52.3818 42.1568 47.5579C42.1396 46.6051 41.3585 45.8154 40.4057 45.7811C38.9122 45.7124 37.5818 45.6094 36.6033 45.515C35.6591 45.4378 35.6591 45.2489 36.6033 45.1545C37.9509 45.0258 39.2126 44.9399 40.3972 44.8884C41.3499 44.8455 42.1138 44.0644 42.1053 43.1116C42.0881 40.1418 42.1053 37.5152 42.1482 35.232C42.1654 34.2878 41.4186 33.4981 40.4658 33.4638C37.8307 33.3522 35.5046 33.1376 34.0197 32.9831C33.0755 32.8801 33.0755 32.6741 34.0197 32.5625C36.3544 32.2965 38.526 32.1419 40.5087 32.0647C41.4615 32.0218 42.2512 31.2407 42.2941 30.2879C42.4057 27.3438 42.5602 25.2923 42.6718 23.9962C42.7576 23.052 42.9465 23.052 43.0409 23.9962C43.2211 25.8503 43.3413 27.979 43.4271 30.2793C43.4614 31.2235 44.2511 31.996 45.1953 32.0132C47.8562 32.0647 49.9334 32.2364 51.2638 32.3909C52.208 32.4939 52.2166 32.82 51.281 32.9831Z" fill="#DFCBAD"/>
<path d="M91.8893 46.7678C91.7176 46.9395 91.5116 47.0167 91.2713 47.0167H91.2627C89.4945 47.0167 86.0268 42.991 83.9925 40.4417C83.0998 39.3173 83.2543 39.2143 84.3358 40.21C87.0654 42.6992 90.1468 44.6906 91.3828 45.2914C91.4429 45.3172 91.4944 45.3429 91.5459 45.3687C92.636 45.918 92.5244 46.124 91.8893 46.7678Z" fill="#DFCBAD"/>
<path d="M74.6019 100.217L74.3873 100.363C74.25 100.458 73.9753 100.561 73.589 100.672C72.2672 101.05 69.5977 101.522 66.3017 101.943C62.0357 102.483 56.7311 102.93 51.933 102.93C49.3322 102.93 47.0919 102.801 45.2637 102.535C45.2207 102.535 45.1864 102.535 45.1521 102.518L44.8087 102.466L44.7916 102.114C44.7143 100.166 44.6456 99.565 44.5942 99.0243C44.5426 98.4578 44.4911 97.9599 44.4311 96.1402H41.8303C41.7788 97.9513 41.7273 98.4406 41.6758 98.9985C41.6243 99.5307 41.5642 100.132 41.4784 102.071L41.4612 102.441L41.0921 102.475C40.9032 102.492 40.7144 102.509 40.517 102.526C38.0364 102.758 35.1867 102.878 32.234 102.878C23.4445 102.878 15.2645 101.883 12.2345 100.432C12.2002 100.415 12.1659 100.398 12.1315 100.38L11.874 100.252L11.8998 99.9599C12.08 97.8483 12.1573 95.5737 12.2345 93.3763C12.3461 89.8914 12.4749 86.2778 13.0156 82.9903C13.3075 81.1792 13.8139 79.308 14.3546 77.3338C15.0413 74.836 15.7452 72.2438 16.0198 69.6773L16.0713 69.2138L16.5263 69.2997C16.6293 69.3168 16.7408 69.334 16.8524 69.3597C19.2558 69.7546 23.5389 70.0722 28.9894 70.2524C29.4443 70.2696 29.9079 70.2868 30.3714 70.3039C33.6932 70.3983 37.3926 70.4498 41.3239 70.4498C45.9589 70.4498 51.1776 70.364 55.95 70.1752C56.4221 70.158 56.8942 70.1408 57.3491 70.1151C62.1044 69.9005 66.2931 69.5743 68.8681 69.0937H68.9025L69.3231 69.0078L69.3746 69.4713C69.6235 71.9777 70.3273 74.3296 71.0054 76.6042C71.5376 78.3982 72.0869 80.2522 72.3959 82.132C73.28 87.5138 74.104 94.1832 74.5761 99.9685L74.6019 100.217Z" fill="#333333"/>
<path d="M74.6019 100.217L74.3873 100.363C74.25 100.458 73.9753 100.561 73.589 100.672C72.2672 101.05 69.5977 101.522 66.3017 101.943C62.0357 102.483 56.7311 102.93 51.933 102.93C49.3322 102.93 47.0919 102.801 45.2637 102.535C45.2207 102.535 45.1864 102.535 45.1521 102.518L44.8087 102.466L44.7916 102.114C44.7143 100.166 44.6456 99.565 44.5942 99.0243C44.5426 98.4578 44.4911 97.9599 44.4311 96.1402H41.8303C41.7788 97.9513 41.7273 98.4406 41.6758 98.9985C41.6243 99.5307 41.5642 100.132 41.4784 102.071L41.4612 102.441L41.0921 102.475C40.9032 102.492 40.7144 102.509 40.517 102.526C38.0364 102.758 35.1867 102.878 32.234 102.878C23.4445 102.878 15.2645 101.883 12.2345 100.432C12.2002 100.415 12.1659 100.398 12.1315 100.38L11.874 100.252L11.8998 99.9599C12.08 97.8483 12.1573 95.5737 12.2345 93.3763C12.3461 89.8914 12.4749 86.2778 13.0156 82.9903C13.3075 81.1792 13.8139 79.308 14.3546 77.3338C15.0413 74.836 15.7452 72.2438 16.0198 69.6773L16.0713 69.2138L16.5263 69.2997C16.6293 69.3168 16.7408 69.334 16.8524 69.3597C19.2558 69.7546 23.5389 70.0722 28.9894 70.2524C29.4443 70.2696 29.9079 70.2868 30.3714 70.3039C33.6932 70.3983 37.3926 70.4498 41.3239 70.4498C45.9589 70.4498 51.1776 70.364 55.95 70.1752C56.4221 70.158 56.8942 70.1408 57.3491 70.1151C62.1044 69.9005 66.2931 69.5743 68.8681 69.0937H68.9025L69.3231 69.0078L69.3746 69.4713C69.6235 71.9777 70.3273 74.3296 71.0054 76.6042C71.5376 78.3982 72.0869 80.2522 72.3959 82.132C73.28 87.5138 74.104 94.1832 74.5761 99.9685L74.6019 100.217Z" fill="black" fill-opacity="0.2"/>
<path d="M106.73 56.4935C105.854 51.7984 104.438 48.6139 103.073 45.541C101.622 42.2878 100.258 39.215 99.6482 34.494C99.4851 33.2151 99.3993 31.9362 99.3135 30.5714C99.2276 29.2924 99.1504 27.9706 98.9873 26.6573L98.807 25.181C98.3349 21.2326 97.6912 16.6833 96.7127 13.2671C95.7513 9.86803 93.451 4.00551 93.1076 2.88107C92.9875 1.89397 92.9188 0.90686 92.8501 -0.14032C92.6699 -2.79262 92.481 -5.53934 91.3823 -8.20021C89.8717 -11.8739 87.3996 -15.0069 84.2323 -17.2472C79.7003 -20.466 73.2455 -21.7106 71.546 -21.9939C66.0869 -25.7449 59.0914 -28.9637 55.8554 -30.0623V-35.8905C59.4863 -38.6372 60.3703 -42.6028 61.1429 -47.1607C63.6921 -48.1048 65.7522 -50.7056 66.353 -53.9159C66.9967 -57.3922 65.7951 -60.714 63.5205 -62.4135C63.2973 -62.5852 63.0655 -62.7311 62.8252 -62.8684L62.9797 -65.4263V-65.5293C62.9797 -77.7865 53.1602 -84.4902 43.4266 -84.7992C43.3579 -84.7992 43.2721 -84.8164 43.1863 -84.8164H42.594C42.5082 -84.8164 42.4309 -84.8078 42.3623 -84.7992C33.4441 -84.516 24.4743 -78.8766 23.0237 -68.5335V-68.5078C22.8778 -67.555 22.8092 -66.5593 22.8092 -65.5293V-65.4263L22.9636 -62.8684C20.2341 -61.3577 18.7234 -57.7269 19.4359 -53.9159C20.0281 -50.7056 22.0881 -48.1048 24.646 -47.1607C25.4185 -42.6028 26.3026 -38.6372 29.9248 -35.8905V-30.0623C26.603 -28.9293 19.3329 -25.556 14.2343 -21.9939C12.5176 -21.7106 6.08 -20.466 1.54794 -17.2472C-1.61077 -15.0069 -4.08281 -11.8739 -5.60208 -8.20021C-6.70076 -5.53934 -6.88101 -2.79262 -7.06126 -0.14032C-7.13851 0.90686 -7.20718 1.89397 -7.31877 2.88107C-7.66211 4.00551 -9.96248 9.86803 -10.9324 13.2671C-11.9023 16.6833 -12.5547 21.2326 -13.0268 25.181L-13.1984 26.6487C-13.3615 27.9706 -13.4474 29.2924 -13.5332 30.5714C-13.619 31.9362 -13.6963 33.2151 -13.8679 34.494C-14.4774 39.215 -15.8421 42.2878 -17.2842 45.541C-18.6575 48.6139 -20.0652 51.7984 -20.9493 56.4849C-23.078 67.8924 -25.2496 82.0208 -23.1381 96.8102C-23.0437 97.4453 -22.9836 98.1149 -22.9063 98.8273C-22.6231 101.625 -22.2711 105.102 -20.151 109.256C-20.1424 109.273 -20.1253 109.291 -20.1167 109.308C-13.7392 120.758 -11.4045 120.758 -10.632 120.758C-10.4689 120.758 -10.3058 120.741 -10.1513 120.707C-9.20713 120.501 -8.44321 119.968 -7.9282 119.153C-6.4776 116.818 -7.49902 112.655 -8.58054 108.252C-8.83804 107.205 -9.16421 105.883 -9.39596 104.716C-8.63204 106.072 -7.46469 107.728 -6.08275 108.235C-5.49049 108.449 -4.9154 108.561 -4.39181 108.561C-3.50771 108.561 -2.74379 108.235 -2.23737 107.643C-1.87686 107.213 -1.49061 106.467 -1.68803 105.299C-1.68803 105.265 -1.69661 105.231 -1.7052 105.196C-1.76528 104.93 -3.21588 98.5269 -3.53346 97.2307C-4.68365 92.5527 -6.38317 90.673 -7.62777 89.3082C-8.53762 88.3125 -8.87238 87.9348 -8.85521 86.7332C-8.7608 82.5616 -6.42609 78.4157 -3.95406 73.1111C-1.29319 67.4031 1.4621 61.5063 2.08869 55.4549C2.47494 51.764 3.82255 43.893 4.06289 42.4939C4.58648 41.3351 5.16157 39.7729 5.77958 38.1249C6.36325 36.5455 6.96409 34.9146 7.45335 33.8417C9.95971 28.3397 11.1786 23.2668 11.9082 19.7219C11.9425 19.533 11.9854 19.3442 12.0283 19.1554L12.5691 19.6961C13.1699 20.2884 13.745 20.8549 14.2085 21.4643C15.4016 23.0351 15.6677 23.7904 15.6591 25.5243C15.6506 27.5071 16.0626 30.8375 16.4746 34.0563C16.7492 36.2451 17.0067 38.3051 17.084 39.5841C17.2728 42.9059 17.4702 45.6268 17.6591 48.2534C17.8479 50.8799 18.0453 53.5837 18.2342 56.8884L18.3801 59.3261C17.6677 60.8969 15.393 66.0641 15.187 68.7507C14.9982 71.2228 14.2257 74.4158 13.4704 77.5059C12.9296 79.7376 12.4232 81.8406 12.1142 83.686C10.0541 96.2093 9.9168 109.368 11.7193 122.792C12.0455 125.247 12.4575 128.44 12.8438 130.698C13.7622 135.994 14.6291 140.998 14.2171 146.148C14.0025 148.766 14.1656 151.461 14.3373 153.787C14.4574 155.418 14.6291 157.118 14.8695 158.998C14.9725 159.813 15.084 160.585 15.1956 161.332C15.642 164.388 15.9853 166.791 15.5304 169.727C15.1098 172.422 14.878 175.358 14.8008 178.963C14.5347 190.782 15.2557 196.001 17.393 207.88C17.7707 209.983 18.1827 212.181 18.629 214.404C18.938 218.138 19.3843 228.266 17.9166 231.854C17.7535 232.249 17.599 232.652 17.4359 233.056C16.5261 235.391 15.6591 237.596 13.3674 239.725C9.97689 242.875 10.1314 244.832 10.6893 247.055L10.7237 247.193C11.1271 248.798 12.4833 249.553 23.1096 249.553C27.7876 249.553 32.5428 249.382 33.7359 249.339C33.9333 249.382 34.1822 249.425 34.4655 249.425C35.4268 249.425 36.2938 248.995 36.9118 248.223C38.3109 246.472 38.3709 243.004 37.092 237.322C36.8088 236.051 36.5341 234.979 36.2938 234.026C34.7831 228.034 34.3282 226.223 37.2723 201.486C37.4611 199.898 37.6414 198.542 37.8044 197.349C38.371 193.108 38.7057 190.542 38.5169 184.825C38.1907 175.083 37.2208 169.65 36.7058 166.723C36.5341 165.753 36.3968 164.98 36.3796 164.568C36.3538 163.959 36.2937 163.169 36.2337 162.328C36.0963 160.525 35.8989 158.045 36.0534 156.877C36.1478 156.139 36.1307 155.169 36.0963 153.933C36.0277 151.101 35.9247 146.826 37.1864 142.071C39.7357 132.457 41.9417 112.904 42.5339 96.1406C42.5682 95.351 42.594 94.5613 42.6112 93.7802H43.1777C43.1948 94.5613 43.2206 95.351 43.2549 96.1406C43.8472 112.904 46.0445 132.457 48.5938 142.071C49.8556 146.826 49.7526 151.101 49.6839 153.933C49.6582 155.169 49.6324 156.139 49.7269 156.877C49.8814 158.045 49.6925 160.525 49.5552 162.328C49.4865 163.169 49.4264 163.959 49.4007 164.568C49.3835 164.98 49.2462 165.753 49.0745 166.723C48.5595 169.65 47.5982 175.083 47.2634 184.825C47.0746 190.542 47.4179 193.1 47.9844 197.34C48.1389 198.542 48.3192 199.889 48.508 201.486C51.4521 226.223 50.9972 228.034 49.4865 234.026C49.2462 234.979 48.9801 236.051 48.6883 237.322C47.4093 243.004 47.4694 246.472 48.8685 248.223C49.4865 248.995 50.362 249.425 51.3234 249.425C51.5981 249.425 51.847 249.382 52.053 249.339C53.2375 249.382 57.9927 249.553 62.6793 249.553C73.3056 249.553 74.6532 248.798 75.0566 247.193L75.091 247.055C75.6489 244.832 75.812 242.875 72.4129 239.725C70.1211 237.596 69.2628 235.391 68.3444 233.056C68.1899 232.652 68.0354 232.249 67.8723 231.854C66.3959 228.266 66.8509 218.138 67.1513 214.404C67.5976 212.181 68.0182 209.983 68.3959 207.88C70.5246 196.001 71.2456 190.782 70.9881 178.963C70.9108 175.358 70.6705 172.422 70.2499 169.727C69.795 166.791 70.1469 164.388 70.5847 161.332C70.6962 160.585 70.8078 159.813 70.9108 158.998C71.1511 157.118 71.3228 155.418 71.443 153.787C71.6147 151.461 71.7777 148.766 71.5717 146.148C71.1512 140.998 72.0181 135.994 72.9365 130.698C73.3314 128.44 73.7348 125.247 74.0609 122.792C75.8806 109.222 75.7347 93.6171 73.6661 81.0595C73.3228 78.9908 72.7219 77.1025 72.1383 75.2656C71.4344 73.0682 70.7649 70.991 70.5932 68.7507C70.3872 66.0641 68.1212 60.8969 67.4002 59.3261L67.5461 56.8884C67.7349 53.5837 67.9324 50.8799 68.1212 48.2534C68.31 45.6268 68.5075 42.9059 68.7049 39.5841C68.7735 38.3051 69.0396 36.2451 69.3143 34.0563C69.7177 30.8375 70.1383 27.5071 70.1211 25.5243C70.1126 23.7904 70.3872 23.0351 71.5717 21.4643C72.0353 20.8549 72.6103 20.2884 73.2198 19.6961C73.4258 19.4901 73.6318 19.2841 73.8464 19.0695C73.9665 19.6017 74.0953 20.1768 74.2154 20.7261C75.0395 24.4084 76.284 29.1208 78.3183 33.8159C78.7647 34.8288 79.3226 36.3309 79.8634 37.7815C80.4985 39.4896 81.1595 41.2493 81.7174 42.4853C81.9577 43.9016 83.2882 51.7726 83.6916 55.4635C84.2667 60.6737 86.8932 66.4418 89.4339 72.0211C92.0604 77.7977 94.5411 82.3985 94.6355 86.7332C94.6612 87.9348 94.3179 88.3125 93.4166 89.3082C92.172 90.673 90.4639 92.5527 89.3223 97.2307C89.0047 98.5269 87.5541 105.788 87.4855 106.055C87.4855 106.089 87.4769 106.123 87.4683 106.158C87.2709 107.325 87.6657 107.213 88.0262 107.643C88.5241 108.235 89.288 108.561 90.1721 108.561C90.7042 108.561 91.2708 108.449 91.863 108.235C93.1677 107.754 94.2835 106.02 95.1076 104.312C94.893 105.437 94.6012 106.655 94.3694 107.651C93.2793 112.355 92.2407 116.793 93.7514 119.179C94.2578 119.977 95.0131 120.509 95.9402 120.707C96.0947 120.741 96.2492 120.758 96.4123 120.758C97.1848 120.758 99.5281 120.758 105.906 109.308C105.914 109.291 105.923 109.273 105.931 109.256C108.051 105.102 108.412 101.625 108.695 98.8273C108.764 98.1149 108.833 97.4453 108.918 96.8102C111.038 82.0208 108.858 67.8924 106.73 56.4935ZM107.227 96.5698C106.755 99.823 106.893 103.608 104.403 108.475C104.403 108.475 98.5152 119.041 96.4123 119.041C96.3779 119.041 96.335 119.033 96.3007 119.024C91.8888 118.08 98.1804 103.917 97.0388 100.57C96.6869 99.5483 96.3264 99.1792 95.9917 99.1792C95.3307 99.1792 94.7556 100.638 94.4895 101.359C94.0775 102.484 92.5669 106.149 91.2794 106.621C90.8845 106.758 90.5068 106.844 90.1721 106.844C89.4854 106.844 89.0133 106.492 89.1592 105.582C89.1592 105.582 90.6699 98.9389 90.9875 97.6427C92.9188 89.7545 96.438 90.7931 96.3522 86.6988C96.1548 77.5917 86.5241 65.4547 85.3997 55.2747C84.9448 51.1374 83.374 41.9789 83.374 41.9789C82.3526 39.7815 80.8934 35.4382 79.8977 33.1293C77.0737 26.6488 75.8463 19.0781 74.9879 16.5546C74.8077 15.9966 74.6275 15.6876 74.4644 15.6876C74.3957 15.6876 74.3356 15.7391 74.2755 15.8421C73.3485 17.3528 71.9408 18.4343 70.7821 19.739C70.5761 19.9622 70.3872 20.1854 70.207 20.4257C68.7907 22.2969 68.3959 23.4299 68.4044 25.5415C68.4302 28.7345 67.177 36.288 66.9882 39.4811C66.6019 46.1075 66.2157 50.1589 65.8294 56.7854C65.7779 57.7467 65.7178 58.6995 65.6663 59.6608C65.6663 59.6608 68.6705 66.0984 68.8851 68.8881C68.8937 68.9567 68.8937 69.0168 68.9023 69.0855C69.28 73.3858 71.2627 77.0252 71.9752 81.3427C72.8936 86.9649 73.4773 93.6257 73.5889 100.673C73.7004 107.806 73.3313 115.333 72.3614 122.569C71.9408 125.737 71.3829 128.835 70.8936 131.882C70.8593 132.08 70.8336 132.269 70.7992 132.457C70.1898 136.303 69.7091 140.054 69.7521 143.745C69.7521 144.603 69.7864 145.444 69.8551 146.285C70.0525 148.732 69.9151 151.229 69.7349 153.659C69.6061 155.375 69.4259 157.083 69.2113 158.783C68.6791 162.912 67.9409 166.036 68.5589 169.993C69.0225 172.971 69.2027 175.993 69.2714 178.997C69.5375 190.868 68.7993 195.924 66.7049 207.58C66.3101 209.777 65.8895 211.975 65.4517 214.164C65.4517 214.164 64.6964 223.202 65.4947 229.125C65.6663 230.455 65.9238 231.622 66.2843 232.507C66.4045 232.798 66.5161 233.09 66.6363 233.391C67.6062 235.871 68.559 238.498 71.2456 240.987C74.2498 243.777 73.8206 245.064 73.3914 246.781C73.2884 247.176 72.0782 247.433 70.2842 247.588C69.9237 247.622 69.546 247.656 69.1512 247.682C68.3787 247.725 67.5375 247.759 66.6449 247.794C66.2843 247.794 65.9067 247.802 65.529 247.811C64.602 247.828 63.6406 247.837 62.6793 247.837H62.6106C62.1643 247.837 61.7094 247.837 61.263 247.828C60.0613 247.828 58.8768 247.811 57.7867 247.785C57.1859 247.776 56.6108 247.759 56.07 247.751C53.5808 247.682 51.8384 247.613 51.8384 247.613C51.8384 247.613 51.6238 247.708 51.3234 247.708C50.3105 247.708 48.3449 246.669 50.362 237.699C52.4822 228.301 53.6581 230.18 50.2161 201.288C49.3663 194.147 48.7398 192.078 48.9801 184.885C49.4264 171.675 51.0315 166.585 51.1174 164.637C51.1946 162.688 51.6839 158.568 51.435 156.654C51.2204 154.998 51.7525 150.981 51.0916 145.942C50.9114 144.569 50.6453 143.127 50.2505 141.633C49.9844 140.637 49.7269 139.53 49.4694 138.346V138.328C49.4694 138.328 49.4608 138.303 49.4608 138.294C47.5638 129.402 46.0016 115.557 45.2635 102.535C45.0575 98.9474 44.9201 95.411 44.8515 92.0635H40.9288C40.8601 95.411 40.7228 98.9389 40.5168 102.527C39.9074 113.256 38.74 124.526 37.2894 133.144C37.2809 133.187 37.2723 133.221 37.2723 133.264C36.7229 136.483 36.1393 139.333 35.5298 141.633C35.1951 142.903 34.9462 144.139 34.7745 145.324C33.9848 150.654 34.5771 154.938 34.3539 156.654C34.105 158.568 34.5857 162.688 34.6715 164.637C34.7487 166.585 36.3538 171.675 36.8002 184.885C37.0405 192.078 36.4225 194.147 35.5642 201.288C32.1308 230.18 33.2981 228.301 35.4183 237.699C37.4354 246.669 35.4697 247.708 34.4655 247.708C34.1651 247.708 33.9419 247.613 33.9419 247.613C33.9419 247.613 32.0879 247.691 29.4613 247.759C28.9292 247.768 28.3541 247.777 27.7618 247.794C26.6631 247.811 25.4786 247.828 24.2769 247.828C23.8907 247.837 23.4958 247.837 23.1096 247.837H22.9207C21.9336 247.837 20.9551 247.828 20.0109 247.811C19.6247 247.811 19.2556 247.794 18.8865 247.777C17.9938 247.751 17.1441 247.716 16.3801 247.665C15.9767 247.639 15.6076 247.605 15.2557 247.57C13.5905 247.407 12.4918 247.159 12.3974 246.781C11.9683 245.064 11.5391 243.777 14.5433 240.987C17.5475 238.197 18.3801 235.245 19.5045 232.507C19.5217 232.455 19.5474 232.404 19.5646 232.352C19.9079 231.442 20.1569 230.266 20.3199 228.936C21.0753 223.013 20.3371 214.164 20.3371 214.164C19.8908 211.975 19.4702 209.777 19.0839 207.58C16.9896 195.924 16.2514 190.868 16.5175 178.997C16.5776 175.993 16.7664 172.971 17.2299 169.993C17.8393 166.036 17.1012 162.912 16.5776 158.783C16.3544 157.083 16.1741 155.375 16.054 153.659C15.8737 151.229 15.7278 148.732 15.9252 146.285C15.9767 145.642 16.0111 144.998 16.0196 144.346C16.0797 142.079 15.9338 139.779 15.6677 137.453C15.127 132.629 14.1055 127.694 13.4189 122.569C12.3717 114.75 12.0283 107.368 12.2343 100.432C12.406 94.6214 12.9639 89.1279 13.8137 83.9607C14.5089 79.7376 16.4231 73.712 16.8522 69.3602C16.878 69.1971 16.8952 69.0426 16.9037 68.8881C17.1183 66.0984 20.1225 59.6608 20.1225 59.6608C20.0624 58.6995 20.0109 57.7467 19.9509 56.7854C19.5646 50.1589 19.1783 46.1075 18.7921 39.4811C18.6118 36.288 17.3587 28.7345 17.3758 25.5415C17.393 23.4299 16.9896 22.2969 15.5733 20.4257C15.4445 20.254 15.3072 20.0824 15.1527 19.9193C13.9682 18.5374 12.4747 17.4215 11.5133 15.8421C11.4447 15.7305 11.376 15.679 11.3159 15.679C11.1099 15.679 10.9211 16.1769 10.6979 17.0438C9.97689 19.842 8.90396 26.52 5.89116 33.1293C4.84398 35.4211 3.42771 39.7815 2.41486 41.9789C2.41486 41.9789 0.81834 51.1288 0.389168 55.2747C-0.812515 66.7422 -10.3745 77.5917 -10.5633 86.6988C-10.6577 90.7931 -7.12993 89.7545 -5.19866 97.6427C-4.88107 98.9389 -3.37897 105.582 -3.37897 105.582C-3.22446 106.492 -3.69655 106.844 -4.39181 106.844C-4.71798 106.844 -5.10423 106.758 -5.49049 106.621C-6.77801 106.149 -8.29728 103.342 -8.70928 102.218C-8.97537 101.497 -9.55046 100.038 -10.2114 100.038C-10.5461 100.038 -10.8981 100.407 -11.25 101.428C-12.3916 104.776 -6.09992 118.08 -10.5118 119.024C-10.5547 119.033 -10.5891 119.041 -10.632 119.041C-12.7349 119.041 -18.6232 108.475 -18.6232 108.475C-21.1124 103.608 -20.975 99.823 -21.4385 96.5698C-23.3612 83.0852 -21.7561 70.1584 -19.2584 56.8025C-17.4902 47.3435 -13.3873 44.1762 -12.1598 34.7172C-11.8251 32.1164 -11.8165 29.4641 -11.4989 26.8633C-11.0268 23.0179 -10.3402 17.4644 -9.28439 13.7306C-8.38312 10.5547 -6.3145 3.76517 -5.77374 1.97122C-5.68791 1.68797 -5.63642 1.52488 -5.63642 1.52488C-5.53342 0.67511 -5.46474 -0.0974045 -5.39607 -0.80983C-5.20724 -3.12737 -5.08707 -4.9299 -4.01414 -7.54787C-2.64078 -10.8783 -0.400501 -13.7623 2.54362 -15.8481C7.41902 -19.3072 14.8952 -20.3544 14.8952 -20.3544C21.4015 -25.0067 30.8519 -28.7577 31.5299 -28.7577H31.6415V-36.7918C31.6415 -36.7918 31.5557 -36.8433 31.5214 -36.8691C27.6674 -39.4098 27.0236 -43.2895 26.1567 -48.534C23.8134 -48.8688 21.6933 -51.1434 21.1182 -54.2334C20.586 -57.0832 21.5302 -59.7784 23.3242 -61.0659C23.7533 -61.3835 24.234 -61.6152 24.749 -61.744L24.5258 -65.5293C24.5258 -77.1428 33.8389 -82.8594 42.5253 -83.0911C42.5511 -83.0911 42.5768 -83.0997 42.594 -83.0997H43.1863C43.1863 -83.0997 43.2292 -83.0911 43.2549 -83.0911C51.9414 -82.8594 61.263 -77.1428 61.263 -65.5293L61.0398 -61.744C62.0441 -61.4865 62.8939 -60.8599 63.5376 -59.993C64.602 -58.5509 65.0741 -56.4394 64.6621 -54.2334C64.087 -51.1434 61.9754 -48.8688 59.6236 -48.534C58.7996 -43.5213 58.1644 -39.7445 54.7396 -37.2038C54.5508 -37.0665 54.3448 -36.9291 54.1388 -36.7918V-28.7577H54.2503C54.937 -28.7577 63.8381 -25.2985 70.8936 -20.3544C70.8936 -20.3544 78.3698 -19.3072 83.2367 -15.8481C86.1894 -13.7623 88.4211 -10.8783 89.7944 -7.54787C90.8845 -4.90415 90.9875 -3.09304 91.1935 -0.749748C91.2536 -0.0544891 91.3223 0.692276 91.4253 1.52488C91.4253 1.52488 91.4768 1.67938 91.554 1.96264C92.0948 3.748 94.1634 10.5461 95.0647 13.7306C96.129 17.4644 96.8071 23.0179 97.2792 26.8633C97.5968 29.4641 97.6139 32.1164 97.9487 34.7172C99.1675 44.1762 103.27 47.3435 105.039 56.8025C107.536 70.1584 109.15 83.0852 107.227 96.5698Z" fill="#333333"/>
<path d="M106.73 56.4935C105.854 51.7984 104.438 48.6139 103.073 45.541C101.622 42.2878 100.258 39.215 99.6482 34.494C99.4851 33.2151 99.3993 31.9362 99.3135 30.5714C99.2276 29.2924 99.1504 27.9706 98.9873 26.6573L98.807 25.181C98.3349 21.2326 97.6912 16.6833 96.7127 13.2671C95.7513 9.86803 93.451 4.00551 93.1076 2.88107C92.9875 1.89397 92.9188 0.90686 92.8501 -0.14032C92.6699 -2.79262 92.481 -5.53934 91.3823 -8.20021C89.8717 -11.8739 87.3996 -15.0069 84.2323 -17.2472C79.7003 -20.466 73.2455 -21.7106 71.546 -21.9939C66.0869 -25.7449 59.0914 -28.9637 55.8554 -30.0623V-35.8905C59.4863 -38.6372 60.3703 -42.6028 61.1429 -47.1607C63.6921 -48.1048 65.7522 -50.7056 66.353 -53.9159C66.9967 -57.3922 65.7951 -60.714 63.5205 -62.4135C63.2973 -62.5852 63.0655 -62.7311 62.8252 -62.8684L62.9797 -65.4263V-65.5293C62.9797 -77.7865 53.1602 -84.4902 43.4266 -84.7992C43.3579 -84.7992 43.2721 -84.8164 43.1863 -84.8164H42.594C42.5082 -84.8164 42.4309 -84.8078 42.3623 -84.7992C33.4441 -84.516 24.4743 -78.8766 23.0237 -68.5335V-68.5078C22.8778 -67.555 22.8092 -66.5593 22.8092 -65.5293V-65.4263L22.9636 -62.8684C20.2341 -61.3577 18.7234 -57.7269 19.4359 -53.9159C20.0281 -50.7056 22.0881 -48.1048 24.646 -47.1607C25.4185 -42.6028 26.3026 -38.6372 29.9248 -35.8905V-30.0623C26.603 -28.9293 19.3329 -25.556 14.2343 -21.9939C12.5176 -21.7106 6.08 -20.466 1.54794 -17.2472C-1.61077 -15.0069 -4.08281 -11.8739 -5.60208 -8.20021C-6.70076 -5.53934 -6.88101 -2.79262 -7.06126 -0.14032C-7.13851 0.90686 -7.20718 1.89397 -7.31877 2.88107C-7.66211 4.00551 -9.96248 9.86803 -10.9324 13.2671C-11.9023 16.6833 -12.5547 21.2326 -13.0268 25.181L-13.1984 26.6487C-13.3615 27.9706 -13.4474 29.2924 -13.5332 30.5714C-13.619 31.9362 -13.6963 33.2151 -13.8679 34.494C-14.4774 39.215 -15.8421 42.2878 -17.2842 45.541C-18.6575 48.6139 -20.0652 51.7984 -20.9493 56.4849C-23.078 67.8924 -25.2496 82.0208 -23.1381 96.8102C-23.0437 97.4453 -22.9836 98.1149 -22.9063 98.8273C-22.6231 101.625 -22.2711 105.102 -20.151 109.256C-20.1424 109.273 -20.1253 109.291 -20.1167 109.308C-13.7392 120.758 -11.4045 120.758 -10.632 120.758C-10.4689 120.758 -10.3058 120.741 -10.1513 120.707C-9.20713 120.501 -8.44321 119.968 -7.9282 119.153C-6.4776 116.818 -7.49902 112.655 -8.58054 108.252C-8.83804 107.205 -9.16421 105.883 -9.39596 104.716C-8.63204 106.072 -7.46469 107.728 -6.08275 108.235C-5.49049 108.449 -4.9154 108.561 -4.39181 108.561C-3.50771 108.561 -2.74379 108.235 -2.23737 107.643C-1.87686 107.213 -1.49061 106.467 -1.68803 105.299C-1.68803 105.265 -1.69661 105.231 -1.7052 105.196C-1.76528 104.93 -3.21588 98.5269 -3.53346 97.2307C-4.68365 92.5527 -6.38317 90.673 -7.62777 89.3082C-8.53762 88.3125 -8.87238 87.9348 -8.85521 86.7332C-8.7608 82.5616 -6.42609 78.4157 -3.95406 73.1111C-1.29319 67.4031 1.4621 61.5063 2.08869 55.4549C2.47494 51.764 3.82255 43.893 4.06289 42.4939C4.58648 41.3351 5.16157 39.7729 5.77958 38.1249C6.36325 36.5455 6.96409 34.9146 7.45335 33.8417C9.95971 28.3397 11.1786 23.2668 11.9082 19.7219C11.9425 19.533 11.9854 19.3442 12.0283 19.1554L12.5691 19.6961C13.1699 20.2884 13.745 20.8549 14.2085 21.4643C15.4016 23.0351 15.6677 23.7904 15.6591 25.5243C15.6506 27.5071 16.0626 30.8375 16.4746 34.0563C16.7492 36.2451 17.0067 38.3051 17.084 39.5841C17.2728 42.9059 17.4702 45.6268 17.6591 48.2534C17.8479 50.8799 18.0453 53.5837 18.2342 56.8884L18.3801 59.3261C17.6677 60.8969 15.393 66.0641 15.187 68.7507C14.9982 71.2228 14.2257 74.4158 13.4704 77.5059C12.9296 79.7376 12.4232 81.8406 12.1142 83.686C10.0541 96.2093 9.9168 109.368 11.7193 122.792C12.0455 125.247 12.4575 128.44 12.8438 130.698C13.7622 135.994 14.6291 140.998 14.2171 146.148C14.0025 148.766 14.1656 151.461 14.3373 153.787C14.4574 155.418 14.6291 157.118 14.8695 158.998C14.9725 159.813 15.084 160.585 15.1956 161.332C15.642 164.388 15.9853 166.791 15.5304 169.727C15.1098 172.422 14.878 175.358 14.8008 178.963C14.5347 190.782 15.2557 196.001 17.393 207.88C17.7707 209.983 18.1827 212.181 18.629 214.404C18.938 218.138 19.3843 228.266 17.9166 231.854C17.7535 232.249 17.599 232.652 17.4359 233.056C16.5261 235.391 15.6591 237.596 13.3674 239.725C9.97689 242.875 10.1314 244.832 10.6893 247.055L10.7237 247.193C11.1271 248.798 12.4833 249.553 23.1096 249.553C27.7876 249.553 32.5428 249.382 33.7359 249.339C33.9333 249.382 34.1822 249.425 34.4655 249.425C35.4268 249.425 36.2938 248.995 36.9118 248.223C38.3109 246.472 38.3709 243.004 37.092 237.322C36.8088 236.051 36.5341 234.979 36.2938 234.026C34.7831 228.034 34.3282 226.223 37.2723 201.486C37.4611 199.898 37.6414 198.542 37.8044 197.349C38.371 193.108 38.7057 190.542 38.5169 184.825C38.1907 175.083 37.2208 169.65 36.7058 166.723C36.5341 165.753 36.3968 164.98 36.3796 164.568C36.3538 163.959 36.2937 163.169 36.2337 162.328C36.0963 160.525 35.8989 158.045 36.0534 156.877C36.1478 156.139 36.1307 155.169 36.0963 153.933C36.0277 151.101 35.9247 146.826 37.1864 142.071C39.7357 132.457 41.9417 112.904 42.5339 96.1406C42.5682 95.351 42.594 94.5613 42.6112 93.7802H43.1777C43.1948 94.5613 43.2206 95.351 43.2549 96.1406C43.8472 112.904 46.0445 132.457 48.5938 142.071C49.8556 146.826 49.7526 151.101 49.6839 153.933C49.6582 155.169 49.6324 156.139 49.7269 156.877C49.8814 158.045 49.6925 160.525 49.5552 162.328C49.4865 163.169 49.4264 163.959 49.4007 164.568C49.3835 164.98 49.2462 165.753 49.0745 166.723C48.5595 169.65 47.5982 175.083 47.2634 184.825C47.0746 190.542 47.4179 193.1 47.9844 197.34C48.1389 198.542 48.3192 199.889 48.508 201.486C51.4521 226.223 50.9972 228.034 49.4865 234.026C49.2462 234.979 48.9801 236.051 48.6883 237.322C47.4093 243.004 47.4694 246.472 48.8685 248.223C49.4865 248.995 50.362 249.425 51.3234 249.425C51.5981 249.425 51.847 249.382 52.053 249.339C53.2375 249.382 57.9927 249.553 62.6793 249.553C73.3056 249.553 74.6532 248.798 75.0566 247.193L75.091 247.055C75.6489 244.832 75.812 242.875 72.4129 239.725C70.1211 237.596 69.2628 235.391 68.3444 233.056C68.1899 232.652 68.0354 232.249 67.8723 231.854C66.3959 228.266 66.8509 218.138 67.1513 214.404C67.5976 212.181 68.0182 209.983 68.3959 207.88C70.5246 196.001 71.2456 190.782 70.9881 178.963C70.9108 175.358 70.6705 172.422 70.2499 169.727C69.795 166.791 70.1469 164.388 70.5847 161.332C70.6962 160.585 70.8078 159.813 70.9108 158.998C71.1511 157.118 71.3228 155.418 71.443 153.787C71.6147 151.461 71.7777 148.766 71.5717 146.148C71.1512 140.998 72.0181 135.994 72.9365 130.698C73.3314 128.44 73.7348 125.247 74.0609 122.792C75.8806 109.222 75.7347 93.6171 73.6661 81.0595C73.3228 78.9908 72.7219 77.1025 72.1383 75.2656C71.4344 73.0682 70.7649 70.991 70.5932 68.7507C70.3872 66.0641 68.1212 60.8969 67.4002 59.3261L67.5461 56.8884C67.7349 53.5837 67.9324 50.8799 68.1212 48.2534C68.31 45.6268 68.5075 42.9059 68.7049 39.5841C68.7735 38.3051 69.0396 36.2451 69.3143 34.0563C69.7177 30.8375 70.1383 27.5071 70.1211 25.5243C70.1126 23.7904 70.3872 23.0351 71.5717 21.4643C72.0353 20.8549 72.6103 20.2884 73.2198 19.6961C73.4258 19.4901 73.6318 19.2841 73.8464 19.0695C73.9665 19.6017 74.0953 20.1768 74.2154 20.7261C75.0395 24.4084 76.284 29.1208 78.3183 33.8159C78.7647 34.8288 79.3226 36.3309 79.8634 37.7815C80.4985 39.4896 81.1595 41.2493 81.7174 42.4853C81.9577 43.9016 83.2882 51.7726 83.6916 55.4635C84.2667 60.6737 86.8932 66.4418 89.4339 72.0211C92.0604 77.7977 94.5411 82.3985 94.6355 86.7332C94.6612 87.9348 94.3179 88.3125 93.4166 89.3082C92.172 90.673 90.4639 92.5527 89.3223 97.2307C89.0047 98.5269 87.5541 105.788 87.4855 106.055C87.4855 106.089 87.4769 106.123 87.4683 106.158C87.2709 107.325 87.6657 107.213 88.0262 107.643C88.5241 108.235 89.288 108.561 90.1721 108.561C90.7042 108.561 91.2708 108.449 91.863 108.235C93.1677 107.754 94.2835 106.02 95.1076 104.312C94.893 105.437 94.6012 106.655 94.3694 107.651C93.2793 112.355 92.2407 116.793 93.7514 119.179C94.2578 119.977 95.0131 120.509 95.9402 120.707C96.0947 120.741 96.2492 120.758 96.4123 120.758C97.1848 120.758 99.5281 120.758 105.906 109.308C105.914 109.291 105.923 109.273 105.931 109.256C108.051 105.102 108.412 101.625 108.695 98.8273C108.764 98.1149 108.833 97.4453 108.918 96.8102C111.038 82.0208 108.858 67.8924 106.73 56.4935ZM107.227 96.5698C106.755 99.823 106.893 103.608 104.403 108.475C104.403 108.475 98.5152 119.041 96.4123 119.041C96.3779 119.041 96.335 119.033 96.3007 119.024C91.8888 118.08 98.1804 103.917 97.0388 100.57C96.6869 99.5483 96.3264 99.1792 95.9917 99.1792C95.3307 99.1792 94.7556 100.638 94.4895 101.359C94.0775 102.484 92.5669 106.149 91.2794 106.621C90.8845 106.758 90.5068 106.844 90.1721 106.844C89.4854 106.844 89.0133 106.492 89.1592 105.582C89.1592 105.582 90.6699 98.9389 90.9875 97.6427C92.9188 89.7545 96.438 90.7931 96.3522 86.6988C96.1548 77.5917 86.5241 65.4547 85.3997 55.2747C84.9448 51.1374 83.374 41.9789 83.374 41.9789C82.3526 39.7815 80.8934 35.4382 79.8977 33.1293C77.0737 26.6488 75.8463 19.0781 74.9879 16.5546C74.8077 15.9966 74.6275 15.6876 74.4644 15.6876C74.3957 15.6876 74.3356 15.7391 74.2755 15.8421C73.3485 17.3528 71.9408 18.4343 70.7821 19.739C70.5761 19.9622 70.3872 20.1854 70.207 20.4257C68.7907 22.2969 68.3959 23.4299 68.4044 25.5415C68.4302 28.7345 67.177 36.288 66.9882 39.4811C66.6019 46.1075 66.2157 50.1589 65.8294 56.7854C65.7779 57.7467 65.7178 58.6995 65.6663 59.6608C65.6663 59.6608 68.6705 66.0984 68.8851 68.8881C68.8937 68.9567 68.8937 69.0168 68.9023 69.0855C69.28 73.3858 71.2627 77.0252 71.9752 81.3427C72.8936 86.9649 73.4773 93.6257 73.5889 100.673C73.7004 107.806 73.3313 115.333 72.3614 122.569C71.9408 125.737 71.3829 128.835 70.8936 131.882C70.8593 132.08 70.8336 132.269 70.7992 132.457C70.1898 136.303 69.7091 140.054 69.7521 143.745C69.7521 144.603 69.7864 145.444 69.8551 146.285C70.0525 148.732 69.9151 151.229 69.7349 153.659C69.6061 155.375 69.4259 157.083 69.2113 158.783C68.6791 162.912 67.9409 166.036 68.5589 169.993C69.0225 172.971 69.2027 175.993 69.2714 178.997C69.5375 190.868 68.7993 195.924 66.7049 207.58C66.3101 209.777 65.8895 211.975 65.4517 214.164C65.4517 214.164 64.6964 223.202 65.4947 229.125C65.6663 230.455 65.9238 231.622 66.2843 232.507C66.4045 232.798 66.5161 233.09 66.6363 233.391C67.6062 235.871 68.559 238.498 71.2456 240.987C74.2498 243.777 73.8206 245.064 73.3914 246.781C73.2884 247.176 72.0782 247.433 70.2842 247.588C69.9237 247.622 69.546 247.656 69.1512 247.682C68.3787 247.725 67.5375 247.759 66.6449 247.794C66.2843 247.794 65.9067 247.802 65.529 247.811C64.602 247.828 63.6406 247.837 62.6793 247.837H62.6106C62.1643 247.837 61.7094 247.837 61.263 247.828C60.0613 247.828 58.8768 247.811 57.7867 247.785C57.1859 247.776 56.6108 247.759 56.07 247.751C53.5808 247.682 51.8384 247.613 51.8384 247.613C51.8384 247.613 51.6238 247.708 51.3234 247.708C50.3105 247.708 48.3449 246.669 50.362 237.699C52.4822 228.301 53.6581 230.18 50.2161 201.288C49.3663 194.147 48.7398 192.078 48.9801 184.885C49.4264 171.675 51.0315 166.585 51.1174 164.637C51.1946 162.688 51.6839 158.568 51.435 156.654C51.2204 154.998 51.7525 150.981 51.0916 145.942C50.9114 144.569 50.6453 143.127 50.2505 141.633C49.9844 140.637 49.7269 139.53 49.4694 138.346V138.328C49.4694 138.328 49.4608 138.303 49.4608 138.294C47.5638 129.402 46.0016 115.557 45.2635 102.535C45.0575 98.9474 44.9201 95.411 44.8515 92.0635H40.9288C40.8601 95.411 40.7228 98.9389 40.5168 102.527C39.9074 113.256 38.74 124.526 37.2894 133.144C37.2809 133.187 37.2723 133.221 37.2723 133.264C36.7229 136.483 36.1393 139.333 35.5298 141.633C35.1951 142.903 34.9462 144.139 34.7745 145.324C33.9848 150.654 34.5771 154.938 34.3539 156.654C34.105 158.568 34.5857 162.688 34.6715 164.637C34.7487 166.585 36.3538 171.675 36.8002 184.885C37.0405 192.078 36.4225 194.147 35.5642 201.288C32.1308 230.18 33.2981 228.301 35.4183 237.699C37.4354 246.669 35.4697 247.708 34.4655 247.708C34.1651 247.708 33.9419 247.613 33.9419 247.613C33.9419 247.613 32.0879 247.691 29.4613 247.759C28.9292 247.768 28.3541 247.777 27.7618 247.794C26.6631 247.811 25.4786 247.828 24.2769 247.828C23.8907 247.837 23.4958 247.837 23.1096 247.837H22.9207C21.9336 247.837 20.9551 247.828 20.0109 247.811C19.6247 247.811 19.2556 247.794 18.8865 247.777C17.9938 247.751 17.1441 247.716 16.3801 247.665C15.9767 247.639 15.6076 247.605 15.2557 247.57C13.5905 247.407 12.4918 247.159 12.3974 246.781C11.9683 245.064 11.5391 243.777 14.5433 240.987C17.5475 238.197 18.3801 235.245 19.5045 232.507C19.5217 232.455 19.5474 232.404 19.5646 232.352C19.9079 231.442 20.1569 230.266 20.3199 228.936C21.0753 223.013 20.3371 214.164 20.3371 214.164C19.8908 211.975 19.4702 209.777 19.0839 207.58C16.9896 195.924 16.2514 190.868 16.5175 178.997C16.5776 175.993 16.7664 172.971 17.2299 169.993C17.8393 166.036 17.1012 162.912 16.5776 158.783C16.3544 157.083 16.1741 155.375 16.054 153.659C15.8737 151.229 15.7278 148.732 15.9252 146.285C15.9767 145.642 16.0111 144.998 16.0196 144.346C16.0797 142.079 15.9338 139.779 15.6677 137.453C15.127 132.629 14.1055 127.694 13.4189 122.569C12.3717 114.75 12.0283 107.368 12.2343 100.432C12.406 94.6214 12.9639 89.1279 13.8137 83.9607C14.5089 79.7376 16.4231 73.712 16.8522 69.3602C16.878 69.1971 16.8952 69.0426 16.9037 68.8881C17.1183 66.0984 20.1225 59.6608 20.1225 59.6608C20.0624 58.6995 20.0109 57.7467 19.9509 56.7854C19.5646 50.1589 19.1783 46.1075 18.7921 39.4811C18.6118 36.288 17.3587 28.7345 17.3758 25.5415C17.393 23.4299 16.9896 22.2969 15.5733 20.4257C15.4445 20.254 15.3072 20.0824 15.1527 19.9193C13.9682 18.5374 12.4747 17.4215 11.5133 15.8421C11.4447 15.7305 11.376 15.679 11.3159 15.679C11.1099 15.679 10.9211 16.1769 10.6979 17.0438C9.97689 19.842 8.90396 26.52 5.89116 33.1293C4.84398 35.4211 3.42771 39.7815 2.41486 41.9789C2.41486 41.9789 0.81834 51.1288 0.389168 55.2747C-0.812515 66.7422 -10.3745 77.5917 -10.5633 86.6988C-10.6577 90.7931 -7.12993 89.7545 -5.19866 97.6427C-4.88107 98.9389 -3.37897 105.582 -3.37897 105.582C-3.22446 106.492 -3.69655 106.844 -4.39181 106.844C-4.71798 106.844 -5.10423 106.758 -5.49049 106.621C-6.77801 106.149 -8.29728 103.342 -8.70928 102.218C-8.97537 101.497 -9.55046 100.038 -10.2114 100.038C-10.5461 100.038 -10.8981 100.407 -11.25 101.428C-12.3916 104.776 -6.09992 118.08 -10.5118 119.024C-10.5547 119.033 -10.5891 119.041 -10.632 119.041C-12.7349 119.041 -18.6232 108.475 -18.6232 108.475C-21.1124 103.608 -20.975 99.823 -21.4385 96.5698C-23.3612 83.0852 -21.7561 70.1584 -19.2584 56.8025C-17.4902 47.3435 -13.3873 44.1762 -12.1598 34.7172C-11.8251 32.1164 -11.8165 29.4641 -11.4989 26.8633C-11.0268 23.0179 -10.3402 17.4644 -9.28439 13.7306C-8.38312 10.5547 -6.3145 3.76517 -5.77374 1.97122C-5.68791 1.68797 -5.63642 1.52488 -5.63642 1.52488C-5.53342 0.67511 -5.46474 -0.0974045 -5.39607 -0.80983C-5.20724 -3.12737 -5.08707 -4.9299 -4.01414 -7.54787C-2.64078 -10.8783 -0.400501 -13.7623 2.54362 -15.8481C7.41902 -19.3072 14.8952 -20.3544 14.8952 -20.3544C21.4015 -25.0067 30.8519 -28.7577 31.5299 -28.7577H31.6415V-36.7918C31.6415 -36.7918 31.5557 -36.8433 31.5214 -36.8691C27.6674 -39.4098 27.0236 -43.2895 26.1567 -48.534C23.8134 -48.8688 21.6933 -51.1434 21.1182 -54.2334C20.586 -57.0832 21.5302 -59.7784 23.3242 -61.0659C23.7533 -61.3835 24.234 -61.6152 24.749 -61.744L24.5258 -65.5293C24.5258 -77.1428 33.8389 -82.8594 42.5253 -83.0911C42.5511 -83.0911 42.5768 -83.0997 42.594 -83.0997H43.1863C43.1863 -83.0997 43.2292 -83.0911 43.2549 -83.0911C51.9414 -82.8594 61.263 -77.1428 61.263 -65.5293L61.0398 -61.744C62.0441 -61.4865 62.8939 -60.8599 63.5376 -59.993C64.602 -58.5509 65.0741 -56.4394 64.6621 -54.2334C64.087 -51.1434 61.9754 -48.8688 59.6236 -48.534C58.7996 -43.5213 58.1644 -39.7445 54.7396 -37.2038C54.5508 -37.0665 54.3448 -36.9291 54.1388 -36.7918V-28.7577H54.2503C54.937 -28.7577 63.8381 -25.2985 70.8936 -20.3544C70.8936 -20.3544 78.3698 -19.3072 83.2367 -15.8481C86.1894 -13.7623 88.4211 -10.8783 89.7944 -7.54787C90.8845 -4.90415 90.9875 -3.09304 91.1935 -0.749748C91.2536 -0.0544891 91.3223 0.692276 91.4253 1.52488C91.4253 1.52488 91.4768 1.67938 91.554 1.96264C92.0948 3.748 94.1634 10.5461 95.0647 13.7306C96.129 17.4644 96.8071 23.0179 97.2792 26.8633C97.5968 29.4641 97.6139 32.1164 97.9487 34.7172C99.1675 44.1762 103.27 47.3435 105.039 56.8025C107.536 70.1584 109.15 83.0852 107.227 96.5698Z" fill="black" fill-opacity="0.2"/>
<path d="M105.039 56.8022C103.27 47.3432 99.1676 44.1759 97.9487 34.7169C97.614 32.1161 97.5968 29.4638 97.2792 26.863C96.8071 23.0176 96.1291 17.4641 95.0647 13.7302C94.1634 10.5458 92.0948 3.74765 91.5541 1.96229C90.6013 4.90643 89.9747 7.47289 89.6228 9.05225C89.4082 9.97927 89.1936 9.9621 89.185 9.01791C89.1335 5.0266 90.0091 2.19404 91.1249 -0.595592C91.1507 -0.647091 91.1678 -0.698593 91.1936 -0.750095C90.9876 -3.09339 90.8846 -4.9045 89.7944 -7.54821C88.4211 -10.8786 86.1894 -13.7627 83.2367 -15.8484C78.3699 -19.3076 70.8937 -20.3548 70.8937 -20.3548C63.8381 -25.2989 54.9371 -28.758 54.2504 -28.758H54.1388V-35.9424C51.1003 -33.8308 46.1476 -32.5176 44.6026 -32.5176H40.9289C39.4268 -32.5176 34.6887 -33.7622 31.6416 -35.7793V-28.758H31.53C30.8519 -28.758 21.4015 -25.007 14.8953 -20.3548C14.8953 -20.3548 7.41907 -19.3076 2.54366 -15.8484C-0.400459 -13.7627 -2.64074 -10.8786 -4.01409 -7.54821C-5.08702 -4.93025 -5.20719 -3.12772 -5.39603 -0.810181C-4.34027 2.02237 -3.43043 5.34418 -3.42185 9.01791C-3.42185 9.9621 -3.63642 9.97927 -3.84243 9.05225C-4.20293 7.47289 -4.82952 4.91501 -5.7737 1.97087C-6.31446 3.76482 -8.38308 10.5544 -9.28435 13.7302C-10.3401 17.4641 -11.0268 23.0176 -11.4989 26.863C-11.8165 29.4638 -11.825 32.1161 -12.1598 34.7169C-13.3872 44.1759 -17.4901 47.3432 -19.2583 56.8022C-21.7561 70.1581 -23.3612 83.0848 -21.4385 96.5695C-20.975 99.8226 -21.1123 103.608 -18.6231 108.475C-18.6231 108.475 -12.7349 119.041 -10.6319 119.041C-10.589 119.041 -10.5547 119.032 -10.5118 119.024C-6.09988 118.08 -12.3916 104.775 -11.25 101.428C-10.898 100.406 -10.5461 100.037 -10.2113 100.037C-9.55042 100.037 -8.97533 101.496 -8.70924 102.217C-8.29724 103.342 -6.77797 106.149 -5.49045 106.621C-5.10419 106.758 -4.71794 106.844 -4.39177 106.844C-3.69651 106.844 -3.22442 106.492 -3.37893 105.582C-3.37893 105.582 -4.88103 98.9385 -5.19861 97.6424C-7.12989 89.7542 -10.6577 90.7928 -10.5633 86.6985C-10.3744 77.5914 -0.812473 66.7418 0.38921 55.2743C0.818382 51.1285 2.41491 41.9785 2.41491 41.9785C3.42775 39.7811 4.84402 35.4207 5.89121 33.1289C8.904 26.5196 9.97694 19.8417 10.6979 17.0435C10.5177 16.8031 10.3546 16.5542 10.2173 16.2881C10.0799 16.0306 8.70657 12.9577 7.42764 10.9921C6.91263 10.1938 7.11006 9.88485 7.9169 10.3827C9.007 11.0608 10.4147 12.2625 11.273 14.3053C12.1743 16.4684 13.3502 17.1894 14.2086 17.6786C16.9724 18.949 20.8865 19.5069 28.3284 19.4297C29.2811 19.4211 29.3069 19.5928 28.3713 19.7816C25.5301 20.3481 19.6247 21.2322 15.1527 19.9189C15.3072 20.082 15.4446 20.2537 15.5733 20.4254C16.9896 22.2966 17.393 23.4296 17.3759 25.5411C17.3587 28.7342 18.6119 36.2876 18.7921 39.4807C19.1784 46.1072 19.5647 50.1586 19.9509 56.785C20.011 57.7464 20.0625 58.6991 20.1226 59.6605C20.1226 59.6605 17.1184 66.0981 16.9038 68.8877C16.8952 69.0422 16.878 69.1967 16.8523 69.3598C19.2556 69.7547 23.5388 70.0723 28.9893 70.2525C27.3155 66.4157 27.6417 63.0166 28.0794 61.1025C28.2854 60.1755 28.5858 60.227 28.6373 61.1797C28.8433 64.6818 29.5901 67.8491 30.3712 70.304C33.693 70.3984 37.3925 70.4499 41.3237 70.4499C45.9588 70.4499 51.1775 70.3641 55.9499 70.1752C56.7138 67.7461 57.4434 64.6217 57.6408 61.1797C57.6923 60.227 57.9842 60.1755 58.1988 61.1025C58.6365 62.9909 58.9627 66.3298 57.349 70.1152C62.1042 69.9006 66.293 69.5744 68.868 69.0937H68.9023C68.9023 69.0165 68.9023 68.9564 68.8852 68.8877C68.6706 66.0981 65.6664 59.6605 65.6664 59.6605C65.7179 58.6991 65.778 57.7464 65.8295 56.785C66.2157 50.1586 66.602 46.1072 66.9882 39.4807C67.1771 36.2876 68.4303 28.7342 68.4045 25.5411C68.3959 23.4296 68.7908 22.2966 70.207 20.4254C70.3873 20.185 70.5761 19.9619 70.7821 19.7387C66.2586 21.3095 59.967 20.3739 56.9971 19.7816C56.0615 19.5928 56.0873 19.4211 57.04 19.4297C64.4819 19.5069 68.3959 18.949 71.1598 17.6786C72.0181 17.1894 73.1941 16.4684 74.1039 14.3053C74.9537 12.2625 76.3614 11.0608 77.4515 10.3827C78.2583 9.88485 78.4557 10.1938 77.9407 10.9921C76.6704 12.9577 75.2884 16.0306 75.1511 16.2881C75.0996 16.3825 75.0567 16.4684 74.988 16.5542C75.8463 19.0778 77.0738 26.6484 79.8977 33.1289C80.8934 35.4379 82.3526 39.7811 83.374 41.9785C83.374 41.9785 84.9448 51.1371 85.3997 55.2743C86.5242 65.4543 96.1548 77.5914 96.3522 86.6985C96.4381 90.7928 92.9188 89.7542 90.9876 97.6424C90.67 98.9385 89.1593 105.582 89.1593 105.582C89.0134 106.492 89.4855 106.844 90.1721 106.844C90.5069 106.844 90.8846 106.758 91.2794 106.621C92.5669 106.149 94.0776 102.483 94.4896 101.359C94.7557 100.638 95.3308 99.1788 95.9917 99.1788C96.3265 99.1788 96.687 99.5479 97.0389 100.569C98.1805 103.917 91.8888 118.08 96.3007 119.024C96.3351 119.032 96.378 119.041 96.4123 119.041C98.5153 119.041 104.404 108.475 104.404 108.475C106.893 103.608 106.755 99.8226 107.227 96.5695C109.15 83.0848 107.536 70.1581 105.039 56.8022ZM1.53939 40.442C-0.486305 42.9913 -3.95401 47.017 -5.7222 47.017C-5.7222 47.017 -5.73079 47.0084 -5.73938 47.017C-7.21573 47.2144 -8.63199 44.6651 -9.37875 43.0514C-9.69634 42.3562 -9.53326 42.2961 -9.00967 42.8883C-7.78224 44.2789 -6.77797 45.0085 -6.00546 45.369C-5.95396 45.3432 -5.90247 45.3175 -5.85097 45.2917C-4.60636 44.6909 -1.5249 42.6995 1.19606 40.2103C2.27757 39.2146 2.44065 39.3176 1.53939 40.442ZM41.7186 -14.7412C42.0791 -14.6038 42.4395 -14.518 42.7743 -14.4751C43.7185 -14.3463 44.1047 -13.7712 43.2721 -13.2991C42.2936 -12.7412 41.5383 -13.3678 41.0233 -14.1146C40.4911 -14.8957 40.8259 -15.0759 41.7186 -14.7412ZM43.1262 12.8633C42.9975 13.8075 42.6112 13.8075 42.4739 12.8719C41.6671 7.55014 42.3537 0.443012 42.7056 -3.25647C42.7915 -4.20065 42.9632 -4.20065 43.0404 -3.25647C43.9245 6.51154 43.4867 10.3398 43.1262 12.8633ZM19.8479 -19.0243C18.938 -19.2818 18.981 -19.5393 19.9337 -19.5222C23.8392 -19.4449 33.3239 -19.1016 36.8088 -17.5823C40.9203 -15.7969 27.3069 -16.9214 19.8479 -19.0243ZM28.1739 37.9614C27.8992 38.8713 27.7189 38.8455 27.779 37.9013C28.3713 29.1376 33.4098 24.7858 35.9762 23.1206C36.7745 22.6056 36.9461 22.8373 36.3195 23.5498C31.3068 29.2749 29.0408 35.1632 28.1739 37.9614ZM43.0576 67.5487C42.9546 67.9092 42.6627 67.9092 42.5597 67.5487C41.9417 65.5058 42.4653 62.1239 42.74 60.7077C42.8086 60.3472 42.9288 60.3472 42.9975 60.7077C43.667 64.4501 43.3322 66.5788 43.0576 67.5487ZM42.8086 57.6519C41.8645 57.6519 41.0919 57.2228 41.0919 56.6906C41.0919 56.1584 41.8645 55.7206 42.8086 55.7206C43.7528 55.7206 44.5253 56.1584 44.5253 56.6906C44.5253 57.2228 43.7528 57.6519 42.8086 57.6519ZM51.2805 32.983C49.4093 33.3092 47.315 33.4637 45.2292 33.5152C44.285 33.5323 43.5297 34.2963 43.5382 35.249C43.5726 37.8069 43.564 40.4678 43.5382 43.0944C43.5211 44.0471 44.285 44.8196 45.2292 44.8454C46.654 44.8797 47.8128 44.9655 48.6712 45.0428C49.6239 45.1286 49.6325 45.4119 48.6883 45.5406C47.5896 45.6951 46.4137 45.781 45.212 45.8239C44.2678 45.8496 43.4782 46.6222 43.461 47.5663C43.3065 54.8881 43.1176 55.1627 42.8687 55.6348C42.2679 55.9953 42.225 52.3817 42.1563 47.5578C42.1391 46.605 41.358 45.8153 40.4053 45.781C38.9118 45.7123 37.5813 45.6093 36.6028 45.5149C35.6586 45.4376 35.6586 45.2488 36.6028 45.1544C37.9504 45.0256 39.2122 44.9398 40.3967 44.8883C41.3495 44.8454 42.1134 44.0643 42.1048 43.1115C42.0876 40.1416 42.1048 37.5151 42.1477 35.2319C42.1649 34.2877 41.4181 33.498 40.4654 33.4637C37.8302 33.3521 35.5041 33.1375 34.0192 32.983C33.075 32.88 33.075 32.674 34.0192 32.5624C36.3539 32.2963 38.5255 32.1418 40.5083 32.0646C41.461 32.0217 42.2507 31.2405 42.2936 30.2878C42.4052 27.3436 42.5597 25.2922 42.6713 23.9961C42.7571 23.0519 42.946 23.0519 43.0404 23.9961C43.2207 25.8501 43.3408 27.9788 43.4266 30.2792C43.461 31.2234 44.2507 31.9959 45.1948 32.0131C47.8557 32.0646 49.9329 32.2362 51.2633 32.3907C52.2075 32.4938 52.2161 32.8199 51.2805 32.983ZM58.4992 37.9013C58.5593 38.8455 58.3447 38.8799 58.0357 37.9786C57.0572 35.146 54.6023 29.1119 49.9329 23.5755C49.3235 22.8459 49.5037 22.6056 50.302 23.1206C52.8685 24.7858 57.9069 29.1376 58.4992 37.9013ZM65.5204 -19.0243C58.07 -16.9214 44.4481 -15.7969 48.5596 -17.5823C52.0444 -19.1016 61.5292 -19.4449 65.4346 -19.5222C66.3874 -19.5393 66.4303 -19.2818 65.5204 -19.0243ZM94.9102 43.0514C94.172 44.6651 92.7557 47.2144 91.2708 47.017H91.2622C89.494 47.017 86.0263 42.9913 83.9921 40.442C83.0994 39.3176 83.2539 39.2146 84.3354 40.2103C87.0649 42.6995 90.1464 44.6909 91.3824 45.2917C91.4425 45.3175 91.494 45.3432 91.5455 45.369C92.3094 45.0085 93.3223 44.2789 94.5497 42.8883C95.0733 42.2961 95.2364 42.3562 94.9102 43.0514Z" fill="#FFEACA"/>
<path d="M44.5252 56.6906C44.5252 57.2228 43.7527 57.652 42.8085 57.652C41.8643 57.652 41.0918 57.2228 41.0918 56.6906C41.0918 56.1585 41.8643 55.7207 42.8085 55.7207C43.7527 55.7207 44.5252 56.1585 44.5252 56.6906Z" fill="#333333"/>
<path d="M44.5252 56.6906C44.5252 57.2228 43.7527 57.652 42.8085 57.652C41.8643 57.652 41.0918 57.2228 41.0918 56.6906C41.0918 56.1585 41.8643 55.7207 42.8085 55.7207C43.7527 55.7207 44.5252 56.1585 44.5252 56.6906Z" fill="black" fill-opacity="0.2"/>
</g>
<defs>
<clipPath id="clip0_8984_53051">
<rect width="85" height="80" fill="white"/>
</clipPath>
</defs>
</svg>
