<svg width="85" height="80" viewBox="0 0 85 80" fill="none" xmlns="http://www.w3.org/2000/svg">
<g clip-path="url(#clip0_8985_53489)">
<path d="M43.1042 53.29C42.9516 54.4088 42.5025 54.4088 42.3499 53.29C41.5871 47.8065 42.2397 39.0176 42.6126 35.0766C42.7143 33.9494 42.9008 33.9579 43.0025 35.0766C43.867 44.8741 43.4686 50.5695 43.1042 53.29Z" fill="#DFCBAD"/>
<path d="M50.808 39.3227C50.808 39.3227 50.7317 39.3821 50.6809 39.3821C50.5961 39.3821 50.4859 39.3397 50.3249 39.0007C48.9943 36.2802 47.1636 34.3478 46.1974 33.4324C45.9601 33.2121 45.8923 33.0849 45.9347 32.9747C45.9601 32.9154 46.0194 32.873 46.0957 32.873C46.1466 32.873 46.2483 32.89 46.4771 33.0087C49.6723 34.6614 50.5792 37.3734 50.8419 38.8481C50.9012 39.1702 50.8588 39.2719 50.808 39.3227Z" fill="#DFCBAD"/>
<path d="M39.3245 33.4324C38.3498 34.3478 36.5276 36.2802 35.1885 39.0007C35.0275 39.3397 34.9173 39.3821 34.8325 39.3821C34.7817 39.3821 34.7393 39.3651 34.7054 39.3227C34.663 39.2719 34.6122 39.1702 34.6715 38.8481C34.9343 37.3734 35.8496 34.6614 39.0448 33.0087C39.2736 32.89 39.3668 32.873 39.4177 32.873C39.494 32.873 39.5618 32.9154 39.5872 32.9747C39.6296 33.0849 39.5533 33.2121 39.3245 33.4324Z" fill="#DFCBAD"/>
<path d="M98.1596 97.9299C97.6849 94.6923 96.2865 89.1156 94.9559 85.9628C94.9135 85.878 94.8711 85.7933 94.8203 85.7085C92.9981 82.8777 92.176 76.784 91.2183 69.7325C90.5063 64.4524 89.6927 58.4688 88.2858 52.7819C87.4468 49.3833 86.5399 46.7983 85.7263 44.5185C84.277 40.4249 83.1328 37.1874 83.1244 31.2546C83.1244 28.5764 82.2599 7.10001 81.8446 3.24375C80.4038 -9.35056 74.3524 -14.0713 69.1062 -16.2664C67.3349 -17.0123 65.6568 -17.4699 64.2753 -17.8428C63.7329 -17.9869 63.2159 -18.131 62.7921 -18.2666C61.7412 -18.5887 58.012 -20.8855 54.1134 -23.6061C53.9269 -23.7332 53.376 -24.1231 53.376 -25.8181V-31.0643C57.0289 -33.8358 59.6817 -37.7683 61.2496 -42.7518C61.2581 -42.7602 61.2581 -42.7772 61.2665 -42.7942C62.3005 -46.3962 62.826 -51.3203 63.0803 -54.7782C63.2498 -57.0835 63.3006 -58.7362 63.3091 -58.8973V-58.9481C63.3091 -60.8127 63.1565 -62.584 62.8514 -64.2621C62.8514 -64.2791 62.8514 -64.296 62.843 -64.313C62.0717 -68.6354 60.3343 -72.2967 57.69 -75.0681C54.766 -78.1277 50.9097 -79.9584 46.6805 -80.3228H46.6721C46.1551 -80.3652 45.6381 -80.3906 45.1041 -80.3906H41.3241C36.4763 -80.3906 32.0098 -78.5006 28.7383 -75.0681C25.06 -71.2119 23.1107 -65.6351 23.1107 -58.9481V-58.8973C23.1192 -58.6769 23.2124 -55.736 23.5768 -52.1339C23.8735 -49.0828 24.3651 -45.5486 25.1617 -42.7942C25.1617 -42.7772 25.1702 -42.7602 25.1702 -42.7518C26.7466 -37.7683 29.3909 -33.8442 33.0522 -31.0643V-25.8181C33.0522 -24.1231 32.4929 -23.7332 32.3064 -23.6061C28.4162 -20.8855 24.6786 -18.5887 23.6362 -18.2666C23.2039 -18.131 22.6954 -17.9869 22.153 -17.8428C20.5427 -17.4021 18.534 -16.8597 16.4406 -15.885C11.4148 -13.5289 5.93126 -8.66407 4.5752 3.23527C4.16839 7.09153 3.29543 28.568 3.29543 31.2546C3.28695 37.1874 2.14279 40.4249 0.693512 44.5185C-0.111643 46.7983 -1.02698 49.3833 -1.86604 52.7819C-3.26446 58.4688 -4.07808 64.4524 -4.79849 69.7325C-5.74772 76.784 -6.5783 82.8777 -8.39202 85.7085C-8.45135 85.7933 -8.49373 85.878 -8.52763 85.9628C-9.86673 89.1156 -11.2651 94.6923 -11.7398 97.9299C-11.9601 99.447 -11.1974 107.337 -10.977 108.575C-10.9516 108.727 -10.9346 108.939 -10.9007 109.16C-10.7312 110.651 -10.4939 112.685 -8.81579 113.27C-8.66323 113.321 -8.51068 113.355 -8.35812 113.363C-8.28185 113.363 -8.20557 113.363 -8.12929 113.363C-4.46795 113.363 -3.35769 108.304 -2.28133 103.413C-2.13725 102.735 -1.95926 101.939 -1.77281 101.159C-1.7389 102.727 -1.51854 104.447 -0.789667 105.329C-0.408278 105.786 0.023962 106.142 0.481628 106.38C0.888444 106.575 1.29526 106.676 1.70208 106.676C2.10889 106.676 3.55816 106.532 4.19381 104.651C4.22771 104.549 4.25314 104.447 4.27009 104.337C4.65996 101.506 5.35493 96.701 5.59224 95.828C6.88896 90.9801 5.98211 88.5392 5.32951 86.7594C4.85489 85.4712 4.59216 84.7677 5.11762 83.2761C5.11762 83.2591 5.12609 83.2422 5.13457 83.2252C7.26187 76.5128 9.19424 70.8258 10.8978 65.8084C15.8897 51.1038 18.9069 42.2217 19.3985 29.9749C19.7121 27.4662 19.8901 25.1185 20.0003 23.1099C20.0003 23.0082 20.0003 22.9064 20.0172 22.8047C20.1359 23.0505 20.2545 23.2878 20.3562 23.5082C20.6274 24.0591 20.8563 24.5168 21.0173 24.8303C23.7972 30.1613 24.1955 41.1962 24.3396 45.3491C24.3566 45.9 24.3735 46.3661 24.3905 46.7136C24.5261 49.4087 22.7886 52.926 20.5935 57.3755C17.9662 62.698 14.6947 69.3257 13.1437 77.6824C10.6351 91.2683 10.8808 102.676 14.0082 117.05C15.8558 125.559 21.1953 155.715 20.8139 160.783C20.441 163.249 20.2715 168.343 20.1443 172.08C20.1104 173.08 20.085 173.962 20.0511 174.623C19.5341 186.649 21.1529 195.608 24.7041 211.83C25.1702 213.94 25.6024 215.805 25.9923 217.44C27.2297 222.703 27.9755 225.882 27.8399 229.746C27.7891 231.263 27.5518 231.95 27.4161 232.221C26.7212 233.611 26.5771 234.832 26.4415 235.908C26.3567 236.611 26.272 237.272 26.0432 237.967C25.6872 239.086 24.9329 240.078 24.0514 241.23C23.6955 241.705 23.3226 242.188 22.9497 242.731C21.7123 243.951 21.1444 245.231 21.2631 246.544C21.4241 248.333 22.831 249.299 22.992 249.409C23.1192 249.485 23.2548 249.553 23.3904 249.596C24.1955 249.867 25.2888 249.943 27.8738 249.943C33.1455 249.943 35.5525 249.943 39.485 249.57C39.5613 249.562 39.6375 249.553 39.7053 249.536C42.5785 248.875 42.2395 245.273 41.9937 242.637C41.9259 241.858 41.8242 240.781 41.9005 240.434C41.9513 240.18 42.0954 239.9 42.2818 239.552C42.6293 238.908 43.0616 238.103 43.2141 236.916C43.3582 238.103 43.7905 238.908 44.1379 239.552C44.3244 239.9 44.4769 240.18 44.5278 240.434C44.6041 240.781 44.5024 241.858 44.4261 242.646C44.1803 245.273 43.8498 248.875 46.7144 249.536C46.7907 249.553 46.8585 249.562 46.9348 249.57C50.8673 249.943 53.2743 249.943 58.5545 249.943C61.1394 249.943 62.2243 249.867 63.0294 249.596C63.1735 249.553 63.3091 249.485 63.4362 249.409C63.5888 249.299 64.9957 248.333 65.1567 246.544C65.2754 245.231 64.7075 243.951 63.4786 242.731C63.0972 242.188 62.7328 241.705 62.3683 241.23C61.4954 240.078 60.7326 239.086 60.3766 237.967C60.1478 237.272 60.0715 236.611 59.9868 235.908C59.8512 234.832 59.6986 233.611 59.0036 232.221C58.868 231.95 58.6307 231.263 58.5799 229.746C58.4443 225.882 59.1986 222.703 60.436 217.44C60.8174 215.796 61.2581 213.94 61.7157 211.83C65.2754 195.608 66.8857 186.649 66.3687 174.623C66.3433 173.97 66.3093 173.089 66.2754 172.089C66.1483 168.351 65.9788 163.249 65.6059 160.783C65.216 155.63 70.5385 125.11 72.4116 117.076C75.3356 104.558 76.5984 93.065 73.2676 77.6315C71.5471 69.6562 68.4367 63.1727 65.9364 57.9603C63.6735 53.2481 61.8937 49.5274 62.0293 46.7136C62.0463 46.3661 62.0632 45.9 62.0802 45.3491C62.2327 41.1962 62.6226 30.1613 65.394 24.8642C65.5551 24.5422 65.7839 24.0761 66.0551 23.5252C66.1653 23.2963 66.2839 23.059 66.4111 22.8047C66.4195 22.9064 66.4195 23.0082 66.428 23.1099C66.5382 25.1185 66.7077 27.4662 67.0213 29.9749C67.5044 42.0098 70.6572 51.3072 75.4203 65.3593C77.1662 70.5207 79.1495 76.3602 81.2852 83.2168C81.2852 83.2337 81.3022 83.2591 81.3107 83.2761C81.8361 84.7677 81.5734 85.4712 81.0988 86.7594C80.4377 88.5392 79.5393 90.9801 80.836 95.8365C81.0649 96.701 81.7683 101.506 82.1582 104.337C82.1667 104.447 82.1921 104.549 82.226 104.651C82.8616 106.532 84.3024 106.676 84.7262 106.676C85.15 106.676 85.5398 106.575 85.9297 106.38C86.3958 106.142 86.8281 105.787 87.2095 105.32C87.9468 104.447 88.1672 102.727 88.1926 101.167C88.3875 101.939 88.557 102.735 88.7096 103.413C89.7775 108.304 90.8877 113.363 94.5575 113.363C94.6338 113.363 94.7101 113.363 94.7864 113.363C94.939 113.355 95.0915 113.321 95.2356 113.27C96.9222 112.685 97.151 110.643 97.329 109.16C97.3544 108.931 97.3798 108.727 97.4053 108.575C97.6256 107.337 98.3799 99.447 98.1596 97.9299ZM43.2141 235.06C43.1887 234.882 43.1718 234.704 43.1379 234.518C42.3836 229.89 42.4259 226.738 42.4937 221.958C42.57 217.05 42.6548 210.94 41.9428 200.413C40.9851 186.175 40.7987 176.674 41.3496 170.529C41.4513 169.445 41.5869 168.275 41.731 167.029C42.1971 163.088 42.7649 158.189 42.7141 151.299C42.6632 143.858 42.8921 135.365 43.1379 127.009C43.4515 135.281 43.765 143.781 43.7057 151.299C43.6548 158.198 44.2312 163.097 44.6888 167.038C44.8329 168.275 44.977 169.453 45.0702 170.529C45.6296 176.674 45.4431 186.175 44.477 200.413C43.765 210.94 43.8583 217.05 43.9261 221.958C43.9939 226.738 44.0447 229.899 43.2904 234.518C43.2565 234.704 43.2311 234.882 43.2141 235.06ZM43.265 89.9462C43.265 89.3275 43.2904 88.7681 43.3243 88.268C43.3243 88.7681 43.3074 89.3275 43.265 89.9462ZM95.5407 109.77C95.4136 110.634 95.1932 111.49 94.6762 111.677H94.5575C90.2775 111.677 90.5572 96.2009 87.4044 96.2009C87.2773 96.2009 87.1417 96.2263 87.0061 96.2857C86.8959 96.3196 86.7942 96.362 86.7094 96.4128C85.9806 96.7773 86.1924 97.1925 86.3535 98.2011C86.5569 99.3792 86.6755 103.337 85.9128 104.252C85.6839 104.524 85.4297 104.744 85.1754 104.871C85.0228 104.947 84.8703 104.99 84.7262 104.99C84.3702 104.99 84.0482 104.736 83.8363 104.117C83.8363 104.117 82.8193 96.6925 82.4718 95.4043C80.3699 87.5477 84.5313 87.3188 82.904 82.7167C74.9881 57.3755 69.352 46.0695 68.7163 29.8477C68.2672 26.3135 68.1061 23.1183 68.0129 20.7029C67.8942 17.8975 67.8773 16.1516 67.6146 16.1516C67.2671 17.3212 63.8939 24.0845 63.8939 24.0845C63.6396 24.5676 63.4023 25.0931 63.1904 25.644C60.5716 32.331 60.4868 43.654 60.3343 46.6373C60.0546 52.4005 66.2077 60.291 69.9961 72.0209C70.0385 72.1565 70.0809 72.2921 70.1232 72.4277C70.6826 74.1906 71.1827 76.0466 71.6064 77.9959C72.0641 80.0978 72.4285 82.1234 72.7167 84.0982C74.3948 95.5992 73.4032 105.371 70.7589 116.703C69.0299 124.11 63.4532 155.545 63.9193 160.986C64.3855 163.978 64.5465 171.674 64.6736 174.708C65.1906 186.692 63.5549 195.523 60.0631 211.482C58.1392 220.254 56.6984 224.441 56.8848 229.814C56.9272 231.119 57.1136 232.23 57.495 232.992C58.4697 234.942 58.1137 236.484 58.7663 238.501C59.385 240.442 60.8174 241.875 62.1819 243.841C64.894 246.426 62.504 247.994 62.504 247.994C61.9107 248.189 60.9021 248.256 58.5545 248.256C57.5035 248.256 56.5712 248.256 55.7237 248.248C55.3084 248.256 54.9101 248.248 54.5287 248.248C53.554 248.24 52.6811 248.223 51.8505 248.206C51.3759 248.189 50.9182 248.163 50.4605 248.138C49.4011 248.087 48.3332 248.011 47.0958 247.892C44.96 247.4 46.5704 241.883 46.189 240.086C45.8754 238.662 44.6295 237.959 44.8838 235.34C44.9007 235.162 44.9261 234.984 44.96 234.789C45.138 233.679 45.2736 232.653 45.3753 231.662C46.1635 224.119 44.9177 218.991 46.172 200.532C47.2992 183.827 47.2145 175.428 46.7568 170.377C46.35 165.876 45.333 160.317 45.4008 151.307C45.5448 132.06 43.2989 106.812 44.6634 93.1922C44.6804 92.9973 44.7058 92.8108 44.7227 92.6243C44.7312 92.548 44.7397 92.4802 44.7482 92.404C44.7651 92.2853 44.7736 92.1667 44.7905 92.048C45.4516 85.861 44.5871 83.0981 43.5786 83.0981C42.4937 83.0981 41.2479 86.3611 41.6462 92.065C41.6547 92.1752 41.6631 92.2853 41.6716 92.404C41.6801 92.4718 41.6801 92.5396 41.6886 92.6074C41.7055 92.8024 41.714 92.9803 41.731 93.1752C42.6039 105.931 40.875 132.085 41.019 151.307C41.0868 160.317 40.0698 165.876 39.663 170.377C39.2053 175.428 39.129 183.827 40.2563 200.532C41.5106 219.178 40.2393 224.22 41.0699 231.899C41.1716 232.823 41.2987 233.772 41.4682 234.789C41.5784 235.467 41.5953 236.027 41.5614 236.501C41.4089 238.213 40.4851 238.908 40.2393 240.086C39.8579 241.883 41.4682 247.4 39.324 247.892C38.1629 248.002 37.1458 248.078 36.1457 248.129C35.6881 248.155 35.2304 248.18 34.7558 248.197C33.9167 248.223 33.0522 248.24 32.086 248.248H30.891C29.9926 248.256 29.001 248.256 27.8738 248.256C25.5262 248.256 24.5091 248.189 23.9159 247.994C23.9159 247.994 21.5258 246.426 24.2464 243.841C25.6024 241.875 27.0348 240.442 27.6619 238.501C28.3061 236.484 27.9586 234.942 28.9332 232.992C29.3146 232.23 29.4926 231.119 29.535 229.814C29.7214 224.441 28.2806 220.254 26.3567 211.482C22.8649 195.523 21.2292 186.692 21.7462 174.708C21.8818 171.674 22.0343 163.978 22.5005 160.986C22.9751 155.545 17.2797 124.136 15.6609 116.703C13.2454 105.6 12.3979 95.7009 13.8641 84.0897C13.8811 83.9456 13.898 83.8016 13.9235 83.6575C13.9404 83.5473 13.9489 83.4286 13.9658 83.3185C14.1947 81.6064 14.4744 79.8351 14.8134 77.9959C14.8897 77.5976 14.9659 77.2078 15.0507 76.8179C15.1185 76.4704 15.1948 76.1229 15.2795 75.7754C15.2795 75.7161 15.3049 75.6568 15.3219 75.5975C15.3982 75.25 15.4829 74.9025 15.5762 74.555C15.6694 74.1651 15.7711 73.7752 15.8813 73.3939C15.9745 73.0548 16.0677 72.7243 16.1609 72.4023C16.2033 72.2666 16.2457 72.1226 16.2881 71.9955C19.8901 60.1893 26.3737 52.409 26.0855 46.6373C25.933 43.654 25.8482 32.3395 23.2378 25.6525C23.0259 25.0931 22.7886 24.5676 22.5344 24.0845C22.5344 24.0845 19.1612 17.3212 18.8137 16.1516C18.551 16.1516 18.5256 17.8975 18.4154 20.6944C18.3222 23.1183 18.1611 26.3135 17.7119 29.8477C17.0763 46.0695 11.7707 56.6805 3.51579 82.7167C1.88853 87.3188 6.05838 87.5477 3.94803 95.4043C3.60902 96.6925 2.59197 104.117 2.59197 104.117C2.38009 104.736 2.05804 104.99 1.70208 104.99C1.55799 104.99 1.40544 104.947 1.25288 104.871C0.998626 104.744 0.744358 104.524 0.515524 104.252C-0.247253 103.337 -0.128598 99.3792 0.0663338 98.2011C0.23584 97.1925 0.447724 96.7773 -0.289627 96.4128C-0.37438 96.362 -0.467614 96.3196 -0.586268 96.2857C-0.721873 96.2263 -0.857467 96.2009 -0.984596 96.2009C-4.12894 96.2009 -3.85773 111.677 -8.12929 111.677H-8.24794C-8.76494 111.49 -8.98529 110.626 -9.1209 109.761C-9.20565 109.202 -9.24802 108.634 -9.31583 108.278C-9.40058 107.787 -9.53619 106.592 -9.66332 105.176C-9.91758 102.447 -10.1718 98.9384 -10.0617 98.1756C-9.61247 95.0991 -8.25642 89.675 -6.96817 86.6239C-3.46787 81.1742 -3.49329 66.4441 -0.221824 53.1887C2.10041 43.7896 4.97354 40.8741 4.99049 31.2546C4.99049 28.6188 5.85497 7.2695 6.26178 3.43018C7.47375 -7.21481 12.1267 -11.7915 16.6356 -14.0798C16.8135 -14.1815 16.9915 -14.2662 17.1695 -14.3425C17.8814 -14.6815 18.5934 -14.9612 19.2714 -15.207C19.7969 -15.4019 20.3138 -15.563 20.8139 -15.7155C20.958 -15.7579 21.1021 -15.8003 21.2461 -15.8342C21.7208 -15.9698 22.17 -16.0969 22.5937 -16.2071C22.7971 -16.2664 22.992 -16.3173 23.1785 -16.3681C23.348 -16.419 23.5175 -16.4613 23.6786 -16.5122C23.7464 -16.5291 23.8142 -16.5546 23.882 -16.5715C23.9667 -16.597 24.0515 -16.6224 24.1362 -16.6478C25.7296 -17.1394 30.3486 -20.1736 33.2811 -22.2161C34.4337 -23.0213 34.7473 -24.4112 34.7473 -25.8181V-31.9288C34.2049 -32.3102 33.6794 -32.7085 33.1879 -33.1323C32.8149 -33.4544 32.4505 -33.7849 32.103 -34.1409C31.925 -34.3189 31.7555 -34.4968 31.586 -34.6833C31.4165 -34.8612 31.2555 -35.0477 31.0945 -35.2342C30.9334 -35.4206 30.7724 -35.6071 30.6283 -35.802C30.4673 -35.9969 30.3232 -36.1919 30.1791 -36.3953C30.1028 -36.497 30.0265 -36.5987 29.9587 -36.7004C29.8825 -36.8021 29.8147 -36.9038 29.7469 -37.0055C29.6028 -37.2089 29.4672 -37.4123 29.3401 -37.6242C29.0773 -38.0565 28.8231 -38.4887 28.5857 -38.9379C28.4586 -39.1582 28.3484 -39.3871 28.2383 -39.6159C28.1026 -39.8871 27.9755 -40.1668 27.8484 -40.455C27.7552 -40.6414 27.6789 -40.8364 27.6026 -41.0313C27.4755 -41.311 27.3653 -41.5991 27.2636 -41.8958C27.1958 -42.0568 27.1365 -42.2178 27.0856 -42.3789C26.9839 -42.667 26.8822 -42.9637 26.789 -43.2603C26.5347 -44.1333 26.3144 -45.091 26.1279 -46.0995C26.0093 -46.7013 25.8991 -47.3115 25.8058 -47.9387C25.6279 -49.0913 25.4753 -50.2609 25.3567 -51.3966C25.2973 -51.8882 25.255 -52.3712 25.2041 -52.8374C25.0854 -54.1256 25.0007 -55.3122 24.9414 -56.2784C24.9244 -56.6004 24.9075 -56.8971 24.8905 -57.1768C24.8736 -57.448 24.8566 -57.7022 24.8481 -57.9141C24.8397 -58.0243 24.8397 -58.126 24.8312 -58.2192C24.8142 -58.6854 24.8058 -58.9481 24.8058 -58.9481C24.8058 -72.4916 33.0522 -78.6956 41.3241 -78.6956H45.1041C53.3676 -78.6956 61.614 -72.4916 61.614 -58.9481C61.614 -58.9481 61.6056 -58.626 61.5801 -58.0667C61.5801 -57.9989 61.5717 -57.9226 61.5717 -57.8463C61.5632 -57.6853 61.5547 -57.5158 61.5378 -57.3208C61.5208 -57.0242 61.4954 -56.6852 61.4784 -56.3038C61.4784 -56.1343 61.4615 -55.9478 61.4445 -55.7529C61.4106 -55.2698 61.3767 -54.7359 61.3259 -54.168C61.3259 -53.9646 61.3004 -53.7612 61.275 -53.5493C61.2157 -52.8374 61.1394 -52.0831 61.0546 -51.3034C60.9953 -50.7609 60.936 -50.2101 60.8597 -49.6507C60.8174 -49.3117 60.7665 -48.9727 60.7156 -48.6336C60.6733 -48.2862 60.6224 -47.9471 60.5631 -47.6081C60.4529 -46.9301 60.3343 -46.269 60.2071 -45.6249C60.1224 -45.2096 60.0376 -44.7943 59.9359 -44.4045C59.8427 -44.0146 59.741 -43.6247 59.6393 -43.2603C59.5291 -42.9128 59.4104 -42.5653 59.2833 -42.2263C59.2833 -42.2094 59.2748 -42.1924 59.2664 -42.1755C59.2155 -42.0229 59.1647 -41.8788 59.1053 -41.7347C58.9697 -41.3703 58.8256 -41.0228 58.6731 -40.6753C58.5714 -40.438 58.4697 -40.2007 58.3595 -39.9719C57.9781 -39.1582 57.5544 -38.387 57.0882 -37.6412C56.9611 -37.4293 56.8255 -37.2174 56.6814 -37.014C56.5458 -36.8106 56.4102 -36.6072 56.2576 -36.4123C56.122 -36.2173 55.978 -36.0308 55.8254 -35.8444C55.6728 -35.641 55.5118 -35.4461 55.3423 -35.2511C55.0287 -34.8698 54.6897 -34.5053 54.3422 -34.1493C54.1388 -33.9544 53.9354 -33.751 53.7235 -33.5646C53.5794 -33.429 53.4354 -33.2933 53.2828 -33.1662C53.2743 -33.1662 53.2743 -33.1577 53.2658 -33.1492C53.2404 -33.1323 53.2235 -33.1153 53.1981 -33.0984C53.0201 -32.9458 52.8336 -32.8018 52.6556 -32.6577C52.5115 -32.5306 52.359 -32.4119 52.198 -32.3017C52.0285 -32.1746 51.8589 -32.0474 51.681 -31.9288V-25.8181C51.681 -24.4112 51.9946 -23.0213 53.1472 -22.2161C56.0712 -20.1736 60.6987 -17.1394 62.2836 -16.6478C62.3683 -16.6224 62.4531 -16.597 62.5378 -16.5715C62.6056 -16.5546 62.6735 -16.5291 62.7413 -16.5122C62.9616 -16.4444 63.1904 -16.3851 63.4278 -16.3173C63.5888 -16.2749 63.7583 -16.2326 63.9278 -16.1817C64.3516 -16.0715 64.8007 -15.9444 65.2669 -15.8088C65.3771 -15.7834 65.4873 -15.7494 65.6059 -15.7155C65.7839 -15.6647 65.9619 -15.6054 66.1398 -15.5461C66.4365 -15.4528 66.7331 -15.3511 67.0467 -15.2409C67.3518 -15.1392 67.6654 -15.0206 67.979 -14.8934C68.2926 -14.7748 68.6062 -14.6392 68.9282 -14.4951C73.6913 -12.3509 78.8698 -7.89283 80.158 3.43018C80.5733 7.2695 81.4293 28.6188 81.4293 31.2546C81.4463 40.8741 84.3194 43.7896 86.6416 53.1887C89.9131 66.4441 89.8961 81.1742 93.3964 86.6239C94.6847 89.675 96.0323 95.0991 96.4815 98.1756C96.5916 98.9384 96.3458 102.447 96.0916 105.168C95.956 106.583 95.8204 107.787 95.7356 108.278C95.6763 108.634 95.6339 109.202 95.5407 109.761V109.77Z" fill="#333333"/>
<path d="M98.1596 97.9299C97.6849 94.6923 96.2865 89.1156 94.9559 85.9628C94.9135 85.878 94.8711 85.7933 94.8203 85.7085C92.9981 82.8777 92.176 76.784 91.2183 69.7325C90.5063 64.4524 89.6927 58.4688 88.2858 52.7819C87.4468 49.3833 86.5399 46.7983 85.7263 44.5185C84.277 40.4249 83.1328 37.1874 83.1244 31.2546C83.1244 28.5764 82.2599 7.10001 81.8446 3.24375C80.4038 -9.35056 74.3524 -14.0713 69.1062 -16.2664C67.3349 -17.0123 65.6568 -17.4699 64.2753 -17.8428C63.7329 -17.9869 63.2159 -18.131 62.7921 -18.2666C61.7412 -18.5887 58.012 -20.8855 54.1134 -23.6061C53.9269 -23.7332 53.376 -24.1231 53.376 -25.8181V-31.0643C57.0289 -33.8358 59.6817 -37.7683 61.2496 -42.7518C61.2581 -42.7602 61.2581 -42.7772 61.2665 -42.7942C62.3005 -46.3962 62.826 -51.3203 63.0803 -54.7782C63.2498 -57.0835 63.3006 -58.7362 63.3091 -58.8973V-58.9481C63.3091 -60.8127 63.1565 -62.584 62.8514 -64.2621C62.8514 -64.2791 62.8514 -64.296 62.843 -64.313C62.0717 -68.6354 60.3343 -72.2967 57.69 -75.0681C54.766 -78.1277 50.9097 -79.9584 46.6805 -80.3228H46.6721C46.1551 -80.3652 45.6381 -80.3906 45.1041 -80.3906H41.3241C36.4763 -80.3906 32.0098 -78.5006 28.7383 -75.0681C25.06 -71.2119 23.1107 -65.6351 23.1107 -58.9481V-58.8973C23.1192 -58.6769 23.2124 -55.736 23.5768 -52.1339C23.8735 -49.0828 24.3651 -45.5486 25.1617 -42.7942C25.1617 -42.7772 25.1702 -42.7602 25.1702 -42.7518C26.7466 -37.7683 29.3909 -33.8442 33.0522 -31.0643V-25.8181C33.0522 -24.1231 32.4929 -23.7332 32.3064 -23.6061C28.4162 -20.8855 24.6786 -18.5887 23.6362 -18.2666C23.2039 -18.131 22.6954 -17.9869 22.153 -17.8428C20.5427 -17.4021 18.534 -16.8597 16.4406 -15.885C11.4148 -13.5289 5.93126 -8.66407 4.5752 3.23527C4.16839 7.09153 3.29543 28.568 3.29543 31.2546C3.28695 37.1874 2.14279 40.4249 0.693512 44.5185C-0.111643 46.7983 -1.02698 49.3833 -1.86604 52.7819C-3.26446 58.4688 -4.07808 64.4524 -4.79849 69.7325C-5.74772 76.784 -6.5783 82.8777 -8.39202 85.7085C-8.45135 85.7933 -8.49373 85.878 -8.52763 85.9628C-9.86673 89.1156 -11.2651 94.6923 -11.7398 97.9299C-11.9601 99.447 -11.1974 107.337 -10.977 108.575C-10.9516 108.727 -10.9346 108.939 -10.9007 109.16C-10.7312 110.651 -10.4939 112.685 -8.81579 113.27C-8.66323 113.321 -8.51068 113.355 -8.35812 113.363C-8.28185 113.363 -8.20557 113.363 -8.12929 113.363C-4.46795 113.363 -3.35769 108.304 -2.28133 103.413C-2.13725 102.735 -1.95926 101.939 -1.77281 101.159C-1.7389 102.727 -1.51854 104.447 -0.789667 105.329C-0.408278 105.786 0.023962 106.142 0.481628 106.38C0.888444 106.575 1.29526 106.676 1.70208 106.676C2.10889 106.676 3.55816 106.532 4.19381 104.651C4.22771 104.549 4.25314 104.447 4.27009 104.337C4.65996 101.506 5.35493 96.701 5.59224 95.828C6.88896 90.9801 5.98211 88.5392 5.32951 86.7594C4.85489 85.4712 4.59216 84.7677 5.11762 83.2761C5.11762 83.2591 5.12609 83.2422 5.13457 83.2252C7.26187 76.5128 9.19424 70.8258 10.8978 65.8084C15.8897 51.1038 18.9069 42.2217 19.3985 29.9749C19.7121 27.4662 19.8901 25.1185 20.0003 23.1099C20.0003 23.0082 20.0003 22.9064 20.0172 22.8047C20.1359 23.0505 20.2545 23.2878 20.3562 23.5082C20.6274 24.0591 20.8563 24.5168 21.0173 24.8303C23.7972 30.1613 24.1955 41.1962 24.3396 45.3491C24.3566 45.9 24.3735 46.3661 24.3905 46.7136C24.5261 49.4087 22.7886 52.926 20.5935 57.3755C17.9662 62.698 14.6947 69.3257 13.1437 77.6824C10.6351 91.2683 10.8808 102.676 14.0082 117.05C15.8558 125.559 21.1953 155.715 20.8139 160.783C20.441 163.249 20.2715 168.343 20.1443 172.08C20.1104 173.08 20.085 173.962 20.0511 174.623C19.5341 186.649 21.1529 195.608 24.7041 211.83C25.1702 213.94 25.6024 215.805 25.9923 217.44C27.2297 222.703 27.9755 225.882 27.8399 229.746C27.7891 231.263 27.5518 231.95 27.4161 232.221C26.7212 233.611 26.5771 234.832 26.4415 235.908C26.3567 236.611 26.272 237.272 26.0432 237.967C25.6872 239.086 24.9329 240.078 24.0514 241.23C23.6955 241.705 23.3226 242.188 22.9497 242.731C21.7123 243.951 21.1444 245.231 21.2631 246.544C21.4241 248.333 22.831 249.299 22.992 249.409C23.1192 249.485 23.2548 249.553 23.3904 249.596C24.1955 249.867 25.2888 249.943 27.8738 249.943C33.1455 249.943 35.5525 249.943 39.485 249.57C39.5613 249.562 39.6375 249.553 39.7053 249.536C42.5785 248.875 42.2395 245.273 41.9937 242.637C41.9259 241.858 41.8242 240.781 41.9005 240.434C41.9513 240.18 42.0954 239.9 42.2818 239.552C42.6293 238.908 43.0616 238.103 43.2141 236.916C43.3582 238.103 43.7905 238.908 44.1379 239.552C44.3244 239.9 44.4769 240.18 44.5278 240.434C44.6041 240.781 44.5024 241.858 44.4261 242.646C44.1803 245.273 43.8498 248.875 46.7144 249.536C46.7907 249.553 46.8585 249.562 46.9348 249.57C50.8673 249.943 53.2743 249.943 58.5545 249.943C61.1394 249.943 62.2243 249.867 63.0294 249.596C63.1735 249.553 63.3091 249.485 63.4362 249.409C63.5888 249.299 64.9957 248.333 65.1567 246.544C65.2754 245.231 64.7075 243.951 63.4786 242.731C63.0972 242.188 62.7328 241.705 62.3683 241.23C61.4954 240.078 60.7326 239.086 60.3766 237.967C60.1478 237.272 60.0715 236.611 59.9868 235.908C59.8512 234.832 59.6986 233.611 59.0036 232.221C58.868 231.95 58.6307 231.263 58.5799 229.746C58.4443 225.882 59.1986 222.703 60.436 217.44C60.8174 215.796 61.2581 213.94 61.7157 211.83C65.2754 195.608 66.8857 186.649 66.3687 174.623C66.3433 173.97 66.3093 173.089 66.2754 172.089C66.1483 168.351 65.9788 163.249 65.6059 160.783C65.216 155.63 70.5385 125.11 72.4116 117.076C75.3356 104.558 76.5984 93.065 73.2676 77.6315C71.5471 69.6562 68.4367 63.1727 65.9364 57.9603C63.6735 53.2481 61.8937 49.5274 62.0293 46.7136C62.0463 46.3661 62.0632 45.9 62.0802 45.3491C62.2327 41.1962 62.6226 30.1613 65.394 24.8642C65.5551 24.5422 65.7839 24.0761 66.0551 23.5252C66.1653 23.2963 66.2839 23.059 66.4111 22.8047C66.4195 22.9064 66.4195 23.0082 66.428 23.1099C66.5382 25.1185 66.7077 27.4662 67.0213 29.9749C67.5044 42.0098 70.6572 51.3072 75.4203 65.3593C77.1662 70.5207 79.1495 76.3602 81.2852 83.2168C81.2852 83.2337 81.3022 83.2591 81.3107 83.2761C81.8361 84.7677 81.5734 85.4712 81.0988 86.7594C80.4377 88.5392 79.5393 90.9801 80.836 95.8365C81.0649 96.701 81.7683 101.506 82.1582 104.337C82.1667 104.447 82.1921 104.549 82.226 104.651C82.8616 106.532 84.3024 106.676 84.7262 106.676C85.15 106.676 85.5398 106.575 85.9297 106.38C86.3958 106.142 86.8281 105.787 87.2095 105.32C87.9468 104.447 88.1672 102.727 88.1926 101.167C88.3875 101.939 88.557 102.735 88.7096 103.413C89.7775 108.304 90.8877 113.363 94.5575 113.363C94.6338 113.363 94.7101 113.363 94.7864 113.363C94.939 113.355 95.0915 113.321 95.2356 113.27C96.9222 112.685 97.151 110.643 97.329 109.16C97.3544 108.931 97.3798 108.727 97.4053 108.575C97.6256 107.337 98.3799 99.447 98.1596 97.9299ZM43.2141 235.06C43.1887 234.882 43.1718 234.704 43.1379 234.518C42.3836 229.89 42.4259 226.738 42.4937 221.958C42.57 217.05 42.6548 210.94 41.9428 200.413C40.9851 186.175 40.7987 176.674 41.3496 170.529C41.4513 169.445 41.5869 168.275 41.731 167.029C42.1971 163.088 42.7649 158.189 42.7141 151.299C42.6632 143.858 42.8921 135.365 43.1379 127.009C43.4515 135.281 43.765 143.781 43.7057 151.299C43.6548 158.198 44.2312 163.097 44.6888 167.038C44.8329 168.275 44.977 169.453 45.0702 170.529C45.6296 176.674 45.4431 186.175 44.477 200.413C43.765 210.94 43.8583 217.05 43.9261 221.958C43.9939 226.738 44.0447 229.899 43.2904 234.518C43.2565 234.704 43.2311 234.882 43.2141 235.06ZM43.265 89.9462C43.265 89.3275 43.2904 88.7681 43.3243 88.268C43.3243 88.7681 43.3074 89.3275 43.265 89.9462ZM95.5407 109.77C95.4136 110.634 95.1932 111.49 94.6762 111.677H94.5575C90.2775 111.677 90.5572 96.2009 87.4044 96.2009C87.2773 96.2009 87.1417 96.2263 87.0061 96.2857C86.8959 96.3196 86.7942 96.362 86.7094 96.4128C85.9806 96.7773 86.1924 97.1925 86.3535 98.2011C86.5569 99.3792 86.6755 103.337 85.9128 104.252C85.6839 104.524 85.4297 104.744 85.1754 104.871C85.0228 104.947 84.8703 104.99 84.7262 104.99C84.3702 104.99 84.0482 104.736 83.8363 104.117C83.8363 104.117 82.8193 96.6925 82.4718 95.4043C80.3699 87.5477 84.5313 87.3188 82.904 82.7167C74.9881 57.3755 69.352 46.0695 68.7163 29.8477C68.2672 26.3135 68.1061 23.1183 68.0129 20.7029C67.8942 17.8975 67.8773 16.1516 67.6146 16.1516C67.2671 17.3212 63.8939 24.0845 63.8939 24.0845C63.6396 24.5676 63.4023 25.0931 63.1904 25.644C60.5716 32.331 60.4868 43.654 60.3343 46.6373C60.0546 52.4005 66.2077 60.291 69.9961 72.0209C70.0385 72.1565 70.0809 72.2921 70.1232 72.4277C70.6826 74.1906 71.1827 76.0466 71.6064 77.9959C72.0641 80.0978 72.4285 82.1234 72.7167 84.0982C74.3948 95.5992 73.4032 105.371 70.7589 116.703C69.0299 124.11 63.4532 155.545 63.9193 160.986C64.3855 163.978 64.5465 171.674 64.6736 174.708C65.1906 186.692 63.5549 195.523 60.0631 211.482C58.1392 220.254 56.6984 224.441 56.8848 229.814C56.9272 231.119 57.1136 232.23 57.495 232.992C58.4697 234.942 58.1137 236.484 58.7663 238.501C59.385 240.442 60.8174 241.875 62.1819 243.841C64.894 246.426 62.504 247.994 62.504 247.994C61.9107 248.189 60.9021 248.256 58.5545 248.256C57.5035 248.256 56.5712 248.256 55.7237 248.248C55.3084 248.256 54.9101 248.248 54.5287 248.248C53.554 248.24 52.6811 248.223 51.8505 248.206C51.3759 248.189 50.9182 248.163 50.4605 248.138C49.4011 248.087 48.3332 248.011 47.0958 247.892C44.96 247.4 46.5704 241.883 46.189 240.086C45.8754 238.662 44.6295 237.959 44.8838 235.34C44.9007 235.162 44.9261 234.984 44.96 234.789C45.138 233.679 45.2736 232.653 45.3753 231.662C46.1635 224.119 44.9177 218.991 46.172 200.532C47.2992 183.827 47.2145 175.428 46.7568 170.377C46.35 165.876 45.333 160.317 45.4008 151.307C45.5448 132.06 43.2989 106.812 44.6634 93.1922C44.6804 92.9973 44.7058 92.8108 44.7227 92.6243C44.7312 92.548 44.7397 92.4802 44.7482 92.404C44.7651 92.2853 44.7736 92.1667 44.7905 92.048C45.4516 85.861 44.5871 83.0981 43.5786 83.0981C42.4937 83.0981 41.2479 86.3611 41.6462 92.065C41.6547 92.1752 41.6631 92.2853 41.6716 92.404C41.6801 92.4718 41.6801 92.5396 41.6886 92.6074C41.7055 92.8024 41.714 92.9803 41.731 93.1752C42.6039 105.931 40.875 132.085 41.019 151.307C41.0868 160.317 40.0698 165.876 39.663 170.377C39.2053 175.428 39.129 183.827 40.2563 200.532C41.5106 219.178 40.2393 224.22 41.0699 231.899C41.1716 232.823 41.2987 233.772 41.4682 234.789C41.5784 235.467 41.5953 236.027 41.5614 236.501C41.4089 238.213 40.4851 238.908 40.2393 240.086C39.8579 241.883 41.4682 247.4 39.324 247.892C38.1629 248.002 37.1458 248.078 36.1457 248.129C35.6881 248.155 35.2304 248.18 34.7558 248.197C33.9167 248.223 33.0522 248.24 32.086 248.248H30.891C29.9926 248.256 29.001 248.256 27.8738 248.256C25.5262 248.256 24.5091 248.189 23.9159 247.994C23.9159 247.994 21.5258 246.426 24.2464 243.841C25.6024 241.875 27.0348 240.442 27.6619 238.501C28.3061 236.484 27.9586 234.942 28.9332 232.992C29.3146 232.23 29.4926 231.119 29.535 229.814C29.7214 224.441 28.2806 220.254 26.3567 211.482C22.8649 195.523 21.2292 186.692 21.7462 174.708C21.8818 171.674 22.0343 163.978 22.5005 160.986C22.9751 155.545 17.2797 124.136 15.6609 116.703C13.2454 105.6 12.3979 95.7009 13.8641 84.0897C13.8811 83.9456 13.898 83.8016 13.9235 83.6575C13.9404 83.5473 13.9489 83.4286 13.9658 83.3185C14.1947 81.6064 14.4744 79.8351 14.8134 77.9959C14.8897 77.5976 14.9659 77.2078 15.0507 76.8179C15.1185 76.4704 15.1948 76.1229 15.2795 75.7754C15.2795 75.7161 15.3049 75.6568 15.3219 75.5975C15.3982 75.25 15.4829 74.9025 15.5762 74.555C15.6694 74.1651 15.7711 73.7752 15.8813 73.3939C15.9745 73.0548 16.0677 72.7243 16.1609 72.4023C16.2033 72.2666 16.2457 72.1226 16.2881 71.9955C19.8901 60.1893 26.3737 52.409 26.0855 46.6373C25.933 43.654 25.8482 32.3395 23.2378 25.6525C23.0259 25.0931 22.7886 24.5676 22.5344 24.0845C22.5344 24.0845 19.1612 17.3212 18.8137 16.1516C18.551 16.1516 18.5256 17.8975 18.4154 20.6944C18.3222 23.1183 18.1611 26.3135 17.7119 29.8477C17.0763 46.0695 11.7707 56.6805 3.51579 82.7167C1.88853 87.3188 6.05838 87.5477 3.94803 95.4043C3.60902 96.6925 2.59197 104.117 2.59197 104.117C2.38009 104.736 2.05804 104.99 1.70208 104.99C1.55799 104.99 1.40544 104.947 1.25288 104.871C0.998626 104.744 0.744358 104.524 0.515524 104.252C-0.247253 103.337 -0.128598 99.3792 0.0663338 98.2011C0.23584 97.1925 0.447724 96.7773 -0.289627 96.4128C-0.37438 96.362 -0.467614 96.3196 -0.586268 96.2857C-0.721873 96.2263 -0.857467 96.2009 -0.984596 96.2009C-4.12894 96.2009 -3.85773 111.677 -8.12929 111.677H-8.24794C-8.76494 111.49 -8.98529 110.626 -9.1209 109.761C-9.20565 109.202 -9.24802 108.634 -9.31583 108.278C-9.40058 107.787 -9.53619 106.592 -9.66332 105.176C-9.91758 102.447 -10.1718 98.9384 -10.0617 98.1756C-9.61247 95.0991 -8.25642 89.675 -6.96817 86.6239C-3.46787 81.1742 -3.49329 66.4441 -0.221824 53.1887C2.10041 43.7896 4.97354 40.8741 4.99049 31.2546C4.99049 28.6188 5.85497 7.2695 6.26178 3.43018C7.47375 -7.21481 12.1267 -11.7915 16.6356 -14.0798C16.8135 -14.1815 16.9915 -14.2662 17.1695 -14.3425C17.8814 -14.6815 18.5934 -14.9612 19.2714 -15.207C19.7969 -15.4019 20.3138 -15.563 20.8139 -15.7155C20.958 -15.7579 21.1021 -15.8003 21.2461 -15.8342C21.7208 -15.9698 22.17 -16.0969 22.5937 -16.2071C22.7971 -16.2664 22.992 -16.3173 23.1785 -16.3681C23.348 -16.419 23.5175 -16.4613 23.6786 -16.5122C23.7464 -16.5291 23.8142 -16.5546 23.882 -16.5715C23.9667 -16.597 24.0515 -16.6224 24.1362 -16.6478C25.7296 -17.1394 30.3486 -20.1736 33.2811 -22.2161C34.4337 -23.0213 34.7473 -24.4112 34.7473 -25.8181V-31.9288C34.2049 -32.3102 33.6794 -32.7085 33.1879 -33.1323C32.8149 -33.4544 32.4505 -33.7849 32.103 -34.1409C31.925 -34.3189 31.7555 -34.4968 31.586 -34.6833C31.4165 -34.8612 31.2555 -35.0477 31.0945 -35.2342C30.9334 -35.4206 30.7724 -35.6071 30.6283 -35.802C30.4673 -35.9969 30.3232 -36.1919 30.1791 -36.3953C30.1028 -36.497 30.0265 -36.5987 29.9587 -36.7004C29.8825 -36.8021 29.8147 -36.9038 29.7469 -37.0055C29.6028 -37.2089 29.4672 -37.4123 29.3401 -37.6242C29.0773 -38.0565 28.8231 -38.4887 28.5857 -38.9379C28.4586 -39.1582 28.3484 -39.3871 28.2383 -39.6159C28.1026 -39.8871 27.9755 -40.1668 27.8484 -40.455C27.7552 -40.6414 27.6789 -40.8364 27.6026 -41.0313C27.4755 -41.311 27.3653 -41.5991 27.2636 -41.8958C27.1958 -42.0568 27.1365 -42.2178 27.0856 -42.3789C26.9839 -42.667 26.8822 -42.9637 26.789 -43.2603C26.5347 -44.1333 26.3144 -45.091 26.1279 -46.0995C26.0093 -46.7013 25.8991 -47.3115 25.8058 -47.9387C25.6279 -49.0913 25.4753 -50.2609 25.3567 -51.3966C25.2973 -51.8882 25.255 -52.3712 25.2041 -52.8374C25.0854 -54.1256 25.0007 -55.3122 24.9414 -56.2784C24.9244 -56.6004 24.9075 -56.8971 24.8905 -57.1768C24.8736 -57.448 24.8566 -57.7022 24.8481 -57.9141C24.8397 -58.0243 24.8397 -58.126 24.8312 -58.2192C24.8142 -58.6854 24.8058 -58.9481 24.8058 -58.9481C24.8058 -72.4916 33.0522 -78.6956 41.3241 -78.6956H45.1041C53.3676 -78.6956 61.614 -72.4916 61.614 -58.9481C61.614 -58.9481 61.6056 -58.626 61.5801 -58.0667C61.5801 -57.9989 61.5717 -57.9226 61.5717 -57.8463C61.5632 -57.6853 61.5547 -57.5158 61.5378 -57.3208C61.5208 -57.0242 61.4954 -56.6852 61.4784 -56.3038C61.4784 -56.1343 61.4615 -55.9478 61.4445 -55.7529C61.4106 -55.2698 61.3767 -54.7359 61.3259 -54.168C61.3259 -53.9646 61.3004 -53.7612 61.275 -53.5493C61.2157 -52.8374 61.1394 -52.0831 61.0546 -51.3034C60.9953 -50.7609 60.936 -50.2101 60.8597 -49.6507C60.8174 -49.3117 60.7665 -48.9727 60.7156 -48.6336C60.6733 -48.2862 60.6224 -47.9471 60.5631 -47.6081C60.4529 -46.9301 60.3343 -46.269 60.2071 -45.6249C60.1224 -45.2096 60.0376 -44.7943 59.9359 -44.4045C59.8427 -44.0146 59.741 -43.6247 59.6393 -43.2603C59.5291 -42.9128 59.4104 -42.5653 59.2833 -42.2263C59.2833 -42.2094 59.2748 -42.1924 59.2664 -42.1755C59.2155 -42.0229 59.1647 -41.8788 59.1053 -41.7347C58.9697 -41.3703 58.8256 -41.0228 58.6731 -40.6753C58.5714 -40.438 58.4697 -40.2007 58.3595 -39.9719C57.9781 -39.1582 57.5544 -38.387 57.0882 -37.6412C56.9611 -37.4293 56.8255 -37.2174 56.6814 -37.014C56.5458 -36.8106 56.4102 -36.6072 56.2576 -36.4123C56.122 -36.2173 55.978 -36.0308 55.8254 -35.8444C55.6728 -35.641 55.5118 -35.4461 55.3423 -35.2511C55.0287 -34.8698 54.6897 -34.5053 54.3422 -34.1493C54.1388 -33.9544 53.9354 -33.751 53.7235 -33.5646C53.5794 -33.429 53.4354 -33.2933 53.2828 -33.1662C53.2743 -33.1662 53.2743 -33.1577 53.2658 -33.1492C53.2404 -33.1323 53.2235 -33.1153 53.1981 -33.0984C53.0201 -32.9458 52.8336 -32.8018 52.6556 -32.6577C52.5115 -32.5306 52.359 -32.4119 52.198 -32.3017C52.0285 -32.1746 51.8589 -32.0474 51.681 -31.9288V-25.8181C51.681 -24.4112 51.9946 -23.0213 53.1472 -22.2161C56.0712 -20.1736 60.6987 -17.1394 62.2836 -16.6478C62.3683 -16.6224 62.4531 -16.597 62.5378 -16.5715C62.6056 -16.5546 62.6735 -16.5291 62.7413 -16.5122C62.9616 -16.4444 63.1904 -16.3851 63.4278 -16.3173C63.5888 -16.2749 63.7583 -16.2326 63.9278 -16.1817C64.3516 -16.0715 64.8007 -15.9444 65.2669 -15.8088C65.3771 -15.7834 65.4873 -15.7494 65.6059 -15.7155C65.7839 -15.6647 65.9619 -15.6054 66.1398 -15.5461C66.4365 -15.4528 66.7331 -15.3511 67.0467 -15.2409C67.3518 -15.1392 67.6654 -15.0206 67.979 -14.8934C68.2926 -14.7748 68.6062 -14.6392 68.9282 -14.4951C73.6913 -12.3509 78.8698 -7.89283 80.158 3.43018C80.5733 7.2695 81.4293 28.6188 81.4293 31.2546C81.4463 40.8741 84.3194 43.7896 86.6416 53.1887C89.9131 66.4441 89.8961 81.1742 93.3964 86.6239C94.6847 89.675 96.0323 95.0991 96.4815 98.1756C96.5916 98.9384 96.3458 102.447 96.0916 105.168C95.956 106.583 95.8204 107.787 95.7356 108.278C95.6763 108.634 95.6339 109.202 95.5407 109.761V109.77Z" fill="black" fill-opacity="0.2"/>
<path d="M20.5429 1.71753C20.5429 1.71753 16.6527 8.64189 16.9324 14.9899C17.0171 16.9392 17.5172 18.9309 18.4156 20.6938C18.3223 23.1177 18.1613 26.3129 17.7121 29.8471C17.0765 46.0688 11.7709 56.6799 3.51597 82.7161C1.88871 87.3182 6.05856 87.547 3.9482 95.4036C3.60919 96.6919 2.59215 104.116 2.59215 104.116C2.38027 104.735 2.05822 104.989 1.70225 104.989C1.55817 104.989 1.40562 104.947 1.25306 104.871C0.998803 104.743 0.744534 104.523 0.515701 104.252C-0.247076 103.337 -0.128421 99.3785 0.0665112 98.2005C0.236017 97.1919 0.447902 96.7766 -0.289451 96.4122C-0.374204 96.3614 -0.467437 96.319 -0.586091 96.285C-0.721696 96.2257 -0.857289 96.2003 -0.984419 96.2003C-4.12876 96.2003 -3.85756 111.676 -8.12911 111.676H-8.24776C-8.76476 111.49 -8.98512 110.625 -9.12072 109.761C-9.08682 109.778 -9.06139 109.803 -9.02749 109.82C-8.00198 104.837 -7.70534 101.167 -6.86629 97.7767C-6.62898 96.8105 -6.83239 96.641 -7.26463 97.4801C-7.86637 98.6497 -9.03597 101.896 -9.66314 105.167C-9.9174 102.447 -10.1717 98.9378 -10.0615 98.175C-9.61229 95.0985 -8.25624 89.6743 -6.968 86.6232C-3.4677 81.1736 -3.49312 66.4435 -0.221646 53.1881C2.10059 43.789 4.97371 40.8735 4.99066 31.254C4.99066 28.6182 5.85515 7.26888 6.26196 3.42956C7.47393 -7.21543 12.1269 -11.7921 16.6357 -14.0804C16.8137 -14.1736 16.9917 -14.2584 17.1697 -14.3431C17.8816 -14.6822 18.5935 -14.9619 19.2716 -15.2076C19.8055 -15.3941 20.3225 -15.5551 20.8141 -15.6992C20.153 -13.2668 19.9242 -3.02864 20.5429 1.71753Z" fill="#FFEACA"/>
<path d="M93.2943 97.7769C94.1249 101.167 94.4215 104.837 95.4555 109.82C95.4809 109.803 95.5148 109.786 95.5402 109.769C95.4131 110.634 95.1928 111.49 94.6758 111.676H94.5571C90.2771 111.676 90.5568 96.2005 87.4039 96.2005C87.2768 96.2005 87.1412 96.2259 87.0056 96.2852C86.8954 96.3191 86.7937 96.3615 86.709 96.4124C85.9801 96.7768 86.192 97.1921 86.353 98.2007C86.5564 99.3787 86.6751 103.337 85.9123 104.252C85.6835 104.523 85.4292 104.744 85.175 104.871C85.0224 104.947 84.8698 104.989 84.7258 104.989C84.3698 104.989 84.0477 104.735 83.8358 104.116C83.8358 104.116 82.8188 96.6921 82.4713 95.4038C80.3695 87.5472 84.5308 87.3183 82.9036 82.7162C74.9876 57.3751 69.3515 46.069 68.7159 29.8473C68.2667 26.3131 68.1057 23.1179 68.0125 20.7024C68.9024 18.9311 69.4024 16.9394 69.4871 14.9901C69.7753 8.64207 65.8851 1.71771 65.8851 1.71771C66.4954 -3.03693 66.2665 -13.2836 65.6055 -15.7075C65.7835 -15.6567 65.9614 -15.6058 66.1394 -15.5465C66.436 -15.4533 66.7327 -15.3515 67.0463 -15.2413C67.3514 -15.1396 67.665 -15.021 67.9785 -14.8939C68.2921 -14.7752 68.6057 -14.6396 68.9278 -14.4956C73.6909 -12.3513 78.8693 -7.89327 80.1576 3.42974C80.5729 7.26906 81.4289 28.6184 81.4289 31.2542C81.4458 40.8737 84.3189 43.7892 86.6412 53.1883C89.9126 66.4437 89.8957 81.1738 93.396 86.6234C94.6842 89.6745 96.0318 95.0987 96.481 98.1752C96.5912 98.938 96.3454 102.447 96.0911 105.167C95.464 101.896 94.2944 98.6499 93.6926 97.4803C93.2604 96.6412 93.057 96.8107 93.2943 97.7769Z" fill="#FFEACA"/>
<path d="M62.5368 -16.563C62.452 -16.5969 62.3673 -16.6224 62.2825 -16.6478C60.6976 -17.1394 56.0701 -20.1735 53.1461 -22.2161C51.9935 -23.0212 51.6799 -24.4112 51.6799 -25.8181V-30.7168C49.0271 -29.0387 46.1286 -28.1234 44.9929 -28.1234H41.4248C40.2637 -28.1234 37.4329 -28.954 34.7463 -30.6999V-25.8181C34.7463 -24.4112 34.4327 -23.0212 33.28 -22.2161C30.3476 -20.1735 25.7285 -17.1394 24.1351 -16.6478C24.0504 -16.6224 23.9657 -16.5969 23.8809 -16.5715C23.7114 -15.4782 23.5927 -14.3849 23.508 -13.317C26.9913 -13.2407 34.8056 -12.9356 37.7296 -11.6643C41.196 -10.1642 29.9068 -11.071 23.4741 -12.8254C22.9317 -5.60447 23.8216 0.523161 23.8216 0.557062C31.0002 8.26959 38.5093 8.6086 41.8824 18.245H44.5352C47.9084 8.6086 55.4175 8.26959 62.6046 0.557062C62.6046 0.514687 63.8081 -7.8504 62.5368 -16.563ZM43.2639 -7.9945C42.4249 -7.51988 41.7723 -8.05384 41.3316 -8.69796C40.8739 -9.36751 41.1621 -9.52007 41.9248 -9.23191C42.2384 -9.11325 42.5435 -9.04543 42.8317 -9.00306C43.6368 -8.89288 43.9674 -8.40131 43.2639 -7.9945ZM62.3079 -12.9017C55.926 -11.0965 44.264 -10.1388 47.7897 -11.6643C50.773 -12.9695 58.8924 -13.2577 62.2402 -13.3255C63.0538 -13.3424 63.0877 -13.1221 62.3079 -12.9017Z" fill="#FFEACA"/>
<path d="M60.3353 46.6373C60.4878 43.654 60.5726 32.331 63.1914 25.6525C62.5727 25.9491 61.9117 26.178 61.2082 26.339C61.0557 26.3729 60.3776 26.678 58.3436 26.678C54.7415 26.678 48.3766 25.7542 44.8 21.5504V21.4741H43.3253L41.6302 21.5504C38.0452 25.7542 31.6802 26.678 28.0782 26.678C26.0441 26.678 25.3661 26.3729 25.2136 26.339C24.5101 26.178 23.8575 25.9491 23.2388 25.6525C25.8492 32.3395 25.934 43.654 26.0865 46.6373C26.3747 52.409 19.8911 60.1894 16.2891 71.9955C16.8823 72.0887 17.5858 72.1988 18.3909 72.326C23.5439 73.1566 33.1465 74.7075 43.2151 74.7075C53.2838 74.7075 62.8778 73.1566 68.0393 72.326C68.7682 72.2073 69.4293 72.1056 69.9971 72.0209C66.2086 60.291 60.0556 52.4005 60.3353 46.6373ZM39.325 33.4328C38.3503 34.3482 36.5281 36.2805 35.189 39.0011C35.028 39.3401 34.9178 39.3825 34.833 39.3825C34.7822 39.3825 34.7398 39.3655 34.7059 39.3231C34.6635 39.2723 34.6127 39.1706 34.672 38.8485C34.9348 37.3738 35.8501 34.6617 39.0453 33.0091C39.2741 32.8904 39.3673 32.8734 39.4182 32.8734C39.4945 32.8734 39.5623 32.9158 39.5877 32.9751C39.6301 33.0853 39.5538 33.2125 39.325 33.4328ZM42.6134 35.077C42.7151 33.9498 42.9015 33.9583 43.0032 35.077C43.8677 44.8745 43.4694 50.5699 43.1049 53.2905C42.9524 54.4092 42.5032 54.4092 42.3507 53.2905C41.5879 47.8069 42.2405 39.0181 42.6134 35.077ZM42.7574 62.5285C41.8252 62.5285 41.0624 61.9607 41.0624 61.2572C41.0624 60.5538 41.8252 59.9859 42.7574 59.9859C43.6897 59.9859 44.4525 60.5538 44.4525 61.2572C44.4525 61.9607 43.6982 62.5285 42.7574 62.5285ZM50.809 39.3231C50.809 39.3231 50.7327 39.3825 50.6819 39.3825C50.5971 39.3825 50.4869 39.3401 50.3259 39.0011C48.9953 36.2805 47.1646 34.3482 46.1984 33.4328C45.9611 33.2125 45.8933 33.0853 45.9357 32.9751C45.9611 32.9158 46.0204 32.8734 46.0967 32.8734C46.1476 32.8734 46.2493 32.8904 46.4781 33.0091C49.6733 34.6617 50.5802 37.3738 50.8429 38.8485C50.9022 39.1706 50.8598 39.2723 50.809 39.3231Z" fill="#FFEACA"/>
<path d="M71.6055 77.9955C71.2495 76.0547 70.7834 74.1901 70.2664 72.4019C65.7067 73.0884 54.8837 75.1309 43.2132 75.1309C31.5427 75.1309 20.7113 73.0884 16.1515 72.4019C15.6261 74.1901 15.1684 76.0547 14.8125 77.9955C14.448 79.9533 14.1598 81.8264 13.9141 83.6571C23.8726 82.9282 34.0175 86.7082 42.5013 93.2257H43.9082C52.4005 86.7082 62.5369 82.9282 72.4954 83.6571C72.2496 81.8264 71.9615 79.9533 71.597 77.9955H71.6055Z" fill="#333333"/>
<path d="M71.6055 77.9955C71.2495 76.0547 70.7834 74.1901 70.2664 72.4019C65.7067 73.0884 54.8837 75.1309 43.2132 75.1309C31.5427 75.1309 20.7113 73.0884 16.1515 72.4019C15.6261 74.1901 15.1684 76.0547 14.8125 77.9955C14.448 79.9533 14.1598 81.8264 13.9141 83.6571C23.8726 82.9282 34.0175 86.7082 42.5013 93.2257H43.9082C52.4005 86.7082 62.5369 82.9282 72.4954 83.6571C72.2496 81.8264 71.9615 79.9533 71.597 77.9955H71.6055Z" fill="black" fill-opacity="0.2"/>
<path d="M72.928 83.6062C72.6737 81.6908 72.3771 79.8347 72.0211 77.9193C71.6821 76.0632 71.2414 74.2156 70.6736 72.2832L70.5719 71.9272L70.2074 71.9866C70.1396 71.9866 70.0633 72.0035 69.9955 72.0205C69.4277 72.1052 68.7666 72.2069 68.0378 72.3256C62.8763 73.1561 53.2822 74.7071 43.2136 74.7071C33.1449 74.7071 23.5424 73.1561 18.3894 72.3256C17.5842 72.1984 16.8808 72.0883 16.2875 71.9951C16.2621 71.9951 16.2451 71.9951 16.2197 71.9951L15.8468 71.9357L15.7451 72.2917C15.1942 74.1901 14.7365 76.0886 14.3975 77.9278C14.0415 79.8432 13.7449 81.6993 13.4991 83.6147L13.4229 84.1317L13.8636 84.0978H13.9483C23.0847 83.4113 33.0517 86.6828 41.7304 93.1833C41.8999 93.3105 42.0779 93.4376 42.2474 93.5732L42.366 93.658H44.0611L44.1713 93.5732C44.3323 93.446 44.5018 93.3189 44.6628 93.2003C53.35 86.6912 63.317 83.4113 72.4788 84.0893L72.7161 84.1063L72.9958 84.1317L72.928 83.6147V83.6062ZM44.79 92.0476C44.4509 92.2934 44.1119 92.5477 43.7729 92.8019H42.6457C42.3152 92.5477 41.9846 92.3019 41.6456 92.0646C33.1195 85.8522 23.4407 82.6739 14.406 83.1994C14.6433 81.4874 14.906 79.8008 15.2281 78.0718C15.5417 76.3768 15.957 74.6309 16.457 72.8765C16.9825 72.9612 17.5842 73.0545 18.2538 73.1647C23.4322 74.0037 33.0771 75.5547 43.2136 75.5547C53.35 75.5547 62.9865 74.0037 68.1734 73.1647C68.8344 73.0545 69.4362 72.9612 69.9616 72.8765C70.4702 74.6563 70.877 76.3598 71.1906 78.0718C71.5126 79.8008 71.7838 81.4874 72.0211 83.1994C62.9865 82.6739 53.3161 85.8437 44.79 92.0476Z" fill="#333333"/>
<path d="M72.928 83.6062C72.6737 81.6908 72.3771 79.8347 72.0211 77.9193C71.6821 76.0632 71.2414 74.2156 70.6736 72.2832L70.5719 71.9272L70.2074 71.9866C70.1396 71.9866 70.0633 72.0035 69.9955 72.0205C69.4277 72.1052 68.7666 72.2069 68.0378 72.3256C62.8763 73.1561 53.2822 74.7071 43.2136 74.7071C33.1449 74.7071 23.5424 73.1561 18.3894 72.3256C17.5842 72.1984 16.8808 72.0883 16.2875 71.9951C16.2621 71.9951 16.2451 71.9951 16.2197 71.9951L15.8468 71.9357L15.7451 72.2917C15.1942 74.1901 14.7365 76.0886 14.3975 77.9278C14.0415 79.8432 13.7449 81.6993 13.4991 83.6147L13.4229 84.1317L13.8636 84.0978H13.9483C23.0847 83.4113 33.0517 86.6828 41.7304 93.1833C41.8999 93.3105 42.0779 93.4376 42.2474 93.5732L42.366 93.658H44.0611L44.1713 93.5732C44.3323 93.446 44.5018 93.3189 44.6628 93.2003C53.35 86.6912 63.317 83.4113 72.4788 84.0893L72.7161 84.1063L72.9958 84.1317L72.928 83.6147V83.6062ZM44.79 92.0476C44.4509 92.2934 44.1119 92.5477 43.7729 92.8019H42.6457C42.3152 92.5477 41.9846 92.3019 41.6456 92.0646C33.1195 85.8522 23.4407 82.6739 14.406 83.1994C14.6433 81.4874 14.906 79.8008 15.2281 78.0718C15.5417 76.3768 15.957 74.6309 16.457 72.8765C16.9825 72.9612 17.5842 73.0545 18.2538 73.1647C23.4322 74.0037 33.0771 75.5547 43.2136 75.5547C53.35 75.5547 62.9865 74.0037 68.1734 73.1647C68.8344 73.0545 69.4362 72.9612 69.9616 72.8765C70.4702 74.6563 70.877 76.3598 71.1906 78.0718C71.5126 79.8008 71.7838 81.4874 72.0211 83.1994C62.9865 82.6739 53.3161 85.8437 44.79 92.0476Z" fill="black" fill-opacity="0.2"/>
<path d="M69.4877 14.9902C69.403 16.9396 68.903 18.9312 68.0131 20.6941C67.5808 21.5755 67.0468 22.3891 66.4281 23.118C66.3095 23.2621 66.1824 23.3978 66.0553 23.5334C65.2416 24.3978 64.2839 25.1182 63.1906 25.6437C62.5719 25.9488 61.9108 26.1777 61.2074 26.3387C61.0548 26.3726 60.3768 26.6777 58.3427 26.6777C54.7407 26.6777 48.3757 25.7539 44.7992 21.5501V21.4738H43.3245L41.6294 21.5501C38.0444 25.7539 31.6794 26.6777 28.0774 26.6777C26.0433 26.6777 25.3653 26.3726 25.2127 26.3387C24.5093 26.1777 23.8567 25.9488 23.238 25.6522C22.1362 25.1182 21.1785 24.3894 20.3564 23.5164C20.2377 23.3893 20.1191 23.2536 20.0004 23.118C19.3732 22.3891 18.8478 21.5755 18.4155 20.7026C17.5172 18.9312 17.0171 16.9396 16.9324 14.9902C16.6527 8.64223 20.5428 1.71787 20.5428 1.71787C19.9241 -3.0283 20.153 -13.2665 20.814 -15.6989V-15.7158C20.8479 -15.826 20.8734 -15.9192 20.9073 -15.9955C21.2548 -16.8091 24.0601 -17.7838 23.9245 -16.9024C23.9075 -16.7922 23.8906 -16.682 23.8821 -16.5718C23.7126 -15.4785 23.5939 -14.3852 23.5092 -13.3173C23.4922 -13.1563 23.4838 -12.9868 23.4753 -12.8257C22.9329 -5.60477 23.8228 0.522858 23.8228 0.556759C31.0014 8.26929 38.5105 8.6083 41.8837 18.2447H44.5364C47.9096 8.6083 55.4187 8.26929 62.6058 0.556759C62.6058 0.514381 63.8093 -7.85071 62.538 -16.5633C62.538 -16.682 62.5126 -16.7922 62.4956 -16.9024C62.36 -17.7838 65.1653 -16.8091 65.5128 -15.9955C65.5467 -15.9192 65.5722 -15.826 65.6061 -15.7158C66.2671 -13.2834 66.496 -3.03678 65.8857 1.71787C65.8857 1.71787 69.7759 8.64223 69.4877 14.9902Z" fill="#333333"/>
<path d="M69.4877 14.9902C69.403 16.9396 68.903 18.9312 68.0131 20.6941C67.5808 21.5755 67.0468 22.3891 66.4281 23.118C66.3095 23.2621 66.1824 23.3978 66.0553 23.5334C65.2416 24.3978 64.2839 25.1182 63.1906 25.6437C62.5719 25.9488 61.9108 26.1777 61.2074 26.3387C61.0548 26.3726 60.3768 26.6777 58.3427 26.6777C54.7407 26.6777 48.3757 25.7539 44.7992 21.5501V21.4738H43.3245L41.6294 21.5501C38.0444 25.7539 31.6794 26.6777 28.0774 26.6777C26.0433 26.6777 25.3653 26.3726 25.2127 26.3387C24.5093 26.1777 23.8567 25.9488 23.238 25.6522C22.1362 25.1182 21.1785 24.3894 20.3564 23.5164C20.2377 23.3893 20.1191 23.2536 20.0004 23.118C19.3732 22.3891 18.8478 21.5755 18.4155 20.7026C17.5172 18.9312 17.0171 16.9396 16.9324 14.9902C16.6527 8.64223 20.5428 1.71787 20.5428 1.71787C19.9241 -3.0283 20.153 -13.2665 20.814 -15.6989V-15.7158C20.8479 -15.826 20.8734 -15.9192 20.9073 -15.9955C21.2548 -16.8091 24.0601 -17.7838 23.9245 -16.9024C23.9075 -16.7922 23.8906 -16.682 23.8821 -16.5718C23.7126 -15.4785 23.5939 -14.3852 23.5092 -13.3173C23.4922 -13.1563 23.4838 -12.9868 23.4753 -12.8257C22.9329 -5.60477 23.8228 0.522858 23.8228 0.556759C31.0014 8.26929 38.5105 8.6083 41.8837 18.2447H44.5364C47.9096 8.6083 55.4187 8.26929 62.6058 0.556759C62.6058 0.514381 63.8093 -7.85071 62.538 -16.5633C62.538 -16.682 62.5126 -16.7922 62.4956 -16.9024C62.36 -17.7838 65.1653 -16.8091 65.5128 -15.9955C65.5467 -15.9192 65.5722 -15.826 65.6061 -15.7158C66.2671 -13.2834 66.496 -3.03678 65.8857 1.71787C65.8857 1.71787 69.7759 8.64223 69.4877 14.9902Z" fill="black" fill-opacity="0.2"/>
<path d="M42.7566 62.5284C43.6927 62.5284 44.4516 61.9593 44.4516 61.2571C44.4516 60.555 43.6927 59.9858 42.7566 59.9858C41.8204 59.9858 41.0615 60.555 41.0615 61.2571C41.0615 61.9593 41.8204 62.5284 42.7566 62.5284Z" fill="#333333"/>
<path d="M42.7566 62.5284C43.6927 62.5284 44.4516 61.9593 44.4516 61.2571C44.4516 60.555 43.6927 59.9858 42.7566 59.9858C41.8204 59.9858 41.0615 60.555 41.0615 61.2571C41.0615 61.9593 41.8204 62.5284 42.7566 62.5284Z" fill="black" fill-opacity="0.2"/>
</g>
<defs>
<clipPath id="clip0_8985_53489">
<rect width="85" height="80" fill="white"/>
</clipPath>
</defs>
</svg>
