<svg width="85" height="80" viewBox="0 0 85 80" fill="none" xmlns="http://www.w3.org/2000/svg">
<g clip-path="url(#clip0_10960_4862)">
<path d="M50.8975 4.33325C50.6271 4.75738 50.2083 5.14969 49.694 5.5102C47.8173 6.81439 44.7583 7.62553 43.804 7.62553H41.5349C40.6072 7.62553 37.6807 6.8568 35.7987 5.61093C35.2208 5.22922 34.7437 4.80509 34.4468 4.33855C34.5051 4.36506 34.9981 4.60893 35.7245 4.93763C37.3308 5.65334 40.0823 6.75607 41.8371 6.75607H43.5071C45.4369 6.75607 48.5807 5.42007 50.0651 4.73087C50.5794 4.4923 50.8975 4.33325 50.8975 4.33325Z" fill="#DFCBAD"/>
<path d="M51.6765 71.0163C51.3425 71.8168 50.8654 72.6492 50.208 73.4868C49.8422 73.9481 49.7362 73.8738 49.9694 73.3331C50.208 72.7764 50.5155 72.0024 50.8124 71.0534C51.2842 69.5531 51.7348 67.6233 51.8568 65.4974C51.8886 64.9089 52.0688 64.8771 52.2014 65.4496C52.4718 66.616 52.6732 68.6783 51.6765 71.0163Z" fill="#DFCBAD"/>
<path d="M35.5911 73.4866C34.9549 72.6754 34.4884 71.8749 34.1597 71.1009C33.1259 68.7311 33.3274 66.6316 33.5977 65.4494C33.725 64.8768 33.9105 64.9086 33.9423 65.4971C34.0696 67.6602 34.5308 69.6164 35.0133 71.1327C35.3048 72.0446 35.6017 72.7921 35.835 73.3328C36.063 73.8736 35.9569 73.9478 35.5911 73.4866Z" fill="#DFCBAD"/>
<path d="M72.9466 28.4879C72.8989 28.6363 72.8511 28.7795 72.8034 28.9226C72.215 30.7411 71.8279 32.3262 71.6106 33.3017C71.478 33.8743 71.3455 33.8637 71.3402 33.2805C71.3084 30.8153 71.8492 29.0658 72.5384 27.3427C72.5543 27.3109 72.5649 27.2791 72.5808 27.2473C72.7981 26.8073 73.0738 26.8974 73.1162 27.4488C73.1215 27.4647 73.1215 27.4806 73.1215 27.4965C73.1745 28.0797 73.1321 27.9312 72.9466 28.4879Z" fill="#DFCBAD"/>
<path d="M42.8494 69.4312C42.7857 69.6538 42.6055 69.6538 42.5419 69.4312C42.1601 68.1694 42.4835 66.0806 42.6532 65.2058C42.6956 64.9832 42.7698 64.9832 42.8122 65.2058C43.2258 67.5173 43.019 68.8321 42.8494 69.4312Z" fill="#DFCBAD"/>
<path d="M28.5138 15.9594C27.9519 15.8003 27.9784 15.6413 28.5668 15.6519C30.979 15.6996 36.8373 15.9116 38.9897 16.85C41.5291 17.9527 33.1209 17.2582 28.5138 15.9594Z" fill="#DFCBAD"/>
<path d="M38.688 42.2549C35.5919 45.7911 34.1922 49.4279 33.6568 51.1563C33.4871 51.7182 33.3758 51.7023 33.4129 51.1192C33.7787 45.7063 36.8907 43.0184 38.4759 41.9899C38.9689 41.6718 39.075 41.8149 38.688 42.2549Z" fill="#DFCBAD"/>
<path d="M42.892 35.654C42.8125 36.2372 42.574 36.2372 42.4891 35.6593C41.9908 32.3723 42.4149 27.9826 42.6323 25.6976C42.6853 25.1145 42.7913 25.1145 42.839 25.6976C43.3851 31.7308 43.1147 34.0953 42.892 35.654Z" fill="#DFCBAD"/>
<path d="M64.3947 34.4987C63.6101 35.7128 62.7565 37.6107 62.6717 37.7698C62.6399 37.8281 62.6134 37.8811 62.571 37.9341C62.009 38.899 61.0759 39.5193 59.9732 39.901C57.1793 40.8712 53.2933 40.2933 51.4589 39.9275C50.8811 39.8109 50.897 39.7048 51.4854 39.7101C56.0819 39.7579 58.4994 39.4133 60.2065 38.6286C60.7366 38.3264 61.463 37.8811 62.0249 36.5451C62.5498 35.2833 63.4192 34.5411 64.0925 34.1223C64.5909 33.8148 64.7128 34.0057 64.3947 34.4987Z" fill="#DFCBAD"/>
<path d="M56.7239 15.9594C52.1222 17.2582 43.7086 17.9527 46.2481 16.85C48.4005 15.9116 54.2587 15.6996 56.6709 15.6519C57.2594 15.6413 57.2859 15.8003 56.7239 15.9594Z" fill="#DFCBAD"/>
<path d="M52.1011 51.1667C51.4967 49.4172 49.9805 45.6902 47.0965 42.2706C46.72 41.82 46.8314 41.6716 47.3244 41.9897C48.9096 43.0182 52.0216 45.7061 52.3874 51.119C52.4245 51.7021 52.292 51.7233 52.1011 51.1667Z" fill="#DFCBAD"/>
<path d="M42.9824 19.4951C42.378 19.8397 41.9115 19.4527 41.5934 18.9914C41.2647 18.509 41.4715 18.3977 42.0228 18.6044C42.2455 18.6892 42.4681 18.7423 42.6749 18.7688C43.2581 18.8483 43.4966 19.2035 42.9824 19.4951Z" fill="#DFCBAD"/>
<path d="M47.9289 48.0814C46.7731 48.2828 45.4796 48.3783 44.1913 48.4101C43.6081 48.4207 43.1416 48.8925 43.1469 49.481C43.1681 51.0609 43.1628 52.7044 43.1469 54.3266C43.1363 54.9151 43.6081 55.3923 44.1913 55.4082C45.0713 55.4294 45.7871 55.4824 46.3172 55.5301C46.9057 55.5831 46.911 55.7581 46.3278 55.8376C45.6492 55.933 44.9229 55.986 44.1807 56.0125C43.5975 56.0284 43.1098 56.5056 43.0992 57.0888C43.0037 61.611 42.8871 61.7807 42.7334 62.0722C42.3622 62.2949 42.3357 60.0629 42.2933 57.0835C42.2827 56.495 41.8003 56.0072 41.2118 55.986C40.2893 55.9436 39.4676 55.88 38.8632 55.8217C38.2801 55.774 38.2801 55.6573 38.8632 55.599C39.6956 55.5195 40.4749 55.4665 41.2065 55.4347C41.795 55.4082 42.2668 54.9257 42.2615 54.3372C42.2509 52.5029 42.2615 50.8806 42.288 49.4704C42.2986 48.8872 41.8374 48.3995 41.2489 48.3783C39.6213 48.3094 38.1846 48.1768 37.2675 48.0814C36.6843 48.0178 36.6843 47.8905 37.2675 47.8216C38.7095 47.6573 40.0508 47.5618 41.2754 47.5141C41.8639 47.4876 42.3516 47.0052 42.3781 46.4167C42.4471 44.5982 42.5425 43.3312 42.6114 42.5306C42.6644 41.9475 42.7811 41.9475 42.8394 42.5306C42.9507 43.6758 43.0249 44.9906 43.0779 46.4114C43.0992 46.9946 43.5869 47.4717 44.1701 47.4823C45.8135 47.5141 47.0965 47.6202 47.9183 47.7156C48.5014 47.7792 48.5067 47.9806 47.9289 48.0814Z" fill="#DFCBAD"/>
<path d="M73.0103 56.5955C72.9043 56.7015 72.777 56.7492 72.6286 56.7492H72.6233C71.5312 56.7492 69.3894 54.2628 68.1329 52.6882C67.5815 51.9937 67.677 51.9301 68.345 52.5451C70.0308 54.0826 71.9341 55.3125 72.6975 55.6836C72.7346 55.6995 72.7664 55.7154 72.7983 55.7313C73.4715 56.0706 73.4026 56.1979 73.0103 56.5955Z" fill="#DFCBAD"/>
<path d="M74.8759 54.3C74.42 55.2967 73.5452 56.8713 72.6281 56.7494H72.6228C72.5221 56.7335 72.416 56.6963 72.3153 56.6327C71.8275 56.3464 72.1881 55.9965 72.6864 55.7845C72.7235 55.7686 72.7606 55.7527 72.7977 55.7315C73.2696 55.5088 73.8952 55.0582 74.6533 54.1993C74.9767 53.8335 75.0774 53.8706 74.8759 54.3Z" fill="#DFCBAD"/>
<path d="M12.4924 28.4879C12.5401 28.6363 12.5878 28.7795 12.6355 28.9226C13.224 30.7411 13.611 32.3262 13.8284 33.3017C13.9609 33.8743 14.0935 33.8637 14.0988 33.2805C14.1306 30.8153 13.5898 29.0658 12.9006 27.3427C12.8847 27.3109 12.8741 27.2791 12.8582 27.2473C12.6408 26.8073 12.3652 26.8974 12.3227 27.4488C12.3174 27.4647 12.3174 27.4806 12.3174 27.4965C12.2644 28.0797 12.3068 27.9312 12.4924 28.4879Z" fill="#DFCBAD"/>
<path d="M20.8402 34.4987C21.6248 35.7128 22.4783 37.6107 22.5632 37.7698C22.595 37.8281 22.6215 37.8811 22.6639 37.9341C23.2259 38.899 24.1589 39.5193 25.2616 39.901C28.0556 40.8712 31.9416 40.2933 33.7759 39.9275C34.3538 39.8109 34.3379 39.7048 33.7494 39.7101C29.153 39.7579 26.7355 39.4133 25.0284 38.6286C24.4982 38.3264 23.7719 37.8811 23.2099 36.5451C22.6851 35.2833 21.8156 34.5411 21.1423 34.1223C20.644 33.8148 20.5221 34.0057 20.8402 34.4987Z" fill="#DFCBAD"/>
<path d="M12.2246 56.5955C12.3306 56.7015 12.4578 56.7492 12.6063 56.7492H12.6116C13.7037 56.7492 15.8455 54.2628 17.102 52.6882C17.6533 51.9937 17.5579 51.9301 16.8899 52.5451C15.204 54.0826 13.3008 55.3125 12.5373 55.6836C12.5002 55.6995 12.4684 55.7154 12.4366 55.7313C11.7633 56.0706 11.8322 56.1979 12.2246 56.5955Z" fill="#DFCBAD"/>
<path d="M10.3589 54.3C10.8148 55.2967 11.6896 56.8713 12.6068 56.7494H12.6121C12.7128 56.7335 12.8188 56.6963 12.9196 56.6327C13.4073 56.3464 13.0468 55.9965 12.5485 55.7845C12.5113 55.7686 12.4742 55.7527 12.4371 55.7315C11.9653 55.5088 11.3397 55.0582 10.5816 54.1993C10.2582 53.8335 10.1575 53.8706 10.3589 54.3Z" fill="#DFCBAD"/>
<path d="M62.3331 89.6085L62.2005 89.6987C62.1157 89.757 61.9461 89.8206 61.7075 89.8895C60.8911 90.1228 59.2423 90.4144 57.2065 90.6742C54.5716 91.0082 51.2953 91.2838 48.3317 91.2838C46.7253 91.2838 45.3416 91.2043 44.2124 91.04C44.1859 91.04 44.1647 91.04 44.1435 91.0294L43.9314 90.9976L43.9208 90.7802C43.8731 89.5767 43.8307 89.2056 43.7989 88.8716C43.7671 88.5217 43.7352 88.2142 43.6981 87.0903H42.0918C42.06 88.2089 42.0281 88.5111 41.9963 88.8557C41.9645 89.1844 41.9274 89.5555 41.8744 90.7537L41.8638 90.9817L41.6358 91.0029C41.5192 91.0135 41.4026 91.0241 41.2806 91.0347C39.7485 91.1778 37.9884 91.252 36.1646 91.252C30.7358 91.252 25.6835 90.6371 23.812 89.7411C23.7908 89.7305 23.7696 89.7199 23.7484 89.7093L23.5894 89.6298L23.6053 89.4495C23.7166 88.1453 23.7643 86.7404 23.812 85.3832C23.8809 83.2308 23.9605 80.9988 24.2945 78.9683C24.4747 77.8497 24.7875 76.6939 25.1215 75.4746C25.5456 73.9318 25.9804 72.3307 26.15 70.7456L26.1818 70.4593L26.4628 70.5123C26.5264 70.5229 26.5953 70.5335 26.6643 70.5494C28.1487 70.7933 30.7942 70.9894 34.1606 71.1008C34.4416 71.1114 34.7279 71.122 35.0142 71.1326C37.0659 71.1909 39.3509 71.2227 41.779 71.2227C44.6418 71.2227 47.8651 71.1697 50.8128 71.053C51.1044 71.0424 51.396 71.0318 51.677 71.0159C54.614 70.8834 57.2012 70.6819 58.7916 70.3851H58.8128L59.0726 70.332L59.1044 70.6183C59.2582 72.1664 59.6929 73.619 60.1117 75.0239C60.4404 76.132 60.7797 77.2771 60.9706 78.4381C61.5166 81.7622 62.0256 85.8815 62.3172 89.4548L62.3331 89.6085Z" fill="#333333"/>
<path d="M62.3331 89.6085L62.2005 89.6987C62.1157 89.757 61.9461 89.8206 61.7075 89.8895C60.8911 90.1228 59.2423 90.4144 57.2065 90.6742C54.5716 91.0082 51.2953 91.2838 48.3317 91.2838C46.7253 91.2838 45.3416 91.2043 44.2124 91.04C44.1859 91.04 44.1647 91.04 44.1435 91.0294L43.9314 90.9976L43.9208 90.7802C43.8731 89.5767 43.8307 89.2056 43.7989 88.8716C43.7671 88.5217 43.7352 88.2142 43.6981 87.0903H42.0918C42.06 88.2089 42.0281 88.5111 41.9963 88.8557C41.9645 89.1844 41.9274 89.5555 41.8744 90.7537L41.8638 90.9817L41.6358 91.0029C41.5192 91.0135 41.4026 91.0241 41.2806 91.0347C39.7485 91.1778 37.9884 91.252 36.1646 91.252C30.7358 91.252 25.6835 90.6371 23.812 89.7411C23.7908 89.7305 23.7696 89.7199 23.7484 89.7093L23.5894 89.6298L23.6053 89.4495C23.7166 88.1453 23.7643 86.7404 23.812 85.3832C23.8809 83.2308 23.9605 80.9988 24.2945 78.9683C24.4747 77.8497 24.7875 76.6939 25.1215 75.4746C25.5456 73.9318 25.9804 72.3307 26.15 70.7456L26.1818 70.4593L26.4628 70.5123C26.5264 70.5229 26.5953 70.5335 26.6643 70.5494C28.1487 70.7933 30.7942 70.9894 34.1606 71.1008C34.4416 71.1114 34.7279 71.122 35.0142 71.1326C37.0659 71.1909 39.3509 71.2227 41.779 71.2227C44.6418 71.2227 47.8651 71.1697 50.8128 71.053C51.1044 71.0424 51.396 71.0318 51.677 71.0159C54.614 70.8834 57.2012 70.6819 58.7916 70.3851H58.8128L59.0726 70.332L59.1044 70.6183C59.2582 72.1664 59.6929 73.619 60.1117 75.0239C60.4404 76.132 60.7797 77.2771 60.9706 78.4381C61.5166 81.7622 62.0256 85.8815 62.3172 89.4548L62.3331 89.6085Z" fill="black" fill-opacity="0.2"/>
<path d="M82.1765 62.6023C81.6357 59.7023 80.7609 57.7354 79.918 55.8375C79.022 53.8282 78.1791 51.9302 77.8027 49.0143C77.702 48.2244 77.6489 47.4345 77.5959 46.5915C77.5429 45.8016 77.4952 44.9851 77.3945 44.174L77.2831 43.2621C76.9915 40.8234 76.5939 38.0136 75.9896 35.9036C75.3958 33.8041 73.975 30.1832 73.7629 29.4887C73.6887 28.879 73.6463 28.2693 73.6039 27.6225C73.4925 25.9843 73.3759 24.2878 72.6973 22.6443C71.7642 20.3753 70.2374 18.4402 68.2811 17.0565C65.4819 15.0684 61.4951 14.2997 60.4454 14.1247C57.0736 11.8079 52.7529 9.81984 50.7542 9.14123V5.54147C52.9967 3.84496 53.5428 1.39564 54.0199 -1.4195C55.5945 -2.00267 56.8669 -3.60905 57.238 -5.59184C57.6356 -7.73897 56.8934 -9.79068 55.4885 -10.8404C55.3506 -10.9464 55.2075 -11.0365 55.059 -11.1214L55.1545 -12.7012V-12.7649C55.1545 -20.3355 49.0895 -24.476 43.0775 -24.6669C43.0351 -24.6669 42.9821 -24.6775 42.9291 -24.6775H42.5633C42.5103 -24.6775 42.4626 -24.6722 42.4201 -24.6669C36.9118 -24.4919 31.3717 -21.0088 30.4757 -14.6204V-14.6045C30.3856 -14.016 30.3432 -13.401 30.3432 -12.7649V-12.7012L30.4386 -11.1214C28.7527 -10.1883 27.8197 -7.94573 28.2597 -5.59184C28.6255 -3.60905 29.8979 -2.00267 31.4777 -1.4195C31.9549 1.39564 32.5009 3.84496 34.7382 5.54147V9.14123C32.6865 9.84104 28.1961 11.9246 25.047 14.1247C23.9866 14.2997 20.0105 15.0684 17.2113 17.0565C15.2603 18.4402 13.7334 20.3753 12.7951 22.6443C12.1165 24.2878 12.0051 25.9843 11.8938 27.6225C11.8461 28.2693 11.8037 28.879 11.7348 29.4887C11.5227 30.1832 10.1019 33.8041 9.50281 35.9036C8.90373 38.0136 8.50082 40.8234 8.20924 43.2621L8.1032 44.1687C8.00247 44.9852 7.94946 45.8016 7.89644 46.5915C7.84342 47.4345 7.79571 48.2244 7.68968 49.0143C7.31327 51.9302 6.47033 53.8282 5.57967 55.8375C4.73142 57.7354 3.86196 59.7023 3.3159 62.597C2.00112 69.6428 0.659823 78.3691 1.964 87.5037C2.02232 87.8961 2.05943 88.3096 2.10715 88.7496C2.2821 90.4779 2.49947 92.6251 3.80895 95.191C3.81425 95.2016 3.82485 95.2122 3.83015 95.2228C7.7692 102.295 9.21123 102.295 9.68837 102.295C9.7891 102.295 9.88982 102.285 9.98525 102.263C10.5684 102.136 11.0403 101.807 11.3584 101.304C12.2543 99.8617 11.6234 97.2904 10.9554 94.5707C10.7964 93.924 10.5949 93.1075 10.4518 92.3865C10.9236 93.2241 11.6446 94.2474 12.4982 94.5601C12.864 94.6927 13.2192 94.7616 13.5426 94.7616C14.0887 94.7616 14.5605 94.5601 14.8733 94.1943C15.0959 93.9293 15.3345 93.468 15.2126 92.747C15.2126 92.7258 15.2073 92.7046 15.202 92.6834C15.1649 92.519 14.2689 88.5641 14.0728 87.7635C13.3623 84.8742 12.3126 83.7131 11.5439 82.8702C10.9819 82.2552 10.7752 82.0219 10.7858 81.2797C10.8441 78.7031 12.2861 76.1425 13.813 72.8661C15.4565 69.3406 17.1582 65.6984 17.5453 61.9608C17.7838 59.6811 18.6162 54.8196 18.7646 53.9554C19.088 53.2397 19.4432 52.2748 19.8249 51.2569C20.1854 50.2814 20.5565 49.2741 20.8587 48.6114C22.4068 45.2131 23.1596 42.0799 23.6102 39.8903C23.6314 39.7737 23.6579 39.6571 23.6845 39.5404L24.0185 39.8744C24.3896 40.2402 24.7448 40.5901 25.0311 40.9666C25.768 41.9367 25.9323 42.4033 25.927 43.4742C25.9217 44.6989 26.1762 46.7559 26.4307 48.744C26.6003 50.0959 26.7594 51.3682 26.8071 52.1582C26.9237 54.2099 27.0456 55.8905 27.1623 57.5128C27.2789 59.135 27.4008 60.805 27.5175 62.8461L27.6076 64.3518C27.1676 65.322 25.7627 68.5135 25.6354 70.1729C25.5188 71.6998 25.0417 73.672 24.5751 75.5805C24.2411 76.9589 23.9283 78.2578 23.7375 79.3976C22.4651 87.1326 22.3803 95.2599 23.4936 103.552C23.6951 105.068 23.9495 107.04 24.1881 108.434C24.7554 111.705 25.2908 114.796 25.0364 117.977C24.9038 119.594 25.0045 121.259 25.1106 122.696C25.1848 123.703 25.2908 124.753 25.4393 125.914C25.5029 126.417 25.5718 126.894 25.6407 127.356C25.9164 129.243 26.1285 130.727 25.8475 132.541C25.5877 134.205 25.4446 136.018 25.3969 138.245C25.2325 145.545 25.6778 148.769 26.9979 156.106C27.2312 157.405 27.4857 158.762 27.7613 160.135C27.9522 162.441 28.2279 168.697 27.3213 170.913C27.2206 171.157 27.1252 171.406 27.0244 171.656C26.4625 173.098 25.927 174.46 24.5115 175.775C22.4174 177.721 22.5128 178.929 22.8574 180.302L22.8786 180.387C23.1278 181.379 23.9654 181.845 30.5288 181.845C33.4181 181.845 36.3552 181.739 37.0921 181.713C37.214 181.739 37.3678 181.766 37.5427 181.766C38.1365 181.766 38.6719 181.501 39.0536 181.023C39.9178 179.942 39.9549 177.8 39.165 174.29C38.99 173.506 38.8204 172.843 38.6719 172.255C37.7389 168.554 37.4579 167.436 39.2763 152.156C39.393 151.176 39.5043 150.338 39.605 149.601C39.9549 146.982 40.1617 145.397 40.045 141.866C39.8436 135.849 39.2445 132.493 38.9264 130.685C38.8204 130.086 38.7356 129.609 38.725 129.354C38.7091 128.978 38.6719 128.49 38.6348 127.971C38.55 126.857 38.4281 125.325 38.5235 124.604C38.5818 124.148 38.5712 123.549 38.55 122.786C38.5076 121.036 38.444 118.396 39.2233 115.459C40.7979 109.521 42.1604 97.4442 42.5262 87.0902C42.5474 86.6025 42.5633 86.1147 42.5739 85.6323H42.9238C42.9344 86.1147 42.9503 86.6025 42.9715 87.0902C43.3373 97.4442 44.6945 109.521 46.2691 115.459C47.0484 118.396 46.9848 121.036 46.9424 122.786C46.9265 123.549 46.9105 124.148 46.9689 124.604C47.0643 125.325 46.9477 126.857 46.8628 127.971C46.8204 128.49 46.7833 128.978 46.7674 129.354C46.7568 129.609 46.672 130.086 46.566 130.685C46.2479 132.493 45.6541 135.849 45.4473 141.866C45.3307 145.397 45.5427 146.977 45.8926 149.596C45.9881 150.338 46.0994 151.17 46.216 152.156C48.0345 167.436 47.7535 168.554 46.8204 172.255C46.672 172.843 46.5076 173.506 46.3274 174.29C45.5374 177.8 45.5746 179.942 46.4387 181.023C46.8204 181.501 47.3612 181.766 47.955 181.766C48.1246 181.766 48.2784 181.739 48.4056 181.713C49.1372 181.739 52.0743 181.845 54.9689 181.845C61.5322 181.845 62.3646 181.379 62.6137 180.387L62.635 180.302C62.9796 178.929 63.0803 177.721 60.9809 175.775C59.5653 174.46 59.0352 173.098 58.4679 171.656C58.3725 171.406 58.2771 171.157 58.1763 170.913C57.2645 168.697 57.5455 162.441 57.731 160.135C58.0067 158.762 58.2665 157.405 58.4997 156.106C59.8145 148.769 60.2599 145.545 60.1008 138.245C60.0531 136.018 59.9046 134.205 59.6449 132.541C59.3639 130.727 59.5813 129.243 59.8516 127.356C59.9206 126.894 59.9895 126.417 60.0531 125.914C60.2015 124.753 60.3076 123.703 60.3818 122.696C60.4878 121.259 60.5886 119.594 60.4613 117.977C60.2015 114.796 60.737 111.705 61.3043 108.434C61.5481 107.04 61.7973 105.068 61.9988 103.552C63.1227 95.1698 63.0326 85.5316 61.7549 77.7754C61.5428 76.4977 61.1717 75.3313 60.8112 74.1968C60.3765 72.8396 59.963 71.5566 59.8569 70.1729C59.7297 68.5135 58.3301 65.322 57.8848 64.3518L57.9749 62.8461C58.0915 60.805 58.2134 59.135 58.3301 57.5128C58.4467 55.8905 58.5687 54.2099 58.6906 52.1582C58.733 51.3682 58.8974 50.0959 59.067 48.744C59.3162 46.7559 59.576 44.6989 59.5653 43.4742C59.56 42.4033 59.7297 41.9367 60.4613 40.9666C60.7476 40.5901 61.1028 40.2402 61.4792 39.8744C61.6064 39.7472 61.7337 39.62 61.8662 39.4874C61.9404 39.8161 62.02 40.1713 62.0942 40.5106C62.6031 42.785 63.3719 45.6956 64.6283 48.5955C64.904 49.2211 65.2486 50.1489 65.5826 51.0448C65.9749 52.0999 66.3831 53.1867 66.7278 53.9501C66.8762 54.8249 67.6979 59.6864 67.9471 61.9661C68.3023 65.1841 69.9246 68.7468 71.4938 72.1928C73.1161 75.7608 74.6483 78.6024 74.7066 81.2797C74.7225 82.0219 74.5104 82.2552 73.9538 82.8702C73.185 83.7131 72.13 84.8742 71.4249 87.7635C71.2288 88.5641 70.3328 93.0492 70.2904 93.2135C70.2904 93.2347 70.2851 93.256 70.2798 93.2772C70.1578 93.9982 70.4017 93.9293 70.6244 94.1943C70.9319 94.5601 71.4037 94.7616 71.9498 94.7616C72.2785 94.7616 72.6284 94.6927 72.9942 94.5601C73.8 94.2633 74.4892 93.1923 74.9982 92.1373C74.8656 92.8318 74.6854 93.5846 74.5422 94.1996C73.8689 97.1049 73.2274 99.8458 74.1605 101.32C74.4733 101.813 74.9398 102.141 75.5124 102.263C75.6078 102.285 75.7033 102.295 75.804 102.295C76.2811 102.295 77.7285 102.295 81.6675 95.2228C81.6728 95.2122 81.6781 95.2016 81.6834 95.191C82.9929 92.6251 83.2156 90.4779 83.3905 88.7496C83.4329 88.3096 83.4753 87.8961 83.5284 87.5037C84.8378 78.3691 83.4912 69.6428 82.1765 62.6023ZM82.484 87.3553C82.1924 89.3646 82.2772 91.7026 80.7397 94.7086C80.7397 94.7086 77.1029 101.235 75.804 101.235C75.7828 101.235 75.7563 101.23 75.7351 101.224C73.0101 100.641 76.8961 91.8934 76.191 89.8258C75.9736 89.1949 75.751 88.967 75.5442 88.967C75.136 88.967 74.7808 89.8682 74.6164 90.3136C74.362 91.0081 73.4289 93.2719 72.6337 93.5634C72.3898 93.6483 72.1565 93.7013 71.9498 93.7013C71.5256 93.7013 71.2341 93.4839 71.3242 92.922C71.3242 92.922 72.2573 88.8185 72.4534 88.018C73.6463 83.1459 75.8199 83.7873 75.7669 81.2585C75.645 75.6335 69.6966 68.1371 69.0021 61.8494C68.7211 59.2941 67.7509 53.6373 67.7509 53.6373C67.1201 52.2801 66.2188 49.5975 65.6038 48.1714C63.8596 44.1687 63.1015 39.4927 62.5713 37.9341C62.46 37.5895 62.3487 37.3986 62.2479 37.3986C62.2055 37.3986 62.1684 37.4304 62.1313 37.494C61.5587 38.4271 60.6893 39.0951 59.9736 39.9009C59.8463 40.0388 59.7297 40.1766 59.6184 40.3251C58.7436 41.4808 58.4997 42.1806 58.505 43.4848C58.5209 45.457 57.7469 50.1224 57.6303 52.0946C57.3917 56.1874 57.1531 58.6897 56.9146 62.7825C56.8828 63.3763 56.8457 63.9648 56.8138 64.5585C56.8138 64.5585 58.6694 68.5347 58.8019 70.2577C58.8072 70.3001 58.8072 70.3373 58.8125 70.3797C59.0458 73.0358 60.2705 75.2836 60.7105 77.9503C61.2778 81.4229 61.6383 85.5369 61.7072 89.8895C61.7761 94.2951 61.5481 98.9445 60.949 103.414C60.6893 105.37 60.3447 107.284 60.0425 109.166C60.0213 109.288 60.0054 109.405 59.9842 109.521C59.6078 111.896 59.3109 114.213 59.3374 116.493C59.3374 117.023 59.3586 117.542 59.401 118.062C59.5229 119.573 59.4381 121.116 59.3268 122.616C59.2472 123.676 59.1359 124.731 59.0034 125.781C58.6747 128.331 58.2188 130.261 58.6005 132.705C58.8867 134.545 58.9981 136.411 59.0405 138.266C59.2048 145.598 58.7489 148.721 57.4553 155.921C57.2115 157.278 56.9517 158.635 56.6813 159.987C56.6813 159.987 56.2148 165.569 56.7078 169.227C56.8138 170.049 56.9729 170.77 57.1956 171.316C57.2698 171.497 57.3387 171.677 57.4129 171.862C58.012 173.395 58.6005 175.017 60.2599 176.554C62.1154 178.277 61.8503 179.072 61.5852 180.133C61.5216 180.377 60.7741 180.536 59.6661 180.631C59.4434 180.652 59.2101 180.674 58.9663 180.689C58.4891 180.716 57.9696 180.737 57.4182 180.758C57.1956 180.758 56.9623 180.764 56.729 180.769C56.1564 180.78 55.5627 180.785 54.9689 180.785H54.9265C54.6508 180.785 54.3698 180.785 54.0941 180.78C53.3519 180.78 52.6203 180.769 51.947 180.753C51.5759 180.748 51.2207 180.737 50.8867 180.732C49.3493 180.689 48.2731 180.647 48.2731 180.647C48.2731 180.647 48.1405 180.705 47.955 180.705C47.3294 180.705 46.1153 180.064 47.3612 174.524C48.6707 168.719 49.397 169.88 47.2711 152.034C46.7462 147.624 46.3592 146.346 46.5076 141.903C46.7833 133.744 47.7747 130.6 47.8277 129.397C47.8754 128.193 48.1776 125.649 48.0239 124.466C47.8913 123.443 48.22 120.962 47.8118 117.85C47.7005 117.002 47.5361 116.111 47.2923 115.189C47.1279 114.574 46.9689 113.89 46.8098 113.158V113.147C46.8098 113.147 46.8045 113.132 46.8045 113.126C45.6329 107.634 44.668 99.0824 44.2121 91.0399C44.0848 88.8238 44 86.6396 43.9576 84.572H41.5348C41.4924 86.6396 41.4075 88.8185 41.2803 91.0346C40.9039 97.6616 40.1829 104.623 39.2869 109.945C39.2816 109.972 39.2763 109.993 39.2763 110.02C38.937 112.008 38.5765 113.768 38.2001 115.189C37.9934 115.973 37.8396 116.737 37.7336 117.468C37.2458 120.76 37.6116 123.406 37.4738 124.466C37.32 125.649 37.6169 128.193 37.67 129.397C37.7177 130.6 38.709 133.744 38.9847 141.903C39.1332 146.346 38.7515 147.624 38.2213 152.034C36.1007 169.88 36.8217 168.719 38.1312 174.524C39.3771 180.064 38.163 180.705 37.5427 180.705C37.3572 180.705 37.2193 180.647 37.2193 180.647C37.2193 180.647 36.0742 180.695 34.4519 180.737C34.1232 180.742 33.768 180.748 33.4022 180.758C32.7236 180.769 31.992 180.78 31.2498 180.78C31.0112 180.785 30.7673 180.785 30.5288 180.785H30.4121C29.8025 180.785 29.1981 180.78 28.6149 180.769C28.3763 180.769 28.1484 180.758 27.9204 180.748C27.369 180.732 26.8442 180.711 26.3723 180.679C26.1232 180.663 25.8952 180.642 25.6778 180.621C24.6493 180.52 23.9707 180.366 23.9124 180.133C23.6473 179.072 23.3823 178.277 25.2378 176.554C27.0934 174.831 27.6076 173.007 28.3021 171.316C28.3127 171.284 28.3286 171.253 28.3392 171.221C28.5513 170.659 28.705 169.933 28.8058 169.111C29.2723 165.453 28.8164 159.987 28.8164 159.987C28.5407 158.635 28.2809 157.278 28.0423 155.921C26.7488 148.721 26.2928 145.598 26.4572 138.266C26.4943 136.411 26.6109 134.545 26.8972 132.705C27.2736 130.261 26.8177 128.331 26.4943 125.781C26.3564 124.731 26.2451 123.676 26.1709 122.616C26.0596 121.116 25.9694 119.573 26.0914 118.062C26.1232 117.664 26.1444 117.267 26.1497 116.864C26.1868 115.464 26.0967 114.043 25.9323 112.607C25.5983 109.627 24.9674 106.579 24.5433 103.414C23.8965 98.584 23.6845 94.0247 23.8117 89.741C23.9177 86.1518 24.2623 82.7589 24.7872 79.5673C25.2166 76.9589 26.3989 73.2372 26.6639 70.5493C26.6798 70.4486 26.6904 70.3532 26.6957 70.2577C26.8283 68.5347 28.6838 64.5585 28.6838 64.5585C28.6467 63.9648 28.6149 63.3763 28.5778 62.7825C28.3392 58.6897 28.1006 56.1874 27.8621 52.0946C27.7507 50.1224 26.9767 45.457 26.9873 43.4848C26.9979 42.1806 26.7488 41.4808 25.874 40.3251C25.7945 40.219 25.7096 40.113 25.6142 40.0123C24.8826 39.1587 23.9601 38.4695 23.3664 37.494C23.324 37.4251 23.2815 37.3933 23.2444 37.3933C23.1172 37.3933 23.0006 37.7008 22.8627 38.2363C22.4174 39.9646 21.7547 44.0892 19.8939 48.1714C19.2471 49.5869 18.3723 52.2801 17.7467 53.6373C17.7467 53.6373 16.7606 59.2888 16.4956 61.8494C15.7533 68.9323 9.84741 75.6335 9.73078 81.2585C9.67246 83.7873 11.8514 83.1459 13.0442 88.018C13.2404 88.8185 14.1682 92.922 14.1682 92.922C14.2636 93.4839 13.972 93.7013 13.5426 93.7013C13.3411 93.7013 13.1026 93.6483 12.864 93.5634C12.0688 93.2719 11.1304 91.5382 10.8759 90.8437C10.7116 90.3984 10.3564 89.4971 9.94814 89.4971C9.74138 89.4971 9.52402 89.7251 9.30665 90.356C8.60155 92.4236 12.4876 100.641 9.76259 101.224C9.73608 101.23 9.71487 101.235 9.68837 101.235C8.38949 101.235 4.75262 94.7086 4.75262 94.7086C3.21518 91.7026 3.3 89.3646 3.01372 87.3553C1.82617 79.0265 2.81756 71.0424 4.36031 62.7931C5.45243 56.9508 7.98657 54.9945 8.74469 49.1522C8.95145 47.5458 8.95676 45.9076 9.15291 44.3012C9.4445 41.9261 9.86862 38.496 10.5207 36.1898C11.0774 34.2283 12.355 30.0347 12.689 28.9267C12.7421 28.7517 12.7739 28.651 12.7739 28.651C12.8375 28.1262 12.8799 27.649 12.9223 27.209C13.0389 25.7776 13.1132 24.6642 13.7759 23.0472C14.6241 20.9902 16.0078 19.2089 17.8262 17.9206C20.8375 15.7841 25.4552 15.1373 25.4552 15.1373C29.4738 12.2639 35.3108 9.94707 35.7296 9.94707H35.7985V4.9848C35.7985 4.9848 35.7455 4.95299 35.7243 4.93708C33.3439 3.36782 32.9463 0.97151 32.4108 -2.26775C30.9635 -2.47451 29.654 -3.87943 29.2988 -5.78799C28.9701 -7.54811 29.5533 -9.21281 30.6613 -10.008C30.9264 -10.2042 31.2233 -10.3473 31.5413 -10.4269L31.4035 -12.7649C31.4035 -19.9379 37.1557 -23.4687 42.5209 -23.6119C42.5368 -23.6119 42.5527 -23.6172 42.5633 -23.6172H42.9291C42.9291 -23.6172 42.9556 -23.6119 42.9715 -23.6119C48.3367 -23.4687 54.0941 -19.9379 54.0941 -12.7649L53.9563 -10.4269C54.5766 -10.2678 55.1014 -9.88081 55.4991 -9.34535C56.1564 -8.45468 56.448 -7.1505 56.1936 -5.78799C55.8384 -3.87943 54.5342 -2.47451 53.0815 -2.26775C52.5726 0.828367 52.1803 3.16106 50.065 4.73032C49.9483 4.81515 49.8211 4.89997 49.6939 4.9848V9.94707H49.7628C50.1869 9.94707 55.6846 12.0836 60.0425 15.1373C60.0425 15.1373 64.6601 15.7841 67.6661 17.9206C69.4899 19.2089 70.8682 20.9902 71.7165 23.0472C72.3898 24.6801 72.4534 25.7988 72.5807 27.2461C72.6178 27.6755 72.6602 28.1368 72.7238 28.651C72.7238 28.651 72.7556 28.7464 72.8033 28.9214C73.1373 30.0241 74.415 34.223 74.9717 36.1898C75.629 38.496 76.0479 41.9261 76.3394 44.3012C76.5356 45.9076 76.5462 47.5458 76.753 49.1522C77.5058 54.9945 80.0399 56.9508 81.132 62.7931C82.6748 71.0424 83.6715 79.0265 82.484 87.3553Z" fill="#333333"/>
<path d="M82.1765 62.6023C81.6357 59.7023 80.7609 57.7354 79.918 55.8375C79.022 53.8282 78.1791 51.9302 77.8027 49.0143C77.702 48.2244 77.6489 47.4345 77.5959 46.5915C77.5429 45.8016 77.4952 44.9851 77.3945 44.174L77.2831 43.2621C76.9915 40.8234 76.5939 38.0136 75.9896 35.9036C75.3958 33.8041 73.975 30.1832 73.7629 29.4887C73.6887 28.879 73.6463 28.2693 73.6039 27.6225C73.4925 25.9843 73.3759 24.2878 72.6973 22.6443C71.7642 20.3753 70.2374 18.4402 68.2811 17.0565C65.4819 15.0684 61.4951 14.2997 60.4454 14.1247C57.0736 11.8079 52.7529 9.81984 50.7542 9.14123V5.54147C52.9967 3.84496 53.5428 1.39564 54.0199 -1.4195C55.5945 -2.00267 56.8669 -3.60905 57.238 -5.59184C57.6356 -7.73897 56.8934 -9.79068 55.4885 -10.8404C55.3506 -10.9464 55.2075 -11.0365 55.059 -11.1214L55.1545 -12.7012V-12.7649C55.1545 -20.3355 49.0895 -24.476 43.0775 -24.6669C43.0351 -24.6669 42.9821 -24.6775 42.9291 -24.6775H42.5633C42.5103 -24.6775 42.4626 -24.6722 42.4201 -24.6669C36.9118 -24.4919 31.3717 -21.0088 30.4757 -14.6204V-14.6045C30.3856 -14.016 30.3432 -13.401 30.3432 -12.7649V-12.7012L30.4386 -11.1214C28.7527 -10.1883 27.8197 -7.94573 28.2597 -5.59184C28.6255 -3.60905 29.8979 -2.00267 31.4777 -1.4195C31.9549 1.39564 32.5009 3.84496 34.7382 5.54147V9.14123C32.6865 9.84104 28.1961 11.9246 25.047 14.1247C23.9866 14.2997 20.0105 15.0684 17.2113 17.0565C15.2603 18.4402 13.7334 20.3753 12.7951 22.6443C12.1165 24.2878 12.0051 25.9843 11.8938 27.6225C11.8461 28.2693 11.8037 28.879 11.7348 29.4887C11.5227 30.1832 10.1019 33.8041 9.50281 35.9036C8.90373 38.0136 8.50082 40.8234 8.20924 43.2621L8.1032 44.1687C8.00247 44.9852 7.94946 45.8016 7.89644 46.5915C7.84342 47.4345 7.79571 48.2244 7.68968 49.0143C7.31327 51.9302 6.47033 53.8282 5.57967 55.8375C4.73142 57.7354 3.86196 59.7023 3.3159 62.597C2.00112 69.6428 0.659823 78.3691 1.964 87.5037C2.02232 87.8961 2.05943 88.3096 2.10715 88.7496C2.2821 90.4779 2.49947 92.6251 3.80895 95.191C3.81425 95.2016 3.82485 95.2122 3.83015 95.2228C7.7692 102.295 9.21123 102.295 9.68837 102.295C9.7891 102.295 9.88982 102.285 9.98525 102.263C10.5684 102.136 11.0403 101.807 11.3584 101.304C12.2543 99.8617 11.6234 97.2904 10.9554 94.5707C10.7964 93.924 10.5949 93.1075 10.4518 92.3865C10.9236 93.2241 11.6446 94.2474 12.4982 94.5601C12.864 94.6927 13.2192 94.7616 13.5426 94.7616C14.0887 94.7616 14.5605 94.5601 14.8733 94.1943C15.0959 93.9293 15.3345 93.468 15.2126 92.747C15.2126 92.7258 15.2073 92.7046 15.202 92.6834C15.1649 92.519 14.2689 88.5641 14.0728 87.7635C13.3623 84.8742 12.3126 83.7131 11.5439 82.8702C10.9819 82.2552 10.7752 82.0219 10.7858 81.2797C10.8441 78.7031 12.2861 76.1425 13.813 72.8661C15.4565 69.3406 17.1582 65.6984 17.5453 61.9608C17.7838 59.6811 18.6162 54.8196 18.7646 53.9554C19.088 53.2397 19.4432 52.2748 19.8249 51.2569C20.1854 50.2814 20.5565 49.2741 20.8587 48.6114C22.4068 45.2131 23.1596 42.0799 23.6102 39.8903C23.6314 39.7737 23.6579 39.6571 23.6845 39.5404L24.0185 39.8744C24.3896 40.2402 24.7448 40.5901 25.0311 40.9666C25.768 41.9367 25.9323 42.4033 25.927 43.4742C25.9217 44.6989 26.1762 46.7559 26.4307 48.744C26.6003 50.0959 26.7594 51.3682 26.8071 52.1582C26.9237 54.2099 27.0456 55.8905 27.1623 57.5128C27.2789 59.135 27.4008 60.805 27.5175 62.8461L27.6076 64.3518C27.1676 65.322 25.7627 68.5135 25.6354 70.1729C25.5188 71.6998 25.0417 73.672 24.5751 75.5805C24.2411 76.9589 23.9283 78.2578 23.7375 79.3976C22.4651 87.1326 22.3803 95.2599 23.4936 103.552C23.6951 105.068 23.9495 107.04 24.1881 108.434C24.7554 111.705 25.2908 114.796 25.0364 117.977C24.9038 119.594 25.0045 121.259 25.1106 122.696C25.1848 123.703 25.2908 124.753 25.4393 125.914C25.5029 126.417 25.5718 126.894 25.6407 127.356C25.9164 129.243 26.1285 130.727 25.8475 132.541C25.5877 134.205 25.4446 136.018 25.3969 138.245C25.2325 145.545 25.6778 148.769 26.9979 156.106C27.2312 157.405 27.4857 158.762 27.7613 160.135C27.9522 162.441 28.2279 168.697 27.3213 170.913C27.2206 171.157 27.1252 171.406 27.0244 171.656C26.4625 173.098 25.927 174.46 24.5115 175.775C22.4174 177.721 22.5128 178.929 22.8574 180.302L22.8786 180.387C23.1278 181.379 23.9654 181.845 30.5288 181.845C33.4181 181.845 36.3552 181.739 37.0921 181.713C37.214 181.739 37.3678 181.766 37.5427 181.766C38.1365 181.766 38.6719 181.501 39.0536 181.023C39.9178 179.942 39.9549 177.8 39.165 174.29C38.99 173.506 38.8204 172.843 38.6719 172.255C37.7389 168.554 37.4579 167.436 39.2763 152.156C39.393 151.176 39.5043 150.338 39.605 149.601C39.9549 146.982 40.1617 145.397 40.045 141.866C39.8436 135.849 39.2445 132.493 38.9264 130.685C38.8204 130.086 38.7356 129.609 38.725 129.354C38.7091 128.978 38.6719 128.49 38.6348 127.971C38.55 126.857 38.4281 125.325 38.5235 124.604C38.5818 124.148 38.5712 123.549 38.55 122.786C38.5076 121.036 38.444 118.396 39.2233 115.459C40.7979 109.521 42.1604 97.4442 42.5262 87.0902C42.5474 86.6025 42.5633 86.1147 42.5739 85.6323H42.9238C42.9344 86.1147 42.9503 86.6025 42.9715 87.0902C43.3373 97.4442 44.6945 109.521 46.2691 115.459C47.0484 118.396 46.9848 121.036 46.9424 122.786C46.9265 123.549 46.9105 124.148 46.9689 124.604C47.0643 125.325 46.9477 126.857 46.8628 127.971C46.8204 128.49 46.7833 128.978 46.7674 129.354C46.7568 129.609 46.672 130.086 46.566 130.685C46.2479 132.493 45.6541 135.849 45.4473 141.866C45.3307 145.397 45.5427 146.977 45.8926 149.596C45.9881 150.338 46.0994 151.17 46.216 152.156C48.0345 167.436 47.7535 168.554 46.8204 172.255C46.672 172.843 46.5076 173.506 46.3274 174.29C45.5374 177.8 45.5746 179.942 46.4387 181.023C46.8204 181.501 47.3612 181.766 47.955 181.766C48.1246 181.766 48.2784 181.739 48.4056 181.713C49.1372 181.739 52.0743 181.845 54.9689 181.845C61.5322 181.845 62.3646 181.379 62.6137 180.387L62.635 180.302C62.9796 178.929 63.0803 177.721 60.9809 175.775C59.5653 174.46 59.0352 173.098 58.4679 171.656C58.3725 171.406 58.2771 171.157 58.1763 170.913C57.2645 168.697 57.5455 162.441 57.731 160.135C58.0067 158.762 58.2665 157.405 58.4997 156.106C59.8145 148.769 60.2599 145.545 60.1008 138.245C60.0531 136.018 59.9046 134.205 59.6449 132.541C59.3639 130.727 59.5813 129.243 59.8516 127.356C59.9206 126.894 59.9895 126.417 60.0531 125.914C60.2015 124.753 60.3076 123.703 60.3818 122.696C60.4878 121.259 60.5886 119.594 60.4613 117.977C60.2015 114.796 60.737 111.705 61.3043 108.434C61.5481 107.04 61.7973 105.068 61.9988 103.552C63.1227 95.1698 63.0326 85.5316 61.7549 77.7754C61.5428 76.4977 61.1717 75.3313 60.8112 74.1968C60.3765 72.8396 59.963 71.5566 59.8569 70.1729C59.7297 68.5135 58.3301 65.322 57.8848 64.3518L57.9749 62.8461C58.0915 60.805 58.2134 59.135 58.3301 57.5128C58.4467 55.8905 58.5687 54.2099 58.6906 52.1582C58.733 51.3682 58.8974 50.0959 59.067 48.744C59.3162 46.7559 59.576 44.6989 59.5653 43.4742C59.56 42.4033 59.7297 41.9367 60.4613 40.9666C60.7476 40.5901 61.1028 40.2402 61.4792 39.8744C61.6064 39.7472 61.7337 39.62 61.8662 39.4874C61.9404 39.8161 62.02 40.1713 62.0942 40.5106C62.6031 42.785 63.3719 45.6956 64.6283 48.5955C64.904 49.2211 65.2486 50.1489 65.5826 51.0448C65.9749 52.0999 66.3831 53.1867 66.7278 53.9501C66.8762 54.8249 67.6979 59.6864 67.9471 61.9661C68.3023 65.1841 69.9246 68.7468 71.4938 72.1928C73.1161 75.7608 74.6483 78.6024 74.7066 81.2797C74.7225 82.0219 74.5104 82.2552 73.9538 82.8702C73.185 83.7131 72.13 84.8742 71.4249 87.7635C71.2288 88.5641 70.3328 93.0492 70.2904 93.2135C70.2904 93.2347 70.2851 93.256 70.2798 93.2772C70.1578 93.9982 70.4017 93.9293 70.6244 94.1943C70.9319 94.5601 71.4037 94.7616 71.9498 94.7616C72.2785 94.7616 72.6284 94.6927 72.9942 94.5601C73.8 94.2633 74.4892 93.1923 74.9982 92.1373C74.8656 92.8318 74.6854 93.5846 74.5422 94.1996C73.8689 97.1049 73.2274 99.8458 74.1605 101.32C74.4733 101.813 74.9398 102.141 75.5124 102.263C75.6078 102.285 75.7033 102.295 75.804 102.295C76.2811 102.295 77.7285 102.295 81.6675 95.2228C81.6728 95.2122 81.6781 95.2016 81.6834 95.191C82.9929 92.6251 83.2156 90.4779 83.3905 88.7496C83.4329 88.3096 83.4753 87.8961 83.5284 87.5037C84.8378 78.3691 83.4912 69.6428 82.1765 62.6023ZM82.484 87.3553C82.1924 89.3646 82.2772 91.7026 80.7397 94.7086C80.7397 94.7086 77.1029 101.235 75.804 101.235C75.7828 101.235 75.7563 101.23 75.7351 101.224C73.0101 100.641 76.8961 91.8934 76.191 89.8258C75.9736 89.1949 75.751 88.967 75.5442 88.967C75.136 88.967 74.7808 89.8682 74.6164 90.3136C74.362 91.0081 73.4289 93.2719 72.6337 93.5634C72.3898 93.6483 72.1565 93.7013 71.9498 93.7013C71.5256 93.7013 71.2341 93.4839 71.3242 92.922C71.3242 92.922 72.2573 88.8185 72.4534 88.018C73.6463 83.1459 75.8199 83.7873 75.7669 81.2585C75.645 75.6335 69.6966 68.1371 69.0021 61.8494C68.7211 59.2941 67.7509 53.6373 67.7509 53.6373C67.1201 52.2801 66.2188 49.5975 65.6038 48.1714C63.8596 44.1687 63.1015 39.4927 62.5713 37.9341C62.46 37.5895 62.3487 37.3986 62.2479 37.3986C62.2055 37.3986 62.1684 37.4304 62.1313 37.494C61.5587 38.4271 60.6893 39.0951 59.9736 39.9009C59.8463 40.0388 59.7297 40.1766 59.6184 40.3251C58.7436 41.4808 58.4997 42.1806 58.505 43.4848C58.5209 45.457 57.7469 50.1224 57.6303 52.0946C57.3917 56.1874 57.1531 58.6897 56.9146 62.7825C56.8828 63.3763 56.8457 63.9648 56.8138 64.5585C56.8138 64.5585 58.6694 68.5347 58.8019 70.2577C58.8072 70.3001 58.8072 70.3373 58.8125 70.3797C59.0458 73.0358 60.2705 75.2836 60.7105 77.9503C61.2778 81.4229 61.6383 85.5369 61.7072 89.8895C61.7761 94.2951 61.5481 98.9445 60.949 103.414C60.6893 105.37 60.3447 107.284 60.0425 109.166C60.0213 109.288 60.0054 109.405 59.9842 109.521C59.6078 111.896 59.3109 114.213 59.3374 116.493C59.3374 117.023 59.3586 117.542 59.401 118.062C59.5229 119.573 59.4381 121.116 59.3268 122.616C59.2472 123.676 59.1359 124.731 59.0034 125.781C58.6747 128.331 58.2188 130.261 58.6005 132.705C58.8867 134.545 58.9981 136.411 59.0405 138.266C59.2048 145.598 58.7489 148.721 57.4553 155.921C57.2115 157.278 56.9517 158.635 56.6813 159.987C56.6813 159.987 56.2148 165.569 56.7078 169.227C56.8138 170.049 56.9729 170.77 57.1956 171.316C57.2698 171.497 57.3387 171.677 57.4129 171.862C58.012 173.395 58.6005 175.017 60.2599 176.554C62.1154 178.277 61.8503 179.072 61.5852 180.133C61.5216 180.377 60.7741 180.536 59.6661 180.631C59.4434 180.652 59.2101 180.674 58.9663 180.689C58.4891 180.716 57.9696 180.737 57.4182 180.758C57.1956 180.758 56.9623 180.764 56.729 180.769C56.1564 180.78 55.5627 180.785 54.9689 180.785H54.9265C54.6508 180.785 54.3698 180.785 54.0941 180.78C53.3519 180.78 52.6203 180.769 51.947 180.753C51.5759 180.748 51.2207 180.737 50.8867 180.732C49.3493 180.689 48.2731 180.647 48.2731 180.647C48.2731 180.647 48.1405 180.705 47.955 180.705C47.3294 180.705 46.1153 180.064 47.3612 174.524C48.6707 168.719 49.397 169.88 47.2711 152.034C46.7462 147.624 46.3592 146.346 46.5076 141.903C46.7833 133.744 47.7747 130.6 47.8277 129.397C47.8754 128.193 48.1776 125.649 48.0239 124.466C47.8913 123.443 48.22 120.962 47.8118 117.85C47.7005 117.002 47.5361 116.111 47.2923 115.189C47.1279 114.574 46.9689 113.89 46.8098 113.158V113.147C46.8098 113.147 46.8045 113.132 46.8045 113.126C45.6329 107.634 44.668 99.0824 44.2121 91.0399C44.0848 88.8238 44 86.6396 43.9576 84.572H41.5348C41.4924 86.6396 41.4075 88.8185 41.2803 91.0346C40.9039 97.6616 40.1829 104.623 39.2869 109.945C39.2816 109.972 39.2763 109.993 39.2763 110.02C38.937 112.008 38.5765 113.768 38.2001 115.189C37.9934 115.973 37.8396 116.737 37.7336 117.468C37.2458 120.76 37.6116 123.406 37.4738 124.466C37.32 125.649 37.6169 128.193 37.67 129.397C37.7177 130.6 38.709 133.744 38.9847 141.903C39.1332 146.346 38.7515 147.624 38.2213 152.034C36.1007 169.88 36.8217 168.719 38.1312 174.524C39.3771 180.064 38.163 180.705 37.5427 180.705C37.3572 180.705 37.2193 180.647 37.2193 180.647C37.2193 180.647 36.0742 180.695 34.4519 180.737C34.1232 180.742 33.768 180.748 33.4022 180.758C32.7236 180.769 31.992 180.78 31.2498 180.78C31.0112 180.785 30.7673 180.785 30.5288 180.785H30.4121C29.8025 180.785 29.1981 180.78 28.6149 180.769C28.3763 180.769 28.1484 180.758 27.9204 180.748C27.369 180.732 26.8442 180.711 26.3723 180.679C26.1232 180.663 25.8952 180.642 25.6778 180.621C24.6493 180.52 23.9707 180.366 23.9124 180.133C23.6473 179.072 23.3823 178.277 25.2378 176.554C27.0934 174.831 27.6076 173.007 28.3021 171.316C28.3127 171.284 28.3286 171.253 28.3392 171.221C28.5513 170.659 28.705 169.933 28.8058 169.111C29.2723 165.453 28.8164 159.987 28.8164 159.987C28.5407 158.635 28.2809 157.278 28.0423 155.921C26.7488 148.721 26.2928 145.598 26.4572 138.266C26.4943 136.411 26.6109 134.545 26.8972 132.705C27.2736 130.261 26.8177 128.331 26.4943 125.781C26.3564 124.731 26.2451 123.676 26.1709 122.616C26.0596 121.116 25.9694 119.573 26.0914 118.062C26.1232 117.664 26.1444 117.267 26.1497 116.864C26.1868 115.464 26.0967 114.043 25.9323 112.607C25.5983 109.627 24.9674 106.579 24.5433 103.414C23.8965 98.584 23.6845 94.0247 23.8117 89.741C23.9177 86.1518 24.2623 82.7589 24.7872 79.5673C25.2166 76.9589 26.3989 73.2372 26.6639 70.5493C26.6798 70.4486 26.6904 70.3532 26.6957 70.2577C26.8283 68.5347 28.6838 64.5585 28.6838 64.5585C28.6467 63.9648 28.6149 63.3763 28.5778 62.7825C28.3392 58.6897 28.1006 56.1874 27.8621 52.0946C27.7507 50.1224 26.9767 45.457 26.9873 43.4848C26.9979 42.1806 26.7488 41.4808 25.874 40.3251C25.7945 40.219 25.7096 40.113 25.6142 40.0123C24.8826 39.1587 23.9601 38.4695 23.3664 37.494C23.324 37.4251 23.2815 37.3933 23.2444 37.3933C23.1172 37.3933 23.0006 37.7008 22.8627 38.2363C22.4174 39.9646 21.7547 44.0892 19.8939 48.1714C19.2471 49.5869 18.3723 52.2801 17.7467 53.6373C17.7467 53.6373 16.7606 59.2888 16.4956 61.8494C15.7533 68.9323 9.84741 75.6335 9.73078 81.2585C9.67246 83.7873 11.8514 83.1459 13.0442 88.018C13.2404 88.8185 14.1682 92.922 14.1682 92.922C14.2636 93.4839 13.972 93.7013 13.5426 93.7013C13.3411 93.7013 13.1026 93.6483 12.864 93.5634C12.0688 93.2719 11.1304 91.5382 10.8759 90.8437C10.7116 90.3984 10.3564 89.4971 9.94814 89.4971C9.74138 89.4971 9.52402 89.7251 9.30665 90.356C8.60155 92.4236 12.4876 100.641 9.76259 101.224C9.73608 101.23 9.71487 101.235 9.68837 101.235C8.38949 101.235 4.75262 94.7086 4.75262 94.7086C3.21518 91.7026 3.3 89.3646 3.01372 87.3553C1.82617 79.0265 2.81756 71.0424 4.36031 62.7931C5.45243 56.9508 7.98657 54.9945 8.74469 49.1522C8.95145 47.5458 8.95676 45.9076 9.15291 44.3012C9.4445 41.9261 9.86862 38.496 10.5207 36.1898C11.0774 34.2283 12.355 30.0347 12.689 28.9267C12.7421 28.7517 12.7739 28.651 12.7739 28.651C12.8375 28.1262 12.8799 27.649 12.9223 27.209C13.0389 25.7776 13.1132 24.6642 13.7759 23.0472C14.6241 20.9902 16.0078 19.2089 17.8262 17.9206C20.8375 15.7841 25.4552 15.1373 25.4552 15.1373C29.4738 12.2639 35.3108 9.94707 35.7296 9.94707H35.7985V4.9848C35.7985 4.9848 35.7455 4.95299 35.7243 4.93708C33.3439 3.36782 32.9463 0.97151 32.4108 -2.26775C30.9635 -2.47451 29.654 -3.87943 29.2988 -5.78799C28.9701 -7.54811 29.5533 -9.21281 30.6613 -10.008C30.9264 -10.2042 31.2233 -10.3473 31.5413 -10.4269L31.4035 -12.7649C31.4035 -19.9379 37.1557 -23.4687 42.5209 -23.6119C42.5368 -23.6119 42.5527 -23.6172 42.5633 -23.6172H42.9291C42.9291 -23.6172 42.9556 -23.6119 42.9715 -23.6119C48.3367 -23.4687 54.0941 -19.9379 54.0941 -12.7649L53.9563 -10.4269C54.5766 -10.2678 55.1014 -9.88081 55.4991 -9.34535C56.1564 -8.45468 56.448 -7.1505 56.1936 -5.78799C55.8384 -3.87943 54.5342 -2.47451 53.0815 -2.26775C52.5726 0.828367 52.1803 3.16106 50.065 4.73032C49.9483 4.81515 49.8211 4.89997 49.6939 4.9848V9.94707H49.7628C50.1869 9.94707 55.6846 12.0836 60.0425 15.1373C60.0425 15.1373 64.6601 15.7841 67.6661 17.9206C69.4899 19.2089 70.8682 20.9902 71.7165 23.0472C72.3898 24.6801 72.4534 25.7988 72.5807 27.2461C72.6178 27.6755 72.6602 28.1368 72.7238 28.651C72.7238 28.651 72.7556 28.7464 72.8033 28.9214C73.1373 30.0241 74.415 34.223 74.9717 36.1898C75.629 38.496 76.0479 41.9261 76.3394 44.3012C76.5356 45.9076 76.5462 47.5458 76.753 49.1522C77.5058 54.9945 80.0399 56.9508 81.132 62.7931C82.6748 71.0424 83.6715 79.0265 82.484 87.3553Z" fill="black" fill-opacity="0.2"/>
<path d="M56.1931 -5.78784C55.8378 -3.87927 54.5337 -2.47436 53.081 -2.26759C52.5721 0.828522 52.1798 3.16121 50.0645 4.73048C48.58 5.41968 45.4362 6.75568 43.5064 6.75568H41.8365C40.0816 6.75568 37.3301 5.65295 35.7238 4.93724C33.3434 3.36798 32.9458 0.971664 32.4103 -2.26759C30.963 -2.47436 29.6535 -3.87927 29.2983 -5.78784C28.9696 -7.54796 29.5528 -9.21265 30.6608 -10.0079C30.8198 -8.27427 31.1273 -6.85875 31.7529 -6.6891C32.2248 -7.43662 32.1558 -13.491 32.2884 -16.0093C39.0903 -13.8674 45.2984 -20.7277 51.8829 -17.0378C54.9949 -15.2989 53.1182 -6.45583 54.8889 -7.26167C55.3554 -7.46843 55.4773 -8.375 55.4986 -9.34519C56.1559 -8.45452 56.4475 -7.15034 56.1931 -5.78784Z" fill="#FFEACA"/>
<path d="M81.1319 62.7932C80.0397 56.9509 77.5056 54.9946 76.7528 49.1523C76.546 47.5459 76.5354 45.9077 76.3392 44.3014C76.0477 41.9263 75.6288 38.4961 74.9715 36.19C74.4148 34.2231 73.1371 30.0242 72.8031 28.9215C72.2146 30.7399 71.8276 32.3251 71.6103 33.3006C71.4777 33.8732 71.3452 33.8626 71.3399 33.2794C71.3081 30.8142 71.8488 29.0646 72.538 27.3416C72.5539 27.3098 72.5645 27.278 72.5804 27.2462C72.4532 25.7989 72.3896 24.6802 71.7163 23.0474C70.868 20.9904 69.4896 19.209 67.6659 17.9207C64.6599 15.7842 60.0423 15.1374 60.0423 15.1374C55.6844 12.0837 50.1867 9.94718 49.7626 9.94718H49.6937V5.50977C47.8169 6.81395 44.7579 7.6251 43.8036 7.6251H41.5346C40.6068 7.6251 37.6803 6.85637 35.7983 5.6105V9.94718H35.7294C35.3106 9.94718 29.4735 12.264 25.455 15.1374C25.455 15.1374 20.8373 15.7842 17.826 17.9207C16.0076 19.209 14.6239 20.9904 13.7757 23.0474C13.113 24.6643 13.0387 25.7777 12.9221 27.2091C13.5742 28.9586 14.1362 31.0103 14.1415 33.2794C14.1415 33.8626 14.0089 33.8732 13.8817 33.3006C13.659 32.3251 13.272 30.7452 12.6888 28.9268C12.3548 30.0348 11.0772 34.2284 10.5205 36.19C9.86841 38.4961 9.44429 41.9263 9.15271 44.3014C8.95655 45.9077 8.95125 47.5459 8.74448 49.1523C7.98636 54.9946 5.45222 56.9509 4.3601 62.7932C2.81735 71.0425 1.82596 79.0266 3.01351 87.3554C3.29979 89.3647 3.21497 91.7027 4.75242 94.7087C4.75242 94.7087 8.38928 101.235 9.68816 101.235C9.71467 101.235 9.73587 101.23 9.76238 101.224C12.4874 100.641 8.60134 92.4237 9.30645 90.3561C9.52381 89.7252 9.74118 89.4972 9.94794 89.4972C10.3562 89.4972 10.7114 90.3985 10.8757 90.8438C11.1302 91.5383 12.0686 93.272 12.8638 93.5635C13.1024 93.6484 13.3409 93.7014 13.5424 93.7014C13.9718 93.7014 14.2634 93.484 14.168 92.9221C14.168 92.9221 13.2402 88.8186 13.044 88.0181C11.8512 83.146 9.67226 83.7875 9.73057 81.2586C9.84721 75.6336 15.7531 68.9324 16.4953 61.8496C16.7604 59.2889 17.7465 53.6374 17.7465 53.6374C18.3721 52.2802 19.2469 49.587 19.8936 48.1715C21.7545 44.0893 22.4172 39.9647 22.8625 38.2364C22.7512 38.0879 22.6504 37.9342 22.5656 37.7698C22.4808 37.6108 21.6325 35.7128 20.8426 34.4988C20.5245 34.0057 20.6465 33.8148 21.1448 34.1223C21.8181 34.5412 22.6876 35.2834 23.2177 36.5452C23.7744 37.8812 24.5007 38.3265 25.0308 38.6287C26.7379 39.4133 29.1555 39.7579 33.7519 39.7102C34.3404 39.7049 34.3563 39.8109 33.7784 39.9276C32.0236 40.2775 28.3761 40.8235 25.614 40.0124C25.7094 40.1131 25.7943 40.2192 25.8738 40.3252C26.7485 41.4809 26.9977 42.1807 26.9871 43.4849C26.9765 45.4571 27.7505 50.1225 27.8619 52.0947C28.1004 56.1875 28.339 58.6898 28.5776 62.7826C28.6147 63.3764 28.6465 63.9649 28.6836 64.5587C28.6836 64.5587 26.8281 68.5348 26.6955 70.2578C26.6902 70.3533 26.6796 70.4487 26.6637 70.5494C28.1482 70.7933 30.7936 70.9895 34.1601 71.1008C33.1263 68.731 33.3278 66.6316 33.5981 65.4493C33.7254 64.8768 33.9109 64.9086 33.9427 65.497C34.07 67.6601 34.5312 69.6164 35.0137 71.1326C37.0654 71.1909 39.3503 71.2227 41.7785 71.2227C44.6413 71.2227 47.8646 71.1697 50.8123 71.0531C51.2841 69.5527 51.7348 67.623 51.8567 65.497C51.8885 64.9086 52.0687 64.8768 52.2013 65.4493C52.4717 66.6157 52.6731 68.678 51.6764 71.016C54.6135 70.8834 57.2007 70.682 58.7911 70.3851H58.8123C58.8123 70.3374 58.8123 70.3003 58.8017 70.2578C58.6692 68.5348 56.8136 64.5587 56.8136 64.5587C56.8454 63.9649 56.8826 63.3764 56.9144 62.7826C57.1529 58.6898 57.3915 56.1875 57.6301 52.0947C57.7467 50.1225 58.5207 45.4571 58.5048 43.4849C58.4995 42.1807 58.7434 41.4809 59.6182 40.3252C59.7295 40.1767 59.8461 40.0389 59.9734 39.9011C57.1794 40.8712 53.2934 40.2934 51.4591 39.9276C50.8812 39.8109 50.8971 39.7049 51.4856 39.7102C56.082 39.7579 58.4995 39.4133 60.2066 38.6287C60.7368 38.3265 61.4631 37.8812 62.0251 36.5452C62.5499 35.2834 63.4194 34.5412 64.0927 34.1223C64.591 33.8148 64.7129 34.0057 64.3949 34.4988C63.6102 35.7128 62.7567 37.6108 62.6718 37.7698C62.64 37.8281 62.6135 37.8812 62.5711 37.9342C63.1013 39.4928 63.8594 44.1688 65.6036 48.1715C66.2186 49.5976 67.1199 52.2802 67.7507 53.6374C67.7507 53.6374 68.7209 59.2942 69.0019 61.8496C69.6964 68.1372 75.6447 75.6336 75.7667 81.2586C75.8197 83.7875 73.6461 83.146 72.4532 88.0181C72.2571 88.8186 71.324 92.9221 71.324 92.9221C71.2339 93.484 71.5254 93.7014 71.9496 93.7014C72.1563 93.7014 72.3896 93.6484 72.6335 93.5635C73.4287 93.272 74.3618 91.0082 74.6162 90.3137C74.7806 89.8683 75.1358 88.9671 75.544 88.9671C75.7508 88.9671 75.9734 89.1951 76.1908 89.8259C76.8959 91.8936 73.0099 100.641 75.7349 101.224C75.7561 101.23 75.7826 101.235 75.8038 101.235C77.1027 101.235 80.7395 94.7087 80.7395 94.7087C82.277 91.7027 82.1922 89.3647 82.4837 87.3554C83.6713 79.0266 82.6746 71.0425 81.1319 62.7932ZM17.2058 52.6884C15.9546 54.263 13.8128 56.7494 12.7206 56.7494C12.7206 56.7494 12.7153 56.7441 12.71 56.7494C11.7982 56.8714 10.9234 55.2968 10.4622 54.3001C10.266 53.8707 10.3668 53.8336 10.6902 54.1994C11.4483 55.0582 12.0686 55.5089 12.5457 55.7315C12.5775 55.7156 12.6093 55.6997 12.6411 55.6838C13.4098 55.3127 15.3131 54.0828 16.9937 52.5453C17.6617 51.9303 17.7624 51.9939 17.2058 52.6884ZM42.0223 18.6046C42.245 18.6895 42.4676 18.7425 42.6744 18.769C43.2576 18.8485 43.4961 19.2037 42.9819 19.4953C42.3775 19.8399 41.911 19.4529 41.5929 18.9917C41.2642 18.5092 41.471 18.3979 42.0223 18.6046ZM42.8918 35.6545C42.8122 36.2377 42.5737 36.2377 42.4889 35.6598C41.9905 32.3728 42.4146 27.9831 42.632 25.6981C42.685 25.115 42.791 25.115 42.8388 25.6981C43.3848 31.7313 43.1144 34.0958 42.8918 35.6545ZM28.514 15.9592C27.952 15.8001 27.9785 15.6411 28.567 15.6517C30.9792 15.6994 36.8374 15.9114 38.9898 16.8498C41.5293 17.9526 33.121 17.258 28.514 15.9592ZM33.6565 51.1563C33.4868 51.7183 33.3755 51.7024 33.4126 51.1192C33.7784 45.7063 36.8904 43.0184 38.4756 41.9899C38.9686 41.6718 39.0747 41.8149 38.6876 42.255C35.5915 45.7911 34.1919 49.428 33.6565 51.1563ZM42.8494 69.4308C42.7857 69.6535 42.6055 69.6535 42.5419 69.4308C42.1601 68.169 42.4836 66.0802 42.6532 65.2054C42.6956 64.9828 42.7698 64.9828 42.8122 65.2054C43.2258 67.5169 43.019 68.8317 42.8494 69.4308ZM42.6956 63.3181C42.1124 63.3181 41.6353 63.053 41.6353 62.7243C41.6353 62.3956 42.1124 62.1252 42.6956 62.1252C43.2788 62.1252 43.7559 62.3956 43.7559 62.7243C43.7559 63.053 43.2788 63.3181 42.6956 63.3181ZM47.9282 48.0814C46.7725 48.2828 45.4789 48.3783 44.1907 48.4101C43.6075 48.4207 43.1409 48.8925 43.1462 49.481C43.1674 51.0609 43.1621 52.7043 43.1462 54.3266C43.1356 54.9151 43.6075 55.3922 44.1907 55.4081C45.0707 55.4294 45.7864 55.4824 46.3166 55.5301C46.905 55.5831 46.9103 55.758 46.3272 55.8376C45.6486 55.933 44.9223 55.986 44.1801 56.0125C43.5969 56.0284 43.1091 56.5056 43.0985 57.0887C43.0031 61.611 42.8865 61.7806 42.7327 62.0722C42.3616 62.2949 42.3351 60.0629 42.2927 57.0834C42.2821 56.495 41.7997 56.0072 41.2112 55.986C40.2887 55.9436 39.467 55.88 38.8626 55.8217C38.2794 55.774 38.2794 55.6573 38.8626 55.599C39.6949 55.5195 40.4743 55.4665 41.2059 55.4347C41.7943 55.4081 42.2662 54.9257 42.2609 54.3372C42.2503 52.5029 42.2609 50.8806 42.2874 49.4704C42.298 48.8872 41.8368 48.3995 41.2483 48.3783C39.6207 48.3093 38.184 48.1768 37.2668 48.0814C36.6837 48.0178 36.6837 47.8905 37.2668 47.8216C38.7089 47.6573 40.0501 47.5618 41.2748 47.5141C41.8633 47.4876 42.351 47.0052 42.3775 46.4167C42.4464 44.5982 42.5419 43.3312 42.6108 42.5306C42.6638 41.9475 42.7804 41.9475 42.8388 42.5306C42.9501 43.6758 43.0243 44.9906 43.0773 46.4114C43.0985 46.9946 43.5863 47.4717 44.1694 47.4823C45.8129 47.5141 47.0959 47.6201 47.9176 47.7156C48.5008 47.7792 48.5061 47.9806 47.9282 48.0814ZM52.3868 51.1192C52.424 51.7024 52.2914 51.7236 52.1006 51.1669C51.4962 49.4174 49.9799 45.6904 47.0959 42.2709C46.7195 41.8202 46.8308 41.6718 47.3239 41.9899C48.909 43.0184 52.021 45.7063 52.3868 51.1192ZM56.7235 15.9592C52.1218 17.258 43.7082 17.9526 46.2477 16.8498C48.4001 15.9114 54.2583 15.6994 56.6705 15.6517C57.259 15.6411 57.2855 15.8001 56.7235 15.9592ZM74.876 54.3001C74.4201 55.2968 73.5453 56.8714 72.6282 56.7494H72.6229C71.5307 56.7494 69.3889 54.263 68.1325 52.6884C67.5811 51.9939 67.6765 51.9303 68.3445 52.5453C70.0304 54.0828 71.9337 55.3127 72.6971 55.6838C72.7342 55.6997 72.766 55.7156 72.7978 55.7315C73.2696 55.5089 73.8952 55.0582 74.6534 54.1994C74.9767 53.8336 75.0775 53.8707 74.876 54.3001Z" fill="#FFEACA"/>
<path d="M43.7564 62.7243C43.7564 63.053 43.2792 63.3181 42.6961 63.3181C42.1129 63.3181 41.6357 63.053 41.6357 62.7243C41.6357 62.3956 42.1129 62.1252 42.6961 62.1252C43.2792 62.1252 43.7564 62.3956 43.7564 62.7243Z" fill="#333333"/>
<path d="M43.7564 62.7243C43.7564 63.053 43.2792 63.3181 42.6961 63.3181C42.1129 63.3181 41.6357 63.053 41.6357 62.7243C41.6357 62.3956 42.1129 62.1252 42.6961 62.1252C43.2792 62.1252 43.7564 62.3956 43.7564 62.7243Z" fill="black" fill-opacity="0.2"/>
</g>
<defs>
<clipPath id="clip0_10960_4862">
<rect width="85" height="80" fill="white"/>
</clipPath>
</defs>
</svg>
