<svg width="85" height="80" viewBox="0 0 85 80" fill="none" xmlns="http://www.w3.org/2000/svg">
<g clip-path="url(#clip0_8984_52243)">
<path d="M39.8991 39.7193C37.1888 42.6592 35.9009 45.6719 35.3689 47.223C35.1729 47.8054 35.0441 47.7942 35.1001 47.1782C35.4921 42.6816 38.1968 40.38 39.6919 39.4449C40.2127 39.1145 40.3135 39.2657 39.8991 39.7193Z" fill="white"/>
<path d="M30.5307 13.1935C29.9259 13.0871 29.9427 12.9583 30.5643 12.9415C32.8882 12.8855 38.1968 12.8295 40.2071 13.4175C42.6094 14.1174 34.9041 13.9438 30.5307 13.1935Z" fill="white"/>
<path d="M42.8837 21.0272C43.3596 26.4198 43.1412 28.4357 42.9396 29.9365C42.8557 30.5469 42.6149 30.5469 42.5253 29.9365C42.1053 26.9182 42.4693 23.1943 42.6709 21.0272C42.7269 20.4112 42.8333 20.4112 42.8837 21.0272Z" fill="white"/>
<path d="M43.8693 61.945C43.8693 62.2922 43.3709 62.5722 42.7494 62.5722C42.1278 62.5722 41.6294 62.2922 41.6294 61.945C41.6294 61.5978 42.1334 61.3123 42.7494 61.3123C43.3653 61.3123 43.8693 61.5978 43.8693 61.945Z" fill="white"/>
<path d="M42.2063 15.3043C41.8311 14.8115 41.7471 13.9548 42.6543 14.8843C42.7439 14.9739 42.9623 15.1699 43.0799 15.1307C44.239 14.7443 43.8862 15.4891 43.3151 15.7243C42.8503 15.9203 42.4751 15.6571 42.2063 15.3043Z" fill="white"/>
<path d="M51.0815 47.1789C51.1319 47.7949 50.9807 47.8117 50.7623 47.2349C50.1687 45.6613 48.7912 42.587 46.2657 39.7367C45.8569 39.272 45.9633 39.1152 46.4897 39.4456C47.9848 40.3807 50.6895 42.6822 51.0815 47.1789Z" fill="white"/>
<path d="M55.6178 12.9415C56.2338 12.9583 56.2562 13.0871 55.6514 13.1935C51.2724 13.9438 43.5727 14.1174 45.9694 13.4175C47.9853 12.8295 53.2883 12.8855 55.6178 12.9415Z" fill="white"/>
<path d="M56.7485 -9.41915C56.3845 -7.33043 55.0462 -5.79608 53.5679 -5.61128C52.6159 -2.60419 51.0255 -0.134668 48.6568 1.62367C47.0721 2.51964 45.1906 3.39322 43.8466 3.39322H42.0827C40.7443 3.39322 38.8628 2.51964 37.2781 1.62367C34.9038 -0.134668 33.3134 -2.60419 32.367 -5.61128C30.8887 -5.79608 29.5504 -7.33043 29.1864 -9.41915C28.8896 -11.1327 29.3376 -12.7566 30.2391 -13.6974C30.4575 -12.6894 30.7711 -11.9615 31.2303 -11.8383C31.6615 -12.5103 31.5327 -17.6453 31.5719 -20.4228C31.6279 -20.6468 31.6895 -20.854 31.7511 -21.0612C38.8684 -18.95 45.1962 -25.541 52.1287 -21.7779C55.4326 -19.9804 54.0718 -10.4215 55.371 -11.8663C55.511 -12.0231 55.623 -12.7958 55.7126 -13.6862C56.6029 -12.751 57.0397 -11.1271 56.7485 -9.41915Z" fill="#FFEACA"/>
<path d="M51.6586 -0.291016C50.9418 0.996941 49.6427 2.04411 48.3099 2.81128C46.6244 3.78565 44.8829 4.31203 44.1661 4.31203H41.7694C41.0358 4.31203 39.3223 3.83044 37.6255 2.82248C36.3656 2.0777 35.1112 1.04734 34.2769 -0.291016C34.2769 -0.291016 35.6096 0.677751 37.2783 1.62412C38.8631 2.52009 40.7446 3.39366 42.083 3.39366H43.8469C45.1908 3.39366 47.0724 2.52009 48.6571 1.62412C50.3258 0.677751 51.6586 -0.291016 51.6586 -0.291016Z" fill="#DFCBAD"/>
<path d="M58.938 90.185V90.4258L58.6916 90.4594C58.6916 90.4594 58.658 90.465 58.602 90.4706C58.266 90.5154 56.9837 90.6778 55.2645 90.8346C53.2654 91.0194 50.6783 91.1986 48.276 91.1986C46.8873 91.1986 45.6833 91.137 44.6865 91.0194C44.4346 90.9858 44.205 90.9578 43.981 90.9186L43.7682 90.8794L43.7514 90.661C43.6282 89.1267 43.4826 88.9363 43.4826 88.9363H42.3794C42.3794 88.9363 42.3066 89.0427 42.2338 90.6274V90.8514L42.0042 90.8906C41.7747 90.9298 41.5339 90.9634 41.2819 90.997C40.2459 91.1258 38.986 91.193 37.5244 91.193C33.0726 91.193 28.0216 90.577 27.3272 90.4874C27.2768 90.4874 27.2488 90.4818 27.2432 90.4818L26.9912 90.4482L27.0192 89.4459C27.1536 84.2324 27.2152 82.0765 27.8536 77.4511C27.8928 77.1767 27.8816 76.8071 27.8704 76.3871C27.848 75.6255 27.82 74.6847 28.044 73.6152L28.0944 73.3856L28.3352 73.3968C28.408 73.4024 28.4752 73.4024 28.548 73.408C30.0823 73.492 31.5662 73.5816 33.0166 73.6656C36.9924 73.9064 40.7499 74.1304 44.5298 74.1304C49.0432 74.1304 53.0414 73.8056 57.1181 73.1112L57.3421 73.0664H57.3813L57.4373 73.324C57.8349 75.1831 58.1092 76.5999 58.1764 77.4679C58.2996 79.1254 58.4116 80.4638 58.5012 81.6005C58.798 85.2012 58.9268 86.8419 58.938 90.185Z" fill="#333333"/>
<path d="M58.938 90.185V90.4258L58.6916 90.4594C58.6916 90.4594 58.658 90.465 58.602 90.4706C58.266 90.5154 56.9837 90.6778 55.2645 90.8346C53.2654 91.0194 50.6783 91.1986 48.276 91.1986C46.8873 91.1986 45.6833 91.137 44.6865 91.0194C44.4346 90.9858 44.205 90.9578 43.981 90.9186L43.7682 90.8794L43.7514 90.661C43.6282 89.1267 43.4826 88.9363 43.4826 88.9363H42.3794C42.3794 88.9363 42.3066 89.0427 42.2338 90.6274V90.8514L42.0042 90.8906C41.7747 90.9298 41.5339 90.9634 41.2819 90.997C40.2459 91.1258 38.986 91.193 37.5244 91.193C33.0726 91.193 28.0216 90.577 27.3272 90.4874C27.2768 90.4874 27.2488 90.4818 27.2432 90.4818L26.9912 90.4482L27.0192 89.4459C27.1536 84.2324 27.2152 82.0765 27.8536 77.4511C27.8928 77.1767 27.8816 76.8071 27.8704 76.3871C27.848 75.6255 27.82 74.6847 28.044 73.6152L28.0944 73.3856L28.3352 73.3968C28.408 73.4024 28.4752 73.4024 28.548 73.408C30.0823 73.492 31.5662 73.5816 33.0166 73.6656C36.9924 73.9064 40.7499 74.1304 44.5298 74.1304C49.0432 74.1304 53.0414 73.8056 57.1181 73.1112L57.3421 73.0664H57.3813L57.4373 73.324C57.8349 75.1831 58.1092 76.5999 58.1764 77.4679C58.2996 79.1254 58.4116 80.4638 58.5012 81.6005C58.798 85.2012 58.9268 86.8419 58.938 90.185Z" fill="black" fill-opacity="0.2"/>
<path d="M77.5578 60.3265C77.0987 57.3978 76.3595 54.6259 75.6427 51.9492C74.7747 48.6901 73.9516 46.1646 73.582 42.8047C73.386 40.9959 71.986 35.0881 71.3813 32.5682L71.3645 32.4898C70.7821 30.0651 70.1829 28.6764 69.9253 26.2348C69.6509 23.6925 69.2086 21.6934 68.3966 19.3471C67.467 16.6704 65.9103 15.1304 64.3703 13.8649C63.4968 13.1537 58.6026 11.3001 50.9812 7.64346C50.3653 7.34667 49.8221 7.08348 49.4301 6.89309V2.44684C51.698 0.727695 53.3779 -1.66342 54.4363 -4.67052C56.1106 -5.2417 57.4658 -7.00564 57.8522 -9.22877C58.261 -11.6143 57.4714 -13.8822 55.9315 -14.9798L55.9931 -15.9037C55.9931 -15.9037 55.9986 -15.9541 55.9986 -15.9765C55.9986 -16.3013 55.9931 -16.6149 55.9707 -16.9341C55.9763 -16.9397 55.9763 -16.9453 55.9707 -16.9565C55.7971 -20.9436 54.5315 -24.2699 52.2804 -26.633C50.1189 -28.9009 47.1622 -30.1497 43.9647 -30.1497H41.9656C38.7681 -30.1497 35.817 -28.9009 33.6555 -26.633C31.2252 -24.0795 29.9372 -20.4004 29.9372 -15.9765C29.9372 -15.9541 29.9372 -15.9261 29.9372 -15.9037L29.9484 -15.6909C29.9484 -15.6405 29.954 -15.5902 29.9652 -15.5398L29.9988 -14.9798C28.4589 -13.8822 27.6693 -11.6143 28.0781 -9.22877C28.4645 -7.00564 29.8196 -5.2417 31.494 -4.67052C32.5523 -1.66342 34.2323 0.727695 36.5002 2.44684V6.89309C36.1082 7.08348 35.565 7.34667 34.949 7.64346C27.3277 11.3001 22.4335 13.1537 21.5599 13.8649C20.0144 15.1304 18.4633 16.6704 17.5337 19.3471C16.7217 21.6934 16.2793 23.6925 16.005 26.2348C15.7418 28.6764 15.1426 30.0651 14.5658 32.4898L14.5434 32.5682C13.9442 35.0881 12.5387 40.9959 12.3427 42.8047C11.9787 46.1646 11.1555 48.6901 10.2876 51.9492C9.5708 54.6259 8.83163 57.3978 8.37245 60.3265C6.8493 70.0253 6.58611 78.0219 7.62207 86.6288C7.89086 88.8463 8.37245 91.915 9.16762 93.9477C9.41401 94.5693 10.03 95.7397 10.6404 96.8764L10.842 97.2628C11.3851 98.2876 11.8611 99.1108 12.3315 99.8555C12.3819 99.9339 12.4379 100.035 12.5051 100.147C13.0091 101.003 13.6922 102.179 14.8346 102.179C14.9746 102.179 15.109 102.163 15.2434 102.123C15.8034 101.972 16.2457 101.619 16.5257 101.11C17.3545 99.6315 16.5985 97.0276 15.7978 94.2725C15.6802 93.8637 15.5458 93.399 15.417 92.9286C15.7866 93.4998 16.2401 94.0093 16.7553 94.2333C17.1249 94.3957 17.4833 94.4797 17.8193 94.4797C18.3401 94.4797 18.7937 94.2781 19.1072 93.9197C19.348 93.6453 19.6056 93.1526 19.4936 92.3574C19.4936 92.3406 19.488 92.3238 19.488 92.3014C19.4544 92.1222 18.6369 87.8495 18.4577 86.9872C17.8417 83.9857 16.9289 82.5745 16.2569 81.5498C15.725 80.721 15.4562 80.3066 15.473 79.3658C15.5458 75.138 16.2961 73.7324 17.2425 70.5293C17.6121 69.2806 18.0321 68.4294 18.4409 66.7943L18.6089 66.1167C19.2416 63.6248 19.6952 61.8216 19.936 58.9881C20.1824 56.0314 21.2072 50.5212 22.1199 48.1861C22.3607 47.5645 22.6463 46.8981 22.9431 46.187C23.3407 45.263 23.7495 44.2998 24.0799 43.4038C24.7126 41.6735 25.631 38.8736 26.4374 35.9057C26.6278 35.2001 26.8405 34.9985 27.0365 34.2818C27.5797 37.6864 28.4645 48.0909 28.5877 50.6556C28.7333 53.6011 28.7333 54.7211 28.7389 56.8378C28.7389 57.8682 28.7389 59.0329 28.7557 60.4889C28.7949 63.5856 28.0501 68.5358 27.5069 72.5565C27.2325 74.6172 26.9917 76.3979 26.9133 77.4059C26.0174 89.1767 25.9166 97.0892 26.5774 103.865C26.8517 106.732 28.1901 129.339 27.9101 131.114C27.6581 132.726 27.4733 134.916 27.3501 137.794C27.0645 144.469 27.8541 149.285 28.6885 155.574C28.8565 156.85 29.0301 158.144 29.1981 159.466C29.3717 160.871 29.5732 162.349 29.786 163.85C29.9652 167.512 29.9428 173.314 29.1197 174.96C28.7053 175.783 28.3413 176.674 27.9885 177.531C27.2661 179.289 26.5214 181.109 25.4294 182.15C24.5558 182.979 24.1527 183.858 24.231 184.754C24.3374 185.936 25.267 186.574 25.3734 186.641C25.4518 186.697 25.5414 186.742 25.6366 186.77C25.9838 186.888 26.6782 187 29.1589 187C32.3283 187 36.5618 186.798 37.9673 186.697C38.0905 186.731 38.2361 186.753 38.4041 186.753C38.9865 186.753 40.0169 186.457 40.4424 184.463C40.6272 183.595 40.2296 182.632 39.7649 181.512C39.4345 180.722 39.0593 179.821 38.9249 178.986C38.1521 174.255 38.3817 172.619 39.2329 164.466C39.4793 162.109 39.7873 159.18 40.1344 155.574C40.5712 151.021 40.644 147.616 40.6216 142.224C40.5992 135.734 40.1904 132.088 39.9721 130.128C39.8937 129.445 39.8377 128.947 39.8377 128.65C39.8321 128.375 39.8153 127.927 39.7873 127.306C39.6809 125.01 40.0281 120.222 40.4872 117.316C41.1816 112.914 41.82 100.32 42.0944 96.7644C42.184 95.5997 42.352 92.2286 42.5312 88.9359C42.6152 87.3904 42.6992 85.8616 42.7719 84.5849H41.6352C41.6352 84.5849 41.4952 87.2168 41.2768 90.9966C40.7952 99.4579 39.9273 113.681 39.3841 117.142C38.7905 120.9 38.7009 127.356 38.7177 128.661C38.7289 129.96 39.4681 133.404 39.5017 142.224C39.5241 147.028 39.4737 150.696 39.0201 155.467C37.5025 171.332 36.7858 172.855 37.8217 179.171C38.1521 181.198 39.5633 183.226 39.3505 184.228C39.0985 185.415 38.6841 185.639 38.4041 185.639C38.2529 185.639 38.1409 185.572 38.1185 185.561C37.8665 185.583 37.2618 185.622 36.4386 185.667C36.097 185.684 35.7218 185.701 35.3186 185.723C34.6243 185.751 33.8571 185.785 33.0507 185.813C32.7595 185.818 32.4683 185.824 32.1715 185.835C31.5388 185.852 30.9004 185.863 30.2788 185.869C30.0324 185.874 29.786 185.88 29.5452 185.874C29.4165 185.88 29.2877 185.88 29.1589 185.88C28.7221 185.88 28.3077 185.874 27.9325 185.863C27.6581 185.863 27.4061 185.852 27.1821 185.841C26.6054 185.818 26.1854 185.773 25.9838 185.706C25.9838 185.706 24.4046 184.67 26.2022 182.957C27.8821 181.361 28.7109 178.522 29.8084 176.108C29.9092 175.884 30.01 175.671 30.1164 175.464C30.3628 174.971 30.5476 174.227 30.6764 173.347C31.214 169.702 30.9004 163.744 30.9004 163.744C30.6932 162.271 30.4916 160.798 30.3068 159.326C29.3269 151.508 28.1285 145.757 28.4701 137.845C28.5541 135.834 28.7109 133.264 29.0189 131.287C29.4277 128.661 28.1789 108.759 27.6917 103.759C27.3389 100.147 27.1821 96.0029 27.3221 90.4871C27.4173 86.8416 27.6469 82.5913 28.0333 77.4899C28.1005 76.6051 28.2965 75.1436 28.5429 73.4076C29.1085 69.359 29.9148 63.804 29.8756 60.4777C29.8252 56.0482 29.926 55.0235 29.7076 50.5996C29.6068 48.4717 28.4477 33.9962 27.8429 32.8202C27.7813 32.7026 27.7253 32.5794 27.6693 32.4506C27.4397 31.9354 27.2269 31.3195 27.0421 30.7035C27.0365 30.6811 27.0253 30.6699 27.0197 30.6699C26.9805 30.6699 26.9133 30.7987 26.8182 31.0339C26.1294 32.7418 24.1135 40.044 23.0271 43.0175C22.4615 44.5574 21.6439 46.3102 21.0784 47.7773C20.0648 50.37 19.0512 56.1266 18.8161 58.8929C18.5697 61.8776 18.0769 63.6528 17.3545 66.5199C15.9098 72.2765 14.4594 73.2676 14.353 79.349C14.3026 82.0817 16.2793 81.9473 17.3657 87.2112C17.5393 88.0791 18.3849 92.5142 18.3849 92.5142C18.4745 93.119 18.2057 93.3598 17.8193 93.3598C17.6345 93.3598 17.4161 93.3038 17.2033 93.2086C16.4753 92.895 15.6298 91.019 15.3946 90.2687C15.1986 89.6191 15.1986 89.3111 14.6554 89.3111C14.5938 89.3111 14.521 89.3167 14.4426 89.3279C11.9115 89.5911 17.8641 100.231 14.941 101.048C14.9074 101.059 14.8682 101.059 14.8346 101.059C14.2298 101.059 13.6026 99.7659 13.2779 99.2564C12.7627 98.4444 12.2867 97.5988 11.8331 96.7364C11.4691 96.0533 10.4948 94.2669 10.2092 93.5389C9.4644 91.6294 8.99402 88.6671 8.73643 86.4944C7.65567 77.5011 8.07566 69.415 9.4756 60.5001C10.4668 54.1835 12.7739 49.2445 13.4571 42.9279C13.6474 41.1919 15.0418 35.3177 15.6354 32.8258C16.2234 30.3675 16.8449 28.8947 17.1193 26.3524C17.3769 23.9445 17.7969 22.007 18.5921 19.7167C19.3592 17.4935 20.6024 16.0992 22.2711 14.7328C23.4807 13.7417 36.601 8.11385 37.6201 7.59307V1.87566C37.5025 1.79166 37.385 1.70766 37.273 1.62366C34.8986 -0.134676 33.3083 -2.60419 32.3619 -5.61129C30.8836 -5.79608 29.5452 -7.33043 29.1813 -9.41916C28.8845 -11.1327 29.3325 -12.7566 30.234 -13.6974C30.5028 -13.983 30.8164 -14.207 31.1636 -14.347L31.0516 -15.9765C31.0516 -17.6229 31.2364 -19.1012 31.5668 -20.4228C31.6228 -20.6468 31.6844 -20.854 31.746 -21.0612C33.3811 -26.493 37.6705 -29.0297 41.96 -29.0297H43.9591C49.4245 -29.0297 54.8731 -24.925 54.8731 -15.9765L54.7611 -14.347C55.1139 -14.2014 55.4275 -13.9774 55.7075 -13.6862C56.5978 -12.751 57.0346 -11.1271 56.7434 -9.41916C56.3794 -7.33043 55.0411 -5.79608 53.5627 -5.61129C52.6108 -2.60419 51.0204 -0.134676 48.6517 1.62366C48.5397 1.70766 48.4221 1.79166 48.3045 1.87566V7.59307C49.3181 8.11385 62.444 13.7417 63.6536 14.7328C65.3223 16.0992 66.5599 17.4935 67.3326 19.7167C68.1278 22.007 68.5478 23.9445 68.8054 26.3524C69.0742 28.8947 69.7013 30.3675 70.2893 32.8258C70.8829 35.3177 72.2772 41.1919 72.4676 42.9279C73.1508 49.2445 75.4523 54.1835 76.4491 60.5001C77.849 69.415 78.269 77.5011 77.1883 86.4944C76.9307 88.6671 76.4603 91.6294 75.7099 93.5389C75.4299 94.2669 74.4556 96.0533 74.0916 96.7364C73.638 97.5988 73.162 98.4444 72.6468 99.2564C72.322 99.7659 71.6893 101.059 71.0901 101.059C71.0509 101.059 71.0173 101.059 70.9781 101.048C68.0606 100.231 74.0132 89.5911 71.4821 89.3279C71.3981 89.3167 71.3309 89.3111 71.2637 89.3111C70.7261 89.3111 70.7261 89.6191 70.5245 90.2687C70.2949 91.019 69.4437 92.895 68.7214 93.2086C68.503 93.3038 68.2902 93.3598 68.1054 93.3598C67.719 93.3598 67.4502 93.119 67.5342 92.5142C67.5342 92.5142 68.3798 88.0791 68.559 87.2112C69.6453 81.9473 71.6165 82.0817 71.5717 79.349C71.4597 73.2676 70.0149 72.2765 68.5702 66.5199C67.8478 63.6528 67.355 61.8776 67.103 58.8929C66.8734 56.1266 65.8599 50.37 64.8463 47.7773C64.2751 46.3102 63.4576 44.5574 62.8976 43.0175C61.8336 40.1112 59.7785 33.4922 58.9497 31.8458C58.8265 31.6051 58.7313 31.4707 58.6698 31.4707C58.6474 31.4707 58.6306 31.4875 58.6194 31.5267C58.4514 32.0026 58.2722 32.4506 58.0818 32.8202C58.0762 32.8314 58.0706 32.8426 58.065 32.8594C57.4546 34.2818 56.3178 48.4941 56.217 50.5996C55.9986 55.0235 56.0994 56.0482 56.049 60.4777C56.0098 63.7144 56.7714 69.0566 57.337 73.066C57.6002 74.9532 57.8186 76.5491 57.8914 77.4899C58.2778 82.5801 58.5074 86.8248 58.597 90.4703C58.7425 95.9973 58.5858 100.141 58.233 103.759C57.7458 108.759 56.497 128.661 56.9058 131.287C57.2138 133.264 57.365 135.834 57.4546 137.845C57.7962 145.757 56.5978 151.508 55.6179 159.326C55.4331 160.798 55.2315 162.271 55.0243 163.744C55.0243 163.744 54.6995 169.814 55.2651 173.448C55.3883 174.288 55.5675 174.988 55.8027 175.464C56.1106 176.08 56.3962 176.735 56.6706 177.402C56.6818 177.419 56.6874 177.441 56.693 177.458C57.5442 179.518 58.3506 181.652 59.7225 182.957C61.52 184.67 59.9353 185.706 59.9353 185.706C59.7169 185.779 59.2353 185.824 58.5858 185.852C58.3562 185.857 58.1098 185.869 57.841 185.869C57.505 185.88 57.1466 185.88 56.7658 185.88C56.5922 185.88 56.413 185.88 56.2282 185.874C55.9875 185.874 55.7411 185.874 55.4947 185.869C54.8675 185.863 54.2291 185.846 53.5963 185.829C53.2995 185.829 53.0084 185.813 52.7228 185.807C51.9164 185.779 51.1436 185.745 50.4549 185.717C50.0461 185.695 49.6653 185.678 49.3293 185.656C48.5845 185.617 48.0358 185.583 47.8062 185.561C47.7838 185.572 47.6718 185.639 47.5206 185.639C47.2406 185.639 46.8262 185.415 46.5742 184.228C46.3614 183.226 47.7726 181.198 48.1029 179.171C49.1389 172.855 48.4221 171.332 46.9046 155.467C46.4454 150.696 46.4006 147.028 46.4174 142.224C46.4566 133.404 47.1958 129.96 47.207 128.661C47.2182 127.356 47.1342 120.9 46.5406 117.142C45.9974 113.687 45.1519 99.4803 44.6815 91.019C44.4687 87.2224 44.3343 84.5849 44.3343 84.5849H43.1583C43.2367 85.856 43.3263 87.3904 43.4103 88.9359C43.5951 92.195 43.7743 95.5325 43.8639 96.6916C44.1383 100.248 44.7431 112.914 45.4374 117.316C45.891 120.222 46.2382 125.01 46.1374 127.306C46.1094 127.927 46.087 128.375 46.087 128.65C46.0814 128.947 46.031 129.445 45.9526 130.128C45.7342 132.088 45.3255 135.734 45.2975 142.224C45.2807 147.616 45.3535 151.021 45.7902 155.574C46.1318 159.18 46.4398 162.109 46.6862 164.466C47.543 172.619 47.7726 174.255 46.9998 178.986C46.8598 179.821 46.4902 180.722 46.1598 181.512C45.695 182.632 45.2919 183.595 45.4766 184.463C45.9022 186.457 46.9382 186.753 47.5206 186.753C47.6886 186.753 47.8342 186.731 47.9574 186.697C49.3629 186.798 53.5963 187 56.7658 187C59.2465 187 59.9353 186.888 60.2825 186.77C60.3777 186.742 60.4673 186.697 60.5513 186.641C60.6577 186.574 61.5816 185.936 61.688 184.754C61.772 183.858 61.3688 182.979 60.4953 182.15C59.4033 181.109 58.6586 179.289 57.9306 177.531C57.5834 176.674 57.2194 175.783 56.805 174.96C55.9818 173.314 55.9594 167.512 56.1386 163.85C56.3514 162.349 56.553 160.871 56.7266 159.466C56.8946 158.144 57.0682 156.85 57.2362 155.574C58.0706 149.285 58.8601 144.469 58.5746 137.794C58.4458 134.916 58.2666 132.726 58.0146 131.114C57.7346 129.339 59.0673 106.732 59.3473 103.865C60.0081 97.0892 59.9017 89.1767 59.0057 77.4059C58.9329 76.3979 58.6922 74.6172 58.4122 72.5565C57.8746 68.5358 57.1298 63.5856 57.169 60.4889C57.1858 59.0329 57.1858 57.8682 57.1858 56.8378C57.1858 54.7211 57.1858 53.6011 57.3314 50.6556C57.4546 48.2197 58.2554 38.7168 58.8041 34.8473C59.1849 36.0457 59.6105 36.8857 59.9745 38.0784C60.6521 40.3072 61.3521 42.0543 61.8448 43.3983C62.1752 44.2998 62.584 45.263 62.976 46.187C63.2784 46.8981 63.564 47.5645 63.8048 48.1861C64.7175 50.5212 65.7423 56.0314 65.9887 58.9881C66.2239 61.8216 66.683 63.6248 67.3102 66.1167L67.4838 66.7943C67.8926 68.4294 68.3126 69.2806 68.6822 70.5293C69.6285 73.7324 70.3733 75.138 70.4517 79.3658C70.4685 80.3066 70.1997 80.721 69.6621 81.5498C68.9958 82.5745 68.083 83.9857 67.4614 86.9872C67.2822 87.8495 66.4703 92.1222 66.4367 92.3014C66.4311 92.3238 66.4311 92.3406 66.4255 92.3574C66.3191 93.1526 66.5767 93.6453 66.8174 93.9197C67.131 94.2781 67.5846 94.4797 68.1054 94.4797C68.4414 94.4797 68.7998 94.3957 69.1694 94.2333C69.6845 94.0093 70.1381 93.4998 70.5077 92.9286C70.3789 93.399 70.2389 93.8637 70.1213 94.2725C69.3261 97.0276 68.5702 99.6315 69.3933 101.11C69.6789 101.619 70.1213 101.972 70.6813 102.123C70.8101 102.163 70.9501 102.179 71.0901 102.179C72.2268 102.179 72.9156 101.003 73.4196 100.147C73.4812 100.035 73.5428 99.9339 73.5932 99.8555C74.0636 99.1108 74.534 98.2876 75.0827 97.2628L75.2843 96.8764C75.8947 95.7397 76.5107 94.5693 76.7571 93.9477C77.5522 91.915 78.0338 88.8463 78.3026 86.6288C79.333 78.0219 79.0754 70.0253 77.5522 60.3265H77.5578ZM42.9679 81.8521C42.9175 82.3953 42.8503 83.3753 42.7775 84.5849H43.1639C43.0855 83.3753 43.0183 82.4009 42.9679 81.8521ZM31.5892 -21.106C31.5892 -20.9044 31.578 -20.6748 31.5724 -20.4284C31.6284 -20.6468 31.69 -20.854 31.7516 -21.0612C31.6956 -21.0724 31.6452 -21.0892 31.5892 -21.106Z" fill="#333333"/>
<path d="M77.5578 60.3265C77.0987 57.3978 76.3595 54.6259 75.6427 51.9492C74.7747 48.6901 73.9516 46.1646 73.582 42.8047C73.386 40.9959 71.986 35.0881 71.3813 32.5682L71.3645 32.4898C70.7821 30.0651 70.1829 28.6764 69.9253 26.2348C69.6509 23.6925 69.2086 21.6934 68.3966 19.3471C67.467 16.6704 65.9103 15.1304 64.3703 13.8649C63.4968 13.1537 58.6026 11.3001 50.9812 7.64346C50.3653 7.34667 49.8221 7.08348 49.4301 6.89309V2.44684C51.698 0.727695 53.3779 -1.66342 54.4363 -4.67052C56.1106 -5.2417 57.4658 -7.00564 57.8522 -9.22877C58.261 -11.6143 57.4714 -13.8822 55.9315 -14.9798L55.9931 -15.9037C55.9931 -15.9037 55.9986 -15.9541 55.9986 -15.9765C55.9986 -16.3013 55.9931 -16.6149 55.9707 -16.9341C55.9763 -16.9397 55.9763 -16.9453 55.9707 -16.9565C55.7971 -20.9436 54.5315 -24.2699 52.2804 -26.633C50.1189 -28.9009 47.1622 -30.1497 43.9647 -30.1497H41.9656C38.7681 -30.1497 35.817 -28.9009 33.6555 -26.633C31.2252 -24.0795 29.9372 -20.4004 29.9372 -15.9765C29.9372 -15.9541 29.9372 -15.9261 29.9372 -15.9037L29.9484 -15.6909C29.9484 -15.6405 29.954 -15.5902 29.9652 -15.5398L29.9988 -14.9798C28.4589 -13.8822 27.6693 -11.6143 28.0781 -9.22877C28.4645 -7.00564 29.8196 -5.2417 31.494 -4.67052C32.5523 -1.66342 34.2323 0.727695 36.5002 2.44684V6.89309C36.1082 7.08348 35.565 7.34667 34.949 7.64346C27.3277 11.3001 22.4335 13.1537 21.5599 13.8649C20.0144 15.1304 18.4633 16.6704 17.5337 19.3471C16.7217 21.6934 16.2793 23.6925 16.005 26.2348C15.7418 28.6764 15.1426 30.0651 14.5658 32.4898L14.5434 32.5682C13.9442 35.0881 12.5387 40.9959 12.3427 42.8047C11.9787 46.1646 11.1555 48.6901 10.2876 51.9492C9.5708 54.6259 8.83163 57.3978 8.37245 60.3265C6.8493 70.0253 6.58611 78.0219 7.62207 86.6288C7.89086 88.8463 8.37245 91.915 9.16762 93.9477C9.41401 94.5693 10.03 95.7397 10.6404 96.8764L10.842 97.2628C11.3851 98.2876 11.8611 99.1108 12.3315 99.8555C12.3819 99.9339 12.4379 100.035 12.5051 100.147C13.0091 101.003 13.6922 102.179 14.8346 102.179C14.9746 102.179 15.109 102.163 15.2434 102.123C15.8034 101.972 16.2457 101.619 16.5257 101.11C17.3545 99.6315 16.5985 97.0276 15.7978 94.2725C15.6802 93.8637 15.5458 93.399 15.417 92.9286C15.7866 93.4998 16.2401 94.0093 16.7553 94.2333C17.1249 94.3957 17.4833 94.4797 17.8193 94.4797C18.3401 94.4797 18.7937 94.2781 19.1072 93.9197C19.348 93.6453 19.6056 93.1526 19.4936 92.3574C19.4936 92.3406 19.488 92.3238 19.488 92.3014C19.4544 92.1222 18.6369 87.8495 18.4577 86.9872C17.8417 83.9857 16.9289 82.5745 16.2569 81.5498C15.725 80.721 15.4562 80.3066 15.473 79.3658C15.5458 75.138 16.2961 73.7324 17.2425 70.5293C17.6121 69.2806 18.0321 68.4294 18.4409 66.7943L18.6089 66.1167C19.2416 63.6248 19.6952 61.8216 19.936 58.9881C20.1824 56.0314 21.2072 50.5212 22.1199 48.1861C22.3607 47.5645 22.6463 46.8981 22.9431 46.187C23.3407 45.263 23.7495 44.2998 24.0799 43.4038C24.7126 41.6735 25.631 38.8736 26.4374 35.9057C26.6278 35.2001 26.8405 34.9985 27.0365 34.2818C27.5797 37.6864 28.4645 48.0909 28.5877 50.6556C28.7333 53.6011 28.7333 54.7211 28.7389 56.8378C28.7389 57.8682 28.7389 59.0329 28.7557 60.4889C28.7949 63.5856 28.0501 68.5358 27.5069 72.5565C27.2325 74.6172 26.9917 76.3979 26.9133 77.4059C26.0174 89.1767 25.9166 97.0892 26.5774 103.865C26.8517 106.732 28.1901 129.339 27.9101 131.114C27.6581 132.726 27.4733 134.916 27.3501 137.794C27.0645 144.469 27.8541 149.285 28.6885 155.574C28.8565 156.85 29.0301 158.144 29.1981 159.466C29.3717 160.871 29.5732 162.349 29.786 163.85C29.9652 167.512 29.9428 173.314 29.1197 174.96C28.7053 175.783 28.3413 176.674 27.9885 177.531C27.2661 179.289 26.5214 181.109 25.4294 182.15C24.5558 182.979 24.1527 183.858 24.231 184.754C24.3374 185.936 25.267 186.574 25.3734 186.641C25.4518 186.697 25.5414 186.742 25.6366 186.77C25.9838 186.888 26.6782 187 29.1589 187C32.3283 187 36.5618 186.798 37.9673 186.697C38.0905 186.731 38.2361 186.753 38.4041 186.753C38.9865 186.753 40.0169 186.457 40.4424 184.463C40.6272 183.595 40.2296 182.632 39.7649 181.512C39.4345 180.722 39.0593 179.821 38.9249 178.986C38.1521 174.255 38.3817 172.619 39.2329 164.466C39.4793 162.109 39.7873 159.18 40.1344 155.574C40.5712 151.021 40.644 147.616 40.6216 142.224C40.5992 135.734 40.1904 132.088 39.9721 130.128C39.8937 129.445 39.8377 128.947 39.8377 128.65C39.8321 128.375 39.8153 127.927 39.7873 127.306C39.6809 125.01 40.0281 120.222 40.4872 117.316C41.1816 112.914 41.82 100.32 42.0944 96.7644C42.184 95.5997 42.352 92.2286 42.5312 88.9359C42.6152 87.3904 42.6992 85.8616 42.7719 84.5849H41.6352C41.6352 84.5849 41.4952 87.2168 41.2768 90.9966C40.7952 99.4579 39.9273 113.681 39.3841 117.142C38.7905 120.9 38.7009 127.356 38.7177 128.661C38.7289 129.96 39.4681 133.404 39.5017 142.224C39.5241 147.028 39.4737 150.696 39.0201 155.467C37.5025 171.332 36.7858 172.855 37.8217 179.171C38.1521 181.198 39.5633 183.226 39.3505 184.228C39.0985 185.415 38.6841 185.639 38.4041 185.639C38.2529 185.639 38.1409 185.572 38.1185 185.561C37.8665 185.583 37.2618 185.622 36.4386 185.667C36.097 185.684 35.7218 185.701 35.3186 185.723C34.6243 185.751 33.8571 185.785 33.0507 185.813C32.7595 185.818 32.4683 185.824 32.1715 185.835C31.5388 185.852 30.9004 185.863 30.2788 185.869C30.0324 185.874 29.786 185.88 29.5452 185.874C29.4165 185.88 29.2877 185.88 29.1589 185.88C28.7221 185.88 28.3077 185.874 27.9325 185.863C27.6581 185.863 27.4061 185.852 27.1821 185.841C26.6054 185.818 26.1854 185.773 25.9838 185.706C25.9838 185.706 24.4046 184.67 26.2022 182.957C27.8821 181.361 28.7109 178.522 29.8084 176.108C29.9092 175.884 30.01 175.671 30.1164 175.464C30.3628 174.971 30.5476 174.227 30.6764 173.347C31.214 169.702 30.9004 163.744 30.9004 163.744C30.6932 162.271 30.4916 160.798 30.3068 159.326C29.3269 151.508 28.1285 145.757 28.4701 137.845C28.5541 135.834 28.7109 133.264 29.0189 131.287C29.4277 128.661 28.1789 108.759 27.6917 103.759C27.3389 100.147 27.1821 96.0029 27.3221 90.4871C27.4173 86.8416 27.6469 82.5913 28.0333 77.4899C28.1005 76.6051 28.2965 75.1436 28.5429 73.4076C29.1085 69.359 29.9148 63.804 29.8756 60.4777C29.8252 56.0482 29.926 55.0235 29.7076 50.5996C29.6068 48.4717 28.4477 33.9962 27.8429 32.8202C27.7813 32.7026 27.7253 32.5794 27.6693 32.4506C27.4397 31.9354 27.2269 31.3195 27.0421 30.7035C27.0365 30.6811 27.0253 30.6699 27.0197 30.6699C26.9805 30.6699 26.9133 30.7987 26.8182 31.0339C26.1294 32.7418 24.1135 40.044 23.0271 43.0175C22.4615 44.5574 21.6439 46.3102 21.0784 47.7773C20.0648 50.37 19.0512 56.1266 18.8161 58.8929C18.5697 61.8776 18.0769 63.6528 17.3545 66.5199C15.9098 72.2765 14.4594 73.2676 14.353 79.349C14.3026 82.0817 16.2793 81.9473 17.3657 87.2112C17.5393 88.0791 18.3849 92.5142 18.3849 92.5142C18.4745 93.119 18.2057 93.3598 17.8193 93.3598C17.6345 93.3598 17.4161 93.3038 17.2033 93.2086C16.4753 92.895 15.6298 91.019 15.3946 90.2687C15.1986 89.6191 15.1986 89.3111 14.6554 89.3111C14.5938 89.3111 14.521 89.3167 14.4426 89.3279C11.9115 89.5911 17.8641 100.231 14.941 101.048C14.9074 101.059 14.8682 101.059 14.8346 101.059C14.2298 101.059 13.6026 99.7659 13.2779 99.2564C12.7627 98.4444 12.2867 97.5988 11.8331 96.7364C11.4691 96.0533 10.4948 94.2669 10.2092 93.5389C9.4644 91.6294 8.99402 88.6671 8.73643 86.4944C7.65567 77.5011 8.07566 69.415 9.4756 60.5001C10.4668 54.1835 12.7739 49.2445 13.4571 42.9279C13.6474 41.1919 15.0418 35.3177 15.6354 32.8258C16.2234 30.3675 16.8449 28.8947 17.1193 26.3524C17.3769 23.9445 17.7969 22.007 18.5921 19.7167C19.3592 17.4935 20.6024 16.0992 22.2711 14.7328C23.4807 13.7417 36.601 8.11385 37.6201 7.59307V1.87566C37.5025 1.79166 37.385 1.70766 37.273 1.62366C34.8986 -0.134676 33.3083 -2.60419 32.3619 -5.61129C30.8836 -5.79608 29.5452 -7.33043 29.1813 -9.41916C28.8845 -11.1327 29.3325 -12.7566 30.234 -13.6974C30.5028 -13.983 30.8164 -14.207 31.1636 -14.347L31.0516 -15.9765C31.0516 -17.6229 31.2364 -19.1012 31.5668 -20.4228C31.6228 -20.6468 31.6844 -20.854 31.746 -21.0612C33.3811 -26.493 37.6705 -29.0297 41.96 -29.0297H43.9591C49.4245 -29.0297 54.8731 -24.925 54.8731 -15.9765L54.7611 -14.347C55.1139 -14.2014 55.4275 -13.9774 55.7075 -13.6862C56.5978 -12.751 57.0346 -11.1271 56.7434 -9.41916C56.3794 -7.33043 55.0411 -5.79608 53.5627 -5.61129C52.6108 -2.60419 51.0204 -0.134676 48.6517 1.62366C48.5397 1.70766 48.4221 1.79166 48.3045 1.87566V7.59307C49.3181 8.11385 62.444 13.7417 63.6536 14.7328C65.3223 16.0992 66.5599 17.4935 67.3326 19.7167C68.1278 22.007 68.5478 23.9445 68.8054 26.3524C69.0742 28.8947 69.7013 30.3675 70.2893 32.8258C70.8829 35.3177 72.2772 41.1919 72.4676 42.9279C73.1508 49.2445 75.4523 54.1835 76.4491 60.5001C77.849 69.415 78.269 77.5011 77.1883 86.4944C76.9307 88.6671 76.4603 91.6294 75.7099 93.5389C75.4299 94.2669 74.4556 96.0533 74.0916 96.7364C73.638 97.5988 73.162 98.4444 72.6468 99.2564C72.322 99.7659 71.6893 101.059 71.0901 101.059C71.0509 101.059 71.0173 101.059 70.9781 101.048C68.0606 100.231 74.0132 89.5911 71.4821 89.3279C71.3981 89.3167 71.3309 89.3111 71.2637 89.3111C70.7261 89.3111 70.7261 89.6191 70.5245 90.2687C70.2949 91.019 69.4437 92.895 68.7214 93.2086C68.503 93.3038 68.2902 93.3598 68.1054 93.3598C67.719 93.3598 67.4502 93.119 67.5342 92.5142C67.5342 92.5142 68.3798 88.0791 68.559 87.2112C69.6453 81.9473 71.6165 82.0817 71.5717 79.349C71.4597 73.2676 70.0149 72.2765 68.5702 66.5199C67.8478 63.6528 67.355 61.8776 67.103 58.8929C66.8734 56.1266 65.8599 50.37 64.8463 47.7773C64.2751 46.3102 63.4576 44.5574 62.8976 43.0175C61.8336 40.1112 59.7785 33.4922 58.9497 31.8458C58.8265 31.6051 58.7313 31.4707 58.6698 31.4707C58.6474 31.4707 58.6306 31.4875 58.6194 31.5267C58.4514 32.0026 58.2722 32.4506 58.0818 32.8202C58.0762 32.8314 58.0706 32.8426 58.065 32.8594C57.4546 34.2818 56.3178 48.4941 56.217 50.5996C55.9986 55.0235 56.0994 56.0482 56.049 60.4777C56.0098 63.7144 56.7714 69.0566 57.337 73.066C57.6002 74.9532 57.8186 76.5491 57.8914 77.4899C58.2778 82.5801 58.5074 86.8248 58.597 90.4703C58.7425 95.9973 58.5858 100.141 58.233 103.759C57.7458 108.759 56.497 128.661 56.9058 131.287C57.2138 133.264 57.365 135.834 57.4546 137.845C57.7962 145.757 56.5978 151.508 55.6179 159.326C55.4331 160.798 55.2315 162.271 55.0243 163.744C55.0243 163.744 54.6995 169.814 55.2651 173.448C55.3883 174.288 55.5675 174.988 55.8027 175.464C56.1106 176.08 56.3962 176.735 56.6706 177.402C56.6818 177.419 56.6874 177.441 56.693 177.458C57.5442 179.518 58.3506 181.652 59.7225 182.957C61.52 184.67 59.9353 185.706 59.9353 185.706C59.7169 185.779 59.2353 185.824 58.5858 185.852C58.3562 185.857 58.1098 185.869 57.841 185.869C57.505 185.88 57.1466 185.88 56.7658 185.88C56.5922 185.88 56.413 185.88 56.2282 185.874C55.9875 185.874 55.7411 185.874 55.4947 185.869C54.8675 185.863 54.2291 185.846 53.5963 185.829C53.2995 185.829 53.0084 185.813 52.7228 185.807C51.9164 185.779 51.1436 185.745 50.4549 185.717C50.0461 185.695 49.6653 185.678 49.3293 185.656C48.5845 185.617 48.0358 185.583 47.8062 185.561C47.7838 185.572 47.6718 185.639 47.5206 185.639C47.2406 185.639 46.8262 185.415 46.5742 184.228C46.3614 183.226 47.7726 181.198 48.1029 179.171C49.1389 172.855 48.4221 171.332 46.9046 155.467C46.4454 150.696 46.4006 147.028 46.4174 142.224C46.4566 133.404 47.1958 129.96 47.207 128.661C47.2182 127.356 47.1342 120.9 46.5406 117.142C45.9974 113.687 45.1519 99.4803 44.6815 91.019C44.4687 87.2224 44.3343 84.5849 44.3343 84.5849H43.1583C43.2367 85.856 43.3263 87.3904 43.4103 88.9359C43.5951 92.195 43.7743 95.5325 43.8639 96.6916C44.1383 100.248 44.7431 112.914 45.4374 117.316C45.891 120.222 46.2382 125.01 46.1374 127.306C46.1094 127.927 46.087 128.375 46.087 128.65C46.0814 128.947 46.031 129.445 45.9526 130.128C45.7342 132.088 45.3255 135.734 45.2975 142.224C45.2807 147.616 45.3535 151.021 45.7902 155.574C46.1318 159.18 46.4398 162.109 46.6862 164.466C47.543 172.619 47.7726 174.255 46.9998 178.986C46.8598 179.821 46.4902 180.722 46.1598 181.512C45.695 182.632 45.2919 183.595 45.4766 184.463C45.9022 186.457 46.9382 186.753 47.5206 186.753C47.6886 186.753 47.8342 186.731 47.9574 186.697C49.3629 186.798 53.5963 187 56.7658 187C59.2465 187 59.9353 186.888 60.2825 186.77C60.3777 186.742 60.4673 186.697 60.5513 186.641C60.6577 186.574 61.5816 185.936 61.688 184.754C61.772 183.858 61.3688 182.979 60.4953 182.15C59.4033 181.109 58.6586 179.289 57.9306 177.531C57.5834 176.674 57.2194 175.783 56.805 174.96C55.9818 173.314 55.9594 167.512 56.1386 163.85C56.3514 162.349 56.553 160.871 56.7266 159.466C56.8946 158.144 57.0682 156.85 57.2362 155.574C58.0706 149.285 58.8601 144.469 58.5746 137.794C58.4458 134.916 58.2666 132.726 58.0146 131.114C57.7346 129.339 59.0673 106.732 59.3473 103.865C60.0081 97.0892 59.9017 89.1767 59.0057 77.4059C58.9329 76.3979 58.6922 74.6172 58.4122 72.5565C57.8746 68.5358 57.1298 63.5856 57.169 60.4889C57.1858 59.0329 57.1858 57.8682 57.1858 56.8378C57.1858 54.7211 57.1858 53.6011 57.3314 50.6556C57.4546 48.2197 58.2554 38.7168 58.8041 34.8473C59.1849 36.0457 59.6105 36.8857 59.9745 38.0784C60.6521 40.3072 61.3521 42.0543 61.8448 43.3983C62.1752 44.2998 62.584 45.263 62.976 46.187C63.2784 46.8981 63.564 47.5645 63.8048 48.1861C64.7175 50.5212 65.7423 56.0314 65.9887 58.9881C66.2239 61.8216 66.683 63.6248 67.3102 66.1167L67.4838 66.7943C67.8926 68.4294 68.3126 69.2806 68.6822 70.5293C69.6285 73.7324 70.3733 75.138 70.4517 79.3658C70.4685 80.3066 70.1997 80.721 69.6621 81.5498C68.9958 82.5745 68.083 83.9857 67.4614 86.9872C67.2822 87.8495 66.4703 92.1222 66.4367 92.3014C66.4311 92.3238 66.4311 92.3406 66.4255 92.3574C66.3191 93.1526 66.5767 93.6453 66.8174 93.9197C67.131 94.2781 67.5846 94.4797 68.1054 94.4797C68.4414 94.4797 68.7998 94.3957 69.1694 94.2333C69.6845 94.0093 70.1381 93.4998 70.5077 92.9286C70.3789 93.399 70.2389 93.8637 70.1213 94.2725C69.3261 97.0276 68.5702 99.6315 69.3933 101.11C69.6789 101.619 70.1213 101.972 70.6813 102.123C70.8101 102.163 70.9501 102.179 71.0901 102.179C72.2268 102.179 72.9156 101.003 73.4196 100.147C73.4812 100.035 73.5428 99.9339 73.5932 99.8555C74.0636 99.1108 74.534 98.2876 75.0827 97.2628L75.2843 96.8764C75.8947 95.7397 76.5107 94.5693 76.7571 93.9477C77.5522 91.915 78.0338 88.8463 78.3026 86.6288C79.333 78.0219 79.0754 70.0253 77.5522 60.3265H77.5578ZM42.9679 81.8521C42.9175 82.3953 42.8503 83.3753 42.7775 84.5849H43.1639C43.0855 83.3753 43.0183 82.4009 42.9679 81.8521ZM31.5892 -21.106C31.5892 -20.9044 31.578 -20.6748 31.5724 -20.4284C31.6284 -20.6468 31.69 -20.854 31.7516 -21.0612C31.6956 -21.0724 31.6452 -21.0892 31.5892 -21.106Z" fill="black" fill-opacity="0.2"/>
<path d="M76.4547 60.5C75.4579 54.1835 73.1564 49.2444 72.4732 42.9278C72.2828 41.1919 70.8885 35.3177 70.2949 32.8258C69.7069 30.3675 69.0797 28.8947 68.811 26.3524C68.5534 23.9445 68.1334 22.0069 67.3382 19.7166C66.5654 17.4935 65.3279 16.0991 63.6591 14.7328C62.4496 13.7416 49.3237 8.11381 48.3101 7.59303V2.81079C46.6246 3.78516 44.883 4.31154 44.1663 4.31154H41.7696C41.036 4.31154 39.3225 3.82995 37.6257 2.82199V7.59303C36.6066 8.11381 23.4863 13.7416 22.2767 14.7328C20.608 16.0991 19.3648 17.4935 18.5976 19.7166C17.8025 22.0069 17.3825 23.9445 17.1249 26.3524C16.8505 28.8947 16.2289 30.3675 15.6409 32.8258C15.0474 35.3177 13.653 41.1919 13.4626 42.9278C12.7795 49.2444 10.4723 54.1835 9.48118 60.5C8.08123 69.4149 7.66124 77.5011 8.742 86.4944C8.99959 88.6671 9.46998 91.6294 10.2147 93.5389C10.5003 94.2669 11.4747 96.0533 11.8387 96.7364C12.2923 97.5988 12.7683 98.4444 13.2834 99.2563C13.6082 99.7659 14.2354 101.059 14.8402 101.059C14.8738 101.059 14.913 101.059 14.9466 101.048C17.8697 100.231 11.9171 89.5911 14.4482 89.3279C14.5266 89.3167 14.5994 89.3111 14.661 89.3111C15.2042 89.3111 15.2042 89.6191 15.4002 90.2686C15.6353 91.019 16.4809 92.895 17.2089 93.2085C17.4217 93.3037 17.6401 93.3597 17.8249 93.3597C18.2112 93.3597 18.48 93.1189 18.3904 92.5142C18.3904 92.5142 17.5449 88.0791 17.3713 87.2111C16.2849 81.9473 14.3082 82.0817 14.3586 79.349C14.465 73.2676 15.9153 72.2764 17.3601 66.5198C18.0825 63.6527 18.5752 61.8776 18.8216 58.8929C19.0568 56.1266 20.0704 50.37 21.0839 47.7773C21.6495 46.3101 22.4671 44.5574 23.0327 43.0174C24.119 40.0439 26.1349 32.7418 26.8237 31.0338C26.5213 30.4067 26.0566 29.4771 25.6086 28.7603C25.2782 28.2395 25.407 28.0323 25.9278 28.3739C26.5381 28.7715 27.2885 29.4547 27.7477 30.5635C28.2685 31.8122 28.9516 32.221 29.4444 32.5122C31.018 33.229 33.2467 33.5538 37.4577 33.5202C38.0737 33.5146 38.0905 33.6266 37.4801 33.7441C35.1842 34.1921 29.8924 34.8921 27.6749 32.4506C27.7309 32.5794 27.7869 32.7026 27.8485 32.8202C28.4533 33.9961 29.6124 48.4717 29.7132 50.5996C29.9316 55.0234 29.8308 56.0482 29.8812 60.4776C29.9204 63.8039 29.114 69.3589 28.5485 73.4076C30.0828 73.4916 31.5667 73.5812 33.0171 73.6652C36.9929 73.906 40.7504 74.13 44.5303 74.13C49.0437 74.13 53.0419 73.8052 57.1186 73.1108L57.3426 73.066C56.777 69.0566 56.0154 63.7143 56.0546 60.4776C56.105 56.0482 56.0042 55.0234 56.2226 50.5996C56.3234 48.4941 57.4602 34.2817 58.0706 32.8594C55.6514 34.8081 50.8524 34.1641 48.6965 33.7441C48.0917 33.6266 48.1085 33.5146 48.7245 33.5202C52.9355 33.5538 55.1587 33.229 56.7378 32.5122C57.2306 32.221 57.9082 31.8122 58.4289 30.5635C58.8937 29.4547 59.6441 28.7715 60.2545 28.3739C60.7696 28.0323 60.904 28.2395 60.5737 28.7603C59.8625 29.8971 59.1121 31.5658 59.0393 31.7058C59.0113 31.7506 58.9889 31.801 58.9553 31.8458C59.7841 33.4922 61.8392 40.1111 62.9032 43.0174C63.4632 44.5574 64.2807 46.3101 64.8519 47.7773C65.8655 50.37 66.879 56.1266 67.1086 58.8929C67.3606 61.8776 67.8534 63.6527 68.5758 66.5198C70.0205 72.2764 71.4652 73.2676 71.5772 79.349C71.622 82.0817 69.6509 81.9473 68.5646 87.2111C68.3854 88.0791 67.5398 92.5142 67.5398 92.5142C67.4558 93.1189 67.7246 93.3597 68.111 93.3597C68.2958 93.3597 68.5086 93.3037 68.727 93.2085C69.4493 92.895 70.3005 91.019 70.5301 90.2686C70.7317 89.6191 70.7317 89.3111 71.2693 89.3111C71.3365 89.3111 71.4037 89.3167 71.4876 89.3279C74.0188 89.5911 68.0662 100.231 70.9837 101.048C71.0229 101.059 71.0565 101.059 71.0957 101.059C71.6948 101.059 72.3276 99.7659 72.6524 99.2563C73.1676 98.4444 73.6436 97.5988 74.0971 96.7364C74.4611 96.0533 75.4355 94.2669 75.7155 93.5389C76.4659 91.6294 76.9362 88.6671 77.1938 86.4944C78.2746 77.5011 77.8546 69.4149 76.4547 60.5ZM42.6543 14.884C42.7439 14.9736 42.9623 15.1696 43.0799 15.1304C44.2391 14.744 43.8863 15.4888 43.3151 15.724C42.8503 15.9199 42.4751 15.6568 42.2063 15.304C41.8312 14.8112 41.7472 13.9544 42.6543 14.884ZM42.9399 29.9363C42.8559 30.5467 42.6151 30.5467 42.5255 29.9363C42.1055 26.918 42.4695 23.1941 42.6711 21.027C42.7271 20.411 42.8335 20.411 42.8839 21.027C43.3599 26.4196 43.1415 28.4355 42.9399 29.9363ZM39.8992 39.7191C37.1889 42.659 35.901 45.6717 35.369 47.2229C35.173 47.8053 35.0442 47.7941 35.1002 47.1781C35.4922 42.6814 38.1969 40.3799 39.692 39.4448C40.2128 39.1144 40.3136 39.2656 39.8992 39.7191ZM30.5308 13.1928C29.926 13.0864 29.9428 12.9577 30.5644 12.9409C32.8883 12.8849 38.1969 12.8289 40.2072 13.4168C42.6095 14.1168 34.9042 13.9432 30.5308 13.1928ZM42.7495 62.572C42.1335 62.572 41.6296 62.292 41.6296 61.9448C41.6296 61.5976 42.1335 61.312 42.7495 61.312C43.3655 61.312 43.8695 61.5976 43.8695 61.9448C43.8695 62.292 43.3711 62.572 42.7495 62.572ZM51.082 47.1781C51.1324 47.7941 50.9812 47.8109 50.7628 47.2341C50.1693 45.6605 48.7917 42.5862 46.2662 39.7359C45.8574 39.2712 45.9638 39.1144 46.4902 39.4448C47.9853 40.3799 50.69 42.6814 51.082 47.1781ZM55.6514 13.1928C51.2724 13.9432 43.5727 14.1168 45.9694 13.4168C47.9853 12.8289 53.2883 12.8849 55.6178 12.9409C56.2338 12.9577 56.2562 13.0864 55.6514 13.1928Z" fill="#FFEACA"/>
<path d="M37.4808 33.7446C35.1849 34.1926 29.8931 34.8926 27.6756 32.4511C27.4684 32.2327 27.2892 31.9807 27.1436 31.7063C27.1156 31.6559 26.998 31.3983 26.8244 31.0343C26.522 30.4071 26.0573 29.4776 25.6093 28.7608C25.2789 28.24 25.4077 28.0328 25.9285 28.3744C26.5388 28.772 27.2892 29.4552 27.7484 30.5639C28.2692 31.8127 28.9524 32.2215 29.4451 32.5127C31.0187 33.2294 33.2474 33.5542 37.4584 33.5206C38.0744 33.515 38.0912 33.627 37.4808 33.7446Z" fill="#DFCBAD"/>
<path d="M30.5307 13.1935C29.9259 13.0871 29.9427 12.9583 30.5643 12.9415C32.8882 12.8855 38.1968 12.8295 40.2071 13.4175C42.6094 14.1174 34.9041 13.9438 30.5307 13.1935Z" fill="#DFCBAD"/>
<path d="M39.8991 39.7193C37.1888 42.6592 35.9009 45.6719 35.3689 47.223C35.1729 47.8054 35.0441 47.7942 35.1001 47.1782C35.4921 42.6816 38.1968 40.38 39.6919 39.4449C40.2127 39.1145 40.3135 39.2657 39.8991 39.7193Z" fill="#DFCBAD"/>
<path d="M42.9396 29.9365C42.8557 30.5469 42.6149 30.5469 42.5253 29.9365C42.1053 26.9182 42.4693 23.1943 42.6709 21.0272C42.7269 20.4112 42.8333 20.4112 42.8837 21.0272C43.3596 26.4198 43.1412 28.4357 42.9396 29.9365Z" fill="#DFCBAD"/>
<path d="M43.8693 61.945C43.8693 62.2922 43.3709 62.5722 42.7494 62.5722C42.1278 62.5722 41.6294 62.2922 41.6294 61.945C41.6294 61.5978 42.1334 61.3123 42.7494 61.3123C43.3653 61.3123 43.8693 61.5978 43.8693 61.945Z" fill="#333333"/>
<path d="M43.8693 61.945C43.8693 62.2922 43.3709 62.5722 42.7494 62.5722C42.1278 62.5722 41.6294 62.2922 41.6294 61.945C41.6294 61.5978 42.1334 61.3123 42.7494 61.3123C43.3653 61.3123 43.8693 61.5978 43.8693 61.945Z" fill="black" fill-opacity="0.2"/>
<path d="M60.5735 28.7608C59.8624 29.8976 59.112 31.5663 59.0392 31.7063C59.0112 31.7511 58.9888 31.8015 58.9552 31.8463C58.7256 32.2495 58.4232 32.5855 58.0704 32.8599C55.6513 34.8086 50.8523 34.1646 48.6964 33.7446C48.0916 33.627 48.1084 33.515 48.7244 33.5206C52.9354 33.5542 55.1585 33.2294 56.7377 32.5127C57.2305 32.2215 57.908 31.8127 58.4288 30.5639C58.8936 29.4552 59.644 28.772 60.2543 28.3744C60.7695 28.0328 60.9039 28.24 60.5735 28.7608Z" fill="#DFCBAD"/>
<path d="M55.6514 13.1935C51.2724 13.9438 43.5727 14.1174 45.9694 13.4175C47.9853 12.8295 53.2883 12.8855 55.6178 12.9415C56.2338 12.9583 56.2562 13.0871 55.6514 13.1935Z" fill="#DFCBAD"/>
<path d="M50.7623 47.2349C50.1687 45.6613 48.7912 42.587 46.2657 39.7367C45.8569 39.272 45.9633 39.1152 46.4897 39.4456C47.9848 40.3807 50.6895 42.6822 51.0815 47.1789C51.1319 47.7949 50.9807 47.8117 50.7623 47.2349Z" fill="#DFCBAD"/>
<path d="M43.3151 15.7243C42.8503 15.9203 42.4751 15.6571 42.2063 15.3043C41.8311 14.8115 41.7471 13.9548 42.6543 14.8843C42.7439 14.9739 42.9623 15.1699 43.0799 15.1307C44.239 14.7443 43.8862 15.4891 43.3151 15.7243Z" fill="#DFCBAD"/>
</g>
<defs>
<clipPath id="clip0_8984_52243">
<rect width="85" height="80" fill="white"/>
</clipPath>
</defs>
</svg>
