<svg width="85" height="80" viewBox="0 0 85 80" fill="none" xmlns="http://www.w3.org/2000/svg">
<g clip-path="url(#clip0_10960_4683)">
<path d="M51.4704 4.35645C51.1374 4.8851 50.6246 5.40318 50.0114 5.88426C48.1981 7.30105 45.5125 8.37951 44.0165 8.37951H41.5476C39.7449 8.37951 37.0805 7.25347 35.3307 5.7891C34.7914 5.33446 34.3368 4.85338 34.0249 4.35645C34.0249 4.35645 34.3368 4.44632 35.3307 5.01726C36.9113 5.91598 39.0365 7.45436 41.8331 7.45436H43.7257C46.1046 7.45436 48.4413 5.88954 50.0114 5.01726C51.148 4.38288 51.4704 4.35645 51.4704 4.35645Z" fill="#DFCBAD"/>
<path d="M62.1547 91.6901V91.8804L61.9591 91.9333C61.9433 91.9386 61.9274 91.9439 61.9115 91.9439C60.7327 92.2611 59.3106 92.5201 57.5555 92.6999C55.7792 92.8796 53.6646 92.9748 51.1323 92.9748C47.5375 92.9748 45.1956 92.7686 43.2501 92.425C43.1497 92.4091 43.0545 92.3879 42.9594 92.3721L42.7532 92.3351V92.1236C42.658 89.3746 42.2457 90.2786 42.2457 92.1501V92.3615L42.0977 92.3932L42.0342 92.4091C38.894 93.0911 36.2507 93.2338 33.6974 93.2338C28.5959 93.2338 24.8107 92.684 23.4415 92.1501C23.3358 92.113 23.2459 92.076 23.1719 92.0337L23.0344 91.9597V91.8064C22.9234 87.9684 23.0291 84.474 23.3463 81.1276C23.5367 79.1029 23.6741 77.8077 23.7851 76.7662C23.9226 75.4604 24.023 74.5141 24.1393 73.0022C24.1552 72.7854 24.3296 72.5264 24.3878 72.4418C24.4036 72.426 24.4089 72.4154 24.4089 72.4154L24.705 72.5105C27.9509 73.5361 34.2683 73.7264 43.0968 73.7264H43.1021C51.9094 73.7264 57.0268 73.5731 60.8225 72.3889L60.9441 72.3519L61.1186 72.2991C61.1186 72.2991 61.3829 72.7431 61.4041 73.0022C61.4728 73.8903 61.5574 74.4824 61.6525 75.1062C61.8693 76.5865 62.0596 77.8922 62.234 82.5973C62.3239 84.9921 62.2975 88.1376 62.1547 91.6901Z" fill="#333333"/>
<path d="M62.1547 91.6901V91.8804L61.9591 91.9333C61.9433 91.9386 61.9274 91.9439 61.9115 91.9439C60.7327 92.2611 59.3106 92.5201 57.5555 92.6999C55.7792 92.8796 53.6646 92.9748 51.1323 92.9748C47.5375 92.9748 45.1956 92.7686 43.2501 92.425C43.1497 92.4091 43.0545 92.3879 42.9594 92.3721L42.7532 92.3351V92.1236C42.658 89.3746 42.2457 90.2786 42.2457 92.1501V92.3615L42.0977 92.3932L42.0342 92.4091C38.894 93.0911 36.2507 93.2338 33.6974 93.2338C28.5959 93.2338 24.8107 92.684 23.4415 92.1501C23.3358 92.113 23.2459 92.076 23.1719 92.0337L23.0344 91.9597V91.8064C22.9234 87.9684 23.0291 84.474 23.3463 81.1276C23.5367 79.1029 23.6741 77.8077 23.7851 76.7662C23.9226 75.4604 24.023 74.5141 24.1393 73.0022C24.1552 72.7854 24.3296 72.5264 24.3878 72.4418C24.4036 72.426 24.4089 72.4154 24.4089 72.4154L24.705 72.5105C27.9509 73.5361 34.2683 73.7264 43.0968 73.7264H43.1021C51.9094 73.7264 57.0268 73.5731 60.8225 72.3889L60.9441 72.3519L61.1186 72.2991C61.1186 72.2991 61.3829 72.7431 61.4041 73.0022C61.4728 73.8903 61.5574 74.4824 61.6525 75.1062C61.8693 76.5865 62.0596 77.8922 62.234 82.5973C62.3239 84.9921 62.2975 88.1376 62.1547 91.6901Z" fill="black" fill-opacity="0.2"/>
<path d="M80.0125 60.6367C79.6318 57.9934 79.008 55.8101 78.4054 53.6955C77.6547 51.0416 76.9463 48.5411 76.7613 45.3639C75.3603 22.3832 68.7099 18.7355 66.59 16.7478C66.4578 16.6262 66.3362 16.5152 66.2358 16.4094C63.5132 13.6816 54.2935 11.8101 51.1956 10.9326C51.1533 10.8744 51.1163 10.8216 51.0687 10.774V5.5773C53.3684 3.93319 54.8327 1.42736 55.4301 -1.89259C56.7359 -2.64328 57.7139 -4.05479 58.0416 -5.70419C58.3377 -7.20028 58.0575 -8.71752 57.2804 -9.8647C56.8945 -10.4357 56.3975 -10.8903 55.8319 -11.2022C55.7473 -11.2498 55.6627 -11.2921 55.5781 -11.3291C55.6151 -14.0939 54.9014 -17.7945 52.7551 -20.4907C50.7568 -22.9965 46.7444 -24.4873 43.7046 -24.704C43.6147 -24.7305 43.5196 -24.7463 43.4244 -24.7463C43.2711 -24.7463 43.1178 -24.7463 42.9645 -24.7411H42.9539C42.9169 -24.7463 42.8746 -24.7463 42.827 -24.7463H42.5151C42.4728 -24.7463 42.4305 -24.7463 42.3882 -24.7411H42.3777C42.2244 -24.7463 42.0711 -24.7463 41.9178 -24.7463C41.8173 -24.7463 41.7169 -24.7305 41.6217 -24.704C38.5872 -24.482 34.5853 -22.9912 32.5923 -20.4907C30.4407 -17.7945 29.727 -14.0939 29.7693 -11.3291C29.7534 -11.3238 29.7376 -11.3132 29.7217 -11.3026C29.0662 -10.996 28.4952 -10.5044 28.0617 -9.8647C27.2846 -8.71752 27.0097 -7.20028 27.3058 -5.70419C27.6283 -4.05479 28.6063 -2.64328 29.9173 -1.89259C30.5094 1.42736 31.9738 3.93319 34.2734 5.5773V10.774C34.2311 10.8216 34.1941 10.8744 34.1518 10.9326C31.0592 11.8049 21.8078 13.6763 19.0905 16.4042C18.9848 16.5099 18.8685 16.6209 18.731 16.7478C16.6111 18.7355 10.0717 22.4678 8.57032 45.3639C8.39058 48.5411 7.67691 51.0416 6.92622 53.6955C6.32355 55.8101 5.70503 57.9934 5.3244 60.6367C3.78073 71.2468 3.49526 81.3124 4.95434 88.3805C5.0072 88.6237 5.05479 88.888 5.11294 89.1735C5.50943 91.2299 6.10681 94.3384 7.88837 96.9817C12.0119 103.093 13.0163 103.093 13.4498 103.093C13.4974 103.093 13.5714 103.088 13.6242 103.077C14.3908 102.966 15.0146 102.506 15.3794 101.782C16.1353 100.296 15.6543 98.076 14.8877 96.6434C14.2692 95.4856 13.878 94.3913 13.6612 93.445C14.0472 94.1746 14.5388 94.8671 15.1098 95.2054C15.3899 95.3693 15.945 95.6442 16.5688 95.6442C17.3777 95.6442 18.3663 95.1261 18.4931 93.667C18.5037 93.5349 18.4878 93.4027 18.4508 93.2811C18.4033 93.1172 17.2667 89.2369 17.0235 88.4492C16.2464 85.9646 15.4058 84.7381 14.7926 83.8394C14.2216 82.9988 14.0049 82.6816 14.0842 81.7723C14.2005 80.4295 17.568 68.2388 18.2552 62.6403C18.6306 59.5953 19.3126 54.7105 20.0104 52.4637C20.6183 50.5024 22.2942 45.5225 23.2457 41.7584C23.2457 41.7954 23.2457 43.4131 23.2404 43.4448C23.2193 44.1004 23.9858 61.012 23.8061 64.2421C23.8008 64.4219 23.5629 69.2221 23.4783 70.3005C23.4096 71.2045 23.3462 72.209 23.2774 73.2716C23.14 75.4866 22.9761 77.9924 22.6906 81.0481C22.0933 87.3126 22.2307 94.1376 23.1241 102.533C23.6316 107.312 23.6316 112.667 24.0176 116.579C24.2977 119.402 24.4828 121.268 24.5409 121.717L24.6044 122.241C24.8951 124.466 25.1225 126.227 24.9374 128.4C24.6731 131.498 24.4933 134.823 24.4933 136.678C24.4933 142.594 25.2546 146.231 26.1375 150.445C26.4705 152.009 26.8088 153.632 27.1472 155.525C27.3798 156.831 27.6441 158.2 27.9243 159.601C28.5798 163.101 28.7966 169.407 27.9983 171.348C27.882 171.638 27.7657 171.94 27.6494 172.252C27.1102 173.658 26.5604 175.112 25.2017 176.37C23.3303 178.109 23.1453 178.823 23.5153 180.224C23.5365 180.292 23.5523 180.366 23.5735 180.44C23.8114 181.397 24.8951 181.646 27.0785 181.826C28.4741 181.937 29.8803 182 31.9949 182C34.1095 182 38.582 181.947 39.4595 181.44C40.9715 180.562 40.6596 178.326 40.3847 176.354C40.2684 175.535 40.1045 174.763 39.93 173.949C39.211 170.549 38.2172 165.897 39.9247 151.586C40.0622 150.423 40.2049 149.329 40.3424 148.267C40.7283 145.343 41.093 142.583 41.2199 139.285C41.4208 133.982 41.2199 130.07 41.0613 126.925C40.9345 124.445 40.834 122.489 41.0032 120.887C41.0455 120.47 41.1142 119.862 41.1935 119.095C41.4473 116.785 41.8702 112.915 42.2719 108.739C42.4358 107.079 42.568 105.572 42.6737 104.203C42.7794 105.572 42.9116 107.079 43.0702 108.739C43.4773 112.915 43.9002 116.785 44.1487 119.095C44.2332 119.862 44.2967 120.47 44.3443 120.887C44.5081 122.489 44.413 124.445 44.2861 126.925C44.1222 130.07 43.9266 133.982 44.1275 139.285C44.2544 142.583 44.6139 145.343 44.9998 148.267C45.1372 149.329 45.2853 150.423 45.4227 151.586C47.125 165.897 46.1364 170.549 45.4121 173.949C45.2377 174.763 45.0738 175.535 44.9628 176.354C44.6879 178.326 44.376 180.562 45.8879 181.44C46.7655 181.947 51.2379 182 53.3472 182C55.4565 182 56.8681 181.937 58.2637 181.826C60.4523 181.646 61.536 181.397 61.7739 180.44C61.7898 180.366 61.811 180.292 61.8268 180.224C62.2022 178.823 62.0171 178.109 60.1457 176.37C58.7871 175.112 58.232 173.658 57.698 172.252C57.5817 171.94 57.4654 171.638 57.3438 171.348C56.5508 169.407 56.7676 163.101 57.4231 159.585C57.7033 158.2 57.9624 156.831 58.195 155.525C58.5386 153.632 58.8769 152.009 59.2047 150.445C60.0875 146.231 60.8488 142.594 60.8488 136.678C60.8488 134.823 60.6744 131.498 60.41 128.4C60.225 126.227 60.4523 124.466 60.7378 122.241L60.8065 121.717C60.8647 121.268 61.0444 119.402 61.3246 116.579C61.7105 112.667 61.7158 107.312 62.2233 102.533C63.1114 94.1376 63.2542 87.3126 62.6568 81.0481C62.366 77.9924 62.2075 75.4866 62.0647 73.2716C61.996 72.209 61.9325 71.2045 61.8638 70.3005C61.7845 69.2221 61.5466 64.4219 61.5361 64.2421C61.3616 61.012 62.1281 42.5144 62.1017 41.8589C62.1017 41.8272 62.1017 41.7954 62.0964 41.7584C63.048 45.5225 64.7238 50.5024 65.3318 52.4637C66.0349 54.7105 66.7168 59.5953 67.0922 62.6403C67.7794 68.2388 71.1417 80.4295 71.2633 81.7723C71.3426 82.6816 71.1258 82.9988 70.5496 83.8394C69.9363 84.7381 69.0958 85.9646 68.3239 88.4492C68.0755 89.2369 66.9389 93.1172 66.8913 93.2811C66.8543 93.4027 66.8437 93.5349 66.8543 93.667C66.9759 95.1261 67.9645 95.6442 68.7733 95.6442C69.3971 95.6442 69.9575 95.3693 70.2324 95.2054C70.8086 94.8671 71.3002 94.1746 71.6862 93.445C71.4641 94.3913 71.0782 95.4856 70.4544 96.6434C69.6932 98.076 69.2121 100.296 69.9628 101.782C70.3276 102.506 70.9513 102.966 71.7232 103.077C71.7708 103.088 71.8448 103.093 71.8976 103.093C72.3259 103.093 73.3303 103.093 77.4538 96.9817C79.2406 94.3384 79.838 91.2299 80.2345 89.1735C80.2874 88.888 80.3402 88.6237 80.3878 88.3752C81.8522 81.3124 81.5561 71.2468 80.0125 60.6367ZM79.3516 88.1638C78.9446 90.1462 78.4794 93.5719 76.5815 96.3896C76.0634 97.1615 72.6589 102.036 71.8976 102.036C71.8871 102.036 71.8818 102.036 71.8712 102.03C70.2694 101.798 70.3751 99.0382 71.3901 97.1403C72.7223 94.6504 73.1136 92.3666 72.9338 90.9075C72.8334 90.0828 72.606 89.792 72.3681 89.792C72.0351 89.792 71.6756 90.363 71.5857 90.8652C71.5117 91.2987 70.6183 93.7516 69.6932 94.2962C69.4236 94.4547 69.0852 94.5869 68.7733 94.5869C68.3451 94.5869 67.9698 94.3384 67.9063 93.5772C67.9063 93.5772 69.0852 89.5541 69.3337 88.7664C70.8192 83.9927 72.532 84.1988 72.3153 81.6824C72.0034 78.0929 69.2755 71.2362 68.1389 61.9848C67.827 59.4367 67.1239 54.6682 66.3415 52.1465C65.4534 49.2812 63.0163 41.4888 62.0224 38.3169C61.7581 37.4605 61.5942 36.9424 61.5942 36.9424C61.5942 36.9424 61.4568 37.9733 61.3246 39.2579C61.166 40.717 61.0074 42.5038 61.0444 43.4871C61.1237 45.459 60.2144 59.4737 60.4788 64.3003C60.5105 64.8871 60.6796 68.6617 60.8118 70.3798C60.8594 70.9983 60.9017 71.6539 60.944 72.3517C61.1026 74.7201 61.2665 77.6012 61.6048 81.1485C61.9431 84.7169 62.0171 88.3329 61.9114 91.9436C61.8109 95.4539 61.5361 98.9642 61.1713 102.422C60.3043 110.573 59.892 120.533 59.7545 121.585C59.432 124.128 59.1465 126.031 59.3527 128.49C59.6171 131.545 59.7915 134.823 59.7915 136.678C59.7915 144.592 58.4434 148.156 57.1535 155.34C56.9156 156.693 56.6566 158.041 56.387 159.389C56.387 159.389 55.5623 165.686 55.927 169.592C56.0063 170.465 56.1491 171.215 56.3658 171.749C56.4187 171.882 56.4715 172.014 56.5191 172.146C56.5297 172.162 56.535 172.178 56.5403 172.193C57.1588 173.779 57.735 175.577 59.4267 177.147C61.277 178.865 61.0127 179.129 60.7483 180.187C60.6743 180.477 59.6752 180.673 58.1844 180.795C57.9624 180.811 57.735 180.826 57.4919 180.842C57.0108 180.869 56.4927 180.89 55.9482 180.906C55.7209 180.911 55.4883 180.922 55.2557 180.927C54.6794 180.937 54.0768 180.943 53.4635 180.943H53.3472C53.104 180.943 52.8661 180.943 52.6335 180.937C51.8776 180.937 51.1533 180.922 50.4872 180.9C50.1171 180.89 49.7682 180.879 49.4352 180.863C47.8069 180.789 46.665 180.668 46.4166 180.525C45.5284 180.012 45.7663 178.231 46.0095 176.497C46.591 172.299 48.5946 169.259 46.4747 151.465C45.9461 147.066 45.354 143.673 45.1848 139.242C44.82 129.653 45.7822 124.498 45.3963 120.776C45.2165 119.074 44.6614 114.168 44.1222 108.633C43.3504 100.651 43.2711 96.4213 43.25 92.4247C43.2341 90.4687 43.2341 88.5655 43.1707 86.3029H42.1768C42.1133 88.5497 42.1133 90.4475 42.0975 92.393C42.0711 96.4002 41.997 100.629 41.2199 108.633C40.686 114.168 40.1309 119.074 39.9512 120.776C39.56 124.498 40.5274 129.653 40.1626 139.242C39.9935 143.673 39.3961 147.066 38.8727 151.465C36.7528 169.259 38.7511 172.299 39.3379 176.497C39.5758 178.231 39.8137 180.012 38.9309 180.525C38.6665 180.673 37.4348 180.8 35.6902 180.874C35.3572 180.89 35.003 180.9 34.6382 180.906C33.9668 180.927 33.2531 180.937 32.4972 180.943H31.6619C31.0434 180.943 30.446 180.932 29.8697 180.922C29.6371 180.916 29.4045 180.906 29.1772 180.9C28.6274 180.879 28.1093 180.858 27.6335 180.826C27.3904 180.811 27.1578 180.795 26.941 180.779C25.5665 180.652 24.6678 180.462 24.5991 180.187C24.3348 179.129 24.0704 178.865 25.9207 177.147C27.771 175.429 28.2891 173.436 28.9763 171.749C29.0345 171.607 29.0873 171.453 29.1349 171.279C29.2776 170.755 29.3728 170.121 29.431 169.413C29.7587 165.495 28.9605 159.389 28.9605 159.389C28.6908 158.041 28.4318 156.693 28.1886 155.34C26.8987 148.156 25.5506 144.592 25.5506 136.678C25.5506 134.823 25.7304 131.545 25.9894 128.49C26.2009 126.031 25.9154 124.128 25.5877 121.585C25.4555 120.533 25.0379 110.573 24.1762 102.422C23.8167 99.0276 23.5471 95.5914 23.4413 92.1498C23.325 88.4704 23.3938 84.7857 23.7427 81.1485C24.0757 77.6435 24.2396 74.7941 24.3876 72.4416C24.4405 71.7067 24.4881 71.0195 24.5356 70.3798C24.6678 68.6617 24.8317 64.8871 24.8634 64.3003C25.1277 59.4737 24.2237 45.459 24.2977 43.4871C24.3347 42.562 24.1973 40.9126 24.044 39.5011C23.9013 38.1054 23.748 36.9424 23.748 36.9424C23.748 36.9424 23.5735 37.4975 23.2933 38.3962C22.2836 41.621 19.8835 49.3076 19.0006 52.1465C18.2182 54.6682 17.5151 59.4367 17.2032 61.9848C16.0719 71.2362 13.3441 78.0929 13.0322 81.6824C12.8101 84.1988 14.523 83.9927 16.0138 88.7664C16.2569 89.5541 17.4358 93.5772 17.4358 93.5772C17.3724 94.3384 16.997 94.5869 16.5688 94.5869C16.2622 94.5869 15.9186 94.4547 15.649 94.2962C14.7291 93.7516 13.8357 91.2987 13.7564 90.8652C13.6665 90.363 13.3071 89.792 12.974 89.792C12.7361 89.792 12.5141 90.0828 12.4083 90.9075C12.2339 92.3666 12.6251 94.6504 13.9573 97.1403C14.967 99.0382 15.0728 101.798 13.4709 102.03C13.4657 102.036 13.4551 102.036 13.4498 102.036C12.6885 102.036 9.284 97.1615 8.76592 96.3896C6.86277 93.5719 6.39756 90.1462 5.99049 88.1638C4.29352 79.9538 5.16579 69.0687 6.37112 60.79C7.22225 54.9219 9.2893 51.2901 9.62235 45.422C11.3933 21.4105 18.1336 18.8624 19.8359 17.1496C22.6061 14.3688 33.7712 11.9846 34.8708 11.8419C34.8708 11.8419 35.3202 11.6991 35.3202 11.3344H35.3307V5.01693C32.7615 3.39396 31.3553 0.718964 30.8742 -2.60099C29.6636 -3.09264 28.6538 -4.32969 28.3419 -5.91037C27.993 -7.68136 28.6221 -9.35191 29.8063 -10.1449C30.1182 -10.3564 30.4724 -10.5044 30.853 -10.5731C30.8477 -10.6683 30.8478 -10.7581 30.8425 -10.8533C30.6892 -13.7979 31.4768 -17.398 33.417 -19.8351C35.1827 -22.0449 38.9361 -23.5093 41.923 -23.6626V-23.689C42.071 -23.689 42.2244 -23.689 42.3724 -23.6837H42.5151L42.827 -23.689L42.9698 -23.6837C43.1231 -23.689 43.2764 -23.689 43.4244 -23.689V-23.6626C46.4113 -23.5093 50.1647 -22.0449 51.9251 -19.8351C53.8706 -17.398 54.6583 -13.7979 54.505 -10.8533C54.4997 -10.7581 54.4944 -10.6683 54.4891 -10.5731C54.949 -10.4885 55.3667 -10.2929 55.7209 -10.0127C56.7888 -9.17745 57.3333 -7.59149 57.0055 -5.91037C56.6936 -4.32969 55.6839 -3.09264 54.4732 -2.60099C53.9869 0.718964 52.586 3.39396 50.0114 5.01693V11.3344H50.022C50.022 11.6304 50.4766 11.8419 50.4766 11.8419C51.0211 11.9106 54.082 12.545 57.3544 13.5071C60.6215 14.4693 64.1 15.7645 65.4851 17.1548C67.1873 18.8677 73.9488 22.029 75.7092 45.422C76.0423 51.2901 78.1146 54.9219 78.9657 60.79C80.1711 69.0687 81.0539 79.9538 79.3516 88.1638Z" fill="#333333"/>
<path d="M80.0125 60.6367C79.6318 57.9934 79.008 55.8101 78.4054 53.6955C77.6547 51.0416 76.9463 48.5411 76.7613 45.3639C75.3603 22.3832 68.7099 18.7355 66.59 16.7478C66.4578 16.6262 66.3362 16.5152 66.2358 16.4094C63.5132 13.6816 54.2935 11.8101 51.1956 10.9326C51.1533 10.8744 51.1163 10.8216 51.0687 10.774V5.5773C53.3684 3.93319 54.8327 1.42736 55.4301 -1.89259C56.7359 -2.64328 57.7139 -4.05479 58.0416 -5.70419C58.3377 -7.20028 58.0575 -8.71752 57.2804 -9.8647C56.8945 -10.4357 56.3975 -10.8903 55.8319 -11.2022C55.7473 -11.2498 55.6627 -11.2921 55.5781 -11.3291C55.6151 -14.0939 54.9014 -17.7945 52.7551 -20.4907C50.7568 -22.9965 46.7444 -24.4873 43.7046 -24.704C43.6147 -24.7305 43.5196 -24.7463 43.4244 -24.7463C43.2711 -24.7463 43.1178 -24.7463 42.9645 -24.7411H42.9539C42.9169 -24.7463 42.8746 -24.7463 42.827 -24.7463H42.5151C42.4728 -24.7463 42.4305 -24.7463 42.3882 -24.7411H42.3777C42.2244 -24.7463 42.0711 -24.7463 41.9178 -24.7463C41.8173 -24.7463 41.7169 -24.7305 41.6217 -24.704C38.5872 -24.482 34.5853 -22.9912 32.5923 -20.4907C30.4407 -17.7945 29.727 -14.0939 29.7693 -11.3291C29.7534 -11.3238 29.7376 -11.3132 29.7217 -11.3026C29.0662 -10.996 28.4952 -10.5044 28.0617 -9.8647C27.2846 -8.71752 27.0097 -7.20028 27.3058 -5.70419C27.6283 -4.05479 28.6063 -2.64328 29.9173 -1.89259C30.5094 1.42736 31.9738 3.93319 34.2734 5.5773V10.774C34.2311 10.8216 34.1941 10.8744 34.1518 10.9326C31.0592 11.8049 21.8078 13.6763 19.0905 16.4042C18.9848 16.5099 18.8685 16.6209 18.731 16.7478C16.6111 18.7355 10.0717 22.4678 8.57032 45.3639C8.39058 48.5411 7.67691 51.0416 6.92622 53.6955C6.32355 55.8101 5.70503 57.9934 5.3244 60.6367C3.78073 71.2468 3.49526 81.3124 4.95434 88.3805C5.0072 88.6237 5.05479 88.888 5.11294 89.1735C5.50943 91.2299 6.10681 94.3384 7.88837 96.9817C12.0119 103.093 13.0163 103.093 13.4498 103.093C13.4974 103.093 13.5714 103.088 13.6242 103.077C14.3908 102.966 15.0146 102.506 15.3794 101.782C16.1353 100.296 15.6543 98.076 14.8877 96.6434C14.2692 95.4856 13.878 94.3913 13.6612 93.445C14.0472 94.1746 14.5388 94.8671 15.1098 95.2054C15.3899 95.3693 15.945 95.6442 16.5688 95.6442C17.3777 95.6442 18.3663 95.1261 18.4931 93.667C18.5037 93.5349 18.4878 93.4027 18.4508 93.2811C18.4033 93.1172 17.2667 89.2369 17.0235 88.4492C16.2464 85.9646 15.4058 84.7381 14.7926 83.8394C14.2216 82.9988 14.0049 82.6816 14.0842 81.7723C14.2005 80.4295 17.568 68.2388 18.2552 62.6403C18.6306 59.5953 19.3126 54.7105 20.0104 52.4637C20.6183 50.5024 22.2942 45.5225 23.2457 41.7584C23.2457 41.7954 23.2457 43.4131 23.2404 43.4448C23.2193 44.1004 23.9858 61.012 23.8061 64.2421C23.8008 64.4219 23.5629 69.2221 23.4783 70.3005C23.4096 71.2045 23.3462 72.209 23.2774 73.2716C23.14 75.4866 22.9761 77.9924 22.6906 81.0481C22.0933 87.3126 22.2307 94.1376 23.1241 102.533C23.6316 107.312 23.6316 112.667 24.0176 116.579C24.2977 119.402 24.4828 121.268 24.5409 121.717L24.6044 122.241C24.8951 124.466 25.1225 126.227 24.9374 128.4C24.6731 131.498 24.4933 134.823 24.4933 136.678C24.4933 142.594 25.2546 146.231 26.1375 150.445C26.4705 152.009 26.8088 153.632 27.1472 155.525C27.3798 156.831 27.6441 158.2 27.9243 159.601C28.5798 163.101 28.7966 169.407 27.9983 171.348C27.882 171.638 27.7657 171.94 27.6494 172.252C27.1102 173.658 26.5604 175.112 25.2017 176.37C23.3303 178.109 23.1453 178.823 23.5153 180.224C23.5365 180.292 23.5523 180.366 23.5735 180.44C23.8114 181.397 24.8951 181.646 27.0785 181.826C28.4741 181.937 29.8803 182 31.9949 182C34.1095 182 38.582 181.947 39.4595 181.44C40.9715 180.562 40.6596 178.326 40.3847 176.354C40.2684 175.535 40.1045 174.763 39.93 173.949C39.211 170.549 38.2172 165.897 39.9247 151.586C40.0622 150.423 40.2049 149.329 40.3424 148.267C40.7283 145.343 41.093 142.583 41.2199 139.285C41.4208 133.982 41.2199 130.07 41.0613 126.925C40.9345 124.445 40.834 122.489 41.0032 120.887C41.0455 120.47 41.1142 119.862 41.1935 119.095C41.4473 116.785 41.8702 112.915 42.2719 108.739C42.4358 107.079 42.568 105.572 42.6737 104.203C42.7794 105.572 42.9116 107.079 43.0702 108.739C43.4773 112.915 43.9002 116.785 44.1487 119.095C44.2332 119.862 44.2967 120.47 44.3443 120.887C44.5081 122.489 44.413 124.445 44.2861 126.925C44.1222 130.07 43.9266 133.982 44.1275 139.285C44.2544 142.583 44.6139 145.343 44.9998 148.267C45.1372 149.329 45.2853 150.423 45.4227 151.586C47.125 165.897 46.1364 170.549 45.4121 173.949C45.2377 174.763 45.0738 175.535 44.9628 176.354C44.6879 178.326 44.376 180.562 45.8879 181.44C46.7655 181.947 51.2379 182 53.3472 182C55.4565 182 56.8681 181.937 58.2637 181.826C60.4523 181.646 61.536 181.397 61.7739 180.44C61.7898 180.366 61.811 180.292 61.8268 180.224C62.2022 178.823 62.0171 178.109 60.1457 176.37C58.7871 175.112 58.232 173.658 57.698 172.252C57.5817 171.94 57.4654 171.638 57.3438 171.348C56.5508 169.407 56.7676 163.101 57.4231 159.585C57.7033 158.2 57.9624 156.831 58.195 155.525C58.5386 153.632 58.8769 152.009 59.2047 150.445C60.0875 146.231 60.8488 142.594 60.8488 136.678C60.8488 134.823 60.6744 131.498 60.41 128.4C60.225 126.227 60.4523 124.466 60.7378 122.241L60.8065 121.717C60.8647 121.268 61.0444 119.402 61.3246 116.579C61.7105 112.667 61.7158 107.312 62.2233 102.533C63.1114 94.1376 63.2542 87.3126 62.6568 81.0481C62.366 77.9924 62.2075 75.4866 62.0647 73.2716C61.996 72.209 61.9325 71.2045 61.8638 70.3005C61.7845 69.2221 61.5466 64.4219 61.5361 64.2421C61.3616 61.012 62.1281 42.5144 62.1017 41.8589C62.1017 41.8272 62.1017 41.7954 62.0964 41.7584C63.048 45.5225 64.7238 50.5024 65.3318 52.4637C66.0349 54.7105 66.7168 59.5953 67.0922 62.6403C67.7794 68.2388 71.1417 80.4295 71.2633 81.7723C71.3426 82.6816 71.1258 82.9988 70.5496 83.8394C69.9363 84.7381 69.0958 85.9646 68.3239 88.4492C68.0755 89.2369 66.9389 93.1172 66.8913 93.2811C66.8543 93.4027 66.8437 93.5349 66.8543 93.667C66.9759 95.1261 67.9645 95.6442 68.7733 95.6442C69.3971 95.6442 69.9575 95.3693 70.2324 95.2054C70.8086 94.8671 71.3002 94.1746 71.6862 93.445C71.4641 94.3913 71.0782 95.4856 70.4544 96.6434C69.6932 98.076 69.2121 100.296 69.9628 101.782C70.3276 102.506 70.9513 102.966 71.7232 103.077C71.7708 103.088 71.8448 103.093 71.8976 103.093C72.3259 103.093 73.3303 103.093 77.4538 96.9817C79.2406 94.3384 79.838 91.2299 80.2345 89.1735C80.2874 88.888 80.3402 88.6237 80.3878 88.3752C81.8522 81.3124 81.5561 71.2468 80.0125 60.6367ZM79.3516 88.1638C78.9446 90.1462 78.4794 93.5719 76.5815 96.3896C76.0634 97.1615 72.6589 102.036 71.8976 102.036C71.8871 102.036 71.8818 102.036 71.8712 102.03C70.2694 101.798 70.3751 99.0382 71.3901 97.1403C72.7223 94.6504 73.1136 92.3666 72.9338 90.9075C72.8334 90.0828 72.606 89.792 72.3681 89.792C72.0351 89.792 71.6756 90.363 71.5857 90.8652C71.5117 91.2987 70.6183 93.7516 69.6932 94.2962C69.4236 94.4547 69.0852 94.5869 68.7733 94.5869C68.3451 94.5869 67.9698 94.3384 67.9063 93.5772C67.9063 93.5772 69.0852 89.5541 69.3337 88.7664C70.8192 83.9927 72.532 84.1988 72.3153 81.6824C72.0034 78.0929 69.2755 71.2362 68.1389 61.9848C67.827 59.4367 67.1239 54.6682 66.3415 52.1465C65.4534 49.2812 63.0163 41.4888 62.0224 38.3169C61.7581 37.4605 61.5942 36.9424 61.5942 36.9424C61.5942 36.9424 61.4568 37.9733 61.3246 39.2579C61.166 40.717 61.0074 42.5038 61.0444 43.4871C61.1237 45.459 60.2144 59.4737 60.4788 64.3003C60.5105 64.8871 60.6796 68.6617 60.8118 70.3798C60.8594 70.9983 60.9017 71.6539 60.944 72.3517C61.1026 74.7201 61.2665 77.6012 61.6048 81.1485C61.9431 84.7169 62.0171 88.3329 61.9114 91.9436C61.8109 95.4539 61.5361 98.9642 61.1713 102.422C60.3043 110.573 59.892 120.533 59.7545 121.585C59.432 124.128 59.1465 126.031 59.3527 128.49C59.6171 131.545 59.7915 134.823 59.7915 136.678C59.7915 144.592 58.4434 148.156 57.1535 155.34C56.9156 156.693 56.6566 158.041 56.387 159.389C56.387 159.389 55.5623 165.686 55.927 169.592C56.0063 170.465 56.1491 171.215 56.3658 171.749C56.4187 171.882 56.4715 172.014 56.5191 172.146C56.5297 172.162 56.535 172.178 56.5403 172.193C57.1588 173.779 57.735 175.577 59.4267 177.147C61.277 178.865 61.0127 179.129 60.7483 180.187C60.6743 180.477 59.6752 180.673 58.1844 180.795C57.9624 180.811 57.735 180.826 57.4919 180.842C57.0108 180.869 56.4927 180.89 55.9482 180.906C55.7209 180.911 55.4883 180.922 55.2557 180.927C54.6794 180.937 54.0768 180.943 53.4635 180.943H53.3472C53.104 180.943 52.8661 180.943 52.6335 180.937C51.8776 180.937 51.1533 180.922 50.4872 180.9C50.1171 180.89 49.7682 180.879 49.4352 180.863C47.8069 180.789 46.665 180.668 46.4166 180.525C45.5284 180.012 45.7663 178.231 46.0095 176.497C46.591 172.299 48.5946 169.259 46.4747 151.465C45.9461 147.066 45.354 143.673 45.1848 139.242C44.82 129.653 45.7822 124.498 45.3963 120.776C45.2165 119.074 44.6614 114.168 44.1222 108.633C43.3504 100.651 43.2711 96.4213 43.25 92.4247C43.2341 90.4687 43.2341 88.5655 43.1707 86.3029H42.1768C42.1133 88.5497 42.1133 90.4475 42.0975 92.393C42.0711 96.4002 41.997 100.629 41.2199 108.633C40.686 114.168 40.1309 119.074 39.9512 120.776C39.56 124.498 40.5274 129.653 40.1626 139.242C39.9935 143.673 39.3961 147.066 38.8727 151.465C36.7528 169.259 38.7511 172.299 39.3379 176.497C39.5758 178.231 39.8137 180.012 38.9309 180.525C38.6665 180.673 37.4348 180.8 35.6902 180.874C35.3572 180.89 35.003 180.9 34.6382 180.906C33.9668 180.927 33.2531 180.937 32.4972 180.943H31.6619C31.0434 180.943 30.446 180.932 29.8697 180.922C29.6371 180.916 29.4045 180.906 29.1772 180.9C28.6274 180.879 28.1093 180.858 27.6335 180.826C27.3904 180.811 27.1578 180.795 26.941 180.779C25.5665 180.652 24.6678 180.462 24.5991 180.187C24.3348 179.129 24.0704 178.865 25.9207 177.147C27.771 175.429 28.2891 173.436 28.9763 171.749C29.0345 171.607 29.0873 171.453 29.1349 171.279C29.2776 170.755 29.3728 170.121 29.431 169.413C29.7587 165.495 28.9605 159.389 28.9605 159.389C28.6908 158.041 28.4318 156.693 28.1886 155.34C26.8987 148.156 25.5506 144.592 25.5506 136.678C25.5506 134.823 25.7304 131.545 25.9894 128.49C26.2009 126.031 25.9154 124.128 25.5877 121.585C25.4555 120.533 25.0379 110.573 24.1762 102.422C23.8167 99.0276 23.5471 95.5914 23.4413 92.1498C23.325 88.4704 23.3938 84.7857 23.7427 81.1485C24.0757 77.6435 24.2396 74.7941 24.3876 72.4416C24.4405 71.7067 24.4881 71.0195 24.5356 70.3798C24.6678 68.6617 24.8317 64.8871 24.8634 64.3003C25.1277 59.4737 24.2237 45.459 24.2977 43.4871C24.3347 42.562 24.1973 40.9126 24.044 39.5011C23.9013 38.1054 23.748 36.9424 23.748 36.9424C23.748 36.9424 23.5735 37.4975 23.2933 38.3962C22.2836 41.621 19.8835 49.3076 19.0006 52.1465C18.2182 54.6682 17.5151 59.4367 17.2032 61.9848C16.0719 71.2362 13.3441 78.0929 13.0322 81.6824C12.8101 84.1988 14.523 83.9927 16.0138 88.7664C16.2569 89.5541 17.4358 93.5772 17.4358 93.5772C17.3724 94.3384 16.997 94.5869 16.5688 94.5869C16.2622 94.5869 15.9186 94.4547 15.649 94.2962C14.7291 93.7516 13.8357 91.2987 13.7564 90.8652C13.6665 90.363 13.3071 89.792 12.974 89.792C12.7361 89.792 12.5141 90.0828 12.4083 90.9075C12.2339 92.3666 12.6251 94.6504 13.9573 97.1403C14.967 99.0382 15.0728 101.798 13.4709 102.03C13.4657 102.036 13.4551 102.036 13.4498 102.036C12.6885 102.036 9.284 97.1615 8.76592 96.3896C6.86277 93.5719 6.39756 90.1462 5.99049 88.1638C4.29352 79.9538 5.16579 69.0687 6.37112 60.79C7.22225 54.9219 9.2893 51.2901 9.62235 45.422C11.3933 21.4105 18.1336 18.8624 19.8359 17.1496C22.6061 14.3688 33.7712 11.9846 34.8708 11.8419C34.8708 11.8419 35.3202 11.6991 35.3202 11.3344H35.3307V5.01693C32.7615 3.39396 31.3553 0.718964 30.8742 -2.60099C29.6636 -3.09264 28.6538 -4.32969 28.3419 -5.91037C27.993 -7.68136 28.6221 -9.35191 29.8063 -10.1449C30.1182 -10.3564 30.4724 -10.5044 30.853 -10.5731C30.8477 -10.6683 30.8478 -10.7581 30.8425 -10.8533C30.6892 -13.7979 31.4768 -17.398 33.417 -19.8351C35.1827 -22.0449 38.9361 -23.5093 41.923 -23.6626V-23.689C42.071 -23.689 42.2244 -23.689 42.3724 -23.6837H42.5151L42.827 -23.689L42.9698 -23.6837C43.1231 -23.689 43.2764 -23.689 43.4244 -23.689V-23.6626C46.4113 -23.5093 50.1647 -22.0449 51.9251 -19.8351C53.8706 -17.398 54.6583 -13.7979 54.505 -10.8533C54.4997 -10.7581 54.4944 -10.6683 54.4891 -10.5731C54.949 -10.4885 55.3667 -10.2929 55.7209 -10.0127C56.7888 -9.17745 57.3333 -7.59149 57.0055 -5.91037C56.6936 -4.32969 55.6839 -3.09264 54.4732 -2.60099C53.9869 0.718964 52.586 3.39396 50.0114 5.01693V11.3344H50.022C50.022 11.6304 50.4766 11.8419 50.4766 11.8419C51.0211 11.9106 54.082 12.545 57.3544 13.5071C60.6215 14.4693 64.1 15.7645 65.4851 17.1548C67.1873 18.8677 73.9488 22.029 75.7092 45.422C76.0423 51.2901 78.1146 54.9219 78.9657 60.79C80.1711 69.0687 81.0539 79.9538 79.3516 88.1638Z" fill="black" fill-opacity="0.2"/>
<path d="M57.0056 -5.91014C56.6937 -4.32946 55.6839 -3.09241 54.4733 -2.60076C53.9869 0.719194 52.586 3.39419 50.0115 5.01716C48.4414 5.88944 46.1047 7.45425 43.7258 7.45425H41.8332C39.0367 7.45425 36.9115 5.91587 35.3308 5.01716C32.7615 3.39419 31.3553 0.719194 30.8743 -2.60076C29.6636 -3.09241 28.6539 -4.32946 28.342 -5.91014C27.9931 -7.68113 28.6222 -9.35168 29.8064 -10.1447C29.9703 -8.33666 30.2927 -6.82471 30.98 -6.63968C31.4716 -7.3798 31.4029 -13.4065 31.5404 -15.9123C38.7089 -13.7818 45.243 -20.6067 52.179 -16.9379C55.4566 -15.2039 53.8812 -5.62466 55.2187 -7.09432C55.4249 -7.31636 55.5888 -8.75959 55.7209 -10.0125C56.7888 -9.17722 57.3333 -7.59126 57.0056 -5.91014Z" fill="#FFEACA"/>
<path d="M78.9654 60.7903C78.1143 54.9222 76.042 51.2904 75.7089 45.4223C73.9485 22.0293 67.187 18.868 65.4848 17.1551C64.0997 15.7648 60.6212 14.4696 57.3541 13.5074C54.0817 12.5453 51.0208 11.9109 50.4763 11.8422C50.4763 11.8422 50.0217 11.6307 50.0217 11.3347H50.0111V5.88422C48.1978 7.30102 45.5123 8.37947 44.0162 8.37947H41.5474C39.7447 8.37947 37.0803 7.25344 35.3304 5.78906V11.3347H35.3199C35.3199 11.6994 34.8705 11.8422 34.8705 11.8422C33.7709 11.9849 22.6058 14.3691 19.8356 17.1499C18.1333 18.8627 11.393 21.4108 9.62205 45.4223C9.289 51.2904 7.22195 54.9222 6.37082 60.7903C5.16549 69.069 4.29322 79.954 5.99019 88.164C6.39725 90.1465 6.86247 93.5722 8.76562 96.3899C9.2837 97.1618 12.6882 102.036 13.4495 102.036C13.4548 102.036 13.4654 102.036 13.4706 102.031C15.0725 101.798 14.9667 99.0385 13.957 97.1406C12.6248 94.6506 12.2336 92.3669 12.408 90.9078C12.5138 90.0831 12.7358 89.7923 12.9737 89.7923C13.3068 89.7923 13.6662 90.3633 13.7561 90.8655C13.8354 91.299 14.7288 93.7519 15.6487 94.2964C15.9183 94.455 16.2619 94.5872 16.5685 94.5872C16.9967 94.5872 17.3721 94.3387 17.4355 93.5775C17.4355 93.5775 16.2566 89.5544 16.0135 88.7667C14.5227 83.993 12.8098 84.1991 13.0319 81.6827C13.3438 78.0932 16.0716 71.2365 17.2029 61.9851C17.5148 59.4369 18.2179 54.6685 19.0003 52.1468C19.8832 49.3079 22.2833 41.6213 23.293 38.3965C23.2824 38.3859 23.2771 38.3701 23.2719 38.3542C23.2507 38.3013 23.1714 38.0899 23.0287 37.6828C22.7696 36.9215 22.3309 35.6581 21.9502 34.7699C21.8339 34.5056 21.8075 34.3206 21.8709 34.2307C21.9449 34.1144 22.1247 34.162 22.3784 34.384C22.9282 34.8651 23.4569 35.7532 23.9961 37.0907C24.5353 38.4335 25.249 38.8617 25.7248 39.1472C27.3319 39.9084 30.065 40.2203 33.8608 40.2203C34.104 40.2203 34.363 40.2203 34.6273 40.2151H34.6696C35.0661 40.2151 35.1084 40.2732 35.1137 40.3261C35.119 40.3789 35.0872 40.4477 34.659 40.5375C33.5436 40.7649 31.836 41.0398 30.0598 41.0398C27.4958 41.0398 25.286 40.7173 24.0437 39.5014C24.197 40.9129 24.3344 42.5623 24.2974 43.4874C24.2234 45.4593 25.1274 59.474 24.8631 64.3006C24.8314 64.8874 24.6675 68.662 24.5353 70.3801C24.4878 71.0198 24.4402 71.707 24.3873 72.4419C24.4032 72.426 24.4085 72.4154 24.4085 72.4154L24.7045 72.5106C27.9504 73.5362 34.2678 73.7265 43.0963 73.7265H43.1016C51.909 73.7265 57.0263 73.5732 60.8221 72.389L60.9437 72.352C60.9014 71.6542 60.8591 70.9986 60.8115 70.3801C60.6793 68.662 60.5102 64.8874 60.4785 64.3006C60.2141 59.474 61.1234 45.4593 61.0441 43.4874C61.0071 42.5041 61.1657 40.7173 61.3243 39.2582C59.9921 40.6644 57.9462 41.0398 55.2131 41.0398C53.4421 41.0398 51.7345 40.7649 50.6138 40.5375C50.1909 40.4477 50.1591 40.3789 50.1644 40.3261C50.1644 40.2732 50.212 40.2151 50.6032 40.2151H50.6508C50.9151 40.2203 51.1689 40.2203 51.4173 40.2203C55.2131 40.2203 57.9462 39.9084 59.5586 39.1472C60.0291 38.8617 60.7428 38.4335 61.282 37.0907C61.7472 35.933 62.3763 35.0078 63.053 34.4792C63.3173 34.273 63.5023 34.236 63.5711 34.3523C63.6292 34.4474 63.5922 34.6272 63.46 34.8915C62.9895 35.8272 62.4768 37.1594 62.1966 37.8784C62.112 38.0952 62.0538 38.2485 62.0221 38.3172C63.016 41.4891 65.4531 49.2815 66.3412 52.1468C67.1236 54.6685 67.8267 59.4369 68.1386 61.9851C69.2752 71.2365 72.0031 78.0932 72.315 81.6827C72.5317 84.1991 70.8189 83.993 69.3334 88.7667C69.0849 89.5544 67.906 93.5775 67.906 93.5775C67.9695 94.3387 68.3448 94.5872 68.773 94.5872C69.0849 94.5872 69.4233 94.455 69.6929 94.2964C70.618 93.7519 71.5114 91.299 71.5854 90.8655C71.6753 90.3633 72.0348 89.7923 72.3679 89.7923C72.6058 89.7923 72.8331 90.0831 72.9335 90.9078C73.1133 92.3669 72.722 94.6506 71.3898 97.1406C70.3748 99.0385 70.2691 101.798 71.8709 102.031C71.8815 102.036 71.8868 102.036 71.8973 102.036C72.6586 102.036 76.0631 97.1618 76.5812 96.3899C78.4791 93.5722 78.9443 90.1465 79.3513 88.164C81.0536 79.954 80.1708 69.069 78.9654 60.7903ZM42.1976 19.661C42.5201 19.735 42.8426 19.7826 43.1386 19.809C43.9792 19.8777 44.3281 20.1949 43.588 20.4539C42.7157 20.7606 42.0337 20.4169 41.5791 20.0046C41.1033 19.5711 41.4047 19.4707 42.1976 19.661ZM27.1945 17.393C26.6182 17.2609 26.6447 17.1287 27.2473 17.134C29.7109 17.1763 35.6846 17.3507 37.8785 18.1332C40.4689 19.0583 31.8889 18.4768 27.1945 17.393ZM42.6417 67.3509C41.8487 67.3509 41.2143 67.0284 41.2143 66.6372C41.2143 66.246 41.8487 65.9235 42.6417 65.9235C43.4347 65.9235 44.0691 66.2407 44.0691 66.6372C44.0691 67.0337 43.4241 67.3509 42.6417 67.3509ZM58.0836 17.393C53.3892 18.4768 44.8092 19.0583 47.3996 18.1332C49.5935 17.3507 55.5673 17.1763 58.0308 17.134C58.6335 17.1287 58.6599 17.2556 58.0836 17.393Z" fill="#FFEACA"/>
<path d="M44.0691 66.637C44.0691 67.0282 43.4241 67.3507 42.6417 67.3507C41.8593 67.3507 41.2144 67.0282 41.2144 66.637C41.2144 66.2458 41.8487 65.9233 42.6417 65.9233C43.4347 65.9233 44.0691 66.2405 44.0691 66.637Z" fill="#333333"/>
<path d="M44.0691 66.637C44.0691 67.0282 43.4241 67.3507 42.6417 67.3507C41.8593 67.3507 41.2144 67.0282 41.2144 66.637C41.2144 66.2458 41.8487 65.9233 42.6417 65.9233C43.4347 65.9233 44.0691 66.2405 44.0691 66.637Z" fill="black" fill-opacity="0.2"/>
<path d="M27.1945 17.393C26.6182 17.2608 26.6447 17.1287 27.2473 17.1339C29.7109 17.1762 35.6846 17.3507 37.8785 18.1331C40.4689 19.0582 31.8889 18.4767 27.1945 17.393Z" fill="#DFCBAD"/>
<path d="M58.0837 17.3932C53.3893 18.477 44.8092 19.0585 47.3996 18.1333C49.5936 17.3509 55.5673 17.1765 58.0309 17.1342C58.6335 17.1289 58.6599 17.2558 58.0837 17.3932Z" fill="#DFCBAD"/>
<path d="M43.5884 20.4538C42.7161 20.7604 42.0341 20.4168 41.5795 20.0045C41.1037 19.571 41.405 19.4705 42.198 19.6608C42.5205 19.7349 42.843 19.7824 43.139 19.8089C43.9796 19.8776 44.3285 20.1948 43.5884 20.4538Z" fill="#DFCBAD"/>
<path d="M35.1142 40.3263C35.1195 40.3791 35.0878 40.4478 34.6596 40.5377C33.5441 40.765 31.8366 41.0399 30.0603 41.0399C27.4963 41.0399 25.2866 40.7175 24.0442 39.5016C23.7271 39.2002 23.4733 38.8355 23.2936 38.3967C23.283 38.3861 23.2777 38.3702 23.2724 38.3544C23.2513 38.3015 23.172 38.0901 23.0292 37.683C22.7702 36.9217 22.3314 35.6582 21.9508 34.7701C21.8345 34.5058 21.808 34.3207 21.8715 34.2309C21.9455 34.1146 22.1252 34.1621 22.379 34.3842C22.9288 34.8653 23.4574 35.7534 23.9967 37.0909C24.5359 38.4337 25.2496 38.8619 25.7254 39.1474C27.3325 39.9086 30.0656 40.2205 33.8613 40.2205C34.1045 40.2205 34.3635 40.2205 34.6279 40.2152H34.6702C35.0666 40.2152 35.109 40.2734 35.1142 40.3263Z" fill="#DFCBAD"/>
<path d="M63.4601 34.8914C62.9896 35.8271 62.4769 37.1594 62.1967 37.8783C62.1121 38.0951 62.0539 38.2484 62.0222 38.3171C62.0169 38.333 62.0116 38.3435 62.0063 38.3541C61.8055 38.6925 61.5781 38.9938 61.3244 39.2581C59.9922 40.6643 57.9463 41.0397 55.2132 41.0397C53.4422 41.0397 51.7346 40.7648 50.6139 40.5375C50.191 40.4476 50.1593 40.3789 50.1645 40.326C50.1645 40.2731 50.2121 40.215 50.6033 40.215H50.6509C50.9152 40.2203 51.169 40.2203 51.4174 40.2203C55.2132 40.2203 57.9463 39.9084 59.5587 39.1471C60.0292 38.8616 60.7429 38.4334 61.2821 37.0906C61.7473 35.9329 62.3764 35.0077 63.0531 34.4791C63.3174 34.2729 63.5024 34.2359 63.5712 34.3522C63.6293 34.4474 63.5923 34.6271 63.4601 34.8914Z" fill="#DFCBAD"/>
</g>
<defs>
<clipPath id="clip0_10960_4683">
<rect width="85" height="80" fill="white"/>
</clipPath>
</defs>
</svg>
