<svg width="85" height="80" viewBox="0 0 85 80" fill="none" xmlns="http://www.w3.org/2000/svg">
<g clip-path="url(#clip0_8984_52236)">
<path d="M51.6997 -0.118652C51.0802 0.796612 50.0421 1.57236 48.9148 2.18625C47.0005 3.21872 44.8296 3.78797 44.0036 3.78797H41.5424C40.6942 3.78797 38.5734 3.26895 36.6313 2.18625C35.5653 1.59468 34.5552 0.824517 33.8408 -0.118652C33.8408 -0.118652 35.024 0.595692 36.5699 1.33795C38.2665 2.15276 40.3928 3.00663 41.8661 3.00663H43.6799C45.1589 3.00663 47.2963 2.14717 48.9873 1.33236C50.5221 0.590106 51.6997 -0.118652 51.6997 -0.118652Z" fill="#DFCBAD"/>
<path d="M29.6045 13.9174H29.5989C29.091 13.7779 29.1078 13.6328 29.61 13.6383H29.6435C31.848 13.683 37.1945 13.8727 39.1589 14.7322C41.4806 15.7368 33.8069 15.1061 29.6045 13.9174Z" fill="#DFCBAD"/>
<path d="M55.3494 13.9169C51.147 15.1056 43.4677 15.7362 45.7838 14.7317C47.7483 13.8722 53.1003 13.6825 55.3048 13.6378C55.8405 13.6267 55.8629 13.7718 55.3494 13.9169Z" fill="#DFCBAD"/>
<path d="M42.8033 17.1484C42.2508 17.4609 41.8266 17.1093 41.5364 16.6852C41.2351 16.2443 41.4248 16.1438 41.9271 16.3336C42.128 16.4117 42.3345 16.4563 42.5242 16.4842C43.0544 16.5568 43.2721 16.8805 42.8033 17.1484Z" fill="#DFCBAD"/>
<path d="M63.1457 73.7722C62.9113 72.4942 62.61 71.2664 62.2639 70.0889C59.2614 70.5409 50.4604 71.8859 42.7699 71.8859C35.0794 71.8859 26.2784 70.5409 23.2815 70.0889C22.9355 71.2664 22.6341 72.4942 22.3997 73.7722C22.1597 75.0614 21.9644 76.2948 21.8081 77.5003C28.3656 77.0203 36.3798 80.0675 41.9718 84.3592H43.6015C49.1935 80.0675 57.1798 77.0203 63.7373 77.5003C63.5755 76.2948 63.3857 75.0614 63.1457 73.7722Z" fill="#333333"/>
<path d="M63.1457 73.7722C62.9113 72.4942 62.61 71.2664 62.2639 70.0889C59.2614 70.5409 50.4604 71.8859 42.7699 71.8859C35.0794 71.8859 26.2784 70.5409 23.2815 70.0889C22.9355 71.2664 22.6341 72.4942 22.3997 73.7722C22.1597 75.0614 21.9644 76.2948 21.8081 77.5003C28.3656 77.0203 36.3798 80.0675 41.9718 84.3592H43.6015C49.1935 80.0675 57.1798 77.0203 63.7373 77.5003C63.5755 76.2948 63.3857 75.0614 63.1457 73.7722Z" fill="black" fill-opacity="0.2"/>
<path d="M64.0163 77.4668C63.8489 76.2055 63.6535 74.9778 63.4191 73.7221C63.1959 72.4998 62.9057 71.2832 62.5318 70.0108L62.4648 69.7764L62.3922 69.7875L62.1355 69.8266C58.9209 70.3121 50.3654 71.6069 42.7699 71.6069C35.1743 71.6069 26.6244 70.3121 23.4042 69.8266L23.1475 69.7875L23.0805 69.7764L23.0135 70.0108C22.6396 71.2832 22.3494 72.4943 22.1262 73.7221C21.8918 74.9778 21.6964 76.2055 21.529 77.4668L21.4844 77.8073L21.7857 77.7849H21.8248C27.8968 77.3329 35.95 80.0898 41.7988 84.5824L41.849 84.616L41.8769 84.6383H43.6963L43.7688 84.5824C49.6176 80.0898 57.6596 77.3329 63.7149 77.7794H63.7596L64.0609 77.8073L64.0163 77.4668ZM43.7354 83.9072C43.6572 83.963 43.5791 84.0244 43.5065 84.0802H42.0667C41.983 84.0132 41.8992 83.9518 41.8099 83.8904C36.0002 79.5485 28.1926 76.8697 22.1262 77.1989C22.2824 76.066 22.461 74.961 22.6731 73.8225C22.8796 72.6896 23.1475 71.5678 23.4823 70.4014C26.8253 70.9093 35.258 72.165 42.7699 72.165C50.2817 72.165 58.72 70.9093 62.063 70.4014C62.3978 71.5734 62.6601 72.6952 62.8722 73.8225C63.0787 74.961 63.2573 76.066 63.4136 77.1989C57.3527 76.8752 49.5506 79.5541 43.7354 83.9072Z" fill="#333333"/>
<path d="M64.0163 77.4668C63.8489 76.2055 63.6535 74.9778 63.4191 73.7221C63.1959 72.4998 62.9057 71.2832 62.5318 70.0108L62.4648 69.7764L62.3922 69.7875L62.1355 69.8266C58.9209 70.3121 50.3654 71.6069 42.7699 71.6069C35.1743 71.6069 26.6244 70.3121 23.4042 69.8266L23.1475 69.7875L23.0805 69.7764L23.0135 70.0108C22.6396 71.2832 22.3494 72.4943 22.1262 73.7221C21.8918 74.9778 21.6964 76.2055 21.529 77.4668L21.4844 77.8073L21.7857 77.7849H21.8248C27.8968 77.3329 35.95 80.0898 41.7988 84.5824L41.849 84.616L41.8769 84.6383H43.6963L43.7688 84.5824C49.6176 80.0898 57.6596 77.3329 63.7149 77.7794H63.7596L64.0609 77.8073L64.0163 77.4668ZM43.7354 83.9072C43.6572 83.963 43.5791 84.0244 43.5065 84.0802H42.0667C41.983 84.0132 41.8992 83.9518 41.8099 83.8904C36.0002 79.5485 28.1926 76.8697 22.1262 77.1989C22.2824 76.066 22.461 74.961 22.6731 73.8225C22.8796 72.6896 23.1475 71.5678 23.4823 70.4014C26.8253 70.9093 35.258 72.165 42.7699 72.165C50.2817 72.165 58.72 70.9093 62.063 70.4014C62.3978 71.5734 62.6601 72.6952 62.8722 73.8225C63.0787 74.961 63.2573 76.066 63.4136 77.1989C57.3527 76.8752 49.5506 79.5541 43.7354 83.9072Z" fill="black" fill-opacity="0.2"/>
<path d="M42.5858 62.4711C43.2793 62.4711 43.8415 62.0963 43.8415 61.634C43.8415 61.1717 43.2793 60.7969 42.5858 60.7969C41.8923 60.7969 41.3301 61.1717 41.3301 61.634C41.3301 62.0963 41.8923 62.4711 42.5858 62.4711Z" fill="#333333"/>
<path d="M42.5858 62.4711C43.2793 62.4711 43.8415 62.0963 43.8415 61.634C43.8415 61.1717 43.2793 60.7969 42.5858 60.7969C41.8923 60.7969 41.3301 61.1717 41.3301 61.634C41.3301 62.0963 41.8923 62.4711 42.5858 62.4711Z" fill="black" fill-opacity="0.2"/>
<path d="M78.9566 86.8983C78.644 84.7664 77.7232 81.0942 76.847 79.0181C76.8191 78.9623 76.7912 78.9065 76.7577 78.8507C75.6248 77.0872 75.2397 73.3256 74.7932 68.967C74.4193 65.3003 73.9952 61.1426 73.0129 57.169C72.7339 56.0305 72.4772 55.0203 72.2372 54.0883C71.1712 49.9306 70.5238 47.4192 70.1723 42.3573C69.5751 33.8241 69.0505 27.1662 68.7715 24.5487C67.8227 16.2109 63.425 13.0856 59.8253 11.6569C58.6645 11.1937 57.5874 10.909 56.7335 10.6858C56.3205 10.5742 55.9689 10.4793 55.6675 10.3844C54.2277 9.93797 50.5331 7.84514 50.321 6.3662C50.0811 4.72542 50.0308 2.86139 50.0253 1.95171C52.4306 0.0821095 53.6305 -2.49066 54.6518 -5.73873C54.6574 -5.74431 54.6574 -5.75549 54.663 -5.76665C55.3439 -8.13852 55.6898 -11.381 55.8573 -13.658C55.9745 -15.176 56.008 -16.2643 56.008 -16.3703V-16.4038C56.008 -17.6204 55.9131 -18.7813 55.7178 -19.8807C55.2155 -22.7548 54.0602 -25.1825 52.3078 -27.0186C50.3824 -29.0333 47.8431 -30.2388 45.0583 -30.4788C44.7178 -30.5067 44.3718 -30.5234 44.0202 -30.5234H41.5312C38.3389 -30.5234 35.3978 -29.2789 33.238 -27.0186C30.8159 -24.4793 29.5378 -20.8071 29.5378 -16.4038V-16.3703C29.5434 -16.2252 29.6048 -14.2887 29.8392 -11.9168C30.0345 -9.90766 30.3582 -7.58043 30.8828 -5.76665C30.8884 -5.75549 30.8884 -5.74431 30.894 -5.73873C31.9153 -2.49066 33.1152 0.0821095 35.5206 1.95171C35.515 2.86139 35.4647 4.72542 35.2248 6.3662C35.0127 7.84514 31.3181 9.93797 29.8783 10.3844C29.5769 10.4793 29.2253 10.5742 28.8123 10.6858C27.8189 10.9481 26.5186 11.2885 25.1401 11.8968C21.6632 13.4316 17.6729 16.6518 16.7744 24.5431C16.4953 27.1662 15.9707 33.8241 15.3736 42.3573C15.022 47.4192 14.3746 49.9306 13.3086 54.0883C13.0687 55.0203 12.8119 56.0305 12.5329 57.169C11.5507 61.1426 11.1265 65.3003 10.7526 68.967C10.3061 73.3256 9.92105 77.0872 8.78813 78.8507C8.75464 78.9065 8.72674 78.9623 8.69883 79.0181C7.82263 81.0942 6.90179 84.7664 6.58926 86.8983C6.44416 87.8917 6.94084 93.0875 7.08595 93.9079C7.10269 94.014 7.11943 94.1479 7.13617 94.2986C7.25337 95.2752 7.40964 96.6146 8.51465 96.9997C8.60953 97.0332 8.70998 97.0556 8.81044 97.0611C8.86067 97.0611 8.91091 97.0611 8.96113 97.0611C11.3777 97.0611 12.1088 93.7294 12.8175 90.5092C12.9124 90.0627 13.0296 89.5381 13.1524 89.0247C13.1691 90.0571 13.3142 91.19 13.7997 91.7704C14.0509 92.0718 14.3355 92.3062 14.6369 92.4625C14.8992 92.5909 15.1671 92.6578 15.435 92.6578C15.7028 92.6578 16.6627 92.5629 17.0813 91.324C17.1036 91.257 17.1204 91.19 17.126 91.1175C17.3827 89.2535 17.8459 86.0891 17.9966 85.5143C18.8505 82.322 18.2589 80.7147 17.8236 79.5427C17.511 78.6944 17.338 78.2312 17.6841 77.249C17.6841 77.2378 17.6952 77.2267 17.6952 77.2155C19.0849 72.8457 20.3015 69.2237 21.373 66.0314C24.4481 56.8788 26.3065 51.3481 26.926 43.2893C26.9372 43.2112 26.9539 43.1275 26.9651 43.0437C27.1827 48.2396 26.7753 54.027 26.2507 55.4557L25.648 57.0853C23.2426 63.6149 23.0473 64.1451 21.3005 73.5656C19.6318 82.5676 19.8104 91.1621 21.8641 100.605C22.1822 102.073 22.8296 104.657 23.583 107.642C25.341 114.646 27.752 124.246 27.925 127.46C28.1035 130.798 27.858 133.46 27.6794 135.396C27.6069 136.166 27.5455 136.825 27.5232 137.4C27.1604 145.805 27.8134 152.362 30.029 162.458C30.5424 164.813 31.1117 166.627 31.5637 168.078C32.2334 170.215 32.7189 171.761 32.652 173.698C32.6185 174.697 32.4622 175.149 32.3729 175.327C31.9153 176.243 31.8149 177.046 31.7256 177.755C31.6698 178.218 31.6195 178.654 31.4688 179.111C31.2344 179.848 30.7321 180.501 30.1573 181.26C29.9173 181.572 29.6774 181.891 29.4262 182.248C28.617 183.051 28.2431 183.894 28.3212 184.759C28.4273 185.937 29.3537 186.573 29.4541 186.645C29.5378 186.696 29.6271 186.74 29.722 186.768C30.2522 186.947 30.9665 186.997 32.6687 186.997C36.1456 186.997 37.7306 186.997 40.3201 186.751C40.3703 186.746 40.415 186.74 40.4652 186.729C42.3515 186.294 42.1339 183.922 41.9721 182.192C41.9218 181.673 41.8549 180.964 41.9051 180.735C41.9441 180.568 42.039 180.384 42.1618 180.155C42.3795 179.747 42.6473 179.251 42.759 178.531C42.7645 178.492 42.7701 178.453 42.7757 178.408L42.7924 178.525C42.8985 179.251 43.1664 179.747 43.384 180.155C43.5068 180.384 43.6072 180.568 43.6407 180.735C43.691 180.964 43.624 181.673 43.5738 182.192C43.4119 183.922 43.1943 186.294 45.0806 186.729C45.1308 186.74 45.1755 186.746 45.2257 186.751C47.8152 186.997 49.4002 186.997 52.8771 186.997C54.5793 186.997 55.2936 186.947 55.8238 186.768C55.9187 186.74 56.008 186.696 56.0917 186.645C56.1922 186.573 57.1186 185.937 57.2246 184.759C57.3027 183.894 56.9288 183.051 56.1196 182.248C55.8685 181.891 55.6285 181.572 55.3885 181.26C54.8137 180.501 54.3114 179.848 54.077 179.111C53.9263 178.654 53.8761 178.218 53.8203 177.755C53.731 177.046 53.6305 176.243 53.1729 175.327C53.0836 175.149 52.9273 174.697 52.8938 173.698C52.8269 171.761 53.3124 170.215 53.9821 168.078C54.4342 166.627 55.0034 164.813 55.5168 162.458C57.7325 152.362 58.3854 145.805 58.0227 137.4C58.0003 136.825 57.939 136.166 57.8664 135.396C57.6878 133.46 57.4423 130.798 57.6209 127.46C57.7939 124.246 60.2048 114.646 61.9628 107.642C62.7162 104.657 63.3636 102.073 63.6817 100.605C65.7355 91.1621 65.914 82.5676 64.2454 73.5656C62.5041 64.1451 62.3032 63.6149 59.8979 57.0853L59.2951 55.4557C58.7705 54.027 58.3631 48.2396 58.5807 43.0437C58.5975 43.1275 58.6087 43.2112 58.6198 43.2893C59.2393 51.3481 61.0977 56.8788 64.1728 66.0314C65.2499 69.2237 66.4666 72.8457 67.8506 77.2155C67.8506 77.2267 67.8562 77.2378 67.8618 77.249C68.2078 78.2312 68.0348 78.6944 67.7222 79.5427C67.2869 80.7147 66.6954 82.322 67.5492 85.5199C67.6999 86.0891 68.1631 89.2535 68.4198 91.1175C68.4254 91.19 68.4422 91.257 68.4645 91.324C68.8831 92.5629 69.8318 92.6578 70.1109 92.6578C70.3899 92.6578 70.6466 92.5909 70.9034 92.4625C71.2103 92.3062 71.4949 92.0718 71.7461 91.7649C72.2316 91.1901 72.3767 90.0571 72.3934 89.0247C72.5218 89.5381 72.6334 90.0627 72.7339 90.5092C73.4371 93.7294 74.1682 97.0611 76.5847 97.0611C76.6349 97.0611 76.6852 97.0611 76.7354 97.0611C76.8358 97.0556 76.9363 97.0332 77.0312 96.9997C78.1417 96.6146 78.2924 95.2752 78.4096 94.2986C78.4264 94.1479 78.4431 94.014 78.4599 93.9079C78.605 93.0875 79.1017 87.8917 78.9566 86.8983ZM42.7757 127.025C42.9096 128.537 43.0771 129.849 43.2333 131.021C43.3505 131.936 43.4621 132.796 43.5347 133.588C43.6631 135.039 43.5794 136.585 43.4454 138.929C43.278 141.809 43.0547 145.749 43.0547 152.184C43.0547 157.095 43.1552 160.906 43.2333 163.965C43.3784 169.367 43.4677 172.682 42.8762 176.488C42.865 176.611 42.8427 176.723 42.8259 176.84C42.8036 176.968 42.7869 177.091 42.7757 177.214C42.759 177.091 42.7422 176.968 42.7199 176.84C42.6808 176.6 42.6418 176.365 42.6139 176.131C42.0837 172.47 42.173 169.188 42.3125 163.965C42.3906 160.906 42.4911 157.095 42.4911 152.184C42.4911 145.749 42.2678 141.809 42.106 138.929C41.972 136.585 41.8828 135.039 42.0111 133.588C42.0837 132.796 42.1953 131.936 42.3181 131.021C42.4688 129.849 42.6418 128.537 42.7757 127.025ZM77.2321 94.6948C77.1484 95.2585 77.0033 95.8278 76.6628 95.9505H76.5847C73.7663 95.9505 73.9505 85.7598 71.8744 85.7598C71.7907 85.7598 71.707 85.7766 71.6121 85.8156C71.5396 85.838 71.4726 85.8659 71.4168 85.8994C70.9368 86.1394 71.0764 86.4128 71.1824 87.0769C71.3163 87.8527 71.3945 90.459 70.8922 91.0617C70.7415 91.2403 70.5741 91.3854 70.4066 91.4691C70.3062 91.5193 70.2057 91.5472 70.1109 91.5472C69.8765 91.5472 69.6644 91.3798 69.5249 90.9724C69.5249 90.9724 68.8552 86.0835 68.6263 85.2352C67.2423 80.0618 69.9825 79.9111 68.911 76.8806C63.4752 59.7362 60.5396 53.826 59.7304 43.1665C59.5016 41.7657 59.3677 40.4765 59.2784 39.3436C59.0551 36.4248 59.1668 34.5608 58.9379 34.5608H58.9324C58.2459 35.8723 57.8329 38.2107 57.6097 40.8839C57.1353 46.6769 57.5874 54.0381 58.2459 55.8463C60.7852 62.7443 61.2038 63.6093 62.3925 69.7874C62.6157 70.9147 62.8557 72.2206 63.1459 73.7721C63.224 74.1851 63.2966 74.6037 63.3636 75.0111C63.3971 75.2176 63.4305 75.424 63.464 75.6249C63.464 75.6417 63.4696 75.6584 63.4696 75.6696C63.531 76.0491 63.5868 76.4286 63.637 76.8081C63.6538 76.9197 63.6705 77.0369 63.6873 77.1541C63.6984 77.2713 63.7152 77.3885 63.7263 77.5002C63.7431 77.595 63.7542 77.6899 63.7598 77.7847C64.7421 85.6873 64.184 93.0429 62.5878 100.376C61.5275 105.271 56.7614 122.683 56.5103 127.404C56.2535 132.12 56.8228 135.458 56.9065 137.456C57.2469 145.347 56.7279 151.72 54.4286 162.229C53.1617 168.005 51.6549 170.204 51.7777 173.742C51.8111 174.602 51.9284 175.333 52.1795 175.835C52.8213 177.119 52.5869 178.135 53.0166 179.463C53.424 180.741 54.3672 181.684 55.2657 182.979C57.0516 184.681 55.4778 185.713 55.4778 185.713C55.0871 185.842 54.423 185.886 52.8771 185.886C52.1348 185.886 51.4819 185.886 50.8903 185.881C50.6168 185.881 50.3545 185.881 50.1034 185.875C49.4672 185.875 48.8924 185.864 48.3398 185.847C48.0329 185.836 47.7315 185.82 47.4246 185.803C46.766 185.769 46.0963 185.719 45.3317 185.646C43.9254 185.323 44.9857 181.69 44.7346 180.506C44.5951 179.865 44.1598 179.441 43.9588 178.676C43.9254 178.559 43.903 178.436 43.8807 178.302C43.8751 178.246 43.8696 178.19 43.864 178.135C43.8417 177.822 43.8528 177.459 43.9254 177.018C44.0426 176.287 44.1374 175.584 44.21 174.881C44.7848 169.501 44.1709 164.367 44.1709 152.184C44.1709 140 44.9467 136.814 44.6453 133.488C44.3774 130.53 43.6073 126.997 43.6519 121.07C43.7412 108.837 43.1887 93.2159 43.691 84.6381C43.6965 84.5153 43.7077 84.3925 43.7133 84.2753C43.7189 84.1525 43.73 84.0298 43.7356 83.907C43.7524 83.6838 43.7691 83.4717 43.7858 83.2596C44.0091 80.4859 43.1664 78.5549 42.7701 77.6732C42.3795 78.5549 41.5367 80.4859 41.76 83.2596C41.7767 83.4661 41.7935 83.6782 41.8102 83.8902C41.8158 84.013 41.8214 84.1246 41.8269 84.2474C41.8381 84.3758 41.8437 84.4874 41.8493 84.6158C42.3571 93.1936 41.8046 108.831 41.8939 121.07C41.9386 126.997 41.1684 130.53 40.9005 133.488C40.5991 136.814 41.3749 140.324 41.3749 152.184C41.3749 164.043 40.7666 169.423 41.3247 174.758C41.3972 175.506 41.4921 176.248 41.6205 177.018C41.693 177.459 41.7042 177.822 41.6819 178.135C41.6763 178.185 41.6707 178.235 41.6651 178.28C41.6484 178.43 41.6204 178.57 41.5814 178.698C41.3805 179.446 40.9507 179.87 40.8168 180.506C40.5601 181.69 41.6205 185.323 40.2141 185.646C39.4495 185.719 38.7798 185.769 38.1212 185.803C37.8199 185.82 37.5185 185.836 37.206 185.847C36.6535 185.864 36.0842 185.875 35.448 185.881H34.6555C34.0639 185.886 33.411 185.886 32.6687 185.886C31.1228 185.886 30.4587 185.842 30.068 185.713C30.068 185.713 28.4942 184.681 30.2801 182.979C31.1786 181.684 32.1218 180.741 32.5348 179.463C32.9589 178.135 32.7245 177.119 33.3719 175.835C33.6175 175.333 33.7402 174.602 33.7681 173.742C33.8909 170.204 32.3841 168.005 31.1172 162.229C28.8179 151.72 28.2989 145.347 28.6393 137.456C28.723 135.458 29.2923 132.12 29.0411 127.404C28.7844 122.683 24.0183 105.271 22.958 100.376C21.3618 93.0429 20.8038 85.6873 21.786 77.7847C21.7916 77.6899 21.8028 77.595 21.8195 77.5002C21.8474 77.2713 21.8809 77.0425 21.9088 76.8137C21.9423 76.5737 21.9758 76.3281 22.0092 76.0826C22.0483 75.837 22.0874 75.5915 22.1264 75.3459C22.1376 75.2957 22.1432 75.2455 22.1488 75.1952C22.2269 74.7264 22.3106 74.2465 22.3999 73.7721C22.6845 72.2206 22.9301 70.9147 23.1477 69.7874C24.342 63.6093 24.7606 62.7443 27.2999 55.8463C27.9585 54.0381 28.4105 46.6769 27.9361 40.8839C27.7129 38.2107 27.2999 35.8723 26.6135 34.5608H26.6079C26.3846 34.5608 26.4963 36.4248 26.2675 39.3436C26.1782 40.4765 26.0442 41.7657 25.8154 43.1665C25.0062 53.826 22.0706 59.7362 16.6348 76.8806C15.5633 79.9111 18.3035 80.0618 16.9195 85.2352C16.6907 86.0835 16.0209 90.9724 16.0209 90.9724C15.8814 91.3798 15.6694 91.5472 15.435 91.5472C15.3401 91.5472 15.2396 91.5193 15.1392 91.4691C14.9773 91.3854 14.8099 91.2403 14.6592 91.0617C14.1514 90.459 14.2351 87.8527 14.3634 87.0769C14.4695 86.4128 14.609 86.1394 14.129 85.8994C14.0732 85.8659 14.0063 85.838 13.9337 85.8156C13.8444 85.7766 13.7551 85.7598 13.6714 85.7598C11.6009 85.7598 11.7795 95.9505 8.96113 95.9505H8.88299C8.54256 95.8278 8.39746 95.2641 8.31375 94.6948C8.25236 94.3209 8.22445 93.947 8.18538 93.7126C8.12957 93.3889 8.04029 92.5964 7.95099 91.6644C7.78357 89.8729 7.62171 87.5625 7.69426 87.0602C7.99005 85.0343 8.87742 81.4626 9.72571 79.4535C12.0362 75.865 11.4614 66.1654 13.6156 57.4369C15.1447 51.2477 16.0433 48.753 16.4897 42.4355C17.1036 33.6344 17.6115 27.1996 17.885 24.6715C18.6998 17.5335 22.0762 14.5366 25.2629 13.0577C25.3857 12.9963 25.5029 12.9405 25.6256 12.8958C25.7428 12.84 25.8656 12.7954 25.9828 12.7451C26.1 12.6949 26.2172 12.6503 26.3344 12.6056C26.5744 12.5163 26.8032 12.4326 27.032 12.3601C27.2218 12.2987 27.4171 12.2373 27.6013 12.1759C28.3938 11.9415 29.1137 11.7629 29.7164 11.5955C29.895 11.5453 30.0569 11.5006 30.2131 11.4504C31.2623 11.1267 35.9894 8.88874 36.3298 6.52245C36.5642 4.94306 36.62 3.17952 36.6311 2.18613C36.6423 1.69501 36.6367 1.38807 36.6367 1.38807C36.6144 1.37132 36.5921 1.35456 36.5698 1.33782C34.0639 -0.425737 32.9366 -2.95946 31.9544 -6.07359C31.4298 -7.92086 31.1117 -10.343 30.9163 -12.3856C30.7098 -14.6291 30.654 -16.4038 30.654 -16.4038C30.654 -25.3221 36.0842 -29.4073 41.5256 -29.4073H44.0202C49.4616 -29.4073 54.8918 -25.3221 54.8918 -16.4038C54.8918 -16.4038 54.8639 -15.5611 54.7802 -14.2998C54.6295 -12.0786 54.3002 -8.54592 53.5914 -6.07359C52.6092 -2.96504 51.4819 -0.436905 48.9872 1.33224C48.9649 1.34898 48.937 1.37132 48.9091 1.38807C48.9091 1.38807 48.9091 1.69501 48.9147 2.18613C48.9258 3.17952 48.9817 4.94306 49.216 6.52245C49.5565 8.88874 54.289 11.1267 55.3327 11.4504C55.4666 11.4894 55.6061 11.5341 55.7568 11.5732C55.7791 11.5788 55.8071 11.5899 55.8294 11.5955C55.9522 11.629 56.0805 11.6625 56.2089 11.6959C56.5381 11.7852 56.8953 11.8801 57.2748 11.9862C57.4925 12.042 57.7157 12.1033 57.9446 12.1759C58.0897 12.2205 58.2403 12.2652 58.391 12.3154C58.4133 12.3266 58.4301 12.3322 58.4524 12.3378C58.6589 12.4047 58.8654 12.4717 59.0775 12.5554C59.284 12.6279 59.5016 12.7117 59.7137 12.8009C63.0511 14.1906 66.7958 17.1038 67.6609 24.6715C67.9343 27.1996 68.4422 33.6344 69.0617 42.4355C69.5026 48.753 70.4011 51.2477 71.9302 57.4369C74.0845 66.1654 73.5152 75.865 75.8201 79.4535C76.6684 81.4626 77.5558 85.0343 77.8516 87.0602C77.9241 87.5625 77.7623 89.8729 77.5948 91.6644C77.5055 92.5964 77.4162 93.3889 77.3604 93.7126C77.3158 93.947 77.2879 94.3153 77.2321 94.6893V94.6948Z" fill="#333333"/>
<path d="M78.9566 86.8983C78.644 84.7664 77.7232 81.0942 76.847 79.0181C76.8191 78.9623 76.7912 78.9065 76.7577 78.8507C75.6248 77.0872 75.2397 73.3256 74.7932 68.967C74.4193 65.3003 73.9952 61.1426 73.0129 57.169C72.7339 56.0305 72.4772 55.0203 72.2372 54.0883C71.1712 49.9306 70.5238 47.4192 70.1723 42.3573C69.5751 33.8241 69.0505 27.1662 68.7715 24.5487C67.8227 16.2109 63.425 13.0856 59.8253 11.6569C58.6645 11.1937 57.5874 10.909 56.7335 10.6858C56.3205 10.5742 55.9689 10.4793 55.6675 10.3844C54.2277 9.93797 50.5331 7.84514 50.321 6.3662C50.0811 4.72542 50.0308 2.86139 50.0253 1.95171C52.4306 0.0821095 53.6305 -2.49066 54.6518 -5.73873C54.6574 -5.74431 54.6574 -5.75549 54.663 -5.76665C55.3439 -8.13852 55.6898 -11.381 55.8573 -13.658C55.9745 -15.176 56.008 -16.2643 56.008 -16.3703V-16.4038C56.008 -17.6204 55.9131 -18.7813 55.7178 -19.8807C55.2155 -22.7548 54.0602 -25.1825 52.3078 -27.0186C50.3824 -29.0333 47.8431 -30.2388 45.0583 -30.4788C44.7178 -30.5067 44.3718 -30.5234 44.0202 -30.5234H41.5312C38.3389 -30.5234 35.3978 -29.2789 33.238 -27.0186C30.8159 -24.4793 29.5378 -20.8071 29.5378 -16.4038V-16.3703C29.5434 -16.2252 29.6048 -14.2887 29.8392 -11.9168C30.0345 -9.90766 30.3582 -7.58043 30.8828 -5.76665C30.8884 -5.75549 30.8884 -5.74431 30.894 -5.73873C31.9153 -2.49066 33.1152 0.0821095 35.5206 1.95171C35.515 2.86139 35.4647 4.72542 35.2248 6.3662C35.0127 7.84514 31.3181 9.93797 29.8783 10.3844C29.5769 10.4793 29.2253 10.5742 28.8123 10.6858C27.8189 10.9481 26.5186 11.2885 25.1401 11.8968C21.6632 13.4316 17.6729 16.6518 16.7744 24.5431C16.4953 27.1662 15.9707 33.8241 15.3736 42.3573C15.022 47.4192 14.3746 49.9306 13.3086 54.0883C13.0687 55.0203 12.8119 56.0305 12.5329 57.169C11.5507 61.1426 11.1265 65.3003 10.7526 68.967C10.3061 73.3256 9.92105 77.0872 8.78813 78.8507C8.75464 78.9065 8.72674 78.9623 8.69883 79.0181C7.82263 81.0942 6.90179 84.7664 6.58926 86.8983C6.44416 87.8917 6.94084 93.0875 7.08595 93.9079C7.10269 94.014 7.11943 94.1479 7.13617 94.2986C7.25337 95.2752 7.40964 96.6146 8.51465 96.9997C8.60953 97.0332 8.70998 97.0556 8.81044 97.0611C8.86067 97.0611 8.91091 97.0611 8.96113 97.0611C11.3777 97.0611 12.1088 93.7294 12.8175 90.5092C12.9124 90.0627 13.0296 89.5381 13.1524 89.0247C13.1691 90.0571 13.3142 91.19 13.7997 91.7704C14.0509 92.0718 14.3355 92.3062 14.6369 92.4625C14.8992 92.5909 15.1671 92.6578 15.435 92.6578C15.7028 92.6578 16.6627 92.5629 17.0813 91.324C17.1036 91.257 17.1204 91.19 17.126 91.1175C17.3827 89.2535 17.8459 86.0891 17.9966 85.5143C18.8505 82.322 18.2589 80.7147 17.8236 79.5427C17.511 78.6944 17.338 78.2312 17.6841 77.249C17.6841 77.2378 17.6952 77.2267 17.6952 77.2155C19.0849 72.8457 20.3015 69.2237 21.373 66.0314C24.4481 56.8788 26.3065 51.3481 26.926 43.2893C26.9372 43.2112 26.9539 43.1275 26.9651 43.0437C27.1827 48.2396 26.7753 54.027 26.2507 55.4557L25.648 57.0853C23.2426 63.6149 23.0473 64.1451 21.3005 73.5656C19.6318 82.5676 19.8104 91.1621 21.8641 100.605C22.1822 102.073 22.8296 104.657 23.583 107.642C25.341 114.646 27.752 124.246 27.925 127.46C28.1035 130.798 27.858 133.46 27.6794 135.396C27.6069 136.166 27.5455 136.825 27.5232 137.4C27.1604 145.805 27.8134 152.362 30.029 162.458C30.5424 164.813 31.1117 166.627 31.5637 168.078C32.2334 170.215 32.7189 171.761 32.652 173.698C32.6185 174.697 32.4622 175.149 32.3729 175.327C31.9153 176.243 31.8149 177.046 31.7256 177.755C31.6698 178.218 31.6195 178.654 31.4688 179.111C31.2344 179.848 30.7321 180.501 30.1573 181.26C29.9173 181.572 29.6774 181.891 29.4262 182.248C28.617 183.051 28.2431 183.894 28.3212 184.759C28.4273 185.937 29.3537 186.573 29.4541 186.645C29.5378 186.696 29.6271 186.74 29.722 186.768C30.2522 186.947 30.9665 186.997 32.6687 186.997C36.1456 186.997 37.7306 186.997 40.3201 186.751C40.3703 186.746 40.415 186.74 40.4652 186.729C42.3515 186.294 42.1339 183.922 41.9721 182.192C41.9218 181.673 41.8549 180.964 41.9051 180.735C41.9441 180.568 42.039 180.384 42.1618 180.155C42.3795 179.747 42.6473 179.251 42.759 178.531C42.7645 178.492 42.7701 178.453 42.7757 178.408L42.7924 178.525C42.8985 179.251 43.1664 179.747 43.384 180.155C43.5068 180.384 43.6072 180.568 43.6407 180.735C43.691 180.964 43.624 181.673 43.5738 182.192C43.4119 183.922 43.1943 186.294 45.0806 186.729C45.1308 186.74 45.1755 186.746 45.2257 186.751C47.8152 186.997 49.4002 186.997 52.8771 186.997C54.5793 186.997 55.2936 186.947 55.8238 186.768C55.9187 186.74 56.008 186.696 56.0917 186.645C56.1922 186.573 57.1186 185.937 57.2246 184.759C57.3027 183.894 56.9288 183.051 56.1196 182.248C55.8685 181.891 55.6285 181.572 55.3885 181.26C54.8137 180.501 54.3114 179.848 54.077 179.111C53.9263 178.654 53.8761 178.218 53.8203 177.755C53.731 177.046 53.6305 176.243 53.1729 175.327C53.0836 175.149 52.9273 174.697 52.8938 173.698C52.8269 171.761 53.3124 170.215 53.9821 168.078C54.4342 166.627 55.0034 164.813 55.5168 162.458C57.7325 152.362 58.3854 145.805 58.0227 137.4C58.0003 136.825 57.939 136.166 57.8664 135.396C57.6878 133.46 57.4423 130.798 57.6209 127.46C57.7939 124.246 60.2048 114.646 61.9628 107.642C62.7162 104.657 63.3636 102.073 63.6817 100.605C65.7355 91.1621 65.914 82.5676 64.2454 73.5656C62.5041 64.1451 62.3032 63.6149 59.8979 57.0853L59.2951 55.4557C58.7705 54.027 58.3631 48.2396 58.5807 43.0437C58.5975 43.1275 58.6087 43.2112 58.6198 43.2893C59.2393 51.3481 61.0977 56.8788 64.1728 66.0314C65.2499 69.2237 66.4666 72.8457 67.8506 77.2155C67.8506 77.2267 67.8562 77.2378 67.8618 77.249C68.2078 78.2312 68.0348 78.6944 67.7222 79.5427C67.2869 80.7147 66.6954 82.322 67.5492 85.5199C67.6999 86.0891 68.1631 89.2535 68.4198 91.1175C68.4254 91.19 68.4422 91.257 68.4645 91.324C68.8831 92.5629 69.8318 92.6578 70.1109 92.6578C70.3899 92.6578 70.6466 92.5909 70.9034 92.4625C71.2103 92.3062 71.4949 92.0718 71.7461 91.7649C72.2316 91.1901 72.3767 90.0571 72.3934 89.0247C72.5218 89.5381 72.6334 90.0627 72.7339 90.5092C73.4371 93.7294 74.1682 97.0611 76.5847 97.0611C76.6349 97.0611 76.6852 97.0611 76.7354 97.0611C76.8358 97.0556 76.9363 97.0332 77.0312 96.9997C78.1417 96.6146 78.2924 95.2752 78.4096 94.2986C78.4264 94.1479 78.4431 94.014 78.4599 93.9079C78.605 93.0875 79.1017 87.8917 78.9566 86.8983ZM42.7757 127.025C42.9096 128.537 43.0771 129.849 43.2333 131.021C43.3505 131.936 43.4621 132.796 43.5347 133.588C43.6631 135.039 43.5794 136.585 43.4454 138.929C43.278 141.809 43.0547 145.749 43.0547 152.184C43.0547 157.095 43.1552 160.906 43.2333 163.965C43.3784 169.367 43.4677 172.682 42.8762 176.488C42.865 176.611 42.8427 176.723 42.8259 176.84C42.8036 176.968 42.7869 177.091 42.7757 177.214C42.759 177.091 42.7422 176.968 42.7199 176.84C42.6808 176.6 42.6418 176.365 42.6139 176.131C42.0837 172.47 42.173 169.188 42.3125 163.965C42.3906 160.906 42.4911 157.095 42.4911 152.184C42.4911 145.749 42.2678 141.809 42.106 138.929C41.972 136.585 41.8828 135.039 42.0111 133.588C42.0837 132.796 42.1953 131.936 42.3181 131.021C42.4688 129.849 42.6418 128.537 42.7757 127.025ZM77.2321 94.6948C77.1484 95.2585 77.0033 95.8278 76.6628 95.9505H76.5847C73.7663 95.9505 73.9505 85.7598 71.8744 85.7598C71.7907 85.7598 71.707 85.7766 71.6121 85.8156C71.5396 85.838 71.4726 85.8659 71.4168 85.8994C70.9368 86.1394 71.0764 86.4128 71.1824 87.0769C71.3163 87.8527 71.3945 90.459 70.8922 91.0617C70.7415 91.2403 70.5741 91.3854 70.4066 91.4691C70.3062 91.5193 70.2057 91.5472 70.1109 91.5472C69.8765 91.5472 69.6644 91.3798 69.5249 90.9724C69.5249 90.9724 68.8552 86.0835 68.6263 85.2352C67.2423 80.0618 69.9825 79.9111 68.911 76.8806C63.4752 59.7362 60.5396 53.826 59.7304 43.1665C59.5016 41.7657 59.3677 40.4765 59.2784 39.3436C59.0551 36.4248 59.1668 34.5608 58.9379 34.5608H58.9324C58.2459 35.8723 57.8329 38.2107 57.6097 40.8839C57.1353 46.6769 57.5874 54.0381 58.2459 55.8463C60.7852 62.7443 61.2038 63.6093 62.3925 69.7874C62.6157 70.9147 62.8557 72.2206 63.1459 73.7721C63.224 74.1851 63.2966 74.6037 63.3636 75.0111C63.3971 75.2176 63.4305 75.424 63.464 75.6249C63.464 75.6417 63.4696 75.6584 63.4696 75.6696C63.531 76.0491 63.5868 76.4286 63.637 76.8081C63.6538 76.9197 63.6705 77.0369 63.6873 77.1541C63.6984 77.2713 63.7152 77.3885 63.7263 77.5002C63.7431 77.595 63.7542 77.6899 63.7598 77.7847C64.7421 85.6873 64.184 93.0429 62.5878 100.376C61.5275 105.271 56.7614 122.683 56.5103 127.404C56.2535 132.12 56.8228 135.458 56.9065 137.456C57.2469 145.347 56.7279 151.72 54.4286 162.229C53.1617 168.005 51.6549 170.204 51.7777 173.742C51.8111 174.602 51.9284 175.333 52.1795 175.835C52.8213 177.119 52.5869 178.135 53.0166 179.463C53.424 180.741 54.3672 181.684 55.2657 182.979C57.0516 184.681 55.4778 185.713 55.4778 185.713C55.0871 185.842 54.423 185.886 52.8771 185.886C52.1348 185.886 51.4819 185.886 50.8903 185.881C50.6168 185.881 50.3545 185.881 50.1034 185.875C49.4672 185.875 48.8924 185.864 48.3398 185.847C48.0329 185.836 47.7315 185.82 47.4246 185.803C46.766 185.769 46.0963 185.719 45.3317 185.646C43.9254 185.323 44.9857 181.69 44.7346 180.506C44.5951 179.865 44.1598 179.441 43.9588 178.676C43.9254 178.559 43.903 178.436 43.8807 178.302C43.8751 178.246 43.8696 178.19 43.864 178.135C43.8417 177.822 43.8528 177.459 43.9254 177.018C44.0426 176.287 44.1374 175.584 44.21 174.881C44.7848 169.501 44.1709 164.367 44.1709 152.184C44.1709 140 44.9467 136.814 44.6453 133.488C44.3774 130.53 43.6073 126.997 43.6519 121.07C43.7412 108.837 43.1887 93.2159 43.691 84.6381C43.6965 84.5153 43.7077 84.3925 43.7133 84.2753C43.7189 84.1525 43.73 84.0298 43.7356 83.907C43.7524 83.6838 43.7691 83.4717 43.7858 83.2596C44.0091 80.4859 43.1664 78.5549 42.7701 77.6732C42.3795 78.5549 41.5367 80.4859 41.76 83.2596C41.7767 83.4661 41.7935 83.6782 41.8102 83.8902C41.8158 84.013 41.8214 84.1246 41.8269 84.2474C41.8381 84.3758 41.8437 84.4874 41.8493 84.6158C42.3571 93.1936 41.8046 108.831 41.8939 121.07C41.9386 126.997 41.1684 130.53 40.9005 133.488C40.5991 136.814 41.3749 140.324 41.3749 152.184C41.3749 164.043 40.7666 169.423 41.3247 174.758C41.3972 175.506 41.4921 176.248 41.6205 177.018C41.693 177.459 41.7042 177.822 41.6819 178.135C41.6763 178.185 41.6707 178.235 41.6651 178.28C41.6484 178.43 41.6204 178.57 41.5814 178.698C41.3805 179.446 40.9507 179.87 40.8168 180.506C40.5601 181.69 41.6205 185.323 40.2141 185.646C39.4495 185.719 38.7798 185.769 38.1212 185.803C37.8199 185.82 37.5185 185.836 37.206 185.847C36.6535 185.864 36.0842 185.875 35.448 185.881H34.6555C34.0639 185.886 33.411 185.886 32.6687 185.886C31.1228 185.886 30.4587 185.842 30.068 185.713C30.068 185.713 28.4942 184.681 30.2801 182.979C31.1786 181.684 32.1218 180.741 32.5348 179.463C32.9589 178.135 32.7245 177.119 33.3719 175.835C33.6175 175.333 33.7402 174.602 33.7681 173.742C33.8909 170.204 32.3841 168.005 31.1172 162.229C28.8179 151.72 28.2989 145.347 28.6393 137.456C28.723 135.458 29.2923 132.12 29.0411 127.404C28.7844 122.683 24.0183 105.271 22.958 100.376C21.3618 93.0429 20.8038 85.6873 21.786 77.7847C21.7916 77.6899 21.8028 77.595 21.8195 77.5002C21.8474 77.2713 21.8809 77.0425 21.9088 76.8137C21.9423 76.5737 21.9758 76.3281 22.0092 76.0826C22.0483 75.837 22.0874 75.5915 22.1264 75.3459C22.1376 75.2957 22.1432 75.2455 22.1488 75.1952C22.2269 74.7264 22.3106 74.2465 22.3999 73.7721C22.6845 72.2206 22.9301 70.9147 23.1477 69.7874C24.342 63.6093 24.7606 62.7443 27.2999 55.8463C27.9585 54.0381 28.4105 46.6769 27.9361 40.8839C27.7129 38.2107 27.2999 35.8723 26.6135 34.5608H26.6079C26.3846 34.5608 26.4963 36.4248 26.2675 39.3436C26.1782 40.4765 26.0442 41.7657 25.8154 43.1665C25.0062 53.826 22.0706 59.7362 16.6348 76.8806C15.5633 79.9111 18.3035 80.0618 16.9195 85.2352C16.6907 86.0835 16.0209 90.9724 16.0209 90.9724C15.8814 91.3798 15.6694 91.5472 15.435 91.5472C15.3401 91.5472 15.2396 91.5193 15.1392 91.4691C14.9773 91.3854 14.8099 91.2403 14.6592 91.0617C14.1514 90.459 14.2351 87.8527 14.3634 87.0769C14.4695 86.4128 14.609 86.1394 14.129 85.8994C14.0732 85.8659 14.0063 85.838 13.9337 85.8156C13.8444 85.7766 13.7551 85.7598 13.6714 85.7598C11.6009 85.7598 11.7795 95.9505 8.96113 95.9505H8.88299C8.54256 95.8278 8.39746 95.2641 8.31375 94.6948C8.25236 94.3209 8.22445 93.947 8.18538 93.7126C8.12957 93.3889 8.04029 92.5964 7.95099 91.6644C7.78357 89.8729 7.62171 87.5625 7.69426 87.0602C7.99005 85.0343 8.87742 81.4626 9.72571 79.4535C12.0362 75.865 11.4614 66.1654 13.6156 57.4369C15.1447 51.2477 16.0433 48.753 16.4897 42.4355C17.1036 33.6344 17.6115 27.1996 17.885 24.6715C18.6998 17.5335 22.0762 14.5366 25.2629 13.0577C25.3857 12.9963 25.5029 12.9405 25.6256 12.8958C25.7428 12.84 25.8656 12.7954 25.9828 12.7451C26.1 12.6949 26.2172 12.6503 26.3344 12.6056C26.5744 12.5163 26.8032 12.4326 27.032 12.3601C27.2218 12.2987 27.4171 12.2373 27.6013 12.1759C28.3938 11.9415 29.1137 11.7629 29.7164 11.5955C29.895 11.5453 30.0569 11.5006 30.2131 11.4504C31.2623 11.1267 35.9894 8.88874 36.3298 6.52245C36.5642 4.94306 36.62 3.17952 36.6311 2.18613C36.6423 1.69501 36.6367 1.38807 36.6367 1.38807C36.6144 1.37132 36.5921 1.35456 36.5698 1.33782C34.0639 -0.425737 32.9366 -2.95946 31.9544 -6.07359C31.4298 -7.92086 31.1117 -10.343 30.9163 -12.3856C30.7098 -14.6291 30.654 -16.4038 30.654 -16.4038C30.654 -25.3221 36.0842 -29.4073 41.5256 -29.4073H44.0202C49.4616 -29.4073 54.8918 -25.3221 54.8918 -16.4038C54.8918 -16.4038 54.8639 -15.5611 54.7802 -14.2998C54.6295 -12.0786 54.3002 -8.54592 53.5914 -6.07359C52.6092 -2.96504 51.4819 -0.436905 48.9872 1.33224C48.9649 1.34898 48.937 1.37132 48.9091 1.38807C48.9091 1.38807 48.9091 1.69501 48.9147 2.18613C48.9258 3.17952 48.9817 4.94306 49.216 6.52245C49.5565 8.88874 54.289 11.1267 55.3327 11.4504C55.4666 11.4894 55.6061 11.5341 55.7568 11.5732C55.7791 11.5788 55.8071 11.5899 55.8294 11.5955C55.9522 11.629 56.0805 11.6625 56.2089 11.6959C56.5381 11.7852 56.8953 11.8801 57.2748 11.9862C57.4925 12.042 57.7157 12.1033 57.9446 12.1759C58.0897 12.2205 58.2403 12.2652 58.391 12.3154C58.4133 12.3266 58.4301 12.3322 58.4524 12.3378C58.6589 12.4047 58.8654 12.4717 59.0775 12.5554C59.284 12.6279 59.5016 12.7117 59.7137 12.8009C63.0511 14.1906 66.7958 17.1038 67.6609 24.6715C67.9343 27.1996 68.4422 33.6344 69.0617 42.4355C69.5026 48.753 70.4011 51.2477 71.9302 57.4369C74.0845 66.1654 73.5152 75.865 75.8201 79.4535C76.6684 81.4626 77.5558 85.0343 77.8516 87.0602C77.9241 87.5625 77.7623 89.8729 77.5948 91.6644C77.5055 92.5964 77.4162 93.3889 77.3604 93.7126C77.3158 93.947 77.2879 94.3153 77.2321 94.6893V94.6948Z" fill="black" fill-opacity="0.2"/>
<path d="M41.8937 121.07C41.8044 108.831 42.3569 93.1935 41.8491 84.6212L41.7989 84.5822C35.9501 80.0896 27.8969 77.3326 21.8249 77.7791H21.7858C20.8036 85.6872 21.3617 93.0428 22.9578 100.376C24.0182 105.271 28.7842 122.683 29.041 127.404C29.2921 132.12 28.7229 135.458 28.6391 137.455C28.2987 145.347 28.8177 151.72 31.117 162.229C32.3839 168.005 33.8907 170.204 33.768 173.742C33.7401 174.602 33.6173 175.333 33.3717 175.835C32.7243 177.119 32.9587 178.135 32.5346 179.463C32.1216 180.741 31.1784 181.684 30.2799 182.979C28.494 184.681 30.0679 185.713 30.0679 185.713C30.4585 185.842 31.1226 185.886 32.6685 185.886C33.4108 185.886 34.0638 185.886 34.6553 185.881C34.6665 185.155 34.4991 184.486 34.8451 183.838C35.1241 183.325 35.3864 183.275 35.2525 183.844C35.0516 184.687 35.3641 185.044 35.4478 185.881C36.084 185.875 36.6533 185.864 37.2058 185.847C37.1165 184.938 37.3732 184.458 37.4681 183.816C37.5685 183.174 38.2829 183.174 38.3778 183.821C38.4559 184.352 38.0429 184.251 38.1211 185.803C38.7796 185.769 39.4493 185.719 40.2139 185.646C41.6203 185.323 40.5599 181.69 40.8166 180.506C40.9506 179.87 41.3803 179.446 41.5812 178.698C41.5421 178.715 41.5087 178.732 41.4863 178.748L41.5533 178.252C41.5533 178.252 41.598 178.274 41.6649 178.28C41.6705 178.235 41.6761 178.185 41.6817 178.135C41.4082 176.957 40.9896 175.595 40.3478 174.228C40.1302 173.776 40.2529 173.675 40.5878 174.049C40.7552 174.245 41.0231 174.479 41.3245 174.758C40.7664 169.423 41.3747 164.277 41.3747 152.183C41.3747 140.09 40.599 136.814 40.9003 133.487C41.1682 130.53 41.9384 126.997 41.8937 121.07ZM30.771 185.764C30.7041 185.764 30.6427 185.769 30.5757 185.775C30.6092 185.139 30.4362 184.564 30.7375 184C30.9664 183.576 31.184 183.537 31.0724 184.006C30.8994 184.737 31.1952 185.027 31.2398 185.808C31.0891 185.78 30.9329 185.764 30.771 185.764ZM32.6964 185.831C32.6295 185.831 32.5681 185.831 32.5011 185.831C32.5346 185.194 32.3616 184.619 32.663 184.061C32.8918 183.637 33.1038 183.593 32.9978 184.061C32.8248 184.793 33.1206 185.083 33.1652 185.87C33.0145 185.842 32.8583 185.825 32.6964 185.825V185.831ZM37.6969 130.228C37.2839 130.842 36.5305 131.78 35.7213 131.841C34.1251 131.841 33.4778 131.099 32.2053 129.994C31.6751 129.531 32.2221 129.492 32.8639 129.899C34.4823 130.92 36.7537 130.731 37.4737 130.161C37.7862 129.916 37.8867 129.944 37.6969 130.228Z" fill="#FFEACA"/>
<path d="M62.5877 100.377C64.1838 93.0433 64.7419 85.6876 63.7597 77.7851H63.715C57.6598 77.3331 49.6177 80.09 43.7689 84.5826L43.6964 84.6384H43.6908C43.1885 93.2163 43.741 108.837 43.6517 121.07C43.6071 126.997 44.3773 130.53 44.6451 133.488C44.9465 136.814 44.1708 140.324 44.1708 152.184C44.1708 164.043 44.7847 169.501 44.2098 174.876C44.5 174.546 44.7679 174.267 44.9577 174.05C45.2925 173.676 45.4153 173.776 45.1976 174.228C44.5558 175.596 44.1373 176.957 43.8638 178.135C43.8694 178.191 43.875 178.247 43.8806 178.302C43.9364 178.291 43.9754 178.28 43.9922 178.263L44.0591 178.749C44.0257 178.727 43.9922 178.699 43.9587 178.676C44.1596 179.441 44.5949 179.865 44.7344 180.507C44.9856 181.69 43.9252 185.323 45.3316 185.647C46.0962 185.719 46.7659 185.77 47.4244 185.803C47.5025 184.252 47.0896 184.352 47.1677 183.822C47.2626 183.174 47.9769 183.175 48.0774 183.816C48.1723 184.458 48.429 184.938 48.3397 185.848C48.8922 185.864 49.467 185.876 50.1032 185.876C50.187 185.044 50.4939 184.681 50.293 183.844C50.1591 183.275 50.4214 183.325 50.7004 183.839C51.0464 184.486 50.879 185.156 50.8902 185.881C51.4817 185.887 52.1347 185.887 52.8769 185.887C54.4229 185.887 55.087 185.842 55.4776 185.714C55.4776 185.714 57.0514 184.681 55.2655 182.979C54.367 181.684 53.4239 180.741 53.0165 179.463C52.5867 178.135 52.8211 177.119 52.1793 175.836C51.9282 175.333 51.811 174.602 51.7775 173.743C51.6547 170.205 53.1616 168.006 54.4284 162.229C56.7277 151.721 57.2468 145.347 56.9063 137.456C56.8226 135.458 56.2534 132.121 56.5101 127.405C56.7612 122.683 61.5273 105.271 62.5877 100.377ZM54.4731 184.006C54.367 183.537 54.5791 183.576 54.8079 184C55.1093 184.564 54.9363 185.139 54.9698 185.775C54.9028 185.77 54.8414 185.764 54.7744 185.764C54.6126 185.764 54.4563 185.781 54.3057 185.809C54.3503 185.027 54.6461 184.737 54.4731 184.006ZM52.5532 184.067C52.4416 183.599 52.6537 183.643 52.8825 184.067C53.1839 184.626 53.0165 185.2 53.0444 185.837C52.9774 185.837 52.916 185.837 52.849 185.837C52.6928 185.837 52.5309 185.853 52.3802 185.881C52.4249 185.094 52.7263 184.804 52.5532 184.073V184.067ZM53.3402 129.994C52.0677 131.099 51.4203 131.842 49.8242 131.842C49.0206 131.78 48.2616 130.843 47.8486 130.229C47.6644 129.944 47.7593 129.916 48.0718 130.162C48.7973 130.731 51.0631 130.921 52.6816 129.899C53.3234 129.492 53.8704 129.531 53.3402 129.994Z" fill="#FFEACA"/>
<path d="M75.7529 86.798C76.2998 89.0304 76.4952 91.4469 77.176 94.7285C77.1928 94.7173 77.2151 94.7062 77.2319 94.695C77.1482 95.2587 77.003 95.8279 76.6626 95.9507H76.5845C73.7661 95.9507 73.9503 85.76 71.8742 85.76C71.7905 85.76 71.7068 85.7767 71.6119 85.8158C71.5394 85.8381 71.4724 85.8661 71.4166 85.8995C70.9366 86.1395 71.0761 86.413 71.1822 87.0771C71.3161 87.8528 71.3942 90.4591 70.892 91.0619C70.7413 91.2404 70.5738 91.3855 70.4064 91.4693C70.306 91.5195 70.2055 91.5474 70.1107 91.5474C69.8763 91.5474 69.6642 91.3799 69.5247 90.9725C69.5247 90.9725 68.8549 86.0837 68.6261 85.2354C67.2421 80.0619 69.9823 79.9112 68.9108 76.8808C63.475 59.7363 60.5394 53.8262 59.7302 43.1667C59.5014 41.7659 59.3674 40.4767 59.2781 39.3438C60.6845 37.53 61.1868 35.0856 61.1868 33.1267C61.1868 28.4276 58.1006 23.5443 58.1006 23.5443C58.5024 20.4804 58.3685 13.9508 57.9443 12.1816C58.0894 12.2263 58.2401 12.2709 58.3908 12.3156C58.4131 12.3267 58.4299 12.3323 58.4522 12.3379C58.6587 12.4049 58.8652 12.4774 59.0772 12.5556C59.2837 12.6337 59.5014 12.7174 59.7135 12.8067C63.0508 14.1908 66.7956 17.104 67.6606 24.6717C67.9341 27.1998 68.442 33.6346 69.0614 42.4356C69.5023 48.7532 70.4009 51.2478 71.93 57.437C74.0842 66.1655 73.515 75.8651 75.8199 79.4536C76.6682 81.4627 77.5555 85.0345 77.8513 87.0603C77.9239 87.5626 77.762 89.8731 77.5946 91.6646C77.1816 89.5103 76.4115 87.3729 76.0152 86.6027C75.7306 86.0502 75.5967 86.1618 75.7529 86.798Z" fill="#FFEACA"/>
<path d="M27.4448 23.544C27.4448 23.544 24.353 28.4273 24.353 33.1264C24.353 35.0853 24.8553 37.5297 26.2673 39.3435C26.178 40.4764 26.044 41.7656 25.8152 43.1664C25.006 53.8259 22.0704 59.7361 16.6347 76.8805C15.5631 79.911 18.3033 80.0617 16.9193 85.2351C16.6905 86.0834 16.0208 90.9723 16.0208 90.9723C15.8812 91.3797 15.6692 91.5471 15.4348 91.5471C15.3399 91.5471 15.2394 91.5192 15.139 91.469C14.9771 91.3853 14.8097 91.2402 14.659 91.0616C14.1512 90.4588 14.2349 87.8526 14.3632 87.0768C14.4693 86.4127 14.6088 86.1392 14.1288 85.8993C14.073 85.8658 14.0061 85.8379 13.9335 85.8155C13.8442 85.7765 13.7549 85.7597 13.6712 85.7597C11.6007 85.7597 11.7793 95.9504 8.96094 95.9504H8.8828C8.54237 95.8277 8.39727 95.264 8.31356 94.6947C8.3303 94.7059 8.35263 94.7171 8.36937 94.7282C9.05024 91.4467 9.24556 89.0301 9.79249 86.7978C9.94876 86.1616 9.81481 86.05 9.53019 86.6025C9.13395 87.3726 8.36379 89.5101 7.95081 91.6643C7.78338 89.8728 7.62152 87.5623 7.69407 87.0601C7.98986 85.0342 8.87723 81.4625 9.72552 79.4534C12.036 75.8648 11.4612 66.1653 13.6154 57.4368C15.1446 51.2476 16.0431 48.7529 16.4895 42.4353C17.1034 33.6343 17.6113 27.1995 17.8848 24.6714C18.6996 17.5334 22.076 14.5365 25.2627 13.0576C25.3855 13.0018 25.5027 12.946 25.6255 12.8957C25.7427 12.8399 25.8654 12.7953 25.9826 12.745C26.0998 12.6948 26.217 12.6502 26.3342 12.6055C26.5742 12.5162 26.803 12.4325 27.0318 12.36C27.2216 12.2986 27.4169 12.2372 27.6011 12.1758C27.1769 13.9393 27.043 20.4801 27.4448 23.544Z" fill="#FFEACA"/>
<path d="M55.8293 11.5954C55.8293 11.5954 55.7791 11.5787 55.7568 11.5731C55.6061 11.534 55.4666 11.4894 55.3326 11.4503C54.289 11.1266 49.5564 8.88865 49.216 6.52236C48.9816 4.94297 48.9258 3.17943 48.9146 2.18604C47.0004 3.2185 44.8294 3.78775 44.0035 3.78775H41.5423C40.694 3.78775 38.5733 3.26873 36.6311 2.18604C36.62 3.17943 36.5642 4.94297 36.3298 6.52236C35.9893 8.88865 31.2623 11.1266 30.2131 11.4503C30.0568 11.5005 29.895 11.5452 29.7164 11.5954C29.6662 12.2818 29.6327 12.9627 29.6104 13.638H29.6439C31.8483 13.6826 37.1948 13.8724 39.1593 14.7318C41.4809 15.7364 33.8072 15.1058 29.6048 13.917C29.4653 18.6496 29.9396 22.8018 29.9396 22.8018C34.8006 27.8804 40.1694 28.0813 42.4464 34.4268H43.0994C45.3764 28.0813 50.7452 27.8804 55.6061 22.8018C55.6061 22.8018 56.2479 17.1986 55.8293 11.5954ZM42.8036 17.1484C42.2511 17.4609 41.8269 17.1093 41.5367 16.6852C41.2353 16.2443 41.4251 16.1438 41.9274 16.3336C42.1283 16.4117 42.3348 16.4564 42.5245 16.4843C43.0547 16.5568 43.2724 16.8805 42.8036 17.1484ZM55.3494 13.917C51.147 15.1058 43.4677 15.7364 45.7838 14.7318C47.7482 13.8724 53.1003 13.6826 55.3047 13.638C55.8405 13.6268 55.8628 13.7719 55.3494 13.917Z" fill="#FFEACA"/>
<path d="M58.2456 55.8461C57.5871 54.0379 57.135 46.6767 57.6094 40.8838C56.923 41.3191 56.1137 41.6484 55.1762 41.8158C48.7972 42.9655 45.6942 39.3714 43.2721 36.6033L42.7698 36.5586L42.2732 36.6033C39.8511 39.3714 36.7481 42.9655 30.3691 41.8158C29.4315 41.6428 28.6223 41.3191 27.9359 40.8838C28.4102 46.6767 27.9582 54.0379 27.2996 55.8461C24.7603 62.7441 24.3418 63.6092 23.1475 69.7872L23.4042 69.8263C26.6244 70.3118 35.1743 71.6065 42.7698 71.6065C50.3654 71.6065 58.9209 70.3118 62.1355 69.8263L62.3922 69.7872C61.2035 63.6092 60.7849 62.7441 58.2456 55.8461ZM31.0277 63.771C30.7933 64.6639 30.4305 66.4666 30.6035 68.5594C30.6259 68.8105 30.5924 68.9333 30.4975 68.9947C30.464 69.017 30.4305 69.0282 30.397 69.0282C30.3747 69.0282 30.3524 69.0226 30.3301 69.017C30.2408 68.9835 30.1738 68.8887 30.1013 68.6877C29.7385 67.7055 29.3199 65.7299 30.57 63.5589C30.6649 63.3915 30.7263 63.3357 30.7654 63.3133C30.8379 63.2631 30.9272 63.2687 30.9886 63.3189C31.1002 63.4026 31.0835 63.5533 31.0277 63.771ZM42.5857 62.4706C41.8937 62.4706 41.33 62.0967 41.33 61.6335C41.33 61.1703 41.8937 60.7964 42.5857 60.7964C43.2777 60.7964 43.8414 61.1703 43.8414 61.6335C43.8414 62.0967 43.2833 62.4706 42.5857 62.4706ZM55.0757 68.6877C55.0032 68.8887 54.9362 68.9835 54.8469 69.017C54.8245 69.017 54.8022 69.0282 54.7799 69.0282C54.7464 69.0282 54.7129 69.017 54.6795 68.9947C54.5846 68.9333 54.5511 68.8105 54.5734 68.5594C54.7464 66.4666 54.3837 64.6639 54.1493 63.771C54.0935 63.5533 54.0767 63.4026 54.1883 63.3189C54.2497 63.2687 54.339 63.2631 54.4116 63.3133C54.4506 63.3357 54.512 63.3915 54.6069 63.5589C55.857 65.7299 55.4385 67.7055 55.0757 68.6877Z" fill="#FFEACA"/>
<path d="M54.7803 -14.2995C54.6297 -12.0783 54.3004 -8.54562 53.5916 -6.07329C52.6094 -2.96474 51.4821 -0.436604 48.9874 1.33254C47.2964 2.14734 45.1589 3.0068 43.68 3.0068H41.8662C40.3928 3.0068 38.2665 2.15293 36.5699 1.33812C34.0641 -0.425436 32.9368 -2.95916 31.9545 -6.07329C31.4299 -7.92056 31.1118 -10.3427 30.9165 -12.3853C41.989 -17.369 46.9281 -24.0884 46.9281 -24.0884C48.753 -18.8814 52.4475 -15.8063 54.7803 -14.2995Z" fill="#FFEACA"/>
<path d="M61.1869 33.1265C61.1869 35.0854 60.6846 37.5298 59.2782 39.3436C58.8261 39.9352 58.2736 40.4654 57.6095 40.8839C56.9231 41.3192 56.1138 41.6485 55.1763 41.816C48.7973 42.9656 45.6943 39.3715 43.2722 36.6034L42.7699 36.5587L42.2733 36.6034C39.8511 39.3715 36.7482 42.9656 30.3692 41.816C29.4316 41.643 28.6224 41.3192 27.936 40.8839C27.2718 40.4598 26.7193 39.9352 26.2673 39.3436C24.8553 37.5298 24.353 35.0854 24.353 33.1265C24.353 28.4274 27.4448 23.5441 27.4448 23.5441C27.043 20.4802 27.177 13.9394 27.6011 12.1759C27.6346 12.0531 27.6625 11.9526 27.696 11.8801C27.9304 11.3443 29.7832 10.6969 29.7386 11.2829C29.733 11.389 29.7218 11.4894 29.7163 11.5955C29.666 12.2819 29.6326 12.9628 29.6102 13.6381C29.6046 13.7329 29.6046 13.8278 29.6046 13.9171C29.4651 18.6497 29.9395 22.8019 29.9395 22.8019C34.8004 27.8805 40.1693 28.0814 42.4463 34.4268H43.0992C45.3762 28.0814 50.745 27.8805 55.606 22.8019C55.606 22.8019 56.2478 17.1987 55.8292 11.5955C55.8236 11.4894 55.8125 11.3834 55.8069 11.2829C55.7622 10.6969 57.6151 11.3443 57.8495 11.8801C57.883 11.9526 57.9109 12.0531 57.9444 12.1759C58.3685 13.9506 58.5025 20.4802 58.1006 23.5441C58.1006 23.5441 61.1869 28.4274 61.1869 33.1265Z" fill="#333333"/>
<path d="M61.1869 33.1265C61.1869 35.0854 60.6846 37.5298 59.2782 39.3436C58.8261 39.9352 58.2736 40.4654 57.6095 40.8839C56.9231 41.3192 56.1138 41.6485 55.1763 41.816C48.7973 42.9656 45.6943 39.3715 43.2722 36.6034L42.7699 36.5587L42.2733 36.6034C39.8511 39.3715 36.7482 42.9656 30.3692 41.816C29.4316 41.643 28.6224 41.3192 27.936 40.8839C27.2718 40.4598 26.7193 39.9352 26.2673 39.3436C24.8553 37.5298 24.353 35.0854 24.353 33.1265C24.353 28.4274 27.4448 23.5441 27.4448 23.5441C27.043 20.4802 27.177 13.9394 27.6011 12.1759C27.6346 12.0531 27.6625 11.9526 27.696 11.8801C27.9304 11.3443 29.7832 10.6969 29.7386 11.2829C29.733 11.389 29.7218 11.4894 29.7163 11.5955C29.666 12.2819 29.6326 12.9628 29.6102 13.6381C29.6046 13.7329 29.6046 13.8278 29.6046 13.9171C29.4651 18.6497 29.9395 22.8019 29.9395 22.8019C34.8004 27.8805 40.1693 28.0814 42.4463 34.4268H43.0992C45.3762 28.0814 50.745 27.8805 55.606 22.8019C55.606 22.8019 56.2478 17.1987 55.8292 11.5955C55.8236 11.4894 55.8125 11.3834 55.8069 11.2829C55.7622 10.6969 57.6151 11.3443 57.8495 11.8801C57.883 11.9526 57.9109 12.0531 57.9444 12.1759C58.3685 13.9506 58.5025 20.4802 58.1006 23.5441C58.1006 23.5441 61.1869 28.4274 61.1869 33.1265Z" fill="black" fill-opacity="0.2"/>
<path d="M59.8253 11.6571C59.7918 12.0812 59.7527 12.4607 59.7136 12.8011C59.5016 12.7174 59.2839 12.6337 59.0774 12.5556C58.8653 12.4774 58.6588 12.4049 58.4524 12.3379C58.43 12.3379 58.4133 12.3268 58.391 12.3156C58.2403 12.2709 58.0896 12.2263 57.9445 12.1817C57.7157 12.1091 57.4925 12.0477 57.2748 11.9863C56.8953 11.8803 56.5381 11.7854 56.2088 11.6961C56.0805 11.6626 55.9521 11.6292 55.8293 11.5957C55.8293 11.5957 55.7791 11.5789 55.7568 11.5734C55.6061 11.5343 55.4666 11.4896 55.3326 11.4506C54.289 11.1269 49.5564 8.88893 49.216 6.52263C48.9816 4.94324 48.9258 3.17971 48.9146 2.18631C48.9035 1.69519 48.909 1.38825 48.909 1.38825C48.9369 1.37151 48.9649 1.34916 48.9872 1.33242C51.4818 -0.436718 52.6092 -2.96485 53.5914 -6.0734C54.3002 -8.54573 54.6294 -12.0784 54.7801 -14.2996C54.8638 -15.5609 54.8917 -16.4036 54.8917 -16.4036C54.8917 -25.3219 49.4616 -29.4071 44.0202 -29.4071H41.5255C36.0842 -29.4071 30.654 -25.3219 30.654 -16.4036C30.654 -16.4036 30.7098 -14.6289 30.9163 -12.3854C31.1116 -10.3428 31.4297 -7.92068 31.9543 -6.0734C32.9366 -2.95927 34.0639 -0.425552 36.5697 1.33801C36.592 1.35475 36.6144 1.37151 36.6367 1.38825C36.6367 1.38825 36.6423 1.69519 36.6311 2.18631C36.6199 3.17971 36.5641 4.94324 36.3297 6.52263C35.9893 8.88893 31.2623 11.1269 30.2131 11.4506C30.0568 11.5008 29.895 11.5454 29.7164 11.5957C29.1137 11.7631 28.3937 11.9417 27.6012 12.1761C27.4171 12.2375 27.2217 12.2989 27.032 12.3602C26.8032 12.4328 26.5744 12.5165 26.3344 12.6058C26.2172 12.6505 26.1 12.6951 25.9828 12.7453C25.8656 12.7956 25.7428 12.8402 25.6256 12.896C25.5028 12.9463 25.3856 13.0021 25.2628 13.0579C25.2238 12.7174 25.1791 12.3323 25.1401 11.897C24.8554 8.80522 24.5987 2.86718 24.9057 -10.7781C25.4582 -34.9154 42.4743 -32.9621 42.4743 -32.9621C42.4743 -32.9621 59.4904 -34.9154 60.0373 -10.7781C60.3443 2.55465 60.0987 8.47595 59.8253 11.6571Z" fill="#333333"/>
<path d="M59.8253 11.6571C59.7918 12.0812 59.7527 12.4607 59.7136 12.8011C59.5016 12.7174 59.2839 12.6337 59.0774 12.5556C58.8653 12.4774 58.6588 12.4049 58.4524 12.3379C58.43 12.3379 58.4133 12.3268 58.391 12.3156C58.2403 12.2709 58.0896 12.2263 57.9445 12.1817C57.7157 12.1091 57.4925 12.0477 57.2748 11.9863C56.8953 11.8803 56.5381 11.7854 56.2088 11.6961C56.0805 11.6626 55.9521 11.6292 55.8293 11.5957C55.8293 11.5957 55.7791 11.5789 55.7568 11.5734C55.6061 11.5343 55.4666 11.4896 55.3326 11.4506C54.289 11.1269 49.5564 8.88893 49.216 6.52263C48.9816 4.94324 48.9258 3.17971 48.9146 2.18631C48.9035 1.69519 48.909 1.38825 48.909 1.38825C48.9369 1.37151 48.9649 1.34916 48.9872 1.33242C51.4818 -0.436718 52.6092 -2.96485 53.5914 -6.0734C54.3002 -8.54573 54.6294 -12.0784 54.7801 -14.2996C54.8638 -15.5609 54.8917 -16.4036 54.8917 -16.4036C54.8917 -25.3219 49.4616 -29.4071 44.0202 -29.4071H41.5255C36.0842 -29.4071 30.654 -25.3219 30.654 -16.4036C30.654 -16.4036 30.7098 -14.6289 30.9163 -12.3854C31.1116 -10.3428 31.4297 -7.92068 31.9543 -6.0734C32.9366 -2.95927 34.0639 -0.425552 36.5697 1.33801C36.592 1.35475 36.6144 1.37151 36.6367 1.38825C36.6367 1.38825 36.6423 1.69519 36.6311 2.18631C36.6199 3.17971 36.5641 4.94324 36.3297 6.52263C35.9893 8.88893 31.2623 11.1269 30.2131 11.4506C30.0568 11.5008 29.895 11.5454 29.7164 11.5957C29.1137 11.7631 28.3937 11.9417 27.6012 12.1761C27.4171 12.2375 27.2217 12.2989 27.032 12.3602C26.8032 12.4328 26.5744 12.5165 26.3344 12.6058C26.2172 12.6505 26.1 12.6951 25.9828 12.7453C25.8656 12.7956 25.7428 12.8402 25.6256 12.896C25.5028 12.9463 25.3856 13.0021 25.2628 13.0579C25.2238 12.7174 25.1791 12.3323 25.1401 11.897C24.8554 8.80522 24.5987 2.86718 24.9057 -10.7781C25.4582 -34.9154 42.4743 -32.9621 42.4743 -32.9621C42.4743 -32.9621 59.4904 -34.9154 60.0373 -10.7781C60.3443 2.55465 60.0987 8.47595 59.8253 11.6571Z" fill="black" fill-opacity="0.2"/>
<path d="M55.0759 68.6882C55.0034 68.8891 54.9364 68.984 54.8471 69.0175C54.8248 69.0175 54.8025 69.0286 54.7801 69.0286C54.7466 69.0286 54.7132 69.0175 54.6797 68.9951C54.5848 68.9337 54.5513 68.811 54.5736 68.5598C54.7466 66.467 54.3839 64.6644 54.1495 63.7714C54.0937 63.5538 54.0769 63.4031 54.1886 63.3194C54.2499 63.2692 54.3393 63.2636 54.4118 63.3138C54.4509 63.3361 54.5123 63.3919 54.6071 63.5594C55.8572 65.7303 55.4387 67.706 55.0759 68.6882Z" fill="#DFCBAD"/>
<path d="M31.028 63.7714C30.7936 64.6644 30.4308 66.467 30.6038 68.5598C30.6261 68.811 30.5926 68.9337 30.4978 68.9951C30.4643 69.0175 30.4308 69.0286 30.3973 69.0286C30.375 69.0286 30.3527 69.0231 30.3304 69.0175C30.2411 68.984 30.1741 68.8891 30.1015 68.6882C29.7388 67.706 29.3202 65.7303 30.5703 63.5594C30.6652 63.3919 30.7266 63.3361 30.7657 63.3138C30.8382 63.2636 30.9275 63.2692 30.9889 63.3194C31.1005 63.4031 31.0838 63.5538 31.028 63.7714Z" fill="#DFCBAD"/>
</g>
<defs>
<clipPath id="clip0_8984_52236">
<rect width="85" height="80" fill="white"/>
</clipPath>
</defs>
</svg>
