<svg width="85" height="80" viewBox="0 0 85 80" fill="none" xmlns="http://www.w3.org/2000/svg">
<g clip-path="url(#clip0_8984_52238)">
<path d="M51.3833 -0.693359C50.7471 0.473045 49.6365 1.44414 48.4533 2.1864C46.7065 3.29141 44.7979 3.89414 44.05 3.89414H41.7005C40.9359 3.89414 39.0719 3.3472 37.3027 2.19753C36.1866 1.4776 35.1094 0.517692 34.3672 -0.693359C34.3672 -0.693359 35.1541 -0.107368 36.2759 0.595823C37.9613 1.65061 40.3945 2.97887 42.013 2.97887H43.7375C45.3615 2.97887 47.8115 1.63947 49.497 0.584685C49.497 0.584685 49.497 0.573512 49.5081 0.573512C50.6076 -0.118518 51.3833 -0.693359 51.3833 -0.693359Z" fill="#DFCBAD"/>
<path d="M29.8802 13.9676C29.8188 13.9508 29.7574 13.9341 29.7016 13.9173C29.1882 13.7722 29.2105 13.6271 29.7463 13.6383C29.7965 13.6383 29.8467 13.6383 29.9025 13.6439C32.1963 13.6941 37.3418 13.895 39.2672 14.7322C41.5498 15.72 34.1161 15.1228 29.8802 13.9676Z" fill="#DFCBAD"/>
<path d="M55.4517 13.9173C51.2493 15.1061 43.57 15.7367 45.8916 14.7322C47.8561 13.8727 53.2026 13.6829 55.407 13.6383C55.9428 13.6271 55.9651 13.7722 55.4517 13.9173Z" fill="#DFCBAD"/>
<path d="M42.9114 17.1489C42.3589 17.4614 41.9292 17.1098 41.639 16.6856C41.3376 16.2447 41.5274 16.1443 42.0296 16.334C42.2361 16.4122 42.437 16.4568 42.6268 16.4847C43.157 16.5573 43.3746 16.881 42.9114 17.1489Z" fill="#DFCBAD"/>
<path d="M42.8054 57.504C42.7049 58.2406 42.4091 58.2406 42.3087 57.504C41.8064 53.8931 42.2361 48.1058 42.4817 45.5107C42.5486 44.7684 42.6714 44.774 42.7384 45.5107C43.3076 51.9622 43.0453 55.7125 42.8054 57.504Z" fill="#DFCBAD"/>
<path d="M47.8784 48.3066C47.8784 48.3066 47.8282 48.3457 47.7947 48.3457C47.7389 48.3457 47.6663 48.3178 47.5603 48.0946C46.6841 46.3031 45.4786 45.0307 44.8424 44.4279C44.6862 44.2828 44.6415 44.1991 44.6694 44.1265C44.6862 44.0875 44.7252 44.0596 44.7755 44.0596C44.8089 44.0596 44.8759 44.0708 45.0266 44.1489C47.1306 45.2372 47.7277 47.023 47.9007 47.9941C47.9398 48.2062 47.9119 48.2731 47.8784 48.3066Z" fill="#DFCBAD"/>
<path d="M40.3165 44.4279C39.6747 45.0307 38.4749 46.3031 37.5931 48.0946C37.487 48.3178 37.4145 48.3457 37.3587 48.3457C37.3252 48.3457 37.2973 48.3345 37.275 48.3066C37.2471 48.2731 37.2136 48.2062 37.2526 47.9941C37.4257 47.023 38.0284 45.2372 40.1324 44.1489C40.2831 44.0708 40.3444 44.0596 40.3779 44.0596C40.4282 44.0596 40.4728 44.0875 40.4896 44.1265C40.5175 44.1991 40.4672 44.2828 40.3165 44.4279Z" fill="#DFCBAD"/>
<path d="M79.0589 86.8988C78.7463 84.7669 77.8255 81.0947 76.9493 79.0186C76.9214 78.9628 76.8935 78.907 76.86 78.8512C75.6601 76.9872 75.1188 72.9745 74.4881 68.3312C74.0193 64.8543 73.4836 60.9142 72.5571 57.1694C72.0046 54.9315 71.4075 53.2293 70.8717 51.7281C69.9174 49.0325 69.164 46.9007 69.1584 42.994C69.1584 41.2305 68.5891 27.0885 68.3157 24.5492C67.3669 16.256 63.3822 13.1475 59.9276 11.702C58.7612 11.2109 57.6562 10.9095 56.7465 10.664C56.3893 10.5691 56.0489 10.4742 55.7698 10.3849C55.0778 10.1729 52.6222 8.66041 50.055 6.86895C49.9322 6.78524 49.5695 6.52852 49.5695 5.41235V1.95778C51.9748 0.132832 53.7217 -2.45669 54.7541 -5.73825C54.7597 -5.74383 54.7597 -5.755 54.7653 -5.76616C55.4461 -8.13803 55.7922 -11.3805 55.9596 -13.6575C56.0712 -15.1755 56.1047 -16.2638 56.1103 -16.3698V-16.4033C56.1103 -17.6311 56.0098 -18.7975 55.8089 -19.9025C55.8089 -19.9137 55.8089 -19.9249 55.8033 -19.936C55.2955 -22.7823 54.1514 -25.1932 52.4101 -27.0182C50.4847 -29.0329 47.9454 -30.2383 45.1606 -30.4783H45.155C44.8146 -30.5062 44.4741 -30.5229 44.1225 -30.5229H41.6335C38.4412 -30.5229 35.5001 -29.2784 33.3459 -27.0182C30.9238 -24.4789 29.6401 -20.8066 29.6401 -16.4033V-16.3698C29.6457 -16.2247 29.7071 -14.2882 29.9471 -11.9163C30.1424 -9.90717 30.4661 -7.57995 30.9907 -5.76616C30.9907 -5.755 30.9963 -5.74383 30.9963 -5.73825C32.0343 -2.45669 33.7756 0.127251 36.1865 1.95778V5.41235C36.1865 6.52852 35.8182 6.78524 35.6954 6.86895C33.1338 8.66041 30.6726 10.1729 29.9862 10.3849C29.7015 10.4742 29.3667 10.5691 29.0095 10.664C27.9491 10.9542 26.6265 11.3114 25.248 11.9532C21.9385 13.5046 18.3277 16.7081 17.4348 24.5436C17.1669 27.0829 16.592 41.2249 16.592 42.994C16.5865 46.9007 15.833 49.0325 14.8787 51.7281C14.3485 53.2293 13.7458 54.9315 13.1933 57.1694C12.2724 60.9142 11.7367 64.8543 11.2623 68.3312C10.6372 72.9745 10.0903 76.9872 8.89601 78.8512C8.85694 78.907 8.82903 78.9628 8.80671 79.0186C7.92493 81.0947 7.00409 84.7669 6.69156 86.8988C6.54646 87.8978 7.04873 93.0936 7.19383 93.9084C7.21058 94.0089 7.22174 94.1484 7.24406 94.2935C7.35568 95.2757 7.51195 96.6151 8.61696 97.0002C8.71742 97.0337 8.81787 97.056 8.91833 97.0616C8.96855 97.0616 9.01878 97.0616 9.06901 97.0616C11.48 97.0616 12.211 93.7298 12.9198 90.5097C13.0147 90.0632 13.1319 89.5386 13.2547 89.0251C13.277 90.0576 13.4221 91.1905 13.9021 91.7709C14.1532 92.0723 14.4378 92.3067 14.7392 92.463C15.0071 92.5913 15.275 92.6583 15.5428 92.6583C15.8107 92.6583 16.765 92.5634 17.1836 91.3245C17.2059 91.2575 17.2227 91.1905 17.2338 91.118C17.4906 89.254 17.9482 86.0896 18.1045 85.5148C18.9583 82.3225 18.3612 80.7152 17.9315 79.5432C17.6189 78.6949 17.4459 78.2317 17.7919 77.2495C17.7919 77.2383 17.7975 77.2272 17.8031 77.216C19.2039 72.796 20.4763 69.0511 21.5981 65.7473C24.8852 56.0644 26.872 50.2157 27.1957 42.1513C27.4022 40.4994 27.5194 38.9535 27.592 37.6308C27.592 37.5638 27.592 37.4968 27.6031 37.4299C27.6813 37.5917 27.7594 37.748 27.8264 37.8931C28.0049 38.2559 28.1556 38.5572 28.2617 38.7637C30.0922 42.2741 30.3545 49.5404 30.4494 52.275C30.4605 52.6378 30.4717 52.9447 30.4829 53.1736C30.5722 54.9483 29.4281 57.2644 27.9826 60.1943C26.2526 63.6991 24.0983 68.0633 23.077 73.5661C21.4251 82.5122 21.5869 90.0241 23.6463 99.4893C24.8629 105.092 28.3789 124.949 28.1277 128.287C27.8822 129.911 27.7705 133.265 27.6868 135.726C27.6645 136.385 27.6478 136.965 27.6254 137.4C27.285 145.32 28.351 151.219 30.6894 161.9C30.9963 163.29 31.2809 164.518 31.5376 165.595C32.3525 169.061 32.8436 171.153 32.7543 173.698C32.7208 174.697 32.5645 175.149 32.4752 175.328C32.0176 176.243 31.9227 177.047 31.8334 177.756C31.7776 178.219 31.7218 178.654 31.5711 179.112C31.3367 179.848 30.84 180.501 30.2596 181.26C30.0252 181.573 29.7797 181.891 29.5341 182.248C28.7193 183.052 28.3454 183.895 28.4235 184.76C28.5296 185.937 29.456 186.573 29.562 186.646C29.6457 186.696 29.735 186.741 29.8243 186.769C30.3545 186.947 31.0744 186.998 32.7766 186.998C36.2479 186.998 37.8329 186.998 40.4224 186.752C40.4726 186.746 40.5229 186.741 40.5675 186.73C42.4594 186.294 42.2362 183.922 42.0744 182.187C42.0297 181.673 41.9627 180.965 42.013 180.736C42.0465 180.568 42.1413 180.384 42.2641 180.155C42.4929 179.731 42.7775 179.201 42.878 178.42C42.9729 179.201 43.2575 179.731 43.4863 180.155C43.6091 180.384 43.7095 180.568 43.743 180.736C43.7933 180.965 43.7263 181.673 43.6761 182.192C43.5142 183.922 43.2966 186.294 45.1829 186.73C45.2331 186.741 45.2778 186.746 45.328 186.752C47.9175 186.998 49.5025 186.998 52.9794 186.998C54.6816 186.998 55.3959 186.947 55.9261 186.769C56.021 186.741 56.1103 186.696 56.194 186.646C56.2944 186.573 57.2209 185.937 57.3269 184.76C57.405 183.895 57.0311 183.052 56.2219 182.248C55.9708 181.891 55.7308 181.573 55.4908 181.26C54.916 180.501 54.4137 179.848 54.1793 179.112C54.0286 178.654 53.9784 178.219 53.9226 177.756C53.8333 177.047 53.7328 176.243 53.2752 175.328C53.1859 175.149 53.0296 174.697 52.9961 173.698C52.9069 171.153 53.4036 169.061 54.2184 165.595C54.4695 164.512 54.7597 163.29 55.0611 161.9C57.405 151.219 58.4654 145.32 58.125 137.4C58.1082 136.971 58.0859 136.39 58.0636 135.732C57.9799 133.27 57.8683 129.911 57.6227 128.287C57.366 124.893 60.8708 104.797 62.1042 99.5061C64.0296 91.2631 64.8611 83.6954 62.6678 73.5326C61.5349 68.281 59.4867 64.0116 57.8404 60.5794C56.3503 57.4764 55.1783 55.0264 55.2676 53.1736C55.2787 52.9447 55.2899 52.6378 55.3011 52.275C55.4015 49.5404 55.6582 42.2741 57.4832 38.786C57.5892 38.5739 57.7399 38.267 57.9185 37.9043C57.991 37.7536 58.0692 37.5973 58.1529 37.4299C58.1585 37.4968 58.1585 37.5638 58.164 37.6308C58.2366 38.9535 58.3482 40.4994 58.5547 42.1513C58.8728 50.0762 60.9489 56.1984 64.0854 65.4515C65.235 68.8503 66.541 72.6955 67.9473 77.2104C67.9473 77.2216 67.9585 77.2383 67.9641 77.2495C68.3101 78.2317 68.1371 78.6949 67.8246 79.5432C67.3892 80.7152 66.7977 82.3225 67.6515 85.5204C67.8022 86.0896 68.2654 89.254 68.5222 91.118C68.5277 91.1905 68.5445 91.2575 68.5668 91.3245C68.9854 92.5634 69.9341 92.6583 70.2132 92.6583C70.4922 92.6583 70.7489 92.5913 71.0057 92.463C71.3126 92.3067 71.5972 92.0723 71.8484 91.7654C72.3339 91.1905 72.479 90.0576 72.4958 89.0307C72.6241 89.5386 72.7357 90.0632 72.8362 90.5097C73.5394 93.7298 74.2705 97.0616 76.687 97.0616C76.7372 97.0616 76.7875 97.0616 76.8377 97.0616C76.9381 97.056 77.0386 97.0337 77.1335 97.0002C78.2441 96.6151 78.3947 95.2701 78.5119 94.2935C78.5287 94.1428 78.5454 94.0089 78.5622 93.9084C78.7073 93.0936 79.204 87.8978 79.0589 86.8988ZM42.878 177.198C42.8613 177.08 42.8501 176.963 42.8278 176.84C42.3311 173.793 42.359 171.717 42.4036 168.569C42.4539 165.338 42.5097 161.314 42.0409 154.383C41.4102 145.007 41.2874 138.751 41.6502 134.705C41.7172 133.99 41.8065 133.22 41.9013 132.4C42.2083 129.805 42.5822 126.579 42.5487 122.042C42.5152 117.142 42.6659 111.55 42.8278 106.047C43.0343 111.494 43.2408 117.091 43.2017 122.042C43.1682 126.585 43.5477 129.81 43.8491 132.405C43.9439 133.22 44.0388 133.996 44.1002 134.705C44.4686 138.751 44.3458 145.007 43.7095 154.383C43.2408 161.314 43.3021 165.338 43.3468 168.569C43.3914 171.717 43.4249 173.799 42.9282 176.84C42.9059 176.963 42.8892 177.08 42.878 177.198ZM42.9115 81.6416C42.9115 81.2342 42.9282 80.8659 42.9506 80.5366C42.9506 80.8659 42.9394 81.2342 42.9115 81.6416ZM77.3344 94.6953C77.2507 95.2646 77.1056 95.8283 76.7651 95.951H76.687C73.8686 95.951 74.0528 85.7603 71.9767 85.7603C71.893 85.7603 71.8037 85.7771 71.7144 85.8161C71.6419 85.8385 71.5749 85.8664 71.5191 85.8999C71.0391 86.1398 71.1787 86.4133 71.2847 87.0774C71.4186 87.8532 71.4968 90.4594 70.9945 91.0622C70.8438 91.2408 70.6764 91.3859 70.509 91.4696C70.4085 91.5198 70.308 91.5477 70.2132 91.5477C69.9788 91.5477 69.7667 91.3803 69.6272 90.9729C69.6272 90.9729 68.9575 86.084 68.7287 85.2357C67.3446 80.0623 70.0848 79.9116 69.0133 76.8811C63.8007 60.1943 60.0894 52.7494 59.6709 42.0676C59.3751 39.7404 59.2691 37.6364 59.2077 36.0458C59.1295 34.1985 59.1184 33.0489 58.9454 33.0489C58.7166 33.8191 56.4954 38.2726 56.4954 38.2726C56.3279 38.5907 56.1717 38.9367 56.0322 39.2995C54.3077 43.7028 54.2519 51.1588 54.1514 53.1233C53.9672 56.9183 58.0189 62.1141 60.5136 69.8381C60.5415 69.9274 60.5694 70.0167 60.5973 70.106C60.9656 71.2668 61.2949 72.489 61.574 73.7726C61.8753 75.1566 62.1153 76.4905 62.3051 77.7908C63.4101 85.3641 62.7571 91.7989 61.0159 99.2605C59.8774 104.138 56.2051 124.838 56.5121 128.421C56.819 130.391 56.9251 135.458 57.0088 137.456C57.3492 145.347 56.2721 151.163 53.9728 161.671C52.7059 167.448 51.7572 170.205 51.88 173.743C51.9079 174.602 52.0307 175.333 52.2818 175.836C52.9236 177.119 52.6892 178.135 53.1189 179.463C53.5263 180.741 54.4695 181.685 55.368 182.979C57.1539 184.682 55.5801 185.714 55.5801 185.714C55.1894 185.842 54.5253 185.887 52.9794 185.887C52.2874 185.887 51.6735 185.887 51.1154 185.881C50.8419 185.887 50.5796 185.881 50.3285 185.881C49.6867 185.876 49.1119 185.865 48.5649 185.853C48.2524 185.842 47.951 185.826 47.6497 185.809C46.952 185.775 46.2488 185.725 45.434 185.647C44.0277 185.323 45.088 181.69 44.8369 180.507C44.6304 179.569 43.81 179.106 43.9774 177.382C43.9886 177.264 44.0053 177.147 44.0277 177.019C44.1449 176.288 44.2341 175.613 44.3011 174.96C44.8201 169.993 43.9998 166.616 44.8257 154.461C45.568 143.461 45.5122 137.93 45.2108 134.604C44.9429 131.641 44.2732 127.98 44.3179 122.047C44.4127 109.373 42.9338 92.7476 43.8323 83.7791C43.8435 83.6508 43.8602 83.528 43.8714 83.4052C43.877 83.355 43.8826 83.3103 43.8881 83.2601C43.8993 83.1819 43.9049 83.1038 43.916 83.0257C44.3513 78.9516 43.7821 77.1323 43.118 77.1323C42.4036 77.1323 41.5832 79.2809 41.8455 83.0369C41.8511 83.1094 41.8567 83.1819 41.8623 83.2601C41.8679 83.3047 41.8679 83.3494 41.8734 83.3941C41.8846 83.5224 41.8902 83.6396 41.9013 83.768C42.4762 92.1672 41.3377 109.39 41.4326 122.047C41.4772 127.98 40.8075 131.641 40.5396 134.604C40.2382 137.93 40.188 143.461 40.9303 154.461C41.7562 166.739 40.9191 170.06 41.466 175.116C41.533 175.724 41.6167 176.349 41.7283 177.019C41.8009 177.465 41.812 177.834 41.7897 178.146C41.6893 179.274 41.081 179.731 40.9191 180.507C40.668 181.69 41.7283 185.323 40.3164 185.647C39.5518 185.72 38.8821 185.77 38.2235 185.803C37.9222 185.82 37.6208 185.837 37.3083 185.848C36.7558 185.865 36.1865 185.876 35.5503 185.881H34.7634C34.1718 185.887 33.5189 185.887 32.7766 185.887C31.2307 185.887 30.561 185.842 30.1703 185.714C30.1703 185.714 28.5965 184.682 30.388 182.979C31.2809 181.685 32.2241 180.741 32.6371 179.463C33.0612 178.135 32.8324 177.119 33.4742 175.836C33.7253 175.333 33.8425 174.602 33.8704 173.743C33.9932 170.205 33.0445 167.448 31.7776 161.671C29.4783 151.163 28.4012 145.347 28.7416 137.456C28.8309 135.458 28.9314 130.391 29.2383 128.421C29.5509 124.838 25.8005 104.155 24.7346 99.2605C23.144 91.9495 22.5859 85.431 23.5514 77.7852C23.5626 77.6904 23.5737 77.5955 23.5905 77.5006C23.6016 77.4281 23.6072 77.3499 23.6184 77.2774C23.7691 76.15 23.9532 74.9836 24.1765 73.7726C24.2267 73.5103 24.2769 73.2536 24.3327 72.9969C24.3774 72.768 24.4276 72.5392 24.4834 72.3104C24.4834 72.2713 24.5002 72.2323 24.5113 72.1932C24.5615 71.9644 24.6174 71.7356 24.6787 71.5067C24.7401 71.25 24.8071 70.9933 24.8797 70.7422C24.941 70.5189 25.0024 70.3013 25.0638 70.0892C25.0917 69.9999 25.1196 69.9051 25.1475 69.8213C27.5194 62.0472 31.7888 56.9239 31.599 53.1233C31.4986 51.1588 31.4428 43.7084 29.7239 39.3051C29.5843 38.9367 29.4281 38.5907 29.2607 38.2726C29.2607 38.2726 27.0394 33.8191 26.8106 33.0489C26.6376 33.0489 26.6209 34.1985 26.5483 36.0402C26.487 37.6364 26.3809 39.7404 26.0851 42.0676C25.6666 52.7494 22.1729 59.7367 16.7371 76.8811C15.6656 79.9116 18.4114 80.0623 17.0218 85.2357C16.7985 86.084 16.1288 90.9729 16.1288 90.9729C15.9893 91.3803 15.7772 91.5477 15.5428 91.5477C15.448 91.5477 15.3475 91.5198 15.2471 91.4696C15.0796 91.3859 14.9122 91.2408 14.7615 91.0622C14.2592 90.4594 14.3374 87.8532 14.4657 87.0774C14.5773 86.4133 14.7169 86.1398 14.2313 85.8999C14.1755 85.8664 14.1141 85.8385 14.036 85.8161C13.9467 85.7771 13.8574 85.7603 13.7737 85.7603C11.7032 85.7603 11.8818 95.951 9.06901 95.951H8.99088C8.65045 95.8283 8.50534 95.259 8.41605 94.6898C8.36024 94.3214 8.33234 93.9475 8.28769 93.7131C8.23188 93.3894 8.14259 92.6025 8.05887 91.6705C7.89145 89.8734 7.72402 87.5629 7.79657 87.0607C8.09236 85.0348 8.9853 81.4631 9.83359 79.4539C12.1385 75.8654 12.1218 66.1659 14.276 57.4374C15.8051 51.2482 17.6971 49.3283 17.7082 42.994C17.7082 41.2584 18.2775 27.2001 18.5453 24.672C19.3434 17.6624 22.4073 14.6487 25.3764 13.1419C25.4936 13.0749 25.6108 13.0191 25.728 12.9689C26.1967 12.7457 26.6655 12.5615 27.112 12.3996C27.458 12.2713 27.7985 12.1652 28.1277 12.0648C28.2226 12.0369 28.3175 12.009 28.4124 11.9866C28.7249 11.8974 29.0207 11.8136 29.2997 11.7411C29.4337 11.702 29.562 11.6685 29.6848 11.635C29.7964 11.6016 29.908 11.5737 30.0141 11.5402C30.0587 11.529 30.1034 11.5123 30.148 11.5011C30.2038 11.4844 30.2596 11.4676 30.3154 11.4509C31.3646 11.1272 34.4062 9.12922 36.3372 7.78422C37.0962 7.25404 37.3027 6.33878 37.3027 5.41235V1.38855C36.9455 1.13741 36.5995 0.875088 36.2758 0.596043C36.0303 0.38397 35.7903 0.166313 35.5615 -0.0680828C35.4443 -0.185282 35.3326 -0.302454 35.221 -0.425234C35.1094 -0.542433 35.0034 -0.665226 34.8973 -0.788006C34.7913 -0.910784 34.6853 -1.03355 34.5904 -1.16191C34.4844 -1.29028 34.3895 -1.41864 34.2946 -1.55258C34.2444 -1.61955 34.1941 -1.68652 34.1495 -1.75349C34.0993 -1.82046 34.0546 -1.88745 34.01 -1.95442C33.9151 -2.08837 33.8258 -2.2223 33.7421 -2.36182C33.5691 -2.64644 33.4017 -2.93106 33.2454 -3.22685C33.1617 -3.37195 33.0891 -3.52265 33.0166 -3.67333C32.9273 -3.85192 32.8436 -4.03608 32.7599 -4.22583C32.6985 -4.34861 32.6482 -4.47697 32.598 -4.60533C32.5143 -4.7895 32.4417 -4.97924 32.3748 -5.17457C32.3301 -5.28061 32.2911 -5.38665 32.2576 -5.49269C32.1906 -5.68244 32.1236 -5.87777 32.0622 -6.0731C31.8948 -6.64793 31.7497 -7.27858 31.6269 -7.9427C31.5488 -8.33894 31.4763 -8.74076 31.4149 -9.15374C31.2977 -9.91274 31.1972 -10.6829 31.1191 -11.4308C31.08 -11.7544 31.0521 -12.0725 31.0186 -12.3795C30.9405 -13.2278 30.8847 -14.0091 30.8456 -14.6453C30.8345 -14.8574 30.8233 -15.0528 30.8121 -15.2369C30.801 -15.4155 30.7898 -15.5829 30.7842 -15.7225C30.7786 -15.795 30.7786 -15.862 30.7731 -15.9234C30.7619 -16.2303 30.7563 -16.4033 30.7563 -16.4033C30.7563 -25.3216 36.1865 -29.4068 41.6335 -29.4068H44.1225C49.5639 -29.4068 54.9941 -25.3216 54.9941 -16.4033C54.9941 -16.4033 54.9885 -16.1912 54.9718 -15.8229C54.9718 -15.7783 54.9662 -15.728 54.9662 -15.6778C54.9606 -15.5718 54.955 -15.4601 54.9439 -15.3318C54.9327 -15.1365 54.916 -14.9132 54.9048 -14.6621C54.9048 -14.5505 54.8937 -14.4277 54.8825 -14.2993C54.8602 -13.9812 54.8378 -13.6296 54.8043 -13.2557C54.8043 -13.1218 54.7876 -12.9878 54.7709 -12.8483C54.7318 -12.3795 54.6816 -11.8828 54.6258 -11.3694C54.5867 -11.0122 54.5476 -10.6494 54.4974 -10.2811C54.4695 -10.0579 54.436 -9.83462 54.4025 -9.61138C54.3746 -9.38256 54.3411 -9.15933 54.3021 -8.9361C54.2295 -8.48963 54.1514 -8.05432 54.0677 -7.63017C54.0119 -7.35671 53.9561 -7.08325 53.8891 -6.82652C53.8277 -6.5698 53.7607 -6.31308 53.6938 -6.0731C53.6212 -5.84429 53.5431 -5.61547 53.4594 -5.39223C53.4594 -5.38107 53.4538 -5.36991 53.4482 -5.35875C53.4147 -5.25829 53.3812 -5.16343 53.3422 -5.06855C53.2529 -4.82857 53.158 -4.59976 53.0575 -4.37094C52.9906 -4.21467 52.9236 -4.0584 52.851 -3.90772C52.5999 -3.37195 52.3209 -2.86411 52.0139 -2.37299C51.9302 -2.23347 51.8409 -2.09392 51.746 -1.95998C51.6567 -1.82604 51.5674 -1.69212 51.467 -1.56376C51.3777 -1.4354 51.2828 -1.31259 51.1824 -1.18981C51.0819 -1.05587 50.9759 -0.927538 50.8642 -0.799177C50.6578 -0.548038 50.4345 -0.308033 50.2057 -0.0736351C50.0718 0.0547237 49.9378 0.188633 49.7983 0.311413C49.7034 0.400707 49.6086 0.490019 49.5081 0.573732C49.5025 0.573732 49.5025 0.579323 49.4969 0.584904C49.4802 0.596066 49.469 0.607227 49.4523 0.618389C49.3351 0.718843 49.2123 0.813696 49.0951 0.908571C49.0002 0.992285 48.8998 1.07044 48.7937 1.14299C48.6821 1.22671 48.5705 1.31042 48.4533 1.38855V5.41235C48.4533 6.33878 48.6598 7.25404 49.4188 7.78422C51.3442 9.12922 54.3914 11.1272 55.435 11.4509C55.4908 11.4676 55.5466 11.4844 55.6024 11.5011C55.6471 11.5123 55.6917 11.529 55.7364 11.5402C55.8815 11.5848 56.0321 11.6239 56.1884 11.6685C56.2944 11.6964 56.4061 11.7243 56.5177 11.7578C56.7967 11.8304 57.0925 11.9141 57.3995 12.0034C57.472 12.0201 57.5446 12.0425 57.6227 12.0648C57.7399 12.0983 57.8571 12.1373 57.9743 12.1764C58.1696 12.2378 58.365 12.3048 58.5714 12.3773C58.7724 12.4443 58.9789 12.5224 59.1853 12.6061C59.3918 12.6842 59.5983 12.7735 59.8104 12.8684C62.9469 14.2804 66.3568 17.2159 67.2051 24.672C67.4785 27.2001 68.0422 41.2584 68.0422 42.994C68.0534 49.3283 69.9453 51.2482 71.4744 57.4374C73.6287 66.1659 73.6175 75.8654 75.9224 79.4539C76.7707 81.4631 77.6581 85.0348 77.9539 87.0607C78.0264 87.5629 77.8645 89.8734 77.6971 91.6649C77.6078 92.5969 77.5185 93.3894 77.4627 93.7131C77.4237 93.9475 77.3958 94.3214 77.3344 94.6898V94.6953Z" fill="#333333"/>
<path d="M79.0589 86.8988C78.7463 84.7669 77.8255 81.0947 76.9493 79.0186C76.9214 78.9628 76.8935 78.907 76.86 78.8512C75.6601 76.9872 75.1188 72.9745 74.4881 68.3312C74.0193 64.8543 73.4836 60.9142 72.5571 57.1694C72.0046 54.9315 71.4075 53.2293 70.8717 51.7281C69.9174 49.0325 69.164 46.9007 69.1584 42.994C69.1584 41.2305 68.5891 27.0885 68.3157 24.5492C67.3669 16.256 63.3822 13.1475 59.9276 11.702C58.7612 11.2109 57.6562 10.9095 56.7465 10.664C56.3893 10.5691 56.0489 10.4742 55.7698 10.3849C55.0778 10.1729 52.6222 8.66041 50.055 6.86895C49.9322 6.78524 49.5695 6.52852 49.5695 5.41235V1.95778C51.9748 0.132832 53.7217 -2.45669 54.7541 -5.73825C54.7597 -5.74383 54.7597 -5.755 54.7653 -5.76616C55.4461 -8.13803 55.7922 -11.3805 55.9596 -13.6575C56.0712 -15.1755 56.1047 -16.2638 56.1103 -16.3698V-16.4033C56.1103 -17.6311 56.0098 -18.7975 55.8089 -19.9025C55.8089 -19.9137 55.8089 -19.9249 55.8033 -19.936C55.2955 -22.7823 54.1514 -25.1932 52.4101 -27.0182C50.4847 -29.0329 47.9454 -30.2383 45.1606 -30.4783H45.155C44.8146 -30.5062 44.4741 -30.5229 44.1225 -30.5229H41.6335C38.4412 -30.5229 35.5001 -29.2784 33.3459 -27.0182C30.9238 -24.4789 29.6401 -20.8066 29.6401 -16.4033V-16.3698C29.6457 -16.2247 29.7071 -14.2882 29.9471 -11.9163C30.1424 -9.90717 30.4661 -7.57995 30.9907 -5.76616C30.9907 -5.755 30.9963 -5.74383 30.9963 -5.73825C32.0343 -2.45669 33.7756 0.127251 36.1865 1.95778V5.41235C36.1865 6.52852 35.8182 6.78524 35.6954 6.86895C33.1338 8.66041 30.6726 10.1729 29.9862 10.3849C29.7015 10.4742 29.3667 10.5691 29.0095 10.664C27.9491 10.9542 26.6265 11.3114 25.248 11.9532C21.9385 13.5046 18.3277 16.7081 17.4348 24.5436C17.1669 27.0829 16.592 41.2249 16.592 42.994C16.5865 46.9007 15.833 49.0325 14.8787 51.7281C14.3485 53.2293 13.7458 54.9315 13.1933 57.1694C12.2724 60.9142 11.7367 64.8543 11.2623 68.3312C10.6372 72.9745 10.0903 76.9872 8.89601 78.8512C8.85694 78.907 8.82903 78.9628 8.80671 79.0186C7.92493 81.0947 7.00409 84.7669 6.69156 86.8988C6.54646 87.8978 7.04873 93.0936 7.19383 93.9084C7.21058 94.0089 7.22174 94.1484 7.24406 94.2935C7.35568 95.2757 7.51195 96.6151 8.61696 97.0002C8.71742 97.0337 8.81787 97.056 8.91833 97.0616C8.96855 97.0616 9.01878 97.0616 9.06901 97.0616C11.48 97.0616 12.211 93.7298 12.9198 90.5097C13.0147 90.0632 13.1319 89.5386 13.2547 89.0251C13.277 90.0576 13.4221 91.1905 13.9021 91.7709C14.1532 92.0723 14.4378 92.3067 14.7392 92.463C15.0071 92.5913 15.275 92.6583 15.5428 92.6583C15.8107 92.6583 16.765 92.5634 17.1836 91.3245C17.2059 91.2575 17.2227 91.1905 17.2338 91.118C17.4906 89.254 17.9482 86.0896 18.1045 85.5148C18.9583 82.3225 18.3612 80.7152 17.9315 79.5432C17.6189 78.6949 17.4459 78.2317 17.7919 77.2495C17.7919 77.2383 17.7975 77.2272 17.8031 77.216C19.2039 72.796 20.4763 69.0511 21.5981 65.7473C24.8852 56.0644 26.872 50.2157 27.1957 42.1513C27.4022 40.4994 27.5194 38.9535 27.592 37.6308C27.592 37.5638 27.592 37.4968 27.6031 37.4299C27.6813 37.5917 27.7594 37.748 27.8264 37.8931C28.0049 38.2559 28.1556 38.5572 28.2617 38.7637C30.0922 42.2741 30.3545 49.5404 30.4494 52.275C30.4605 52.6378 30.4717 52.9447 30.4829 53.1736C30.5722 54.9483 29.4281 57.2644 27.9826 60.1943C26.2526 63.6991 24.0983 68.0633 23.077 73.5661C21.4251 82.5122 21.5869 90.0241 23.6463 99.4893C24.8629 105.092 28.3789 124.949 28.1277 128.287C27.8822 129.911 27.7705 133.265 27.6868 135.726C27.6645 136.385 27.6478 136.965 27.6254 137.4C27.285 145.32 28.351 151.219 30.6894 161.9C30.9963 163.29 31.2809 164.518 31.5376 165.595C32.3525 169.061 32.8436 171.153 32.7543 173.698C32.7208 174.697 32.5645 175.149 32.4752 175.328C32.0176 176.243 31.9227 177.047 31.8334 177.756C31.7776 178.219 31.7218 178.654 31.5711 179.112C31.3367 179.848 30.84 180.501 30.2596 181.26C30.0252 181.573 29.7797 181.891 29.5341 182.248C28.7193 183.052 28.3454 183.895 28.4235 184.76C28.5296 185.937 29.456 186.573 29.562 186.646C29.6457 186.696 29.735 186.741 29.8243 186.769C30.3545 186.947 31.0744 186.998 32.7766 186.998C36.2479 186.998 37.8329 186.998 40.4224 186.752C40.4726 186.746 40.5229 186.741 40.5675 186.73C42.4594 186.294 42.2362 183.922 42.0744 182.187C42.0297 181.673 41.9627 180.965 42.013 180.736C42.0465 180.568 42.1413 180.384 42.2641 180.155C42.4929 179.731 42.7775 179.201 42.878 178.42C42.9729 179.201 43.2575 179.731 43.4863 180.155C43.6091 180.384 43.7095 180.568 43.743 180.736C43.7933 180.965 43.7263 181.673 43.6761 182.192C43.5142 183.922 43.2966 186.294 45.1829 186.73C45.2331 186.741 45.2778 186.746 45.328 186.752C47.9175 186.998 49.5025 186.998 52.9794 186.998C54.6816 186.998 55.3959 186.947 55.9261 186.769C56.021 186.741 56.1103 186.696 56.194 186.646C56.2944 186.573 57.2209 185.937 57.3269 184.76C57.405 183.895 57.0311 183.052 56.2219 182.248C55.9708 181.891 55.7308 181.573 55.4908 181.26C54.916 180.501 54.4137 179.848 54.1793 179.112C54.0286 178.654 53.9784 178.219 53.9226 177.756C53.8333 177.047 53.7328 176.243 53.2752 175.328C53.1859 175.149 53.0296 174.697 52.9961 173.698C52.9069 171.153 53.4036 169.061 54.2184 165.595C54.4695 164.512 54.7597 163.29 55.0611 161.9C57.405 151.219 58.4654 145.32 58.125 137.4C58.1082 136.971 58.0859 136.39 58.0636 135.732C57.9799 133.27 57.8683 129.911 57.6227 128.287C57.366 124.893 60.8708 104.797 62.1042 99.5061C64.0296 91.2631 64.8611 83.6954 62.6678 73.5326C61.5349 68.281 59.4867 64.0116 57.8404 60.5794C56.3503 57.4764 55.1783 55.0264 55.2676 53.1736C55.2787 52.9447 55.2899 52.6378 55.3011 52.275C55.4015 49.5404 55.6582 42.2741 57.4832 38.786C57.5892 38.5739 57.7399 38.267 57.9185 37.9043C57.991 37.7536 58.0692 37.5973 58.1529 37.4299C58.1585 37.4968 58.1585 37.5638 58.164 37.6308C58.2366 38.9535 58.3482 40.4994 58.5547 42.1513C58.8728 50.0762 60.9489 56.1984 64.0854 65.4515C65.235 68.8503 66.541 72.6955 67.9473 77.2104C67.9473 77.2216 67.9585 77.2383 67.9641 77.2495C68.3101 78.2317 68.1371 78.6949 67.8246 79.5432C67.3892 80.7152 66.7977 82.3225 67.6515 85.5204C67.8022 86.0896 68.2654 89.254 68.5222 91.118C68.5277 91.1905 68.5445 91.2575 68.5668 91.3245C68.9854 92.5634 69.9341 92.6583 70.2132 92.6583C70.4922 92.6583 70.7489 92.5913 71.0057 92.463C71.3126 92.3067 71.5972 92.0723 71.8484 91.7654C72.3339 91.1905 72.479 90.0576 72.4958 89.0307C72.6241 89.5386 72.7357 90.0632 72.8362 90.5097C73.5394 93.7298 74.2705 97.0616 76.687 97.0616C76.7372 97.0616 76.7875 97.0616 76.8377 97.0616C76.9381 97.056 77.0386 97.0337 77.1335 97.0002C78.2441 96.6151 78.3947 95.2701 78.5119 94.2935C78.5287 94.1428 78.5454 94.0089 78.5622 93.9084C78.7073 93.0936 79.204 87.8978 79.0589 86.8988ZM42.878 177.198C42.8613 177.08 42.8501 176.963 42.8278 176.84C42.3311 173.793 42.359 171.717 42.4036 168.569C42.4539 165.338 42.5097 161.314 42.0409 154.383C41.4102 145.007 41.2874 138.751 41.6502 134.705C41.7172 133.99 41.8065 133.22 41.9013 132.4C42.2083 129.805 42.5822 126.579 42.5487 122.042C42.5152 117.142 42.6659 111.55 42.8278 106.047C43.0343 111.494 43.2408 117.091 43.2017 122.042C43.1682 126.585 43.5477 129.81 43.8491 132.405C43.9439 133.22 44.0388 133.996 44.1002 134.705C44.4686 138.751 44.3458 145.007 43.7095 154.383C43.2408 161.314 43.3021 165.338 43.3468 168.569C43.3914 171.717 43.4249 173.799 42.9282 176.84C42.9059 176.963 42.8892 177.08 42.878 177.198ZM42.9115 81.6416C42.9115 81.2342 42.9282 80.8659 42.9506 80.5366C42.9506 80.8659 42.9394 81.2342 42.9115 81.6416ZM77.3344 94.6953C77.2507 95.2646 77.1056 95.8283 76.7651 95.951H76.687C73.8686 95.951 74.0528 85.7603 71.9767 85.7603C71.893 85.7603 71.8037 85.7771 71.7144 85.8161C71.6419 85.8385 71.5749 85.8664 71.5191 85.8999C71.0391 86.1398 71.1787 86.4133 71.2847 87.0774C71.4186 87.8532 71.4968 90.4594 70.9945 91.0622C70.8438 91.2408 70.6764 91.3859 70.509 91.4696C70.4085 91.5198 70.308 91.5477 70.2132 91.5477C69.9788 91.5477 69.7667 91.3803 69.6272 90.9729C69.6272 90.9729 68.9575 86.084 68.7287 85.2357C67.3446 80.0623 70.0848 79.9116 69.0133 76.8811C63.8007 60.1943 60.0894 52.7494 59.6709 42.0676C59.3751 39.7404 59.2691 37.6364 59.2077 36.0458C59.1295 34.1985 59.1184 33.0489 58.9454 33.0489C58.7166 33.8191 56.4954 38.2726 56.4954 38.2726C56.3279 38.5907 56.1717 38.9367 56.0322 39.2995C54.3077 43.7028 54.2519 51.1588 54.1514 53.1233C53.9672 56.9183 58.0189 62.1141 60.5136 69.8381C60.5415 69.9274 60.5694 70.0167 60.5973 70.106C60.9656 71.2668 61.2949 72.489 61.574 73.7726C61.8753 75.1566 62.1153 76.4905 62.3051 77.7908C63.4101 85.3641 62.7571 91.7989 61.0159 99.2605C59.8774 104.138 56.2051 124.838 56.5121 128.421C56.819 130.391 56.9251 135.458 57.0088 137.456C57.3492 145.347 56.2721 151.163 53.9728 161.671C52.7059 167.448 51.7572 170.205 51.88 173.743C51.9079 174.602 52.0307 175.333 52.2818 175.836C52.9236 177.119 52.6892 178.135 53.1189 179.463C53.5263 180.741 54.4695 181.685 55.368 182.979C57.1539 184.682 55.5801 185.714 55.5801 185.714C55.1894 185.842 54.5253 185.887 52.9794 185.887C52.2874 185.887 51.6735 185.887 51.1154 185.881C50.8419 185.887 50.5796 185.881 50.3285 185.881C49.6867 185.876 49.1119 185.865 48.5649 185.853C48.2524 185.842 47.951 185.826 47.6497 185.809C46.952 185.775 46.2488 185.725 45.434 185.647C44.0277 185.323 45.088 181.69 44.8369 180.507C44.6304 179.569 43.81 179.106 43.9774 177.382C43.9886 177.264 44.0053 177.147 44.0277 177.019C44.1449 176.288 44.2341 175.613 44.3011 174.96C44.8201 169.993 43.9998 166.616 44.8257 154.461C45.568 143.461 45.5122 137.93 45.2108 134.604C44.9429 131.641 44.2732 127.98 44.3179 122.047C44.4127 109.373 42.9338 92.7476 43.8323 83.7791C43.8435 83.6508 43.8602 83.528 43.8714 83.4052C43.877 83.355 43.8826 83.3103 43.8881 83.2601C43.8993 83.1819 43.9049 83.1038 43.916 83.0257C44.3513 78.9516 43.7821 77.1323 43.118 77.1323C42.4036 77.1323 41.5832 79.2809 41.8455 83.0369C41.8511 83.1094 41.8567 83.1819 41.8623 83.2601C41.8679 83.3047 41.8679 83.3494 41.8734 83.3941C41.8846 83.5224 41.8902 83.6396 41.9013 83.768C42.4762 92.1672 41.3377 109.39 41.4326 122.047C41.4772 127.98 40.8075 131.641 40.5396 134.604C40.2382 137.93 40.188 143.461 40.9303 154.461C41.7562 166.739 40.9191 170.06 41.466 175.116C41.533 175.724 41.6167 176.349 41.7283 177.019C41.8009 177.465 41.812 177.834 41.7897 178.146C41.6893 179.274 41.081 179.731 40.9191 180.507C40.668 181.69 41.7283 185.323 40.3164 185.647C39.5518 185.72 38.8821 185.77 38.2235 185.803C37.9222 185.82 37.6208 185.837 37.3083 185.848C36.7558 185.865 36.1865 185.876 35.5503 185.881H34.7634C34.1718 185.887 33.5189 185.887 32.7766 185.887C31.2307 185.887 30.561 185.842 30.1703 185.714C30.1703 185.714 28.5965 184.682 30.388 182.979C31.2809 181.685 32.2241 180.741 32.6371 179.463C33.0612 178.135 32.8324 177.119 33.4742 175.836C33.7253 175.333 33.8425 174.602 33.8704 173.743C33.9932 170.205 33.0445 167.448 31.7776 161.671C29.4783 151.163 28.4012 145.347 28.7416 137.456C28.8309 135.458 28.9314 130.391 29.2383 128.421C29.5509 124.838 25.8005 104.155 24.7346 99.2605C23.144 91.9495 22.5859 85.431 23.5514 77.7852C23.5626 77.6904 23.5737 77.5955 23.5905 77.5006C23.6016 77.4281 23.6072 77.3499 23.6184 77.2774C23.7691 76.15 23.9532 74.9836 24.1765 73.7726C24.2267 73.5103 24.2769 73.2536 24.3327 72.9969C24.3774 72.768 24.4276 72.5392 24.4834 72.3104C24.4834 72.2713 24.5002 72.2323 24.5113 72.1932C24.5615 71.9644 24.6174 71.7356 24.6787 71.5067C24.7401 71.25 24.8071 70.9933 24.8797 70.7422C24.941 70.5189 25.0024 70.3013 25.0638 70.0892C25.0917 69.9999 25.1196 69.9051 25.1475 69.8213C27.5194 62.0472 31.7888 56.9239 31.599 53.1233C31.4986 51.1588 31.4428 43.7084 29.7239 39.3051C29.5843 38.9367 29.4281 38.5907 29.2607 38.2726C29.2607 38.2726 27.0394 33.8191 26.8106 33.0489C26.6376 33.0489 26.6209 34.1985 26.5483 36.0402C26.487 37.6364 26.3809 39.7404 26.0851 42.0676C25.6666 52.7494 22.1729 59.7367 16.7371 76.8811C15.6656 79.9116 18.4114 80.0623 17.0218 85.2357C16.7985 86.084 16.1288 90.9729 16.1288 90.9729C15.9893 91.3803 15.7772 91.5477 15.5428 91.5477C15.448 91.5477 15.3475 91.5198 15.2471 91.4696C15.0796 91.3859 14.9122 91.2408 14.7615 91.0622C14.2592 90.4594 14.3374 87.8532 14.4657 87.0774C14.5773 86.4133 14.7169 86.1398 14.2313 85.8999C14.1755 85.8664 14.1141 85.8385 14.036 85.8161C13.9467 85.7771 13.8574 85.7603 13.7737 85.7603C11.7032 85.7603 11.8818 95.951 9.06901 95.951H8.99088C8.65045 95.8283 8.50534 95.259 8.41605 94.6898C8.36024 94.3214 8.33234 93.9475 8.28769 93.7131C8.23188 93.3894 8.14259 92.6025 8.05887 91.6705C7.89145 89.8734 7.72402 87.5629 7.79657 87.0607C8.09236 85.0348 8.9853 81.4631 9.83359 79.4539C12.1385 75.8654 12.1218 66.1659 14.276 57.4374C15.8051 51.2482 17.6971 49.3283 17.7082 42.994C17.7082 41.2584 18.2775 27.2001 18.5453 24.672C19.3434 17.6624 22.4073 14.6487 25.3764 13.1419C25.4936 13.0749 25.6108 13.0191 25.728 12.9689C26.1967 12.7457 26.6655 12.5615 27.112 12.3996C27.458 12.2713 27.7985 12.1652 28.1277 12.0648C28.2226 12.0369 28.3175 12.009 28.4124 11.9866C28.7249 11.8974 29.0207 11.8136 29.2997 11.7411C29.4337 11.702 29.562 11.6685 29.6848 11.635C29.7964 11.6016 29.908 11.5737 30.0141 11.5402C30.0587 11.529 30.1034 11.5123 30.148 11.5011C30.2038 11.4844 30.2596 11.4676 30.3154 11.4509C31.3646 11.1272 34.4062 9.12922 36.3372 7.78422C37.0962 7.25404 37.3027 6.33878 37.3027 5.41235V1.38855C36.9455 1.13741 36.5995 0.875088 36.2758 0.596043C36.0303 0.38397 35.7903 0.166313 35.5615 -0.0680828C35.4443 -0.185282 35.3326 -0.302454 35.221 -0.425234C35.1094 -0.542433 35.0034 -0.665226 34.8973 -0.788006C34.7913 -0.910784 34.6853 -1.03355 34.5904 -1.16191C34.4844 -1.29028 34.3895 -1.41864 34.2946 -1.55258C34.2444 -1.61955 34.1941 -1.68652 34.1495 -1.75349C34.0993 -1.82046 34.0546 -1.88745 34.01 -1.95442C33.9151 -2.08837 33.8258 -2.2223 33.7421 -2.36182C33.5691 -2.64644 33.4017 -2.93106 33.2454 -3.22685C33.1617 -3.37195 33.0891 -3.52265 33.0166 -3.67333C32.9273 -3.85192 32.8436 -4.03608 32.7599 -4.22583C32.6985 -4.34861 32.6482 -4.47697 32.598 -4.60533C32.5143 -4.7895 32.4417 -4.97924 32.3748 -5.17457C32.3301 -5.28061 32.2911 -5.38665 32.2576 -5.49269C32.1906 -5.68244 32.1236 -5.87777 32.0622 -6.0731C31.8948 -6.64793 31.7497 -7.27858 31.6269 -7.9427C31.5488 -8.33894 31.4763 -8.74076 31.4149 -9.15374C31.2977 -9.91274 31.1972 -10.6829 31.1191 -11.4308C31.08 -11.7544 31.0521 -12.0725 31.0186 -12.3795C30.9405 -13.2278 30.8847 -14.0091 30.8456 -14.6453C30.8345 -14.8574 30.8233 -15.0528 30.8121 -15.2369C30.801 -15.4155 30.7898 -15.5829 30.7842 -15.7225C30.7786 -15.795 30.7786 -15.862 30.7731 -15.9234C30.7619 -16.2303 30.7563 -16.4033 30.7563 -16.4033C30.7563 -25.3216 36.1865 -29.4068 41.6335 -29.4068H44.1225C49.5639 -29.4068 54.9941 -25.3216 54.9941 -16.4033C54.9941 -16.4033 54.9885 -16.1912 54.9718 -15.8229C54.9718 -15.7783 54.9662 -15.728 54.9662 -15.6778C54.9606 -15.5718 54.955 -15.4601 54.9439 -15.3318C54.9327 -15.1365 54.916 -14.9132 54.9048 -14.6621C54.9048 -14.5505 54.8937 -14.4277 54.8825 -14.2993C54.8602 -13.9812 54.8378 -13.6296 54.8043 -13.2557C54.8043 -13.1218 54.7876 -12.9878 54.7709 -12.8483C54.7318 -12.3795 54.6816 -11.8828 54.6258 -11.3694C54.5867 -11.0122 54.5476 -10.6494 54.4974 -10.2811C54.4695 -10.0579 54.436 -9.83462 54.4025 -9.61138C54.3746 -9.38256 54.3411 -9.15933 54.3021 -8.9361C54.2295 -8.48963 54.1514 -8.05432 54.0677 -7.63017C54.0119 -7.35671 53.9561 -7.08325 53.8891 -6.82652C53.8277 -6.5698 53.7607 -6.31308 53.6938 -6.0731C53.6212 -5.84429 53.5431 -5.61547 53.4594 -5.39223C53.4594 -5.38107 53.4538 -5.36991 53.4482 -5.35875C53.4147 -5.25829 53.3812 -5.16343 53.3422 -5.06855C53.2529 -4.82857 53.158 -4.59976 53.0575 -4.37094C52.9906 -4.21467 52.9236 -4.0584 52.851 -3.90772C52.5999 -3.37195 52.3209 -2.86411 52.0139 -2.37299C51.9302 -2.23347 51.8409 -2.09392 51.746 -1.95998C51.6567 -1.82604 51.5674 -1.69212 51.467 -1.56376C51.3777 -1.4354 51.2828 -1.31259 51.1824 -1.18981C51.0819 -1.05587 50.9759 -0.927538 50.8642 -0.799177C50.6578 -0.548038 50.4345 -0.308033 50.2057 -0.0736351C50.0718 0.0547237 49.9378 0.188633 49.7983 0.311413C49.7034 0.400707 49.6086 0.490019 49.5081 0.573732C49.5025 0.573732 49.5025 0.579323 49.4969 0.584904C49.4802 0.596066 49.469 0.607227 49.4523 0.618389C49.3351 0.718843 49.2123 0.813696 49.0951 0.908571C49.0002 0.992285 48.8998 1.07044 48.7937 1.14299C48.6821 1.22671 48.5705 1.31042 48.4533 1.38855V5.41235C48.4533 6.33878 48.6598 7.25404 49.4188 7.78422C51.3442 9.12922 54.3914 11.1272 55.435 11.4509C55.4908 11.4676 55.5466 11.4844 55.6024 11.5011C55.6471 11.5123 55.6917 11.529 55.7364 11.5402C55.8815 11.5848 56.0321 11.6239 56.1884 11.6685C56.2944 11.6964 56.4061 11.7243 56.5177 11.7578C56.7967 11.8304 57.0925 11.9141 57.3995 12.0034C57.472 12.0201 57.5446 12.0425 57.6227 12.0648C57.7399 12.0983 57.8571 12.1373 57.9743 12.1764C58.1696 12.2378 58.365 12.3048 58.5714 12.3773C58.7724 12.4443 58.9789 12.5224 59.1853 12.6061C59.3918 12.6842 59.5983 12.7735 59.8104 12.8684C62.9469 14.2804 66.3568 17.2159 67.2051 24.672C67.4785 27.2001 68.0422 41.2584 68.0422 42.994C68.0534 49.3283 69.9453 51.2482 71.4744 57.4374C73.6287 66.1659 73.6175 75.8654 75.9224 79.4539C76.7707 81.4631 77.6581 85.0348 77.9539 87.0607C78.0264 87.5629 77.8645 89.8734 77.6971 91.6649C77.6078 92.5969 77.5185 93.3894 77.4627 93.7131C77.4237 93.9475 77.3958 94.3214 77.3344 94.6898V94.6953Z" fill="black" fill-opacity="0.2"/>
<path d="M27.9488 23.5444C27.9488 23.5444 25.3871 28.104 25.5713 32.2841C25.6271 33.5677 25.9564 34.8792 26.548 36.04C26.4866 37.6361 26.3805 39.7401 26.0848 42.0673C25.6662 52.7492 22.1726 59.7364 16.7368 76.8809C15.6652 79.9113 18.411 80.062 17.0214 85.2355C16.7982 86.0838 16.1285 90.9726 16.1285 90.9726C15.9889 91.38 15.7769 91.5475 15.5425 91.5475C15.4476 91.5475 15.3471 91.5196 15.2467 91.4693C15.0793 91.3856 14.9118 91.2405 14.7611 91.0619C14.2589 90.4592 14.337 87.8529 14.4654 87.0772C14.577 86.4131 14.7165 86.1396 14.231 85.8996C14.1751 85.8661 14.1138 85.8382 14.0356 85.8159C13.9463 85.7768 13.857 85.7601 13.7733 85.7601C11.7028 85.7601 11.8814 95.9508 9.06864 95.9508H8.99051C8.65007 95.828 8.50497 95.2588 8.41568 94.6895C8.438 94.7007 8.45474 94.7174 8.47707 94.7286C9.15235 91.447 9.34769 89.0305 9.90019 86.7981C10.0565 86.1619 9.92252 86.0503 9.63789 86.6028C9.24165 87.373 8.47149 89.5104 8.0585 91.6646C7.89108 89.8732 7.72365 87.5627 7.7962 87.0604C8.09199 85.0346 8.98492 81.4628 9.83322 79.4537C12.1381 75.8652 12.1214 66.1656 14.2756 57.4371C15.8048 51.2479 17.6967 49.3281 17.7078 42.9938C17.7078 41.2581 18.2771 27.1999 18.545 24.6717C19.343 17.6622 22.407 14.6485 25.376 13.1417C25.4932 13.0803 25.6104 13.0245 25.7276 12.9686C26.1964 12.7454 26.6652 12.5612 27.1116 12.3994C27.4632 12.2766 27.8037 12.1706 28.1274 12.0757C27.692 13.6774 27.5414 20.4191 27.9488 23.5444Z" fill="#FFEACA"/>
<path d="M75.8553 86.7983C76.4022 89.0307 76.5975 91.4472 77.2784 94.7288C77.2952 94.7176 77.3175 94.7065 77.3342 94.6953C77.2505 95.2646 77.1054 95.8282 76.765 95.951H76.6868C73.8685 95.951 74.0527 85.7603 71.9766 85.7603C71.8929 85.7603 71.8036 85.777 71.7143 85.8161C71.6417 85.8384 71.5748 85.8663 71.519 85.8998C71.039 86.1398 71.1785 86.4133 71.2845 87.0774C71.4185 87.8531 71.4966 90.4594 70.9943 91.0621C70.8437 91.2407 70.6762 91.3858 70.5088 91.4695C70.4084 91.5198 70.3079 91.5477 70.213 91.5477C69.9786 91.5477 69.7665 91.3802 69.627 90.9728C69.627 90.9728 68.9573 86.084 68.7285 85.2357C67.3445 80.0622 70.0847 79.9115 69.0131 76.8811C63.8006 60.1943 60.0893 52.7494 59.6707 42.0676C59.3749 39.7403 59.2689 37.6364 59.2075 36.0458C59.7935 34.8794 60.1228 33.5679 60.1786 32.2843C60.3683 28.1042 57.8067 23.5446 57.8067 23.5446C58.2085 20.4137 58.0579 13.6664 57.6226 12.0703C57.7398 12.1038 57.8569 12.1373 57.9741 12.1764C58.1695 12.2377 58.3648 12.3047 58.5713 12.3773C58.7722 12.4443 58.9787 12.5224 59.1852 12.6061C59.3917 12.6842 59.5982 12.7735 59.8103 12.8684C62.9467 14.2803 66.3566 17.2159 67.2049 24.672C67.4784 27.2001 68.0421 41.2584 68.0421 42.994C68.0532 49.3283 69.9451 51.2481 71.4743 57.4373C73.6285 66.1658 73.6174 75.8654 75.9223 79.4539C76.7706 81.463 77.6579 85.0348 77.9537 87.0606C78.0263 87.5629 77.8644 89.8734 77.697 91.6649C77.284 89.5106 76.5138 87.3732 76.1176 86.603C75.833 86.0505 75.699 86.1621 75.8553 86.7983Z" fill="#FFEACA"/>
<path d="M54.8824 -14.2995C54.8601 -13.9814 54.8378 -13.6298 54.8043 -13.2559C54.8043 -13.1219 54.7875 -12.988 54.7708 -12.8485C54.7317 -12.3797 54.6815 -11.883 54.6257 -11.3695C54.5866 -11.0124 54.5476 -10.6496 54.4973 -10.2813C54.4694 -10.058 54.4359 -9.8348 54.4025 -9.61157C54.3745 -9.38275 54.3411 -9.15952 54.302 -8.93629C54.2294 -8.48981 54.1513 -8.05451 54.0676 -7.63036C54.0118 -7.3569 53.956 -7.08343 53.889 -6.82671C53.8276 -6.56999 53.7607 -6.31327 53.6937 -6.07329C53.6211 -5.84447 53.543 -5.61566 53.4593 -5.39242C53.4593 -5.38126 53.4537 -5.3701 53.4481 -5.35894C53.4146 -5.25848 53.3812 -5.16361 53.3421 -5.06874C53.2528 -4.82876 53.1579 -4.59994 53.0575 -4.37113C52.9905 -4.21486 52.9235 -4.05859 52.851 -3.9079C52.5998 -3.37214 52.3208 -2.8643 52.0138 -2.37318C51.9301 -2.23366 51.8408 -2.0941 51.7459 -1.96017C51.6567 -1.82622 51.5674 -1.6923 51.4669 -1.56394C51.3776 -1.43558 51.2827 -1.31278 51.1823 -1.19C51.0818 -1.05606 50.9758 -0.927725 50.8642 -0.799364C50.6577 -0.548225 50.4345 -0.30822 50.2056 -0.073822C50.0717 0.0545368 49.9377 0.188446 49.7982 0.311226C49.7033 0.40052 49.6085 0.489832 49.508 0.573545C49.5024 0.573545 49.5024 0.579136 49.4969 0.584717C47.8114 1.6395 45.3614 2.9789 43.7374 2.9789H42.0129C40.3944 2.9789 37.9612 1.65064 36.2758 0.595856C36.0302 0.383781 35.7902 0.166126 35.5614 -0.0682697C35.4442 -0.185469 35.3326 -0.302641 35.221 -0.425421C35.1093 -0.54262 35.0033 -0.665413 34.8973 -0.788193C34.7912 -0.910973 34.6852 -1.03374 34.5903 -1.1621C34.4843 -1.29046 34.3894 -1.41883 34.2945 -1.55277C34.2443 -1.61974 34.1941 -1.6867 34.1494 -1.75367C34.0992 -1.82064 34.0545 -1.88764 34.0099 -1.95461C33.915 -2.08855 33.8257 -2.22248 33.742 -2.36201C33.569 -2.64663 33.4016 -2.93125 33.2453 -3.22704C33.1616 -3.37214 33.0891 -3.52283 33.0165 -3.67352C32.9272 -3.8521 32.8435 -4.03627 32.7598 -4.22602C32.6984 -4.3488 32.6482 -4.47715 32.5979 -4.60551C32.5142 -4.78968 32.4417 -4.97943 32.3747 -5.17476C32.3301 -5.28079 32.291 -5.38684 32.2575 -5.49287C32.1905 -5.68262 32.1236 -5.87796 32.0622 -6.07329C31.8948 -6.64812 31.7496 -7.27876 31.6269 -7.94289C31.5487 -8.33913 31.4762 -8.74094 31.4148 -9.15393C31.2976 -9.91293 31.1971 -10.6831 31.119 -11.4309C31.0799 -11.7546 31.052 -12.0727 31.0186 -12.3797C42.091 -17.369 47.0301 -24.0884 47.0301 -24.0884C48.8551 -18.8814 52.5496 -15.8063 54.8824 -14.2995Z" fill="#FFEACA"/>
<path d="M55.6023 11.5066C55.5465 11.4843 55.4907 11.4675 55.4349 11.4508C54.3913 11.1271 51.3441 9.12912 49.4187 7.78413C48.6597 7.25395 48.4532 6.33868 48.4532 5.41226V2.18652C46.7064 3.29154 44.7978 3.89427 44.0499 3.89427H41.7004C40.9358 3.89427 39.0718 3.34732 37.3026 2.19766V5.41226C37.3026 6.33868 37.0961 7.25395 36.3371 7.78413C34.4061 9.12912 31.3646 11.1271 30.3154 11.4508C30.2595 11.4675 30.2037 11.4843 30.1479 11.501C30.0363 12.221 29.9582 12.9409 29.9024 13.6441C32.1961 13.6943 37.3417 13.8952 39.2671 14.7323C41.5497 15.7202 34.1159 15.123 29.88 13.9678C29.5229 18.7227 30.1089 22.7576 30.1089 22.78C34.8359 27.8586 39.7805 28.0818 42.0017 34.4273H43.7485C45.9697 28.0818 50.9144 27.8586 55.647 22.78C55.647 22.7521 56.4395 17.2438 55.6023 11.5066ZM42.9114 17.1489C42.3589 17.4614 41.9292 17.1098 41.639 16.6856C41.3376 16.2448 41.5274 16.1443 42.0296 16.334C42.2361 16.4122 42.437 16.4568 42.6268 16.4847C43.157 16.5573 43.3746 16.881 42.9114 17.1489ZM55.4517 13.9175C51.2493 15.1062 43.57 15.7369 45.8916 14.7323C47.8561 13.8729 53.2026 13.6831 55.407 13.6385C55.9428 13.6273 55.9651 13.7724 55.4517 13.9175Z" fill="#FFEACA"/>
<path d="M54.1513 53.1234C54.2518 51.1589 54.3076 43.7029 56.0321 39.3051C55.6247 39.5004 55.1894 39.6511 54.7261 39.7572C54.6257 39.7795 54.1792 39.9804 52.8398 39.9804C50.4679 39.9804 46.2767 39.3721 43.9216 36.604V36.5537H42.9505L41.8343 36.604C39.4736 39.3721 35.2823 39.9804 32.9105 39.9804C31.5711 39.9804 31.1246 39.7795 31.0241 39.7572C30.5609 39.6511 30.1312 39.5004 29.7238 39.3051C31.4427 43.7084 31.4985 51.1589 31.599 53.1234C31.7887 56.9239 27.5193 62.0472 25.1475 69.8214C25.5381 69.8828 26.0013 69.9553 26.5315 70.039C29.9247 70.5859 36.2478 71.6072 42.8779 71.6072C49.508 71.6072 55.8256 70.5859 59.2243 70.039C59.7043 69.9609 60.1396 69.8939 60.5135 69.8381C58.0189 62.1142 53.9671 56.9184 54.1513 53.1234ZM40.3163 44.4284C39.6745 45.0311 38.4746 46.3035 37.5928 48.095C37.4868 48.3182 37.4142 48.3461 37.3584 48.3461C37.3249 48.3461 37.297 48.335 37.2747 48.307C37.2468 48.2736 37.2133 48.2066 37.2524 47.9945C37.4254 47.0234 38.0281 45.2376 40.1321 44.1493C40.2828 44.0712 40.3442 44.06 40.3777 44.06C40.4279 44.06 40.4726 44.0879 40.4893 44.127C40.5172 44.1995 40.467 44.2833 40.3163 44.4284ZM42.4817 45.5111C42.5487 44.7688 42.6714 44.7744 42.7384 45.5111C43.3077 51.9626 43.0454 55.7129 42.8054 57.5044C42.7049 58.241 42.4091 58.241 42.3087 57.5044C41.8064 53.8935 42.2361 48.1062 42.4817 45.5111ZM42.5766 63.5875C41.9627 63.5875 41.4604 63.2136 41.4604 62.7504C41.4604 62.2872 41.9627 61.9132 42.5766 61.9132C43.1905 61.9132 43.6927 62.2872 43.6927 62.7504C43.6927 63.2136 43.196 63.5875 42.5766 63.5875ZM47.8784 48.307C47.8784 48.307 47.8282 48.3461 47.7947 48.3461C47.7389 48.3461 47.6663 48.3182 47.5603 48.095C46.6841 46.3035 45.4786 45.0311 44.8424 44.4284C44.6861 44.2833 44.6415 44.1995 44.6694 44.127C44.6861 44.0879 44.7252 44.06 44.7754 44.06C44.8089 44.06 44.8759 44.0712 45.0266 44.1493C47.1306 45.2376 47.7277 47.0234 47.9007 47.9945C47.9398 48.2066 47.9119 48.2736 47.8784 48.307Z" fill="#FFEACA"/>
<path d="M40.6904 174.05C40.9304 174.318 41.2038 174.675 41.4662 175.116C40.9192 170.059 41.7564 166.739 40.9304 154.461C40.1881 143.461 40.2384 137.93 40.5397 134.604C40.8076 131.641 41.4773 127.979 41.4327 122.047C41.3378 109.39 42.4763 92.167 41.9015 83.7677C36.1866 79.4872 29.6235 77.333 23.6073 77.7795H23.5515C22.586 85.4309 23.1441 91.9493 24.7347 99.2603C25.8006 104.155 29.551 124.837 29.2384 128.42C28.9315 130.39 28.831 135.458 28.7417 137.456C28.4013 145.347 29.4784 151.162 31.7777 161.671C33.0446 167.447 33.9933 170.204 33.8706 173.743C33.8427 174.602 33.7255 175.333 33.4743 175.836C32.8325 177.119 33.0613 178.135 32.6372 179.463C32.2242 180.741 31.281 181.684 30.3881 182.979C28.5966 184.681 30.1705 185.714 30.1705 185.714C30.5611 185.842 31.2308 185.887 32.7767 185.887C33.519 185.887 34.1719 185.887 34.7635 185.881C34.7691 185.15 34.6072 184.486 34.9533 183.839C35.2267 183.325 35.4946 183.275 35.3551 183.844C35.1597 184.687 35.4723 185.044 35.5504 185.881C36.1866 185.876 36.7559 185.864 37.3084 185.848C37.2247 184.938 37.4758 184.452 37.5763 183.816C37.6712 183.174 38.3911 183.174 38.4804 183.822C38.5585 184.352 38.1511 184.252 38.2237 185.803C38.8822 185.77 39.5519 185.719 40.3165 185.647C41.7285 185.323 40.6681 181.69 40.9192 180.507C41.0811 179.731 41.6894 179.273 41.7898 178.152C41.522 176.963 41.0978 175.601 40.4504 174.228C40.2384 173.776 40.3611 173.676 40.6904 174.05ZM30.8736 185.764C30.8122 185.764 30.7453 185.77 30.6839 185.775C30.7118 185.139 30.5444 184.564 30.8401 184C31.069 183.576 31.2866 183.537 31.175 184.006C31.002 184.737 31.2978 185.027 31.3424 185.809C31.1917 185.781 31.0355 185.764 30.8736 185.764ZM32.799 185.831C32.7377 185.831 32.6707 185.831 32.6093 185.831C32.6372 185.195 32.4642 184.62 32.7656 184.062C32.9944 183.638 33.212 183.593 33.1004 184.062C32.9274 184.793 33.2232 185.083 33.2678 185.87C33.1171 185.842 32.9609 185.825 32.799 185.825V185.831ZM37.7995 130.229C37.3921 130.842 36.6331 131.78 35.8239 131.841C34.2277 131.841 33.5859 131.099 32.3079 129.994C31.7777 129.531 32.3302 129.492 32.972 129.899C34.5849 130.921 36.8563 130.731 37.5819 130.162C37.8944 129.916 37.9893 129.944 37.7995 130.229Z" fill="#FFEACA"/>
<path d="M62.3051 77.7905L62.1488 77.7793C56.1159 77.3329 49.5528 79.4927 43.8324 83.7788C42.9338 92.7473 44.4128 109.373 44.3179 122.047C44.2732 127.979 44.943 131.64 45.2108 134.604C45.5122 137.93 45.568 143.461 44.8258 154.461C43.9998 166.616 44.8258 169.992 44.3011 174.959C44.5467 174.613 44.7867 174.334 44.9932 174.111C45.3392 173.743 45.4564 173.849 45.2276 174.301C44.6807 175.361 44.2733 176.41 43.9775 177.381C43.81 179.106 44.6304 179.569 44.8369 180.507C45.0881 181.69 44.0277 185.323 45.4341 185.647C46.2489 185.725 46.9521 185.775 47.6497 185.808C47.7278 184.251 47.3204 184.352 47.393 183.822C47.4878 183.174 48.2078 183.174 48.3026 183.816C48.3975 184.458 48.6542 184.938 48.565 185.853C49.1119 185.864 49.6867 185.875 50.3285 185.881C50.4066 185.044 50.7192 184.687 50.5183 183.844C50.3843 183.275 50.6522 183.325 50.9257 183.838C51.2717 184.486 51.1098 185.15 51.1154 185.881C51.6735 185.887 52.2874 185.887 52.9794 185.887C54.5253 185.887 55.1895 185.842 55.5801 185.714C55.5801 185.714 57.1539 184.681 55.368 182.979C54.4695 181.684 53.5264 180.741 53.119 179.463C52.6892 178.135 52.9236 177.119 52.2818 175.835C52.0307 175.333 51.9079 174.602 51.88 173.743C51.7572 170.204 52.706 167.447 53.9728 161.671C56.2722 151.162 57.3493 145.347 57.0088 137.456C56.9251 135.458 56.8191 130.39 56.5121 128.42C56.2052 124.837 59.8774 104.138 61.0159 99.2602C62.7571 91.7985 63.4101 85.3637 62.3051 77.7905ZM54.7039 184.006C54.5923 183.537 54.81 183.576 55.0332 184C55.3346 184.564 55.1671 185.139 55.195 185.775C55.1281 185.769 55.0667 185.764 54.9997 185.764C54.8434 185.764 54.6872 185.781 54.5309 185.808C54.5756 185.027 54.8769 184.737 54.7039 184.006ZM52.7785 184.067C52.6669 183.598 52.8845 183.643 53.1078 184.067C53.4091 184.625 53.2417 185.2 53.2696 185.836C53.2027 185.836 53.1413 185.836 53.0799 185.836C52.918 185.836 52.7618 185.853 52.6111 185.881C52.6502 185.094 52.9515 184.804 52.7785 184.073V184.067ZM53.4147 129.994C52.1423 131.099 51.4949 131.841 49.9044 131.841C49.0951 131.78 48.3361 130.842 47.9287 130.228C47.739 129.944 47.8339 129.916 48.1464 130.162C48.8719 130.731 51.1433 130.92 52.7562 129.899C53.398 129.492 53.9505 129.531 53.4147 129.994Z" fill="#FFEACA"/>
<path d="M61.574 73.7722C61.3396 72.4942 61.0327 71.2664 60.6923 70.0889C57.6897 70.5409 50.563 71.8859 42.8781 71.8859C35.1932 71.8859 28.0608 70.5409 25.0583 70.0889C24.7123 71.2664 24.4109 72.4942 24.1765 73.7722C23.9366 75.0614 23.7468 76.2948 23.585 77.5003C30.1425 77.0203 36.8228 79.5094 42.4093 83.8011H43.3357C48.9278 79.5094 55.6025 77.0203 62.16 77.5003C61.9982 76.2948 61.8084 75.0614 61.5685 73.7722H61.574Z" fill="#333333"/>
<path d="M61.574 73.7722C61.3396 72.4942 61.0327 71.2664 60.6923 70.0889C57.6897 70.5409 50.563 71.8859 42.8781 71.8859C35.1932 71.8859 28.0608 70.5409 25.0583 70.0889C24.7123 71.2664 24.4109 72.4942 24.1765 73.7722C23.9366 75.0614 23.7468 76.2948 23.585 77.5003C30.1425 77.0203 36.8228 79.5094 42.4093 83.8011H43.3357C48.9278 79.5094 55.6025 77.0203 62.16 77.5003C61.9982 76.2948 61.8084 75.0614 61.5685 73.7722H61.574Z" fill="black" fill-opacity="0.2"/>
<path d="M62.4446 77.4668C62.2772 76.2055 62.0818 74.9833 61.8474 73.7221C61.6242 72.4998 61.334 71.2832 60.9601 70.0108L60.8931 69.7764L60.6531 69.8154C60.6085 69.8154 60.5583 69.8266 60.5136 69.8377C60.1397 69.8936 59.7044 69.9605 59.2244 70.0387C55.8257 70.5856 49.5081 71.6069 42.878 71.6069C36.2479 71.6069 29.9248 70.5856 26.5316 70.0387C26.0014 69.9549 25.5382 69.8824 25.1476 69.821C25.1308 69.821 25.1197 69.821 25.1029 69.821L24.8574 69.782L24.7904 70.0163C24.4276 71.2665 24.1263 72.5166 23.903 73.7276C23.6686 74.9889 23.4733 76.2111 23.3115 77.4724L23.2612 77.8129L23.5514 77.7905H23.6072C29.6234 77.3385 36.1866 79.4927 41.9014 83.7732C42.013 83.8569 42.1302 83.9406 42.2418 84.0299L42.3199 84.0858H43.4361L43.5087 84.0299C43.6147 83.9462 43.7263 83.8625 43.8324 83.7844C49.5528 79.4983 56.1159 77.3384 62.1488 77.7849L62.3051 77.7961L62.4892 77.8129L62.4446 77.4724V77.4668ZM43.9161 83.0254C43.6928 83.1872 43.4696 83.3547 43.2464 83.5221H42.5041C42.2864 83.3547 42.0688 83.1928 41.8456 83.0366C36.2312 78.9458 29.8578 76.8529 23.9086 77.1989C24.0649 76.0716 24.2379 74.961 24.45 73.8225C24.6564 72.7063 24.9299 71.5567 25.2592 70.4014C25.6052 70.4572 26.0014 70.5186 26.4423 70.5912C29.8523 71.1437 36.2033 72.165 42.878 72.165C49.5528 72.165 55.8982 71.1437 59.3137 70.5912C59.749 70.5186 60.1453 70.4572 60.4913 70.4014C60.8261 71.5734 61.094 72.6952 61.3005 73.8225C61.5126 74.961 61.6912 76.0716 61.8474 77.1989C55.8982 76.8529 49.5304 78.9402 43.9161 83.0254Z" fill="#333333"/>
<path d="M62.4446 77.4668C62.2772 76.2055 62.0818 74.9833 61.8474 73.7221C61.6242 72.4998 61.334 71.2832 60.9601 70.0108L60.8931 69.7764L60.6531 69.8154C60.6085 69.8154 60.5583 69.8266 60.5136 69.8377C60.1397 69.8936 59.7044 69.9605 59.2244 70.0387C55.8257 70.5856 49.5081 71.6069 42.878 71.6069C36.2479 71.6069 29.9248 70.5856 26.5316 70.0387C26.0014 69.9549 25.5382 69.8824 25.1476 69.821C25.1308 69.821 25.1197 69.821 25.1029 69.821L24.8574 69.782L24.7904 70.0163C24.4276 71.2665 24.1263 72.5166 23.903 73.7276C23.6686 74.9889 23.4733 76.2111 23.3115 77.4724L23.2612 77.8129L23.5514 77.7905H23.6072C29.6234 77.3385 36.1866 79.4927 41.9014 83.7732C42.013 83.8569 42.1302 83.9406 42.2418 84.0299L42.3199 84.0858H43.4361L43.5087 84.0299C43.6147 83.9462 43.7263 83.8625 43.8324 83.7844C49.5528 79.4983 56.1159 77.3384 62.1488 77.7849L62.3051 77.7961L62.4892 77.8129L62.4446 77.4724V77.4668ZM43.9161 83.0254C43.6928 83.1872 43.4696 83.3547 43.2464 83.5221H42.5041C42.2864 83.3547 42.0688 83.1928 41.8456 83.0366C36.2312 78.9458 29.8578 76.8529 23.9086 77.1989C24.0649 76.0716 24.2379 74.961 24.45 73.8225C24.6564 72.7063 24.9299 71.5567 25.2592 70.4014C25.6052 70.4572 26.0014 70.5186 26.4423 70.5912C29.8523 71.1437 36.2033 72.165 42.878 72.165C49.5528 72.165 55.8982 71.1437 59.3137 70.5912C59.749 70.5186 60.1453 70.4572 60.4913 70.4014C60.8261 71.5734 61.094 72.6952 61.3005 73.8225C61.5126 74.961 61.6912 76.0716 61.8474 77.1989C55.8982 76.8529 49.5304 78.9402 43.9161 83.0254Z" fill="black" fill-opacity="0.2"/>
<path d="M60.1785 32.2843C60.1227 33.5679 59.7935 34.8794 59.2075 36.0402C58.9228 36.6206 58.5712 37.1564 58.1638 37.6364C58.0857 37.7312 58.002 37.8205 57.9183 37.9098C57.3825 38.4791 56.7519 38.9535 56.0319 39.2995C55.6245 39.5004 55.1892 39.6511 54.726 39.7571C54.6256 39.7794 54.1791 39.9803 52.8397 39.9803C50.4678 39.9803 46.2766 39.372 43.9214 36.6039V36.5537H42.9504L41.8342 36.6039C39.4735 39.372 35.2822 39.9803 32.9103 39.9803C31.5709 39.9803 31.1245 39.7794 31.024 39.7571C30.5608 39.6511 30.1311 39.5004 29.7237 39.3051C28.9981 38.9535 28.3675 38.4735 27.8262 37.8987C27.748 37.815 27.6699 37.7256 27.5918 37.6364C27.1788 37.1564 26.8328 36.6206 26.5481 36.0458C25.9566 34.8794 25.6273 33.5679 25.5715 32.2843C25.3873 28.1042 27.9489 23.5446 27.9489 23.5446C27.5415 20.4193 27.6922 13.6776 28.1275 12.0759V12.0648C28.1498 11.9922 28.1666 11.9308 28.1889 11.8806C28.4177 11.3448 30.265 10.703 30.1757 11.2834C30.1645 11.356 30.1534 11.4285 30.1478 11.5011C30.0362 12.221 29.9581 12.9409 29.9022 13.6441C29.8911 13.7502 29.8855 13.8618 29.8799 13.9678C29.5227 18.7228 30.1087 22.7577 30.1087 22.78C34.8357 27.8586 39.7804 28.0819 42.0016 34.4273H43.7484C45.9696 28.0819 50.9143 27.8586 55.6469 22.78C55.6469 22.7521 56.4393 17.2438 55.6022 11.5067C55.6022 11.4286 55.5855 11.356 55.5743 11.2834C55.485 10.703 57.3323 11.3448 57.5611 11.8806C57.5834 11.9308 57.6002 11.9922 57.6225 12.0648C58.0578 13.6665 58.2085 20.4137 57.8067 23.5446C57.8067 23.5446 60.3683 28.1042 60.1785 32.2843Z" fill="#333333"/>
<path d="M60.1785 32.2843C60.1227 33.5679 59.7935 34.8794 59.2075 36.0402C58.9228 36.6206 58.5712 37.1564 58.1638 37.6364C58.0857 37.7312 58.002 37.8205 57.9183 37.9098C57.3825 38.4791 56.7519 38.9535 56.0319 39.2995C55.6245 39.5004 55.1892 39.6511 54.726 39.7571C54.6256 39.7794 54.1791 39.9803 52.8397 39.9803C50.4678 39.9803 46.2766 39.372 43.9214 36.6039V36.5537H42.9504L41.8342 36.6039C39.4735 39.372 35.2822 39.9803 32.9103 39.9803C31.5709 39.9803 31.1245 39.7794 31.024 39.7571C30.5608 39.6511 30.1311 39.5004 29.7237 39.3051C28.9981 38.9535 28.3675 38.4735 27.8262 37.8987C27.748 37.815 27.6699 37.7256 27.5918 37.6364C27.1788 37.1564 26.8328 36.6206 26.5481 36.0458C25.9566 34.8794 25.6273 33.5679 25.5715 32.2843C25.3873 28.1042 27.9489 23.5446 27.9489 23.5446C27.5415 20.4193 27.6922 13.6776 28.1275 12.0759V12.0648C28.1498 11.9922 28.1666 11.9308 28.1889 11.8806C28.4177 11.3448 30.265 10.703 30.1757 11.2834C30.1645 11.356 30.1534 11.4285 30.1478 11.5011C30.0362 12.221 29.9581 12.9409 29.9022 13.6441C29.8911 13.7502 29.8855 13.8618 29.8799 13.9678C29.5227 18.7228 30.1087 22.7577 30.1087 22.78C34.8357 27.8586 39.7804 28.0819 42.0016 34.4273H43.7484C45.9696 28.0819 50.9143 27.8586 55.6469 22.78C55.6469 22.7521 56.4393 17.2438 55.6022 11.5067C55.6022 11.4286 55.5855 11.356 55.5743 11.2834C55.485 10.703 57.3323 11.3448 57.5611 11.8806C57.5834 11.9308 57.6002 11.9922 57.6225 12.0648C58.0578 13.6665 58.2085 20.4137 57.8067 23.5446C57.8067 23.5446 60.3683 28.1042 60.1785 32.2843Z" fill="black" fill-opacity="0.2"/>
<path d="M42.5766 63.5874C43.1931 63.5874 43.6928 63.2126 43.6928 62.7502C43.6928 62.2879 43.1931 61.9131 42.5766 61.9131C41.9602 61.9131 41.4604 62.2879 41.4604 62.7502C41.4604 63.2126 41.9602 63.5874 42.5766 63.5874Z" fill="#333333"/>
<path d="M42.5766 63.5874C43.1931 63.5874 43.6928 63.2126 43.6928 62.7502C43.6928 62.2879 43.1931 61.9131 42.5766 61.9131C41.9602 61.9131 41.4604 62.2879 41.4604 62.7502C41.4604 63.2126 41.9602 63.5874 42.5766 63.5874Z" fill="black" fill-opacity="0.2"/>
<path d="M59.9277 11.7017C59.8886 12.137 59.8495 12.5221 59.8105 12.8681C59.5984 12.7732 59.3919 12.6839 59.1854 12.6058C58.9789 12.5221 58.7724 12.444 58.5715 12.377C58.365 12.3045 58.1697 12.2375 57.9743 12.1761C57.8571 12.137 57.74 12.1035 57.6228 12.07C57.5502 12.0477 57.4721 12.0254 57.3995 12.0031C57.0926 11.9138 56.7968 11.8301 56.5177 11.7575C56.4061 11.724 56.2945 11.6961 56.1885 11.6682C56.0322 11.6236 55.8815 11.5845 55.7364 11.5399C55.6918 11.5287 55.6471 11.5176 55.6025 11.5064C55.5467 11.4841 55.4909 11.4673 55.435 11.4506C54.3914 11.1269 51.3443 9.12891 49.4189 7.78392C48.6599 7.25373 48.4534 6.33847 48.4534 5.41204V1.38825C48.5706 1.31012 48.6822 1.2264 48.7938 1.14269C48.8998 1.07014 49.0003 0.991982 49.0952 0.908268C49.2179 0.818974 49.3351 0.718544 49.4523 0.618088C49.4691 0.606926 49.4802 0.595764 49.497 0.584602C49.497 0.584602 49.497 0.573429 49.5082 0.573429C49.6086 0.489716 49.7035 0.400406 49.7984 0.311111C49.9379 0.188332 50.0718 0.0544243 50.2058 -0.0739365C50.4346 -0.308334 50.6578 -0.54834 50.8643 -0.79948C50.9759 -0.927841 51.082 -1.05617 51.1824 -1.19011C51.2829 -1.31289 51.3777 -1.4357 51.467 -1.56406C51.5675 -1.69242 51.6568 -1.82634 51.7461 -1.96028C51.8409 -2.09422 51.9302 -2.23377 52.014 -2.37329C52.3209 -2.86441 52.6 -3.37225 52.8511 -3.90802C52.9236 -4.0587 52.9906 -4.21498 53.0576 -4.37124C53.158 -4.60006 53.2529 -4.82887 53.3422 -5.06885C53.3813 -5.16373 53.4148 -5.2586 53.4483 -5.35905C53.4538 -5.37021 53.4594 -5.38137 53.4594 -5.39254C53.5431 -5.61577 53.6213 -5.84459 53.6938 -6.0734C53.7608 -6.31338 53.8278 -6.57011 53.8891 -6.82683C53.9561 -7.08355 54.0119 -7.35701 54.0677 -7.63048C54.1514 -8.05462 54.2296 -8.48993 54.3021 -8.9364C54.3412 -9.15964 54.3747 -9.38287 54.4026 -9.61168C54.4361 -9.83492 54.4696 -10.0582 54.4975 -10.2814C54.5477 -10.6497 54.5867 -11.0125 54.6258 -11.3697C54.6816 -11.8831 54.7319 -12.3798 54.7709 -12.8486C54.7877 -12.9881 54.7988 -13.1221 54.8044 -13.256C54.8379 -13.6299 54.8602 -13.9815 54.8825 -14.2996C54.8937 -14.428 54.8993 -14.5508 54.9049 -14.6624C54.9216 -14.9079 54.9328 -15.1312 54.9439 -15.3321C54.9551 -15.4604 54.9607 -15.5721 54.9663 -15.6781C54.9663 -15.7283 54.9718 -15.7786 54.9718 -15.8232C54.9886 -16.1915 54.9942 -16.4036 54.9942 -16.4036C54.9942 -25.3219 49.564 -29.4071 44.1226 -29.4071H41.6335C36.1866 -29.4071 30.7564 -25.3219 30.7564 -16.4036C30.7564 -16.4036 30.762 -16.2306 30.7731 -15.9237C30.7787 -15.8623 30.7787 -15.7953 30.7843 -15.7228C30.7899 -15.5832 30.801 -15.4158 30.8122 -15.2372C30.8178 -15.0586 30.8289 -14.8577 30.8457 -14.6456C30.8847 -14.0094 30.9405 -13.2281 31.0187 -12.3854C31.0522 -12.0729 31.0801 -11.7547 31.1191 -11.4311C31.1973 -10.6832 31.2977 -9.91305 31.4149 -9.15405C31.4763 -8.74106 31.5489 -8.33925 31.627 -7.943C31.7498 -7.27888 31.8949 -6.64824 32.0623 -6.0734C32.1237 -5.87807 32.1907 -5.68274 32.2576 -5.49299C32.2911 -5.38695 32.3302 -5.28091 32.3748 -5.17487C32.4418 -4.97954 32.5144 -4.7898 32.5981 -4.60563C32.6483 -4.47727 32.6985 -4.34891 32.7599 -4.22613C32.838 -4.03638 32.9273 -3.85222 33.0166 -3.67363C33.0892 -3.52295 33.1617 -3.37225 33.2454 -3.22715C33.4017 -2.93136 33.5691 -2.64675 33.7422 -2.36212C33.8259 -2.2226 33.9152 -2.08867 34.01 -1.95473C34.0547 -1.88776 34.0993 -1.82076 34.1495 -1.75379C34.1942 -1.68682 34.2444 -1.61986 34.2947 -1.55289C34.3895 -1.41894 34.4844 -1.29058 34.5904 -1.16222C34.6853 -1.03386 34.7914 -0.911087 34.8974 -0.788307C34.9979 -0.665527 35.1095 -0.542736 35.2211 -0.425537C35.3271 -0.302757 35.4443 -0.180004 35.5615 -0.0683861C35.7903 0.166012 36.0303 0.383667 36.2759 0.595741C36.5996 0.874786 36.9456 1.13711 37.3028 1.38825V5.41204C37.3028 6.33847 37.0963 7.25373 36.3373 7.78392C34.4063 9.12891 31.3647 11.1269 30.3155 11.4506C30.2597 11.4673 30.2039 11.4841 30.1481 11.5008C30.1034 11.512 30.0588 11.5287 30.0141 11.5399C29.9081 11.5734 29.7965 11.6013 29.6848 11.6347C29.5621 11.6682 29.4337 11.7017 29.2998 11.7408C29.0207 11.8133 28.7249 11.897 28.4124 11.9863C28.3175 12.0142 28.2227 12.0421 28.1278 12.07C27.8041 12.1705 27.4637 12.2765 27.1121 12.3993C26.6656 12.5612 26.1968 12.7453 25.728 12.9686C25.6108 13.0244 25.4936 13.0802 25.3764 13.1416C25.3318 12.7956 25.2927 12.4049 25.2481 11.9529C24.9634 8.87779 24.6955 2.94531 25.0137 -10.7781C25.5606 -34.9154 42.5767 -32.9621 42.5767 -32.9621C42.5767 -32.9621 59.5928 -34.9154 60.1453 -10.7781C60.4467 2.62162 60.2011 8.53177 59.9277 11.7017Z" fill="#333333"/>
<path d="M59.9277 11.7017C59.8886 12.137 59.8495 12.5221 59.8105 12.8681C59.5984 12.7732 59.3919 12.6839 59.1854 12.6058C58.9789 12.5221 58.7724 12.444 58.5715 12.377C58.365 12.3045 58.1697 12.2375 57.9743 12.1761C57.8571 12.137 57.74 12.1035 57.6228 12.07C57.5502 12.0477 57.4721 12.0254 57.3995 12.0031C57.0926 11.9138 56.7968 11.8301 56.5177 11.7575C56.4061 11.724 56.2945 11.6961 56.1885 11.6682C56.0322 11.6236 55.8815 11.5845 55.7364 11.5399C55.6918 11.5287 55.6471 11.5176 55.6025 11.5064C55.5467 11.4841 55.4909 11.4673 55.435 11.4506C54.3914 11.1269 51.3443 9.12891 49.4189 7.78392C48.6599 7.25373 48.4534 6.33847 48.4534 5.41204V1.38825C48.5706 1.31012 48.6822 1.2264 48.7938 1.14269C48.8998 1.07014 49.0003 0.991982 49.0952 0.908268C49.2179 0.818974 49.3351 0.718544 49.4523 0.618088C49.4691 0.606926 49.4802 0.595764 49.497 0.584602C49.497 0.584602 49.497 0.573429 49.5082 0.573429C49.6086 0.489716 49.7035 0.400406 49.7984 0.311111C49.9379 0.188332 50.0718 0.0544243 50.2058 -0.0739365C50.4346 -0.308334 50.6578 -0.54834 50.8643 -0.79948C50.9759 -0.927841 51.082 -1.05617 51.1824 -1.19011C51.2829 -1.31289 51.3777 -1.4357 51.467 -1.56406C51.5675 -1.69242 51.6568 -1.82634 51.7461 -1.96028C51.8409 -2.09422 51.9302 -2.23377 52.014 -2.37329C52.3209 -2.86441 52.6 -3.37225 52.8511 -3.90802C52.9236 -4.0587 52.9906 -4.21498 53.0576 -4.37124C53.158 -4.60006 53.2529 -4.82887 53.3422 -5.06885C53.3813 -5.16373 53.4148 -5.2586 53.4483 -5.35905C53.4538 -5.37021 53.4594 -5.38137 53.4594 -5.39254C53.5431 -5.61577 53.6213 -5.84459 53.6938 -6.0734C53.7608 -6.31338 53.8278 -6.57011 53.8891 -6.82683C53.9561 -7.08355 54.0119 -7.35701 54.0677 -7.63048C54.1514 -8.05462 54.2296 -8.48993 54.3021 -8.9364C54.3412 -9.15964 54.3747 -9.38287 54.4026 -9.61168C54.4361 -9.83492 54.4696 -10.0582 54.4975 -10.2814C54.5477 -10.6497 54.5867 -11.0125 54.6258 -11.3697C54.6816 -11.8831 54.7319 -12.3798 54.7709 -12.8486C54.7877 -12.9881 54.7988 -13.1221 54.8044 -13.256C54.8379 -13.6299 54.8602 -13.9815 54.8825 -14.2996C54.8937 -14.428 54.8993 -14.5508 54.9049 -14.6624C54.9216 -14.9079 54.9328 -15.1312 54.9439 -15.3321C54.9551 -15.4604 54.9607 -15.5721 54.9663 -15.6781C54.9663 -15.7283 54.9718 -15.7786 54.9718 -15.8232C54.9886 -16.1915 54.9942 -16.4036 54.9942 -16.4036C54.9942 -25.3219 49.564 -29.4071 44.1226 -29.4071H41.6335C36.1866 -29.4071 30.7564 -25.3219 30.7564 -16.4036C30.7564 -16.4036 30.762 -16.2306 30.7731 -15.9237C30.7787 -15.8623 30.7787 -15.7953 30.7843 -15.7228C30.7899 -15.5832 30.801 -15.4158 30.8122 -15.2372C30.8178 -15.0586 30.8289 -14.8577 30.8457 -14.6456C30.8847 -14.0094 30.9405 -13.2281 31.0187 -12.3854C31.0522 -12.0729 31.0801 -11.7547 31.1191 -11.4311C31.1973 -10.6832 31.2977 -9.91305 31.4149 -9.15405C31.4763 -8.74106 31.5489 -8.33925 31.627 -7.943C31.7498 -7.27888 31.8949 -6.64824 32.0623 -6.0734C32.1237 -5.87807 32.1907 -5.68274 32.2576 -5.49299C32.2911 -5.38695 32.3302 -5.28091 32.3748 -5.17487C32.4418 -4.97954 32.5144 -4.7898 32.5981 -4.60563C32.6483 -4.47727 32.6985 -4.34891 32.7599 -4.22613C32.838 -4.03638 32.9273 -3.85222 33.0166 -3.67363C33.0892 -3.52295 33.1617 -3.37225 33.2454 -3.22715C33.4017 -2.93136 33.5691 -2.64675 33.7422 -2.36212C33.8259 -2.2226 33.9152 -2.08867 34.01 -1.95473C34.0547 -1.88776 34.0993 -1.82076 34.1495 -1.75379C34.1942 -1.68682 34.2444 -1.61986 34.2947 -1.55289C34.3895 -1.41894 34.4844 -1.29058 34.5904 -1.16222C34.6853 -1.03386 34.7914 -0.911087 34.8974 -0.788307C34.9979 -0.665527 35.1095 -0.542736 35.2211 -0.425537C35.3271 -0.302757 35.4443 -0.180004 35.5615 -0.0683861C35.7903 0.166012 36.0303 0.383667 36.2759 0.595741C36.5996 0.874786 36.9456 1.13711 37.3028 1.38825V5.41204C37.3028 6.33847 37.0963 7.25373 36.3373 7.78392C34.4063 9.12891 31.3647 11.1269 30.3155 11.4506C30.2597 11.4673 30.2039 11.4841 30.1481 11.5008C30.1034 11.512 30.0588 11.5287 30.0141 11.5399C29.9081 11.5734 29.7965 11.6013 29.6848 11.6347C29.5621 11.6682 29.4337 11.7017 29.2998 11.7408C29.0207 11.8133 28.7249 11.897 28.4124 11.9863C28.3175 12.0142 28.2227 12.0421 28.1278 12.07C27.8041 12.1705 27.4637 12.2765 27.1121 12.3993C26.6656 12.5612 26.1968 12.7453 25.728 12.9686C25.6108 13.0244 25.4936 13.0802 25.3764 13.1416C25.3318 12.7956 25.2927 12.4049 25.2481 11.9529C24.9634 8.87779 24.6955 2.94531 25.0137 -10.7781C25.5606 -34.9154 42.5767 -32.9621 42.5767 -32.9621C42.5767 -32.9621 59.5928 -34.9154 60.1453 -10.7781C60.4467 2.62162 60.2011 8.53177 59.9277 11.7017Z" fill="black" fill-opacity="0.2"/>
</g>
<defs>
<clipPath id="clip0_8984_52238">
<rect width="85" height="80" fill="white"/>
</clipPath>
</defs>
</svg>
