<svg width="85" height="80" viewBox="0 0 85 80" fill="none" xmlns="http://www.w3.org/2000/svg">
<g clip-path="url(#clip0_8984_52241)">
<path d="M76.3036 77.9133C76.2757 77.8519 76.2478 77.7961 76.2143 77.7459C74.9195 75.6809 74.194 71.5288 73.3513 66.7181C72.8379 63.7881 72.2519 60.473 71.4594 57.1747C70.879 54.7694 70.2539 52.9667 69.707 51.3818C68.7973 48.7476 68.0774 46.6715 67.7983 42.8989C67.5305 39.3215 66.3082 27.0101 65.9957 24.5433C64.9521 16.7859 62.2175 13.5602 59.5944 11.9919C59.8735 8.89454 60.1358 3.04018 59.8288 -10.7781C59.2931 -34.9154 43.1922 -32.9621 43.1922 -32.9621C43.1922 -32.9621 26.5333 -34.9154 25.9975 -10.7781C25.6794 3.54246 25.9696 9.38007 26.2654 12.3379C23.8154 14.0234 21.3821 17.3217 20.4111 24.5322C20.0818 27.144 18.8149 40.0135 18.6084 42.8989C18.335 46.6715 17.615 48.7532 16.7054 51.3818C16.1528 52.9723 15.5278 54.7694 14.9474 57.1747C14.1326 60.5512 13.5243 63.9332 12.9885 66.9134C12.129 71.7018 11.3924 75.8372 10.1869 77.7459C10.1534 77.7961 10.1255 77.8519 10.1032 77.9133C9.24371 79.9838 8.33961 83.656 8.03824 85.7823C7.89314 86.7813 8.38426 91.9715 8.52378 92.7863C8.54052 92.8924 8.55726 93.0263 8.57401 93.177C8.68562 94.1537 8.83631 95.4931 9.93016 95.8837C10.0306 95.9172 10.1311 95.9396 10.2371 95.9451C10.2873 95.9451 10.3376 95.9451 10.3822 95.9451C12.8155 95.9451 13.368 92.5687 13.9038 89.3039C13.9261 89.1644 13.9484 89.0192 13.9763 88.8741C14.0544 89.5829 14.2219 90.2471 14.5511 90.6433C14.7967 90.9503 15.0757 91.1847 15.3771 91.3409C15.6394 91.4749 15.9073 91.5418 16.1752 91.5418C16.4431 91.5418 17.3974 91.4469 17.8104 90.2024C17.8327 90.1354 17.8494 90.0685 17.855 90.0015C18.1062 88.1375 18.5582 84.9675 18.7089 84.3927C19.546 81.2116 18.9656 79.6043 18.5415 78.4379C18.2289 77.584 18.0615 77.1152 18.4019 76.1274C18.4131 76.1051 18.4187 76.0828 18.4243 76.0605C20.7627 67.7003 22.6323 62.7277 24.1391 58.7318C26.1482 53.3853 27.3648 50.154 27.6104 43.8253C27.9787 40.8395 28.4085 37.7477 28.7768 35.3758C29.1117 36.146 29.5693 36.838 30.1553 37.4184C31.0594 40.8172 30.585 49.3113 30.4232 52.2803C30.4064 52.6152 30.3897 52.9109 30.3785 53.1565C30.2167 56.3376 29.0893 59.2341 28.0959 61.7845C27.4709 63.3974 26.8737 64.921 26.5891 66.3497C26.4328 67.1255 26.271 67.8231 26.1091 68.4928C25.7575 69.9996 25.4283 71.4227 25.1604 73.6328C24.0777 82.724 23.9103 87.9756 25.1604 99.3774C25.3669 101.264 26.0589 105.215 26.8626 109.797C28.0736 116.723 29.7367 126.216 29.5581 128.32C29.5581 128.353 29.5581 128.387 29.5581 128.415C29.5581 129.263 29.5749 130.424 29.5972 131.652C29.6307 133.767 29.6697 136.161 29.6195 137.406C29.2623 145.805 29.9041 152.357 32.0695 162.453C33.208 167.766 33.1355 169.886 33.0239 173.101L33.0015 173.698C32.968 174.703 32.8118 175.155 32.7225 175.339C32.2816 176.248 32.1811 177.052 32.0974 177.761C32.0416 178.224 31.9858 178.659 31.8407 179.123C31.6119 179.854 31.1208 180.512 30.5571 181.271C30.3227 181.578 30.0883 181.902 29.8428 182.253C29.0503 183.063 28.6819 183.905 28.7601 184.765C28.8661 185.931 29.7702 186.568 29.8762 186.635C29.9599 186.69 30.0492 186.735 30.1441 186.768C30.6687 186.941 31.3719 186.997 33.0462 186.997C36.4449 186.997 37.9964 186.997 40.5357 186.752C40.5859 186.746 40.6362 186.735 40.6808 186.724C42.6118 186.272 42.1207 183.878 41.797 182.293C41.6854 181.762 41.5235 180.964 41.5626 180.724C41.5961 180.557 41.691 180.378 41.8137 180.15C42.1598 179.48 42.6397 178.57 42.3607 176.834C41.8696 173.759 41.903 169.903 41.9533 165.02C41.9923 160.293 42.0481 154.416 41.5961 147.546C41.0492 139.331 41.2501 138.137 41.5012 136.619C41.5849 136.116 41.6854 135.542 41.7579 134.699C41.9142 132.913 41.8305 130.926 41.7245 128.415C41.6519 126.59 41.5626 124.519 41.5459 122.036C41.5068 116.594 41.691 110.305 41.8696 104.222C42.1151 95.8558 42.3495 87.9589 41.9756 83.1649C41.9756 83.137 41.97 83.1091 41.97 83.0812L41.9868 82.9528C42.6788 82.9584 43.7503 82.9584 44.4312 82.9584L44.4479 83.0812C44.4479 83.1147 44.4423 83.137 44.4423 83.1649C44.0628 87.9589 44.2972 95.8558 44.5484 104.222C44.727 110.305 44.9111 116.594 44.8721 122.036C44.8553 124.519 44.766 126.59 44.6879 128.415C44.5819 130.926 44.4982 132.913 44.66 134.699C44.7326 135.542 44.8274 136.116 44.9111 136.619C45.1679 138.137 45.3632 139.331 44.8218 147.546C44.3698 154.416 44.42 160.293 44.4647 165.02C44.5093 169.903 44.5484 173.759 44.0573 176.834C43.7782 178.57 44.2526 179.48 44.6042 180.15C44.7214 180.378 44.8163 180.557 44.8553 180.73C44.8944 180.964 44.727 181.762 44.6209 182.293C44.2972 183.878 43.8061 186.272 45.7315 186.724C45.7818 186.735 45.832 186.746 45.8822 186.752C48.4159 186.997 49.973 186.997 53.3718 186.997C55.046 186.997 55.7492 186.941 56.2738 186.768C56.3687 186.735 56.458 186.69 56.5417 186.635C56.6422 186.568 57.5463 185.931 57.6523 184.765C57.7304 183.905 57.3677 183.063 56.5752 182.253C56.3296 181.902 56.0896 181.584 55.8608 181.271C55.2916 180.512 54.806 179.854 54.5716 179.123C54.4265 178.659 54.3763 178.224 54.3205 177.761C54.2368 177.052 54.1363 176.248 53.6899 175.339C53.6006 175.155 53.4499 174.703 53.4164 173.698L53.3941 173.095C53.2825 169.886 53.2099 167.766 54.3484 162.453C56.5082 152.357 57.15 145.805 56.7984 137.406C56.7426 136.161 56.7817 133.761 56.8207 131.646C56.8375 130.418 56.8598 129.263 56.8598 128.415C56.8598 128.387 56.8542 128.353 56.8542 128.32C56.6756 126.216 58.3387 116.728 59.5498 109.797C60.3479 105.215 61.0455 101.264 61.252 99.3774C62.5021 87.9756 62.3347 82.724 61.2464 73.6328C60.9841 71.4227 60.6492 69.9996 60.2976 68.4928C60.1414 67.8231 59.9795 67.1255 59.8233 66.3497C59.5331 64.921 58.9415 63.3974 58.3164 61.7845C57.3174 59.2341 56.1957 56.3376 56.0338 53.1565C56.0227 52.9109 56.0059 52.6152 55.9836 52.2747C55.8218 49.2834 55.3474 40.6721 56.285 37.3347C56.8542 36.7654 57.3007 36.0957 57.6356 35.3535C57.9983 37.7309 58.428 40.8283 58.7964 43.8253C59.0643 50.6284 60.359 54.122 62.703 60.4563C64.1038 64.2569 65.8562 68.9839 67.9937 76.0828C67.9993 76.0995 68.0048 76.1107 68.0048 76.1274C68.3508 77.1152 68.1778 77.584 67.8709 78.4379C67.4467 79.6043 66.8663 81.2116 67.7035 84.3983C67.8542 84.9675 68.3062 88.1375 68.5518 90.0015C68.5629 90.0685 68.5797 90.1354 68.602 90.2024C69.0094 91.4469 69.9526 91.5418 70.2316 91.5418C70.5107 91.5418 70.773 91.4749 71.0297 91.3409C71.3366 91.1847 71.6157 90.9503 71.8668 90.6433C72.0621 90.4033 72.1961 90.0685 72.2965 89.6834C72.9718 92.8143 73.7141 95.9451 76.0246 95.9451C76.0748 95.9451 76.125 95.9451 76.1752 95.9451C76.2813 95.9396 76.3817 95.9172 76.4766 95.8837C77.5705 95.4931 77.7267 94.1537 77.8383 93.177C77.8551 93.0263 77.8663 92.8924 77.8886 92.7863C78.0281 91.9715 78.5192 86.7813 78.3741 85.7879C78.0672 83.656 77.1631 79.9838 76.3092 77.9133H76.3036ZM54.6777 -14.3052C54.5326 -12.084 54.2033 -8.54573 53.5057 -6.0734C53.0648 -4.63912 52.4788 -3.32762 51.7366 -2.15563C51.1562 -1.24595 50.4809 -0.419987 49.6995 0.311111H49.694C49.5879 0.411568 49.4763 0.512039 49.3647 0.606915C47.7183 1.66728 45.3464 2.97879 43.7726 2.97879H42.6397C41.0603 2.97879 38.6884 1.6617 37.0365 0.606915C35.0776 -1.10084 33.7326 -3.36668 32.8955 -6.0734C32.3821 -7.92068 32.0695 -10.3428 31.8798 -12.3854C42.6788 -17.3747 46.9984 -24.0885 46.9984 -24.0885C48.7843 -18.8871 52.3951 -15.8065 54.6777 -14.3052Z" fill="#FFEACA"/>
<path d="M51.2503 -0.690918C50.6196 0.481067 49.5314 1.44658 48.3761 2.19442H48.3705C46.6572 3.29944 44.7988 3.89659 44.0677 3.89659H42.3264C41.573 3.89659 39.7536 3.34964 38.0236 2.20556C36.9297 1.48005 35.8805 0.520134 35.1494 -0.690918C35.1494 -0.690918 35.9252 -0.0993348 37.0302 0.609437C38.6821 1.66422 41.054 2.98131 42.6334 2.98131H43.7663C45.3401 2.98131 47.712 1.66981 49.3583 0.609437C49.3583 0.609437 49.3751 0.603845 49.3807 0.598265C50.4801 -0.104927 51.2503 -0.690918 51.2503 -0.690918Z" fill="#DFCBAD"/>
<path d="M32.0744 13.7582C33.9831 13.7973 38.6152 13.9759 40.3174 14.7739C42.3265 15.7171 35.6741 15.1255 32.0354 14.0149C31.5889 13.881 31.6112 13.747 32.0744 13.7526V13.7582Z" fill="#DFCBAD"/>
<path d="M53.7392 13.7582C51.8306 13.7973 47.1984 13.9759 45.4963 14.7739C43.4871 15.7171 50.1396 15.1255 53.7783 14.0149C54.2248 13.881 54.2024 13.747 53.7392 13.7526V13.7582Z" fill="#DFCBAD"/>
<path d="M31.846 63.2104C31.6953 63.1322 31.6283 63.1211 31.5948 63.1211C31.5446 63.1211 31.5055 63.1434 31.4888 63.1881C31.4609 63.2606 31.5111 63.3443 31.6618 63.4894C32.298 64.0922 33.5035 65.3646 34.3797 67.1561C34.4913 67.3793 34.5639 67.4072 34.6141 67.4072C34.6476 67.4072 34.6755 67.3905 34.6978 67.3681C34.7257 67.3347 34.7536 67.2677 34.7201 67.05C34.5471 66.0845 33.95 64.2986 31.846 63.2104Z" fill="#DFCBAD"/>
<path d="M54.3256 63.1881C54.3088 63.1434 54.2698 63.1211 54.2195 63.1211C54.186 63.1211 54.1191 63.1322 53.9684 63.2104C51.8644 64.2986 51.2617 66.0845 51.0942 67.05C51.0552 67.2621 51.0831 67.3291 51.1166 67.3681C51.1389 67.396 51.1668 67.4072 51.2003 67.4072C51.2505 67.4072 51.3286 67.3793 51.4347 67.1561C52.3109 65.3646 53.5163 64.0922 54.1526 63.4894C54.3032 63.3443 54.3535 63.2606 54.3256 63.1881Z" fill="#DFCBAD"/>
<path d="M41.8187 16.6042C42.0698 16.9949 42.4382 17.3241 42.9181 17.0339C43.32 16.7884 43.1302 16.487 42.6726 16.4145C42.5107 16.3921 42.3321 16.3475 42.1591 16.2749C41.7238 16.0964 41.562 16.1912 41.8243 16.6042H41.8187Z" fill="#DFCBAD"/>
<path d="M42.7006 56.2564C42.8736 53.957 43.1861 48.8338 42.8233 45.6359C42.7508 44.9885 42.5387 44.9885 42.4662 45.6359C42.2932 47.2209 42.1034 50.5415 42.5108 56.2564C42.5555 56.9093 42.6503 56.9093 42.7006 56.2564Z" fill="#DFCBAD"/>
<path d="M58.372 32.0578C58.3609 32.2811 58.3441 32.5043 58.3218 32.722C58.2213 33.6595 57.9925 34.5525 57.6242 35.3561C57.2893 36.104 56.8429 36.7737 56.2736 37.3429C55.8829 37.7392 55.4309 38.0852 54.923 38.3754C54.4375 38.66 53.8962 38.8833 53.299 39.0507C51.0834 39.6646 46.2615 39.3744 43.9566 36.6063V36.556H42.4498V36.6063C40.1393 39.3744 35.2114 39.5585 33.1018 39.0507C32.5046 38.9056 31.9633 38.6935 31.4777 38.4256C30.9755 38.1466 30.5346 37.8117 30.1495 37.4266C29.5635 36.8462 29.1059 36.1542 28.771 35.384C28.4027 34.5637 28.1794 33.654 28.079 32.7108C28.0567 32.4932 28.0399 32.2755 28.0288 32.0578C27.8446 27.8777 29.4072 24.1051 29.4072 24.1051C29.2677 20.2487 29.53 12.6922 29.6416 11.9332C29.6416 11.9164 29.6416 11.9053 29.6472 11.8997V11.883C29.8091 11.3193 31.6787 10.7054 31.5949 11.2858C31.5949 11.297 31.5894 11.3137 31.5894 11.3249C30.7299 17.129 31.528 23.3126 31.5224 23.3405C36.1545 28.4191 39.8044 28.3633 42.6116 34.4297H43.7892C46.5964 28.3633 50.2463 28.4191 54.8784 23.3405C54.8784 23.3126 55.6709 17.1346 54.8114 11.3305C54.8114 11.3137 54.8058 11.3025 54.8058 11.2858C54.7221 10.7054 56.6252 11.3137 56.7536 11.883V11.8941C56.7536 11.8941 56.7536 11.922 56.7647 11.9388C56.9377 12.9768 57.1498 20.55 56.9935 24.1051C56.9935 24.1051 58.5562 27.8777 58.372 32.0578Z" fill="#333333"/>
<path d="M58.372 32.0578C58.3609 32.2811 58.3441 32.5043 58.3218 32.722C58.2213 33.6595 57.9925 34.5525 57.6242 35.3561C57.2893 36.104 56.8429 36.7737 56.2736 37.3429C55.8829 37.7392 55.4309 38.0852 54.923 38.3754C54.4375 38.66 53.8962 38.8833 53.299 39.0507C51.0834 39.6646 46.2615 39.3744 43.9566 36.6063V36.556H42.4498V36.6063C40.1393 39.3744 35.2114 39.5585 33.1018 39.0507C32.5046 38.9056 31.9633 38.6935 31.4777 38.4256C30.9755 38.1466 30.5346 37.8117 30.1495 37.4266C29.5635 36.8462 29.1059 36.1542 28.771 35.384C28.4027 34.5637 28.1794 33.654 28.079 32.7108C28.0567 32.4932 28.0399 32.2755 28.0288 32.0578C27.8446 27.8777 29.4072 24.1051 29.4072 24.1051C29.2677 20.2487 29.53 12.6922 29.6416 11.9332C29.6416 11.9164 29.6416 11.9053 29.6472 11.8997V11.883C29.8091 11.3193 31.6787 10.7054 31.5949 11.2858C31.5949 11.297 31.5894 11.3137 31.5894 11.3249C30.7299 17.129 31.528 23.3126 31.5224 23.3405C36.1545 28.4191 39.8044 28.3633 42.6116 34.4297H43.7892C46.5964 28.3633 50.2463 28.4191 54.8784 23.3405C54.8784 23.3126 55.6709 17.1346 54.8114 11.3305C54.8114 11.3137 54.8058 11.3025 54.8058 11.2858C54.7221 10.7054 56.6252 11.3137 56.7536 11.883V11.8941C56.7536 11.8941 56.7536 11.922 56.7647 11.9388C56.9377 12.9768 57.1498 20.55 56.9935 24.1051C56.9935 24.1051 58.5562 27.8777 58.372 32.0578Z" fill="black" fill-opacity="0.2"/>
<path d="M59.5884 11.9949C59.5549 12.313 59.527 12.6031 59.4991 12.871C58.528 12.4246 57.5848 12.1288 56.7533 11.8944C56.3515 11.7772 55.9775 11.6823 55.6371 11.5818C55.492 11.5428 55.3525 11.4981 55.213 11.4535C55.1795 11.4423 55.146 11.4312 55.1125 11.42C55.0176 11.3809 54.9172 11.3363 54.8055 11.2861C53.5387 10.6889 50.9994 8.98116 49.3251 7.78685C48.5829 7.25666 48.3764 6.3414 48.3764 5.41497V1.39118C48.6889 1.16795 48.9903 0.933548 49.2749 0.693569C49.3084 0.660084 49.3474 0.632156 49.3809 0.598671C49.487 0.509377 49.5874 0.420078 49.6879 0.314041H49.6935C50.4748 -0.417057 51.1501 -1.24302 51.7305 -2.1527C52.4783 -3.32469 53.0699 -4.63619 53.5108 -6.07047C54.2028 -8.5428 54.5321 -12.0755 54.6772 -14.2967C54.6939 -14.5925 54.7107 -14.8604 54.7218 -15.1003C54.7218 -15.1785 54.7274 -15.2566 54.733 -15.3292C54.733 -15.4966 54.7497 -15.6473 54.7553 -15.7756C54.7609 -15.9263 54.7665 -16.0491 54.7721 -16.1495C54.7832 -16.3114 54.7832 -16.4007 54.7832 -16.4007C54.7832 -18.1754 54.5712 -19.7604 54.1917 -21.1556C53.5554 -23.4884 52.456 -25.3078 51.0775 -26.6304C49.1298 -28.5056 46.6407 -29.4041 44.1405 -29.4041H42.2541C41.2607 -29.4041 40.2618 -29.259 39.3019 -28.9688C39.14 -28.9242 38.9782 -28.8684 38.8219 -28.807C34.8595 -27.3894 31.617 -23.3656 31.617 -16.4007C31.617 -16.4007 31.6672 -14.626 31.8737 -12.3825C32.0635 -10.3398 32.376 -7.91775 32.8894 -6.07047C33.7266 -3.36375 35.0715 -1.09791 37.0304 0.609844C37.343 0.883308 37.6778 1.14562 38.0238 1.39118V5.41497C38.0238 6.3414 37.8173 7.25666 37.0751 7.78685C35.4008 8.98116 32.8615 10.6945 31.5947 11.2861C31.4775 11.3419 31.377 11.3865 31.2821 11.42C31.2486 11.4312 31.2152 11.4423 31.1817 11.4535C31.031 11.5037 30.8691 11.5484 30.7073 11.5986C30.3836 11.6879 30.0264 11.7883 29.6469 11.9C28.6591 12.1734 27.5095 12.5362 26.3486 13.1445C26.3207 12.899 26.2928 12.6367 26.2593 12.3409C25.9635 9.383 25.6733 3.54539 25.9915 -10.7752C26.5272 -34.9125 43.1861 -32.9592 43.1861 -32.9592C43.1861 -32.9592 59.287 -34.9125 59.8228 -10.7752C60.1297 3.04311 59.8674 8.89746 59.5884 11.9949Z" fill="#333333"/>
<path d="M59.5884 11.9949C59.5549 12.313 59.527 12.6031 59.4991 12.871C58.528 12.4246 57.5848 12.1288 56.7533 11.8944C56.3515 11.7772 55.9775 11.6823 55.6371 11.5818C55.492 11.5428 55.3525 11.4981 55.213 11.4535C55.1795 11.4423 55.146 11.4312 55.1125 11.42C55.0176 11.3809 54.9172 11.3363 54.8055 11.2861C53.5387 10.6889 50.9994 8.98116 49.3251 7.78685C48.5829 7.25666 48.3764 6.3414 48.3764 5.41497V1.39118C48.6889 1.16795 48.9903 0.933548 49.2749 0.693569C49.3084 0.660084 49.3474 0.632156 49.3809 0.598671C49.487 0.509377 49.5874 0.420078 49.6879 0.314041H49.6935C50.4748 -0.417057 51.1501 -1.24302 51.7305 -2.1527C52.4783 -3.32469 53.0699 -4.63619 53.5108 -6.07047C54.2028 -8.5428 54.5321 -12.0755 54.6772 -14.2967C54.6939 -14.5925 54.7107 -14.8604 54.7218 -15.1003C54.7218 -15.1785 54.7274 -15.2566 54.733 -15.3292C54.733 -15.4966 54.7497 -15.6473 54.7553 -15.7756C54.7609 -15.9263 54.7665 -16.0491 54.7721 -16.1495C54.7832 -16.3114 54.7832 -16.4007 54.7832 -16.4007C54.7832 -18.1754 54.5712 -19.7604 54.1917 -21.1556C53.5554 -23.4884 52.456 -25.3078 51.0775 -26.6304C49.1298 -28.5056 46.6407 -29.4041 44.1405 -29.4041H42.2541C41.2607 -29.4041 40.2618 -29.259 39.3019 -28.9688C39.14 -28.9242 38.9782 -28.8684 38.8219 -28.807C34.8595 -27.3894 31.617 -23.3656 31.617 -16.4007C31.617 -16.4007 31.6672 -14.626 31.8737 -12.3825C32.0635 -10.3398 32.376 -7.91775 32.8894 -6.07047C33.7266 -3.36375 35.0715 -1.09791 37.0304 0.609844C37.343 0.883308 37.6778 1.14562 38.0238 1.39118V5.41497C38.0238 6.3414 37.8173 7.25666 37.0751 7.78685C35.4008 8.98116 32.8615 10.6945 31.5947 11.2861C31.4775 11.3419 31.377 11.3865 31.2821 11.42C31.2486 11.4312 31.2152 11.4423 31.1817 11.4535C31.031 11.5037 30.8691 11.5484 30.7073 11.5986C30.3836 11.6879 30.0264 11.7883 29.6469 11.9C28.6591 12.1734 27.5095 12.5362 26.3486 13.1445C26.3207 12.899 26.2928 12.6367 26.2593 12.3409C25.9635 9.383 25.6733 3.54539 25.9915 -10.7752C26.5272 -34.9125 43.1861 -32.9592 43.1861 -32.9592C43.1861 -32.9592 59.287 -34.9125 59.8228 -10.7752C60.1297 3.04311 59.8674 8.89746 59.5884 11.9949Z" fill="black" fill-opacity="0.2"/>
<path d="M44.4918 82.4087C44.4974 82.498 44.4974 82.5928 44.4918 82.6877C44.4918 82.777 44.4918 82.8719 44.4807 82.9667C44.4807 83.0616 44.4695 83.1621 44.4583 83.2625L44.436 83.0951L44.4193 82.9667L44.3802 82.6877L44.3467 82.4087L44.0621 80.2935L43.917 79.1885C44.0509 79.9977 44.4695 81.0692 44.4918 82.4087Z" fill="#333333"/>
<path d="M44.4918 82.4087C44.4974 82.498 44.4974 82.5928 44.4918 82.6877C44.4918 82.777 44.4918 82.8719 44.4807 82.9667C44.4807 83.0616 44.4695 83.1621 44.4583 83.2625L44.436 83.0951L44.4193 82.9667L44.3802 82.6877L44.3467 82.4087L44.0621 80.2935L43.917 79.1885C44.0509 79.9977 44.4695 81.0692 44.4918 82.4087Z" fill="black" fill-opacity="0.2"/>
<path d="M31.2821 11.4198C31.3714 11.3919 31.4774 11.364 31.589 11.325C31.589 11.3138 31.5946 11.2971 31.5946 11.2859C31.4774 11.3417 31.3769 11.3863 31.2821 11.4198ZM54.8055 11.2859C54.8055 11.2859 54.8111 11.3138 54.8111 11.3305C54.9227 11.364 55.0231 11.3919 55.1124 11.4198C55.0176 11.3808 54.9171 11.3361 54.8055 11.2859ZM54.8055 11.2859C54.8055 11.2859 54.8111 11.3138 54.8111 11.3305C54.9227 11.364 55.0231 11.3919 55.1124 11.4198C55.0176 11.3808 54.9171 11.3361 54.8055 11.2859ZM31.589 11.325C31.589 11.325 31.5946 11.2971 31.5946 11.2859C31.4774 11.3417 31.3769 11.3863 31.2821 11.4198C31.3714 11.3919 31.4774 11.364 31.589 11.325ZM78.3624 85.7907C78.0554 83.6588 77.1513 79.9866 76.2975 77.9161C76.2696 77.8547 76.2417 77.7988 76.2082 77.7486C74.9134 75.6837 74.1879 71.5315 73.3452 66.7208C72.8317 63.7908 72.2457 60.4758 71.4533 57.1775C70.8728 54.7721 70.2478 52.9695 69.7009 51.3845C68.7912 48.7503 68.0712 46.6743 67.7922 42.9016C67.5243 39.3243 66.3021 27.0128 65.9896 24.5461C64.9459 16.7886 62.2113 13.5629 59.5883 11.9947C58.3382 11.2413 57.116 10.8729 56.1114 10.566C55.9161 10.5046 55.7319 10.4488 55.5477 10.393L55.3078 10.3148C54.1916 9.96323 51.5797 9.14281 49.9669 7.99315C49.8441 7.90944 49.4869 7.65272 49.4869 6.53096V1.95464C51.8476 0.124105 53.5554 -2.45983 54.5711 -5.74139C54.5711 -5.74697 54.5767 -5.75813 54.5767 -5.76929C55.2408 -8.13558 55.5812 -11.3725 55.7487 -13.6439C55.8603 -15.1675 55.8938 -16.2614 55.8938 -16.3674V-16.4009C55.8938 -17.7291 55.7766 -18.996 55.5533 -20.1791C55.0343 -22.9138 53.9237 -25.2354 52.2718 -27.0046C50.5863 -28.8183 48.3931 -29.9792 45.9821 -30.3698C45.9821 -30.3754 45.9654 -30.3754 45.9598 -30.3754C45.3682 -30.4703 44.7599 -30.5205 44.1404 -30.5205H42.2597C39.1232 -30.5205 36.2323 -29.2704 34.1172 -27.0046C31.7509 -24.4653 30.5007 -20.7986 30.5007 -16.4009V-16.3674C30.5063 -16.2223 30.5621 -14.2801 30.7965 -11.9027C30.9919 -9.89915 31.3044 -7.57749 31.8178 -5.76929C31.8178 -5.75813 31.8178 -5.74697 31.8178 -5.74139C32.8335 -2.45983 34.5413 0.124105 36.902 1.95464V6.53096C36.902 7.65272 36.5393 7.90944 36.4221 7.99315C34.8092 9.14281 32.1973 9.96323 31.0812 10.3148L30.8356 10.393C30.657 10.4488 30.4728 10.5046 30.2775 10.566C29.1278 10.9176 27.688 11.3529 26.2537 12.3407C23.8037 14.0261 21.3704 17.3244 20.3993 24.5349C20.0701 27.1468 18.8032 40.0163 18.5967 42.9016C18.3233 46.6743 17.6033 48.7559 16.6936 51.3845C16.1411 52.9751 15.5161 54.7721 14.9357 57.1775C14.1208 60.5539 13.5125 63.9359 12.9768 66.9161C12.1173 71.7045 11.3806 75.8399 10.1752 77.7486C10.1417 77.7988 10.1138 77.8547 10.0915 77.9161C9.23199 79.9866 8.32789 83.6588 8.02652 85.7851C7.88142 86.7841 8.37254 91.9743 8.51206 92.7891C8.5288 92.8951 8.54555 93.0291 8.56229 93.1798C8.67391 94.1564 8.82459 95.4958 9.91844 95.8865C10.0189 95.92 10.1194 95.9423 10.2254 95.9479C10.2756 95.9479 10.3258 95.9479 10.3705 95.9479C12.8038 95.9479 13.3563 92.5714 13.892 89.3066C13.9144 89.1671 13.9367 89.022 13.9646 88.8769C14.0427 89.5857 14.2101 90.2498 14.5394 90.646C14.785 90.953 15.064 91.1874 15.3654 91.3437C15.6277 91.4776 15.8956 91.5446 16.1635 91.5446C16.4313 91.5446 17.3857 91.4497 17.7986 90.2051C17.821 90.1382 17.8377 90.0712 17.8433 90.0042C18.0944 88.1402 18.5465 84.9703 18.6972 84.3955C19.5343 81.2144 18.9539 79.6071 18.5297 78.4407C18.2172 77.5868 18.0498 77.118 18.3902 76.1302C18.4014 76.1078 18.407 76.0855 18.4125 76.0632C20.7509 67.703 22.6205 62.7305 24.1274 58.7346C26.1365 53.3881 27.3531 50.1567 27.5987 43.828C27.967 40.8422 28.3967 37.7504 28.7651 35.3785C28.8097 35.066 28.86 34.7647 28.9046 34.4744C29.312 35.4065 29.6859 36.238 29.8255 36.5561C29.831 36.5729 29.8422 36.584 29.8478 36.6008C29.9594 36.824 30.0543 37.0975 30.1436 37.4212C31.0477 40.8199 30.5733 49.314 30.4114 52.2831C30.3947 52.6179 30.378 52.9137 30.3668 53.1592C30.205 56.3403 29.0776 59.2368 28.0842 61.7873C27.4592 63.4002 26.862 64.9237 26.5774 66.3525C26.4211 67.1282 26.2593 67.8258 26.0974 68.4955C25.7458 70.0024 25.4166 71.4255 25.1487 73.6355C24.066 82.7268 23.8986 87.9784 25.1487 99.3801C25.3552 101.266 26.0472 105.218 26.8508 109.8C28.0619 116.726 29.725 126.219 29.5464 128.323C29.5464 128.356 29.5464 128.39 29.5464 128.417C29.5464 129.266 29.5632 130.427 29.5855 131.654C29.619 133.77 29.658 136.164 29.6078 137.408C29.2506 145.807 29.8924 152.359 32.0578 162.455C33.1963 167.768 33.1238 169.889 33.0121 173.104L32.9898 173.701C32.9563 174.705 32.8001 175.157 32.7108 175.342C32.2699 176.251 32.1694 177.055 32.0857 177.764C32.0299 178.227 31.9741 178.662 31.829 179.125C31.6002 179.856 31.1091 180.515 30.5454 181.274C30.311 181.581 30.0766 181.905 29.831 182.256C29.0385 183.065 28.6702 183.908 28.7483 184.768C28.8544 185.934 29.7585 186.57 29.8645 186.637C29.9482 186.693 30.0375 186.738 30.1324 186.771C30.657 186.944 31.3602 187 33.0345 187C36.4332 187 37.9847 187 40.524 186.754C40.5742 186.749 40.6245 186.738 40.6691 186.727C42.6001 186.274 42.109 183.88 41.7853 182.295C41.6737 181.765 41.5118 180.967 41.5509 180.727C41.5844 180.56 41.6792 180.381 41.802 180.152C42.148 179.483 42.628 178.573 42.349 176.837C41.8578 173.762 41.8913 169.906 41.9416 165.022C41.9806 160.295 42.0364 154.419 41.5844 147.549C41.0374 139.334 41.2384 138.139 41.4895 136.621C41.5732 136.119 41.6737 135.544 41.7462 134.702C41.9025 132.916 41.8188 130.929 41.7127 128.417C41.6402 126.593 41.5509 124.522 41.5341 122.039C41.4951 116.597 41.6792 110.307 41.8578 104.224C42.1034 95.8586 42.3378 87.9616 41.9639 83.1677C41.9639 83.1397 41.9583 83.1119 41.9583 83.084C41.9527 83.0393 41.9527 82.9946 41.9527 82.9556C41.9416 82.8607 41.9416 82.7658 41.9416 82.6765C41.936 82.5817 41.936 82.4868 41.936 82.3975C41.9416 81.5659 42.0755 80.8572 42.2541 80.2768C42.2764 80.2768 42.2987 80.2768 42.3266 80.2879C42.3434 80.2879 42.3657 80.2935 42.3824 80.2935C42.4159 80.2935 42.4438 80.2991 42.4717 80.2991C42.7452 80.2991 43.0019 80.1986 43.1973 80.0312C43.3926 80.1986 43.6493 80.2991 43.9172 80.2991C43.9507 80.2991 43.9786 80.2935 44.0121 80.2935C44.0288 80.2935 44.0455 80.2879 44.0623 80.2879C44.0902 80.2824 44.1125 80.2823 44.1404 80.2768C44.319 80.8572 44.4474 81.5659 44.4585 82.4031C44.4585 82.4924 44.4585 82.5872 44.4529 82.6821C44.4529 82.7714 44.4474 82.8663 44.4418 82.9612C44.4418 83.0002 44.4418 83.0393 44.4362 83.084C44.4362 83.1174 44.4306 83.1397 44.4306 83.1677C44.0511 87.9616 44.2855 95.8586 44.5367 104.224C44.7153 110.307 44.8994 116.597 44.8604 122.039C44.8436 124.522 44.7543 126.593 44.6762 128.417C44.5701 130.929 44.4864 132.916 44.6483 134.702C44.7208 135.544 44.8157 136.119 44.8994 136.621C45.1561 138.139 45.3515 139.334 44.8101 147.549C44.3581 154.419 44.4083 160.295 44.4529 165.022C44.4976 169.906 44.5367 173.762 44.0455 176.837C43.7665 178.573 44.2409 179.483 44.5925 180.152C44.7097 180.381 44.8045 180.56 44.8436 180.733C44.8827 180.967 44.7152 181.765 44.6092 182.295C44.2855 183.88 43.7944 186.274 45.7198 186.727C45.77 186.738 45.8203 186.749 45.8705 186.754C48.4042 187 49.9613 187 53.36 187C55.0343 187 55.7375 186.944 56.2621 186.771C56.357 186.738 56.4463 186.693 56.53 186.637C56.6304 186.57 57.5345 185.934 57.6406 184.768C57.7187 183.908 57.3559 183.065 56.5635 182.256C56.3179 181.905 56.0779 181.587 55.8491 181.274C55.2799 180.515 54.7943 179.856 54.5599 179.125C54.4148 178.662 54.3646 178.227 54.3088 177.764C54.2251 177.055 54.1246 176.251 53.6781 175.342C53.5889 175.157 53.4382 174.705 53.4047 173.701L53.3824 173.098C53.2707 169.889 53.1982 167.768 54.3367 162.455C56.4965 152.359 57.1383 145.807 56.7867 137.408C56.7309 136.164 56.77 133.764 56.809 131.649C56.8258 130.421 56.8481 129.266 56.8481 128.417C56.8481 128.39 56.8425 128.356 56.8425 128.323C56.6639 126.219 58.327 116.731 59.5381 109.8C60.3361 105.218 61.0338 101.266 61.2402 99.3801C62.4904 87.9784 62.3229 82.7268 61.2347 73.6355C60.9724 71.4255 60.6375 70.0024 60.2859 68.4955C60.1296 67.8258 59.9678 67.1282 59.8115 66.3525C59.5213 64.9237 58.9298 63.4002 58.3047 61.7873C57.3057 59.2368 56.184 56.3403 56.0221 53.1592C56.011 52.9137 55.9942 52.6179 55.9719 52.2775C55.81 49.2861 55.3357 40.6748 56.2733 37.3374C56.3458 37.0528 56.4407 36.8017 56.5411 36.6008C56.5467 36.584 56.5579 36.5729 56.5635 36.5561C56.703 36.238 57.0769 35.4065 57.4843 34.4744C57.529 34.7535 57.5736 35.0437 57.6238 35.3507C57.9866 37.7337 58.4163 40.8311 58.7847 43.828C59.0525 50.6311 60.3473 54.1247 62.6913 60.459C64.0921 64.2596 65.8445 68.9866 67.9819 76.0855C67.9875 76.1023 67.9931 76.1134 67.9931 76.1302C68.3391 77.118 68.1661 77.5868 67.8592 78.4407C67.435 79.6071 66.8546 81.2144 67.6917 84.401C67.8424 84.9703 68.2945 88.1402 68.54 90.0042C68.5512 90.0712 68.5679 90.1382 68.5903 90.2051C68.9977 91.4497 69.9408 91.5446 70.2199 91.5446C70.4989 91.5446 70.7612 91.4776 71.018 91.3437C71.3249 91.1874 71.6039 90.953 71.8551 90.646C72.0504 90.4061 72.1844 90.0712 72.2848 89.6861C72.9601 92.817 73.7024 95.9479 76.0128 95.9479C76.0631 95.9479 76.1133 95.9479 76.1635 95.9479C76.2696 95.9423 76.37 95.92 76.4649 95.8865C77.5587 95.4958 77.715 94.1564 77.8266 93.1798C77.8434 93.0291 77.8545 92.8951 77.8769 92.7891C78.0164 91.9743 78.5075 86.7841 78.3624 85.7907ZM77.0062 90.5735C76.9169 91.4999 76.8332 92.2812 76.7774 92.5994C76.7328 92.8338 76.7049 93.2021 76.6491 93.576C76.5654 94.1453 76.4258 94.7145 76.091 94.8373H76.0128C73.2559 94.8373 73.4345 84.6466 71.403 84.6466C71.3249 84.6466 71.2356 84.6633 71.1463 84.7024C71.0738 84.7247 71.5593 84.7526 71.5035 84.7861C71.0291 85.0261 71.1686 85.2996 71.2747 85.9637C71.403 86.7394 71.4812 89.3457 70.9845 89.9484C70.8394 90.127 70.6719 90.2721 70.5101 90.3558C70.4152 90.4061 70.3148 90.434 70.2199 90.434C69.9911 90.434 69.7846 90.2665 69.6506 89.8591C69.6506 89.8591 68.9921 84.9703 68.7689 84.122C67.4127 78.9485 70.1027 78.7978 69.0479 75.7674C63.3498 56.8482 60.3082 54.4261 59.9008 43.7443C59.4767 40.273 58.8014 35.4176 58.3214 32.7276C58.0982 31.511 57.9196 30.7353 57.8247 30.7353C57.6015 31.5054 55.5422 36.1041 55.5422 36.1041C55.2687 36.6398 55.0678 37.4267 54.9227 38.3755C54.2418 42.8067 54.7832 50.7483 54.9059 53.2206C55.1794 58.6118 58.0033 63.0318 58.7177 66.5813C58.9632 67.7979 59.2144 68.7913 59.4599 69.8628C59.4767 69.9521 59.499 70.0414 59.5158 70.1363C59.5381 70.2256 59.5548 70.3205 59.5771 70.4098C59.7781 71.3697 59.9678 72.4244 60.1296 73.775C60.2301 74.6233 60.325 75.4325 60.4087 76.2195C60.4533 76.6548 60.498 77.0789 60.5371 77.4919C60.5482 77.5868 60.5594 77.6817 60.565 77.7765C61.2179 84.5127 61.1789 89.7196 60.1296 99.2629C59.5827 104.241 55.4305 124.84 55.7319 128.423C55.7319 130.734 55.5868 135.461 55.6705 137.458C56.0054 145.35 55.4975 151.723 53.2428 162.232C52.0039 168.008 52.1713 170.207 52.2885 173.745C52.3164 174.605 52.4336 175.336 52.6792 175.838C53.3042 177.122 53.081 178.138 53.4996 179.466C53.9014 180.744 54.8222 181.687 55.6984 182.982C57.4508 184.684 55.9105 185.716 55.9105 185.716C55.5254 185.845 54.8725 185.889 53.36 185.889C52.6345 185.889 51.9983 185.889 51.4179 185.884C51.15 185.884 50.8933 185.884 50.6477 185.878C50.0227 185.878 49.4646 185.867 48.9232 185.85C48.6163 185.839 48.3205 185.822 48.0247 185.806C47.3829 185.772 46.7244 185.722 45.9765 185.649C44.598 185.326 46.183 181.693 45.9375 180.509C45.7756 179.728 45.184 179.276 45.0892 178.138C45.0613 177.825 45.0724 177.462 45.145 177.021C45.2399 176.43 45.318 175.805 45.3738 175.157C45.9598 168.924 45.1003 160.078 45.9263 147.627C46.6518 136.633 46.0547 137.933 45.7589 134.607C45.4966 131.643 45.9319 127.982 45.9765 122.05C46.0714 109.13 44.8994 91.4553 45.5412 83.2625C45.558 83.0393 45.5691 82.8161 45.5747 82.604C45.5747 82.4756 45.5747 82.364 45.5691 82.2524C45.5691 82.1352 45.5635 82.0236 45.558 81.912C45.424 79.7187 44.5311 78.2119 43.9228 77.5366V79.1885C43.7274 78.0277 43.3479 77.3803 42.9182 77.1961C42.4829 77.3803 42.6615 78.0277 42.4717 79.1885V77.5366C41.8578 78.2119 40.9705 79.7187 40.8421 81.9175C40.831 82.0292 40.8254 82.1352 40.8254 82.2524C40.8198 82.3696 40.8142 82.4868 40.8198 82.604C40.8198 82.8216 40.831 83.0393 40.8477 83.2625C41.4951 91.4553 40.3231 109.13 40.418 122.05C40.457 127.982 40.8979 131.643 40.6356 134.607C40.3398 137.933 39.7427 136.633 40.4682 147.627C41.2942 160.078 40.4347 168.924 41.0207 175.157C41.0765 175.805 41.1546 176.43 41.2495 177.021C41.3221 177.462 41.3332 177.825 41.3053 178.138C41.2105 179.276 40.6189 179.728 40.457 180.509C40.2115 181.693 41.7964 185.326 40.418 185.649C39.6701 185.722 39.0116 185.772 38.3698 185.806C38.0684 185.822 37.7726 185.839 37.4713 185.85C36.9299 185.867 36.3718 185.878 35.7524 185.884H34.9766C34.3962 185.889 33.76 185.889 33.0345 185.889C31.5165 185.889 30.8635 185.845 30.484 185.716C30.484 185.716 28.9437 184.684 30.6961 182.982C31.5723 181.687 32.4931 180.744 32.8949 179.466C33.3135 178.138 33.0847 177.122 33.7153 175.838C33.9609 175.336 34.0781 174.605 34.106 173.745C34.2232 170.207 34.3906 168.008 33.1517 162.232C30.897 151.723 30.3891 145.35 30.724 137.458C30.8077 135.461 30.6626 130.734 30.6626 128.423C30.964 124.84 26.8118 104.241 26.2649 99.2629C25.2156 89.7196 25.1766 84.5127 25.8295 77.7765C25.8351 77.6817 25.8407 77.5868 25.8519 77.4919C25.8965 77.0678 25.9412 76.6436 25.9858 76.2027C26.0695 75.4158 26.1644 74.6122 26.2649 73.775C26.4267 72.4244 26.6164 71.3697 26.8174 70.4098C26.8397 70.3205 26.8564 70.2256 26.8787 70.1363C26.8955 70.047 26.9178 69.9577 26.9346 69.8684C27.1801 68.7969 27.4313 67.7979 27.6768 66.5813C28.3912 63.0318 31.2151 58.6118 31.4886 53.2206C31.6113 50.7595 32.1471 42.8681 31.4774 38.4257C31.3323 37.4547 31.1314 36.651 30.8523 36.1041C30.8523 36.1041 28.793 31.5054 28.5698 30.7353C28.4749 30.7353 28.2963 31.4999 28.0786 32.7109C27.5987 35.3953 26.9234 40.2674 26.4937 43.7443C26.0807 54.4261 22.9275 55.8269 17.341 75.7674C16.2918 78.7978 18.9818 78.9485 17.6201 84.122C17.4024 84.9703 16.7439 89.8591 16.7439 89.8591C16.6099 90.2665 16.4034 90.434 16.169 90.434C16.0742 90.434 15.9793 90.4061 15.8788 90.3558C15.717 90.2721 15.5551 90.127 15.4045 89.9484C14.9133 89.3457 14.9915 86.7394 15.1198 85.9637C15.2259 85.2996 15.3598 85.0261 14.891 84.7861C14.8352 84.7526 14.7738 84.7247 14.7013 84.7024C14.612 84.6633 14.5227 84.6466 14.4445 84.6466C12.4522 84.6466 13.1274 94.8373 10.3761 94.8373H10.3035C9.96867 94.7145 9.82915 94.1453 9.74544 93.5816C9.68963 93.2021 9.66172 92.8338 9.61708 92.5994C9.56127 92.2812 9.47755 91.4999 9.38826 90.5791C9.22641 88.782 9.06457 86.4492 9.13712 85.9469C9.42733 83.9211 10.2979 80.3493 11.1295 78.3402C13.2391 74.9805 13.8809 66.3134 16.0239 57.4398C17.5196 51.2506 19.2608 49.3029 19.7129 42.9853C19.9194 40.139 21.1918 27.2082 21.5155 24.6856C22.8047 15.0418 26.6444 12.9434 29.6413 11.9333C30.0096 11.8105 30.3668 11.7045 30.7072 11.5984C30.8691 11.5482 31.0309 11.5035 31.1816 11.4533C31.2151 11.4421 31.2486 11.431 31.2821 11.4198C31.3714 11.3919 31.4774 11.364 31.589 11.325C32.8503 10.9287 35.3952 10.0971 37.075 8.90284C37.8173 8.37266 38.0238 7.45739 38.0238 6.53096V1.391C37.6778 1.14544 37.3429 0.88312 37.0304 0.609657C35.0715 -1.09809 33.7265 -3.36393 32.8894 -6.07066C32.3759 -7.91793 32.0634 -10.34 31.8736 -12.3826C31.6671 -14.6262 31.6169 -16.4009 31.6169 -16.4009C31.6169 -23.3658 34.8594 -27.3896 38.8218 -28.8072C38.9781 -28.8686 39.1399 -28.9244 39.3018 -28.969C40.2617 -29.2592 41.2607 -29.4043 42.2541 -29.4043H44.1404C46.6407 -29.4043 49.1297 -28.5058 51.0775 -26.6306C52.4559 -25.308 53.5554 -23.4886 54.1916 -21.1558C54.5655 -19.7606 54.7776 -18.1756 54.7776 -16.4009C54.7776 -16.4009 54.7776 -16.3116 54.772 -16.1497C54.772 -16.0493 54.7608 -15.9265 54.7553 -15.7758C54.7497 -15.6474 54.7385 -15.4968 54.7329 -15.3293C54.7274 -15.2568 54.7218 -15.1787 54.7218 -15.1005C54.705 -14.8605 54.6939 -14.5927 54.6715 -14.3025C54.5264 -12.0813 54.1972 -8.54299 53.4996 -6.07066C53.0587 -4.63637 52.4727 -3.32487 51.7304 -2.15289C51.15 -1.2432 50.4747 -0.417242 49.6934 0.313854H49.6878C49.5818 0.41431 49.4702 0.514782 49.3585 0.609657C49.3306 0.637562 49.3027 0.66548 49.2748 0.693384C48.9902 0.933361 48.6888 1.16776 48.3763 1.391H48.3707V6.53096C48.3707 7.45739 48.5772 8.37266 49.3195 8.90284C50.9993 10.1027 53.5498 10.9343 54.8111 11.3305C54.9227 11.364 55.0231 11.3919 55.1124 11.4198C55.1459 11.431 55.1794 11.4421 55.2129 11.4533C55.3524 11.498 55.4919 11.5426 55.637 11.5817C55.9942 11.6933 56.3737 11.8049 56.7644 11.9388C59.7557 12.9434 63.5842 15.053 64.879 24.6856C65.2027 27.2082 66.4137 39.4359 66.676 42.9853C67.1504 49.2973 68.8693 51.2506 70.365 57.4398C72.4746 66.1683 73.0103 74.7517 75.265 78.3402C76.0966 80.3493 76.9672 83.9211 77.2574 85.9469C77.3299 86.4492 77.1681 88.782 77.0062 90.5735Z" fill="#333333"/>
<path d="M31.2821 11.4198C31.3714 11.3919 31.4774 11.364 31.589 11.325C31.589 11.3138 31.5946 11.2971 31.5946 11.2859C31.4774 11.3417 31.3769 11.3863 31.2821 11.4198ZM54.8055 11.2859C54.8055 11.2859 54.8111 11.3138 54.8111 11.3305C54.9227 11.364 55.0231 11.3919 55.1124 11.4198C55.0176 11.3808 54.9171 11.3361 54.8055 11.2859ZM54.8055 11.2859C54.8055 11.2859 54.8111 11.3138 54.8111 11.3305C54.9227 11.364 55.0231 11.3919 55.1124 11.4198C55.0176 11.3808 54.9171 11.3361 54.8055 11.2859ZM31.589 11.325C31.589 11.325 31.5946 11.2971 31.5946 11.2859C31.4774 11.3417 31.3769 11.3863 31.2821 11.4198C31.3714 11.3919 31.4774 11.364 31.589 11.325ZM78.3624 85.7907C78.0554 83.6588 77.1513 79.9866 76.2975 77.9161C76.2696 77.8547 76.2417 77.7988 76.2082 77.7486C74.9134 75.6837 74.1879 71.5315 73.3452 66.7208C72.8317 63.7908 72.2457 60.4758 71.4533 57.1775C70.8728 54.7721 70.2478 52.9695 69.7009 51.3845C68.7912 48.7503 68.0712 46.6743 67.7922 42.9016C67.5243 39.3243 66.3021 27.0128 65.9896 24.5461C64.9459 16.7886 62.2113 13.5629 59.5883 11.9947C58.3382 11.2413 57.116 10.8729 56.1114 10.566C55.9161 10.5046 55.7319 10.4488 55.5477 10.393L55.3078 10.3148C54.1916 9.96323 51.5797 9.14281 49.9669 7.99315C49.8441 7.90944 49.4869 7.65272 49.4869 6.53096V1.95464C51.8476 0.124105 53.5554 -2.45983 54.5711 -5.74139C54.5711 -5.74697 54.5767 -5.75813 54.5767 -5.76929C55.2408 -8.13558 55.5812 -11.3725 55.7487 -13.6439C55.8603 -15.1675 55.8938 -16.2614 55.8938 -16.3674V-16.4009C55.8938 -17.7291 55.7766 -18.996 55.5533 -20.1791C55.0343 -22.9138 53.9237 -25.2354 52.2718 -27.0046C50.5863 -28.8183 48.3931 -29.9792 45.9821 -30.3698C45.9821 -30.3754 45.9654 -30.3754 45.9598 -30.3754C45.3682 -30.4703 44.7599 -30.5205 44.1404 -30.5205H42.2597C39.1232 -30.5205 36.2323 -29.2704 34.1172 -27.0046C31.7509 -24.4653 30.5007 -20.7986 30.5007 -16.4009V-16.3674C30.5063 -16.2223 30.5621 -14.2801 30.7965 -11.9027C30.9919 -9.89915 31.3044 -7.57749 31.8178 -5.76929C31.8178 -5.75813 31.8178 -5.74697 31.8178 -5.74139C32.8335 -2.45983 34.5413 0.124105 36.902 1.95464V6.53096C36.902 7.65272 36.5393 7.90944 36.4221 7.99315C34.8092 9.14281 32.1973 9.96323 31.0812 10.3148L30.8356 10.393C30.657 10.4488 30.4728 10.5046 30.2775 10.566C29.1278 10.9176 27.688 11.3529 26.2537 12.3407C23.8037 14.0261 21.3704 17.3244 20.3993 24.5349C20.0701 27.1468 18.8032 40.0163 18.5967 42.9016C18.3233 46.6743 17.6033 48.7559 16.6936 51.3845C16.1411 52.9751 15.5161 54.7721 14.9357 57.1775C14.1208 60.5539 13.5125 63.9359 12.9768 66.9161C12.1173 71.7045 11.3806 75.8399 10.1752 77.7486C10.1417 77.7988 10.1138 77.8547 10.0915 77.9161C9.23199 79.9866 8.32789 83.6588 8.02652 85.7851C7.88142 86.7841 8.37254 91.9743 8.51206 92.7891C8.5288 92.8951 8.54555 93.0291 8.56229 93.1798C8.67391 94.1564 8.82459 95.4958 9.91844 95.8865C10.0189 95.92 10.1194 95.9423 10.2254 95.9479C10.2756 95.9479 10.3258 95.9479 10.3705 95.9479C12.8038 95.9479 13.3563 92.5714 13.892 89.3066C13.9144 89.1671 13.9367 89.022 13.9646 88.8769C14.0427 89.5857 14.2101 90.2498 14.5394 90.646C14.785 90.953 15.064 91.1874 15.3654 91.3437C15.6277 91.4776 15.8956 91.5446 16.1635 91.5446C16.4313 91.5446 17.3857 91.4497 17.7986 90.2051C17.821 90.1382 17.8377 90.0712 17.8433 90.0042C18.0944 88.1402 18.5465 84.9703 18.6972 84.3955C19.5343 81.2144 18.9539 79.6071 18.5297 78.4407C18.2172 77.5868 18.0498 77.118 18.3902 76.1302C18.4014 76.1078 18.407 76.0855 18.4125 76.0632C20.7509 67.703 22.6205 62.7305 24.1274 58.7346C26.1365 53.3881 27.3531 50.1567 27.5987 43.828C27.967 40.8422 28.3967 37.7504 28.7651 35.3785C28.8097 35.066 28.86 34.7647 28.9046 34.4744C29.312 35.4065 29.6859 36.238 29.8255 36.5561C29.831 36.5729 29.8422 36.584 29.8478 36.6008C29.9594 36.824 30.0543 37.0975 30.1436 37.4212C31.0477 40.8199 30.5733 49.314 30.4114 52.2831C30.3947 52.6179 30.378 52.9137 30.3668 53.1592C30.205 56.3403 29.0776 59.2368 28.0842 61.7873C27.4592 63.4002 26.862 64.9237 26.5774 66.3525C26.4211 67.1282 26.2593 67.8258 26.0974 68.4955C25.7458 70.0024 25.4166 71.4255 25.1487 73.6355C24.066 82.7268 23.8986 87.9784 25.1487 99.3801C25.3552 101.266 26.0472 105.218 26.8508 109.8C28.0619 116.726 29.725 126.219 29.5464 128.323C29.5464 128.356 29.5464 128.39 29.5464 128.417C29.5464 129.266 29.5632 130.427 29.5855 131.654C29.619 133.77 29.658 136.164 29.6078 137.408C29.2506 145.807 29.8924 152.359 32.0578 162.455C33.1963 167.768 33.1238 169.889 33.0121 173.104L32.9898 173.701C32.9563 174.705 32.8001 175.157 32.7108 175.342C32.2699 176.251 32.1694 177.055 32.0857 177.764C32.0299 178.227 31.9741 178.662 31.829 179.125C31.6002 179.856 31.1091 180.515 30.5454 181.274C30.311 181.581 30.0766 181.905 29.831 182.256C29.0385 183.065 28.6702 183.908 28.7483 184.768C28.8544 185.934 29.7585 186.57 29.8645 186.637C29.9482 186.693 30.0375 186.738 30.1324 186.771C30.657 186.944 31.3602 187 33.0345 187C36.4332 187 37.9847 187 40.524 186.754C40.5742 186.749 40.6245 186.738 40.6691 186.727C42.6001 186.274 42.109 183.88 41.7853 182.295C41.6737 181.765 41.5118 180.967 41.5509 180.727C41.5844 180.56 41.6792 180.381 41.802 180.152C42.148 179.483 42.628 178.573 42.349 176.837C41.8578 173.762 41.8913 169.906 41.9416 165.022C41.9806 160.295 42.0364 154.419 41.5844 147.549C41.0374 139.334 41.2384 138.139 41.4895 136.621C41.5732 136.119 41.6737 135.544 41.7462 134.702C41.9025 132.916 41.8188 130.929 41.7127 128.417C41.6402 126.593 41.5509 124.522 41.5341 122.039C41.4951 116.597 41.6792 110.307 41.8578 104.224C42.1034 95.8586 42.3378 87.9616 41.9639 83.1677C41.9639 83.1397 41.9583 83.1119 41.9583 83.084C41.9527 83.0393 41.9527 82.9946 41.9527 82.9556C41.9416 82.8607 41.9416 82.7658 41.9416 82.6765C41.936 82.5817 41.936 82.4868 41.936 82.3975C41.9416 81.5659 42.0755 80.8572 42.2541 80.2768C42.2764 80.2768 42.2987 80.2768 42.3266 80.2879C42.3434 80.2879 42.3657 80.2935 42.3824 80.2935C42.4159 80.2935 42.4438 80.2991 42.4717 80.2991C42.7452 80.2991 43.0019 80.1986 43.1973 80.0312C43.3926 80.1986 43.6493 80.2991 43.9172 80.2991C43.9507 80.2991 43.9786 80.2935 44.0121 80.2935C44.0288 80.2935 44.0455 80.2879 44.0623 80.2879C44.0902 80.2824 44.1125 80.2823 44.1404 80.2768C44.319 80.8572 44.4474 81.5659 44.4585 82.4031C44.4585 82.4924 44.4585 82.5872 44.4529 82.6821C44.4529 82.7714 44.4474 82.8663 44.4418 82.9612C44.4418 83.0002 44.4418 83.0393 44.4362 83.084C44.4362 83.1174 44.4306 83.1397 44.4306 83.1677C44.0511 87.9616 44.2855 95.8586 44.5367 104.224C44.7153 110.307 44.8994 116.597 44.8604 122.039C44.8436 124.522 44.7543 126.593 44.6762 128.417C44.5701 130.929 44.4864 132.916 44.6483 134.702C44.7208 135.544 44.8157 136.119 44.8994 136.621C45.1561 138.139 45.3515 139.334 44.8101 147.549C44.3581 154.419 44.4083 160.295 44.4529 165.022C44.4976 169.906 44.5367 173.762 44.0455 176.837C43.7665 178.573 44.2409 179.483 44.5925 180.152C44.7097 180.381 44.8045 180.56 44.8436 180.733C44.8827 180.967 44.7152 181.765 44.6092 182.295C44.2855 183.88 43.7944 186.274 45.7198 186.727C45.77 186.738 45.8203 186.749 45.8705 186.754C48.4042 187 49.9613 187 53.36 187C55.0343 187 55.7375 186.944 56.2621 186.771C56.357 186.738 56.4463 186.693 56.53 186.637C56.6304 186.57 57.5345 185.934 57.6406 184.768C57.7187 183.908 57.3559 183.065 56.5635 182.256C56.3179 181.905 56.0779 181.587 55.8491 181.274C55.2799 180.515 54.7943 179.856 54.5599 179.125C54.4148 178.662 54.3646 178.227 54.3088 177.764C54.2251 177.055 54.1246 176.251 53.6781 175.342C53.5889 175.157 53.4382 174.705 53.4047 173.701L53.3824 173.098C53.2707 169.889 53.1982 167.768 54.3367 162.455C56.4965 152.359 57.1383 145.807 56.7867 137.408C56.7309 136.164 56.77 133.764 56.809 131.649C56.8258 130.421 56.8481 129.266 56.8481 128.417C56.8481 128.39 56.8425 128.356 56.8425 128.323C56.6639 126.219 58.327 116.731 59.5381 109.8C60.3361 105.218 61.0338 101.266 61.2402 99.3801C62.4904 87.9784 62.3229 82.7268 61.2347 73.6355C60.9724 71.4255 60.6375 70.0024 60.2859 68.4955C60.1296 67.8258 59.9678 67.1282 59.8115 66.3525C59.5213 64.9237 58.9298 63.4002 58.3047 61.7873C57.3057 59.2368 56.184 56.3403 56.0221 53.1592C56.011 52.9137 55.9942 52.6179 55.9719 52.2775C55.81 49.2861 55.3357 40.6748 56.2733 37.3374C56.3458 37.0528 56.4407 36.8017 56.5411 36.6008C56.5467 36.584 56.5579 36.5729 56.5635 36.5561C56.703 36.238 57.0769 35.4065 57.4843 34.4744C57.529 34.7535 57.5736 35.0437 57.6238 35.3507C57.9866 37.7337 58.4163 40.8311 58.7847 43.828C59.0525 50.6311 60.3473 54.1247 62.6913 60.459C64.0921 64.2596 65.8445 68.9866 67.9819 76.0855C67.9875 76.1023 67.9931 76.1134 67.9931 76.1302C68.3391 77.118 68.1661 77.5868 67.8592 78.4407C67.435 79.6071 66.8546 81.2144 67.6917 84.401C67.8424 84.9703 68.2945 88.1402 68.54 90.0042C68.5512 90.0712 68.5679 90.1382 68.5903 90.2051C68.9977 91.4497 69.9408 91.5446 70.2199 91.5446C70.4989 91.5446 70.7612 91.4776 71.018 91.3437C71.3249 91.1874 71.6039 90.953 71.8551 90.646C72.0504 90.4061 72.1844 90.0712 72.2848 89.6861C72.9601 92.817 73.7024 95.9479 76.0128 95.9479C76.0631 95.9479 76.1133 95.9479 76.1635 95.9479C76.2696 95.9423 76.37 95.92 76.4649 95.8865C77.5587 95.4958 77.715 94.1564 77.8266 93.1798C77.8434 93.0291 77.8545 92.8951 77.8769 92.7891C78.0164 91.9743 78.5075 86.7841 78.3624 85.7907ZM77.0062 90.5735C76.9169 91.4999 76.8332 92.2812 76.7774 92.5994C76.7328 92.8338 76.7049 93.2021 76.6491 93.576C76.5654 94.1453 76.4258 94.7145 76.091 94.8373H76.0128C73.2559 94.8373 73.4345 84.6466 71.403 84.6466C71.3249 84.6466 71.2356 84.6633 71.1463 84.7024C71.0738 84.7247 71.5593 84.7526 71.5035 84.7861C71.0291 85.0261 71.1686 85.2996 71.2747 85.9637C71.403 86.7394 71.4812 89.3457 70.9845 89.9484C70.8394 90.127 70.6719 90.2721 70.5101 90.3558C70.4152 90.4061 70.3148 90.434 70.2199 90.434C69.9911 90.434 69.7846 90.2665 69.6506 89.8591C69.6506 89.8591 68.9921 84.9703 68.7689 84.122C67.4127 78.9485 70.1027 78.7978 69.0479 75.7674C63.3498 56.8482 60.3082 54.4261 59.9008 43.7443C59.4767 40.273 58.8014 35.4176 58.3214 32.7276C58.0982 31.511 57.9196 30.7353 57.8247 30.7353C57.6015 31.5054 55.5422 36.1041 55.5422 36.1041C55.2687 36.6398 55.0678 37.4267 54.9227 38.3755C54.2418 42.8067 54.7832 50.7483 54.9059 53.2206C55.1794 58.6118 58.0033 63.0318 58.7177 66.5813C58.9632 67.7979 59.2144 68.7913 59.4599 69.8628C59.4767 69.9521 59.499 70.0414 59.5158 70.1363C59.5381 70.2256 59.5548 70.3205 59.5771 70.4098C59.7781 71.3697 59.9678 72.4244 60.1296 73.775C60.2301 74.6233 60.325 75.4325 60.4087 76.2195C60.4533 76.6548 60.498 77.0789 60.5371 77.4919C60.5482 77.5868 60.5594 77.6817 60.565 77.7765C61.2179 84.5127 61.1789 89.7196 60.1296 99.2629C59.5827 104.241 55.4305 124.84 55.7319 128.423C55.7319 130.734 55.5868 135.461 55.6705 137.458C56.0054 145.35 55.4975 151.723 53.2428 162.232C52.0039 168.008 52.1713 170.207 52.2885 173.745C52.3164 174.605 52.4336 175.336 52.6792 175.838C53.3042 177.122 53.081 178.138 53.4996 179.466C53.9014 180.744 54.8222 181.687 55.6984 182.982C57.4508 184.684 55.9105 185.716 55.9105 185.716C55.5254 185.845 54.8725 185.889 53.36 185.889C52.6345 185.889 51.9983 185.889 51.4179 185.884C51.15 185.884 50.8933 185.884 50.6477 185.878C50.0227 185.878 49.4646 185.867 48.9232 185.85C48.6163 185.839 48.3205 185.822 48.0247 185.806C47.3829 185.772 46.7244 185.722 45.9765 185.649C44.598 185.326 46.183 181.693 45.9375 180.509C45.7756 179.728 45.184 179.276 45.0892 178.138C45.0613 177.825 45.0724 177.462 45.145 177.021C45.2399 176.43 45.318 175.805 45.3738 175.157C45.9598 168.924 45.1003 160.078 45.9263 147.627C46.6518 136.633 46.0547 137.933 45.7589 134.607C45.4966 131.643 45.9319 127.982 45.9765 122.05C46.0714 109.13 44.8994 91.4553 45.5412 83.2625C45.558 83.0393 45.5691 82.8161 45.5747 82.604C45.5747 82.4756 45.5747 82.364 45.5691 82.2524C45.5691 82.1352 45.5635 82.0236 45.558 81.912C45.424 79.7187 44.5311 78.2119 43.9228 77.5366V79.1885C43.7274 78.0277 43.3479 77.3803 42.9182 77.1961C42.4829 77.3803 42.6615 78.0277 42.4717 79.1885V77.5366C41.8578 78.2119 40.9705 79.7187 40.8421 81.9175C40.831 82.0292 40.8254 82.1352 40.8254 82.2524C40.8198 82.3696 40.8142 82.4868 40.8198 82.604C40.8198 82.8216 40.831 83.0393 40.8477 83.2625C41.4951 91.4553 40.3231 109.13 40.418 122.05C40.457 127.982 40.8979 131.643 40.6356 134.607C40.3398 137.933 39.7427 136.633 40.4682 147.627C41.2942 160.078 40.4347 168.924 41.0207 175.157C41.0765 175.805 41.1546 176.43 41.2495 177.021C41.3221 177.462 41.3332 177.825 41.3053 178.138C41.2105 179.276 40.6189 179.728 40.457 180.509C40.2115 181.693 41.7964 185.326 40.418 185.649C39.6701 185.722 39.0116 185.772 38.3698 185.806C38.0684 185.822 37.7726 185.839 37.4713 185.85C36.9299 185.867 36.3718 185.878 35.7524 185.884H34.9766C34.3962 185.889 33.76 185.889 33.0345 185.889C31.5165 185.889 30.8635 185.845 30.484 185.716C30.484 185.716 28.9437 184.684 30.6961 182.982C31.5723 181.687 32.4931 180.744 32.8949 179.466C33.3135 178.138 33.0847 177.122 33.7153 175.838C33.9609 175.336 34.0781 174.605 34.106 173.745C34.2232 170.207 34.3906 168.008 33.1517 162.232C30.897 151.723 30.3891 145.35 30.724 137.458C30.8077 135.461 30.6626 130.734 30.6626 128.423C30.964 124.84 26.8118 104.241 26.2649 99.2629C25.2156 89.7196 25.1766 84.5127 25.8295 77.7765C25.8351 77.6817 25.8407 77.5868 25.8519 77.4919C25.8965 77.0678 25.9412 76.6436 25.9858 76.2027C26.0695 75.4158 26.1644 74.6122 26.2649 73.775C26.4267 72.4244 26.6164 71.3697 26.8174 70.4098C26.8397 70.3205 26.8564 70.2256 26.8787 70.1363C26.8955 70.047 26.9178 69.9577 26.9346 69.8684C27.1801 68.7969 27.4313 67.7979 27.6768 66.5813C28.3912 63.0318 31.2151 58.6118 31.4886 53.2206C31.6113 50.7595 32.1471 42.8681 31.4774 38.4257C31.3323 37.4547 31.1314 36.651 30.8523 36.1041C30.8523 36.1041 28.793 31.5054 28.5698 30.7353C28.4749 30.7353 28.2963 31.4999 28.0786 32.7109C27.5987 35.3953 26.9234 40.2674 26.4937 43.7443C26.0807 54.4261 22.9275 55.8269 17.341 75.7674C16.2918 78.7978 18.9818 78.9485 17.6201 84.122C17.4024 84.9703 16.7439 89.8591 16.7439 89.8591C16.6099 90.2665 16.4034 90.434 16.169 90.434C16.0742 90.434 15.9793 90.4061 15.8788 90.3558C15.717 90.2721 15.5551 90.127 15.4045 89.9484C14.9133 89.3457 14.9915 86.7394 15.1198 85.9637C15.2259 85.2996 15.3598 85.0261 14.891 84.7861C14.8352 84.7526 14.7738 84.7247 14.7013 84.7024C14.612 84.6633 14.5227 84.6466 14.4445 84.6466C12.4522 84.6466 13.1274 94.8373 10.3761 94.8373H10.3035C9.96867 94.7145 9.82915 94.1453 9.74544 93.5816C9.68963 93.2021 9.66172 92.8338 9.61708 92.5994C9.56127 92.2812 9.47755 91.4999 9.38826 90.5791C9.22641 88.782 9.06457 86.4492 9.13712 85.9469C9.42733 83.9211 10.2979 80.3493 11.1295 78.3402C13.2391 74.9805 13.8809 66.3134 16.0239 57.4398C17.5196 51.2506 19.2608 49.3029 19.7129 42.9853C19.9194 40.139 21.1918 27.2082 21.5155 24.6856C22.8047 15.0418 26.6444 12.9434 29.6413 11.9333C30.0096 11.8105 30.3668 11.7045 30.7072 11.5984C30.8691 11.5482 31.0309 11.5035 31.1816 11.4533C31.2151 11.4421 31.2486 11.431 31.2821 11.4198C31.3714 11.3919 31.4774 11.364 31.589 11.325C32.8503 10.9287 35.3952 10.0971 37.075 8.90284C37.8173 8.37266 38.0238 7.45739 38.0238 6.53096V1.391C37.6778 1.14544 37.3429 0.88312 37.0304 0.609657C35.0715 -1.09809 33.7265 -3.36393 32.8894 -6.07066C32.3759 -7.91793 32.0634 -10.34 31.8736 -12.3826C31.6671 -14.6262 31.6169 -16.4009 31.6169 -16.4009C31.6169 -23.3658 34.8594 -27.3896 38.8218 -28.8072C38.9781 -28.8686 39.1399 -28.9244 39.3018 -28.969C40.2617 -29.2592 41.2607 -29.4043 42.2541 -29.4043H44.1404C46.6407 -29.4043 49.1297 -28.5058 51.0775 -26.6306C52.4559 -25.308 53.5554 -23.4886 54.1916 -21.1558C54.5655 -19.7606 54.7776 -18.1756 54.7776 -16.4009C54.7776 -16.4009 54.7776 -16.3116 54.772 -16.1497C54.772 -16.0493 54.7608 -15.9265 54.7553 -15.7758C54.7497 -15.6474 54.7385 -15.4968 54.7329 -15.3293C54.7274 -15.2568 54.7218 -15.1787 54.7218 -15.1005C54.705 -14.8605 54.6939 -14.5927 54.6715 -14.3025C54.5264 -12.0813 54.1972 -8.54299 53.4996 -6.07066C53.0587 -4.63637 52.4727 -3.32487 51.7304 -2.15289C51.15 -1.2432 50.4747 -0.417242 49.6934 0.313854H49.6878C49.5818 0.41431 49.4702 0.514782 49.3585 0.609657C49.3306 0.637562 49.3027 0.66548 49.2748 0.693384C48.9902 0.933361 48.6888 1.16776 48.3763 1.391H48.3707V6.53096C48.3707 7.45739 48.5772 8.37266 49.3195 8.90284C50.9993 10.1027 53.5498 10.9343 54.8111 11.3305C54.9227 11.364 55.0231 11.3919 55.1124 11.4198C55.1459 11.431 55.1794 11.4421 55.2129 11.4533C55.3524 11.498 55.4919 11.5426 55.637 11.5817C55.9942 11.6933 56.3737 11.8049 56.7644 11.9388C59.7557 12.9434 63.5842 15.053 64.879 24.6856C65.2027 27.2082 66.4137 39.4359 66.676 42.9853C67.1504 49.2973 68.8693 51.2506 70.365 57.4398C72.4746 66.1683 73.0103 74.7517 75.265 78.3402C76.0966 80.3493 76.9672 83.9211 77.2574 85.9469C77.3299 86.4492 77.1681 88.782 77.0062 90.5735Z" fill="black" fill-opacity="0.2"/>
<path d="M54.6719 -14.3027C54.5268 -12.0815 54.1976 -8.54318 53.4999 -6.07085C52.7186 -3.52038 51.4741 -1.3606 49.6938 0.313667H49.6882C49.5822 0.414124 49.4705 0.514595 49.3589 0.60947C47.7126 1.66984 45.3407 2.98135 43.7669 2.98135H42.634C41.0546 2.98135 38.6827 1.66426 37.0308 0.60947C35.0719 -1.09828 33.7269 -3.36412 32.8897 -6.07085C32.3763 -7.91812 32.0638 -10.3402 31.874 -12.3828C42.673 -17.3721 46.9926 -24.0859 46.9926 -24.0859C48.7785 -18.8846 52.3893 -15.8039 54.6719 -14.3027Z" fill="#FFEACA"/>
<path d="M42.4716 79.1885L42.3265 80.2935L42.0474 82.4031L42.014 82.6821L41.9749 82.9612L41.9582 83.0895L41.9358 83.2625C41.9247 83.1621 41.9135 83.0616 41.9135 82.9612C41.9023 82.8663 41.9023 82.7714 41.9023 82.6821C41.9023 82.5872 41.9023 82.4924 41.9023 82.4031C41.9247 81.0637 42.3377 79.9977 42.4716 79.1885Z" fill="#333333"/>
<path d="M42.4716 79.1885L42.3265 80.2935L42.0474 82.4031L42.014 82.6821L41.9749 82.9612L41.9582 83.0895L41.9358 83.2625C41.9247 83.1621 41.9135 83.0616 41.9135 82.9612C41.9023 82.8663 41.9023 82.7714 41.9023 82.6821C41.9023 82.5872 41.9023 82.4924 41.9023 82.4031C41.9247 81.0637 42.3377 79.9977 42.4716 79.1885Z" fill="black" fill-opacity="0.2"/>
<path d="M60.7102 77.5032C60.5539 76.2978 60.9111 75.0644 60.6767 73.7752C60.4423 72.4971 60.1465 71.2694 59.8116 70.0918C56.8761 70.5438 50.4413 71.8888 42.9183 71.8888C35.3953 71.8888 29.5186 70.5438 26.5831 70.0918C26.2482 71.2694 25.9524 72.4971 25.718 73.7752C25.4836 75.0644 25.8408 76.2978 25.6845 77.5032C32.1026 77.0233 35.9031 78.3906 41.378 82.6823C41.8356 82.6823 44.5591 82.6823 45.0056 82.6823C50.486 78.385 54.2866 77.0177 60.7046 77.4976L60.7102 77.5032Z" fill="#333333"/>
<path d="M60.7102 77.5032C60.5539 76.2978 60.9111 75.0644 60.6767 73.7752C60.4423 72.4971 60.1465 71.2694 59.8116 70.0918C56.8761 70.5438 50.4413 71.8888 42.9183 71.8888C35.3953 71.8888 29.5186 70.5438 26.5831 70.0918C26.2482 71.2694 25.9524 72.4971 25.718 73.7752C25.4836 75.0644 25.8408 76.2978 25.6845 77.5032C32.1026 77.0233 35.9031 78.3906 41.378 82.6823C41.8356 82.6823 44.5591 82.6823 45.0056 82.6823C50.486 78.385 54.2866 77.0177 60.7046 77.4976L60.7102 77.5032Z" fill="black" fill-opacity="0.2"/>
<path d="M60.9891 75.8285C61.0338 75.1532 61.0784 74.45 60.9501 73.7245C60.7324 72.5134 60.4366 71.2633 60.0794 70.0132L60.0125 69.7788L59.7669 69.8179C59.6665 69.8346 59.566 69.8514 59.46 69.8625C59.0581 69.9295 58.6005 70.0076 58.0871 70.0969C54.7664 70.6606 49.2079 71.6093 42.9182 71.6093C36.6286 71.6093 31.8234 70.7276 28.5363 70.1416C27.9391 70.0355 27.4034 69.9406 26.9346 69.8681C26.8285 69.8513 26.7281 69.8346 26.6276 69.8179L26.3821 69.7788L26.3151 70.0132C25.9579 71.2633 25.6621 72.5134 25.4445 73.7245C25.3105 74.45 25.3608 75.1532 25.4054 75.8285C25.4389 76.4033 25.478 76.9391 25.411 77.4692L25.3663 77.8097L25.7068 77.7818C25.7514 77.7762 25.7905 77.7762 25.8296 77.7762C26.5997 77.7148 27.3085 77.6925 27.9894 77.6925C32.7108 77.6925 36.1151 78.9817 40.8198 82.6037C40.9482 82.6985 41.0765 82.799 41.2049 82.8995L41.2774 82.9609H41.9751C42.6671 82.9664 43.7386 82.9664 44.4195 82.9664H45.1059L45.1785 82.9051C45.3124 82.799 45.4408 82.6985 45.5747 82.6037C50.2794 78.9817 53.6893 77.6925 58.4052 77.6925C59.086 77.6925 59.7948 77.7148 60.565 77.7762C60.604 77.7762 60.6431 77.7762 60.6878 77.7818L61.0282 77.8097L60.9835 77.4692C60.9166 76.9391 60.9501 76.3978 60.9891 75.8285ZM60.431 75.795C60.4199 75.9345 60.4143 76.074 60.4087 76.2191C60.3864 76.5484 60.3808 76.8721 60.3975 77.2014C59.6944 77.1567 59.0414 77.1344 58.4052 77.1344C53.6558 77.1344 50.2069 78.3957 45.558 81.9116C45.3459 82.0679 45.1283 82.2353 44.9106 82.4083H44.3469C43.6884 82.4083 42.7117 82.4083 42.0476 82.4028H41.4728C41.2607 82.2353 41.0486 82.0735 40.8421 81.9172C36.1877 78.3957 32.7443 77.1344 27.9894 77.1344C27.3531 77.1344 26.6946 77.1567 25.9914 77.2014C26.0137 76.8721 26.0026 76.5317 25.9858 76.2024C25.9747 76.0629 25.9691 75.9289 25.9579 75.795C25.9189 75.1476 25.8742 74.4835 25.9914 73.8249C26.1979 72.7088 26.4602 71.5591 26.7839 70.4039C26.7951 70.4039 26.8062 70.4095 26.8174 70.4095C27.2862 70.4876 27.8275 70.5825 28.4358 70.6941C31.7453 71.2801 36.7458 72.1674 42.9182 72.1674C49.0907 72.1674 54.8446 71.2131 58.1819 70.6438C58.7065 70.5545 59.1698 70.4764 59.5772 70.4095C59.5883 70.4095 59.5995 70.4039 59.6106 70.4039C59.9343 71.5591 60.1966 72.7088 60.4031 73.8249C60.5203 74.4835 60.4757 75.1476 60.431 75.795Z" fill="#333333"/>
<path d="M60.9891 75.8285C61.0338 75.1532 61.0784 74.45 60.9501 73.7245C60.7324 72.5134 60.4366 71.2633 60.0794 70.0132L60.0125 69.7788L59.7669 69.8179C59.6665 69.8346 59.566 69.8514 59.46 69.8625C59.0581 69.9295 58.6005 70.0076 58.0871 70.0969C54.7664 70.6606 49.2079 71.6093 42.9182 71.6093C36.6286 71.6093 31.8234 70.7276 28.5363 70.1416C27.9391 70.0355 27.4034 69.9406 26.9346 69.8681C26.8285 69.8513 26.7281 69.8346 26.6276 69.8179L26.3821 69.7788L26.3151 70.0132C25.9579 71.2633 25.6621 72.5134 25.4445 73.7245C25.3105 74.45 25.3608 75.1532 25.4054 75.8285C25.4389 76.4033 25.478 76.9391 25.411 77.4692L25.3663 77.8097L25.7068 77.7818C25.7514 77.7762 25.7905 77.7762 25.8296 77.7762C26.5997 77.7148 27.3085 77.6925 27.9894 77.6925C32.7108 77.6925 36.1151 78.9817 40.8198 82.6037C40.9482 82.6985 41.0765 82.799 41.2049 82.8995L41.2774 82.9609H41.9751C42.6671 82.9664 43.7386 82.9664 44.4195 82.9664H45.1059L45.1785 82.9051C45.3124 82.799 45.4408 82.6985 45.5747 82.6037C50.2794 78.9817 53.6893 77.6925 58.4052 77.6925C59.086 77.6925 59.7948 77.7148 60.565 77.7762C60.604 77.7762 60.6431 77.7762 60.6878 77.7818L61.0282 77.8097L60.9835 77.4692C60.9166 76.9391 60.9501 76.3978 60.9891 75.8285ZM60.431 75.795C60.4199 75.9345 60.4143 76.074 60.4087 76.2191C60.3864 76.5484 60.3808 76.8721 60.3975 77.2014C59.6944 77.1567 59.0414 77.1344 58.4052 77.1344C53.6558 77.1344 50.2069 78.3957 45.558 81.9116C45.3459 82.0679 45.1283 82.2353 44.9106 82.4083H44.3469C43.6884 82.4083 42.7117 82.4083 42.0476 82.4028H41.4728C41.2607 82.2353 41.0486 82.0735 40.8421 81.9172C36.1877 78.3957 32.7443 77.1344 27.9894 77.1344C27.3531 77.1344 26.6946 77.1567 25.9914 77.2014C26.0137 76.8721 26.0026 76.5317 25.9858 76.2024C25.9747 76.0629 25.9691 75.9289 25.9579 75.795C25.9189 75.1476 25.8742 74.4835 25.9914 73.8249C26.1979 72.7088 26.4602 71.5591 26.7839 70.4039C26.7951 70.4039 26.8062 70.4095 26.8174 70.4095C27.2862 70.4876 27.8275 70.5825 28.4358 70.6941C31.7453 71.2801 36.7458 72.1674 42.9182 72.1674C49.0907 72.1674 54.8446 71.2131 58.1819 70.6438C58.7065 70.5545 59.1698 70.4764 59.5772 70.4095C59.5883 70.4095 59.5995 70.4039 59.6106 70.4039C59.9343 71.5591 60.1966 72.7088 60.4031 73.8249C60.5203 74.4835 60.4757 75.1476 60.431 75.795Z" fill="black" fill-opacity="0.2"/>
<path d="M42.628 61.9155C43.2322 61.9155 43.7219 61.5407 43.7219 61.0783C43.7219 60.616 43.2322 60.2412 42.628 60.2412C42.0239 60.2412 41.5342 60.616 41.5342 61.0783C41.5342 61.5407 42.0239 61.9155 42.628 61.9155Z" fill="#333333"/>
<path d="M42.628 61.9155C43.2322 61.9155 43.7219 61.5407 43.7219 61.0783C43.7219 60.616 43.2322 60.2412 42.628 60.2412C42.0239 60.2412 41.5342 60.616 41.5342 61.0783C41.5342 61.5407 42.0239 61.9155 42.628 61.9155Z" fill="black" fill-opacity="0.2"/>
</g>
<defs>
<clipPath id="clip0_8984_52241">
<rect width="85" height="80" fill="white"/>
</clipPath>
</defs>
</svg>
