<svg width="85" height="80" viewBox="0 0 85 80" fill="none" xmlns="http://www.w3.org/2000/svg">
<g clip-path="url(#clip0_8985_53452)">
<path d="M56.1312 5.90967C55.1651 7.68101 53.4785 9.15574 51.6817 10.283C49.0289 11.9611 46.1304 12.8764 44.9947 12.8764H41.4266C40.2655 12.8764 37.4347 12.0458 34.7481 10.2999C33.053 9.20656 31.4173 7.74881 30.29 5.90967C30.29 5.90967 31.4851 6.79957 33.1886 7.86746C35.7481 9.4693 39.4434 11.4864 41.9012 11.4864H44.5201C46.9864 11.4864 50.707 9.45238 53.2666 7.85055C53.2666 7.85055 53.2666 7.83358 53.2836 7.83358C54.9532 6.78264 56.1312 5.90967 56.1312 5.90967Z" fill="#DFCBAD"/>
<path d="M23.4741 28.1743C23.3809 28.1489 23.2876 28.1235 23.2029 28.098C22.4232 27.8777 22.4571 27.6573 23.2707 27.6743C23.347 27.6743 23.4233 27.6743 23.508 27.6827C26.9914 27.759 34.8056 28.0641 37.7296 29.3354C41.196 30.8356 29.9069 29.9287 23.4741 28.1743Z" fill="#DFCBAD"/>
<path d="M62.3092 28.0975C55.9273 29.9028 44.2652 30.8605 47.791 29.3349C50.7743 28.0298 58.8936 27.7416 62.2414 27.6738C63.055 27.6568 63.0889 27.8772 62.3092 28.0975Z" fill="#DFCBAD"/>
<path d="M43.2649 33.0051C42.4258 33.4797 41.7732 32.9457 41.3325 32.3016C40.8748 31.6321 41.163 31.4795 41.9258 31.7677C42.2394 31.8863 42.5444 31.9541 42.8326 31.9965C43.6378 32.1067 43.9683 32.5983 43.2649 33.0051Z" fill="#DFCBAD"/>
<path d="M43.1042 94.29C42.9516 95.4088 42.5025 95.4088 42.3499 94.29C41.5871 88.8065 42.2397 80.0176 42.6126 76.0766C42.7143 74.9494 42.9008 74.9579 43.0025 76.0766C43.867 85.8741 43.4686 91.5695 43.1042 94.29Z" fill="#DFCBAD"/>
<path d="M50.808 80.3227C50.808 80.3227 50.7317 80.3821 50.6809 80.3821C50.5961 80.3821 50.4859 80.3397 50.3249 80.0007C48.9943 77.2802 47.1636 75.3478 46.1974 74.4324C45.9601 74.2121 45.8923 74.0849 45.9347 73.9747C45.9601 73.9154 46.0194 73.873 46.0957 73.873C46.1466 73.873 46.2483 73.89 46.4771 74.0087C49.6723 75.6614 50.5792 78.3734 50.8419 79.8481C50.9012 80.1702 50.8588 80.2719 50.808 80.3227Z" fill="#DFCBAD"/>
<path d="M39.3245 74.4324C38.3498 75.3478 36.5276 77.2802 35.1885 80.0007C35.0275 80.3397 34.9173 80.3821 34.8325 80.3821C34.7817 80.3821 34.7393 80.3651 34.7054 80.3227C34.663 80.2719 34.6122 80.1702 34.6715 79.8481C34.9343 78.3734 35.8496 75.6614 39.0448 74.0087C39.2736 73.89 39.3668 73.873 39.4177 73.873C39.494 73.873 39.5618 73.9154 39.5872 73.9747C39.6296 74.0849 39.5533 74.2121 39.3245 74.4324Z" fill="#DFCBAD"/>
<path d="M98.1596 138.93C97.6849 135.692 96.2865 130.116 94.9559 126.963C94.9135 126.878 94.8711 126.793 94.8203 126.708C92.9981 123.878 92.176 117.784 91.2183 110.733C90.5063 105.452 89.6927 99.4688 88.2858 93.7819C87.4468 90.3833 86.5399 87.7983 85.7263 85.5185C84.277 81.4249 83.1328 78.1874 83.1244 72.2546C83.1244 69.5764 82.2599 48.1 81.8446 44.2438C80.4038 31.6494 74.3524 26.9287 69.1062 24.7336C67.3349 23.9877 65.6568 23.5301 64.2753 23.1572C63.7329 23.0131 63.2159 22.869 62.7921 22.7334C61.7412 22.4113 58.012 20.1145 54.1134 17.3939C53.9269 17.2668 53.376 16.8769 53.376 15.1819V9.93566C57.0289 7.16423 59.6817 3.23171 61.2496 -1.75177C61.2581 -1.76025 61.2581 -1.77721 61.2665 -1.79416C62.3005 -5.39617 62.826 -10.3203 63.0803 -13.7782C63.2498 -16.0835 63.3006 -17.7362 63.3091 -17.8973V-17.9481C63.3091 -19.8127 63.1565 -21.584 62.8514 -23.2621C62.8514 -23.2791 62.8514 -23.296 62.843 -23.313C62.0717 -27.6354 60.3343 -31.2967 57.69 -34.0681C54.766 -37.1277 50.9097 -38.9584 46.6805 -39.3228H46.6721C46.1551 -39.3652 45.6381 -39.3906 45.1041 -39.3906H41.3241C36.4763 -39.3906 32.0098 -37.5006 28.7383 -34.0681C25.06 -30.2119 23.1107 -24.6351 23.1107 -17.9481V-17.8973C23.1192 -17.6769 23.2124 -14.736 23.5768 -11.1339C23.8735 -8.08283 24.3651 -4.54864 25.1617 -1.79416C25.1617 -1.77721 25.1702 -1.76025 25.1702 -1.75177C26.7466 3.23171 29.3909 7.15576 33.0522 9.93566V15.1819C33.0522 16.8769 32.4929 17.2668 32.3064 17.3939C28.4162 20.1145 24.6786 22.4113 23.6362 22.7334C23.2039 22.869 22.6954 23.0131 22.153 23.1572C20.5427 23.5979 18.534 24.1403 16.4406 25.115C11.4148 27.4711 5.93126 32.3359 4.5752 44.2353C4.16839 48.0915 3.29543 69.568 3.29543 72.2546C3.28695 78.1874 2.14279 81.4249 0.693512 85.5185C-0.111643 87.7983 -1.02698 90.3833 -1.86604 93.7819C-3.26446 99.4688 -4.07808 105.452 -4.79849 110.733C-5.74772 117.784 -6.5783 123.878 -8.39202 126.708C-8.45135 126.793 -8.49373 126.878 -8.52763 126.963C-9.86673 130.116 -11.2651 135.692 -11.7398 138.93C-11.9601 140.447 -11.1974 148.337 -10.977 149.575C-10.9516 149.727 -10.9346 149.939 -10.9007 150.16C-10.7312 151.651 -10.4939 153.685 -8.81579 154.27C-8.66323 154.321 -8.51068 154.355 -8.35812 154.363C-8.28185 154.363 -8.20557 154.363 -8.12929 154.363C-4.46795 154.363 -3.35769 149.304 -2.28133 144.413C-2.13725 143.735 -1.95926 142.939 -1.77281 142.159C-1.7389 143.727 -1.51854 145.447 -0.789667 146.329C-0.408278 146.786 0.023962 147.142 0.481628 147.38C0.888444 147.575 1.29526 147.676 1.70208 147.676C2.10889 147.676 3.55816 147.532 4.19381 145.651C4.22771 145.549 4.25314 145.447 4.27009 145.337C4.65996 142.506 5.35493 137.701 5.59224 136.828C6.88896 131.98 5.98211 129.539 5.32951 127.759C4.85489 126.471 4.59216 125.768 5.11762 124.276C5.11762 124.259 5.12609 124.242 5.13457 124.225C7.26187 117.513 9.19424 111.826 10.8978 106.808C15.8897 92.1038 18.9069 83.2217 19.3985 70.9749C19.7121 68.4662 19.8901 66.1185 20.0003 64.1099C20.0003 64.0082 20.0003 63.9064 20.0172 63.8047C20.1359 64.0505 20.2545 64.2878 20.3562 64.5082C20.6274 65.0591 20.8563 65.5168 21.0173 65.8303C23.7972 71.1613 24.1955 82.1962 24.3396 86.3491C24.3566 86.9 24.3735 87.3661 24.3905 87.7136C24.5261 90.4087 22.7886 93.926 20.5935 98.3755C17.9662 103.698 14.6947 110.326 13.1437 118.682C10.6351 132.268 10.8808 143.676 14.0082 158.05C15.8558 166.559 21.1953 196.715 20.8139 201.783C20.441 204.249 20.2715 209.343 20.1443 213.08C20.1104 214.08 20.085 214.962 20.0511 215.623C19.5341 227.649 21.1529 236.608 24.7041 252.83C25.1702 254.94 25.6024 256.805 25.9923 258.44C27.2297 263.703 27.9755 266.882 27.8399 270.746C27.7891 272.263 27.5518 272.95 27.4161 273.221C26.7212 274.611 26.5771 275.832 26.4415 276.908C26.3567 277.611 26.272 278.272 26.0432 278.967C25.6872 280.086 24.9329 281.078 24.0514 282.23C23.6955 282.705 23.3226 283.188 22.9497 283.731C21.7123 284.951 21.1444 286.231 21.2631 287.544C21.4241 289.333 22.831 290.299 22.992 290.409C23.1192 290.485 23.2548 290.553 23.3904 290.596C24.1955 290.867 25.2888 290.943 27.8738 290.943C33.1455 290.943 35.5525 290.943 39.485 290.57C39.5613 290.562 39.6375 290.553 39.7053 290.536C42.5785 289.875 42.2395 286.273 41.9937 283.637C41.9259 282.858 41.8242 281.781 41.9005 281.434C41.9513 281.18 42.0954 280.9 42.2818 280.552C42.6293 279.908 43.0616 279.103 43.2141 277.916C43.3582 279.103 43.7905 279.908 44.1379 280.552C44.3244 280.9 44.4769 281.18 44.5278 281.434C44.6041 281.781 44.5024 282.858 44.4261 283.646C44.1803 286.273 43.8498 289.875 46.7144 290.536C46.7907 290.553 46.8585 290.562 46.9348 290.57C50.8673 290.943 53.2743 290.943 58.5545 290.943C61.1394 290.943 62.2243 290.867 63.0294 290.596C63.1735 290.553 63.3091 290.485 63.4362 290.409C63.5888 290.299 64.9957 289.333 65.1567 287.544C65.2754 286.231 64.7075 284.951 63.4786 283.731C63.0972 283.188 62.7328 282.705 62.3683 282.23C61.4954 281.078 60.7326 280.086 60.3766 278.967C60.1478 278.272 60.0715 277.611 59.9868 276.908C59.8512 275.832 59.6986 274.611 59.0036 273.221C58.868 272.95 58.6307 272.263 58.5799 270.746C58.4443 266.882 59.1986 263.703 60.436 258.44C60.8174 256.796 61.2581 254.94 61.7157 252.83C65.2754 236.608 66.8857 227.649 66.3687 215.623C66.3433 214.97 66.3093 214.089 66.2754 213.089C66.1483 209.351 65.9788 204.249 65.6059 201.783C65.216 196.63 70.5385 166.11 72.4116 158.076C75.3356 145.558 76.5984 134.065 73.2676 118.632C71.5471 110.656 68.4367 104.173 65.9364 98.9603C63.6735 94.2481 61.8937 90.5274 62.0293 87.7136C62.0463 87.3661 62.0632 86.9 62.0802 86.3491C62.2327 82.1962 62.6226 71.1613 65.394 65.8642C65.5551 65.5422 65.7839 65.0761 66.0551 64.5252C66.1653 64.2963 66.2839 64.059 66.4111 63.8047C66.4195 63.9064 66.4195 64.0082 66.428 64.1099C66.5382 66.1185 66.7077 68.4662 67.0213 70.9749C67.5044 83.0098 70.6572 92.3072 75.4203 106.359C77.1662 111.521 79.1495 117.36 81.2852 124.217C81.2852 124.234 81.3022 124.259 81.3107 124.276C81.8361 125.768 81.5734 126.471 81.0988 127.759C80.4377 129.539 79.5393 131.98 80.836 136.837C81.0649 137.701 81.7683 142.506 82.1582 145.337C82.1667 145.447 82.1921 145.549 82.226 145.651C82.8616 147.532 84.3024 147.676 84.7262 147.676C85.15 147.676 85.5398 147.575 85.9297 147.38C86.3958 147.142 86.8281 146.787 87.2095 146.32C87.9468 145.447 88.1672 143.727 88.1926 142.167C88.3875 142.939 88.557 143.735 88.7096 144.413C89.7775 149.304 90.8877 154.363 94.5575 154.363C94.6338 154.363 94.7101 154.363 94.7864 154.363C94.939 154.355 95.0915 154.321 95.2356 154.27C96.9222 153.685 97.151 151.643 97.329 150.16C97.3544 149.931 97.3798 149.727 97.4053 149.575C97.6256 148.337 98.3799 140.447 98.1596 138.93ZM43.2141 276.06C43.1887 275.882 43.1718 275.704 43.1379 275.518C42.3836 270.89 42.4259 267.738 42.4937 262.958C42.57 258.05 42.6548 251.94 41.9428 241.413C40.9851 227.175 40.7987 217.674 41.3496 211.529C41.4513 210.445 41.5869 209.275 41.731 208.029C42.1971 204.088 42.7649 199.189 42.7141 192.299C42.6632 184.858 42.8921 176.365 43.1379 168.009C43.4515 176.281 43.765 184.781 43.7057 192.299C43.6548 199.198 44.2312 204.097 44.6888 208.038C44.8329 209.275 44.977 210.453 45.0702 211.529C45.6296 217.674 45.4431 227.175 44.477 241.413C43.765 251.94 43.8583 258.05 43.9261 262.958C43.9939 267.738 44.0447 270.899 43.2904 275.518C43.2565 275.704 43.2311 275.882 43.2141 276.06ZM43.265 130.946C43.265 130.327 43.2904 129.768 43.3243 129.268C43.3243 129.768 43.3074 130.327 43.265 130.946ZM95.5407 150.77C95.4136 151.634 95.1932 152.49 94.6762 152.677H94.5575C90.2775 152.677 90.5572 137.201 87.4044 137.201C87.2773 137.201 87.1417 137.226 87.0061 137.286C86.8959 137.32 86.7942 137.362 86.7094 137.413C85.9806 137.777 86.1924 138.193 86.3535 139.201C86.5569 140.379 86.6755 144.337 85.9128 145.252C85.6839 145.524 85.4297 145.744 85.1754 145.871C85.0228 145.947 84.8703 145.99 84.7262 145.99C84.3702 145.99 84.0482 145.736 83.8363 145.117C83.8363 145.117 82.8193 137.693 82.4718 136.404C80.3699 128.548 84.5313 128.319 82.904 123.717C74.9881 98.3755 69.352 87.0695 68.7163 70.8477C68.2672 67.3135 68.1061 64.1183 68.0129 61.7029C67.8942 58.8975 67.8773 57.1516 67.6146 57.1516C67.2671 58.3212 63.8939 65.0845 63.8939 65.0845C63.6396 65.5676 63.4023 66.0931 63.1904 66.644C60.5716 73.331 60.4868 84.654 60.3343 87.6373C60.0546 93.4005 66.2077 101.291 69.9961 113.021C70.0385 113.156 70.0809 113.292 70.1232 113.428C70.6826 115.191 71.1827 117.047 71.6064 118.996C72.0641 121.098 72.4285 123.123 72.7167 125.098C74.3948 136.599 73.4032 146.371 70.7589 157.703C69.0299 165.11 63.4532 196.545 63.9193 201.986C64.3855 204.978 64.5465 212.674 64.6736 215.708C65.1906 227.692 63.5549 236.523 60.0631 252.482C58.1392 261.254 56.6984 265.441 56.8848 270.814C56.9272 272.119 57.1136 273.23 57.495 273.992C58.4697 275.942 58.1137 277.484 58.7663 279.501C59.385 281.442 60.8174 282.875 62.1819 284.841C64.894 287.426 62.504 288.994 62.504 288.994C61.9107 289.189 60.9021 289.256 58.5545 289.256C57.5035 289.256 56.5712 289.256 55.7237 289.248C55.3084 289.256 54.9101 289.248 54.5287 289.248C53.554 289.24 52.6811 289.223 51.8505 289.206C51.3759 289.189 50.9182 289.163 50.4605 289.138C49.4011 289.087 48.3332 289.011 47.0958 288.892C44.96 288.4 46.5704 282.883 46.189 281.086C45.8754 279.662 44.6295 278.959 44.8838 276.34C44.9007 276.162 44.9261 275.984 44.96 275.789C45.138 274.679 45.2736 273.653 45.3753 272.662C46.1635 265.119 44.9177 259.991 46.172 241.532C47.2992 224.827 47.2145 216.428 46.7568 211.377C46.35 206.876 45.333 201.317 45.4008 192.307C45.5448 173.06 43.2989 147.812 44.6634 134.192C44.6804 133.997 44.7058 133.811 44.7227 133.624C44.7312 133.548 44.7397 133.48 44.7482 133.404C44.7651 133.285 44.7736 133.167 44.7905 133.048C45.4516 126.861 44.5871 124.098 43.5786 124.098C42.4937 124.098 41.2479 127.361 41.6462 133.065C41.6547 133.175 41.6631 133.285 41.6716 133.404C41.6801 133.472 41.6801 133.54 41.6886 133.607C41.7055 133.802 41.714 133.98 41.731 134.175C42.6039 146.931 40.875 173.085 41.019 192.307C41.0868 201.317 40.0698 206.876 39.663 211.377C39.2053 216.428 39.129 224.827 40.2563 241.532C41.5106 260.178 40.2393 265.22 41.0699 272.899C41.1716 273.823 41.2987 274.772 41.4682 275.789C41.5784 276.467 41.5953 277.027 41.5614 277.501C41.4089 279.213 40.4851 279.908 40.2393 281.086C39.8579 282.883 41.4682 288.4 39.324 288.892C38.1629 289.002 37.1458 289.078 36.1457 289.129C35.6881 289.155 35.2304 289.18 34.7558 289.197C33.9167 289.223 33.0522 289.24 32.086 289.248H30.891C29.9926 289.256 29.001 289.256 27.8738 289.256C25.5262 289.256 24.5091 289.189 23.9159 288.994C23.9159 288.994 21.5258 287.426 24.2464 284.841C25.6024 282.875 27.0348 281.442 27.6619 279.501C28.3061 277.484 27.9586 275.942 28.9332 273.992C29.3146 273.23 29.4926 272.119 29.535 270.814C29.7214 265.441 28.2806 261.254 26.3567 252.482C22.8649 236.523 21.2292 227.692 21.7462 215.708C21.8818 212.674 22.0343 204.978 22.5005 201.986C22.9751 196.545 17.2797 165.136 15.6609 157.703C13.2454 146.6 12.3979 136.701 13.8641 125.09C13.8811 124.946 13.898 124.802 13.9235 124.657C13.9404 124.547 13.9489 124.429 13.9658 124.318C14.1947 122.606 14.4744 120.835 14.8134 118.996C14.8897 118.598 14.9659 118.208 15.0507 117.818C15.1185 117.47 15.1948 117.123 15.2795 116.775C15.2795 116.716 15.3049 116.657 15.3219 116.597C15.3982 116.25 15.4829 115.902 15.5762 115.555C15.6694 115.165 15.7711 114.775 15.8813 114.394C15.9745 114.055 16.0677 113.724 16.1609 113.402C16.2033 113.267 16.2457 113.123 16.2881 112.995C19.8901 101.189 26.3737 93.409 26.0855 87.6373C25.933 84.654 25.8482 73.3395 23.2378 66.6525C23.0259 66.0931 22.7886 65.5676 22.5344 65.0845C22.5344 65.0845 19.1612 58.3212 18.8137 57.1516C18.551 57.1516 18.5256 58.8975 18.4154 61.6944C18.3222 64.1183 18.1611 67.3135 17.7119 70.8477C17.0763 87.0695 11.7707 97.6805 3.51579 123.717C1.88853 128.319 6.05838 128.548 3.94803 136.404C3.60902 137.693 2.59197 145.117 2.59197 145.117C2.38009 145.736 2.05804 145.99 1.70208 145.99C1.55799 145.99 1.40544 145.947 1.25288 145.871C0.998626 145.744 0.744358 145.524 0.515524 145.252C-0.247253 144.337 -0.128598 140.379 0.0663338 139.201C0.23584 138.193 0.447724 137.777 -0.289627 137.413C-0.37438 137.362 -0.467614 137.32 -0.586268 137.286C-0.721873 137.226 -0.857467 137.201 -0.984596 137.201C-4.12894 137.201 -3.85773 152.677 -8.12929 152.677H-8.24794C-8.76494 152.49 -8.98529 151.626 -9.1209 150.761C-9.20565 150.202 -9.24802 149.634 -9.31583 149.278C-9.40058 148.787 -9.53619 147.592 -9.66332 146.176C-9.91758 143.447 -10.1718 139.938 -10.0617 139.176C-9.61247 136.099 -8.25642 130.675 -6.96817 127.624C-3.46787 122.174 -3.49329 107.444 -0.221824 94.1887C2.10041 84.7896 4.97354 81.8741 4.99049 72.2546C4.99049 69.6188 5.85497 48.2695 6.26178 44.4302C7.47375 33.7852 12.1267 29.2085 16.6356 26.9202C16.8135 26.8185 16.9915 26.7338 17.1695 26.6575C17.8814 26.3185 18.5934 26.0388 19.2714 25.793C19.7969 25.5981 20.3138 25.437 20.8139 25.2845C20.958 25.2421 21.1021 25.1997 21.2461 25.1658C21.7208 25.0302 22.17 24.9031 22.5937 24.7929C22.7971 24.7336 22.992 24.6827 23.1785 24.6319C23.348 24.581 23.5175 24.5387 23.6786 24.4878C23.7464 24.4709 23.8142 24.4454 23.882 24.4285C23.9667 24.403 24.0515 24.3776 24.1362 24.3522C25.7296 23.8606 30.3486 20.8264 33.2811 18.7839C34.4337 17.9787 34.7473 16.5888 34.7473 15.1819V9.07122C34.2049 8.68983 33.6794 8.29145 33.1879 7.86768C32.8149 7.54562 32.4505 7.21508 32.103 6.85912C31.925 6.68114 31.7555 6.5032 31.586 6.31674C31.4165 6.13876 31.2555 5.95228 31.0945 5.76582C30.9334 5.57937 30.7724 5.39293 30.6283 5.19799C30.4673 5.00306 30.3232 4.80812 30.1791 4.60471C30.1028 4.50301 30.0265 4.40131 29.9587 4.29961C29.8825 4.19791 29.8147 4.09616 29.7469 3.99446C29.6028 3.79105 29.4672 3.58766 29.3401 3.37578C29.0773 2.94354 28.8231 2.51131 28.5857 2.06212C28.4586 1.84176 28.3484 1.61291 28.2383 1.38408C28.1026 1.11287 27.9755 0.833191 27.8484 0.545029C27.7552 0.358574 27.6789 0.163647 27.6026 -0.0312843C27.4755 -0.31097 27.3653 -0.599121 27.2636 -0.895756C27.1958 -1.05679 27.1365 -1.21783 27.0856 -1.37886C26.9839 -1.66702 26.8822 -1.96366 26.789 -2.2603C26.5347 -3.13325 26.3144 -4.09097 26.1279 -5.09953C26.0093 -5.70127 25.8991 -6.31149 25.8058 -6.93866C25.6279 -8.0913 25.4753 -9.26091 25.3567 -10.3966C25.2973 -10.8882 25.255 -11.3712 25.2041 -11.8374C25.0854 -13.1256 25.0007 -14.3122 24.9414 -15.2784C24.9244 -15.6004 24.9075 -15.8971 24.8905 -16.1768C24.8736 -16.448 24.8566 -16.7022 24.8481 -16.9141C24.8397 -17.0243 24.8397 -17.126 24.8312 -17.2192C24.8142 -17.6854 24.8058 -17.9481 24.8058 -17.9481C24.8058 -31.4916 33.0522 -37.6956 41.3241 -37.6956H45.1041C53.3676 -37.6956 61.614 -31.4916 61.614 -17.9481C61.614 -17.9481 61.6056 -17.626 61.5801 -17.0667C61.5801 -16.9989 61.5717 -16.9226 61.5717 -16.8463C61.5632 -16.6853 61.5547 -16.5158 61.5378 -16.3208C61.5208 -16.0242 61.4954 -15.6852 61.4784 -15.3038C61.4784 -15.1343 61.4615 -14.9478 61.4445 -14.7529C61.4106 -14.2698 61.3767 -13.7359 61.3259 -13.168C61.3259 -12.9646 61.3004 -12.7612 61.275 -12.5493C61.2157 -11.8374 61.1394 -11.0831 61.0546 -10.3034C60.9953 -9.76094 60.936 -9.21006 60.8597 -8.65069C60.8174 -8.31167 60.7665 -7.97265 60.7156 -7.63364C60.6733 -7.28615 60.6224 -6.94715 60.5631 -6.60814C60.4529 -5.93011 60.3343 -5.26904 60.2071 -4.62492C60.1224 -4.20963 60.0376 -3.79433 59.9359 -3.40447C59.8427 -3.0146 59.741 -2.62473 59.6393 -2.2603C59.5291 -1.91281 59.4104 -1.56532 59.2833 -1.22631C59.2833 -1.20935 59.2748 -1.19241 59.2664 -1.17546C59.2155 -1.0229 59.1647 -0.87883 59.1053 -0.734749C58.9697 -0.370312 58.8256 -0.0228233 58.6731 0.324665C58.5714 0.561974 58.4697 0.799294 58.3595 1.02813C57.9781 1.84176 57.5544 2.61299 57.0882 3.35881C56.9611 3.57069 56.8255 3.78262 56.6814 3.98603C56.5458 4.18944 56.4102 4.39281 56.2576 4.58774C56.122 4.78268 55.978 4.96917 55.8254 5.15562C55.6728 5.35903 55.5118 5.55392 55.3423 5.74886C55.0287 6.13025 54.6897 6.49472 54.3422 6.85069C54.1388 7.04562 53.9354 7.24898 53.7235 7.43544C53.5794 7.57104 53.4354 7.70667 53.2828 7.8338C53.2743 7.8338 53.2743 7.84229 53.2658 7.85077C53.2404 7.86772 53.2235 7.88467 53.1981 7.90162C53.0201 8.05417 52.8336 8.19822 52.6556 8.3423C52.5115 8.46943 52.359 8.58812 52.198 8.6983C52.0285 8.82543 51.8589 8.95256 51.681 9.07122V15.1819C51.681 16.5888 51.9946 17.9787 53.1472 18.7839C56.0712 20.8264 60.6987 23.8606 62.2836 24.3522C62.3683 24.3776 62.4531 24.403 62.5378 24.4285C62.6056 24.4454 62.6735 24.4709 62.7413 24.4878C62.9616 24.5556 63.1904 24.6149 63.4278 24.6827C63.5888 24.7251 63.7583 24.7674 63.9278 24.8183C64.3516 24.9285 64.8007 25.0556 65.2669 25.1912C65.3771 25.2166 65.4873 25.2506 65.6059 25.2845C65.7839 25.3353 65.9619 25.3946 66.1398 25.4539C66.4365 25.5472 66.7331 25.6489 67.0467 25.7591C67.3518 25.8608 67.6654 25.9794 67.979 26.1066C68.2926 26.2252 68.6062 26.3608 68.9282 26.5049C73.6913 28.6491 78.8698 33.1072 80.158 44.4302C80.5733 48.2695 81.4293 69.6188 81.4293 72.2546C81.4463 81.8741 84.3194 84.7896 86.6416 94.1887C89.9131 107.444 89.8961 122.174 93.3964 127.624C94.6847 130.675 96.0323 136.099 96.4815 139.176C96.5916 139.938 96.3458 143.447 96.0916 146.168C95.956 147.583 95.8204 148.787 95.7356 149.278C95.6763 149.634 95.6339 150.202 95.5407 150.761V150.77Z" fill="#333333"/>
<path d="M98.1596 138.93C97.6849 135.692 96.2865 130.116 94.9559 126.963C94.9135 126.878 94.8711 126.793 94.8203 126.708C92.9981 123.878 92.176 117.784 91.2183 110.733C90.5063 105.452 89.6927 99.4688 88.2858 93.7819C87.4468 90.3833 86.5399 87.7983 85.7263 85.5185C84.277 81.4249 83.1328 78.1874 83.1244 72.2546C83.1244 69.5764 82.2599 48.1 81.8446 44.2438C80.4038 31.6494 74.3524 26.9287 69.1062 24.7336C67.3349 23.9877 65.6568 23.5301 64.2753 23.1572C63.7329 23.0131 63.2159 22.869 62.7921 22.7334C61.7412 22.4113 58.012 20.1145 54.1134 17.3939C53.9269 17.2668 53.376 16.8769 53.376 15.1819V9.93566C57.0289 7.16423 59.6817 3.23171 61.2496 -1.75177C61.2581 -1.76025 61.2581 -1.77721 61.2665 -1.79416C62.3005 -5.39617 62.826 -10.3203 63.0803 -13.7782C63.2498 -16.0835 63.3006 -17.7362 63.3091 -17.8973V-17.9481C63.3091 -19.8127 63.1565 -21.584 62.8514 -23.2621C62.8514 -23.2791 62.8514 -23.296 62.843 -23.313C62.0717 -27.6354 60.3343 -31.2967 57.69 -34.0681C54.766 -37.1277 50.9097 -38.9584 46.6805 -39.3228H46.6721C46.1551 -39.3652 45.6381 -39.3906 45.1041 -39.3906H41.3241C36.4763 -39.3906 32.0098 -37.5006 28.7383 -34.0681C25.06 -30.2119 23.1107 -24.6351 23.1107 -17.9481V-17.8973C23.1192 -17.6769 23.2124 -14.736 23.5768 -11.1339C23.8735 -8.08283 24.3651 -4.54864 25.1617 -1.79416C25.1617 -1.77721 25.1702 -1.76025 25.1702 -1.75177C26.7466 3.23171 29.3909 7.15576 33.0522 9.93566V15.1819C33.0522 16.8769 32.4929 17.2668 32.3064 17.3939C28.4162 20.1145 24.6786 22.4113 23.6362 22.7334C23.2039 22.869 22.6954 23.0131 22.153 23.1572C20.5427 23.5979 18.534 24.1403 16.4406 25.115C11.4148 27.4711 5.93126 32.3359 4.5752 44.2353C4.16839 48.0915 3.29543 69.568 3.29543 72.2546C3.28695 78.1874 2.14279 81.4249 0.693512 85.5185C-0.111643 87.7983 -1.02698 90.3833 -1.86604 93.7819C-3.26446 99.4688 -4.07808 105.452 -4.79849 110.733C-5.74772 117.784 -6.5783 123.878 -8.39202 126.708C-8.45135 126.793 -8.49373 126.878 -8.52763 126.963C-9.86673 130.116 -11.2651 135.692 -11.7398 138.93C-11.9601 140.447 -11.1974 148.337 -10.977 149.575C-10.9516 149.727 -10.9346 149.939 -10.9007 150.16C-10.7312 151.651 -10.4939 153.685 -8.81579 154.27C-8.66323 154.321 -8.51068 154.355 -8.35812 154.363C-8.28185 154.363 -8.20557 154.363 -8.12929 154.363C-4.46795 154.363 -3.35769 149.304 -2.28133 144.413C-2.13725 143.735 -1.95926 142.939 -1.77281 142.159C-1.7389 143.727 -1.51854 145.447 -0.789667 146.329C-0.408278 146.786 0.023962 147.142 0.481628 147.38C0.888444 147.575 1.29526 147.676 1.70208 147.676C2.10889 147.676 3.55816 147.532 4.19381 145.651C4.22771 145.549 4.25314 145.447 4.27009 145.337C4.65996 142.506 5.35493 137.701 5.59224 136.828C6.88896 131.98 5.98211 129.539 5.32951 127.759C4.85489 126.471 4.59216 125.768 5.11762 124.276C5.11762 124.259 5.12609 124.242 5.13457 124.225C7.26187 117.513 9.19424 111.826 10.8978 106.808C15.8897 92.1038 18.9069 83.2217 19.3985 70.9749C19.7121 68.4662 19.8901 66.1185 20.0003 64.1099C20.0003 64.0082 20.0003 63.9064 20.0172 63.8047C20.1359 64.0505 20.2545 64.2878 20.3562 64.5082C20.6274 65.0591 20.8563 65.5168 21.0173 65.8303C23.7972 71.1613 24.1955 82.1962 24.3396 86.3491C24.3566 86.9 24.3735 87.3661 24.3905 87.7136C24.5261 90.4087 22.7886 93.926 20.5935 98.3755C17.9662 103.698 14.6947 110.326 13.1437 118.682C10.6351 132.268 10.8808 143.676 14.0082 158.05C15.8558 166.559 21.1953 196.715 20.8139 201.783C20.441 204.249 20.2715 209.343 20.1443 213.08C20.1104 214.08 20.085 214.962 20.0511 215.623C19.5341 227.649 21.1529 236.608 24.7041 252.83C25.1702 254.94 25.6024 256.805 25.9923 258.44C27.2297 263.703 27.9755 266.882 27.8399 270.746C27.7891 272.263 27.5518 272.95 27.4161 273.221C26.7212 274.611 26.5771 275.832 26.4415 276.908C26.3567 277.611 26.272 278.272 26.0432 278.967C25.6872 280.086 24.9329 281.078 24.0514 282.23C23.6955 282.705 23.3226 283.188 22.9497 283.731C21.7123 284.951 21.1444 286.231 21.2631 287.544C21.4241 289.333 22.831 290.299 22.992 290.409C23.1192 290.485 23.2548 290.553 23.3904 290.596C24.1955 290.867 25.2888 290.943 27.8738 290.943C33.1455 290.943 35.5525 290.943 39.485 290.57C39.5613 290.562 39.6375 290.553 39.7053 290.536C42.5785 289.875 42.2395 286.273 41.9937 283.637C41.9259 282.858 41.8242 281.781 41.9005 281.434C41.9513 281.18 42.0954 280.9 42.2818 280.552C42.6293 279.908 43.0616 279.103 43.2141 277.916C43.3582 279.103 43.7905 279.908 44.1379 280.552C44.3244 280.9 44.4769 281.18 44.5278 281.434C44.6041 281.781 44.5024 282.858 44.4261 283.646C44.1803 286.273 43.8498 289.875 46.7144 290.536C46.7907 290.553 46.8585 290.562 46.9348 290.57C50.8673 290.943 53.2743 290.943 58.5545 290.943C61.1394 290.943 62.2243 290.867 63.0294 290.596C63.1735 290.553 63.3091 290.485 63.4362 290.409C63.5888 290.299 64.9957 289.333 65.1567 287.544C65.2754 286.231 64.7075 284.951 63.4786 283.731C63.0972 283.188 62.7328 282.705 62.3683 282.23C61.4954 281.078 60.7326 280.086 60.3766 278.967C60.1478 278.272 60.0715 277.611 59.9868 276.908C59.8512 275.832 59.6986 274.611 59.0036 273.221C58.868 272.95 58.6307 272.263 58.5799 270.746C58.4443 266.882 59.1986 263.703 60.436 258.44C60.8174 256.796 61.2581 254.94 61.7157 252.83C65.2754 236.608 66.8857 227.649 66.3687 215.623C66.3433 214.97 66.3093 214.089 66.2754 213.089C66.1483 209.351 65.9788 204.249 65.6059 201.783C65.216 196.63 70.5385 166.11 72.4116 158.076C75.3356 145.558 76.5984 134.065 73.2676 118.632C71.5471 110.656 68.4367 104.173 65.9364 98.9603C63.6735 94.2481 61.8937 90.5274 62.0293 87.7136C62.0463 87.3661 62.0632 86.9 62.0802 86.3491C62.2327 82.1962 62.6226 71.1613 65.394 65.8642C65.5551 65.5422 65.7839 65.0761 66.0551 64.5252C66.1653 64.2963 66.2839 64.059 66.4111 63.8047C66.4195 63.9064 66.4195 64.0082 66.428 64.1099C66.5382 66.1185 66.7077 68.4662 67.0213 70.9749C67.5044 83.0098 70.6572 92.3072 75.4203 106.359C77.1662 111.521 79.1495 117.36 81.2852 124.217C81.2852 124.234 81.3022 124.259 81.3107 124.276C81.8361 125.768 81.5734 126.471 81.0988 127.759C80.4377 129.539 79.5393 131.98 80.836 136.837C81.0649 137.701 81.7683 142.506 82.1582 145.337C82.1667 145.447 82.1921 145.549 82.226 145.651C82.8616 147.532 84.3024 147.676 84.7262 147.676C85.15 147.676 85.5398 147.575 85.9297 147.38C86.3958 147.142 86.8281 146.787 87.2095 146.32C87.9468 145.447 88.1672 143.727 88.1926 142.167C88.3875 142.939 88.557 143.735 88.7096 144.413C89.7775 149.304 90.8877 154.363 94.5575 154.363C94.6338 154.363 94.7101 154.363 94.7864 154.363C94.939 154.355 95.0915 154.321 95.2356 154.27C96.9222 153.685 97.151 151.643 97.329 150.16C97.3544 149.931 97.3798 149.727 97.4053 149.575C97.6256 148.337 98.3799 140.447 98.1596 138.93ZM43.2141 276.06C43.1887 275.882 43.1718 275.704 43.1379 275.518C42.3836 270.89 42.4259 267.738 42.4937 262.958C42.57 258.05 42.6548 251.94 41.9428 241.413C40.9851 227.175 40.7987 217.674 41.3496 211.529C41.4513 210.445 41.5869 209.275 41.731 208.029C42.1971 204.088 42.7649 199.189 42.7141 192.299C42.6632 184.858 42.8921 176.365 43.1379 168.009C43.4515 176.281 43.765 184.781 43.7057 192.299C43.6548 199.198 44.2312 204.097 44.6888 208.038C44.8329 209.275 44.977 210.453 45.0702 211.529C45.6296 217.674 45.4431 227.175 44.477 241.413C43.765 251.94 43.8583 258.05 43.9261 262.958C43.9939 267.738 44.0447 270.899 43.2904 275.518C43.2565 275.704 43.2311 275.882 43.2141 276.06ZM43.265 130.946C43.265 130.327 43.2904 129.768 43.3243 129.268C43.3243 129.768 43.3074 130.327 43.265 130.946ZM95.5407 150.77C95.4136 151.634 95.1932 152.49 94.6762 152.677H94.5575C90.2775 152.677 90.5572 137.201 87.4044 137.201C87.2773 137.201 87.1417 137.226 87.0061 137.286C86.8959 137.32 86.7942 137.362 86.7094 137.413C85.9806 137.777 86.1924 138.193 86.3535 139.201C86.5569 140.379 86.6755 144.337 85.9128 145.252C85.6839 145.524 85.4297 145.744 85.1754 145.871C85.0228 145.947 84.8703 145.99 84.7262 145.99C84.3702 145.99 84.0482 145.736 83.8363 145.117C83.8363 145.117 82.8193 137.693 82.4718 136.404C80.3699 128.548 84.5313 128.319 82.904 123.717C74.9881 98.3755 69.352 87.0695 68.7163 70.8477C68.2672 67.3135 68.1061 64.1183 68.0129 61.7029C67.8942 58.8975 67.8773 57.1516 67.6146 57.1516C67.2671 58.3212 63.8939 65.0845 63.8939 65.0845C63.6396 65.5676 63.4023 66.0931 63.1904 66.644C60.5716 73.331 60.4868 84.654 60.3343 87.6373C60.0546 93.4005 66.2077 101.291 69.9961 113.021C70.0385 113.156 70.0809 113.292 70.1232 113.428C70.6826 115.191 71.1827 117.047 71.6064 118.996C72.0641 121.098 72.4285 123.123 72.7167 125.098C74.3948 136.599 73.4032 146.371 70.7589 157.703C69.0299 165.11 63.4532 196.545 63.9193 201.986C64.3855 204.978 64.5465 212.674 64.6736 215.708C65.1906 227.692 63.5549 236.523 60.0631 252.482C58.1392 261.254 56.6984 265.441 56.8848 270.814C56.9272 272.119 57.1136 273.23 57.495 273.992C58.4697 275.942 58.1137 277.484 58.7663 279.501C59.385 281.442 60.8174 282.875 62.1819 284.841C64.894 287.426 62.504 288.994 62.504 288.994C61.9107 289.189 60.9021 289.256 58.5545 289.256C57.5035 289.256 56.5712 289.256 55.7237 289.248C55.3084 289.256 54.9101 289.248 54.5287 289.248C53.554 289.24 52.6811 289.223 51.8505 289.206C51.3759 289.189 50.9182 289.163 50.4605 289.138C49.4011 289.087 48.3332 289.011 47.0958 288.892C44.96 288.4 46.5704 282.883 46.189 281.086C45.8754 279.662 44.6295 278.959 44.8838 276.34C44.9007 276.162 44.9261 275.984 44.96 275.789C45.138 274.679 45.2736 273.653 45.3753 272.662C46.1635 265.119 44.9177 259.991 46.172 241.532C47.2992 224.827 47.2145 216.428 46.7568 211.377C46.35 206.876 45.333 201.317 45.4008 192.307C45.5448 173.06 43.2989 147.812 44.6634 134.192C44.6804 133.997 44.7058 133.811 44.7227 133.624C44.7312 133.548 44.7397 133.48 44.7482 133.404C44.7651 133.285 44.7736 133.167 44.7905 133.048C45.4516 126.861 44.5871 124.098 43.5786 124.098C42.4937 124.098 41.2479 127.361 41.6462 133.065C41.6547 133.175 41.6631 133.285 41.6716 133.404C41.6801 133.472 41.6801 133.54 41.6886 133.607C41.7055 133.802 41.714 133.98 41.731 134.175C42.6039 146.931 40.875 173.085 41.019 192.307C41.0868 201.317 40.0698 206.876 39.663 211.377C39.2053 216.428 39.129 224.827 40.2563 241.532C41.5106 260.178 40.2393 265.22 41.0699 272.899C41.1716 273.823 41.2987 274.772 41.4682 275.789C41.5784 276.467 41.5953 277.027 41.5614 277.501C41.4089 279.213 40.4851 279.908 40.2393 281.086C39.8579 282.883 41.4682 288.4 39.324 288.892C38.1629 289.002 37.1458 289.078 36.1457 289.129C35.6881 289.155 35.2304 289.18 34.7558 289.197C33.9167 289.223 33.0522 289.24 32.086 289.248H30.891C29.9926 289.256 29.001 289.256 27.8738 289.256C25.5262 289.256 24.5091 289.189 23.9159 288.994C23.9159 288.994 21.5258 287.426 24.2464 284.841C25.6024 282.875 27.0348 281.442 27.6619 279.501C28.3061 277.484 27.9586 275.942 28.9332 273.992C29.3146 273.23 29.4926 272.119 29.535 270.814C29.7214 265.441 28.2806 261.254 26.3567 252.482C22.8649 236.523 21.2292 227.692 21.7462 215.708C21.8818 212.674 22.0343 204.978 22.5005 201.986C22.9751 196.545 17.2797 165.136 15.6609 157.703C13.2454 146.6 12.3979 136.701 13.8641 125.09C13.8811 124.946 13.898 124.802 13.9235 124.657C13.9404 124.547 13.9489 124.429 13.9658 124.318C14.1947 122.606 14.4744 120.835 14.8134 118.996C14.8897 118.598 14.9659 118.208 15.0507 117.818C15.1185 117.47 15.1948 117.123 15.2795 116.775C15.2795 116.716 15.3049 116.657 15.3219 116.597C15.3982 116.25 15.4829 115.902 15.5762 115.555C15.6694 115.165 15.7711 114.775 15.8813 114.394C15.9745 114.055 16.0677 113.724 16.1609 113.402C16.2033 113.267 16.2457 113.123 16.2881 112.995C19.8901 101.189 26.3737 93.409 26.0855 87.6373C25.933 84.654 25.8482 73.3395 23.2378 66.6525C23.0259 66.0931 22.7886 65.5676 22.5344 65.0845C22.5344 65.0845 19.1612 58.3212 18.8137 57.1516C18.551 57.1516 18.5256 58.8975 18.4154 61.6944C18.3222 64.1183 18.1611 67.3135 17.7119 70.8477C17.0763 87.0695 11.7707 97.6805 3.51579 123.717C1.88853 128.319 6.05838 128.548 3.94803 136.404C3.60902 137.693 2.59197 145.117 2.59197 145.117C2.38009 145.736 2.05804 145.99 1.70208 145.99C1.55799 145.99 1.40544 145.947 1.25288 145.871C0.998626 145.744 0.744358 145.524 0.515524 145.252C-0.247253 144.337 -0.128598 140.379 0.0663338 139.201C0.23584 138.193 0.447724 137.777 -0.289627 137.413C-0.37438 137.362 -0.467614 137.32 -0.586268 137.286C-0.721873 137.226 -0.857467 137.201 -0.984596 137.201C-4.12894 137.201 -3.85773 152.677 -8.12929 152.677H-8.24794C-8.76494 152.49 -8.98529 151.626 -9.1209 150.761C-9.20565 150.202 -9.24802 149.634 -9.31583 149.278C-9.40058 148.787 -9.53619 147.592 -9.66332 146.176C-9.91758 143.447 -10.1718 139.938 -10.0617 139.176C-9.61247 136.099 -8.25642 130.675 -6.96817 127.624C-3.46787 122.174 -3.49329 107.444 -0.221824 94.1887C2.10041 84.7896 4.97354 81.8741 4.99049 72.2546C4.99049 69.6188 5.85497 48.2695 6.26178 44.4302C7.47375 33.7852 12.1267 29.2085 16.6356 26.9202C16.8135 26.8185 16.9915 26.7338 17.1695 26.6575C17.8814 26.3185 18.5934 26.0388 19.2714 25.793C19.7969 25.5981 20.3138 25.437 20.8139 25.2845C20.958 25.2421 21.1021 25.1997 21.2461 25.1658C21.7208 25.0302 22.17 24.9031 22.5937 24.7929C22.7971 24.7336 22.992 24.6827 23.1785 24.6319C23.348 24.581 23.5175 24.5387 23.6786 24.4878C23.7464 24.4709 23.8142 24.4454 23.882 24.4285C23.9667 24.403 24.0515 24.3776 24.1362 24.3522C25.7296 23.8606 30.3486 20.8264 33.2811 18.7839C34.4337 17.9787 34.7473 16.5888 34.7473 15.1819V9.07122C34.2049 8.68983 33.6794 8.29145 33.1879 7.86768C32.8149 7.54562 32.4505 7.21508 32.103 6.85912C31.925 6.68114 31.7555 6.5032 31.586 6.31674C31.4165 6.13876 31.2555 5.95228 31.0945 5.76582C30.9334 5.57937 30.7724 5.39293 30.6283 5.19799C30.4673 5.00306 30.3232 4.80812 30.1791 4.60471C30.1028 4.50301 30.0265 4.40131 29.9587 4.29961C29.8825 4.19791 29.8147 4.09616 29.7469 3.99446C29.6028 3.79105 29.4672 3.58766 29.3401 3.37578C29.0773 2.94354 28.8231 2.51131 28.5857 2.06212C28.4586 1.84176 28.3484 1.61291 28.2383 1.38408C28.1026 1.11287 27.9755 0.833191 27.8484 0.545029C27.7552 0.358574 27.6789 0.163647 27.6026 -0.0312843C27.4755 -0.31097 27.3653 -0.599121 27.2636 -0.895756C27.1958 -1.05679 27.1365 -1.21783 27.0856 -1.37886C26.9839 -1.66702 26.8822 -1.96366 26.789 -2.2603C26.5347 -3.13325 26.3144 -4.09097 26.1279 -5.09953C26.0093 -5.70127 25.8991 -6.31149 25.8058 -6.93866C25.6279 -8.0913 25.4753 -9.26091 25.3567 -10.3966C25.2973 -10.8882 25.255 -11.3712 25.2041 -11.8374C25.0854 -13.1256 25.0007 -14.3122 24.9414 -15.2784C24.9244 -15.6004 24.9075 -15.8971 24.8905 -16.1768C24.8736 -16.448 24.8566 -16.7022 24.8481 -16.9141C24.8397 -17.0243 24.8397 -17.126 24.8312 -17.2192C24.8142 -17.6854 24.8058 -17.9481 24.8058 -17.9481C24.8058 -31.4916 33.0522 -37.6956 41.3241 -37.6956H45.1041C53.3676 -37.6956 61.614 -31.4916 61.614 -17.9481C61.614 -17.9481 61.6056 -17.626 61.5801 -17.0667C61.5801 -16.9989 61.5717 -16.9226 61.5717 -16.8463C61.5632 -16.6853 61.5547 -16.5158 61.5378 -16.3208C61.5208 -16.0242 61.4954 -15.6852 61.4784 -15.3038C61.4784 -15.1343 61.4615 -14.9478 61.4445 -14.7529C61.4106 -14.2698 61.3767 -13.7359 61.3259 -13.168C61.3259 -12.9646 61.3004 -12.7612 61.275 -12.5493C61.2157 -11.8374 61.1394 -11.0831 61.0546 -10.3034C60.9953 -9.76094 60.936 -9.21006 60.8597 -8.65069C60.8174 -8.31167 60.7665 -7.97265 60.7156 -7.63364C60.6733 -7.28615 60.6224 -6.94715 60.5631 -6.60814C60.4529 -5.93011 60.3343 -5.26904 60.2071 -4.62492C60.1224 -4.20963 60.0376 -3.79433 59.9359 -3.40447C59.8427 -3.0146 59.741 -2.62473 59.6393 -2.2603C59.5291 -1.91281 59.4104 -1.56532 59.2833 -1.22631C59.2833 -1.20935 59.2748 -1.19241 59.2664 -1.17546C59.2155 -1.0229 59.1647 -0.87883 59.1053 -0.734749C58.9697 -0.370312 58.8256 -0.0228233 58.6731 0.324665C58.5714 0.561974 58.4697 0.799294 58.3595 1.02813C57.9781 1.84176 57.5544 2.61299 57.0882 3.35881C56.9611 3.57069 56.8255 3.78262 56.6814 3.98603C56.5458 4.18944 56.4102 4.39281 56.2576 4.58774C56.122 4.78268 55.978 4.96917 55.8254 5.15562C55.6728 5.35903 55.5118 5.55392 55.3423 5.74886C55.0287 6.13025 54.6897 6.49472 54.3422 6.85069C54.1388 7.04562 53.9354 7.24898 53.7235 7.43544C53.5794 7.57104 53.4354 7.70667 53.2828 7.8338C53.2743 7.8338 53.2743 7.84229 53.2658 7.85077C53.2404 7.86772 53.2235 7.88467 53.1981 7.90162C53.0201 8.05417 52.8336 8.19822 52.6556 8.3423C52.5115 8.46943 52.359 8.58812 52.198 8.6983C52.0285 8.82543 51.8589 8.95256 51.681 9.07122V15.1819C51.681 16.5888 51.9946 17.9787 53.1472 18.7839C56.0712 20.8264 60.6987 23.8606 62.2836 24.3522C62.3683 24.3776 62.4531 24.403 62.5378 24.4285C62.6056 24.4454 62.6735 24.4709 62.7413 24.4878C62.9616 24.5556 63.1904 24.6149 63.4278 24.6827C63.5888 24.7251 63.7583 24.7674 63.9278 24.8183C64.3516 24.9285 64.8007 25.0556 65.2669 25.1912C65.3771 25.2166 65.4873 25.2506 65.6059 25.2845C65.7839 25.3353 65.9619 25.3946 66.1398 25.4539C66.4365 25.5472 66.7331 25.6489 67.0467 25.7591C67.3518 25.8608 67.6654 25.9794 67.979 26.1066C68.2926 26.2252 68.6062 26.3608 68.9282 26.5049C73.6913 28.6491 78.8698 33.1072 80.158 44.4302C80.5733 48.2695 81.4293 69.6188 81.4293 72.2546C81.4463 81.8741 84.3194 84.7896 86.6416 94.1887C89.9131 107.444 89.8961 122.174 93.3964 127.624C94.6847 130.675 96.0323 136.099 96.4815 139.176C96.5916 139.938 96.3458 143.447 96.0916 146.168C95.956 147.583 95.8204 148.787 95.7356 149.278C95.6763 149.634 95.6339 150.202 95.5407 150.761V150.77Z" fill="black" fill-opacity="0.2"/>
<path d="M20.5429 42.7175C20.5429 42.7175 16.6527 49.6419 16.9324 55.9899C17.0171 57.9392 17.5172 59.9309 18.4156 61.6938C18.3223 64.1177 18.1613 67.3129 17.7121 70.8471C17.0765 87.0688 11.7709 97.6799 3.51597 123.716C1.88871 128.318 6.05856 128.547 3.9482 136.404C3.60919 137.692 2.59215 145.116 2.59215 145.116C2.38027 145.735 2.05822 145.989 1.70225 145.989C1.55817 145.989 1.40562 145.947 1.25306 145.871C0.998803 145.743 0.744534 145.523 0.515701 145.252C-0.247076 144.337 -0.128421 140.379 0.0665112 139.2C0.236017 138.192 0.447902 137.777 -0.289451 137.412C-0.374204 137.361 -0.467437 137.319 -0.586091 137.285C-0.721696 137.226 -0.857289 137.2 -0.984419 137.2C-4.12876 137.2 -3.85756 152.676 -8.12911 152.676H-8.24776C-8.76476 152.49 -8.98512 151.625 -9.12072 150.761C-9.08682 150.778 -9.06139 150.803 -9.02749 150.82C-8.00198 145.837 -7.70534 142.167 -6.86629 138.777C-6.62898 137.811 -6.83239 137.641 -7.26463 138.48C-7.86637 139.65 -9.03597 142.896 -9.66314 146.167C-9.9174 143.447 -10.1717 139.938 -10.0615 139.175C-9.61229 136.098 -8.25624 130.674 -6.968 127.623C-3.4677 122.174 -3.49312 107.444 -0.221646 94.1881C2.10059 84.789 4.97371 81.8735 4.99066 72.254C4.99066 69.6182 5.85515 48.2689 6.26196 44.4296C7.47393 33.7846 12.1269 29.2079 16.6357 26.9196C16.8137 26.8264 16.9917 26.7416 17.1697 26.6569C17.8816 26.3178 18.5935 26.0381 19.2716 25.7924C19.8055 25.6059 20.3225 25.4449 20.8141 25.3008C20.153 27.7332 19.9242 37.9714 20.5429 42.7175Z" fill="#FFEACA"/>
<path d="M93.2943 138.777C94.1249 142.167 94.4215 145.837 95.4555 150.82C95.4809 150.803 95.5148 150.786 95.5402 150.769C95.4131 151.634 95.1928 152.49 94.6758 152.676H94.5571C90.2771 152.676 90.5568 137.2 87.4039 137.2C87.2768 137.2 87.1412 137.226 87.0056 137.285C86.8954 137.319 86.7937 137.362 86.709 137.412C85.9801 137.777 86.192 138.192 86.353 139.201C86.5564 140.379 86.6751 144.337 85.9123 145.252C85.6835 145.523 85.4292 145.744 85.175 145.871C85.0224 145.947 84.8698 145.989 84.7258 145.989C84.3698 145.989 84.0477 145.735 83.8358 145.116C83.8358 145.116 82.8188 137.692 82.4713 136.404C80.3695 128.547 84.5308 128.318 82.9036 123.716C74.9876 98.3751 69.3515 87.069 68.7159 70.8473C68.2667 67.3131 68.1057 64.1179 68.0125 61.7024C68.9024 59.9311 69.4024 57.9394 69.4871 55.9901C69.7753 49.6421 65.8851 42.7177 65.8851 42.7177C66.4954 37.9631 66.2665 27.7164 65.6055 25.2925C65.7835 25.3433 65.9614 25.3942 66.1394 25.4535C66.436 25.5467 66.7327 25.6485 67.0463 25.7587C67.3514 25.8604 67.665 25.979 67.9785 26.1061C68.2921 26.2248 68.6057 26.3604 68.9278 26.5044C73.6909 28.6487 78.8693 33.1067 80.1576 44.4297C80.5729 48.2691 81.4289 69.6184 81.4289 72.2542C81.4458 81.8737 84.3189 84.7892 86.6412 94.1883C89.9126 107.444 89.8957 122.174 93.396 127.623C94.6842 130.675 96.0318 136.099 96.481 139.175C96.5912 139.938 96.3454 143.447 96.0911 146.167C95.464 142.896 94.2944 139.65 93.6926 138.48C93.2604 137.641 93.057 137.811 93.2943 138.777Z" fill="#FFEACA"/>
<path d="M61.4455 -14.7534C61.4116 -14.2703 61.3777 -13.7364 61.3268 -13.1686C61.3268 -12.9652 61.3014 -12.7617 61.276 -12.5499C61.2167 -11.8379 61.1404 -11.0836 61.0556 -10.3039C60.9963 -9.76148 60.937 -9.2106 60.8607 -8.65123C60.8183 -8.31222 60.7675 -7.9732 60.7166 -7.63419C60.6742 -7.2867 60.6234 -6.94769 60.5641 -6.60868C60.4539 -5.93065 60.3352 -5.26958 60.2081 -4.62546C60.1233 -4.21017 60.0386 -3.79488 59.9369 -3.40501C59.8437 -3.01515 59.742 -2.62528 59.6403 -2.26084C59.5301 -1.91335 59.4114 -1.56587 59.2843 -1.22685C59.2843 -1.2099 59.2758 -1.19296 59.2673 -1.176C59.2165 -1.02345 59.1656 -0.879377 59.1063 -0.735296C58.9707 -0.370859 58.8266 -0.0233707 58.6741 0.324118C58.5724 0.561426 58.4707 0.798748 58.3605 1.02758C57.9791 1.84121 57.5553 2.61244 57.0892 3.35826C56.9621 3.57015 56.8264 3.78207 56.6824 3.98548C56.5468 4.18889 56.4112 4.39227 56.2586 4.5872C56.123 4.78213 55.9789 4.96862 55.8264 5.15508C55.6738 5.35849 55.5128 5.55338 55.3433 5.74831C55.0297 6.1297 54.6907 6.49418 54.3432 6.85014C54.1398 7.04507 53.9364 7.24843 53.7245 7.43489C53.5804 7.57049 53.4363 7.70612 53.2838 7.83326C53.2753 7.83326 53.2753 7.84175 53.2668 7.85022C50.7073 9.45206 46.9866 11.4861 44.5203 11.4861H41.9014C39.4436 11.4861 35.7484 9.46897 33.1888 7.86714C32.8159 7.54507 32.4515 7.21453 32.104 6.85857C31.926 6.68059 31.7565 6.50265 31.587 6.31619C31.4175 6.13821 31.2565 5.95173 31.0954 5.76528C30.9344 5.57882 30.7734 5.39238 30.6293 5.19744C30.4682 5.00251 30.3242 4.80757 30.1801 4.60416C30.1038 4.50246 30.0275 4.40077 29.9597 4.29906C29.8834 4.19736 29.8156 4.09562 29.7478 3.99392C29.6038 3.79051 29.4682 3.58712 29.341 3.37523C29.0783 2.94299 28.824 2.51076 28.5867 2.06157C28.4596 1.84121 28.3494 1.61236 28.2392 1.38353C28.1036 1.11232 27.9765 0.832644 27.8494 0.544483C27.7561 0.358027 27.6799 0.163101 27.6036 -0.0318317C27.4764 -0.311518 27.3663 -0.599669 27.2646 -0.896303C27.1968 -1.05733 27.1374 -1.21837 27.0866 -1.3794C26.9849 -1.66756 26.8832 -1.96421 26.79 -2.26084C26.5357 -3.1338 26.3153 -4.09151 26.1289 -5.10008C26.0102 -5.70182 25.9 -6.31203 25.8068 -6.9392C25.6288 -8.09185 25.4763 -9.26145 25.3576 -10.3971C25.2983 -10.8887 25.2559 -11.3718 25.2051 -11.8379C42.0201 -19.4149 49.5207 -29.6191 49.5207 -29.6191C52.2922 -21.7117 57.9028 -17.0418 61.4455 -14.7534Z" fill="#FFEACA"/>
<path d="M62.5368 24.437C62.452 24.4031 62.3673 24.3776 62.2825 24.3522C60.6976 23.8606 56.0701 20.8265 53.1461 18.7839C51.9935 17.9788 51.6799 16.5888 51.6799 15.1819V10.2832C49.0271 11.9613 46.1286 12.8766 44.9929 12.8766H41.4248C40.2637 12.8766 37.4329 12.046 34.7463 10.3001V15.1819C34.7463 16.5888 34.4327 17.9788 33.28 18.7839C30.3476 20.8265 25.7285 23.8606 24.1351 24.3522C24.0504 24.3776 23.9657 24.4031 23.8809 24.4285C23.7114 25.5218 23.5927 26.6151 23.508 27.683C26.9913 27.7593 34.8056 28.0644 37.7296 29.3357C41.196 30.8358 29.9068 29.929 23.4741 28.1746C22.9317 35.3955 23.8216 41.5232 23.8216 41.5571C31.0002 49.2696 38.5093 49.6086 41.8824 59.245H44.5352C47.9084 49.6086 55.4175 49.2696 62.6046 41.5571C62.6046 41.5147 63.8081 33.1496 62.5368 24.437ZM43.2639 33.0055C42.4249 33.4801 41.7723 32.9462 41.3316 32.302C40.8739 31.6325 41.1621 31.4799 41.9248 31.7681C42.2384 31.8867 42.5435 31.9546 42.8317 31.9969C43.6368 32.1071 43.9674 32.5987 43.2639 33.0055ZM62.3079 28.0983C55.926 29.9035 44.264 30.8612 47.7897 29.3357C50.773 28.0305 58.8924 27.7423 62.2402 27.6745C63.0538 27.6576 63.0877 27.8779 62.3079 28.0983Z" fill="#FFEACA"/>
<path d="M60.3353 87.6373C60.4878 84.654 60.5726 73.331 63.1914 66.6525C62.5727 66.9491 61.9117 67.178 61.2082 67.339C61.0557 67.3729 60.3776 67.678 58.3436 67.678C54.7415 67.678 48.3766 66.7542 44.8 62.5504V62.4741H43.3253L41.6302 62.5504C38.0452 66.7542 31.6802 67.678 28.0782 67.678C26.0441 67.678 25.3661 67.3729 25.2136 67.339C24.5101 67.178 23.8575 66.9491 23.2388 66.6525C25.8492 73.3395 25.934 84.654 26.0865 87.6373C26.3747 93.409 19.8911 101.189 16.2891 112.995C16.8823 113.089 17.5858 113.199 18.3909 113.326C23.5439 114.157 33.1465 115.708 43.2151 115.708C53.2838 115.708 62.8778 114.157 68.0393 113.326C68.7682 113.207 69.4293 113.106 69.9971 113.021C66.2086 101.291 60.0556 93.4005 60.3353 87.6373ZM39.325 74.4328C38.3503 75.3482 36.5281 77.2805 35.189 80.0011C35.028 80.3401 34.9178 80.3825 34.833 80.3825C34.7822 80.3825 34.7398 80.3655 34.7059 80.3231C34.6635 80.2723 34.6127 80.1706 34.672 79.8485C34.9348 78.3738 35.8501 75.6617 39.0453 74.0091C39.2741 73.8904 39.3673 73.8734 39.4182 73.8734C39.4945 73.8734 39.5623 73.9158 39.5877 73.9751C39.6301 74.0853 39.5538 74.2125 39.325 74.4328ZM42.6134 76.077C42.7151 74.9498 42.9015 74.9583 43.0032 76.077C43.8677 85.8745 43.4694 91.5699 43.1049 94.2905C42.9524 95.4092 42.5032 95.4092 42.3507 94.2905C41.5879 88.8069 42.2405 80.0181 42.6134 76.077ZM42.7574 103.529C41.8252 103.529 41.0624 102.961 41.0624 102.257C41.0624 101.554 41.8252 100.986 42.7574 100.986C43.6897 100.986 44.4525 101.554 44.4525 102.257C44.4525 102.961 43.6982 103.529 42.7574 103.529ZM50.809 80.3231C50.809 80.3231 50.7327 80.3825 50.6819 80.3825C50.5971 80.3825 50.4869 80.3401 50.3259 80.0011C48.9953 77.2805 47.1646 75.3482 46.1984 74.4328C45.9611 74.2125 45.8933 74.0853 45.9357 73.9751C45.9611 73.9158 46.0204 73.8734 46.0967 73.8734C46.1476 73.8734 46.2493 73.8904 46.4781 74.0091C49.6733 75.6617 50.5802 78.3738 50.8429 79.8485C50.9022 80.1706 50.8598 80.2723 50.809 80.3231Z" fill="#FFEACA"/>
<path d="M64.3885 -29.8862C64.3885 -29.8862 63.8012 -29.6465 62.7644 -29.3529C62.255 -29.2031 61.6377 -29.0413 60.9186 -28.8854C56.7954 -27.9985 49.526 -27.3333 41.9749 -30.965C41.9749 -30.965 43.8866 -18.4457 37.3483 -1.20401C37.1445 -0.652654 36.9288 -0.101298 36.7011 0.450054C36.6891 0.474025 36.6831 0.503993 36.6711 0.527965C36.6711 0.527965 15.9954 -14.4544 24.3855 -27.3392C26.7348 -30.947 29.7073 -33.8356 33.0993 -35.8133L33.1053 -35.8193C39.5956 -39.6128 47.6382 -40.0923 55.8545 -35.9272C55.8725 -35.9212 55.8845 -35.9092 55.8965 -35.8972C58.7311 -34.4649 61.5778 -32.4812 64.3885 -29.8862Z" fill="#333333"/>
<path d="M64.3885 -29.8862C64.3885 -29.8862 63.8012 -29.6465 62.7644 -29.3529C62.255 -29.2031 61.6377 -29.0413 60.9186 -28.8854C56.7954 -27.9985 49.526 -27.3333 41.9749 -30.965C41.9749 -30.965 43.8866 -18.4457 37.3483 -1.20401C37.1445 -0.652654 36.9288 -0.101298 36.7011 0.450054C36.6891 0.474025 36.6831 0.503993 36.6711 0.527965C36.6711 0.527965 15.9954 -14.4544 24.3855 -27.3392C26.7348 -30.947 29.7073 -33.8356 33.0993 -35.8133L33.1053 -35.8193C39.5956 -39.6128 47.6382 -40.0923 55.8545 -35.9272C55.8725 -35.9212 55.8845 -35.9092 55.8965 -35.8972C58.7311 -34.4649 61.5778 -32.4812 64.3885 -29.8862Z" fill="black" fill-opacity="0.2"/>
<path d="M69.4877 55.9902C69.403 57.9396 68.903 59.9312 68.0131 61.6941C67.5808 62.5755 67.0468 63.3891 66.4281 64.118C66.3095 64.2621 66.1824 64.3978 66.0553 64.5334C65.2416 65.3978 64.2839 66.1182 63.1906 66.6437C62.5719 66.9488 61.9108 67.1777 61.2074 67.3387C61.0548 67.3726 60.3768 67.6777 58.3427 67.6777C54.7407 67.6777 48.3757 66.7539 44.7992 62.5501V62.4738H43.3245L41.6294 62.5501C38.0444 66.7539 31.6794 67.6777 28.0774 67.6777C26.0433 67.6777 25.3653 67.3726 25.2127 67.3387C24.5093 67.1777 23.8567 66.9488 23.238 66.6522C22.1362 66.1182 21.1785 65.3894 20.3564 64.5164C20.2377 64.3893 20.1191 64.2536 20.0004 64.118C19.3732 63.3891 18.8478 62.5755 18.4155 61.7026C17.5172 59.9312 17.0171 57.9396 16.9324 55.9902C16.6527 49.6422 20.5428 42.7179 20.5428 42.7179C19.9241 37.9717 20.153 27.7335 20.814 25.3011V25.2842C20.8479 25.174 20.8734 25.0808 20.9073 25.0045C21.2548 24.1909 24.0601 23.2162 23.9245 24.0976C23.9075 24.2078 23.8906 24.318 23.8821 24.4282C23.7126 25.5215 23.5939 26.6148 23.5092 27.6827C23.4922 27.8437 23.4838 28.0132 23.4753 28.1743C22.9329 35.3952 23.8228 41.5229 23.8228 41.5568C31.0014 49.2693 38.5105 49.6083 41.8837 59.2447H44.5364C47.9096 49.6083 55.4187 49.2693 62.6058 41.5568C62.6058 41.5144 63.8093 33.1493 62.538 24.4367C62.538 24.318 62.5126 24.2078 62.4956 24.0976C62.36 23.2162 65.1653 24.1909 65.5128 25.0045C65.5467 25.0808 65.5722 25.174 65.6061 25.2842C66.2671 27.7166 66.496 37.9632 65.8857 42.7179C65.8857 42.7179 69.7759 49.6422 69.4877 55.9902Z" fill="#333333"/>
<path d="M69.4877 55.9902C69.403 57.9396 68.903 59.9312 68.0131 61.6941C67.5808 62.5755 67.0468 63.3891 66.4281 64.118C66.3095 64.2621 66.1824 64.3978 66.0553 64.5334C65.2416 65.3978 64.2839 66.1182 63.1906 66.6437C62.5719 66.9488 61.9108 67.1777 61.2074 67.3387C61.0548 67.3726 60.3768 67.6777 58.3427 67.6777C54.7407 67.6777 48.3757 66.7539 44.7992 62.5501V62.4738H43.3245L41.6294 62.5501C38.0444 66.7539 31.6794 67.6777 28.0774 67.6777C26.0433 67.6777 25.3653 67.3726 25.2127 67.3387C24.5093 67.1777 23.8567 66.9488 23.238 66.6522C22.1362 66.1182 21.1785 65.3894 20.3564 64.5164C20.2377 64.3893 20.1191 64.2536 20.0004 64.118C19.3732 63.3891 18.8478 62.5755 18.4155 61.7026C17.5172 59.9312 17.0171 57.9396 16.9324 55.9902C16.6527 49.6422 20.5428 42.7179 20.5428 42.7179C19.9241 37.9717 20.153 27.7335 20.814 25.3011V25.2842C20.8479 25.174 20.8734 25.0808 20.9073 25.0045C21.2548 24.1909 24.0601 23.2162 23.9245 24.0976C23.9075 24.2078 23.8906 24.318 23.8821 24.4282C23.7126 25.5215 23.5939 26.6148 23.5092 27.6827C23.4922 27.8437 23.4838 28.0132 23.4753 28.1743C22.9329 35.3952 23.8228 41.5229 23.8228 41.5568C31.0014 49.2693 38.5105 49.6083 41.8837 59.2447H44.5364C47.9096 49.6083 55.4187 49.2693 62.6058 41.5568C62.6058 41.5144 63.8093 33.1493 62.538 24.4367C62.538 24.318 62.5126 24.2078 62.4956 24.0976C62.36 23.2162 65.1653 24.1909 65.5128 25.0045C65.5467 25.0808 65.5722 25.174 65.6061 25.2842C66.2671 27.7166 66.496 37.9632 65.8857 42.7179C65.8857 42.7179 69.7759 49.6422 69.4877 55.9902Z" fill="black" fill-opacity="0.2"/>
<path d="M69.1065 24.7331C69.0471 25.3942 68.9878 25.979 68.9285 26.5044C68.6064 26.3604 68.2928 26.2248 67.9792 26.1061C67.6657 25.979 67.3521 25.8604 67.047 25.7587C66.7334 25.6485 66.4367 25.5467 66.1401 25.4535C65.9621 25.3942 65.7842 25.3433 65.6062 25.2925C65.496 25.2586 65.3773 25.2247 65.2671 25.1908C64.801 25.0552 64.3518 24.928 63.9281 24.8179C63.7585 24.767 63.589 24.7246 63.428 24.6823C63.1907 24.6145 62.9619 24.5552 62.7415 24.4874C62.6737 24.4704 62.6059 24.4535 62.5381 24.4365C62.4533 24.4026 62.3686 24.3771 62.2838 24.3517C60.699 23.8602 56.0714 20.826 53.1475 18.7834C51.9948 17.9783 51.6812 16.5883 51.6812 15.1814V9.07077C51.8592 8.95211 52.0287 8.82498 52.1982 8.69785C52.3593 8.58767 52.5118 8.46898 52.6559 8.34185C52.8423 8.20625 53.0203 8.05373 53.1983 7.90117C53.2237 7.88422 53.2407 7.86727 53.2661 7.85032C53.2661 7.85032 53.2661 7.83335 53.2831 7.83335C53.4356 7.70622 53.5797 7.57059 53.7238 7.43499C53.9357 7.24853 54.1391 7.04517 54.3425 6.85024C54.69 6.49428 55.029 6.1298 55.3426 5.74841C55.5121 5.55348 55.6731 5.35859 55.8257 5.15518C55.9782 4.96872 56.1223 4.78223 56.2579 4.5873C56.4104 4.39236 56.546 4.18899 56.6816 3.98558C56.8257 3.78217 56.9613 3.57025 57.0885 3.35836C57.5546 2.61254 57.9784 1.84131 58.3598 1.02768C58.4699 0.798847 58.5716 0.561523 58.6734 0.324215C58.8259 -0.0232735 58.97 -0.370758 59.1056 -0.735199C59.1649 -0.87928 59.2158 -1.02335 59.2666 -1.1759C59.2751 -1.19286 59.2836 -1.2098 59.2836 -1.22675C59.4107 -1.56577 59.5294 -1.91325 59.6395 -2.26074C59.7413 -2.62518 59.843 -3.01505 59.9362 -3.40491C60.0379 -3.79478 60.1226 -4.21007 60.2074 -4.62536C60.3345 -5.26949 60.4532 -5.93056 60.5634 -6.60858C60.6227 -6.94759 60.6735 -7.2866 60.7159 -7.63409C60.7668 -7.9731 60.8176 -8.31212 60.86 -8.65113C60.9363 -9.2105 60.9956 -9.76138 61.0549 -10.3038C61.1397 -11.0835 61.216 -11.8378 61.2753 -12.5498C61.3007 -12.7616 61.3176 -12.9651 61.3261 -13.1685C61.377 -13.7363 61.4109 -14.2702 61.4448 -14.7533C61.4617 -14.9483 61.4702 -15.1347 61.4787 -15.3042C61.5041 -15.6771 61.5211 -16.0162 61.538 -16.3213C61.555 -16.5162 61.5634 -16.6857 61.5719 -16.8467C61.5719 -16.923 61.5804 -16.9993 61.5804 -17.0671C61.6058 -17.6265 61.6143 -17.9486 61.6143 -17.9486C61.6143 -31.4921 53.3678 -37.696 45.1044 -37.696H41.3244C33.0525 -37.696 24.806 -31.4921 24.806 -17.9486C24.806 -17.9486 24.8145 -17.6858 24.8314 -17.2197C24.8399 -17.1264 24.8399 -17.0247 24.8484 -16.9146C24.8569 -16.7027 24.8738 -16.4484 24.8908 -16.1772C24.8993 -15.906 24.9162 -15.6009 24.9416 -15.2788C25.001 -14.3126 25.0857 -13.1261 25.2044 -11.8463C25.2552 -11.3717 25.2976 -10.8886 25.3569 -10.397C25.4756 -9.26135 25.6281 -8.09175 25.8061 -6.93911C25.8993 -6.31193 26.0095 -5.70173 26.1282 -5.09998C26.3146 -4.09142 26.535 -3.1337 26.7892 -2.26074C26.8825 -1.96411 26.9842 -1.66747 27.0859 -1.3793C27.1367 -1.21827 27.1961 -1.05724 27.2639 -0.896206C27.3656 -0.599567 27.4757 -0.311417 27.6029 -0.0317345C27.6791 0.1632 27.7554 0.358124 27.8487 0.544582C27.9673 0.832741 28.1029 1.11242 28.2385 1.38363C28.3487 1.61246 28.4589 1.84131 28.586 2.06167C28.8233 2.51086 29.0776 2.94309 29.3403 3.37533C29.4674 3.58722 29.603 3.79061 29.7471 3.99401C29.8149 4.09572 29.8827 4.19746 29.959 4.29916C30.0268 4.40087 30.1031 4.50256 30.1794 4.60426C30.3234 4.80767 30.4675 5.00261 30.6286 5.19754C30.7726 5.39248 30.9337 5.57892 31.0947 5.76538C31.2473 5.95183 31.4168 6.13831 31.5863 6.31629C31.7473 6.50275 31.9253 6.68917 32.1032 6.85867C32.4507 7.21463 32.8152 7.54517 33.1881 7.86724C33.6797 8.291 34.2051 8.68938 34.7476 9.07077V15.1814C34.7476 16.5883 34.434 17.9783 33.2813 18.7834C30.3489 20.826 25.7298 23.8602 24.1365 24.3517C24.0517 24.3771 23.967 24.4026 23.8822 24.428C23.8144 24.445 23.7466 24.4704 23.6788 24.4874C23.5178 24.5382 23.3483 24.5806 23.1788 24.6314C22.9923 24.6823 22.7974 24.7331 22.594 24.7924C22.1702 24.9026 21.721 25.0298 21.2464 25.1654C21.1023 25.2077 20.9582 25.2501 20.8141 25.2925C20.3226 25.445 19.8056 25.6061 19.2716 25.7925C18.5936 26.0383 17.8817 26.318 17.1698 26.657C16.9918 26.7418 16.8138 26.8265 16.6358 26.9198C16.568 26.3943 16.5087 25.801 16.4409 25.1145C16.0087 20.4446 15.6018 11.4354 16.0849 -9.40542C16.9155 -46.0611 42.7567 -43.0948 42.7567 -43.0948C42.7567 -43.0948 68.5979 -46.0611 69.437 -9.40542C69.8947 10.9438 69.5217 19.9191 69.1065 24.7331Z" fill="#333333"/>
<path d="M69.1065 24.7331C69.0471 25.3942 68.9878 25.979 68.9285 26.5044C68.6064 26.3604 68.2928 26.2248 67.9792 26.1061C67.6657 25.979 67.3521 25.8604 67.047 25.7587C66.7334 25.6485 66.4367 25.5467 66.1401 25.4535C65.9621 25.3942 65.7842 25.3433 65.6062 25.2925C65.496 25.2586 65.3773 25.2247 65.2671 25.1908C64.801 25.0552 64.3518 24.928 63.9281 24.8179C63.7585 24.767 63.589 24.7246 63.428 24.6823C63.1907 24.6145 62.9619 24.5552 62.7415 24.4874C62.6737 24.4704 62.6059 24.4535 62.5381 24.4365C62.4533 24.4026 62.3686 24.3771 62.2838 24.3517C60.699 23.8602 56.0714 20.826 53.1475 18.7834C51.9948 17.9783 51.6812 16.5883 51.6812 15.1814V9.07077C51.8592 8.95211 52.0287 8.82498 52.1982 8.69785C52.3593 8.58767 52.5118 8.46898 52.6559 8.34185C52.8423 8.20625 53.0203 8.05373 53.1983 7.90117C53.2237 7.88422 53.2407 7.86727 53.2661 7.85032C53.2661 7.85032 53.2661 7.83335 53.2831 7.83335C53.4356 7.70622 53.5797 7.57059 53.7238 7.43499C53.9357 7.24853 54.1391 7.04517 54.3425 6.85024C54.69 6.49428 55.029 6.1298 55.3426 5.74841C55.5121 5.55348 55.6731 5.35859 55.8257 5.15518C55.9782 4.96872 56.1223 4.78223 56.2579 4.5873C56.4104 4.39236 56.546 4.18899 56.6816 3.98558C56.8257 3.78217 56.9613 3.57025 57.0885 3.35836C57.5546 2.61254 57.9784 1.84131 58.3598 1.02768C58.4699 0.798847 58.5716 0.561523 58.6734 0.324215C58.8259 -0.0232735 58.97 -0.370758 59.1056 -0.735199C59.1649 -0.87928 59.2158 -1.02335 59.2666 -1.1759C59.2751 -1.19286 59.2836 -1.2098 59.2836 -1.22675C59.4107 -1.56577 59.5294 -1.91325 59.6395 -2.26074C59.7413 -2.62518 59.843 -3.01505 59.9362 -3.40491C60.0379 -3.79478 60.1226 -4.21007 60.2074 -4.62536C60.3345 -5.26949 60.4532 -5.93056 60.5634 -6.60858C60.6227 -6.94759 60.6735 -7.2866 60.7159 -7.63409C60.7668 -7.9731 60.8176 -8.31212 60.86 -8.65113C60.9363 -9.2105 60.9956 -9.76138 61.0549 -10.3038C61.1397 -11.0835 61.216 -11.8378 61.2753 -12.5498C61.3007 -12.7616 61.3176 -12.9651 61.3261 -13.1685C61.377 -13.7363 61.4109 -14.2702 61.4448 -14.7533C61.4617 -14.9483 61.4702 -15.1347 61.4787 -15.3042C61.5041 -15.6771 61.5211 -16.0162 61.538 -16.3213C61.555 -16.5162 61.5634 -16.6857 61.5719 -16.8467C61.5719 -16.923 61.5804 -16.9993 61.5804 -17.0671C61.6058 -17.6265 61.6143 -17.9486 61.6143 -17.9486C61.6143 -31.4921 53.3678 -37.696 45.1044 -37.696H41.3244C33.0525 -37.696 24.806 -31.4921 24.806 -17.9486C24.806 -17.9486 24.8145 -17.6858 24.8314 -17.2197C24.8399 -17.1264 24.8399 -17.0247 24.8484 -16.9146C24.8569 -16.7027 24.8738 -16.4484 24.8908 -16.1772C24.8993 -15.906 24.9162 -15.6009 24.9416 -15.2788C25.001 -14.3126 25.0857 -13.1261 25.2044 -11.8463C25.2552 -11.3717 25.2976 -10.8886 25.3569 -10.397C25.4756 -9.26135 25.6281 -8.09175 25.8061 -6.93911C25.8993 -6.31193 26.0095 -5.70173 26.1282 -5.09998C26.3146 -4.09142 26.535 -3.1337 26.7892 -2.26074C26.8825 -1.96411 26.9842 -1.66747 27.0859 -1.3793C27.1367 -1.21827 27.1961 -1.05724 27.2639 -0.896206C27.3656 -0.599567 27.4757 -0.311417 27.6029 -0.0317345C27.6791 0.1632 27.7554 0.358124 27.8487 0.544582C27.9673 0.832741 28.1029 1.11242 28.2385 1.38363C28.3487 1.61246 28.4589 1.84131 28.586 2.06167C28.8233 2.51086 29.0776 2.94309 29.3403 3.37533C29.4674 3.58722 29.603 3.79061 29.7471 3.99401C29.8149 4.09572 29.8827 4.19746 29.959 4.29916C30.0268 4.40087 30.1031 4.50256 30.1794 4.60426C30.3234 4.80767 30.4675 5.00261 30.6286 5.19754C30.7726 5.39248 30.9337 5.57892 31.0947 5.76538C31.2473 5.95183 31.4168 6.13831 31.5863 6.31629C31.7473 6.50275 31.9253 6.68917 32.1032 6.85867C32.4507 7.21463 32.8152 7.54517 33.1881 7.86724C33.6797 8.291 34.2051 8.68938 34.7476 9.07077V15.1814C34.7476 16.5883 34.434 17.9783 33.2813 18.7834C30.3489 20.826 25.7298 23.8602 24.1365 24.3517C24.0517 24.3771 23.967 24.4026 23.8822 24.428C23.8144 24.445 23.7466 24.4704 23.6788 24.4874C23.5178 24.5382 23.3483 24.5806 23.1788 24.6314C22.9923 24.6823 22.7974 24.7331 22.594 24.7924C22.1702 24.9026 21.721 25.0298 21.2464 25.1654C21.1023 25.2077 20.9582 25.2501 20.8141 25.2925C20.3226 25.445 19.8056 25.6061 19.2716 25.7925C18.5936 26.0383 17.8817 26.318 17.1698 26.657C16.9918 26.7418 16.8138 26.8265 16.6358 26.9198C16.568 26.3943 16.5087 25.801 16.4409 25.1145C16.0087 20.4446 15.6018 11.4354 16.0849 -9.40542C16.9155 -46.0611 42.7567 -43.0948 42.7567 -43.0948C42.7567 -43.0948 68.5979 -46.0611 69.437 -9.40542C69.8947 10.9438 69.5217 19.9191 69.1065 24.7331Z" fill="black" fill-opacity="0.2"/>
</g>
<defs>
<clipPath id="clip0_8985_53452">
<rect width="85" height="80" fill="white"/>
</clipPath>
</defs>
</svg>
