<svg width="85" height="80" viewBox="0 0 85 80" fill="none" xmlns="http://www.w3.org/2000/svg">
<g clip-path="url(#clip0_8984_53052)">
<path d="M56.0886 3.98682C55.6508 4.6735 54.9727 5.30867 54.1401 5.89235C51.1016 8.00389 46.1489 9.31716 44.6039 9.31716H40.9302C39.4281 9.31716 34.69 8.07256 31.6429 6.05544C30.7073 5.43743 29.9348 4.75075 29.4541 3.9954C29.5485 4.03832 30.3468 4.43316 31.5227 4.96533C34.1235 6.1241 38.5783 7.90947 41.4194 7.90947H44.1232C47.2476 7.90947 52.3376 5.74643 54.7409 4.63058C55.5735 4.24432 56.0886 3.98682 56.0886 3.98682Z" fill="#DFCBAD"/>
<path d="M19.8468 22.8102C18.937 22.5527 18.9799 22.2952 19.9327 22.3123C23.8381 22.3896 33.3229 22.7329 36.8077 24.2522C40.9192 26.0376 27.3058 24.9131 19.8468 22.8102Z" fill="#DFCBAD"/>
<path d="M36.3187 65.3844C31.306 71.1096 29.04 76.9978 28.173 79.796C27.8984 80.7059 27.7181 80.6801 27.7782 79.736C28.3704 70.9722 33.4089 66.6204 35.9754 64.9552C36.7736 64.4402 36.9453 64.6719 36.3187 65.3844Z" fill="#DFCBAD"/>
<path d="M43.1249 54.6971C42.9962 55.6413 42.6099 55.6413 42.4726 54.7057C41.6658 49.3839 42.3524 42.2768 42.7043 38.5773C42.7902 37.6331 42.9619 37.6331 43.0391 38.5773C43.9232 48.3453 43.4854 52.1735 43.1249 54.6971Z" fill="#DFCBAD"/>
<path d="M77.9391 52.8267C76.6688 54.7923 75.2868 57.8652 75.1495 58.1227C75.098 58.2171 75.0551 58.3029 74.9864 58.3888C74.0766 59.951 72.5659 60.9552 70.7805 61.5732C66.257 63.144 59.9654 62.2084 56.9955 61.6162C56.0599 61.4273 56.0857 61.2557 57.0384 61.2642C64.4803 61.3415 68.3943 60.7836 71.1582 59.5132C72.0165 59.0239 73.1925 58.3029 74.1023 56.1399C74.9521 54.097 76.3598 52.8953 77.4499 52.2172C78.2567 51.7194 78.4541 52.0284 77.9391 52.8267Z" fill="#DFCBAD"/>
<path d="M7.46909 52.8267C8.73944 54.7923 10.1214 57.8652 10.2587 58.1227C10.3102 58.2171 10.3531 58.3029 10.4218 58.3888C11.3316 59.951 12.8423 60.9552 14.6277 61.5732C19.1512 63.144 25.4428 62.2084 28.4127 61.6162C29.3483 61.4273 29.3225 61.2557 28.3698 61.2642C20.9279 61.3415 17.0139 60.7836 14.25 59.5132C13.3917 59.0239 12.2157 58.3029 11.3059 56.1399C10.4561 54.097 9.04842 52.8953 7.95832 52.2172C7.15148 51.7194 6.95408 52.0284 7.46909 52.8267Z" fill="#DFCBAD"/>
<path d="M65.52 22.8102C58.0696 24.9131 44.4477 26.0376 48.5591 24.2522C52.044 22.7329 61.5287 22.3896 65.4342 22.3123C66.387 22.2952 66.4299 22.5527 65.52 22.8102Z" fill="#DFCBAD"/>
<path d="M58.0363 79.8127C57.0578 76.9801 54.603 70.9459 49.9336 65.4096C49.3242 64.68 49.5044 64.4397 50.3027 64.9547C52.8691 66.6199 57.9076 70.9717 58.4999 79.7354C58.5599 80.6796 58.3454 80.7139 58.0363 79.8127Z" fill="#DFCBAD"/>
<path d="M43.2722 28.535C42.2937 29.0929 41.5383 28.4663 41.0233 27.7196C40.4912 26.9385 40.8259 26.7582 41.7186 27.093C42.0791 27.2303 42.4396 27.3161 42.7743 27.3591C43.7185 27.4878 44.1048 28.0629 43.2722 28.535Z" fill="#DFCBAD"/>
<path d="M51.281 74.8176C49.4098 75.1438 47.3154 75.2983 45.2296 75.3498C44.2855 75.3669 43.5301 76.1309 43.5387 77.0836C43.573 79.6415 43.5645 82.3024 43.5387 84.929C43.5215 85.8817 44.2855 86.6542 45.2296 86.68C46.6545 86.7143 47.8133 86.8001 48.6716 86.8774C49.6244 86.9632 49.633 87.2465 48.6888 87.3752C47.5901 87.5297 46.4142 87.6156 45.2125 87.6585C44.2683 87.6842 43.4786 88.4568 43.4615 89.4009C43.307 96.7227 43.1181 96.9973 42.8692 97.4694C42.2684 97.8299 42.2254 94.2163 42.1568 89.3924C42.1396 88.4396 41.3585 87.6499 40.4057 87.6156C38.9122 87.5469 37.5818 87.4439 36.6033 87.3495C35.6591 87.2722 35.6591 87.0834 36.6033 86.989C37.9509 86.8602 39.2126 86.7744 40.3972 86.7229C41.3499 86.68 42.1138 85.8989 42.1053 84.9461C42.0881 81.9762 42.1053 79.3497 42.1482 77.0665C42.1654 76.1223 41.4186 75.3326 40.4658 75.2983C37.8307 75.1867 35.5046 74.9721 34.0197 74.8176C33.0755 74.7146 33.0755 74.5086 34.0197 74.397C36.3544 74.1309 38.526 73.9764 40.5087 73.8992C41.4615 73.8563 42.2512 73.0751 42.2941 72.1224C42.4057 69.1782 42.5602 67.1268 42.6718 65.8307C42.7576 64.8865 42.9465 64.8865 43.0409 65.8307C43.2211 67.6847 43.3413 69.8134 43.4271 72.1138C43.4614 73.058 44.2511 73.8305 45.1953 73.8477C47.8562 73.8992 49.9334 74.0708 51.2638 74.2253C52.208 74.3283 52.2166 74.6545 51.281 74.8176Z" fill="#DFCBAD"/>
<path d="M106.73 98.3275C105.854 93.6324 104.438 90.4479 103.073 87.375C101.622 84.1218 100.258 81.049 99.6482 76.328C99.4851 75.0491 99.3993 73.7702 99.3135 72.4054C99.2276 71.1264 99.1504 69.8046 98.9873 68.4913L98.807 67.015C98.3349 63.0666 97.6912 58.5173 96.7127 55.1011C95.7513 51.702 93.451 45.8395 93.1076 44.7151C92.9875 43.728 92.9188 42.7409 92.8501 41.6937C92.6699 39.0414 92.481 36.2947 91.3823 33.6338C89.8717 29.96 87.3996 26.8271 84.2323 24.5868C79.7003 21.368 73.2455 20.1234 71.546 19.8401C66.0869 16.0891 59.0914 12.8703 55.8554 11.7716V5.94345C59.4863 3.19674 60.3703 -0.768833 61.1429 -5.32666C63.6921 -6.27085 65.7522 -8.87165 66.353 -12.0819C66.9967 -15.5582 65.7951 -18.88 63.5205 -20.5795C63.2973 -20.7512 63.0655 -20.8971 62.8252 -21.0344L62.9797 -23.5923V-23.6953C62.9797 -35.9525 53.1602 -42.6562 43.4266 -42.9653C43.3579 -42.9653 43.2721 -42.9824 43.1863 -42.9824H42.594C42.5082 -42.9824 42.4309 -42.9738 42.3623 -42.9653C33.4441 -42.682 24.4743 -37.0426 23.0237 -26.6995V-26.6738C22.8778 -25.721 22.8092 -24.7253 22.8092 -23.6953V-23.5923L22.9636 -21.0344C20.2341 -19.5238 18.7234 -15.8929 19.4359 -12.0819C20.0281 -8.87165 22.0881 -6.27085 24.646 -5.32666C25.4185 -0.768833 26.3026 3.19674 29.9248 5.94345V11.7716C26.603 12.9047 19.3329 16.278 14.2343 19.8401C12.5176 20.1234 6.08 21.368 1.54794 24.5868C-1.61077 26.8271 -4.08281 29.96 -5.60208 33.6338C-6.70076 36.2947 -6.88101 39.0414 -7.06126 41.6937C-7.13851 42.7409 -7.20718 43.728 -7.31877 44.7151C-7.66211 45.8395 -9.96248 51.702 -10.9324 55.1011C-11.9023 58.5173 -12.5547 63.0666 -13.0268 67.015L-13.1984 68.4827C-13.3615 69.8046 -13.4474 71.1264 -13.5332 72.4054C-13.619 73.7702 -13.6963 75.0491 -13.8679 76.328C-14.4774 81.049 -15.8421 84.1218 -17.2842 87.375C-18.6575 90.4479 -20.0652 93.6324 -20.9493 98.3189C-23.078 109.726 -25.2496 123.855 -23.1381 138.644C-23.0437 139.279 -22.9836 139.949 -22.9063 140.661C-22.6231 143.459 -22.2711 146.936 -20.151 151.09C-20.1424 151.107 -20.1253 151.125 -20.1167 151.142C-13.7392 162.592 -11.4045 162.592 -10.632 162.592C-10.4689 162.592 -10.3058 162.575 -10.1513 162.541C-9.20713 162.335 -8.44321 161.802 -7.9282 160.987C-6.4776 158.652 -7.49902 154.489 -8.58054 150.086C-8.83804 149.039 -9.16421 147.717 -9.39596 146.55C-8.63204 147.906 -7.46469 149.562 -6.08275 150.069C-5.49049 150.283 -4.9154 150.395 -4.39181 150.395C-3.50771 150.395 -2.74379 150.069 -2.23737 149.477C-1.87686 149.047 -1.49061 148.301 -1.68803 147.133C-1.68803 147.099 -1.69661 147.065 -1.7052 147.03C-1.76528 146.764 -3.21588 140.361 -3.53346 139.065C-4.68365 134.387 -6.38317 132.507 -7.62777 131.142C-8.53762 130.146 -8.87238 129.769 -8.85521 128.567C-8.7608 124.396 -6.42609 120.25 -3.95406 114.945C-1.29319 109.237 1.4621 103.34 2.08869 97.2889C2.47494 93.598 3.82255 85.727 4.06289 84.3278C4.58648 83.1691 5.16157 81.6069 5.77958 79.9589C6.36325 78.3795 6.96409 76.7486 7.45335 75.6757C9.95971 70.1737 11.1786 65.1008 11.9082 61.5559C11.9425 61.367 11.9854 61.1782 12.0283 60.9894L12.5691 61.5301C13.1699 62.1224 13.745 62.6889 14.2085 63.2983C15.4016 64.8691 15.6677 65.6244 15.6591 67.3583C15.6506 69.3411 16.0626 72.6715 16.4746 75.8903C16.7492 78.0791 17.0067 80.1391 17.084 81.418C17.2728 84.7399 17.4702 87.4608 17.6591 90.0874C17.8479 92.7139 18.0453 95.4177 18.2342 98.7224L18.3801 101.16C17.6677 102.731 15.393 107.898 15.187 110.585C14.9982 113.057 14.2257 116.25 13.4704 119.34C12.9296 121.572 12.4232 123.675 12.1142 125.52C10.0541 138.043 9.9168 151.202 11.7193 164.626C12.0455 167.081 12.4575 170.274 12.8438 172.532C13.7622 177.828 14.6291 182.832 14.2171 187.982C14.0025 190.6 14.1656 193.295 14.3373 195.621C14.4574 197.252 14.6291 198.952 14.8695 200.832C14.9725 201.647 15.084 202.419 15.1956 203.166C15.642 206.222 15.9853 208.625 15.5304 211.561C15.1098 214.256 14.878 217.192 14.8008 220.797C14.5347 232.616 15.2557 237.835 17.393 249.714C17.7707 251.817 18.1827 254.015 18.629 256.238C18.938 259.972 19.3843 270.1 17.9166 273.688C17.7535 274.083 17.599 274.486 17.4359 274.89C16.5261 277.225 15.6591 279.431 13.3674 281.559C9.97689 284.709 10.1314 286.666 10.6893 288.889L10.7237 289.027C11.1271 290.632 12.4833 291.387 23.1096 291.387C27.7876 291.387 32.5428 291.216 33.7359 291.173C33.9333 291.216 34.1822 291.259 34.4655 291.259C35.4268 291.259 36.2938 290.829 36.9118 290.057C38.3109 288.306 38.3709 284.838 37.092 279.156C36.8088 277.885 36.5341 276.813 36.2938 275.86C34.7831 269.868 34.3282 268.057 37.2723 243.32C37.4611 241.732 37.6414 240.376 37.8044 239.183C38.371 234.942 38.7057 232.376 38.5169 226.659C38.1907 216.917 37.2208 211.484 36.7058 208.557C36.5341 207.587 36.3968 206.814 36.3796 206.402C36.3538 205.793 36.2937 205.003 36.2337 204.162C36.0963 202.359 35.8989 199.879 36.0534 198.711C36.1478 197.973 36.1307 197.003 36.0963 195.767C36.0277 192.935 35.9247 188.66 37.1864 183.905C39.7357 174.291 41.9417 154.738 42.5339 137.975C42.5682 137.185 42.594 136.395 42.6112 135.614H43.1777C43.1948 136.395 43.2206 137.185 43.2549 137.975C43.8472 154.738 46.0445 174.291 48.5938 183.905C49.8556 188.66 49.7526 192.935 49.6839 195.767C49.6582 197.003 49.6324 197.973 49.7269 198.711C49.8814 199.879 49.6925 202.359 49.5552 204.162C49.4865 205.003 49.4264 205.793 49.4007 206.402C49.3835 206.814 49.2462 207.587 49.0745 208.557C48.5595 211.484 47.5982 216.917 47.2634 226.659C47.0746 232.376 47.4179 234.934 47.9844 239.174C48.1389 240.376 48.3192 241.723 48.508 243.32C51.4521 268.057 50.9972 269.868 49.4865 275.86C49.2462 276.813 48.9801 277.885 48.6883 279.156C47.4093 284.838 47.4694 288.306 48.8685 290.057C49.4865 290.829 50.362 291.259 51.3234 291.259C51.5981 291.259 51.847 291.216 52.053 291.173C53.2375 291.216 57.9927 291.387 62.6793 291.387C73.3056 291.387 74.6532 290.632 75.0566 289.027L75.091 288.889C75.6489 286.666 75.812 284.709 72.4129 281.559C70.1211 279.431 69.2628 277.225 68.3444 274.89C68.1899 274.486 68.0354 274.083 67.8723 273.688C66.3959 270.1 66.8509 259.972 67.1513 256.238C67.5976 254.015 68.0182 251.817 68.3959 249.714C70.5246 237.835 71.2456 232.616 70.9881 220.797C70.9108 217.192 70.6705 214.256 70.2499 211.561C69.795 208.625 70.1469 206.222 70.5847 203.166C70.6962 202.419 70.8078 201.647 70.9108 200.832C71.1511 198.952 71.3228 197.252 71.443 195.621C71.6147 193.295 71.7777 190.6 71.5717 187.982C71.1512 182.832 72.0181 177.828 72.9365 172.532C73.3314 170.274 73.7348 167.081 74.0609 164.626C75.8806 151.056 75.7347 135.451 73.6661 122.893C73.3228 120.825 72.7219 118.936 72.1383 117.1C71.4344 114.902 70.7649 112.825 70.5932 110.585C70.3872 107.898 68.1212 102.731 67.4002 101.16L67.5461 98.7224C67.7349 95.4177 67.9324 92.7139 68.1212 90.0874C68.31 87.4608 68.5075 84.7399 68.7049 81.418C68.7735 80.1391 69.0396 78.0791 69.3143 75.8903C69.7177 72.6715 70.1383 69.3411 70.1211 67.3583C70.1126 65.6244 70.3872 64.8691 71.5717 63.2983C72.0353 62.6889 72.6103 62.1224 73.2198 61.5301C73.4258 61.3241 73.6318 61.1181 73.8464 60.9035C73.9665 61.4357 74.0953 62.0108 74.2154 62.5601C75.0395 66.2424 76.284 70.9548 78.3183 75.6499C78.7647 76.6628 79.3226 78.1649 79.8634 79.6155C80.4985 81.3236 81.1595 83.0832 81.7174 84.3193C81.9577 85.7355 83.2882 93.6066 83.6916 97.2975C84.2667 102.508 86.8932 108.276 89.4339 113.855C92.0604 119.632 94.5411 124.232 94.6355 128.567C94.6612 129.769 94.3179 130.146 93.4166 131.142C92.172 132.507 90.4639 134.387 89.3223 139.065C89.0047 140.361 87.5541 147.622 87.4855 147.889C87.4855 147.923 87.4769 147.957 87.4683 147.992C87.2709 149.159 87.6657 149.047 88.0262 149.477C88.5241 150.069 89.288 150.395 90.1721 150.395C90.7042 150.395 91.2708 150.283 91.863 150.069C93.1677 149.588 94.2835 147.854 95.1076 146.146C94.893 147.271 94.6012 148.489 94.3694 149.485C93.2793 154.189 92.2407 158.627 93.7514 161.013C94.2578 161.811 95.0131 162.343 95.9402 162.541C96.0947 162.575 96.2492 162.592 96.4123 162.592C97.1848 162.592 99.5281 162.592 105.906 151.142C105.914 151.125 105.923 151.107 105.931 151.09C108.051 146.936 108.412 143.459 108.695 140.661C108.764 139.949 108.833 139.279 108.918 138.644C111.038 123.855 108.858 109.726 106.73 98.3275ZM107.227 138.404C106.755 141.657 106.893 145.442 104.403 150.309C104.403 150.309 98.5152 160.875 96.4123 160.875C96.3779 160.875 96.335 160.867 96.3007 160.858C91.8888 159.914 98.1804 145.751 97.0388 142.404C96.6869 141.382 96.3264 141.013 95.9917 141.013C95.3307 141.013 94.7556 142.472 94.4895 143.193C94.0775 144.318 92.5669 147.983 91.2794 148.455C90.8845 148.592 90.5068 148.678 90.1721 148.678C89.4854 148.678 89.0133 148.326 89.1592 147.416C89.1592 147.416 90.6699 140.773 90.9875 139.477C92.9188 131.589 96.438 132.627 96.3522 128.533C96.1548 119.426 86.5241 107.289 85.3997 97.1087C84.9448 92.9714 83.374 83.8128 83.374 83.8128C82.3526 81.6155 80.8934 77.2722 79.8977 74.9633C77.0737 68.4827 75.8463 60.9121 74.9879 58.3886C74.8077 57.8306 74.6275 57.5216 74.4644 57.5216C74.3957 57.5216 74.3356 57.5731 74.2755 57.6761C73.3485 59.1868 71.9408 60.2683 70.7821 61.573C70.5761 61.7962 70.3872 62.0194 70.207 62.2597C68.7907 64.1309 68.3959 65.2639 68.4044 67.3755C68.4302 70.5685 67.177 78.122 66.9882 81.315C66.6019 87.9415 66.2157 91.9929 65.8294 98.6194C65.7779 99.5807 65.7178 100.533 65.6663 101.495C65.6663 101.495 68.6705 107.932 68.8851 110.722C68.8937 110.791 68.8937 110.851 68.9023 110.919C69.28 115.22 71.2627 118.859 71.9752 123.177C72.8936 128.799 73.4773 135.46 73.5889 142.507C73.7004 149.64 73.3313 157.167 72.3614 164.403C71.9408 167.571 71.3829 170.669 70.8936 173.716C70.8593 173.914 70.8336 174.103 70.7992 174.291C70.1898 178.137 69.7091 181.888 69.7521 185.579C69.7521 186.437 69.7864 187.278 69.8551 188.119C70.0525 190.566 69.9151 193.063 69.7349 195.493C69.6061 197.209 69.4259 198.917 69.2113 200.617C68.6791 204.746 67.9409 207.87 68.5589 211.827C69.0225 214.805 69.2027 217.827 69.2714 220.831C69.5375 232.702 68.7993 237.758 66.7049 249.414C66.3101 251.611 65.8895 253.809 65.4517 255.998C65.4517 255.998 64.6964 265.036 65.4947 270.959C65.6663 272.289 65.9238 273.456 66.2843 274.34C66.4045 274.632 66.5161 274.924 66.6363 275.225C67.6062 277.705 68.559 280.332 71.2456 282.821C74.2498 285.611 73.8206 286.898 73.3914 288.615C73.2884 289.01 72.0782 289.267 70.2842 289.422C69.9237 289.456 69.546 289.49 69.1512 289.516C68.3787 289.559 67.5375 289.593 66.6449 289.628C66.2843 289.628 65.9067 289.636 65.529 289.645C64.602 289.662 63.6406 289.671 62.6793 289.671H62.6106C62.1643 289.671 61.7094 289.671 61.263 289.662C60.0613 289.662 58.8768 289.645 57.7867 289.619C57.1859 289.611 56.6108 289.593 56.07 289.585C53.5808 289.516 51.8384 289.447 51.8384 289.447C51.8384 289.447 51.6238 289.542 51.3234 289.542C50.3105 289.542 48.3449 288.503 50.362 279.534C52.4822 270.135 53.6581 272.014 50.2161 243.122C49.3663 235.981 48.7398 233.912 48.9801 226.719C49.4264 213.509 51.0315 208.419 51.1174 206.471C51.1946 204.522 51.6839 200.402 51.435 198.488C51.2204 196.832 51.7525 192.815 51.0916 187.776C50.9114 186.403 50.6453 184.961 50.2505 183.467C49.9844 182.471 49.7269 181.364 49.4694 180.18V180.162C49.4694 180.162 49.4608 180.137 49.4608 180.128C47.5638 171.236 46.0016 157.39 45.2635 144.369C45.0575 140.781 44.9201 137.245 44.8515 133.897H40.9288C40.8601 137.245 40.7228 140.773 40.5168 144.361C39.9074 155.09 38.74 166.36 37.2894 174.978C37.2809 175.021 37.2723 175.055 37.2723 175.098C36.7229 178.317 36.1393 181.167 35.5298 183.467C35.1951 184.737 34.9462 185.973 34.7745 187.158C33.9848 192.488 34.5771 196.772 34.3539 198.488C34.105 200.402 34.5857 204.522 34.6715 206.471C34.7487 208.419 36.3538 213.509 36.8002 226.719C37.0405 233.912 36.4225 235.981 35.5642 243.122C32.1308 272.014 33.2981 270.135 35.4183 279.534C37.4354 288.503 35.4697 289.542 34.4655 289.542C34.1651 289.542 33.9419 289.447 33.9419 289.447C33.9419 289.447 32.0879 289.525 29.4613 289.593C28.9292 289.602 28.3541 289.611 27.7618 289.628C26.6631 289.645 25.4786 289.662 24.2769 289.662C23.8907 289.671 23.4958 289.671 23.1096 289.671H22.9207C21.9336 289.671 20.9551 289.662 20.0109 289.645C19.6247 289.645 19.2556 289.628 18.8865 289.611C17.9938 289.585 17.1441 289.55 16.3801 289.499C15.9767 289.473 15.6076 289.439 15.2557 289.405C13.5905 289.241 12.4918 288.993 12.3974 288.615C11.9683 286.898 11.5391 285.611 14.5433 282.821C17.5475 280.031 18.3801 277.079 19.5045 274.34C19.5217 274.289 19.5474 274.238 19.5646 274.186C19.9079 273.276 20.1569 272.1 20.3199 270.77C21.0753 264.847 20.3371 255.998 20.3371 255.998C19.8908 253.809 19.4702 251.611 19.0839 249.414C16.9896 237.758 16.2514 232.702 16.5175 220.831C16.5776 217.827 16.7664 214.805 17.2299 211.827C17.8393 207.87 17.1012 204.746 16.5776 200.617C16.3544 198.917 16.1741 197.209 16.054 195.493C15.8737 193.063 15.7278 190.566 15.9252 188.119C15.9767 187.476 16.0111 186.832 16.0196 186.18C16.0797 183.913 15.9338 181.613 15.6677 179.287C15.127 174.463 14.1055 169.528 13.4189 164.403C12.3717 156.584 12.0283 149.202 12.2343 142.266C12.406 136.455 12.9639 130.962 13.8137 125.795C14.5089 121.572 16.4231 115.546 16.8522 111.194C16.878 111.031 16.8952 110.877 16.9037 110.722C17.1183 107.932 20.1225 101.495 20.1225 101.495C20.0624 100.533 20.0109 99.5807 19.9509 98.6194C19.5646 91.9929 19.1783 87.9415 18.7921 81.315C18.6118 78.122 17.3587 70.5685 17.3758 67.3755C17.393 65.2639 16.9896 64.1309 15.5733 62.2597C15.4445 62.088 15.3072 61.9164 15.1527 61.7533C13.9682 60.3713 12.4747 59.2555 11.5133 57.6761C11.4447 57.5645 11.376 57.513 11.3159 57.513C11.1099 57.513 10.9211 58.0109 10.6979 58.8778C9.97689 61.676 8.90396 68.354 5.89116 74.9633C4.84398 77.2551 3.42771 81.6155 2.41486 83.8128C2.41486 83.8128 0.81834 92.9628 0.389168 97.1087C-0.812515 108.576 -10.3745 119.426 -10.5633 128.533C-10.6577 132.627 -7.12993 131.589 -5.19866 139.477C-4.88107 140.773 -3.37897 147.416 -3.37897 147.416C-3.22446 148.326 -3.69655 148.678 -4.39181 148.678C-4.71798 148.678 -5.10423 148.592 -5.49049 148.455C-6.77801 147.983 -8.29728 145.176 -8.70928 144.052C-8.97537 143.331 -9.55046 141.872 -10.2114 141.872C-10.5461 141.872 -10.8981 142.241 -11.25 143.262C-12.3916 146.61 -6.09992 159.914 -10.5118 160.858C-10.5547 160.867 -10.5891 160.875 -10.632 160.875C-12.7349 160.875 -18.6232 150.309 -18.6232 150.309C-21.1124 145.442 -20.975 141.657 -21.4385 138.404C-23.3612 124.919 -21.7561 111.992 -19.2584 98.6365C-17.4902 89.1775 -13.3873 86.0102 -12.1598 76.5512C-11.8251 73.9504 -11.8165 71.2981 -11.4989 68.6973C-11.0268 64.8519 -10.3402 59.2984 -9.28439 55.5646C-8.38312 52.3887 -6.3145 45.5992 -5.77374 43.8052C-5.68791 43.522 -5.63642 43.3589 -5.63642 43.3589C-5.53342 42.5091 -5.46474 41.7366 -5.39607 41.0242C-5.20724 38.7066 -5.08707 36.9041 -4.01414 34.2861C-2.64078 30.9557 -0.400501 28.0717 2.54362 25.9859C7.41902 22.5267 14.8952 21.4796 14.8952 21.4796C21.4015 16.8273 30.8519 13.0763 31.5299 13.0763H31.6415V5.04219C31.6415 5.04219 31.5557 4.99068 31.5214 4.96494C27.6674 2.42422 27.0236 -1.45551 26.1567 -6.70002C23.8134 -7.03478 21.6933 -9.3094 21.1182 -12.3995C20.586 -15.2492 21.5302 -17.9444 23.3242 -19.2319C23.7533 -19.5495 24.234 -19.7813 24.749 -19.91L24.5258 -23.6953C24.5258 -35.3088 33.8389 -41.0254 42.5253 -41.2571C42.5511 -41.2571 42.5768 -41.2657 42.594 -41.2657H43.1863C43.1863 -41.2657 43.2292 -41.2571 43.2549 -41.2571C51.9414 -41.0254 61.263 -35.3088 61.263 -23.6953L61.0398 -19.91C62.0441 -19.6525 62.8939 -19.0259 63.5376 -18.159C64.602 -16.717 65.0741 -14.6054 64.6621 -12.3995C64.087 -9.3094 61.9754 -7.03478 59.6236 -6.70002C58.7996 -1.68727 58.1644 2.08947 54.7396 4.63018C54.5508 4.76752 54.3448 4.90485 54.1388 5.04219V13.0763H54.2503C54.937 13.0763 63.8381 16.5355 70.8936 21.4796C70.8936 21.4796 78.3698 22.5267 83.2367 25.9859C86.1894 28.0717 88.4211 30.9557 89.7944 34.2861C90.8845 36.9298 90.9875 38.741 91.1935 41.0842C91.2536 41.7795 91.3223 42.5263 91.4253 43.3589C91.4253 43.3589 91.4768 43.5134 91.554 43.7966C92.0948 45.582 94.1634 52.3801 95.0647 55.5646C96.129 59.2984 96.8071 64.8519 97.2792 68.6973C97.5968 71.2981 97.6139 73.9504 97.9487 76.5512C99.1675 86.0102 103.27 89.1775 105.039 98.6365C107.536 111.992 109.15 124.919 107.227 138.404Z" fill="#333333"/>
<path d="M106.73 98.3275C105.854 93.6324 104.438 90.4479 103.073 87.375C101.622 84.1218 100.258 81.049 99.6482 76.328C99.4851 75.0491 99.3993 73.7702 99.3135 72.4054C99.2276 71.1264 99.1504 69.8046 98.9873 68.4913L98.807 67.015C98.3349 63.0666 97.6912 58.5173 96.7127 55.1011C95.7513 51.702 93.451 45.8395 93.1076 44.7151C92.9875 43.728 92.9188 42.7409 92.8501 41.6937C92.6699 39.0414 92.481 36.2947 91.3823 33.6338C89.8717 29.96 87.3996 26.8271 84.2323 24.5868C79.7003 21.368 73.2455 20.1234 71.546 19.8401C66.0869 16.0891 59.0914 12.8703 55.8554 11.7716V5.94345C59.4863 3.19674 60.3703 -0.768833 61.1429 -5.32666C63.6921 -6.27085 65.7522 -8.87165 66.353 -12.0819C66.9967 -15.5582 65.7951 -18.88 63.5205 -20.5795C63.2973 -20.7512 63.0655 -20.8971 62.8252 -21.0344L62.9797 -23.5923V-23.6953C62.9797 -35.9525 53.1602 -42.6562 43.4266 -42.9653C43.3579 -42.9653 43.2721 -42.9824 43.1863 -42.9824H42.594C42.5082 -42.9824 42.4309 -42.9738 42.3623 -42.9653C33.4441 -42.682 24.4743 -37.0426 23.0237 -26.6995V-26.6738C22.8778 -25.721 22.8092 -24.7253 22.8092 -23.6953V-23.5923L22.9636 -21.0344C20.2341 -19.5238 18.7234 -15.8929 19.4359 -12.0819C20.0281 -8.87165 22.0881 -6.27085 24.646 -5.32666C25.4185 -0.768833 26.3026 3.19674 29.9248 5.94345V11.7716C26.603 12.9047 19.3329 16.278 14.2343 19.8401C12.5176 20.1234 6.08 21.368 1.54794 24.5868C-1.61077 26.8271 -4.08281 29.96 -5.60208 33.6338C-6.70076 36.2947 -6.88101 39.0414 -7.06126 41.6937C-7.13851 42.7409 -7.20718 43.728 -7.31877 44.7151C-7.66211 45.8395 -9.96248 51.702 -10.9324 55.1011C-11.9023 58.5173 -12.5547 63.0666 -13.0268 67.015L-13.1984 68.4827C-13.3615 69.8046 -13.4474 71.1264 -13.5332 72.4054C-13.619 73.7702 -13.6963 75.0491 -13.8679 76.328C-14.4774 81.049 -15.8421 84.1218 -17.2842 87.375C-18.6575 90.4479 -20.0652 93.6324 -20.9493 98.3189C-23.078 109.726 -25.2496 123.855 -23.1381 138.644C-23.0437 139.279 -22.9836 139.949 -22.9063 140.661C-22.6231 143.459 -22.2711 146.936 -20.151 151.09C-20.1424 151.107 -20.1253 151.125 -20.1167 151.142C-13.7392 162.592 -11.4045 162.592 -10.632 162.592C-10.4689 162.592 -10.3058 162.575 -10.1513 162.541C-9.20713 162.335 -8.44321 161.802 -7.9282 160.987C-6.4776 158.652 -7.49902 154.489 -8.58054 150.086C-8.83804 149.039 -9.16421 147.717 -9.39596 146.55C-8.63204 147.906 -7.46469 149.562 -6.08275 150.069C-5.49049 150.283 -4.9154 150.395 -4.39181 150.395C-3.50771 150.395 -2.74379 150.069 -2.23737 149.477C-1.87686 149.047 -1.49061 148.301 -1.68803 147.133C-1.68803 147.099 -1.69661 147.065 -1.7052 147.03C-1.76528 146.764 -3.21588 140.361 -3.53346 139.065C-4.68365 134.387 -6.38317 132.507 -7.62777 131.142C-8.53762 130.146 -8.87238 129.769 -8.85521 128.567C-8.7608 124.396 -6.42609 120.25 -3.95406 114.945C-1.29319 109.237 1.4621 103.34 2.08869 97.2889C2.47494 93.598 3.82255 85.727 4.06289 84.3278C4.58648 83.1691 5.16157 81.6069 5.77958 79.9589C6.36325 78.3795 6.96409 76.7486 7.45335 75.6757C9.95971 70.1737 11.1786 65.1008 11.9082 61.5559C11.9425 61.367 11.9854 61.1782 12.0283 60.9894L12.5691 61.5301C13.1699 62.1224 13.745 62.6889 14.2085 63.2983C15.4016 64.8691 15.6677 65.6244 15.6591 67.3583C15.6506 69.3411 16.0626 72.6715 16.4746 75.8903C16.7492 78.0791 17.0067 80.1391 17.084 81.418C17.2728 84.7399 17.4702 87.4608 17.6591 90.0874C17.8479 92.7139 18.0453 95.4177 18.2342 98.7224L18.3801 101.16C17.6677 102.731 15.393 107.898 15.187 110.585C14.9982 113.057 14.2257 116.25 13.4704 119.34C12.9296 121.572 12.4232 123.675 12.1142 125.52C10.0541 138.043 9.9168 151.202 11.7193 164.626C12.0455 167.081 12.4575 170.274 12.8438 172.532C13.7622 177.828 14.6291 182.832 14.2171 187.982C14.0025 190.6 14.1656 193.295 14.3373 195.621C14.4574 197.252 14.6291 198.952 14.8695 200.832C14.9725 201.647 15.084 202.419 15.1956 203.166C15.642 206.222 15.9853 208.625 15.5304 211.561C15.1098 214.256 14.878 217.192 14.8008 220.797C14.5347 232.616 15.2557 237.835 17.393 249.714C17.7707 251.817 18.1827 254.015 18.629 256.238C18.938 259.972 19.3843 270.1 17.9166 273.688C17.7535 274.083 17.599 274.486 17.4359 274.89C16.5261 277.225 15.6591 279.431 13.3674 281.559C9.97689 284.709 10.1314 286.666 10.6893 288.889L10.7237 289.027C11.1271 290.632 12.4833 291.387 23.1096 291.387C27.7876 291.387 32.5428 291.216 33.7359 291.173C33.9333 291.216 34.1822 291.259 34.4655 291.259C35.4268 291.259 36.2938 290.829 36.9118 290.057C38.3109 288.306 38.3709 284.838 37.092 279.156C36.8088 277.885 36.5341 276.813 36.2938 275.86C34.7831 269.868 34.3282 268.057 37.2723 243.32C37.4611 241.732 37.6414 240.376 37.8044 239.183C38.371 234.942 38.7057 232.376 38.5169 226.659C38.1907 216.917 37.2208 211.484 36.7058 208.557C36.5341 207.587 36.3968 206.814 36.3796 206.402C36.3538 205.793 36.2937 205.003 36.2337 204.162C36.0963 202.359 35.8989 199.879 36.0534 198.711C36.1478 197.973 36.1307 197.003 36.0963 195.767C36.0277 192.935 35.9247 188.66 37.1864 183.905C39.7357 174.291 41.9417 154.738 42.5339 137.975C42.5682 137.185 42.594 136.395 42.6112 135.614H43.1777C43.1948 136.395 43.2206 137.185 43.2549 137.975C43.8472 154.738 46.0445 174.291 48.5938 183.905C49.8556 188.66 49.7526 192.935 49.6839 195.767C49.6582 197.003 49.6324 197.973 49.7269 198.711C49.8814 199.879 49.6925 202.359 49.5552 204.162C49.4865 205.003 49.4264 205.793 49.4007 206.402C49.3835 206.814 49.2462 207.587 49.0745 208.557C48.5595 211.484 47.5982 216.917 47.2634 226.659C47.0746 232.376 47.4179 234.934 47.9844 239.174C48.1389 240.376 48.3192 241.723 48.508 243.32C51.4521 268.057 50.9972 269.868 49.4865 275.86C49.2462 276.813 48.9801 277.885 48.6883 279.156C47.4093 284.838 47.4694 288.306 48.8685 290.057C49.4865 290.829 50.362 291.259 51.3234 291.259C51.5981 291.259 51.847 291.216 52.053 291.173C53.2375 291.216 57.9927 291.387 62.6793 291.387C73.3056 291.387 74.6532 290.632 75.0566 289.027L75.091 288.889C75.6489 286.666 75.812 284.709 72.4129 281.559C70.1211 279.431 69.2628 277.225 68.3444 274.89C68.1899 274.486 68.0354 274.083 67.8723 273.688C66.3959 270.1 66.8509 259.972 67.1513 256.238C67.5976 254.015 68.0182 251.817 68.3959 249.714C70.5246 237.835 71.2456 232.616 70.9881 220.797C70.9108 217.192 70.6705 214.256 70.2499 211.561C69.795 208.625 70.1469 206.222 70.5847 203.166C70.6962 202.419 70.8078 201.647 70.9108 200.832C71.1511 198.952 71.3228 197.252 71.443 195.621C71.6147 193.295 71.7777 190.6 71.5717 187.982C71.1512 182.832 72.0181 177.828 72.9365 172.532C73.3314 170.274 73.7348 167.081 74.0609 164.626C75.8806 151.056 75.7347 135.451 73.6661 122.893C73.3228 120.825 72.7219 118.936 72.1383 117.1C71.4344 114.902 70.7649 112.825 70.5932 110.585C70.3872 107.898 68.1212 102.731 67.4002 101.16L67.5461 98.7224C67.7349 95.4177 67.9324 92.7139 68.1212 90.0874C68.31 87.4608 68.5075 84.7399 68.7049 81.418C68.7735 80.1391 69.0396 78.0791 69.3143 75.8903C69.7177 72.6715 70.1383 69.3411 70.1211 67.3583C70.1126 65.6244 70.3872 64.8691 71.5717 63.2983C72.0353 62.6889 72.6103 62.1224 73.2198 61.5301C73.4258 61.3241 73.6318 61.1181 73.8464 60.9035C73.9665 61.4357 74.0953 62.0108 74.2154 62.5601C75.0395 66.2424 76.284 70.9548 78.3183 75.6499C78.7647 76.6628 79.3226 78.1649 79.8634 79.6155C80.4985 81.3236 81.1595 83.0832 81.7174 84.3193C81.9577 85.7355 83.2882 93.6066 83.6916 97.2975C84.2667 102.508 86.8932 108.276 89.4339 113.855C92.0604 119.632 94.5411 124.232 94.6355 128.567C94.6612 129.769 94.3179 130.146 93.4166 131.142C92.172 132.507 90.4639 134.387 89.3223 139.065C89.0047 140.361 87.5541 147.622 87.4855 147.889C87.4855 147.923 87.4769 147.957 87.4683 147.992C87.2709 149.159 87.6657 149.047 88.0262 149.477C88.5241 150.069 89.288 150.395 90.1721 150.395C90.7042 150.395 91.2708 150.283 91.863 150.069C93.1677 149.588 94.2835 147.854 95.1076 146.146C94.893 147.271 94.6012 148.489 94.3694 149.485C93.2793 154.189 92.2407 158.627 93.7514 161.013C94.2578 161.811 95.0131 162.343 95.9402 162.541C96.0947 162.575 96.2492 162.592 96.4123 162.592C97.1848 162.592 99.5281 162.592 105.906 151.142C105.914 151.125 105.923 151.107 105.931 151.09C108.051 146.936 108.412 143.459 108.695 140.661C108.764 139.949 108.833 139.279 108.918 138.644C111.038 123.855 108.858 109.726 106.73 98.3275ZM107.227 138.404C106.755 141.657 106.893 145.442 104.403 150.309C104.403 150.309 98.5152 160.875 96.4123 160.875C96.3779 160.875 96.335 160.867 96.3007 160.858C91.8888 159.914 98.1804 145.751 97.0388 142.404C96.6869 141.382 96.3264 141.013 95.9917 141.013C95.3307 141.013 94.7556 142.472 94.4895 143.193C94.0775 144.318 92.5669 147.983 91.2794 148.455C90.8845 148.592 90.5068 148.678 90.1721 148.678C89.4854 148.678 89.0133 148.326 89.1592 147.416C89.1592 147.416 90.6699 140.773 90.9875 139.477C92.9188 131.589 96.438 132.627 96.3522 128.533C96.1548 119.426 86.5241 107.289 85.3997 97.1087C84.9448 92.9714 83.374 83.8128 83.374 83.8128C82.3526 81.6155 80.8934 77.2722 79.8977 74.9633C77.0737 68.4827 75.8463 60.9121 74.9879 58.3886C74.8077 57.8306 74.6275 57.5216 74.4644 57.5216C74.3957 57.5216 74.3356 57.5731 74.2755 57.6761C73.3485 59.1868 71.9408 60.2683 70.7821 61.573C70.5761 61.7962 70.3872 62.0194 70.207 62.2597C68.7907 64.1309 68.3959 65.2639 68.4044 67.3755C68.4302 70.5685 67.177 78.122 66.9882 81.315C66.6019 87.9415 66.2157 91.9929 65.8294 98.6194C65.7779 99.5807 65.7178 100.533 65.6663 101.495C65.6663 101.495 68.6705 107.932 68.8851 110.722C68.8937 110.791 68.8937 110.851 68.9023 110.919C69.28 115.22 71.2627 118.859 71.9752 123.177C72.8936 128.799 73.4773 135.46 73.5889 142.507C73.7004 149.64 73.3313 157.167 72.3614 164.403C71.9408 167.571 71.3829 170.669 70.8936 173.716C70.8593 173.914 70.8336 174.103 70.7992 174.291C70.1898 178.137 69.7091 181.888 69.7521 185.579C69.7521 186.437 69.7864 187.278 69.8551 188.119C70.0525 190.566 69.9151 193.063 69.7349 195.493C69.6061 197.209 69.4259 198.917 69.2113 200.617C68.6791 204.746 67.9409 207.87 68.5589 211.827C69.0225 214.805 69.2027 217.827 69.2714 220.831C69.5375 232.702 68.7993 237.758 66.7049 249.414C66.3101 251.611 65.8895 253.809 65.4517 255.998C65.4517 255.998 64.6964 265.036 65.4947 270.959C65.6663 272.289 65.9238 273.456 66.2843 274.34C66.4045 274.632 66.5161 274.924 66.6363 275.225C67.6062 277.705 68.559 280.332 71.2456 282.821C74.2498 285.611 73.8206 286.898 73.3914 288.615C73.2884 289.01 72.0782 289.267 70.2842 289.422C69.9237 289.456 69.546 289.49 69.1512 289.516C68.3787 289.559 67.5375 289.593 66.6449 289.628C66.2843 289.628 65.9067 289.636 65.529 289.645C64.602 289.662 63.6406 289.671 62.6793 289.671H62.6106C62.1643 289.671 61.7094 289.671 61.263 289.662C60.0613 289.662 58.8768 289.645 57.7867 289.619C57.1859 289.611 56.6108 289.593 56.07 289.585C53.5808 289.516 51.8384 289.447 51.8384 289.447C51.8384 289.447 51.6238 289.542 51.3234 289.542C50.3105 289.542 48.3449 288.503 50.362 279.534C52.4822 270.135 53.6581 272.014 50.2161 243.122C49.3663 235.981 48.7398 233.912 48.9801 226.719C49.4264 213.509 51.0315 208.419 51.1174 206.471C51.1946 204.522 51.6839 200.402 51.435 198.488C51.2204 196.832 51.7525 192.815 51.0916 187.776C50.9114 186.403 50.6453 184.961 50.2505 183.467C49.9844 182.471 49.7269 181.364 49.4694 180.18V180.162C49.4694 180.162 49.4608 180.137 49.4608 180.128C47.5638 171.236 46.0016 157.39 45.2635 144.369C45.0575 140.781 44.9201 137.245 44.8515 133.897H40.9288C40.8601 137.245 40.7228 140.773 40.5168 144.361C39.9074 155.09 38.74 166.36 37.2894 174.978C37.2809 175.021 37.2723 175.055 37.2723 175.098C36.7229 178.317 36.1393 181.167 35.5298 183.467C35.1951 184.737 34.9462 185.973 34.7745 187.158C33.9848 192.488 34.5771 196.772 34.3539 198.488C34.105 200.402 34.5857 204.522 34.6715 206.471C34.7487 208.419 36.3538 213.509 36.8002 226.719C37.0405 233.912 36.4225 235.981 35.5642 243.122C32.1308 272.014 33.2981 270.135 35.4183 279.534C37.4354 288.503 35.4697 289.542 34.4655 289.542C34.1651 289.542 33.9419 289.447 33.9419 289.447C33.9419 289.447 32.0879 289.525 29.4613 289.593C28.9292 289.602 28.3541 289.611 27.7618 289.628C26.6631 289.645 25.4786 289.662 24.2769 289.662C23.8907 289.671 23.4958 289.671 23.1096 289.671H22.9207C21.9336 289.671 20.9551 289.662 20.0109 289.645C19.6247 289.645 19.2556 289.628 18.8865 289.611C17.9938 289.585 17.1441 289.55 16.3801 289.499C15.9767 289.473 15.6076 289.439 15.2557 289.405C13.5905 289.241 12.4918 288.993 12.3974 288.615C11.9683 286.898 11.5391 285.611 14.5433 282.821C17.5475 280.031 18.3801 277.079 19.5045 274.34C19.5217 274.289 19.5474 274.238 19.5646 274.186C19.9079 273.276 20.1569 272.1 20.3199 270.77C21.0753 264.847 20.3371 255.998 20.3371 255.998C19.8908 253.809 19.4702 251.611 19.0839 249.414C16.9896 237.758 16.2514 232.702 16.5175 220.831C16.5776 217.827 16.7664 214.805 17.2299 211.827C17.8393 207.87 17.1012 204.746 16.5776 200.617C16.3544 198.917 16.1741 197.209 16.054 195.493C15.8737 193.063 15.7278 190.566 15.9252 188.119C15.9767 187.476 16.0111 186.832 16.0196 186.18C16.0797 183.913 15.9338 181.613 15.6677 179.287C15.127 174.463 14.1055 169.528 13.4189 164.403C12.3717 156.584 12.0283 149.202 12.2343 142.266C12.406 136.455 12.9639 130.962 13.8137 125.795C14.5089 121.572 16.4231 115.546 16.8522 111.194C16.878 111.031 16.8952 110.877 16.9037 110.722C17.1183 107.932 20.1225 101.495 20.1225 101.495C20.0624 100.533 20.0109 99.5807 19.9509 98.6194C19.5646 91.9929 19.1783 87.9415 18.7921 81.315C18.6118 78.122 17.3587 70.5685 17.3758 67.3755C17.393 65.2639 16.9896 64.1309 15.5733 62.2597C15.4445 62.088 15.3072 61.9164 15.1527 61.7533C13.9682 60.3713 12.4747 59.2555 11.5133 57.6761C11.4447 57.5645 11.376 57.513 11.3159 57.513C11.1099 57.513 10.9211 58.0109 10.6979 58.8778C9.97689 61.676 8.90396 68.354 5.89116 74.9633C4.84398 77.2551 3.42771 81.6155 2.41486 83.8128C2.41486 83.8128 0.81834 92.9628 0.389168 97.1087C-0.812515 108.576 -10.3745 119.426 -10.5633 128.533C-10.6577 132.627 -7.12993 131.589 -5.19866 139.477C-4.88107 140.773 -3.37897 147.416 -3.37897 147.416C-3.22446 148.326 -3.69655 148.678 -4.39181 148.678C-4.71798 148.678 -5.10423 148.592 -5.49049 148.455C-6.77801 147.983 -8.29728 145.176 -8.70928 144.052C-8.97537 143.331 -9.55046 141.872 -10.2114 141.872C-10.5461 141.872 -10.8981 142.241 -11.25 143.262C-12.3916 146.61 -6.09992 159.914 -10.5118 160.858C-10.5547 160.867 -10.5891 160.875 -10.632 160.875C-12.7349 160.875 -18.6232 150.309 -18.6232 150.309C-21.1124 145.442 -20.975 141.657 -21.4385 138.404C-23.3612 124.919 -21.7561 111.992 -19.2584 98.6365C-17.4902 89.1775 -13.3873 86.0102 -12.1598 76.5512C-11.8251 73.9504 -11.8165 71.2981 -11.4989 68.6973C-11.0268 64.8519 -10.3402 59.2984 -9.28439 55.5646C-8.38312 52.3887 -6.3145 45.5992 -5.77374 43.8052C-5.68791 43.522 -5.63642 43.3589 -5.63642 43.3589C-5.53342 42.5091 -5.46474 41.7366 -5.39607 41.0242C-5.20724 38.7066 -5.08707 36.9041 -4.01414 34.2861C-2.64078 30.9557 -0.400501 28.0717 2.54362 25.9859C7.41902 22.5267 14.8952 21.4796 14.8952 21.4796C21.4015 16.8273 30.8519 13.0763 31.5299 13.0763H31.6415V5.04219C31.6415 5.04219 31.5557 4.99068 31.5214 4.96494C27.6674 2.42422 27.0236 -1.45551 26.1567 -6.70002C23.8134 -7.03478 21.6933 -9.3094 21.1182 -12.3995C20.586 -15.2492 21.5302 -17.9444 23.3242 -19.2319C23.7533 -19.5495 24.234 -19.7813 24.749 -19.91L24.5258 -23.6953C24.5258 -35.3088 33.8389 -41.0254 42.5253 -41.2571C42.5511 -41.2571 42.5768 -41.2657 42.594 -41.2657H43.1863C43.1863 -41.2657 43.2292 -41.2571 43.2549 -41.2571C51.9414 -41.0254 61.263 -35.3088 61.263 -23.6953L61.0398 -19.91C62.0441 -19.6525 62.8939 -19.0259 63.5376 -18.159C64.602 -16.717 65.0741 -14.6054 64.6621 -12.3995C64.087 -9.3094 61.9754 -7.03478 59.6236 -6.70002C58.7996 -1.68727 58.1644 2.08947 54.7396 4.63018C54.5508 4.76752 54.3448 4.90485 54.1388 5.04219V13.0763H54.2503C54.937 13.0763 63.8381 16.5355 70.8936 21.4796C70.8936 21.4796 78.3698 22.5267 83.2367 25.9859C86.1894 28.0717 88.4211 30.9557 89.7944 34.2861C90.8845 36.9298 90.9875 38.741 91.1935 41.0842C91.2536 41.7795 91.3223 42.5263 91.4253 43.3589C91.4253 43.3589 91.4768 43.5134 91.554 43.7966C92.0948 45.582 94.1634 52.3801 95.0647 55.5646C96.129 59.2984 96.8071 64.8519 97.2792 68.6973C97.5968 71.2981 97.6139 73.9504 97.9487 76.5512C99.1675 86.0102 103.27 89.1775 105.039 98.6365C107.536 111.992 109.15 124.919 107.227 138.404Z" fill="black" fill-opacity="0.2"/>
<path d="M64.6613 -12.3991C64.0862 -9.30907 61.9747 -7.03445 59.6228 -6.69969C58.7988 -1.68694 58.1637 2.0898 54.7389 4.63051C52.3355 5.74636 47.2455 7.9094 44.1211 7.9094H41.4174C38.5762 7.9094 34.1214 6.12403 31.5206 4.96526C27.6667 2.42455 27.0229 -1.45518 26.156 -6.69969C23.8127 -7.03445 21.6926 -9.30907 21.1175 -12.3991C20.5853 -15.2488 21.5295 -17.9441 23.3234 -19.2316C23.581 -16.4248 24.0788 -14.133 25.0916 -13.8583C25.8556 -15.0686 25.744 -24.8709 25.9585 -28.9481C36.9711 -25.4804 47.0224 -36.5874 57.683 -30.6133C62.7215 -27.7979 59.6829 -13.4806 62.5498 -14.7853C63.3052 -15.1201 63.5026 -16.5879 63.5369 -18.1586C64.6012 -16.7166 65.0733 -14.6051 64.6613 -12.3991Z" fill="#FFEACA"/>
<path d="M105.039 98.6367C103.27 89.1776 99.1676 86.0103 97.9487 76.5513C97.614 73.9505 97.5968 71.2983 97.2792 68.6975C96.8071 64.8521 96.1291 59.2985 95.0647 55.5647C94.1634 52.3802 92.0948 45.5821 91.5541 43.7968C90.6013 46.7409 89.9747 49.3074 89.6228 50.8867C89.4082 51.8137 89.1936 51.7966 89.185 50.8524C89.1335 46.8611 90.0091 44.0285 91.1249 41.2389C91.1507 41.1874 91.1678 41.1359 91.1936 41.0844C90.9876 38.7411 90.8846 36.93 89.7944 34.2863C88.4211 30.9559 86.1894 28.0718 83.2367 25.986C78.3699 22.5269 70.8937 21.4797 70.8937 21.4797C63.8381 16.5356 54.9371 13.0765 54.2504 13.0765H54.1388V5.89209C51.1003 8.00363 46.1476 9.31691 44.6026 9.31691H40.9289C39.4268 9.31691 34.6887 8.0723 31.6416 6.05518V13.0765H31.53C30.8519 13.0765 21.4015 16.8275 14.8953 21.4797C14.8953 21.4797 7.41907 22.5269 2.54366 25.986C-0.400459 28.0718 -2.64074 30.9559 -4.01409 34.2863C-5.08702 36.9042 -5.20719 38.7068 -5.39603 41.0243C-4.34027 43.8568 -3.43043 47.1787 -3.42185 50.8524C-3.42185 51.7966 -3.63642 51.8137 -3.84243 50.8867C-4.20293 49.3074 -4.82952 46.7495 -5.7737 43.8054C-6.31446 45.5993 -8.38308 52.3888 -9.28435 55.5647C-10.3401 59.2985 -11.0268 64.8521 -11.4989 68.6975C-11.8165 71.2983 -11.825 73.9505 -12.1598 76.5513C-13.3872 86.0103 -17.4901 89.1776 -19.2583 98.6367C-21.7561 111.993 -23.3612 124.919 -21.4385 138.404C-20.975 141.657 -21.1123 145.442 -18.6231 150.309C-18.6231 150.309 -12.7349 160.876 -10.6319 160.876C-10.589 160.876 -10.5547 160.867 -10.5118 160.858C-6.09988 159.914 -12.3916 146.61 -11.25 143.262C-10.898 142.241 -10.5461 141.872 -10.2113 141.872C-9.55042 141.872 -8.97533 143.331 -8.70924 144.052C-8.29724 145.176 -6.77797 147.983 -5.49045 148.455C-5.10419 148.593 -4.71794 148.678 -4.39177 148.678C-3.69651 148.678 -3.22442 148.326 -3.37893 147.417C-3.37893 147.417 -4.88103 140.773 -5.19861 139.477C-7.12989 131.589 -10.6577 132.627 -10.5633 128.533C-10.3744 119.426 -0.812473 108.576 0.38921 97.1088C0.818382 92.963 2.41491 83.813 2.41491 83.813C3.42775 81.6156 4.84402 77.2552 5.89121 74.9634C8.904 68.3541 9.97694 61.6762 10.6979 58.8779C10.5177 58.6376 10.3546 58.3887 10.2173 58.1226C10.0799 57.8651 8.70657 54.7922 7.42764 52.8266C6.91263 52.0283 7.11006 51.7193 7.9169 52.2172C9.007 52.8953 10.4147 54.0969 11.273 56.1398C12.1743 58.3029 13.3502 59.0239 14.2086 59.5131C16.9724 60.7835 20.8865 61.3414 28.3284 61.2642C29.2811 61.2556 29.3069 61.4272 28.3713 61.6161C25.5301 62.1826 19.6247 63.0667 15.1527 61.7534C15.3072 61.9165 15.4446 62.0882 15.5733 62.2598C16.9896 64.131 17.393 65.2641 17.3759 67.3756C17.3587 70.5686 18.6119 78.1221 18.7921 81.3152C19.1784 87.9416 19.5647 91.993 19.9509 98.6195C20.011 99.5808 20.0625 100.534 20.1226 101.495C20.1226 101.495 17.1184 107.933 16.9038 110.722C16.8952 110.877 16.878 111.031 16.8523 111.194C19.2556 111.589 23.5388 111.907 28.9893 112.087C27.3155 108.25 27.6417 104.851 28.0794 102.937C28.2854 102.01 28.5858 102.061 28.6373 103.014C28.8433 106.516 29.5901 109.684 30.3712 112.138C33.693 112.233 37.3925 112.284 41.3237 112.284C45.9588 112.284 51.1775 112.199 55.9499 112.01C56.7138 109.581 57.4434 106.456 57.6408 103.014C57.6923 102.061 57.9842 102.01 58.1988 102.937C58.6365 104.825 58.9627 108.164 57.349 111.95C62.1042 111.735 66.293 111.409 68.868 110.928H68.9023C68.9023 110.851 68.9023 110.791 68.8852 110.722C68.6706 107.933 65.6664 101.495 65.6664 101.495C65.7179 100.534 65.778 99.5808 65.8295 98.6195C66.2157 91.993 66.602 87.9416 66.9882 81.3152C67.1771 78.1221 68.4303 70.5686 68.4045 67.3756C68.3959 65.2641 68.7908 64.131 70.207 62.2598C70.3873 62.0195 70.5761 61.7963 70.7821 61.5732C66.2586 63.1439 59.967 62.2083 56.9971 61.6161C56.0615 61.4272 56.0873 61.2556 57.04 61.2642C64.4819 61.3414 68.3959 60.7835 71.1598 59.5131C72.0181 59.0239 73.1941 58.3029 74.1039 56.1398C74.9537 54.0969 76.3614 52.8953 77.4515 52.2172C78.2583 51.7193 78.4557 52.0283 77.9407 52.8266C76.6704 54.7922 75.2884 57.8651 75.1511 58.1226C75.0996 58.217 75.0567 58.3029 74.988 58.3887C75.8463 60.9122 77.0738 68.4829 79.8977 74.9634C80.8934 77.2724 82.3526 81.6156 83.374 83.813C83.374 83.813 84.9448 92.9715 85.3997 97.1088C86.5242 107.289 96.1548 119.426 96.3522 128.533C96.4381 132.627 92.9188 131.589 90.9876 139.477C90.67 140.773 89.1593 147.417 89.1593 147.417C89.0134 148.326 89.4855 148.678 90.1721 148.678C90.5069 148.678 90.8846 148.593 91.2794 148.455C92.5669 147.983 94.0776 144.318 94.4896 143.194C94.7557 142.473 95.3308 141.013 95.9917 141.013C96.3265 141.013 96.687 141.382 97.0389 142.404C98.1805 145.751 91.8888 159.914 96.3007 160.858C96.3351 160.867 96.378 160.876 96.4123 160.876C98.5153 160.876 104.404 150.309 104.404 150.309C106.893 145.442 106.755 141.657 107.227 138.404C109.15 124.919 107.536 111.993 105.039 98.6367ZM1.53939 82.2765C-0.486305 84.8258 -3.95401 88.8515 -5.7222 88.8515C-5.7222 88.8515 -5.73079 88.8429 -5.73938 88.8515C-7.21573 89.0489 -8.63199 86.4996 -9.37875 84.8859C-9.69634 84.1907 -9.53326 84.1306 -9.00967 84.7228C-7.78224 86.1133 -6.77797 86.8429 -6.00546 87.2035C-5.95396 87.1777 -5.90247 87.152 -5.85097 87.1262C-4.60636 86.5254 -1.5249 84.534 1.19606 82.0448C2.27757 81.0491 2.44065 81.1521 1.53939 82.2765ZM41.7186 27.0933C42.0791 27.2306 42.4395 27.3165 42.7743 27.3594C43.7185 27.4881 44.1047 28.0632 43.2721 28.5353C42.2936 29.0933 41.5383 28.4667 41.0233 27.7199C40.4911 26.9388 40.8259 26.7585 41.7186 27.0933ZM43.1262 54.6978C42.9975 55.642 42.6112 55.642 42.4739 54.7064C41.6671 49.3846 42.3537 42.2775 42.7056 38.578C42.7915 37.6338 42.9632 37.6338 43.0404 38.578C43.9245 48.346 43.4867 52.1742 43.1262 54.6978ZM19.8479 22.8101C18.938 22.5526 18.981 22.2951 19.9337 22.3123C23.8392 22.3896 33.3239 22.7329 36.8088 24.2522C40.9203 26.0375 27.3069 24.9131 19.8479 22.8101ZM28.1739 79.7959C27.8992 80.7057 27.7189 80.68 27.779 79.7358C28.3713 70.9721 33.4098 66.6203 35.9762 64.9551C36.7745 64.44 36.9461 64.6718 36.3195 65.3842C31.3068 71.1094 29.0408 76.9977 28.1739 79.7959ZM43.0576 109.383C42.9546 109.744 42.6627 109.744 42.5597 109.383C41.9417 107.34 42.4653 103.958 42.74 102.542C42.8086 102.182 42.9288 102.182 42.9975 102.542C43.667 106.285 43.3322 108.413 43.0576 109.383ZM42.8086 99.4864C41.8645 99.4864 41.0919 99.0572 41.0919 98.5251C41.0919 97.9929 41.8645 97.5551 42.8086 97.5551C43.7528 97.5551 44.5253 97.9929 44.5253 98.5251C44.5253 99.0572 43.7528 99.4864 42.8086 99.4864ZM51.2805 74.8175C49.4093 75.1436 47.315 75.2982 45.2292 75.3497C44.285 75.3668 43.5297 76.1308 43.5382 77.0835C43.5726 79.6414 43.564 82.3023 43.5382 84.9288C43.5211 85.8816 44.285 86.6541 45.2292 86.6799C46.654 86.7142 47.8128 86.8 48.6712 86.8773C49.6239 86.9631 49.6325 87.2464 48.6883 87.3751C47.5896 87.5296 46.4137 87.6155 45.212 87.6584C44.2678 87.6841 43.4782 88.4566 43.461 89.4008C43.3065 96.7225 43.1176 96.9972 42.8687 97.4693C42.2679 97.8298 42.225 94.2162 42.1563 89.3922C42.1391 88.4395 41.358 87.6498 40.4053 87.6155C38.9118 87.5468 37.5813 87.4438 36.6028 87.3494C35.6586 87.2721 35.6586 87.0833 36.6028 86.9889C37.9504 86.8601 39.2122 86.7743 40.3967 86.7228C41.3495 86.6799 42.1134 85.8988 42.1048 84.946C42.0876 81.9761 42.1048 79.3496 42.1477 77.0664C42.1649 76.1222 41.4181 75.3325 40.4654 75.2982C37.8302 75.1866 35.5041 74.972 34.0192 74.8175C33.075 74.7145 33.075 74.5085 34.0192 74.3969C36.3539 74.1308 38.5255 73.9763 40.5083 73.899C41.461 73.8561 42.2507 73.075 42.2936 72.1223C42.4052 69.1781 42.5597 67.1267 42.6713 65.8306C42.7571 64.8864 42.946 64.8864 43.0404 65.8306C43.2207 67.6846 43.3408 69.8133 43.4266 72.1137C43.461 73.0579 44.2507 73.8304 45.1948 73.8475C47.8557 73.899 49.9329 74.0707 51.2633 74.2252C52.2075 74.3282 52.2161 74.6544 51.2805 74.8175ZM58.4992 79.7358C58.5593 80.68 58.3447 80.7143 58.0357 79.8131C57.0572 76.9805 54.6023 70.9463 49.9329 65.41C49.3235 64.6804 49.5037 64.44 50.302 64.9551C52.8685 66.6203 57.9069 70.9721 58.4992 79.7358ZM65.5204 22.8101C58.07 24.9131 44.4481 26.0375 48.5596 24.2522C52.0444 22.7329 61.5292 22.3896 65.4346 22.3123C66.3874 22.2951 66.4303 22.5526 65.5204 22.8101ZM94.9102 84.8859C94.172 86.4996 92.7557 89.0489 91.2708 88.8515H91.2622C89.494 88.8515 86.0263 84.8258 83.9921 82.2765C83.0994 81.1521 83.2539 81.0491 84.3354 82.0448C87.0649 84.534 90.1464 86.5254 91.3824 87.1262C91.4425 87.152 91.494 87.1777 91.5455 87.2035C92.3094 86.8429 93.3223 86.1133 94.5497 84.7228C95.0733 84.1306 95.2364 84.1907 94.9102 84.8859Z" fill="#FFEACA"/>
</g>
<defs>
<clipPath id="clip0_8984_53052">
<rect width="85" height="80" fill="white"/>
</clipPath>
</defs>
</svg>
