<svg width="85" height="80" viewBox="0 0 85 80" fill="none" xmlns="http://www.w3.org/2000/svg">
<g clip-path="url(#clip0_8985_53563)">
<path d="M25 0H61L72.5 28H14.5L25 0Z" fill="#FFEACA"/>
<path d="M112.5 34.2336C112.025 30.996 110.627 25.4193 109.296 22.2665C109.254 22.1817 109.212 22.097 109.161 22.0122C107.339 19.1815 106.516 13.0877 105.559 6.03622C104.847 0.756104 89.6924 10.4688 88.2855 4.78189C87.4465 1.38329 86.5396 -1.20168 85.726 -3.48154C84.2767 -7.57511 83.1325 -10.8126 83.1241 -16.7454C83.1241 -19.4236 82.2596 -40.9 81.8443 -44.7562C80.4035 -57.3506 74.3521 -62.0713 69.1059 -64.2664C67.3345 -65.0123 65.6565 -65.4699 64.275 -65.8428C63.7326 -65.9869 63.2156 -66.131 62.7918 -66.2666C61.7409 -66.5887 58.0117 -68.8855 54.1131 -71.6061C53.9266 -71.7332 53.3757 -72.1231 53.3757 -73.8181V-79.0643C57.0286 -81.8358 59.6814 -85.7683 61.2493 -90.7518C61.2578 -90.7602 61.2578 -90.7772 61.2662 -90.7942C62.3002 -94.3962 62.8257 -99.3203 63.08 -102.778C63.2495 -105.084 63.3003 -106.736 63.3088 -106.897V-106.948C63.3088 -108.813 63.1562 -110.584 62.8511 -112.262C62.8511 -112.279 62.8511 -112.296 62.8427 -112.313C62.0714 -116.635 60.3339 -120.297 57.6897 -123.068C54.7657 -126.128 50.9094 -127.958 46.6802 -128.323H46.6717C46.1548 -128.365 45.6378 -128.391 45.1038 -128.391H41.3238C36.4759 -128.391 32.0095 -126.501 28.738 -123.068C25.0597 -119.212 23.1104 -113.635 23.1104 -106.948V-106.897C23.1189 -106.677 23.2121 -103.736 23.5765 -100.134C23.8731 -97.0828 24.3647 -93.5486 25.1614 -90.7942C25.1614 -90.7772 25.1699 -90.7602 25.1699 -90.7518C26.7463 -85.7683 29.3906 -81.8442 33.0519 -79.0643V-73.8181C33.0519 -72.1231 32.4926 -71.7332 32.3061 -71.6061C28.4159 -68.8855 24.6783 -66.5887 23.6358 -66.2666C23.2036 -66.131 22.6951 -65.9869 22.1527 -65.8428C20.5424 -65.4021 18.5337 -64.8597 16.4403 -63.885C11.4145 -61.5289 5.93094 -56.6641 4.57489 -44.7647C4.16808 -40.9085 3.29511 -19.432 3.29511 -16.7454C3.28663 -10.8126 2.14248 -7.57511 0.693197 -3.48154C-0.111958 -1.20168 -5.60396 -1.30544 -6.44301 2.09315C-7.84144 7.78009 -4.0784 16.4524 -4.7988 21.7325C-5.74804 28.784 -6.57862 34.8777 -8.39234 37.7085C-8.45166 37.7932 -8.49404 37.878 -8.52794 37.9628C-9.86704 41.1156 -11.2655 46.6923 -11.7401 49.9299C-11.9604 51.447 -11.1977 59.3375 -10.9773 60.5749C-10.9519 60.7274 -10.9349 60.9393 -10.901 61.1597C-10.7315 62.6513 -10.4942 64.6854 -8.8161 65.2702C-8.66355 65.321 -8.511 65.355 -8.35844 65.3634C-8.28216 65.3634 -8.20588 65.3634 -8.1296 65.3634C-4.46827 65.3634 -20.69 31.6232 -19.6136 26.733C-19.4695 26.0549 -19.2916 25.2582 -19.1051 24.4785C-19.0712 26.0464 -18.8508 27.7669 -18.122 28.6483C-17.7406 29.106 -17.3083 29.462 -16.8507 29.6993C-16.4439 29.8943 -16.037 29.9959 -15.6302 29.9959C-15.2234 29.9959 -13.7741 29.8519 -13.1385 27.9703C-13.1046 27.8686 -13.0792 27.7669 -13.0622 27.6568C-12.6723 24.826 -11.9774 20.0205 -11.7401 19.1476C-10.4433 14.2997 -11.3502 11.8588 -12.0028 10.079C-12.4774 8.79071 -12.7401 8.08728 -12.2147 6.59563C-12.2147 6.57867 -12.2062 6.56172 -12.1977 6.54477C-10.0704 -0.167679 -6.50234 1.53584 -4.7988 -3.48154C0.193155 -18.1862 18.9066 -5.77832 19.3982 -18.0251C19.7118 -20.5338 19.8898 -22.8815 19.9999 -24.8901C19.9999 -24.9918 19.9999 -25.0936 20.0169 -25.1953C20.1356 -24.9495 20.2542 -24.7122 20.3559 -24.4918C20.6271 -23.9409 20.8559 -23.4832 21.017 -23.1697C23.7969 -17.8387 24.1952 -6.80382 24.3393 -2.65092C24.3563 -2.10002 24.3732 -1.6339 24.3902 -1.28641C24.5258 1.40874 22.7883 4.92601 20.5932 9.37555C17.9659 14.698 14.6944 21.3257 13.1434 29.6824C10.6347 43.2683 10.8805 54.6761 14.0079 69.0502C15.8555 77.5594 21.195 107.715 20.8136 112.783C20.4407 115.249 20.2711 120.343 20.144 124.08C20.1101 125.08 20.0847 125.962 20.0508 126.623C19.5338 138.649 21.1526 147.608 24.7037 163.83C25.1699 165.94 25.6021 167.805 25.992 169.44C27.2294 174.703 27.9752 177.882 27.8396 181.746C27.7887 183.263 27.5514 183.95 27.4158 184.221C26.7208 185.611 26.5768 186.832 26.4412 187.908C26.3564 188.611 26.2717 189.272 26.0428 189.967C25.6869 191.086 24.9326 192.078 24.0511 193.23C23.6952 193.705 23.3223 194.188 22.9493 194.731C21.712 195.951 21.1441 197.231 21.2628 198.544C21.4238 200.333 22.8307 201.299 22.9917 201.409C23.1188 201.485 23.2544 201.553 23.3901 201.596C24.1952 201.867 25.2885 201.943 27.8735 201.943C33.1451 201.943 35.5521 201.943 39.4847 201.57C39.561 201.562 39.6372 201.553 39.705 201.536C42.5782 200.875 42.2392 197.273 41.9934 194.637C41.9256 193.858 41.8239 192.781 41.9002 192.434C41.951 192.179 42.0951 191.9 42.2815 191.552C42.629 190.908 43.0613 190.103 43.2138 188.916C43.3579 190.103 43.7901 190.908 44.1376 191.552C44.3241 191.9 44.4766 192.179 44.5275 192.434C44.6038 192.781 44.5021 193.858 44.4258 194.646C44.18 197.273 43.8495 200.875 46.7141 201.536C46.7904 201.553 46.8582 201.562 46.9345 201.57C50.867 201.943 53.274 201.943 58.5541 201.943C61.1391 201.943 62.224 201.867 63.0291 201.596C63.1732 201.553 63.3088 201.485 63.4359 201.409C63.5885 201.299 64.9954 200.333 65.1564 198.544C65.275 197.231 64.7072 195.951 63.4783 194.731C63.0969 194.188 62.7325 193.705 62.368 193.23C61.4951 192.078 60.7323 191.086 60.3763 189.967C60.1475 189.272 60.0712 188.611 59.9865 187.908C59.8509 186.832 59.6983 185.611 59.0033 184.221C58.8677 183.95 58.6304 183.263 58.5796 181.746C58.444 177.882 59.1983 174.703 60.4357 169.44C60.8171 167.796 61.2578 165.94 61.7154 163.83C65.2751 147.608 66.8854 138.649 66.3684 126.623C66.343 125.97 66.309 125.089 66.2751 124.089C66.148 120.351 65.9785 115.249 65.6056 112.783C65.2158 107.63 70.5382 77.1102 72.4113 69.0756C75.3353 56.5576 76.5981 45.065 73.2673 29.6315C71.5468 21.6562 68.4363 15.1727 65.9361 9.96034C63.6732 5.24808 61.8934 1.52739 62.029 -1.28641C62.046 -1.6339 62.0629 -2.10002 62.0799 -2.65092C62.2324 -6.80382 62.6223 -17.8387 65.3937 -23.1358C65.5548 -23.4578 65.7836 -23.9239 66.0548 -24.4748C66.165 -24.7037 66.2836 -24.941 66.4108 -25.1953C66.4192 -25.0936 66.4192 -24.9918 66.4277 -24.8901C66.5379 -22.8815 66.7074 -20.5338 67.021 -18.0251C67.5041 -5.9902 70.2077 -19.6948 74.9708 -5.64275C76.7167 -0.481285 93.0407 -10.3381 95.1765 -3.48154C95.1765 -3.46458 95.6426 19.5629 95.6511 19.5798C96.1766 21.0715 95.9138 21.7749 95.4392 23.0631C94.7782 24.843 93.8797 27.2839 95.1765 32.1402C95.4053 33.0047 96.1088 37.8102 96.4986 40.6409C96.5071 40.7511 96.5325 40.8528 96.5664 40.9545C97.2021 42.836 98.6429 42.9801 99.0667 42.9801C99.4904 42.9801 99.8803 42.8784 100.27 42.6835C100.736 42.4462 101.169 42.0902 101.55 41.6241C102.287 40.7511 102.508 39.0306 102.533 37.4712C102.728 38.2424 102.897 39.0391 103.05 39.7171C104.118 44.6074 105.228 49.6671 108.898 49.6671C108.974 49.6671 109.051 49.6671 109.127 49.6671C109.279 49.6587 109.432 49.6247 109.576 49.5739C111.263 48.9891 111.491 46.9466 111.669 45.4634C111.695 45.2345 111.72 45.0311 111.746 44.8786C111.966 43.6412 112.72 35.7507 112.5 34.2336ZM43.2138 187.06C43.1884 186.882 43.1714 186.704 43.1375 186.518C42.3832 181.89 42.4256 178.738 42.4934 173.958C42.5697 169.05 42.6544 162.94 41.9425 152.413C40.9848 138.175 40.7983 128.674 41.3492 122.529C41.4509 121.445 41.5866 120.275 41.7306 119.029C42.1968 115.088 42.7646 110.189 42.7138 103.299C42.6629 95.8576 42.8918 87.3653 43.1375 79.0087C43.4511 87.2806 43.7647 95.7813 43.7054 103.299C43.6545 110.198 44.2309 115.097 44.6885 119.038C44.8326 120.275 44.9767 121.453 45.0699 122.529C45.6293 128.674 45.4428 138.175 44.4766 152.413C43.7647 162.94 43.8579 169.05 43.9257 173.958C43.9935 178.738 44.0444 181.899 43.2901 186.518C43.2562 186.704 43.2308 186.882 43.2138 187.06ZM43.2647 41.9462C43.2647 41.3275 43.2901 40.7681 43.324 40.268C43.324 40.7681 43.307 41.3275 43.2647 41.9462ZM109.881 46.0736C109.754 46.9381 109.534 47.7941 109.017 47.9806H108.898C104.618 47.9806 104.898 32.5047 101.745 32.5047C101.618 32.5047 101.482 32.5301 101.347 32.5894C101.236 32.6233 101.135 32.6657 101.05 32.7165C100.321 33.081 100.533 33.4962 100.694 34.5048C100.897 35.6829 101.016 39.6409 100.253 40.5562C100.024 40.8274 99.7701 41.0477 99.5158 41.1749C99.3633 41.2512 99.2107 41.2935 99.0667 41.2935C98.7107 41.2935 98.3886 41.0393 98.1767 40.4206C98.1767 40.4206 97.1597 32.9962 96.8122 31.708C94.7104 23.8513 98.8717 23.6225 97.2444 19.0204C89.3285 -6.32077 69.3517 -1.93055 68.716 -18.1523C68.2668 -21.6865 68.1058 -24.8817 68.0126 -27.2971C67.8939 -30.1025 67.877 -31.8484 67.6143 -31.8484C67.2668 -30.6788 63.8936 -23.9155 63.8936 -23.9155C63.6393 -23.4324 63.402 -22.9069 63.1901 -22.356C60.5713 -15.669 60.4865 -4.34602 60.334 -1.36271C60.0543 4.4005 66.2074 12.291 69.9958 24.0209C70.0382 24.1565 70.0806 24.2921 70.1229 24.4277C70.6823 26.1906 71.1824 28.0466 71.6061 29.9959C72.0638 32.0978 72.4282 34.1234 72.7164 36.0982C74.3945 47.5992 73.4029 57.3712 70.7586 68.7027C69.0296 76.1101 63.4529 107.545 63.919 112.986C64.3851 115.978 64.5462 123.674 64.6733 126.708C65.1903 138.692 63.5546 147.523 60.0628 163.482C58.1389 172.254 56.6981 176.441 56.8845 181.814C56.9269 183.119 57.1133 184.23 57.4947 184.992C58.4694 186.942 58.1134 188.484 58.766 190.501C59.3847 192.442 60.8171 193.875 62.1816 195.841C64.8937 198.426 62.5036 199.994 62.5036 199.994C61.9104 200.189 60.9018 200.256 58.5541 200.256C57.5032 200.256 56.5709 200.256 55.7234 200.248C55.3081 200.256 54.9098 200.248 54.5284 200.248C53.5537 200.239 52.6808 200.223 51.8502 200.206C51.3756 200.189 50.9179 200.163 50.4602 200.138C49.4008 200.087 48.3329 200.011 47.0955 199.892C44.9597 199.4 46.5701 193.883 46.1887 192.086C45.8751 190.662 44.6292 189.959 44.8835 187.34C44.9004 187.162 44.9258 186.984 44.9597 186.789C45.1377 185.679 45.2733 184.653 45.375 183.662C46.1632 176.119 44.9174 170.991 46.1717 152.532C47.2989 135.827 47.2142 127.428 46.7565 122.377C46.3497 117.876 45.3326 112.317 45.4005 103.307C45.5445 84.06 43.2986 58.812 44.6631 45.1922C44.6801 44.9973 44.7055 44.8108 44.7224 44.6243C44.7309 44.548 44.7394 44.4802 44.7479 44.404C44.7648 44.2853 44.7733 44.1667 44.7902 44.048C45.4513 37.861 44.5868 35.0981 43.5783 35.0981C42.4934 35.0981 41.2475 38.3611 41.6459 44.065C41.6544 44.1752 41.6628 44.2853 41.6713 44.404C41.6798 44.4718 41.6798 44.5396 41.6883 44.6074C41.7052 44.8024 41.7137 44.9803 41.7306 45.1752C42.6036 57.9306 40.8746 84.0854 41.0187 103.307C41.0865 112.317 40.0695 117.876 39.6627 122.377C39.205 127.428 39.1287 135.827 40.2559 152.532C41.5103 171.178 40.239 176.22 41.0696 183.899C41.1713 184.823 41.2984 185.772 41.4679 186.789C41.5781 187.467 41.595 188.027 41.5611 188.501C41.4086 190.213 40.4848 190.908 40.239 192.086C39.8576 193.883 41.4679 199.4 39.3237 199.892C38.1625 200.002 37.1455 200.078 36.1454 200.129C35.6877 200.155 35.2301 200.18 34.7554 200.197C33.9164 200.223 33.0519 200.239 32.0857 200.248H30.8907C29.9923 200.256 29.0007 200.256 27.8735 200.256C25.5258 200.256 24.5088 200.189 23.9155 199.994C23.9155 199.994 21.5255 198.426 24.2461 195.841C25.6021 193.875 27.0344 192.442 27.6616 190.501C28.3057 188.484 27.9583 186.942 28.9329 184.992C29.3143 184.23 29.4923 183.119 29.5347 181.814C29.7211 176.441 28.2803 172.254 26.3564 163.482C22.8646 147.523 21.2289 138.692 21.7459 126.708C21.8815 123.674 22.034 115.978 22.5002 112.986C22.9748 107.545 17.2794 76.1356 15.6606 68.7027C13.2451 57.6001 12.3976 47.7009 13.8638 36.0897C13.8808 35.9456 13.8977 35.8016 13.9232 35.6575C13.9401 35.5473 13.9486 35.4286 13.9655 35.3185C14.1944 33.6064 14.474 31.8351 14.8131 29.9959C14.8893 29.5976 14.9656 29.2078 15.0504 28.8179C15.1182 28.4704 15.1944 28.1229 15.2792 27.7754C15.2792 27.7161 15.3046 27.6568 15.3216 27.5975C15.3979 27.25 15.4826 26.9025 15.5758 26.555C15.6691 26.1651 15.7708 25.7753 15.8809 25.3939C15.9742 25.0548 16.0674 24.7243 16.1606 24.4023C16.203 24.2666 16.2454 24.1226 16.2878 23.9955C19.8898 12.1893 26.3734 4.40898 26.0852 -1.36271C25.9327 -4.34602 25.8479 -15.6605 23.2375 -22.3475C23.0256 -22.9069 22.7883 -23.4324 22.5341 -23.9155C22.5341 -23.9155 19.1609 -30.6788 18.8134 -31.8484C18.5507 -31.8484 18.5252 -30.1025 18.4151 -27.3056C18.3218 -24.8817 18.1608 -21.6865 17.7116 -18.1523C17.076 -1.93055 -5.56155 -19.9999 -13.8165 6.03622C-15.4438 10.6383 -11.2739 10.8672 -13.3843 18.7238C-13.7233 20.012 -14.7403 27.4364 -14.7403 27.4364C-14.9522 28.0551 -15.2743 28.3094 -15.6302 28.3094C-15.7743 28.3094 -15.9269 28.267 -16.0794 28.1907C-16.3337 28.0636 -16.5879 27.8432 -16.8168 27.572C-17.5796 26.6567 -17.4609 22.6987 -17.266 21.5206C-17.0965 20.5121 -16.8846 20.0968 -17.6219 19.7324C-17.7067 19.6815 -17.7999 19.6391 -17.9186 19.6052C-18.0542 19.5459 -18.1898 19.5205 -18.3169 19.5205C-21.4612 19.5205 -3.85805 63.6769 -8.1296 63.6769H-8.24826C-8.76525 63.4904 -8.98561 62.6259 -9.12121 61.7614C-9.20597 61.2021 -9.24834 60.6342 -9.31614 60.2783C-9.40089 59.7867 -9.5365 58.5916 -9.66363 57.1763C-9.91789 54.4472 -10.1722 50.9384 -10.062 50.1756C-9.61278 47.0991 -8.25674 41.675 -6.96849 38.6239C-3.46819 33.1742 -8.07027 15.7554 -4.7988 2.5C-2.47657 -6.89912 4.97322 -7.12589 4.99017 -16.7454C4.99017 -19.3812 5.85465 -40.7305 6.26147 -44.5698C7.47344 -55.2148 12.1264 -59.7915 16.6352 -62.0798C16.8132 -62.1815 16.9912 -62.2662 17.1692 -62.3425C17.8811 -62.6815 18.593 -62.9612 19.2711 -63.207C19.7965 -63.4019 20.3135 -63.563 20.8136 -63.7155C20.9576 -63.7579 21.1017 -63.8003 21.2458 -63.8342C21.7204 -63.9698 22.1696 -64.0969 22.5934 -64.2071C22.7968 -64.2664 22.9917 -64.3173 23.1782 -64.3681C23.3477 -64.419 23.5172 -64.4613 23.6782 -64.5122C23.746 -64.5291 23.8138 -64.5546 23.8816 -64.5715C23.9664 -64.597 24.0511 -64.6224 24.1359 -64.6478C25.7292 -65.1394 30.3483 -68.1736 33.2808 -70.2161C34.4334 -71.0213 34.747 -72.4112 34.747 -73.8181V-79.9288C34.2046 -80.3102 33.6791 -80.7085 33.1875 -81.1323C32.8146 -81.4544 32.4502 -81.7849 32.1027 -82.1409C31.9247 -82.3189 31.7552 -82.4968 31.5857 -82.6833C31.4162 -82.8612 31.2552 -83.0477 31.0941 -83.2342C30.9331 -83.4206 30.7721 -83.6071 30.628 -83.802C30.4669 -83.9969 30.3229 -84.1919 30.1788 -84.3953C30.1025 -84.497 30.0262 -84.5987 29.9584 -84.7004C29.8821 -84.8021 29.8143 -84.9038 29.7465 -85.0055C29.6025 -85.2089 29.4669 -85.4123 29.3397 -85.6242C29.077 -86.0565 28.8227 -86.4887 28.5854 -86.9379C28.4583 -87.1582 28.3481 -87.3871 28.2379 -87.6159C28.1023 -87.8871 27.9752 -88.1668 27.8481 -88.455C27.7548 -88.6414 27.6786 -88.8364 27.6023 -89.0313C27.4752 -89.311 27.365 -89.5991 27.2633 -89.8958C27.1955 -90.0568 27.1362 -90.2178 27.0853 -90.3789C26.9836 -90.667 26.8819 -90.9637 26.7887 -91.2603C26.5344 -92.1333 26.314 -93.091 26.1276 -94.0995C26.0089 -94.7013 25.8988 -95.3115 25.8055 -95.9387C25.6275 -97.0913 25.475 -98.2609 25.3563 -99.3966C25.297 -99.8882 25.2546 -100.371 25.2038 -100.837C25.0851 -102.126 25.0004 -103.312 24.9411 -104.278C24.9241 -104.6 24.9072 -104.897 24.8902 -105.177C24.8732 -105.448 24.8563 -105.702 24.8478 -105.914C24.8393 -106.024 24.8393 -106.126 24.8309 -106.219C24.8139 -106.685 24.8054 -106.948 24.8054 -106.948C24.8054 -120.492 33.0519 -126.696 41.3238 -126.696H45.1038C53.3673 -126.696 61.6137 -120.492 61.6137 -106.948C61.6137 -106.948 61.6053 -106.626 61.5798 -106.067C61.5798 -105.999 61.5714 -105.923 61.5714 -105.846C61.5629 -105.685 61.5544 -105.516 61.5374 -105.321C61.5205 -105.024 61.4951 -104.685 61.4781 -104.304C61.4781 -104.134 61.4612 -103.948 61.4442 -103.753C61.4103 -103.27 61.3764 -102.736 61.3256 -102.168C61.3256 -101.965 61.3001 -101.761 61.2747 -101.549C61.2154 -100.837 61.1391 -100.083 61.0543 -99.3034C60.995 -98.7609 60.9357 -98.2101 60.8594 -97.6507C60.8171 -97.3117 60.7662 -96.9727 60.7153 -96.6336C60.673 -96.2862 60.6221 -95.9471 60.5628 -95.6081C60.4526 -94.9301 60.3339 -94.269 60.2068 -93.6249C60.1221 -93.2096 60.0373 -92.7943 59.9356 -92.4045C59.8424 -92.0146 59.7407 -91.6247 59.639 -91.2603C59.5288 -90.9128 59.4101 -90.5653 59.283 -90.2263C59.283 -90.2094 59.2745 -90.1924 59.2661 -90.1755C59.2152 -90.0229 59.1644 -89.8788 59.105 -89.7347C58.9694 -89.3703 58.8253 -89.0228 58.6728 -88.6753C58.5711 -88.438 58.4694 -88.2007 58.3592 -87.9719C57.9778 -87.1582 57.554 -86.387 57.0879 -85.6412C56.9608 -85.4293 56.8252 -85.2174 56.6811 -85.014C56.5455 -84.8106 56.4099 -84.6072 56.2573 -84.4123C56.1217 -84.2173 55.9777 -84.0308 55.8251 -83.8444C55.6725 -83.641 55.5115 -83.4461 55.342 -83.2511C55.0284 -82.8698 54.6894 -82.5053 54.3419 -82.1493C54.1385 -81.9544 53.9351 -81.751 53.7232 -81.5646C53.5791 -81.429 53.4351 -81.2933 53.2825 -81.1662C53.274 -81.1662 53.274 -81.1577 53.2655 -81.1492C53.2401 -81.1323 53.2232 -81.1153 53.1977 -81.0984C53.0198 -80.9458 52.8333 -80.8018 52.6553 -80.6577C52.5112 -80.5306 52.3587 -80.4119 52.1977 -80.3017C52.0282 -80.1746 51.8586 -80.0474 51.6807 -79.9288V-73.8181C51.6807 -72.4112 51.9943 -71.0213 53.1469 -70.2161C56.0709 -68.1736 60.6984 -65.1394 62.2833 -64.6478C62.368 -64.6224 62.4528 -64.597 62.5375 -64.5715C62.6053 -64.5546 62.6731 -64.5291 62.741 -64.5122C62.9613 -64.4444 63.1901 -64.3851 63.4275 -64.3173C63.5885 -64.2749 63.758 -64.2325 63.9275 -64.1817C64.3513 -64.0715 64.8004 -63.9444 65.2666 -63.8088C65.3768 -63.7834 65.487 -63.7494 65.6056 -63.7155C65.7836 -63.6647 65.9616 -63.6054 66.1395 -63.5461C66.4362 -63.4528 66.7328 -63.3511 67.0464 -63.2409C67.3515 -63.1392 67.6651 -63.0206 67.9787 -62.8934C68.2923 -62.7748 68.6059 -62.6392 68.9279 -62.4951C73.691 -60.3509 78.8695 -55.8928 80.1577 -44.5698C80.573 -40.7305 81.429 -19.3812 81.429 -16.7454C81.446 -7.12589 84.3191 -4.21038 86.6413 5.18874C89.9128 18.4441 104.237 17.4779 107.737 22.9276C109.025 25.9787 110.373 31.4028 110.822 34.4794C110.932 35.2421 110.686 38.7509 110.432 41.4715C110.296 42.8869 110.161 44.0904 110.076 44.582C110.017 44.9379 109.974 45.5058 109.881 46.0651V46.0736Z" fill="#333333"/>
<path d="M112.5 34.2336C112.025 30.996 110.627 25.4193 109.296 22.2665C109.254 22.1817 109.212 22.097 109.161 22.0122C107.339 19.1815 106.516 13.0877 105.559 6.03622C104.847 0.756104 89.6924 10.4688 88.2855 4.78189C87.4465 1.38329 86.5396 -1.20168 85.726 -3.48154C84.2767 -7.57511 83.1325 -10.8126 83.1241 -16.7454C83.1241 -19.4236 82.2596 -40.9 81.8443 -44.7562C80.4035 -57.3506 74.3521 -62.0713 69.1059 -64.2664C67.3345 -65.0123 65.6565 -65.4699 64.275 -65.8428C63.7326 -65.9869 63.2156 -66.131 62.7918 -66.2666C61.7409 -66.5887 58.0117 -68.8855 54.1131 -71.6061C53.9266 -71.7332 53.3757 -72.1231 53.3757 -73.8181V-79.0643C57.0286 -81.8358 59.6814 -85.7683 61.2493 -90.7518C61.2578 -90.7602 61.2578 -90.7772 61.2662 -90.7942C62.3002 -94.3962 62.8257 -99.3203 63.08 -102.778C63.2495 -105.084 63.3003 -106.736 63.3088 -106.897V-106.948C63.3088 -108.813 63.1562 -110.584 62.8511 -112.262C62.8511 -112.279 62.8511 -112.296 62.8427 -112.313C62.0714 -116.635 60.3339 -120.297 57.6897 -123.068C54.7657 -126.128 50.9094 -127.958 46.6802 -128.323H46.6717C46.1548 -128.365 45.6378 -128.391 45.1038 -128.391H41.3238C36.4759 -128.391 32.0095 -126.501 28.738 -123.068C25.0597 -119.212 23.1104 -113.635 23.1104 -106.948V-106.897C23.1189 -106.677 23.2121 -103.736 23.5765 -100.134C23.8731 -97.0828 24.3647 -93.5486 25.1614 -90.7942C25.1614 -90.7772 25.1699 -90.7602 25.1699 -90.7518C26.7463 -85.7683 29.3906 -81.8442 33.0519 -79.0643V-73.8181C33.0519 -72.1231 32.4926 -71.7332 32.3061 -71.6061C28.4159 -68.8855 24.6783 -66.5887 23.6358 -66.2666C23.2036 -66.131 22.6951 -65.9869 22.1527 -65.8428C20.5424 -65.4021 18.5337 -64.8597 16.4403 -63.885C11.4145 -61.5289 5.93094 -56.6641 4.57489 -44.7647C4.16808 -40.9085 3.29511 -19.432 3.29511 -16.7454C3.28663 -10.8126 2.14248 -7.57511 0.693197 -3.48154C-0.111958 -1.20168 -5.60396 -1.30544 -6.44301 2.09315C-7.84144 7.78009 -4.0784 16.4524 -4.7988 21.7325C-5.74804 28.784 -6.57862 34.8777 -8.39234 37.7085C-8.45166 37.7932 -8.49404 37.878 -8.52794 37.9628C-9.86704 41.1156 -11.2655 46.6923 -11.7401 49.9299C-11.9604 51.447 -11.1977 59.3375 -10.9773 60.5749C-10.9519 60.7274 -10.9349 60.9393 -10.901 61.1597C-10.7315 62.6513 -10.4942 64.6854 -8.8161 65.2702C-8.66355 65.321 -8.511 65.355 -8.35844 65.3634C-8.28216 65.3634 -8.20588 65.3634 -8.1296 65.3634C-4.46827 65.3634 -20.69 31.6232 -19.6136 26.733C-19.4695 26.0549 -19.2916 25.2582 -19.1051 24.4785C-19.0712 26.0464 -18.8508 27.7669 -18.122 28.6483C-17.7406 29.106 -17.3083 29.462 -16.8507 29.6993C-16.4439 29.8943 -16.037 29.9959 -15.6302 29.9959C-15.2234 29.9959 -13.7741 29.8519 -13.1385 27.9703C-13.1046 27.8686 -13.0792 27.7669 -13.0622 27.6568C-12.6723 24.826 -11.9774 20.0205 -11.7401 19.1476C-10.4433 14.2997 -11.3502 11.8588 -12.0028 10.079C-12.4774 8.79071 -12.7401 8.08728 -12.2147 6.59563C-12.2147 6.57867 -12.2062 6.56172 -12.1977 6.54477C-10.0704 -0.167679 -6.50234 1.53584 -4.7988 -3.48154C0.193155 -18.1862 18.9066 -5.77832 19.3982 -18.0251C19.7118 -20.5338 19.8898 -22.8815 19.9999 -24.8901C19.9999 -24.9918 19.9999 -25.0936 20.0169 -25.1953C20.1356 -24.9495 20.2542 -24.7122 20.3559 -24.4918C20.6271 -23.9409 20.8559 -23.4832 21.017 -23.1697C23.7969 -17.8387 24.1952 -6.80382 24.3393 -2.65092C24.3563 -2.10002 24.3732 -1.6339 24.3902 -1.28641C24.5258 1.40874 22.7883 4.92601 20.5932 9.37555C17.9659 14.698 14.6944 21.3257 13.1434 29.6824C10.6347 43.2683 10.8805 54.6761 14.0079 69.0502C15.8555 77.5594 21.195 107.715 20.8136 112.783C20.4407 115.249 20.2711 120.343 20.144 124.08C20.1101 125.08 20.0847 125.962 20.0508 126.623C19.5338 138.649 21.1526 147.608 24.7037 163.83C25.1699 165.94 25.6021 167.805 25.992 169.44C27.2294 174.703 27.9752 177.882 27.8396 181.746C27.7887 183.263 27.5514 183.95 27.4158 184.221C26.7208 185.611 26.5768 186.832 26.4412 187.908C26.3564 188.611 26.2717 189.272 26.0428 189.967C25.6869 191.086 24.9326 192.078 24.0511 193.23C23.6952 193.705 23.3223 194.188 22.9493 194.731C21.712 195.951 21.1441 197.231 21.2628 198.544C21.4238 200.333 22.8307 201.299 22.9917 201.409C23.1188 201.485 23.2544 201.553 23.3901 201.596C24.1952 201.867 25.2885 201.943 27.8735 201.943C33.1451 201.943 35.5521 201.943 39.4847 201.57C39.561 201.562 39.6372 201.553 39.705 201.536C42.5782 200.875 42.2392 197.273 41.9934 194.637C41.9256 193.858 41.8239 192.781 41.9002 192.434C41.951 192.179 42.0951 191.9 42.2815 191.552C42.629 190.908 43.0613 190.103 43.2138 188.916C43.3579 190.103 43.7901 190.908 44.1376 191.552C44.3241 191.9 44.4766 192.179 44.5275 192.434C44.6038 192.781 44.5021 193.858 44.4258 194.646C44.18 197.273 43.8495 200.875 46.7141 201.536C46.7904 201.553 46.8582 201.562 46.9345 201.57C50.867 201.943 53.274 201.943 58.5541 201.943C61.1391 201.943 62.224 201.867 63.0291 201.596C63.1732 201.553 63.3088 201.485 63.4359 201.409C63.5885 201.299 64.9954 200.333 65.1564 198.544C65.275 197.231 64.7072 195.951 63.4783 194.731C63.0969 194.188 62.7325 193.705 62.368 193.23C61.4951 192.078 60.7323 191.086 60.3763 189.967C60.1475 189.272 60.0712 188.611 59.9865 187.908C59.8509 186.832 59.6983 185.611 59.0033 184.221C58.8677 183.95 58.6304 183.263 58.5796 181.746C58.444 177.882 59.1983 174.703 60.4357 169.44C60.8171 167.796 61.2578 165.94 61.7154 163.83C65.2751 147.608 66.8854 138.649 66.3684 126.623C66.343 125.97 66.309 125.089 66.2751 124.089C66.148 120.351 65.9785 115.249 65.6056 112.783C65.2158 107.63 70.5382 77.1102 72.4113 69.0756C75.3353 56.5576 76.5981 45.065 73.2673 29.6315C71.5468 21.6562 68.4363 15.1727 65.9361 9.96034C63.6732 5.24808 61.8934 1.52739 62.029 -1.28641C62.046 -1.6339 62.0629 -2.10002 62.0799 -2.65092C62.2324 -6.80382 62.6223 -17.8387 65.3937 -23.1358C65.5548 -23.4578 65.7836 -23.9239 66.0548 -24.4748C66.165 -24.7037 66.2836 -24.941 66.4108 -25.1953C66.4192 -25.0936 66.4192 -24.9918 66.4277 -24.8901C66.5379 -22.8815 66.7074 -20.5338 67.021 -18.0251C67.5041 -5.9902 70.2077 -19.6948 74.9708 -5.64275C76.7167 -0.481285 93.0407 -10.3381 95.1765 -3.48154C95.1765 -3.46458 95.6426 19.5629 95.6511 19.5798C96.1766 21.0715 95.9138 21.7749 95.4392 23.0631C94.7782 24.843 93.8797 27.2839 95.1765 32.1402C95.4053 33.0047 96.1088 37.8102 96.4986 40.6409C96.5071 40.7511 96.5325 40.8528 96.5664 40.9545C97.2021 42.836 98.6429 42.9801 99.0667 42.9801C99.4904 42.9801 99.8803 42.8784 100.27 42.6835C100.736 42.4462 101.169 42.0902 101.55 41.6241C102.287 40.7511 102.508 39.0306 102.533 37.4712C102.728 38.2424 102.897 39.0391 103.05 39.7171C104.118 44.6074 105.228 49.6671 108.898 49.6671C108.974 49.6671 109.051 49.6671 109.127 49.6671C109.279 49.6587 109.432 49.6247 109.576 49.5739C111.263 48.9891 111.491 46.9466 111.669 45.4634C111.695 45.2345 111.72 45.0311 111.746 44.8786C111.966 43.6412 112.72 35.7507 112.5 34.2336ZM43.2138 187.06C43.1884 186.882 43.1714 186.704 43.1375 186.518C42.3832 181.89 42.4256 178.738 42.4934 173.958C42.5697 169.05 42.6544 162.94 41.9425 152.413C40.9848 138.175 40.7983 128.674 41.3492 122.529C41.4509 121.445 41.5866 120.275 41.7306 119.029C42.1968 115.088 42.7646 110.189 42.7138 103.299C42.6629 95.8576 42.8918 87.3653 43.1375 79.0087C43.4511 87.2806 43.7647 95.7813 43.7054 103.299C43.6545 110.198 44.2309 115.097 44.6885 119.038C44.8326 120.275 44.9767 121.453 45.0699 122.529C45.6293 128.674 45.4428 138.175 44.4766 152.413C43.7647 162.94 43.8579 169.05 43.9257 173.958C43.9935 178.738 44.0444 181.899 43.2901 186.518C43.2562 186.704 43.2308 186.882 43.2138 187.06ZM43.2647 41.9462C43.2647 41.3275 43.2901 40.7681 43.324 40.268C43.324 40.7681 43.307 41.3275 43.2647 41.9462ZM109.881 46.0736C109.754 46.9381 109.534 47.7941 109.017 47.9806H108.898C104.618 47.9806 104.898 32.5047 101.745 32.5047C101.618 32.5047 101.482 32.5301 101.347 32.5894C101.236 32.6233 101.135 32.6657 101.05 32.7165C100.321 33.081 100.533 33.4962 100.694 34.5048C100.897 35.6829 101.016 39.6409 100.253 40.5562C100.024 40.8274 99.7701 41.0477 99.5158 41.1749C99.3633 41.2512 99.2107 41.2935 99.0667 41.2935C98.7107 41.2935 98.3886 41.0393 98.1767 40.4206C98.1767 40.4206 97.1597 32.9962 96.8122 31.708C94.7104 23.8513 98.8717 23.6225 97.2444 19.0204C89.3285 -6.32077 69.3517 -1.93055 68.716 -18.1523C68.2668 -21.6865 68.1058 -24.8817 68.0126 -27.2971C67.8939 -30.1025 67.877 -31.8484 67.6143 -31.8484C67.2668 -30.6788 63.8936 -23.9155 63.8936 -23.9155C63.6393 -23.4324 63.402 -22.9069 63.1901 -22.356C60.5713 -15.669 60.4865 -4.34602 60.334 -1.36271C60.0543 4.4005 66.2074 12.291 69.9958 24.0209C70.0382 24.1565 70.0806 24.2921 70.1229 24.4277C70.6823 26.1906 71.1824 28.0466 71.6061 29.9959C72.0638 32.0978 72.4282 34.1234 72.7164 36.0982C74.3945 47.5992 73.4029 57.3712 70.7586 68.7027C69.0296 76.1101 63.4529 107.545 63.919 112.986C64.3851 115.978 64.5462 123.674 64.6733 126.708C65.1903 138.692 63.5546 147.523 60.0628 163.482C58.1389 172.254 56.6981 176.441 56.8845 181.814C56.9269 183.119 57.1133 184.23 57.4947 184.992C58.4694 186.942 58.1134 188.484 58.766 190.501C59.3847 192.442 60.8171 193.875 62.1816 195.841C64.8937 198.426 62.5036 199.994 62.5036 199.994C61.9104 200.189 60.9018 200.256 58.5541 200.256C57.5032 200.256 56.5709 200.256 55.7234 200.248C55.3081 200.256 54.9098 200.248 54.5284 200.248C53.5537 200.239 52.6808 200.223 51.8502 200.206C51.3756 200.189 50.9179 200.163 50.4602 200.138C49.4008 200.087 48.3329 200.011 47.0955 199.892C44.9597 199.4 46.5701 193.883 46.1887 192.086C45.8751 190.662 44.6292 189.959 44.8835 187.34C44.9004 187.162 44.9258 186.984 44.9597 186.789C45.1377 185.679 45.2733 184.653 45.375 183.662C46.1632 176.119 44.9174 170.991 46.1717 152.532C47.2989 135.827 47.2142 127.428 46.7565 122.377C46.3497 117.876 45.3326 112.317 45.4005 103.307C45.5445 84.06 43.2986 58.812 44.6631 45.1922C44.6801 44.9973 44.7055 44.8108 44.7224 44.6243C44.7309 44.548 44.7394 44.4802 44.7479 44.404C44.7648 44.2853 44.7733 44.1667 44.7902 44.048C45.4513 37.861 44.5868 35.0981 43.5783 35.0981C42.4934 35.0981 41.2475 38.3611 41.6459 44.065C41.6544 44.1752 41.6628 44.2853 41.6713 44.404C41.6798 44.4718 41.6798 44.5396 41.6883 44.6074C41.7052 44.8024 41.7137 44.9803 41.7306 45.1752C42.6036 57.9306 40.8746 84.0854 41.0187 103.307C41.0865 112.317 40.0695 117.876 39.6627 122.377C39.205 127.428 39.1287 135.827 40.2559 152.532C41.5103 171.178 40.239 176.22 41.0696 183.899C41.1713 184.823 41.2984 185.772 41.4679 186.789C41.5781 187.467 41.595 188.027 41.5611 188.501C41.4086 190.213 40.4848 190.908 40.239 192.086C39.8576 193.883 41.4679 199.4 39.3237 199.892C38.1625 200.002 37.1455 200.078 36.1454 200.129C35.6877 200.155 35.2301 200.18 34.7554 200.197C33.9164 200.223 33.0519 200.239 32.0857 200.248H30.8907C29.9923 200.256 29.0007 200.256 27.8735 200.256C25.5258 200.256 24.5088 200.189 23.9155 199.994C23.9155 199.994 21.5255 198.426 24.2461 195.841C25.6021 193.875 27.0344 192.442 27.6616 190.501C28.3057 188.484 27.9583 186.942 28.9329 184.992C29.3143 184.23 29.4923 183.119 29.5347 181.814C29.7211 176.441 28.2803 172.254 26.3564 163.482C22.8646 147.523 21.2289 138.692 21.7459 126.708C21.8815 123.674 22.034 115.978 22.5002 112.986C22.9748 107.545 17.2794 76.1356 15.6606 68.7027C13.2451 57.6001 12.3976 47.7009 13.8638 36.0897C13.8808 35.9456 13.8977 35.8016 13.9232 35.6575C13.9401 35.5473 13.9486 35.4286 13.9655 35.3185C14.1944 33.6064 14.474 31.8351 14.8131 29.9959C14.8893 29.5976 14.9656 29.2078 15.0504 28.8179C15.1182 28.4704 15.1944 28.1229 15.2792 27.7754C15.2792 27.7161 15.3046 27.6568 15.3216 27.5975C15.3979 27.25 15.4826 26.9025 15.5758 26.555C15.6691 26.1651 15.7708 25.7753 15.8809 25.3939C15.9742 25.0548 16.0674 24.7243 16.1606 24.4023C16.203 24.2666 16.2454 24.1226 16.2878 23.9955C19.8898 12.1893 26.3734 4.40898 26.0852 -1.36271C25.9327 -4.34602 25.8479 -15.6605 23.2375 -22.3475C23.0256 -22.9069 22.7883 -23.4324 22.5341 -23.9155C22.5341 -23.9155 19.1609 -30.6788 18.8134 -31.8484C18.5507 -31.8484 18.5252 -30.1025 18.4151 -27.3056C18.3218 -24.8817 18.1608 -21.6865 17.7116 -18.1523C17.076 -1.93055 -5.56155 -19.9999 -13.8165 6.03622C-15.4438 10.6383 -11.2739 10.8672 -13.3843 18.7238C-13.7233 20.012 -14.7403 27.4364 -14.7403 27.4364C-14.9522 28.0551 -15.2743 28.3094 -15.6302 28.3094C-15.7743 28.3094 -15.9269 28.267 -16.0794 28.1907C-16.3337 28.0636 -16.5879 27.8432 -16.8168 27.572C-17.5796 26.6567 -17.4609 22.6987 -17.266 21.5206C-17.0965 20.5121 -16.8846 20.0968 -17.6219 19.7324C-17.7067 19.6815 -17.7999 19.6391 -17.9186 19.6052C-18.0542 19.5459 -18.1898 19.5205 -18.3169 19.5205C-21.4612 19.5205 -3.85805 63.6769 -8.1296 63.6769H-8.24826C-8.76525 63.4904 -8.98561 62.6259 -9.12121 61.7614C-9.20597 61.2021 -9.24834 60.6342 -9.31614 60.2783C-9.40089 59.7867 -9.5365 58.5916 -9.66363 57.1763C-9.91789 54.4472 -10.1722 50.9384 -10.062 50.1756C-9.61278 47.0991 -8.25674 41.675 -6.96849 38.6239C-3.46819 33.1742 -8.07027 15.7554 -4.7988 2.5C-2.47657 -6.89912 4.97322 -7.12589 4.99017 -16.7454C4.99017 -19.3812 5.85465 -40.7305 6.26147 -44.5698C7.47344 -55.2148 12.1264 -59.7915 16.6352 -62.0798C16.8132 -62.1815 16.9912 -62.2662 17.1692 -62.3425C17.8811 -62.6815 18.593 -62.9612 19.2711 -63.207C19.7965 -63.4019 20.3135 -63.563 20.8136 -63.7155C20.9576 -63.7579 21.1017 -63.8003 21.2458 -63.8342C21.7204 -63.9698 22.1696 -64.0969 22.5934 -64.2071C22.7968 -64.2664 22.9917 -64.3173 23.1782 -64.3681C23.3477 -64.419 23.5172 -64.4613 23.6782 -64.5122C23.746 -64.5291 23.8138 -64.5546 23.8816 -64.5715C23.9664 -64.597 24.0511 -64.6224 24.1359 -64.6478C25.7292 -65.1394 30.3483 -68.1736 33.2808 -70.2161C34.4334 -71.0213 34.747 -72.4112 34.747 -73.8181V-79.9288C34.2046 -80.3102 33.6791 -80.7085 33.1875 -81.1323C32.8146 -81.4544 32.4502 -81.7849 32.1027 -82.1409C31.9247 -82.3189 31.7552 -82.4968 31.5857 -82.6833C31.4162 -82.8612 31.2552 -83.0477 31.0941 -83.2342C30.9331 -83.4206 30.7721 -83.6071 30.628 -83.802C30.4669 -83.9969 30.3229 -84.1919 30.1788 -84.3953C30.1025 -84.497 30.0262 -84.5987 29.9584 -84.7004C29.8821 -84.8021 29.8143 -84.9038 29.7465 -85.0055C29.6025 -85.2089 29.4669 -85.4123 29.3397 -85.6242C29.077 -86.0565 28.8227 -86.4887 28.5854 -86.9379C28.4583 -87.1582 28.3481 -87.3871 28.2379 -87.6159C28.1023 -87.8871 27.9752 -88.1668 27.8481 -88.455C27.7548 -88.6414 27.6786 -88.8364 27.6023 -89.0313C27.4752 -89.311 27.365 -89.5991 27.2633 -89.8958C27.1955 -90.0568 27.1362 -90.2178 27.0853 -90.3789C26.9836 -90.667 26.8819 -90.9637 26.7887 -91.2603C26.5344 -92.1333 26.314 -93.091 26.1276 -94.0995C26.0089 -94.7013 25.8988 -95.3115 25.8055 -95.9387C25.6275 -97.0913 25.475 -98.2609 25.3563 -99.3966C25.297 -99.8882 25.2546 -100.371 25.2038 -100.837C25.0851 -102.126 25.0004 -103.312 24.9411 -104.278C24.9241 -104.6 24.9072 -104.897 24.8902 -105.177C24.8732 -105.448 24.8563 -105.702 24.8478 -105.914C24.8393 -106.024 24.8393 -106.126 24.8309 -106.219C24.8139 -106.685 24.8054 -106.948 24.8054 -106.948C24.8054 -120.492 33.0519 -126.696 41.3238 -126.696H45.1038C53.3673 -126.696 61.6137 -120.492 61.6137 -106.948C61.6137 -106.948 61.6053 -106.626 61.5798 -106.067C61.5798 -105.999 61.5714 -105.923 61.5714 -105.846C61.5629 -105.685 61.5544 -105.516 61.5374 -105.321C61.5205 -105.024 61.4951 -104.685 61.4781 -104.304C61.4781 -104.134 61.4612 -103.948 61.4442 -103.753C61.4103 -103.27 61.3764 -102.736 61.3256 -102.168C61.3256 -101.965 61.3001 -101.761 61.2747 -101.549C61.2154 -100.837 61.1391 -100.083 61.0543 -99.3034C60.995 -98.7609 60.9357 -98.2101 60.8594 -97.6507C60.8171 -97.3117 60.7662 -96.9727 60.7153 -96.6336C60.673 -96.2862 60.6221 -95.9471 60.5628 -95.6081C60.4526 -94.9301 60.3339 -94.269 60.2068 -93.6249C60.1221 -93.2096 60.0373 -92.7943 59.9356 -92.4045C59.8424 -92.0146 59.7407 -91.6247 59.639 -91.2603C59.5288 -90.9128 59.4101 -90.5653 59.283 -90.2263C59.283 -90.2094 59.2745 -90.1924 59.2661 -90.1755C59.2152 -90.0229 59.1644 -89.8788 59.105 -89.7347C58.9694 -89.3703 58.8253 -89.0228 58.6728 -88.6753C58.5711 -88.438 58.4694 -88.2007 58.3592 -87.9719C57.9778 -87.1582 57.554 -86.387 57.0879 -85.6412C56.9608 -85.4293 56.8252 -85.2174 56.6811 -85.014C56.5455 -84.8106 56.4099 -84.6072 56.2573 -84.4123C56.1217 -84.2173 55.9777 -84.0308 55.8251 -83.8444C55.6725 -83.641 55.5115 -83.4461 55.342 -83.2511C55.0284 -82.8698 54.6894 -82.5053 54.3419 -82.1493C54.1385 -81.9544 53.9351 -81.751 53.7232 -81.5646C53.5791 -81.429 53.4351 -81.2933 53.2825 -81.1662C53.274 -81.1662 53.274 -81.1577 53.2655 -81.1492C53.2401 -81.1323 53.2232 -81.1153 53.1977 -81.0984C53.0198 -80.9458 52.8333 -80.8018 52.6553 -80.6577C52.5112 -80.5306 52.3587 -80.4119 52.1977 -80.3017C52.0282 -80.1746 51.8586 -80.0474 51.6807 -79.9288V-73.8181C51.6807 -72.4112 51.9943 -71.0213 53.1469 -70.2161C56.0709 -68.1736 60.6984 -65.1394 62.2833 -64.6478C62.368 -64.6224 62.4528 -64.597 62.5375 -64.5715C62.6053 -64.5546 62.6731 -64.5291 62.741 -64.5122C62.9613 -64.4444 63.1901 -64.3851 63.4275 -64.3173C63.5885 -64.2749 63.758 -64.2325 63.9275 -64.1817C64.3513 -64.0715 64.8004 -63.9444 65.2666 -63.8088C65.3768 -63.7834 65.487 -63.7494 65.6056 -63.7155C65.7836 -63.6647 65.9616 -63.6054 66.1395 -63.5461C66.4362 -63.4528 66.7328 -63.3511 67.0464 -63.2409C67.3515 -63.1392 67.6651 -63.0206 67.9787 -62.8934C68.2923 -62.7748 68.6059 -62.6392 68.9279 -62.4951C73.691 -60.3509 78.8695 -55.8928 80.1577 -44.5698C80.573 -40.7305 81.429 -19.3812 81.429 -16.7454C81.446 -7.12589 84.3191 -4.21038 86.6413 5.18874C89.9128 18.4441 104.237 17.4779 107.737 22.9276C109.025 25.9787 110.373 31.4028 110.822 34.4794C110.932 35.2421 110.686 38.7509 110.432 41.4715C110.296 42.8869 110.161 44.0904 110.076 44.582C110.017 44.9379 109.974 45.5058 109.881 46.0651V46.0736Z" fill="black" fill-opacity="0.2"/>
<path d="M39.8909 182.28C40.2553 182.687 40.6706 183.229 41.069 183.899C40.2384 176.22 41.5097 171.177 40.2554 152.532C39.1281 135.827 39.2044 127.428 39.6621 122.376C40.0689 117.876 41.0859 112.316 41.0181 103.307C40.8741 84.085 42.603 57.9303 41.7301 45.1749C33.0513 38.6744 23.0844 35.4029 13.948 36.0809H13.8632C12.397 47.7006 13.2445 57.5997 15.66 68.7024C17.2788 76.1352 22.9742 107.545 22.4996 112.986C22.0334 115.978 21.8809 123.673 21.7453 126.707C21.2283 138.691 22.864 147.523 26.3558 163.482C28.2797 172.254 29.7205 176.44 29.5341 181.814C29.4917 183.119 29.3137 184.229 28.9323 184.992C27.9577 186.941 28.3052 188.484 27.661 190.501C27.0339 192.442 25.6015 193.874 24.2455 195.84C21.5249 198.425 23.915 199.993 23.915 199.993C24.5082 200.188 25.5253 200.256 27.8729 200.256C29.0001 200.256 29.9917 200.256 30.8901 200.248C30.8986 199.137 30.6528 198.129 31.1783 197.146C31.5936 196.366 32.0004 196.29 31.7885 197.154C31.4919 198.434 31.9665 198.976 32.0852 200.248C33.0513 200.239 33.9158 200.222 34.7549 200.197C34.6277 198.815 35.0091 198.078 35.1617 197.112C35.3058 196.137 36.3991 196.137 36.5347 197.12C36.6533 197.925 36.0347 197.773 36.1448 200.129C37.1449 200.078 38.162 200.002 39.3231 199.892C41.4673 199.4 39.857 193.883 40.2384 192.086C40.4842 190.908 41.408 190.213 41.5605 188.509C41.1537 186.704 40.5096 184.636 39.5265 182.551C39.2044 181.865 39.3909 181.712 39.8909 182.28ZM24.9828 200.07C24.8896 200.07 24.7879 200.078 24.6947 200.087C24.7371 199.12 24.4828 198.247 24.932 197.391C25.2795 196.747 25.61 196.688 25.4405 197.4C25.1778 198.51 25.627 198.951 25.6948 200.137C25.4659 200.095 25.2286 200.07 24.9828 200.07ZM27.9068 200.171C27.8136 200.171 27.7119 200.171 27.6187 200.171C27.661 199.205 27.3983 198.332 27.856 197.485C28.2035 196.841 28.534 196.773 28.3645 197.485C28.1018 198.595 28.551 199.036 28.6188 200.231C28.3899 200.188 28.1526 200.163 27.9068 200.163V200.171ZM35.5007 115.732C34.882 116.664 33.7294 118.088 32.5004 118.181C30.0765 118.181 29.1018 117.054 27.161 115.376C26.3558 114.672 27.1949 114.613 28.1696 115.232C30.6189 116.783 34.0684 116.495 35.1702 115.63C35.6448 115.257 35.7889 115.3 35.5007 115.732Z" fill="#FFEACA"/>
<path d="M72.7157 36.0981L72.4784 36.0812C63.3166 35.4032 53.3496 38.6831 44.6624 45.1922C43.2979 58.812 45.5438 84.0599 45.3997 103.307C45.3319 112.317 46.349 117.876 46.7558 122.377C47.2135 127.428 47.2982 135.827 46.171 152.532C44.9167 170.991 46.171 176.119 45.3743 183.662C45.7472 183.136 46.1117 182.713 46.4253 182.374C46.9507 181.814 47.1287 181.975 46.7812 182.662C45.9506 184.272 45.332 185.865 44.8828 187.34C44.6285 189.959 45.8744 190.662 46.188 192.086C46.5694 193.883 44.959 199.4 47.0948 199.892C48.3322 200.011 49.4001 200.087 50.4595 200.138C50.5782 197.773 49.9595 197.926 50.0697 197.121C50.2137 196.137 51.3071 196.137 51.4511 197.112C51.5952 198.087 51.9851 198.816 51.8495 200.206C52.6801 200.223 53.553 200.239 54.5277 200.248C54.6463 198.977 55.1209 198.434 54.8158 197.154C54.6124 196.29 55.0192 196.366 55.4345 197.146C55.96 198.129 55.7142 199.138 55.7227 200.248C56.5702 200.256 57.5025 200.256 58.5534 200.256C60.9011 200.256 61.9097 200.189 62.5029 199.994C62.5029 199.994 64.893 198.426 62.1809 195.841C60.8164 193.875 59.384 192.442 58.7653 190.501C58.1127 188.484 58.4687 186.942 57.494 184.992C57.1126 184.23 56.9262 183.119 56.8838 181.814C56.6974 176.441 58.1382 172.254 60.062 163.482C63.5539 147.523 65.1896 138.692 64.6726 126.708C64.5455 123.674 64.3844 115.978 63.9183 112.986C63.4522 107.545 69.0289 76.1101 70.7579 68.7027C73.4022 57.3712 74.3938 47.5991 72.7157 36.0981ZM61.1723 197.4C61.0028 196.688 61.3333 196.748 61.6724 197.392C62.13 198.248 61.8758 199.121 61.9181 200.087C61.8164 200.078 61.7232 200.07 61.6215 200.07C61.3842 200.07 61.1469 200.095 60.9096 200.138C60.9774 198.951 61.435 198.51 61.1723 197.4ZM58.2483 197.493C58.0788 196.782 58.4093 196.849 58.7484 197.493C59.206 198.341 58.9518 199.214 58.9942 200.18C58.8924 200.18 58.7992 200.18 58.706 200.18C58.4602 200.18 58.2229 200.206 57.9941 200.248C58.0534 199.053 58.5111 198.612 58.2483 197.502V197.493ZM59.2145 115.376C57.2821 117.054 56.299 118.182 53.8835 118.182C52.6546 118.088 51.502 116.664 50.8833 115.732C50.5951 115.3 50.7392 115.258 51.2138 115.63C52.3156 116.495 55.7651 116.783 58.2144 115.232C59.1891 114.613 60.0281 114.673 59.2145 115.376Z" fill="#FFEACA"/>
<path d="M71.6055 29.9955C71.2495 28.0547 70.7834 26.1901 70.2664 24.4019C65.7067 25.0884 54.8837 27.1309 43.2132 27.1309C31.5427 27.1309 20.7113 25.0884 16.1515 24.4019C15.6261 26.1901 15.1684 28.0547 14.8125 29.9955C14.448 31.9533 14.1598 33.8264 13.9141 35.6571C23.8726 34.9282 34.0175 38.7082 42.5013 45.2257H43.9082C52.4005 38.7082 62.5369 34.9282 72.4954 35.6571C72.2496 33.8264 71.9615 31.9533 71.597 29.9955H71.6055Z" fill="#333333"/>
<path d="M71.6055 29.9955C71.2495 28.0547 70.7834 26.1901 70.2664 24.4019C65.7067 25.0884 54.8837 27.1309 43.2132 27.1309C31.5427 27.1309 20.7113 25.0884 16.1515 24.4019C15.6261 26.1901 15.1684 28.0547 14.8125 29.9955C14.448 31.9533 14.1598 33.8264 13.9141 35.6571C23.8726 34.9282 34.0175 38.7082 42.5013 45.2257H43.9082C52.4005 38.7082 62.5369 34.9282 72.4954 35.6571C72.2496 33.8264 71.9615 31.9533 71.597 29.9955H71.6055Z" fill="black" fill-opacity="0.2"/>
<path d="M72.928 35.6062C72.6737 33.6908 72.3771 31.8347 72.0211 29.9193C71.6821 28.0632 71.2414 26.2156 70.6736 24.2832L70.5719 23.9272L70.2074 23.9866C70.1396 23.9866 70.0633 24.0035 69.9955 24.0205C69.4277 24.1052 68.7666 24.2069 68.0378 24.3256C62.8763 25.1561 53.2822 26.7071 43.2136 26.7071C33.1449 26.7071 23.5424 25.1561 18.3894 24.3256C17.5842 24.1984 16.8808 24.0883 16.2875 23.9951C16.2621 23.9951 16.2451 23.9951 16.2197 23.9951L15.8468 23.9357L15.7451 24.2917C15.1942 26.1901 14.7365 28.0886 14.3975 29.9278C14.0415 31.8432 13.7449 33.6993 13.4991 35.6147L13.4229 36.1317L13.8636 36.0978H13.9483C23.0847 35.4113 33.0517 38.6828 41.7304 45.1833C41.8999 45.3105 42.0779 45.4376 42.2474 45.5732L42.366 45.658H44.0611L44.1713 45.5732C44.3323 45.446 44.5018 45.3189 44.6628 45.2003C53.35 38.6912 63.317 35.4113 72.4788 36.0893L72.7161 36.1063L72.9958 36.1317L72.928 35.6147V35.6062ZM44.79 44.0476C44.4509 44.2934 44.1119 44.5477 43.7729 44.8019H42.6457C42.3152 44.5477 41.9846 44.3019 41.6456 44.0646C33.1195 37.8522 23.4407 34.6739 14.406 35.1994C14.6433 33.4874 14.906 31.8008 15.2281 30.0718C15.5417 28.3768 15.957 26.6309 16.457 24.8765C16.9825 24.9612 17.5842 25.0545 18.2538 25.1647C23.4322 26.0037 33.0771 27.5547 43.2136 27.5547C53.35 27.5547 62.9865 26.0037 68.1734 25.1647C68.8344 25.0545 69.4362 24.9612 69.9616 24.8765C70.4702 26.6563 70.877 28.3598 71.1906 30.0718C71.5126 31.8008 71.7838 33.4874 72.0211 35.1994C62.9865 34.6739 53.3161 37.8437 44.79 44.0476Z" fill="#333333"/>
<path d="M72.928 35.6062C72.6737 33.6908 72.3771 31.8347 72.0211 29.9193C71.6821 28.0632 71.2414 26.2156 70.6736 24.2832L70.5719 23.9272L70.2074 23.9866C70.1396 23.9866 70.0633 24.0035 69.9955 24.0205C69.4277 24.1052 68.7666 24.2069 68.0378 24.3256C62.8763 25.1561 53.2822 26.7071 43.2136 26.7071C33.1449 26.7071 23.5424 25.1561 18.3894 24.3256C17.5842 24.1984 16.8808 24.0883 16.2875 23.9951C16.2621 23.9951 16.2451 23.9951 16.2197 23.9951L15.8468 23.9357L15.7451 24.2917C15.1942 26.1901 14.7365 28.0886 14.3975 29.9278C14.0415 31.8432 13.7449 33.6993 13.4991 35.6147L13.4229 36.1317L13.8636 36.0978H13.9483C23.0847 35.4113 33.0517 38.6828 41.7304 45.1833C41.8999 45.3105 42.0779 45.4376 42.2474 45.5732L42.366 45.658H44.0611L44.1713 45.5732C44.3323 45.446 44.5018 45.3189 44.6628 45.2003C53.35 38.6912 63.317 35.4113 72.4788 36.0893L72.7161 36.1063L72.9958 36.1317L72.928 35.6147V35.6062ZM44.79 44.0476C44.4509 44.2934 44.1119 44.5477 43.7729 44.8019H42.6457C42.3152 44.5477 41.9846 44.3019 41.6456 44.0646C33.1195 37.8522 23.4407 34.6739 14.406 35.1994C14.6433 33.4874 14.906 31.8008 15.2281 30.0718C15.5417 28.3768 15.957 26.6309 16.457 24.8765C16.9825 24.9612 17.5842 25.0545 18.2538 25.1647C23.4322 26.0037 33.0771 27.5547 43.2136 27.5547C53.35 27.5547 62.9865 26.0037 68.1734 25.1647C68.8344 25.0545 69.4362 24.9612 69.9616 24.8765C70.4702 26.6563 70.877 28.3598 71.1906 30.0718C71.5126 31.8008 71.7838 33.4874 72.0211 35.1994C62.9865 34.6739 53.3161 37.8437 44.79 44.0476Z" fill="black" fill-opacity="0.2"/>
<ellipse cx="29.0309" cy="38.7339" rx="16.6183" ry="7.5" transform="rotate(15.7688 29.0309 38.7339)" fill="#292929"/>
<ellipse cx="16.6183" cy="7.5" rx="16.6183" ry="7.5" transform="matrix(-0.962366 0.271757 0.271757 0.962366 71.9854 27)" fill="#292929"/>
</g>
<defs>
<clipPath id="clip0_8985_53563">
<rect width="85" height="80" fill="white"/>
</clipPath>
</defs>
</svg>
