<svg width="85" height="80" viewBox="0 0 85 80" fill="none" xmlns="http://www.w3.org/2000/svg">
<g clip-path="url(#clip0_8984_53049)">
<path d="M19 0H67V11.5L70 23H16L19 11.5V0Z" fill="#FFEACA"/>
<path d="M74.6029 52.6647L74.3883 52.8106C74.251 52.905 73.9763 53.008 73.5901 53.1196C72.2682 53.4973 69.5988 53.9694 66.3027 54.39C62.0367 54.9307 56.7322 55.3771 51.934 55.3771C49.3332 55.3771 47.0929 55.2483 45.2647 54.9822C45.2218 54.9822 45.1874 54.9822 45.1531 54.9651L44.8097 54.9136L44.7926 54.5616C44.7153 52.6132 44.6467 52.0123 44.5952 51.4716C44.5437 50.9051 44.4922 50.4072 44.4321 48.5875H41.8313C41.7798 50.3986 41.7283 50.8879 41.6768 51.4458C41.6253 51.978 41.5652 52.5788 41.4794 54.5187L41.4622 54.8878L41.0931 54.9221C40.9043 54.9393 40.7154 54.9565 40.518 54.9736C38.0374 55.2054 35.1877 55.3256 32.235 55.3256C23.4455 55.3256 15.2655 54.3299 12.2355 52.8793C12.2012 52.8621 12.1668 52.8449 12.1325 52.8278L11.875 52.699L11.9007 52.4072C12.081 50.2956 12.1583 48.021 12.2355 45.8236C12.3471 42.3387 12.4758 38.7251 13.0166 35.4376C13.3084 33.6265 13.8149 31.7553 14.3556 29.7811C15.0423 27.2833 15.7461 24.6911 16.0208 22.1246L16.0723 21.6611L16.5272 21.7469C16.6302 21.7641 16.7418 21.7813 16.8534 21.807C19.2568 22.2018 23.5399 22.5194 28.9904 22.6997C29.4453 22.7169 29.9089 22.734 30.3724 22.7512C33.6942 22.8456 37.3936 22.8971 41.3249 22.8971C45.9599 22.8971 51.1787 22.8113 55.9511 22.6224C56.4232 22.6053 56.8952 22.5881 57.3502 22.5624C62.1054 22.3478 66.2941 22.0216 68.8692 21.5409H68.9035L69.3241 21.4551L69.3756 21.9186C69.6245 24.425 70.3284 26.7769 71.0065 29.0515C71.5386 30.8454 72.088 32.6995 72.397 34.5793C73.2811 39.9611 74.1051 46.6305 74.5772 52.4158L74.6029 52.6647Z" fill="#333333"/>
<path d="M74.6029 52.6647L74.3883 52.8106C74.251 52.905 73.9763 53.008 73.5901 53.1196C72.2682 53.4973 69.5988 53.9694 66.3027 54.39C62.0367 54.9307 56.7322 55.3771 51.934 55.3771C49.3332 55.3771 47.0929 55.2483 45.2647 54.9822C45.2218 54.9822 45.1874 54.9822 45.1531 54.9651L44.8097 54.9136L44.7926 54.5616C44.7153 52.6132 44.6467 52.0123 44.5952 51.4716C44.5437 50.9051 44.4922 50.4072 44.4321 48.5875H41.8313C41.7798 50.3986 41.7283 50.8879 41.6768 51.4458C41.6253 51.978 41.5652 52.5788 41.4794 54.5187L41.4622 54.8878L41.0931 54.9221C40.9043 54.9393 40.7154 54.9565 40.518 54.9736C38.0374 55.2054 35.1877 55.3256 32.235 55.3256C23.4455 55.3256 15.2655 54.3299 12.2355 52.8793C12.2012 52.8621 12.1668 52.8449 12.1325 52.8278L11.875 52.699L11.9007 52.4072C12.081 50.2956 12.1583 48.021 12.2355 45.8236C12.3471 42.3387 12.4758 38.7251 13.0166 35.4376C13.3084 33.6265 13.8149 31.7553 14.3556 29.7811C15.0423 27.2833 15.7461 24.6911 16.0208 22.1246L16.0723 21.6611L16.5272 21.7469C16.6302 21.7641 16.7418 21.7813 16.8534 21.807C19.2568 22.2018 23.5399 22.5194 28.9904 22.6997C29.4453 22.7169 29.9089 22.734 30.3724 22.7512C33.6942 22.8456 37.3936 22.8971 41.3249 22.8971C45.9599 22.8971 51.1787 22.8113 55.9511 22.6224C56.4232 22.6053 56.8952 22.5881 57.3502 22.5624C62.1054 22.3478 66.2941 22.0216 68.8692 21.5409H68.9035L69.3241 21.4551L69.3756 21.9186C69.6245 24.425 70.3284 26.7769 71.0065 29.0515C71.5386 30.8454 72.088 32.6995 72.397 34.5793C73.2811 39.9611 74.1051 46.6305 74.5772 52.4158L74.6029 52.6647Z" fill="black" fill-opacity="0.2"/>
<path d="M106.73 8.94046C105.854 4.24529 104.438 1.06081 103.073 -2.01208C101.623 -5.26523 100.258 -8.33811 99.6483 -13.059C99.4853 -14.338 99.3994 -15.6169 99.3136 -16.9817C99.2278 -18.2606 99.1505 -19.5825 98.9874 -20.8958L98.8072 -22.3721C98.3351 -26.3205 97.6913 -30.8698 96.7128 -34.286C95.7515 -37.6851 93.4511 -43.5476 93.1077 -44.6721C92.9876 -45.6592 92.9189 -46.6463 92.8503 -47.6935C92.67 -50.3457 92.4812 -53.0925 91.3825 -55.7533C89.8718 -59.4271 87.3997 -62.5601 84.2325 -64.8004C79.7004 -68.0192 73.2456 -69.2638 71.5461 -69.547C66.087 -73.298 59.0915 -76.5168 55.8555 -77.6155V-83.4437C59.4863 -86.1904 60.3704 -90.156 61.1429 -94.7138C63.6922 -95.658 65.7522 -98.2588 66.3531 -101.469C66.9968 -104.945 65.7952 -108.267 63.5206 -109.967C63.2974 -110.138 63.0656 -110.284 62.8253 -110.422L62.9798 -112.98V-113.083C62.9798 -125.34 53.1603 -132.043 43.4267 -132.352C43.358 -132.352 43.2722 -132.37 43.1863 -132.37H42.5941C42.5082 -132.37 42.431 -132.361 42.3623 -132.352C33.4441 -132.069 24.4744 -126.43 23.0238 -116.087V-116.061C22.8779 -115.108 22.8092 -114.113 22.8092 -113.083V-112.98L22.9637 -110.422C20.2342 -108.911 18.7235 -105.28 19.4359 -101.469C20.0282 -98.2588 22.0882 -95.658 24.646 -94.7138C25.4186 -90.156 26.3027 -86.1904 29.9249 -83.4437V-77.6155C26.6031 -76.4825 19.3329 -73.1092 14.2343 -69.547C12.5176 -69.2638 6.08003 -68.0192 1.54797 -64.8004C-1.61075 -62.5601 -4.08279 -59.4271 -5.60206 -55.7533C-6.70074 -53.0925 -6.88099 -50.3457 -7.06124 -47.6935C-7.1385 -46.6463 -7.20717 -45.6592 -7.31875 -44.6721C-7.66209 -43.5476 -9.96246 -37.6851 -10.9324 -34.286C-11.9023 -30.8698 -12.5547 -26.3205 -13.0267 -22.3721L-13.1984 -20.9044C-13.3615 -19.5825 -13.4473 -18.2606 -13.5332 -16.9817C-13.619 -15.6169 -13.6963 -14.338 -13.8679 -13.059C-14.4774 -8.33811 -15.8421 -5.26523 -17.2842 -2.01208C-18.6575 1.06081 -20.0652 4.24529 -20.9493 8.93187C-23.078 20.3393 -25.2496 34.4678 -23.1381 49.2571C-23.0437 49.8923 -22.9836 50.5618 -22.9063 51.2743C-22.6231 54.0725 -22.2711 57.5488 -20.151 61.7032C-20.1424 61.7204 -20.1253 61.7375 -20.1167 61.7547C-13.7392 73.2051 -11.4045 73.2051 -10.632 73.2051C-10.4689 73.2051 -10.3058 73.1879 -10.1513 73.1536C-9.20712 72.9476 -8.44319 72.4154 -7.92818 71.6C-6.47758 69.2653 -7.49901 65.1023 -8.58052 60.6989C-8.83803 59.6517 -9.16419 58.3299 -9.39595 57.1625C-8.63202 58.5187 -7.46467 60.1754 -6.08273 60.6818C-5.49047 60.8964 -4.91538 61.0079 -4.39179 61.0079C-3.50769 61.0079 -2.74377 60.6818 -2.23734 60.0895C-1.87684 59.6603 -1.49058 58.9136 -1.688 57.7462C-1.688 57.7119 -1.69659 57.6775 -1.70517 57.6432C-1.76526 57.3771 -3.21585 50.9738 -3.53344 49.6777C-4.68363 44.9997 -6.38315 43.1199 -7.62776 41.7552C-8.5376 40.7595 -8.87237 40.3818 -8.8552 39.1801C-8.76078 35.0085 -6.42607 30.8627 -3.95404 25.5581C-1.29316 19.8501 -6.85525 12.2316 -6.22866 6.18027C-5.84241 2.48936 3.82258 -3.66011 4.06291 -5.05923C4.58651 -6.218 5.1616 -7.78019 5.77961 -9.42822C6.36328 -11.0076 6.96412 -12.6385 7.45338 -13.7114C9.95975 -19.2134 11.1786 -24.2863 11.9082 -27.8312C11.9425 -28.0201 11.9854 -28.2089 12.0284 -28.3977L12.5691 -27.857C13.17 -27.2647 13.7451 -26.6982 14.2086 -26.0888C15.4017 -24.518 15.6678 -23.7627 15.6592 -22.0288C15.6506 -20.046 16.0626 -16.7156 16.4746 -13.4968C16.7493 -11.308 17.0068 -9.24797 17.084 -7.96903C17.2729 -4.64722 17.4703 -1.92625 17.6591 0.700302C17.848 3.32686 18.0454 6.03065 18.2342 9.3353L18.3801 11.773C17.6677 13.3438 15.3931 18.5111 15.1871 21.1977C14.9982 23.6697 14.2257 26.8628 13.4704 29.9529C12.9296 32.1846 12.4232 34.2875 12.1142 36.133C10.0542 48.6563 9.91683 61.8148 11.7194 75.2394C12.0455 77.6943 12.4575 80.8873 12.8438 83.1448C13.7622 88.4408 14.6292 93.445 14.2172 98.5951C14.0026 101.213 14.1656 103.908 14.3373 106.234C14.4575 107.865 14.6292 109.565 14.8695 111.445C14.9725 112.26 15.0841 113.033 15.1957 113.779C15.642 116.835 15.9853 119.238 15.5304 122.174C15.1098 124.869 14.8781 127.805 14.8008 131.41C14.5347 143.229 15.2557 148.448 17.393 160.328C17.7707 162.431 18.1827 164.628 18.629 166.851C18.9381 170.585 19.3844 180.713 17.9166 184.301C17.7535 184.696 17.599 185.1 17.4359 185.503C16.5261 187.838 15.6592 190.044 13.3674 192.172C9.97693 195.322 10.1314 197.28 10.6893 199.503L10.7237 199.64C11.1271 201.245 12.4833 202 23.1096 202C27.7876 202 32.5428 201.829 33.7359 201.786C33.9334 201.829 34.1823 201.872 34.4655 201.872C35.4269 201.872 36.2938 201.443 36.9118 200.67C38.3109 198.919 38.371 195.451 37.0921 189.769C36.8088 188.499 36.5342 187.426 36.2938 186.473C34.7831 180.482 34.3282 178.671 37.2723 153.933C37.4612 152.345 37.6414 150.989 37.8045 149.796C38.371 145.555 38.7058 142.989 38.5169 137.272C38.1908 127.53 37.2208 122.097 36.7058 119.17C36.5342 118.2 36.3968 117.427 36.3797 117.015C36.3539 116.406 36.2938 115.616 36.2337 114.775C36.0964 112.972 35.899 110.492 36.0535 109.324C36.1479 108.586 36.1307 107.616 36.0964 106.38C36.0277 103.548 35.9247 99.2732 37.1865 94.5179C39.7358 84.9044 41.9417 65.3512 42.534 48.5876C42.5683 47.7979 42.5941 47.0083 42.6113 46.2272H43.1777C43.1949 47.0083 43.2207 47.7979 43.255 48.5876C43.8473 65.3512 46.0446 84.9044 48.5939 94.5179C49.8557 99.2732 49.7527 103.548 49.684 106.38C49.6583 107.616 49.6325 108.586 49.7269 109.324C49.8814 110.492 49.6926 112.972 49.5553 114.775C49.4866 115.616 49.4265 116.406 49.4007 117.015C49.3836 117.427 49.2463 118.2 49.0746 119.17C48.5596 122.097 47.5982 127.53 47.2635 137.272C47.0746 142.989 47.418 145.547 47.9845 149.787C48.139 150.989 48.3193 152.336 48.5081 153.933C51.4522 178.671 50.9973 180.482 49.4866 186.473C49.2463 187.426 48.9802 188.499 48.6883 189.769C47.4094 195.451 47.4695 198.919 48.8686 200.67C49.4866 201.443 50.3621 201.872 51.3235 201.872C51.5981 201.872 51.8471 201.829 52.0531 201.786C53.2376 201.829 57.9928 202 62.6794 202C73.3057 202 74.6533 201.245 75.0567 199.64L75.0911 199.503C75.649 197.28 75.8121 195.322 72.413 192.172C70.1212 190.044 69.2629 187.838 68.3445 185.503C68.19 185.1 68.0355 184.696 67.8724 184.301C66.396 180.713 66.8509 170.585 67.1514 166.851C67.5977 164.628 68.0183 162.431 68.396 160.328C70.5247 148.448 71.2457 143.229 70.9882 131.41C70.9109 127.805 70.6706 124.869 70.25 122.174C69.7951 119.238 70.147 116.835 70.5848 113.779C70.6963 113.033 70.8079 112.26 70.9109 111.445C71.1512 109.565 71.3229 107.865 71.4431 106.234C71.6148 103.908 71.7778 101.213 71.5718 98.5951C71.1513 93.445 72.0182 88.4408 72.9366 83.1448C73.3315 80.8873 73.7349 77.6943 74.061 75.2394C75.8807 61.6689 75.7348 46.0641 73.6662 33.5064C73.3229 31.4378 72.722 29.5494 72.1384 27.7126C71.4345 25.5152 70.765 23.438 70.5933 21.1977C70.3873 18.5111 68.1213 13.3438 67.4003 11.773L67.5462 9.3353C67.735 6.03065 67.9324 3.32686 68.1213 0.700302C68.3101 -1.92625 68.5076 -4.64722 68.705 -7.96903C68.7736 -9.24797 69.0397 -11.308 69.3144 -13.4968C69.7178 -16.7156 70.1384 -20.046 70.1212 -22.0288C70.1127 -23.7627 70.3873 -24.518 71.5718 -26.0888C72.0354 -26.6982 72.6104 -27.2647 73.2199 -27.857C73.4259 -28.063 73.6319 -28.269 73.8465 -28.4836C73.9666 -27.9514 74.0954 -27.3763 74.2155 -26.827C75.0396 -23.1447 76.2842 -18.4323 78.3184 -13.7371C78.7648 -12.7243 79.3227 -11.2222 79.8635 -9.77156C80.4986 -8.06345 81.1596 -6.30383 81.7175 -5.06781C81.9578 -3.65154 88.7559 2.3091 89.1594 6C89.7344 11.2102 86.8933 18.8887 89.434 24.468C92.0606 30.2447 94.5412 34.8454 94.6356 39.1801C94.6614 40.3818 94.318 40.7595 93.4167 41.7552C92.1721 43.1199 90.464 44.9997 89.3224 49.6777C89.0049 50.9738 87.5543 58.2355 87.4856 58.5016C87.4856 58.5359 87.477 58.5702 87.4684 58.6046C87.271 59.7719 87.6658 59.6603 88.0263 60.0895C88.5242 60.6818 89.2881 61.0079 90.1722 61.0079C90.7044 61.0079 91.2709 60.8964 91.8631 60.6818C93.1678 60.2011 94.2837 58.4672 95.1077 56.7591C94.8931 57.8835 94.6013 59.1024 94.3695 60.0981C93.2794 64.8018 92.2408 69.2395 93.7515 71.6257C94.2579 72.424 95.0133 72.9562 95.9403 73.1536C96.0948 73.1879 96.2493 73.2051 96.4124 73.2051C97.1849 73.2051 99.5282 73.2051 105.906 61.7547C105.914 61.7375 105.923 61.7204 105.931 61.7032C108.052 57.5488 108.412 54.0725 108.695 51.2743C108.764 50.5618 108.833 49.8923 108.919 49.2571C111.039 34.4678 108.858 20.3393 106.73 8.94046ZM107.228 49.0168C106.755 52.2699 106.893 56.0553 104.404 60.9221C104.404 60.9221 98.5153 71.4884 96.4124 71.4884C96.3781 71.4884 96.3351 71.4798 96.3008 71.4712C91.8889 70.527 98.1806 56.3643 97.039 53.0167C96.687 51.9953 96.3265 51.6262 95.9918 51.6262C95.3309 51.6262 94.7558 53.0854 94.4897 53.8064C94.0777 54.9308 92.567 58.596 91.2795 59.0681C90.8846 59.2054 90.507 59.2912 90.1722 59.2912C89.4855 59.2912 89.0134 58.9393 89.1594 58.0295C89.1594 58.0295 90.67 51.3858 90.9876 50.0897C92.9189 42.2015 96.4381 43.2401 96.3523 39.1458C96.1549 30.0387 91.9919 15.9912 90.8675 5.81116C90.4125 1.67392 83.3741 -5.57423 83.3741 -5.57423C82.3527 -7.77161 80.8935 -12.1149 79.8978 -14.4238C77.0738 -20.9044 75.8464 -28.475 74.988 -30.9986C74.8078 -31.5565 74.6276 -31.8655 74.4645 -31.8655C74.3958 -31.8655 74.3357 -31.814 74.2756 -31.711C73.3486 -30.2003 71.9409 -29.1188 70.7822 -27.8141C70.5762 -27.5909 70.3873 -27.3677 70.2071 -27.1274C68.7908 -25.2562 68.396 -24.1232 68.4045 -22.0116C68.4303 -18.8186 67.1771 -11.2651 66.9883 -8.07203C66.602 -1.44557 66.2158 2.60583 65.8295 9.2323C65.778 10.1936 65.7179 11.1464 65.6664 12.1078C65.6664 12.1078 68.6706 18.5454 68.8852 21.335C68.8938 21.4037 68.8938 21.4638 68.9024 21.5325C69.28 25.8328 71.2628 29.4722 71.9753 33.7897C72.8937 39.4119 73.4774 46.0727 73.589 53.1197C73.7006 60.2526 73.3314 67.7803 72.3615 75.0162C71.9409 78.1835 71.383 81.2822 70.8937 84.3293C70.8594 84.5267 70.8337 84.7156 70.7993 84.9044C70.1899 88.7498 69.7092 92.5008 69.7522 96.1917C69.7522 97.05 69.7865 97.8912 69.8552 98.7324C70.0526 101.179 69.9152 103.676 69.735 106.106C69.6062 107.822 69.426 109.53 69.2114 111.23C68.6792 115.359 67.941 118.483 68.559 122.44C69.0226 125.418 69.2028 128.44 69.2715 131.444C69.5376 143.315 68.7994 148.371 66.705 160.027C66.3102 162.225 65.8896 164.422 65.4518 166.611C65.4518 166.611 64.6965 175.649 65.4947 181.572C65.6664 182.902 65.9239 184.07 66.2844 184.954C66.4046 185.245 66.5162 185.537 66.6364 185.838C67.6063 188.318 68.5591 190.945 71.2457 193.434C74.2499 196.224 73.8207 197.511 73.3915 199.228C73.2885 199.623 72.0783 199.88 70.2843 200.035C69.9238 200.069 69.5461 200.103 69.1513 200.129C68.3788 200.172 67.5376 200.206 66.645 200.241C66.2844 200.241 65.9068 200.249 65.5291 200.258C64.6021 200.275 63.6407 200.284 62.6794 200.284H62.6107C62.1644 200.284 61.7094 200.284 61.2631 200.275C60.0614 200.275 58.8769 200.258 57.7868 200.232C57.186 200.224 56.6109 200.206 56.0701 200.198C53.5809 200.129 51.8385 200.061 51.8385 200.061C51.8385 200.061 51.6239 200.155 51.3235 200.155C50.3106 200.155 48.345 199.116 50.3621 190.147C52.4822 180.748 53.6582 182.628 50.2162 153.735C49.3664 146.594 48.7398 144.525 48.9802 137.332C49.4265 124.122 51.0316 119.032 51.1174 117.084C51.1947 115.135 51.684 111.015 51.4351 109.101C51.2205 107.445 51.7526 103.428 51.0917 98.3891C50.9114 97.0157 50.6454 95.5737 50.2505 94.0802C49.9844 93.0845 49.7269 91.9772 49.4694 90.7927V90.7755C49.4694 90.7755 49.4608 90.7498 49.4608 90.7412C47.5639 81.8487 46.0017 68.0035 45.2635 54.9823C45.0575 51.3944 44.9202 47.858 44.8515 44.5105H40.9289C40.8602 47.858 40.7229 51.3858 40.5169 54.9737C39.9075 65.7031 38.7401 76.9732 37.2895 85.5911C37.2809 85.634 37.2723 85.6683 37.2723 85.7113C36.723 88.9301 36.1393 91.7798 35.5299 94.0802C35.1951 95.3505 34.9462 96.5865 34.7746 97.7711C33.9849 103.101 34.5771 107.385 34.3539 109.101C34.105 111.015 34.5857 115.135 34.6716 117.084C34.7488 119.032 36.3539 124.122 36.8002 137.332C37.0406 144.525 36.4226 146.594 35.5642 153.735C32.1308 182.628 33.2982 180.748 35.4183 190.147C37.4354 199.116 35.4698 200.155 34.4655 200.155C34.1651 200.155 33.942 200.061 33.942 200.061C33.942 200.061 32.0879 200.138 29.4614 200.206C28.9292 200.215 28.3541 200.224 27.7619 200.241C26.6632 200.258 25.4787 200.275 24.277 200.275C23.8907 200.284 23.4959 200.284 23.1096 200.284H22.9208C21.9337 200.284 20.9552 200.275 20.011 200.258C19.6247 200.258 19.2556 200.241 18.8866 200.224C17.9939 200.198 17.1441 200.164 16.3802 200.112C15.9768 200.086 15.6077 200.052 15.2558 200.018C13.5906 199.855 12.4919 199.606 12.3975 199.228C11.9683 197.511 11.5391 196.224 14.5433 193.434C17.5475 190.644 18.3801 187.692 19.5046 184.954C19.5217 184.902 19.5475 184.851 19.5646 184.799C19.908 183.889 20.1569 182.713 20.32 181.383C21.0753 175.46 20.3372 166.611 20.3372 166.611C19.8908 164.422 19.4702 162.225 19.084 160.027C16.9896 148.371 16.2514 143.315 16.5175 131.444C16.5776 128.44 16.7664 125.418 17.23 122.44C17.8394 118.483 17.1012 115.359 16.5776 111.23C16.3544 109.53 16.1742 107.822 16.054 106.106C15.8738 103.676 15.7278 101.179 15.9253 98.7324C15.9768 98.0886 16.0111 97.4449 16.0197 96.7925C16.0798 94.5265 15.9338 92.2261 15.6678 89.9C15.127 85.0761 14.1056 80.1405 13.4189 75.0162C12.3717 67.1966 12.0284 59.8148 12.2344 52.8794C12.406 47.0683 12.964 41.5749 13.8137 36.4077C14.509 32.1846 16.4231 26.159 16.8523 21.8071C16.878 21.644 16.8952 21.4895 16.9038 21.335C17.1184 18.5454 20.1226 12.1078 20.1226 12.1078C20.0625 11.1464 20.011 10.1936 19.9509 9.2323C19.5647 2.60583 19.1784 -1.44557 18.7921 -8.07203C18.6119 -11.2651 17.3587 -18.8186 17.3759 -22.0116C17.393 -24.1232 16.9896 -25.2562 15.5733 -27.1274C15.4446 -27.2991 15.3072 -27.4707 15.1527 -27.6338C13.9682 -29.0158 12.4747 -30.1316 11.5134 -31.711C11.4447 -31.8226 11.376 -31.8741 11.3159 -31.8741C11.1099 -31.8741 10.9211 -31.3762 10.6979 -30.5093C9.97693 -27.7111 8.90399 -21.0331 5.8912 -14.4238C4.84401 -12.132 3.42774 -7.77161 2.41489 -5.57423C2.41489 -5.57423 -7.49901 1.85417 -7.92818 6C-9.12987 17.4675 -10.3745 30.0387 -10.5633 39.1458C-10.6577 43.2401 -7.12991 42.2015 -5.19864 50.0897C-4.88105 51.3858 -3.37895 58.0295 -3.37895 58.0295C-3.22444 58.9393 -3.69653 59.2912 -4.39179 59.2912C-4.71796 59.2912 -5.10422 59.2054 -5.49047 59.0681C-6.77799 58.596 -8.29726 55.7892 -8.70927 54.6647C-8.97536 53.9437 -9.55045 52.4845 -10.2114 52.4845C-10.5461 52.4845 -10.8981 52.8536 -11.25 53.8751C-12.3916 57.2226 -6.0999 70.527 -10.5118 71.4712C-10.5547 71.4798 -10.5891 71.4884 -10.632 71.4884C-12.7349 71.4884 -18.6232 60.9221 -18.6232 60.9221C-21.1124 56.0553 -20.975 52.2699 -21.4385 49.0168C-23.3612 35.5321 -21.7561 22.6054 -19.2583 9.24945C-17.4902 -0.209564 -13.3873 -3.37686 -12.1598 -12.8359C-11.8251 -15.4367 -11.8165 -18.089 -11.4989 -20.6898C-11.0268 -24.5352 -10.3401 -30.0887 -9.28437 -33.8225C-8.38311 -36.9984 -6.31448 -43.7879 -5.77373 -45.5819C-5.68789 -45.8652 -5.6364 -46.0283 -5.6364 -46.0283C-5.5334 -46.878 -5.46472 -47.6505 -5.39605 -48.363C-5.20721 -50.6805 -5.08705 -52.483 -4.01411 -55.101C-2.64076 -58.4314 -0.400478 -61.3155 2.54365 -63.4012C7.41906 -66.8604 14.8953 -67.9076 14.8953 -67.9076C21.4015 -72.5598 30.8519 -76.3108 31.53 -76.3108H31.6416V-84.345C31.6416 -84.345 31.5557 -84.3965 31.5214 -84.4222C27.6674 -86.9629 27.0237 -90.8427 26.1567 -96.0872C23.8135 -96.4219 21.6934 -98.6966 21.1183 -101.787C20.5861 -104.636 21.5303 -107.332 23.3242 -108.619C23.7534 -108.937 24.234 -109.168 24.7491 -109.297L24.5259 -113.083C24.5259 -124.696 33.839 -130.413 42.5254 -130.644C42.5512 -130.644 42.5769 -130.653 42.5941 -130.653H43.1863C43.1863 -130.653 43.2293 -130.644 43.255 -130.644C51.9415 -130.413 61.2631 -124.696 61.2631 -113.083L61.0399 -109.297C62.0442 -109.04 62.894 -108.413 63.5377 -107.546C64.6021 -106.104 65.0742 -103.993 64.6621 -101.787C64.0871 -98.6966 61.9755 -96.4219 59.6237 -96.0872C58.7996 -91.0744 58.1645 -87.2977 54.7397 -84.757C54.5508 -84.6196 54.3448 -84.4823 54.1388 -84.345V-76.3108H54.2504C54.9371 -76.3108 63.8381 -72.8517 70.8937 -67.9076C70.8937 -67.9076 78.3699 -66.8604 83.2368 -63.4012C86.1895 -61.3155 88.4212 -58.4314 89.7945 -55.101C90.8846 -52.4573 90.9876 -50.6462 91.1936 -48.3029C91.2537 -47.6076 91.3224 -46.8608 91.4254 -46.0283C91.4254 -46.0283 91.4769 -45.8737 91.5541 -45.5905C92.0949 -43.8051 94.1635 -37.007 95.0648 -33.8225C96.1291 -30.0887 96.8072 -24.5352 97.2793 -20.6898C97.5969 -18.089 97.6141 -15.4367 97.9488 -12.8359C99.1677 -3.37686 103.271 -0.209564 105.039 9.24945C107.537 22.6054 109.15 35.5321 107.228 49.0168Z" fill="#333333"/>
<path d="M106.73 8.94046C105.854 4.24529 104.438 1.06081 103.073 -2.01208C101.623 -5.26523 100.258 -8.33811 99.6483 -13.059C99.4853 -14.338 99.3994 -15.6169 99.3136 -16.9817C99.2278 -18.2606 99.1505 -19.5825 98.9874 -20.8958L98.8072 -22.3721C98.3351 -26.3205 97.6913 -30.8698 96.7128 -34.286C95.7515 -37.6851 93.4511 -43.5476 93.1077 -44.6721C92.9876 -45.6592 92.9189 -46.6463 92.8503 -47.6935C92.67 -50.3457 92.4812 -53.0925 91.3825 -55.7533C89.8718 -59.4271 87.3997 -62.5601 84.2325 -64.8004C79.7004 -68.0192 73.2456 -69.2638 71.5461 -69.547C66.087 -73.298 59.0915 -76.5168 55.8555 -77.6155V-83.4437C59.4863 -86.1904 60.3704 -90.156 61.1429 -94.7138C63.6922 -95.658 65.7522 -98.2588 66.3531 -101.469C66.9968 -104.945 65.7952 -108.267 63.5206 -109.967C63.2974 -110.138 63.0656 -110.284 62.8253 -110.422L62.9798 -112.98V-113.083C62.9798 -125.34 53.1603 -132.043 43.4267 -132.352C43.358 -132.352 43.2722 -132.37 43.1863 -132.37H42.5941C42.5082 -132.37 42.431 -132.361 42.3623 -132.352C33.4441 -132.069 24.4744 -126.43 23.0238 -116.087V-116.061C22.8779 -115.108 22.8092 -114.113 22.8092 -113.083V-112.98L22.9637 -110.422C20.2342 -108.911 18.7235 -105.28 19.4359 -101.469C20.0282 -98.2588 22.0882 -95.658 24.646 -94.7138C25.4186 -90.156 26.3027 -86.1904 29.9249 -83.4437V-77.6155C26.6031 -76.4825 19.3329 -73.1092 14.2343 -69.547C12.5176 -69.2638 6.08003 -68.0192 1.54797 -64.8004C-1.61075 -62.5601 -4.08279 -59.4271 -5.60206 -55.7533C-6.70074 -53.0925 -6.88099 -50.3457 -7.06124 -47.6935C-7.1385 -46.6463 -7.20717 -45.6592 -7.31875 -44.6721C-7.66209 -43.5476 -9.96246 -37.6851 -10.9324 -34.286C-11.9023 -30.8698 -12.5547 -26.3205 -13.0267 -22.3721L-13.1984 -20.9044C-13.3615 -19.5825 -13.4473 -18.2606 -13.5332 -16.9817C-13.619 -15.6169 -13.6963 -14.338 -13.8679 -13.059C-14.4774 -8.33811 -15.8421 -5.26523 -17.2842 -2.01208C-18.6575 1.06081 -20.0652 4.24529 -20.9493 8.93187C-23.078 20.3393 -25.2496 34.4678 -23.1381 49.2571C-23.0437 49.8923 -22.9836 50.5618 -22.9063 51.2743C-22.6231 54.0725 -22.2711 57.5488 -20.151 61.7032C-20.1424 61.7204 -20.1253 61.7375 -20.1167 61.7547C-13.7392 73.2051 -11.4045 73.2051 -10.632 73.2051C-10.4689 73.2051 -10.3058 73.1879 -10.1513 73.1536C-9.20712 72.9476 -8.44319 72.4154 -7.92818 71.6C-6.47758 69.2653 -7.49901 65.1023 -8.58052 60.6989C-8.83803 59.6517 -9.16419 58.3299 -9.39595 57.1625C-8.63202 58.5187 -7.46467 60.1754 -6.08273 60.6818C-5.49047 60.8964 -4.91538 61.0079 -4.39179 61.0079C-3.50769 61.0079 -2.74377 60.6818 -2.23734 60.0895C-1.87684 59.6603 -1.49058 58.9136 -1.688 57.7462C-1.688 57.7119 -1.69659 57.6775 -1.70517 57.6432C-1.76526 57.3771 -3.21585 50.9738 -3.53344 49.6777C-4.68363 44.9997 -6.38315 43.1199 -7.62776 41.7552C-8.5376 40.7595 -8.87237 40.3818 -8.8552 39.1801C-8.76078 35.0085 -6.42607 30.8627 -3.95404 25.5581C-1.29316 19.8501 -6.85525 12.2316 -6.22866 6.18027C-5.84241 2.48936 3.82258 -3.66011 4.06291 -5.05923C4.58651 -6.218 5.1616 -7.78019 5.77961 -9.42822C6.36328 -11.0076 6.96412 -12.6385 7.45338 -13.7114C9.95975 -19.2134 11.1786 -24.2863 11.9082 -27.8312C11.9425 -28.0201 11.9854 -28.2089 12.0284 -28.3977L12.5691 -27.857C13.17 -27.2647 13.7451 -26.6982 14.2086 -26.0888C15.4017 -24.518 15.6678 -23.7627 15.6592 -22.0288C15.6506 -20.046 16.0626 -16.7156 16.4746 -13.4968C16.7493 -11.308 17.0068 -9.24797 17.084 -7.96903C17.2729 -4.64722 17.4703 -1.92625 17.6591 0.700302C17.848 3.32686 18.0454 6.03065 18.2342 9.3353L18.3801 11.773C17.6677 13.3438 15.3931 18.5111 15.1871 21.1977C14.9982 23.6697 14.2257 26.8628 13.4704 29.9529C12.9296 32.1846 12.4232 34.2875 12.1142 36.133C10.0542 48.6563 9.91683 61.8148 11.7194 75.2394C12.0455 77.6943 12.4575 80.8873 12.8438 83.1448C13.7622 88.4408 14.6292 93.445 14.2172 98.5951C14.0026 101.213 14.1656 103.908 14.3373 106.234C14.4575 107.865 14.6292 109.565 14.8695 111.445C14.9725 112.26 15.0841 113.033 15.1957 113.779C15.642 116.835 15.9853 119.238 15.5304 122.174C15.1098 124.869 14.8781 127.805 14.8008 131.41C14.5347 143.229 15.2557 148.448 17.393 160.328C17.7707 162.431 18.1827 164.628 18.629 166.851C18.9381 170.585 19.3844 180.713 17.9166 184.301C17.7535 184.696 17.599 185.1 17.4359 185.503C16.5261 187.838 15.6592 190.044 13.3674 192.172C9.97693 195.322 10.1314 197.28 10.6893 199.503L10.7237 199.64C11.1271 201.245 12.4833 202 23.1096 202C27.7876 202 32.5428 201.829 33.7359 201.786C33.9334 201.829 34.1823 201.872 34.4655 201.872C35.4269 201.872 36.2938 201.443 36.9118 200.67C38.3109 198.919 38.371 195.451 37.0921 189.769C36.8088 188.499 36.5342 187.426 36.2938 186.473C34.7831 180.482 34.3282 178.671 37.2723 153.933C37.4612 152.345 37.6414 150.989 37.8045 149.796C38.371 145.555 38.7058 142.989 38.5169 137.272C38.1908 127.53 37.2208 122.097 36.7058 119.17C36.5342 118.2 36.3968 117.427 36.3797 117.015C36.3539 116.406 36.2938 115.616 36.2337 114.775C36.0964 112.972 35.899 110.492 36.0535 109.324C36.1479 108.586 36.1307 107.616 36.0964 106.38C36.0277 103.548 35.9247 99.2732 37.1865 94.5179C39.7358 84.9044 41.9417 65.3512 42.534 48.5876C42.5683 47.7979 42.5941 47.0083 42.6113 46.2272H43.1777C43.1949 47.0083 43.2207 47.7979 43.255 48.5876C43.8473 65.3512 46.0446 84.9044 48.5939 94.5179C49.8557 99.2732 49.7527 103.548 49.684 106.38C49.6583 107.616 49.6325 108.586 49.7269 109.324C49.8814 110.492 49.6926 112.972 49.5553 114.775C49.4866 115.616 49.4265 116.406 49.4007 117.015C49.3836 117.427 49.2463 118.2 49.0746 119.17C48.5596 122.097 47.5982 127.53 47.2635 137.272C47.0746 142.989 47.418 145.547 47.9845 149.787C48.139 150.989 48.3193 152.336 48.5081 153.933C51.4522 178.671 50.9973 180.482 49.4866 186.473C49.2463 187.426 48.9802 188.499 48.6883 189.769C47.4094 195.451 47.4695 198.919 48.8686 200.67C49.4866 201.443 50.3621 201.872 51.3235 201.872C51.5981 201.872 51.8471 201.829 52.0531 201.786C53.2376 201.829 57.9928 202 62.6794 202C73.3057 202 74.6533 201.245 75.0567 199.64L75.0911 199.503C75.649 197.28 75.8121 195.322 72.413 192.172C70.1212 190.044 69.2629 187.838 68.3445 185.503C68.19 185.1 68.0355 184.696 67.8724 184.301C66.396 180.713 66.8509 170.585 67.1514 166.851C67.5977 164.628 68.0183 162.431 68.396 160.328C70.5247 148.448 71.2457 143.229 70.9882 131.41C70.9109 127.805 70.6706 124.869 70.25 122.174C69.7951 119.238 70.147 116.835 70.5848 113.779C70.6963 113.033 70.8079 112.26 70.9109 111.445C71.1512 109.565 71.3229 107.865 71.4431 106.234C71.6148 103.908 71.7778 101.213 71.5718 98.5951C71.1513 93.445 72.0182 88.4408 72.9366 83.1448C73.3315 80.8873 73.7349 77.6943 74.061 75.2394C75.8807 61.6689 75.7348 46.0641 73.6662 33.5064C73.3229 31.4378 72.722 29.5494 72.1384 27.7126C71.4345 25.5152 70.765 23.438 70.5933 21.1977C70.3873 18.5111 68.1213 13.3438 67.4003 11.773L67.5462 9.3353C67.735 6.03065 67.9324 3.32686 68.1213 0.700302C68.3101 -1.92625 68.5076 -4.64722 68.705 -7.96903C68.7736 -9.24797 69.0397 -11.308 69.3144 -13.4968C69.7178 -16.7156 70.1384 -20.046 70.1212 -22.0288C70.1127 -23.7627 70.3873 -24.518 71.5718 -26.0888C72.0354 -26.6982 72.6104 -27.2647 73.2199 -27.857C73.4259 -28.063 73.6319 -28.269 73.8465 -28.4836C73.9666 -27.9514 74.0954 -27.3763 74.2155 -26.827C75.0396 -23.1447 76.2842 -18.4323 78.3184 -13.7371C78.7648 -12.7243 79.3227 -11.2222 79.8635 -9.77156C80.4986 -8.06345 81.1596 -6.30383 81.7175 -5.06781C81.9578 -3.65154 88.7559 2.3091 89.1594 6C89.7344 11.2102 86.8933 18.8887 89.434 24.468C92.0606 30.2447 94.5412 34.8454 94.6356 39.1801C94.6614 40.3818 94.318 40.7595 93.4167 41.7552C92.1721 43.1199 90.464 44.9997 89.3224 49.6777C89.0049 50.9738 87.5543 58.2355 87.4856 58.5016C87.4856 58.5359 87.477 58.5702 87.4684 58.6046C87.271 59.7719 87.6658 59.6603 88.0263 60.0895C88.5242 60.6818 89.2881 61.0079 90.1722 61.0079C90.7044 61.0079 91.2709 60.8964 91.8631 60.6818C93.1678 60.2011 94.2837 58.4672 95.1077 56.7591C94.8931 57.8835 94.6013 59.1024 94.3695 60.0981C93.2794 64.8018 92.2408 69.2395 93.7515 71.6257C94.2579 72.424 95.0133 72.9562 95.9403 73.1536C96.0948 73.1879 96.2493 73.2051 96.4124 73.2051C97.1849 73.2051 99.5282 73.2051 105.906 61.7547C105.914 61.7375 105.923 61.7204 105.931 61.7032C108.052 57.5488 108.412 54.0725 108.695 51.2743C108.764 50.5618 108.833 49.8923 108.919 49.2571C111.039 34.4678 108.858 20.3393 106.73 8.94046ZM107.228 49.0168C106.755 52.2699 106.893 56.0553 104.404 60.9221C104.404 60.9221 98.5153 71.4884 96.4124 71.4884C96.3781 71.4884 96.3351 71.4798 96.3008 71.4712C91.8889 70.527 98.1806 56.3643 97.039 53.0167C96.687 51.9953 96.3265 51.6262 95.9918 51.6262C95.3309 51.6262 94.7558 53.0854 94.4897 53.8064C94.0777 54.9308 92.567 58.596 91.2795 59.0681C90.8846 59.2054 90.507 59.2912 90.1722 59.2912C89.4855 59.2912 89.0134 58.9393 89.1594 58.0295C89.1594 58.0295 90.67 51.3858 90.9876 50.0897C92.9189 42.2015 96.4381 43.2401 96.3523 39.1458C96.1549 30.0387 91.9919 15.9912 90.8675 5.81116C90.4125 1.67392 83.3741 -5.57423 83.3741 -5.57423C82.3527 -7.77161 80.8935 -12.1149 79.8978 -14.4238C77.0738 -20.9044 75.8464 -28.475 74.988 -30.9986C74.8078 -31.5565 74.6276 -31.8655 74.4645 -31.8655C74.3958 -31.8655 74.3357 -31.814 74.2756 -31.711C73.3486 -30.2003 71.9409 -29.1188 70.7822 -27.8141C70.5762 -27.5909 70.3873 -27.3677 70.2071 -27.1274C68.7908 -25.2562 68.396 -24.1232 68.4045 -22.0116C68.4303 -18.8186 67.1771 -11.2651 66.9883 -8.07203C66.602 -1.44557 66.2158 2.60583 65.8295 9.2323C65.778 10.1936 65.7179 11.1464 65.6664 12.1078C65.6664 12.1078 68.6706 18.5454 68.8852 21.335C68.8938 21.4037 68.8938 21.4638 68.9024 21.5325C69.28 25.8328 71.2628 29.4722 71.9753 33.7897C72.8937 39.4119 73.4774 46.0727 73.589 53.1197C73.7006 60.2526 73.3314 67.7803 72.3615 75.0162C71.9409 78.1835 71.383 81.2822 70.8937 84.3293C70.8594 84.5267 70.8337 84.7156 70.7993 84.9044C70.1899 88.7498 69.7092 92.5008 69.7522 96.1917C69.7522 97.05 69.7865 97.8912 69.8552 98.7324C70.0526 101.179 69.9152 103.676 69.735 106.106C69.6062 107.822 69.426 109.53 69.2114 111.23C68.6792 115.359 67.941 118.483 68.559 122.44C69.0226 125.418 69.2028 128.44 69.2715 131.444C69.5376 143.315 68.7994 148.371 66.705 160.027C66.3102 162.225 65.8896 164.422 65.4518 166.611C65.4518 166.611 64.6965 175.649 65.4947 181.572C65.6664 182.902 65.9239 184.07 66.2844 184.954C66.4046 185.245 66.5162 185.537 66.6364 185.838C67.6063 188.318 68.5591 190.945 71.2457 193.434C74.2499 196.224 73.8207 197.511 73.3915 199.228C73.2885 199.623 72.0783 199.88 70.2843 200.035C69.9238 200.069 69.5461 200.103 69.1513 200.129C68.3788 200.172 67.5376 200.206 66.645 200.241C66.2844 200.241 65.9068 200.249 65.5291 200.258C64.6021 200.275 63.6407 200.284 62.6794 200.284H62.6107C62.1644 200.284 61.7094 200.284 61.2631 200.275C60.0614 200.275 58.8769 200.258 57.7868 200.232C57.186 200.224 56.6109 200.206 56.0701 200.198C53.5809 200.129 51.8385 200.061 51.8385 200.061C51.8385 200.061 51.6239 200.155 51.3235 200.155C50.3106 200.155 48.345 199.116 50.3621 190.147C52.4822 180.748 53.6582 182.628 50.2162 153.735C49.3664 146.594 48.7398 144.525 48.9802 137.332C49.4265 124.122 51.0316 119.032 51.1174 117.084C51.1947 115.135 51.684 111.015 51.4351 109.101C51.2205 107.445 51.7526 103.428 51.0917 98.3891C50.9114 97.0157 50.6454 95.5737 50.2505 94.0802C49.9844 93.0845 49.7269 91.9772 49.4694 90.7927V90.7755C49.4694 90.7755 49.4608 90.7498 49.4608 90.7412C47.5639 81.8487 46.0017 68.0035 45.2635 54.9823C45.0575 51.3944 44.9202 47.858 44.8515 44.5105H40.9289C40.8602 47.858 40.7229 51.3858 40.5169 54.9737C39.9075 65.7031 38.7401 76.9732 37.2895 85.5911C37.2809 85.634 37.2723 85.6683 37.2723 85.7113C36.723 88.9301 36.1393 91.7798 35.5299 94.0802C35.1951 95.3505 34.9462 96.5865 34.7746 97.7711C33.9849 103.101 34.5771 107.385 34.3539 109.101C34.105 111.015 34.5857 115.135 34.6716 117.084C34.7488 119.032 36.3539 124.122 36.8002 137.332C37.0406 144.525 36.4226 146.594 35.5642 153.735C32.1308 182.628 33.2982 180.748 35.4183 190.147C37.4354 199.116 35.4698 200.155 34.4655 200.155C34.1651 200.155 33.942 200.061 33.942 200.061C33.942 200.061 32.0879 200.138 29.4614 200.206C28.9292 200.215 28.3541 200.224 27.7619 200.241C26.6632 200.258 25.4787 200.275 24.277 200.275C23.8907 200.284 23.4959 200.284 23.1096 200.284H22.9208C21.9337 200.284 20.9552 200.275 20.011 200.258C19.6247 200.258 19.2556 200.241 18.8866 200.224C17.9939 200.198 17.1441 200.164 16.3802 200.112C15.9768 200.086 15.6077 200.052 15.2558 200.018C13.5906 199.855 12.4919 199.606 12.3975 199.228C11.9683 197.511 11.5391 196.224 14.5433 193.434C17.5475 190.644 18.3801 187.692 19.5046 184.954C19.5217 184.902 19.5475 184.851 19.5646 184.799C19.908 183.889 20.1569 182.713 20.32 181.383C21.0753 175.46 20.3372 166.611 20.3372 166.611C19.8908 164.422 19.4702 162.225 19.084 160.027C16.9896 148.371 16.2514 143.315 16.5175 131.444C16.5776 128.44 16.7664 125.418 17.23 122.44C17.8394 118.483 17.1012 115.359 16.5776 111.23C16.3544 109.53 16.1742 107.822 16.054 106.106C15.8738 103.676 15.7278 101.179 15.9253 98.7324C15.9768 98.0886 16.0111 97.4449 16.0197 96.7925C16.0798 94.5265 15.9338 92.2261 15.6678 89.9C15.127 85.0761 14.1056 80.1405 13.4189 75.0162C12.3717 67.1966 12.0284 59.8148 12.2344 52.8794C12.406 47.0683 12.964 41.5749 13.8137 36.4077C14.509 32.1846 16.4231 26.159 16.8523 21.8071C16.878 21.644 16.8952 21.4895 16.9038 21.335C17.1184 18.5454 20.1226 12.1078 20.1226 12.1078C20.0625 11.1464 20.011 10.1936 19.9509 9.2323C19.5647 2.60583 19.1784 -1.44557 18.7921 -8.07203C18.6119 -11.2651 17.3587 -18.8186 17.3759 -22.0116C17.393 -24.1232 16.9896 -25.2562 15.5733 -27.1274C15.4446 -27.2991 15.3072 -27.4707 15.1527 -27.6338C13.9682 -29.0158 12.4747 -30.1316 11.5134 -31.711C11.4447 -31.8226 11.376 -31.8741 11.3159 -31.8741C11.1099 -31.8741 10.9211 -31.3762 10.6979 -30.5093C9.97693 -27.7111 8.90399 -21.0331 5.8912 -14.4238C4.84401 -12.132 3.42774 -7.77161 2.41489 -5.57423C2.41489 -5.57423 -7.49901 1.85417 -7.92818 6C-9.12987 17.4675 -10.3745 30.0387 -10.5633 39.1458C-10.6577 43.2401 -7.12991 42.2015 -5.19864 50.0897C-4.88105 51.3858 -3.37895 58.0295 -3.37895 58.0295C-3.22444 58.9393 -3.69653 59.2912 -4.39179 59.2912C-4.71796 59.2912 -5.10422 59.2054 -5.49047 59.0681C-6.77799 58.596 -8.29726 55.7892 -8.70927 54.6647C-8.97536 53.9437 -9.55045 52.4845 -10.2114 52.4845C-10.5461 52.4845 -10.8981 52.8536 -11.25 53.8751C-12.3916 57.2226 -6.0999 70.527 -10.5118 71.4712C-10.5547 71.4798 -10.5891 71.4884 -10.632 71.4884C-12.7349 71.4884 -18.6232 60.9221 -18.6232 60.9221C-21.1124 56.0553 -20.975 52.2699 -21.4385 49.0168C-23.3612 35.5321 -21.7561 22.6054 -19.2583 9.24945C-17.4902 -0.209564 -13.3873 -3.37686 -12.1598 -12.8359C-11.8251 -15.4367 -11.8165 -18.089 -11.4989 -20.6898C-11.0268 -24.5352 -10.3401 -30.0887 -9.28437 -33.8225C-8.38311 -36.9984 -6.31448 -43.7879 -5.77373 -45.5819C-5.68789 -45.8652 -5.6364 -46.0283 -5.6364 -46.0283C-5.5334 -46.878 -5.46472 -47.6505 -5.39605 -48.363C-5.20721 -50.6805 -5.08705 -52.483 -4.01411 -55.101C-2.64076 -58.4314 -0.400478 -61.3155 2.54365 -63.4012C7.41906 -66.8604 14.8953 -67.9076 14.8953 -67.9076C21.4015 -72.5598 30.8519 -76.3108 31.53 -76.3108H31.6416V-84.345C31.6416 -84.345 31.5557 -84.3965 31.5214 -84.4222C27.6674 -86.9629 27.0237 -90.8427 26.1567 -96.0872C23.8135 -96.4219 21.6934 -98.6966 21.1183 -101.787C20.5861 -104.636 21.5303 -107.332 23.3242 -108.619C23.7534 -108.937 24.234 -109.168 24.7491 -109.297L24.5259 -113.083C24.5259 -124.696 33.839 -130.413 42.5254 -130.644C42.5512 -130.644 42.5769 -130.653 42.5941 -130.653H43.1863C43.1863 -130.653 43.2293 -130.644 43.255 -130.644C51.9415 -130.413 61.2631 -124.696 61.2631 -113.083L61.0399 -109.297C62.0442 -109.04 62.894 -108.413 63.5377 -107.546C64.6021 -106.104 65.0742 -103.993 64.6621 -101.787C64.0871 -98.6966 61.9755 -96.4219 59.6237 -96.0872C58.7996 -91.0744 58.1645 -87.2977 54.7397 -84.757C54.5508 -84.6196 54.3448 -84.4823 54.1388 -84.345V-76.3108H54.2504C54.9371 -76.3108 63.8381 -72.8517 70.8937 -67.9076C70.8937 -67.9076 78.3699 -66.8604 83.2368 -63.4012C86.1895 -61.3155 88.4212 -58.4314 89.7945 -55.101C90.8846 -52.4573 90.9876 -50.6462 91.1936 -48.3029C91.2537 -47.6076 91.3224 -46.8608 91.4254 -46.0283C91.4254 -46.0283 91.4769 -45.8737 91.5541 -45.5905C92.0949 -43.8051 94.1635 -37.007 95.0648 -33.8225C96.1291 -30.0887 96.8072 -24.5352 97.2793 -20.6898C97.5969 -18.089 97.6141 -15.4367 97.9488 -12.8359C99.1677 -3.37686 103.271 -0.209564 105.039 9.24945C107.537 22.6054 109.15 35.5321 107.228 49.0168Z" fill="black" fill-opacity="0.2"/>
<path d="M71.2458 193.434C68.5592 190.945 67.6064 188.318 66.6365 185.838C65.7181 184.026 64.5335 182.044 63.0486 180.121C62.4649 179.366 62.6538 179.134 63.4177 179.692C64.0185 180.138 64.7567 180.756 65.4949 181.572C64.6966 175.649 65.452 166.611 65.452 166.611C65.8897 164.422 66.3103 162.224 66.7051 160.027C68.7995 148.371 69.5377 143.315 69.2716 131.444C69.2029 128.44 69.0227 125.418 68.5592 122.44C67.9412 118.483 68.6793 115.359 69.2115 111.23C69.4261 109.53 69.6064 107.822 69.7351 106.106C69.9154 103.676 70.0527 101.179 69.8553 98.7323C69.7866 97.8911 69.7523 97.05 69.7523 96.2002C69.0999 97.6336 68.2502 99.0756 67.1343 100.475C66.4305 101.359 66.276 101.144 66.791 100.046C68.0871 97.2817 69.5892 91.8054 70.7995 84.9043C70.8338 84.7155 70.8595 84.5266 70.8939 84.3292C71.3831 81.2821 71.9411 78.1834 72.3616 75.0161C73.3316 67.7802 73.7007 60.2525 73.5891 53.1196C72.2672 53.4973 69.5978 53.9694 66.3017 54.39C62.0357 54.9308 56.7312 55.3771 51.933 55.3771C49.3322 55.3771 47.0919 55.2483 45.2637 54.9823C46.0018 68.0034 47.564 81.8486 49.461 90.7411C49.461 90.7497 49.4696 90.7668 49.4696 90.7754V90.7926C50.6627 94.8955 52.036 98.1315 52.9287 100.046C53.4437 101.144 53.2892 101.359 52.5854 100.475C52.036 99.7881 51.5382 99.0928 51.0918 98.389C51.7527 103.427 51.2206 107.445 51.4352 109.101C51.6841 111.015 51.1948 115.135 51.1176 117.084C51.0317 119.032 49.4266 124.122 48.9803 137.332C48.74 144.525 49.3666 146.594 50.2163 153.735C53.6583 182.627 52.4824 180.748 50.3623 190.146C48.3451 199.116 50.3107 200.155 51.3236 200.155C51.624 200.155 51.8386 200.06 51.8386 200.06C51.8386 200.06 53.581 200.129 56.0702 200.198C56.2505 197.082 55.4437 197.297 55.5896 196.284C55.7612 195.073 57.1174 195.065 57.2977 196.284C57.4865 197.511 57.9844 198.43 57.7869 200.232C58.877 200.258 60.0615 200.275 61.2632 200.275C61.4692 199.297 61.7611 198.61 61.4692 197.382C61.2203 196.301 61.7096 196.395 62.2332 197.374C62.731 198.309 62.6623 199.271 62.6108 200.284H62.6795C63.6408 200.284 64.6022 200.275 65.5292 200.258C65.7009 199.408 65.967 198.842 65.7181 197.803C65.5035 196.919 65.9155 196.996 66.3447 197.794C66.7652 198.584 66.6966 199.382 66.6451 200.241C67.5378 200.206 68.3789 200.172 69.1514 200.129C69.3231 199.288 69.5892 198.721 69.3403 197.683C69.1257 196.799 69.5377 196.876 69.9669 197.683C70.3789 198.447 70.3188 199.219 70.2845 200.043C72.0784 199.889 73.2887 199.631 73.3917 199.236C73.8208 197.52 74.25 196.232 71.2458 193.443V193.434ZM60.877 119.616C59.538 120.388 57.8728 117.805 55.7183 115.101C54.8256 113.968 54.9801 113.874 56.0617 114.861C58.7912 117.358 59.4435 117.307 60.6796 117.908C60.7311 117.934 60.7826 117.959 60.8341 117.985C61.6066 117.616 62.6194 116.895 63.8469 115.504C64.3619 114.904 64.5335 114.972 64.2074 115.668C63.5207 117.17 62.2503 119.47 60.877 119.616Z" fill="#FFEACA"/>
<path d="M32.2336 55.3247C23.4441 55.3247 15.2641 54.329 12.2341 52.8784C12.0281 59.8139 12.3715 67.1957 13.4187 75.0153C14.1053 80.1396 15.1268 85.0751 15.6675 89.8905C16.6546 94.4311 17.7361 97.9933 18.6975 100.045C19.2125 101.143 19.058 101.358 18.3541 100.474C17.3928 99.2636 16.6289 98.0276 16.0194 96.7916C16.0109 97.4439 15.9765 98.0877 15.925 98.7314C15.7276 101.178 15.8735 103.676 16.0538 106.105C16.1739 107.821 16.3542 109.529 16.5774 111.229C17.101 115.358 17.8391 118.482 17.2297 122.439C16.7662 125.418 16.5774 128.439 16.5173 131.443C16.2512 143.314 16.9894 148.37 19.0837 160.026C19.47 162.224 19.8906 164.421 20.3369 166.61C20.3369 166.61 21.0751 175.459 20.3198 181.382C21.0064 180.661 21.6674 180.103 22.2253 179.691C22.9892 179.133 23.1781 179.365 22.5944 180.12C21.3927 181.682 20.3884 183.279 19.5644 184.79C19.5472 184.85 19.5215 184.901 19.5043 184.953C18.3799 187.691 17.5473 190.644 14.5431 193.433C11.5389 196.223 11.968 197.51 12.3972 199.227C12.4916 199.605 13.5903 199.854 15.2555 200.017C15.2126 199.21 15.1697 198.437 15.5731 197.673C16.0023 196.875 16.4057 196.798 16.1997 197.673C15.9594 198.703 16.2083 199.27 16.3799 200.103C17.1439 200.154 17.9936 200.188 18.8863 200.214C18.8434 199.364 18.7747 198.566 19.1953 197.785C19.6245 196.987 20.0279 196.909 19.8219 197.794C19.573 198.832 19.8305 199.399 20.0107 200.248C20.9549 200.266 21.9335 200.274 22.9206 200.274C22.8691 199.261 22.8004 198.3 23.2982 197.364C23.8218 196.386 24.3197 196.291 24.0707 197.373C23.7789 198.6 24.0621 199.287 24.2767 200.266C25.4784 200.266 26.6629 200.248 27.7616 200.231C27.5556 198.429 28.0535 197.502 28.2337 196.274C28.4226 195.055 29.7702 195.064 29.9504 196.274C30.0963 197.287 29.2895 197.073 29.4611 200.197C32.0877 200.128 33.9417 200.051 33.9417 200.051C33.9417 200.051 34.1649 200.145 34.4653 200.145C35.4696 200.145 37.4352 199.107 35.4181 190.137C33.298 180.738 32.1306 182.618 35.564 153.726C36.4223 146.584 37.0403 144.516 36.8 137.323C36.3537 124.113 34.7486 119.023 34.6713 117.074C34.5855 115.126 34.1048 111.006 34.3537 109.092C34.5769 107.375 33.9846 103.092 34.7743 97.7615C34.2336 98.6714 33.6155 99.5812 32.9031 100.465C32.1993 101.349 32.0448 101.135 32.5598 100.036C33.8044 97.3839 35.9502 92.2166 37.2721 85.7017C37.2721 85.6588 37.2807 85.6244 37.2893 85.5815C38.7399 76.9637 39.9072 65.6936 40.5166 54.9642C38.036 55.196 35.1863 55.3161 32.2336 55.3161V55.3247ZM29.8131 115.1C27.6672 117.804 26.002 120.388 24.663 119.615C23.2896 119.469 22.0193 117.169 21.324 115.667C21.0064 114.971 21.1695 114.903 21.6931 115.504C22.9205 116.894 23.9334 117.615 24.6973 117.984C24.7488 117.958 24.8003 117.933 24.8518 117.907C26.0964 117.306 26.7488 117.358 29.4697 114.86C30.5512 113.873 30.7057 113.967 29.8131 115.1Z" fill="#FFEACA"/>
</g>
<defs>
<clipPath id="clip0_8984_53049">
<rect width="85" height="80" fill="white"/>
</clipPath>
</defs>
</svg>
