<svg width="40" height="40" viewBox="0 0 40 40" fill="none" xmlns="http://www.w3.org/2000/svg">
<path d="M28.625 16.6797L32.2031 17.2734C32.3984 18.1562 32.5 19.0625 32.5 20C32.5 26.9062 26.9062 32.5 20 32.5C13.0938 32.5 7.5 26.9062 7.5 20C7.5 13.0938 13.0938 7.5 20 7.5C20.8672 7.5 21.8438 7.60312 22.7266 7.79766L23.3203 11.375L22.9375 11.7578C22.0234 11.4297 21.0312 11.1797 20 11.1797C15.1641 11.1797 11.25 15.1641 11.25 19.9297C11.25 24.8359 15.1641 28.75 20 28.75C24.8359 28.75 28.75 24.8359 28.75 19.9297C28.75 18.9688 28.5703 17.9766 28.2422 17.0625L28.625 16.6797ZM38.8828 13.3984C39.5391 15.3984 40 17.6875 40 20C40 31.0469 31.0469 40 20 40C8.95312 40 0 31.0469 0 20C0 8.95312 8.95312 0 20 0C22.3125 0 24.5312 0.3925 26.6016 1.11484L23.5703 4.14375C22.3516 3.88594 21.2266 3.75 20 3.75C11.0234 3.75 3.75 11.0234 3.75 20C3.75 28.9766 11.0234 36.25 20 36.25C28.9766 36.25 36.25 28.9766 36.25 20C36.25 18.7734 36.1172 17.5781 35.7891 16.4297L38.8828 13.3984ZM21.2578 21.2578C20.5938 22.0547 19.4062 22.0547 18.6719 21.2578C17.9453 20.5938 17.9453 19.4062 18.6719 18.6719L25.875 11.4766L25.2109 7.51875C25.0781 6.72266 25.3359 5.91094 25.9062 5.34062L29.9062 1.34063C30.4766 0.705859 31.6172 0.926563 31.9531 1.76016L33.75 6.17969L38.2422 7.97656C39.0703 8.38281 39.2266 9.45312 38.6562 10.0938L34.6562 14.0938C34.0859 14.6641 33.2734 14.8516 32.4844 14.7891L28.5234 14.125L21.2578 21.2578Z" fill="#1488F0"/>
</svg>
