<svg width="50" height="50" viewBox="0 0 50 50" fill="none" xmlns="http://www.w3.org/2000/svg">
<rect width="50" height="50" rx="10" fill="#1488F0"/>
<g clip-path="url(#clip0_8958_6302)">
<rect x="13.125" y="15" width="24" height="24" fill="white"/>
<path d="M18.5625 10C19.0781 10 19.5 10.4198 19.5 10.9375V13.75H30.75V10.9375C30.75 10.4198 31.1719 10 31.6875 10C32.2031 10 32.625 10.4198 32.625 10.9375V13.75H34.5C36.5684 13.75 38.25 15.4287 38.25 17.5V36.25C38.25 38.3184 36.5684 40 34.5 40H15.75C13.6787 40 12 38.3184 12 36.25V17.5C12 15.4287 13.6787 13.75 15.75 13.75H17.625V10.9375C17.625 10.4198 18.0469 10 18.5625 10ZM36.375 21.25H13.875V36.25C13.875 37.2871 14.7146 38.125 15.75 38.125H34.5C35.5371 38.125 36.375 37.2871 36.375 36.25V21.25ZM34.5 15.625H15.75C14.7146 15.625 13.875 16.4629 13.875 17.5V19.375H36.375V17.5C36.375 16.4629 35.5371 15.625 34.5 15.625Z" fill="black"/>
</g>
<defs>
<clipPath id="clip0_8958_6302">
<rect width="26.25" height="30" fill="white" transform="translate(12 10)"/>
</clipPath>
</defs>
</svg>
