<svg width="364" height="220" viewBox="0 0 364 220" fill="none" xmlns="http://www.w3.org/2000/svg">
<g filter="url(#filter0_d_312_971)">
<rect x="4" y="4.5" width="356" height="211" rx="20" fill="white" shape-rendering="crispEdges"/>
<rect x="63" y="168.5" width="238" height="1" rx="0.5" fill="#999999"/>
<path d="M143 69.5L143 184.5" stroke="#CCD4E2" stroke-dasharray="2 2"/>
<path d="M63 69.5L63 184.5" stroke="#CCD4E2" stroke-dasharray="2 2"/>
<path d="M221 69.5L221 184.5" stroke="#CCD4E2" stroke-dasharray="2 2"/>
<path d="M300 69.5L300 184.5" stroke="#CCD4E2" stroke-dasharray="2 2"/>
<path d="M61.6094 69.6626C61.6094 69.6626 101.083 65.588 146.5 92.9057L222.813 151.5C243.959 162.919 267.847 168.712 299.609 168.524" stroke="url(#paint0_linear_312_971)" stroke-width="6"/>
<path d="M221 157.5C217.134 157.5 214 154.366 214 150.5C214 146.634 217.134 143.5 221 143.5C224.866 143.5 228 146.634 228 150.5C228 154.366 224.866 157.5 221 157.5Z" fill="white"/>
<path d="M221 157.5C217.134 157.5 214 154.366 214 150.5C214 146.634 217.134 143.5 221 143.5C224.866 143.5 228 146.634 228 150.5C228 154.366 224.866 157.5 221 157.5Z" stroke="#AEC569" stroke-width="4"/>
<path d="M143 98.5001C139.134 98.5001 136 95.3661 136 91.5001C136 87.6341 139.134 84.5001 143 84.5001C146.866 84.5001 150 87.6341 150 91.5001C150 95.3661 146.866 98.5001 143 98.5001Z" fill="white"/>
<path d="M143 98.5001C139.134 98.5001 136 95.3661 136 91.5001C136 87.6341 139.134 84.5001 143 84.5001C146.866 84.5001 150 87.6341 150 91.5001C150 95.3661 146.866 98.5001 143 98.5001Z" stroke="#EBA553" stroke-width="4"/>
<path d="M63 76.5001C59.134 76.5001 56 73.3661 56 69.5001C56 65.6341 59.134 62.5001 63 62.5001C66.866 62.5001 70 65.6341 70 69.5001C70 73.3661 66.866 76.5001 63 76.5001Z" fill="white"/>
<path d="M63 76.5001C59.134 76.5001 56 73.3661 56 69.5001C56 65.6341 59.134 62.5001 63 62.5001C66.866 62.5001 70 65.6341 70 69.5001C70 73.3661 66.866 76.5001 63 76.5001Z" stroke="#DB4F36" stroke-width="4"/>
<path d="M300 175.5C296.134 175.5 293 172.366 293 168.5C293 164.634 296.134 161.5 300 161.5C303.866 161.5 307 164.634 307 168.5C307 172.366 303.866 175.5 300 175.5Z" fill="white"/>
<path d="M300 175.5C296.134 175.5 293 172.366 293 168.5C293 164.634 296.134 161.5 300 161.5C303.866 161.5 307 164.634 307 168.5C307 172.366 303.866 175.5 300 175.5Z" stroke="#709C3B" stroke-width="4"/>
<rect x="267.984" y="125.5" width="59" height="23" rx="7" fill="white"/>
<rect x="267.984" y="125.5" width="59" height="23" rx="7" stroke="#709C3B" stroke-width="2"/>
<rect x="38.0156" y="24.5" width="57" height="23" rx="6" fill="#CCD4E2" fill-opacity="0.3"/>
<path d="M44.0723 205.265L46.0547 197.547H47.0938L46.9775 199.536L44.8584 207.5H43.7783L44.0723 205.265ZM42.5889 197.547L44.1953 205.203L44.3389 207.5H43.1904L40.8867 197.547H42.5889ZM49.3428 205.183L50.9287 197.547H52.6377L50.334 207.5H49.1855L49.3428 205.183ZM47.4971 197.547L49.459 205.285L49.7461 207.5H48.666L46.5811 199.536L46.4717 197.547H47.4971ZM56.7871 207.637C56.2402 207.637 55.7458 207.548 55.3037 207.37C54.8662 207.188 54.4925 206.935 54.1826 206.611C53.8773 206.288 53.6426 205.907 53.4785 205.47C53.3145 205.032 53.2324 204.561 53.2324 204.055V203.781C53.2324 203.202 53.3167 202.678 53.4854 202.209C53.654 201.74 53.8887 201.339 54.1895 201.006C54.4902 200.669 54.8457 200.411 55.2559 200.233C55.666 200.056 56.1104 199.967 56.5889 199.967C57.1175 199.967 57.5801 200.056 57.9766 200.233C58.373 200.411 58.7012 200.662 58.9609 200.985C59.2253 201.304 59.4212 201.685 59.5488 202.127C59.681 202.569 59.7471 203.057 59.7471 203.59V204.294H54.0322V203.111H58.1201V202.981C58.111 202.685 58.0518 202.407 57.9424 202.147C57.8376 201.888 57.6758 201.678 57.457 201.519C57.2383 201.359 56.9466 201.279 56.582 201.279C56.3086 201.279 56.0648 201.339 55.8506 201.457C55.641 201.571 55.4655 201.737 55.3242 201.956C55.1829 202.175 55.0736 202.439 54.9961 202.749C54.9232 203.054 54.8867 203.398 54.8867 203.781V204.055C54.8867 204.378 54.93 204.679 55.0166 204.957C55.1077 205.23 55.2399 205.47 55.4131 205.675C55.5863 205.88 55.7959 206.042 56.042 206.16C56.2881 206.274 56.5684 206.331 56.8828 206.331C57.2793 206.331 57.6325 206.251 57.9424 206.092C58.2523 205.932 58.5212 205.707 58.749 205.415L59.6172 206.256C59.4577 206.488 59.2503 206.712 58.9951 206.926C58.7399 207.135 58.4277 207.306 58.0586 207.438C57.694 207.571 57.2702 207.637 56.7871 207.637ZM64.293 207.637C63.7461 207.637 63.2516 207.548 62.8096 207.37C62.3721 207.188 61.9984 206.935 61.6885 206.611C61.3831 206.288 61.1484 205.907 60.9844 205.47C60.8203 205.032 60.7383 204.561 60.7383 204.055V203.781C60.7383 203.202 60.8226 202.678 60.9912 202.209C61.1598 201.74 61.3945 201.339 61.6953 201.006C61.9961 200.669 62.3516 200.411 62.7617 200.233C63.1719 200.056 63.6162 199.967 64.0947 199.967C64.6234 199.967 65.0859 200.056 65.4824 200.233C65.8789 200.411 66.207 200.662 66.4668 200.985C66.7311 201.304 66.9271 201.685 67.0547 202.127C67.1868 202.569 67.2529 203.057 67.2529 203.59V204.294H61.5381V203.111H65.626V202.981C65.6169 202.685 65.5576 202.407 65.4482 202.147C65.3434 201.888 65.1816 201.678 64.9629 201.519C64.7441 201.359 64.4525 201.279 64.0879 201.279C63.8145 201.279 63.5706 201.339 63.3564 201.457C63.1468 201.571 62.9714 201.737 62.8301 201.956C62.6888 202.175 62.5794 202.439 62.502 202.749C62.429 203.054 62.3926 203.398 62.3926 203.781V204.055C62.3926 204.378 62.4359 204.679 62.5225 204.957C62.6136 205.23 62.7458 205.47 62.9189 205.675C63.0921 205.88 63.3018 206.042 63.5479 206.16C63.7939 206.274 64.0742 206.331 64.3887 206.331C64.7852 206.331 65.1383 206.251 65.4482 206.092C65.7581 205.932 66.027 205.707 66.2549 205.415L67.123 206.256C66.9635 206.488 66.7562 206.712 66.501 206.926C66.2458 207.135 65.9336 207.306 65.5645 207.438C65.1999 207.571 64.776 207.637 64.293 207.637ZM70.1992 197V207.5H68.5449V197H70.1992ZM74.793 200.104L71.5732 203.672L69.8096 205.477L69.3789 204.082L70.7119 202.435L72.8037 200.104H74.793ZM73.1592 207.5L70.7598 204.027L71.7988 202.872L75.0664 207.5H73.1592ZM83.7275 197.513V207.5H82.0801V199.468L79.6396 200.295V198.935L83.5293 197.513H83.7275Z" fill="#999999"/>
<path d="M123.072 205.265L125.055 197.547H126.094L125.978 199.536L123.858 207.5H122.778L123.072 205.265ZM121.589 197.547L123.195 205.203L123.339 207.5H122.19L119.887 197.547H121.589ZM128.343 205.183L129.929 197.547H131.638L129.334 207.5H128.186L128.343 205.183ZM126.497 197.547L128.459 205.285L128.746 207.5H127.666L125.581 199.536L125.472 197.547H126.497ZM135.787 207.637C135.24 207.637 134.746 207.548 134.304 207.37C133.866 207.188 133.493 206.935 133.183 206.611C132.877 206.288 132.643 205.907 132.479 205.47C132.314 205.032 132.232 204.561 132.232 204.055V203.781C132.232 203.202 132.317 202.678 132.485 202.209C132.654 201.74 132.889 201.339 133.189 201.006C133.49 200.669 133.846 200.411 134.256 200.233C134.666 200.056 135.11 199.967 135.589 199.967C136.118 199.967 136.58 200.056 136.977 200.233C137.373 200.411 137.701 200.662 137.961 200.985C138.225 201.304 138.421 201.685 138.549 202.127C138.681 202.569 138.747 203.057 138.747 203.59V204.294H133.032V203.111H137.12V202.981C137.111 202.685 137.052 202.407 136.942 202.147C136.838 201.888 136.676 201.678 136.457 201.519C136.238 201.359 135.947 201.279 135.582 201.279C135.309 201.279 135.065 201.339 134.851 201.457C134.641 201.571 134.465 201.737 134.324 201.956C134.183 202.175 134.074 202.439 133.996 202.749C133.923 203.054 133.887 203.398 133.887 203.781V204.055C133.887 204.378 133.93 204.679 134.017 204.957C134.108 205.23 134.24 205.47 134.413 205.675C134.586 205.88 134.796 206.042 135.042 206.16C135.288 206.274 135.568 206.331 135.883 206.331C136.279 206.331 136.632 206.251 136.942 206.092C137.252 205.932 137.521 205.707 137.749 205.415L138.617 206.256C138.458 206.488 138.25 206.712 137.995 206.926C137.74 207.135 137.428 207.306 137.059 207.438C136.694 207.571 136.27 207.637 135.787 207.637ZM143.293 207.637C142.746 207.637 142.252 207.548 141.81 207.37C141.372 207.188 140.998 206.935 140.688 206.611C140.383 206.288 140.148 205.907 139.984 205.47C139.82 205.032 139.738 204.561 139.738 204.055V203.781C139.738 203.202 139.823 202.678 139.991 202.209C140.16 201.74 140.395 201.339 140.695 201.006C140.996 200.669 141.352 200.411 141.762 200.233C142.172 200.056 142.616 199.967 143.095 199.967C143.623 199.967 144.086 200.056 144.482 200.233C144.879 200.411 145.207 200.662 145.467 200.985C145.731 201.304 145.927 201.685 146.055 202.127C146.187 202.569 146.253 203.057 146.253 203.59V204.294H140.538V203.111H144.626V202.981C144.617 202.685 144.558 202.407 144.448 202.147C144.343 201.888 144.182 201.678 143.963 201.519C143.744 201.359 143.452 201.279 143.088 201.279C142.814 201.279 142.571 201.339 142.356 201.457C142.147 201.571 141.971 201.737 141.83 201.956C141.689 202.175 141.579 202.439 141.502 202.749C141.429 203.054 141.393 203.398 141.393 203.781V204.055C141.393 204.378 141.436 204.679 141.522 204.957C141.614 205.23 141.746 205.47 141.919 205.675C142.092 205.88 142.302 206.042 142.548 206.16C142.794 206.274 143.074 206.331 143.389 206.331C143.785 206.331 144.138 206.251 144.448 206.092C144.758 205.932 145.027 205.707 145.255 205.415L146.123 206.256C145.964 206.488 145.756 206.712 145.501 206.926C145.246 207.135 144.934 207.306 144.564 207.438C144.2 207.571 143.776 207.637 143.293 207.637ZM149.199 197V207.5H147.545V197H149.199ZM153.793 200.104L150.573 203.672L148.81 205.477L148.379 204.082L149.712 202.435L151.804 200.104H153.793ZM152.159 207.5L149.76 204.027L150.799 202.872L154.066 207.5H152.159ZM164.901 206.188V207.5H158.229V206.372L161.47 202.838C161.825 202.437 162.105 202.09 162.311 201.799C162.516 201.507 162.659 201.245 162.741 201.013C162.828 200.776 162.871 200.546 162.871 200.322C162.871 200.008 162.812 199.732 162.693 199.495C162.579 199.254 162.411 199.064 162.188 198.928C161.964 198.786 161.693 198.716 161.374 198.716C161.005 198.716 160.695 198.796 160.444 198.955C160.194 199.115 160.005 199.336 159.877 199.618C159.749 199.896 159.686 200.215 159.686 200.575H158.038C158.038 199.996 158.17 199.468 158.435 198.989C158.699 198.506 159.082 198.123 159.583 197.841C160.084 197.554 160.688 197.41 161.395 197.41C162.06 197.41 162.625 197.522 163.09 197.745C163.555 197.968 163.908 198.285 164.149 198.695C164.396 199.105 164.519 199.591 164.519 200.151C164.519 200.461 164.468 200.769 164.368 201.074C164.268 201.38 164.124 201.685 163.938 201.99C163.755 202.291 163.539 202.594 163.288 202.899C163.037 203.2 162.762 203.506 162.461 203.815L160.308 206.188H164.901Z" fill="#999999"/>
<path d="M202.072 205.265L204.055 197.547H205.094L204.978 199.536L202.858 207.5H201.778L202.072 205.265ZM200.589 197.547L202.195 205.203L202.339 207.5H201.19L198.887 197.547H200.589ZM207.343 205.183L208.929 197.547H210.638L208.334 207.5H207.186L207.343 205.183ZM205.497 197.547L207.459 205.285L207.746 207.5H206.666L204.581 199.536L204.472 197.547H205.497ZM214.787 207.637C214.24 207.637 213.746 207.548 213.304 207.37C212.866 207.188 212.493 206.935 212.183 206.611C211.877 206.288 211.643 205.907 211.479 205.47C211.314 205.032 211.232 204.561 211.232 204.055V203.781C211.232 203.202 211.317 202.678 211.485 202.209C211.654 201.74 211.889 201.339 212.189 201.006C212.49 200.669 212.846 200.411 213.256 200.233C213.666 200.056 214.11 199.967 214.589 199.967C215.118 199.967 215.58 200.056 215.977 200.233C216.373 200.411 216.701 200.662 216.961 200.985C217.225 201.304 217.421 201.685 217.549 202.127C217.681 202.569 217.747 203.057 217.747 203.59V204.294H212.032V203.111H216.12V202.981C216.111 202.685 216.052 202.407 215.942 202.147C215.838 201.888 215.676 201.678 215.457 201.519C215.238 201.359 214.947 201.279 214.582 201.279C214.309 201.279 214.065 201.339 213.851 201.457C213.641 201.571 213.465 201.737 213.324 201.956C213.183 202.175 213.074 202.439 212.996 202.749C212.923 203.054 212.887 203.398 212.887 203.781V204.055C212.887 204.378 212.93 204.679 213.017 204.957C213.108 205.23 213.24 205.47 213.413 205.675C213.586 205.88 213.796 206.042 214.042 206.16C214.288 206.274 214.568 206.331 214.883 206.331C215.279 206.331 215.632 206.251 215.942 206.092C216.252 205.932 216.521 205.707 216.749 205.415L217.617 206.256C217.458 206.488 217.25 206.712 216.995 206.926C216.74 207.135 216.428 207.306 216.059 207.438C215.694 207.571 215.27 207.637 214.787 207.637ZM222.293 207.637C221.746 207.637 221.252 207.548 220.81 207.37C220.372 207.188 219.998 206.935 219.688 206.611C219.383 206.288 219.148 205.907 218.984 205.47C218.82 205.032 218.738 204.561 218.738 204.055V203.781C218.738 203.202 218.823 202.678 218.991 202.209C219.16 201.74 219.395 201.339 219.695 201.006C219.996 200.669 220.352 200.411 220.762 200.233C221.172 200.056 221.616 199.967 222.095 199.967C222.623 199.967 223.086 200.056 223.482 200.233C223.879 200.411 224.207 200.662 224.467 200.985C224.731 201.304 224.927 201.685 225.055 202.127C225.187 202.569 225.253 203.057 225.253 203.59V204.294H219.538V203.111H223.626V202.981C223.617 202.685 223.558 202.407 223.448 202.147C223.343 201.888 223.182 201.678 222.963 201.519C222.744 201.359 222.452 201.279 222.088 201.279C221.814 201.279 221.571 201.339 221.356 201.457C221.147 201.571 220.971 201.737 220.83 201.956C220.689 202.175 220.579 202.439 220.502 202.749C220.429 203.054 220.393 203.398 220.393 203.781V204.055C220.393 204.378 220.436 204.679 220.522 204.957C220.614 205.23 220.746 205.47 220.919 205.675C221.092 205.88 221.302 206.042 221.548 206.16C221.794 206.274 222.074 206.331 222.389 206.331C222.785 206.331 223.138 206.251 223.448 206.092C223.758 205.932 224.027 205.707 224.255 205.415L225.123 206.256C224.964 206.488 224.756 206.712 224.501 206.926C224.246 207.135 223.934 207.306 223.564 207.438C223.2 207.571 222.776 207.637 222.293 207.637ZM228.199 197V207.5H226.545V197H228.199ZM232.793 200.104L229.573 203.672L227.81 205.477L227.379 204.082L228.712 202.435L230.804 200.104H232.793ZM231.159 207.5L228.76 204.027L229.799 202.872L233.066 207.5H231.159ZM239.164 201.778H240.148C240.531 201.778 240.848 201.712 241.099 201.58C241.354 201.448 241.543 201.266 241.666 201.033C241.789 200.801 241.851 200.534 241.851 200.233C241.851 199.919 241.794 199.65 241.68 199.427C241.57 199.199 241.402 199.023 241.174 198.9C240.951 198.777 240.666 198.716 240.319 198.716C240.028 198.716 239.763 198.775 239.526 198.894C239.294 199.007 239.109 199.172 238.973 199.386C238.836 199.595 238.768 199.846 238.768 200.138H237.113C237.113 199.609 237.252 199.14 237.53 198.729C237.808 198.319 238.187 197.998 238.665 197.766C239.148 197.529 239.69 197.41 240.292 197.41C240.935 197.41 241.495 197.517 241.974 197.731C242.457 197.941 242.833 198.256 243.102 198.675C243.37 199.094 243.505 199.614 243.505 200.233C243.505 200.516 243.439 200.803 243.307 201.095C243.174 201.386 242.979 201.653 242.719 201.895C242.459 202.132 242.135 202.325 241.748 202.476C241.361 202.621 240.912 202.694 240.401 202.694H239.164V201.778ZM239.164 203.063V202.161H240.401C240.985 202.161 241.481 202.229 241.892 202.366C242.306 202.503 242.644 202.692 242.903 202.934C243.163 203.171 243.352 203.442 243.471 203.747C243.594 204.052 243.655 204.376 243.655 204.718C243.655 205.183 243.571 205.597 243.402 205.962C243.238 206.322 243.004 206.627 242.698 206.878C242.393 207.129 242.035 207.318 241.625 207.445C241.219 207.573 240.777 207.637 240.299 207.637C239.87 207.637 239.46 207.577 239.068 207.459C238.676 207.34 238.326 207.165 238.016 206.933C237.706 206.696 237.46 206.402 237.277 206.051C237.1 205.695 237.011 205.285 237.011 204.82H238.658C238.658 205.117 238.727 205.379 238.863 205.606C239.005 205.83 239.201 206.005 239.451 206.133C239.706 206.26 239.998 206.324 240.326 206.324C240.673 206.324 240.971 206.263 241.222 206.14C241.472 206.017 241.664 205.834 241.796 205.593C241.933 205.351 242.001 205.06 242.001 204.718C242.001 204.33 241.926 204.016 241.775 203.774C241.625 203.533 241.411 203.355 241.133 203.241C240.855 203.123 240.527 203.063 240.148 203.063H239.164Z" fill="#999999"/>
<path d="M281.072 205.265L283.055 197.547H284.094L283.978 199.536L281.858 207.5H280.778L281.072 205.265ZM279.589 197.547L281.195 205.203L281.339 207.5H280.19L277.887 197.547H279.589ZM286.343 205.183L287.929 197.547H289.638L287.334 207.5H286.186L286.343 205.183ZM284.497 197.547L286.459 205.285L286.746 207.5H285.666L283.581 199.536L283.472 197.547H284.497ZM293.787 207.637C293.24 207.637 292.746 207.548 292.304 207.37C291.866 207.188 291.493 206.935 291.183 206.611C290.877 206.288 290.643 205.907 290.479 205.47C290.314 205.032 290.232 204.561 290.232 204.055V203.781C290.232 203.202 290.317 202.678 290.485 202.209C290.654 201.74 290.889 201.339 291.189 201.006C291.49 200.669 291.846 200.411 292.256 200.233C292.666 200.056 293.11 199.967 293.589 199.967C294.118 199.967 294.58 200.056 294.977 200.233C295.373 200.411 295.701 200.662 295.961 200.985C296.225 201.304 296.421 201.685 296.549 202.127C296.681 202.569 296.747 203.057 296.747 203.59V204.294H291.032V203.111H295.12V202.981C295.111 202.685 295.052 202.407 294.942 202.147C294.838 201.888 294.676 201.678 294.457 201.519C294.238 201.359 293.947 201.279 293.582 201.279C293.309 201.279 293.065 201.339 292.851 201.457C292.641 201.571 292.465 201.737 292.324 201.956C292.183 202.175 292.074 202.439 291.996 202.749C291.923 203.054 291.887 203.398 291.887 203.781V204.055C291.887 204.378 291.93 204.679 292.017 204.957C292.108 205.23 292.24 205.47 292.413 205.675C292.586 205.88 292.796 206.042 293.042 206.16C293.288 206.274 293.568 206.331 293.883 206.331C294.279 206.331 294.632 206.251 294.942 206.092C295.252 205.932 295.521 205.707 295.749 205.415L296.617 206.256C296.458 206.488 296.25 206.712 295.995 206.926C295.74 207.135 295.428 207.306 295.059 207.438C294.694 207.571 294.27 207.637 293.787 207.637ZM301.293 207.637C300.746 207.637 300.252 207.548 299.81 207.37C299.372 207.188 298.998 206.935 298.688 206.611C298.383 206.288 298.148 205.907 297.984 205.47C297.82 205.032 297.738 204.561 297.738 204.055V203.781C297.738 203.202 297.823 202.678 297.991 202.209C298.16 201.74 298.395 201.339 298.695 201.006C298.996 200.669 299.352 200.411 299.762 200.233C300.172 200.056 300.616 199.967 301.095 199.967C301.623 199.967 302.086 200.056 302.482 200.233C302.879 200.411 303.207 200.662 303.467 200.985C303.731 201.304 303.927 201.685 304.055 202.127C304.187 202.569 304.253 203.057 304.253 203.59V204.294H298.538V203.111H302.626V202.981C302.617 202.685 302.558 202.407 302.448 202.147C302.343 201.888 302.182 201.678 301.963 201.519C301.744 201.359 301.452 201.279 301.088 201.279C300.814 201.279 300.571 201.339 300.356 201.457C300.147 201.571 299.971 201.737 299.83 201.956C299.689 202.175 299.579 202.439 299.502 202.749C299.429 203.054 299.393 203.398 299.393 203.781V204.055C299.393 204.378 299.436 204.679 299.522 204.957C299.614 205.23 299.746 205.47 299.919 205.675C300.092 205.88 300.302 206.042 300.548 206.16C300.794 206.274 301.074 206.331 301.389 206.331C301.785 206.331 302.138 206.251 302.448 206.092C302.758 205.932 303.027 205.707 303.255 205.415L304.123 206.256C303.964 206.488 303.756 206.712 303.501 206.926C303.246 207.135 302.934 207.306 302.564 207.438C302.2 207.571 301.776 207.637 301.293 207.637ZM307.199 197V207.5H305.545V197H307.199ZM311.793 200.104L308.573 203.672L306.81 205.477L306.379 204.082L307.712 202.435L309.804 200.104H311.793ZM310.159 207.5L307.76 204.027L308.799 202.872L312.066 207.5H310.159ZM323.086 203.952V205.265H315.908L315.854 204.273L320.146 197.547H321.466L320.037 199.994L317.569 203.952H323.086ZM321.842 197.547V207.5H320.194V197.547H321.842Z" fill="#999999"/>
</g>
<defs>
<filter id="filter0_d_312_971" x="0" y="0.5" width="364" height="219" filterUnits="userSpaceOnUse" color-interpolation-filters="sRGB">
<feFlood flood-opacity="0" result="BackgroundImageFix"/>
<feColorMatrix in="SourceAlpha" type="matrix" values="0 0 0 0 0 0 0 0 0 0 0 0 0 0 0 0 0 0 127 0" result="hardAlpha"/>
<feOffset/>
<feGaussianBlur stdDeviation="2"/>
<feComposite in2="hardAlpha" operator="out"/>
<feColorMatrix type="matrix" values="0 0 0 0 0 0 0 0 0 0 0 0 0 0 0 0 0 0 0.2 0"/>
<feBlend mode="normal" in2="BackgroundImageFix" result="effect1_dropShadow_312_971"/>
<feBlend mode="normal" in="SourceGraphic" in2="effect1_dropShadow_312_971" result="shape"/>
</filter>
<linearGradient id="paint0_linear_312_971" x1="180.609" y1="69.4475" x2="180.609" y2="168.529" gradientUnits="userSpaceOnUse">
<stop stop-color="#DA4E35"/>
<stop offset="0.348958" stop-color="#EEBA5A"/>
<stop offset="0.666667" stop-color="#DBDA6A"/>
<stop offset="1" stop-color="#94B968"/>
</linearGradient>
</defs>
</svg>
