<svg width="30" height="30" viewBox="0 0 30 30" fill="none" xmlns="http://www.w3.org/2000/svg">
<path d="M27.334 4.90496L16.084 0.217461C15.7397 0.0709766 15.3715 0.000488281 15.0035 0.000488281C14.6355 0.000488281 14.2676 0.0705664 13.9219 0.217051L2.67246 4.90496C1.6248 5.3368 0.9375 6.36336 0.9375 7.44734C0.9375 22.5821 12.0352 30.0001 14.9941 30.0001C17.8828 30.0001 29.0625 22.6934 29.0625 7.44734C29.0625 6.36336 28.377 5.3368 27.334 4.90496ZM27.1816 7.51766C27.1816 20.7188 17.4434 28.1251 15.0059 28.1251C12.498 28.0723 2.8125 20.6368 2.8125 7.50008C2.8125 7.11922 3.03955 6.7823 3.38379 6.63582L14.6338 1.94832C14.7494 1.89983 14.8746 1.87414 15.0005 1.87414C15.1218 1.87414 15.2439 1.898 15.3589 1.94832L26.6089 6.63582C27.1465 6.86141 27.1816 7.37117 27.1816 7.51766ZM19.6875 10.6231C19.4476 10.6231 19.2077 10.7146 19.0248 10.8978L13.4355 16.4884L10.9746 14.0274C10.793 13.8399 10.5527 13.752 10.3125 13.752C9.77701 13.752 9.375 14.1899 9.375 14.6895C9.375 14.9294 9.46652 15.1693 9.64969 15.3522L12.7751 18.477C12.9609 18.6563 13.2012 18.7501 13.4355 18.7501C13.6699 18.7501 13.9153 18.6586 14.0982 18.4754L20.3502 12.2234C20.5312 12.0411 20.625 11.8009 20.625 11.5606C20.625 11.0626 20.2207 10.6231 19.6875 10.6231Z" fill="#14AF52"/>
</svg>
