<svg width="51" height="50" viewBox="0 0 51 50" fill="none" xmlns="http://www.w3.org/2000/svg">
<rect x="0.5" width="50" height="50" rx="10" fill="#14AF52"/>
<rect x="19.9688" y="8.71729" width="12.0204" height="32.6267" fill="white"/>
<path d="M22.5473 43.4319C20.1762 43.4315 18.2505 41.5057 18.25 39.1347L18.25 11.2973C18.2505 8.92623 20.1762 7.00052 22.5473 7L29.1355 7.00474C31.5047 7.00237 33.4304 8.92808 33.4304 11.2996L33.4304 39.1323C33.4304 41.5039 31.5047 43.4296 29.135 43.4277L22.5473 43.4319ZM22.544 41.2819L29.1378 41.2809C30.3236 41.2809 31.2817 40.3228 31.2817 39.137L31.2817 11.2949C31.2817 10.1091 30.3236 9.15101 29.1378 9.15101L22.5439 9.15006C21.3586 9.15053 20.4005 10.1086 20.4001 11.2939L20.3967 15.0377L24.3236 15.0372C24.9165 15.0325 25.4003 15.5163 25.3955 16.1092C25.4003 16.7021 24.9165 17.1859 24.3236 17.1811L20.3963 17.1811L20.3963 21.1084H24.3236C24.9165 21.1037 25.4003 21.5875 25.3955 22.1804C25.4003 22.7733 24.9165 23.2571 24.3236 23.2523H20.3963L20.3963 27.1796H24.3236C24.9165 27.1749 25.4003 27.6587 25.3955 28.2516C25.4003 28.8445 24.9165 29.3283 24.3236 29.3235H20.3963L20.3963 33.2508L24.3236 33.2508C24.9165 33.2461 25.4003 33.7299 25.3955 34.3228C25.4003 34.9157 24.9165 35.3995 24.3236 35.3947L20.3967 35.3942L20.4001 39.138C20.4001 40.3238 21.3582 41.2819 22.544 41.2819Z" fill="#333333"/>
<path d="M22.5473 43.4319C20.1762 43.4315 18.2505 41.5057 18.25 39.1347L18.25 11.2973C18.2505 8.92623 20.1762 7.00052 22.5473 7L29.1355 7.00474C31.5047 7.00237 33.4304 8.92808 33.4304 11.2996L33.4304 39.1323C33.4304 41.5039 31.5047 43.4296 29.135 43.4277L22.5473 43.4319ZM22.544 41.2819L29.1378 41.2809C30.3236 41.2809 31.2817 40.3228 31.2817 39.137L31.2817 11.2949C31.2817 10.1091 30.3236 9.15101 29.1378 9.15101L22.5439 9.15006C21.3586 9.15053 20.4005 10.1086 20.4001 11.2939L20.3967 15.0377L24.3236 15.0372C24.9165 15.0325 25.4003 15.5163 25.3955 16.1092C25.4003 16.7021 24.9165 17.1859 24.3236 17.1811L20.3963 17.1811L20.3963 21.1084H24.3236C24.9165 21.1037 25.4003 21.5875 25.3955 22.1804C25.4003 22.7733 24.9165 23.2571 24.3236 23.2523H20.3963L20.3963 27.1796H24.3236C24.9165 27.1749 25.4003 27.6587 25.3955 28.2516C25.4003 28.8445 24.9165 29.3283 24.3236 29.3235H20.3963L20.3963 33.2508L24.3236 33.2508C24.9165 33.2461 25.4003 33.7299 25.3955 34.3228C25.4003 34.9157 24.9165 35.3995 24.3236 35.3947L20.3967 35.3942L20.4001 39.138C20.4001 40.3238 21.3582 41.2819 22.544 41.2819Z" fill="black" fill-opacity="0.2"/>
</svg>
