<svg width="85" height="80" viewBox="0 0 85 80" fill="none" xmlns="http://www.w3.org/2000/svg">
<g clip-path="url(#clip0_8985_53526)">
<path d="M98.1599 15.9299C97.6853 12.6923 96.2869 7.11557 94.9563 3.96275C94.9139 3.87801 94.8715 3.79324 94.8206 3.7085C92.9985 0.877747 92.1764 -5.21603 91.2186 -12.2675C90.5067 -17.5476 89.6931 -23.5312 88.2862 -29.2181C87.4471 -32.6167 86.5403 -35.2017 85.7267 -37.4815C84.2774 -41.5751 83.1332 -44.8126 83.1247 -50.7454C83.1247 -53.4236 82.2602 -74.9 81.8449 -78.7562C80.4041 -91.3506 74.3528 -96.0713 69.1066 -98.2664C67.3352 -99.0123 65.6571 -99.4699 64.2757 -99.8428C63.7332 -99.9869 63.2162 -100.131 62.7925 -100.267C61.7415 -100.589 58.0124 -102.886 54.1137 -105.606C53.9273 -105.733 53.3764 -106.123 53.3764 -107.818V-113.064C57.0292 -115.836 59.682 -119.768 61.25 -124.752C61.2584 -124.76 61.2584 -124.777 61.2669 -124.794C62.3009 -128.396 62.8264 -133.32 63.0806 -136.778C63.2501 -139.084 63.301 -140.736 63.3095 -140.897V-140.948C63.3095 -142.813 63.1569 -144.584 62.8518 -146.262C62.8518 -146.279 62.8518 -146.296 62.8433 -146.313C62.0721 -150.635 60.3346 -154.297 57.6903 -157.068C54.7663 -160.128 50.9101 -161.958 46.6809 -162.323H46.6724C46.1554 -162.365 45.6384 -162.391 45.1045 -162.391H41.3245C36.4766 -162.391 32.0102 -160.501 28.7387 -157.068C25.0604 -153.212 23.1111 -147.635 23.1111 -140.948V-140.897C23.1195 -140.677 23.2128 -137.736 23.5772 -134.134C23.8738 -131.083 24.3654 -127.549 25.1621 -124.794C25.1621 -124.777 25.1706 -124.76 25.1706 -124.752C26.747 -119.768 29.3913 -115.844 33.0526 -113.064V-107.818C33.0526 -106.123 32.4932 -105.733 32.3068 -105.606C28.4166 -102.886 24.679 -100.589 23.6365 -100.267C23.2043 -100.131 22.6958 -99.9869 22.1533 -99.8428C20.543 -99.4021 18.5344 -98.8597 16.441 -97.885C11.4151 -95.5289 5.93162 -90.6641 4.57557 -78.7647C4.16875 -74.9085 3.29579 -53.432 3.29579 -50.7454C3.28731 -44.8126 2.14315 -41.5751 0.693876 -37.4815C-0.111279 -35.2017 -1.02662 -32.6167 -1.86567 -29.2181C-3.2641 -23.5312 -4.07772 -17.5476 -4.79812 -12.2675C-5.74736 -5.21603 -6.57794 0.877747 -8.39166 3.7085C-8.45098 3.79324 -8.49336 3.87801 -8.52726 3.96275C-9.86636 7.11557 -11.2648 12.6923 -11.7394 15.9299C-11.9598 17.447 -11.197 25.3375 -10.9766 26.5749C-10.9512 26.7274 -10.9343 26.9393 -10.9004 27.1597C-10.7308 28.6513 -10.4935 30.6854 -8.81542 31.2702C-8.66287 31.321 -8.51032 31.355 -8.35776 31.3634C-8.28148 31.3634 -8.2052 31.3634 -8.12892 31.3634C-4.46759 31.3634 -13.3573 26.3037 -12.281 21.4134C-12.1369 20.7354 -11.9589 19.9387 -11.7724 19.159C-11.7385 20.7269 -11.5182 22.4474 -10.7893 23.3288C-10.4079 23.7865 -9.97567 24.1425 -9.51801 24.3798C-9.11119 24.5747 -8.70438 24.6764 -8.29756 24.6764C-7.89075 24.6764 -6.44148 24.5323 -5.80583 22.6508C-5.77193 22.5491 -5.74649 22.4474 -5.72954 22.3372C-5.33968 19.5065 -4.64471 14.701 -4.4074 13.828C-3.11067 8.98015 -4.01753 6.53925 -4.67013 4.75943C-5.14475 3.47118 -5.40748 2.76775 -4.88201 1.27609C-4.88201 1.25914 -4.87355 1.24219 -4.86507 1.22523C-2.73777 -5.48721 9.19461 -11.1742 10.8981 -16.1916C15.8901 -30.8962 18.9073 -39.7783 19.3989 -52.0251C19.7125 -54.5338 19.8904 -56.8815 20.0006 -58.8901C20.0006 -58.9918 20.0006 -59.0936 20.0176 -59.1953C20.1362 -58.9495 20.2549 -58.7122 20.3566 -58.4918C20.6278 -57.9409 20.8566 -57.4832 21.0177 -57.1697C23.7976 -51.8387 24.1959 -40.8038 24.34 -36.6509C24.3569 -36.1 24.3739 -35.6339 24.3908 -35.2864C24.5264 -32.5913 22.789 -29.074 20.5939 -24.6245C17.9665 -19.302 14.6951 -12.6743 13.1441 -4.31764C10.6354 9.26828 10.8812 20.6761 14.0086 35.0502C15.8562 43.5594 21.1956 73.7146 20.8142 78.7828C20.4413 81.2491 20.2718 86.3427 20.1447 90.0804C20.1108 91.0804 20.0854 91.9619 20.0515 92.623C19.5345 104.649 21.1533 113.608 24.7044 129.83C25.1706 131.94 25.6028 133.805 25.9927 135.44C27.2301 140.703 27.9759 143.882 27.8403 147.746C27.7894 149.263 27.5521 149.95 27.4165 150.221C26.7215 151.611 26.5775 152.832 26.4419 153.908C26.3571 154.611 26.2723 155.272 26.0435 155.967C25.6875 157.086 24.9332 158.078 24.0518 159.23C23.6958 159.705 23.3229 160.188 22.95 160.731C21.7126 161.951 21.1448 163.231 21.2635 164.544C21.4245 166.333 22.8314 167.299 22.9924 167.409C23.1195 167.485 23.2551 167.553 23.3907 167.596C24.1959 167.867 25.2892 167.943 27.8742 167.943C33.1458 167.943 35.5528 167.943 39.4854 167.57C39.5616 167.562 39.6379 167.553 39.7057 167.536C42.5788 166.875 42.2398 163.273 41.994 160.637C41.9262 159.858 41.8246 158.781 41.9008 158.434C41.9517 158.179 42.0957 157.9 42.2822 157.552C42.6297 156.908 43.0619 156.103 43.2145 154.916C43.3586 156.103 43.7908 156.908 44.1383 157.552C44.3248 157.9 44.4773 158.179 44.5282 158.434C44.6044 158.781 44.5027 159.858 44.4265 160.646C44.1807 163.273 43.8502 166.875 46.7148 167.536C46.7911 167.553 46.8589 167.562 46.9351 167.57C50.8677 167.943 53.2747 167.943 58.5548 167.943C61.1398 167.943 62.2246 167.867 63.0298 167.596C63.1739 167.553 63.3094 167.485 63.4366 167.409C63.5891 167.299 64.996 166.333 65.1571 164.544C65.2757 163.231 64.7079 161.951 63.479 160.731C63.0976 160.188 62.7331 159.705 62.3687 159.23C61.4958 158.078 60.733 157.086 60.377 155.967C60.1482 155.272 60.0719 154.611 59.9871 153.908C59.8515 152.832 59.699 151.611 59.004 150.221C58.8684 149.95 58.6311 149.263 58.5802 147.746C58.4446 143.882 59.1989 140.703 60.4363 135.44C60.8177 133.796 61.2584 131.94 61.7161 129.83C65.2757 113.608 66.886 104.649 66.3691 92.623C66.3436 91.9704 66.3097 91.0889 66.2758 90.0888C66.1487 86.3512 65.9792 81.2491 65.6063 78.7828C65.2164 73.6298 70.5389 43.1102 72.412 35.0756C75.3359 22.5576 76.5987 11.065 73.2679 -4.3685C71.5475 -12.3438 68.437 -18.8273 65.9368 -24.0397C63.6739 -28.7519 61.8941 -32.4726 62.0297 -35.2864C62.0467 -35.6339 62.0636 -36.1 62.0806 -36.6509C62.2331 -40.8038 62.623 -51.8387 65.3944 -57.1358C65.5554 -57.4578 65.7843 -57.9239 66.0555 -58.4748C66.1656 -58.7037 66.2843 -58.941 66.4114 -59.1953C66.4199 -59.0936 66.4199 -58.9918 66.4284 -58.8901C66.5385 -56.8815 66.7081 -54.5338 67.0216 -52.0251C67.5047 -39.9902 70.6576 -30.6928 75.4207 -16.6407C77.1666 -11.4793 89.1498 -5.63976 91.2856 1.21677C91.2856 1.23372 91.3026 1.25914 91.311 1.27609C91.8365 2.76775 91.5738 3.47118 91.0991 4.75943C90.4381 6.53925 89.5397 8.98015 90.8364 13.8365C91.0652 14.701 91.7687 19.5065 92.1586 22.3372C92.167 22.4474 92.1924 22.5491 92.2263 22.6508C92.862 24.5323 94.3028 24.6764 94.7266 24.6764C95.1503 24.6764 95.5402 24.5747 95.9301 24.3798C96.3962 24.1425 96.8285 23.7865 97.2098 23.3204C97.9472 22.4474 88.1675 20.7269 88.193 19.1675C88.3879 19.9387 88.5574 20.7354 88.71 21.4134C89.7778 26.3037 90.8881 31.3634 94.5579 31.3634C94.6342 31.3634 94.7105 31.3634 94.7868 31.3634C94.9393 31.355 95.0919 31.321 95.236 31.2702C96.9225 30.6854 97.1514 28.6429 97.3294 27.1597C97.3548 26.9308 97.3802 26.7274 97.4056 26.5749C97.626 25.3375 98.3803 17.447 98.1599 15.9299ZM43.2145 153.06C43.1891 152.882 43.1721 152.704 43.1382 152.518C42.3839 147.89 42.4263 144.738 42.4941 139.958C42.5704 135.05 42.6551 128.94 41.9432 118.413C40.9855 104.175 40.799 94.674 41.3499 88.5294C41.4516 87.4446 41.5872 86.275 41.7313 85.0291C42.1975 81.0881 42.7653 76.1894 42.7145 69.2989C42.6636 61.8576 42.8924 53.3653 43.1382 45.0087C43.4518 53.2806 43.7654 61.7813 43.7061 69.2989C43.6552 76.1978 44.2315 81.0965 44.6892 85.0375C44.8333 86.2749 44.9774 87.453 45.0706 88.5294C45.63 94.674 45.4435 104.175 44.4773 118.413C43.7654 128.94 43.8586 135.05 43.9264 139.958C43.9942 144.738 44.0451 147.899 43.2908 152.518C43.2569 152.704 43.2315 152.882 43.2145 153.06ZM43.2654 7.94615C43.2654 7.32745 43.2908 6.76805 43.3247 6.26801C43.3247 6.76805 43.3077 7.32745 43.2654 7.94615ZM95.5411 27.7699C95.4139 28.6344 95.1936 29.4904 94.6766 29.6769H94.5579C90.2779 29.6769 100.558 14.2009 97.4048 14.2009C97.2776 14.2009 97.142 14.2263 97.0064 14.2857C96.8963 14.3196 96.7945 14.362 96.7098 14.4128C95.9809 14.7773 96.1928 15.1925 96.3538 16.2011C96.5572 17.3792 96.6759 21.3372 95.9131 22.2525C95.6843 22.5237 95.43 22.744 95.1758 22.8712C95.0232 22.9474 94.8707 22.9898 94.7266 22.9898C94.3706 22.9898 94.0485 22.7355 93.8367 22.1169C93.8367 22.1169 92.8196 14.6925 92.4721 13.4043C90.3703 5.54764 94.5316 5.31879 92.9044 0.71669C84.9884 -24.6245 69.3524 -35.9305 68.7167 -52.1523C68.2675 -55.6865 68.1065 -58.8817 68.0133 -61.2971C67.8946 -64.1025 67.8777 -65.8484 67.6149 -65.8484C67.2674 -64.6788 63.8942 -57.9155 63.8942 -57.9155C63.64 -57.4324 63.4027 -56.9069 63.1908 -56.356C60.5719 -49.669 60.4872 -38.346 60.3346 -35.3627C60.055 -29.5995 66.208 -21.709 69.9965 -9.97914C70.0389 -9.84354 70.0812 -9.7079 70.1236 -9.5723C70.683 -7.80943 71.183 -5.95338 71.6068 -4.00406C72.0645 -1.90218 72.4289 0.123428 72.7171 2.09818C74.3952 13.5992 73.4035 23.3712 70.7593 34.7027C69.0303 42.1101 63.4535 73.5451 63.9197 78.9862C64.3858 81.978 64.5469 89.6736 64.674 92.7077C65.191 104.692 63.5553 113.523 60.0634 129.482C58.1395 138.254 56.6987 142.441 56.8852 147.814C56.9276 149.119 57.114 150.23 57.4954 150.992C58.4701 152.942 58.1141 154.484 58.7667 156.501C59.3854 158.442 60.8177 159.875 62.1823 161.841C64.8943 164.426 62.5043 165.994 62.5043 165.994C61.911 166.189 60.9025 166.256 58.5548 166.256C57.5039 166.256 56.5716 166.256 55.7241 166.248C55.3088 166.256 54.9104 166.248 54.529 166.248C53.5544 166.239 52.6814 166.223 51.8508 166.206C51.3762 166.189 50.9185 166.163 50.4609 166.138C49.4015 166.087 48.3336 166.011 47.0962 165.892C44.9604 165.4 46.5707 159.883 46.1893 158.086C45.8758 156.662 44.6299 155.959 44.8841 153.34C44.9011 153.162 44.9265 152.984 44.9604 152.789C45.1384 151.679 45.274 150.653 45.3757 149.662C46.1639 142.119 44.918 136.991 46.1724 118.532C47.2996 101.827 47.2148 93.4281 46.7572 88.3768C46.3504 83.8764 45.3333 78.3166 45.4011 69.3074C45.5452 50.06 43.2992 24.812 44.6638 11.1922C44.6807 10.9973 44.7062 10.8108 44.7231 10.6243C44.7316 10.548 44.7401 10.4802 44.7485 10.404C44.7655 10.2853 44.7739 10.1667 44.7909 10.048C45.452 3.86104 44.5875 1.0981 43.5789 1.0981C42.4941 1.0981 41.2482 4.3611 41.6466 10.065C41.655 10.1752 41.6635 10.2853 41.672 10.404C41.6805 10.4718 41.6805 10.5396 41.689 10.6074C41.7059 10.8024 41.7144 10.9803 41.7313 11.1752C42.6043 23.9306 40.8753 50.0854 41.0194 69.3074C41.0872 78.3166 40.0702 83.8764 39.6633 88.3768C39.2057 93.4281 39.1294 101.827 40.2566 118.532C41.511 137.178 40.2397 142.22 41.0702 149.899C41.1719 150.823 41.2991 151.772 41.4686 152.789C41.5788 153.467 41.5957 154.027 41.5618 154.501C41.4092 156.213 40.4854 156.908 40.2397 158.086C39.8583 159.883 41.4686 165.4 39.3243 165.892C38.1632 166.002 37.1462 166.078 36.1461 166.129C35.6884 166.155 35.2307 166.18 34.7561 166.197C33.9171 166.223 33.0526 166.239 32.0864 166.248H30.8914C29.993 166.256 29.0014 166.256 27.8742 166.256C25.5265 166.256 24.5095 166.189 23.9162 165.994C23.9162 165.994 21.5262 164.426 24.2467 161.841C25.6028 159.875 27.0351 158.442 27.6623 156.501C28.3064 154.484 27.9589 152.942 28.9336 150.992C29.315 150.23 29.493 149.119 29.5353 147.814C29.7218 142.441 28.281 138.254 26.3571 129.482C22.8653 113.523 21.2295 104.692 21.7465 92.7077C21.8821 89.6736 22.0347 81.978 22.5008 78.9862C22.9755 73.5451 17.2801 42.1356 15.6613 34.7027C13.2458 23.6001 12.3983 13.7009 13.8645 2.08969C13.8815 1.94562 13.8984 1.80156 13.9238 1.65749C13.9408 1.5473 13.9493 1.42863 13.9662 1.31845C14.195 -0.393555 14.4747 -2.16492 14.8137 -4.00406C14.89 -4.4024 14.9663 -4.79222 15.0511 -5.18208C15.1189 -5.52957 15.1951 -5.87711 15.2799 -6.22459C15.2799 -6.28392 15.3053 -6.34322 15.3223 -6.40254C15.3985 -6.75003 15.4833 -7.09755 15.5765 -7.44504C15.6697 -7.8349 15.7714 -8.22475 15.8816 -8.60614C15.9749 -8.94516 16.0681 -9.27568 16.1613 -9.59775C16.2037 -9.73335 16.2461 -9.87741 16.2884 -10.0045C19.8904 -21.8107 26.3741 -29.591 26.0859 -35.3627C25.9333 -38.346 25.8486 -49.6605 23.2382 -56.3475C23.0263 -56.9069 22.789 -57.4324 22.5347 -57.9155C22.5347 -57.9155 19.1616 -64.6788 18.8141 -65.8484C18.5513 -65.8484 18.5259 -64.1025 18.4157 -61.3056C18.3225 -58.8817 18.1615 -55.6865 17.7123 -52.1523C17.0766 -35.9305 1.77111 -25.3195 -6.48384 0.71669C-8.1111 5.31879 -3.94126 5.54764 -6.05161 13.4043C-6.39062 14.6925 -7.40766 22.1169 -7.40766 22.1169C-7.61955 22.7355 -7.9416 22.9898 -8.29756 22.9898C-8.44164 22.9898 -8.5942 22.9474 -8.74675 22.8712C-9.00101 22.744 -9.25528 22.5237 -9.48411 22.2525C-10.2469 21.3372 -10.1282 17.3792 -9.9333 16.2011C-9.7638 15.1925 -9.55191 14.7773 -10.2893 14.4128C-10.374 14.362 -10.4673 14.3196 -10.5859 14.2857C-10.7215 14.2263 -10.8571 14.2009 -10.9842 14.2009C-14.1286 14.2009 -3.85737 29.6769 -8.12892 29.6769H-8.24758C-8.76457 29.4904 -8.98493 28.6259 -9.12053 27.7614C-9.20529 27.2021 -9.24766 26.6342 -9.31546 26.2783C-9.40021 25.7867 -9.53582 24.5916 -9.66295 23.1763C-9.91721 20.4472 -10.1715 16.9384 -10.0613 16.1756C-9.6121 13.0991 -8.25606 7.67497 -6.96781 4.62386C-3.46751 -0.825775 -3.49293 -15.5559 -0.221459 -28.8113C2.10077 -38.2104 4.9739 -41.1259 4.99085 -50.7454C4.99085 -53.3812 5.85533 -74.7305 6.26215 -78.5698C7.47412 -89.2148 12.1271 -93.7915 16.6359 -96.0798C16.8139 -96.1815 16.9919 -96.2662 17.1699 -96.3425C17.8818 -96.6815 18.5937 -96.9612 19.2718 -97.207C19.7972 -97.4019 20.3142 -97.563 20.8142 -97.7155C20.9583 -97.7579 21.1024 -97.8003 21.2465 -97.8342C21.7211 -97.9698 22.1703 -98.0969 22.5941 -98.2071C22.7975 -98.2664 22.9924 -98.3173 23.1789 -98.3681C23.3484 -98.419 23.5179 -98.4613 23.6789 -98.5122C23.7467 -98.5291 23.8145 -98.5546 23.8823 -98.5715C23.9671 -98.597 24.0518 -98.6224 24.1366 -98.6478C25.7299 -99.1394 30.349 -102.174 33.2814 -104.216C34.4341 -105.021 34.7477 -106.411 34.7477 -107.818V-113.929C34.2053 -114.31 33.6798 -114.709 33.1882 -115.132C32.8153 -115.454 32.4508 -115.785 32.1034 -116.141C31.9254 -116.319 31.7559 -116.497 31.5864 -116.683C31.4169 -116.861 31.2558 -117.048 31.0948 -117.234C30.9338 -117.421 30.7727 -117.607 30.6287 -117.802C30.4676 -117.997 30.3235 -118.192 30.1795 -118.395C30.1032 -118.497 30.0269 -118.599 29.9591 -118.7C29.8828 -118.802 29.815 -118.904 29.7472 -119.006C29.6031 -119.209 29.4675 -119.412 29.3404 -119.624C29.0777 -120.056 28.8234 -120.489 28.5861 -120.938C28.459 -121.158 28.3488 -121.387 28.2386 -121.616C28.103 -121.887 27.9759 -122.167 27.8488 -122.455C27.7555 -122.641 27.6792 -122.836 27.603 -123.031C27.4758 -123.311 27.3657 -123.599 27.264 -123.896C27.1962 -124.057 27.1368 -124.218 27.086 -124.379C26.9843 -124.667 26.8826 -124.964 26.7893 -125.26C26.5351 -126.133 26.3147 -127.091 26.1283 -128.1C26.0096 -128.701 25.8994 -129.311 25.8062 -129.939C25.6282 -131.091 25.4757 -132.261 25.357 -133.397C25.2977 -133.888 25.2553 -134.371 25.2045 -134.837C25.0858 -136.126 25.0011 -137.312 24.9417 -138.278C24.9248 -138.6 24.9078 -138.897 24.8909 -139.177C24.8739 -139.448 24.857 -139.702 24.8485 -139.914C24.84 -140.024 24.84 -140.126 24.8316 -140.219C24.8146 -140.685 24.8061 -140.948 24.8061 -140.948C24.8061 -154.492 33.0526 -160.696 41.3245 -160.696H45.1045C53.3679 -160.696 61.6144 -154.492 61.6144 -140.948C61.6144 -140.948 61.6059 -140.626 61.5805 -140.067C61.5805 -139.999 61.572 -139.923 61.572 -139.846C61.5636 -139.685 61.5551 -139.516 61.5381 -139.321C61.5212 -139.024 61.4957 -138.685 61.4788 -138.304C61.4788 -138.134 61.4619 -137.948 61.4449 -137.753C61.411 -137.27 61.3771 -136.736 61.3262 -136.168C61.3262 -135.965 61.3008 -135.761 61.2754 -135.549C61.2161 -134.837 61.1398 -134.083 61.055 -133.303C60.9957 -132.761 60.9364 -132.21 60.8601 -131.651C60.8177 -131.312 60.7669 -130.973 60.716 -130.634C60.6736 -130.286 60.6228 -129.947 60.5635 -129.608C60.4533 -128.93 60.3346 -128.269 60.2075 -127.625C60.1227 -127.21 60.038 -126.794 59.9363 -126.404C59.8431 -126.015 59.7414 -125.625 59.6397 -125.26C59.5295 -124.913 59.4108 -124.565 59.2837 -124.226C59.2837 -124.209 59.2752 -124.192 59.2667 -124.175C59.2159 -124.023 59.165 -123.879 59.1057 -123.735C58.9701 -123.37 58.826 -123.023 58.6735 -122.675C58.5718 -122.438 58.4701 -122.201 58.3599 -121.972C57.9785 -121.158 57.5547 -120.387 57.0886 -119.641C56.9614 -119.429 56.8258 -119.217 56.6818 -119.014C56.5462 -118.811 56.4105 -118.607 56.258 -118.412C56.1224 -118.217 55.9783 -118.031 55.8258 -117.844C55.6732 -117.641 55.5122 -117.446 55.3427 -117.251C55.0291 -116.87 54.6901 -116.505 54.3426 -116.149C54.1392 -115.954 53.9358 -115.751 53.7239 -115.565C53.5798 -115.429 53.4357 -115.293 53.2832 -115.166C53.2747 -115.166 53.2747 -115.158 53.2662 -115.149C53.2408 -115.132 53.2238 -115.115 53.1984 -115.098C53.0204 -114.946 52.834 -114.802 52.656 -114.658C52.5119 -114.531 52.3594 -114.412 52.1983 -114.302C52.0288 -114.175 51.8593 -114.047 51.6813 -113.929V-107.818C51.6813 -106.411 51.9949 -105.021 53.1476 -104.216C56.0715 -102.174 60.6991 -99.1394 62.284 -98.6478C62.3687 -98.6224 62.4534 -98.597 62.5382 -98.5715C62.606 -98.5546 62.6738 -98.5291 62.7416 -98.5122C62.962 -98.4444 63.1908 -98.3851 63.4281 -98.3173C63.5892 -98.2749 63.7587 -98.2325 63.9282 -98.1817C64.3519 -98.0715 64.8011 -97.9444 65.2673 -97.8088C65.3774 -97.7834 65.4876 -97.7494 65.6063 -97.7155C65.7843 -97.6647 65.9622 -97.6054 66.1402 -97.5461C66.4368 -97.4528 66.7335 -97.3511 67.0471 -97.2409C67.3522 -97.1392 67.6658 -97.0206 67.9794 -96.8934C68.2929 -96.7748 68.6065 -96.6392 68.9286 -96.4951C73.6917 -94.3509 78.8701 -89.8928 80.1584 -78.5698C80.5737 -74.7305 81.4297 -53.3812 81.4297 -50.7454C81.4466 -41.1259 84.3197 -38.2104 86.642 -28.8113C89.9134 -15.5559 89.8965 -0.825775 93.3968 4.62386C94.6851 7.67497 96.0326 13.0991 96.4818 16.1756C96.592 16.9384 96.3462 20.4472 96.0919 23.1678C95.9563 24.5832 95.8207 25.7867 95.736 26.2783C95.6767 26.6342 95.6343 27.2021 95.5411 27.7614V27.7699Z" fill="#333333"/>
<path d="M98.1599 15.9299C97.6853 12.6923 96.2869 7.11557 94.9563 3.96275C94.9139 3.87801 94.8715 3.79324 94.8206 3.7085C92.9985 0.877747 92.1764 -5.21603 91.2186 -12.2675C90.5067 -17.5476 89.6931 -23.5312 88.2862 -29.2181C87.4471 -32.6167 86.5403 -35.2017 85.7267 -37.4815C84.2774 -41.5751 83.1332 -44.8126 83.1247 -50.7454C83.1247 -53.4236 82.2602 -74.9 81.8449 -78.7562C80.4041 -91.3506 74.3528 -96.0713 69.1066 -98.2664C67.3352 -99.0123 65.6571 -99.4699 64.2757 -99.8428C63.7332 -99.9869 63.2162 -100.131 62.7925 -100.267C61.7415 -100.589 58.0124 -102.886 54.1137 -105.606C53.9273 -105.733 53.3764 -106.123 53.3764 -107.818V-113.064C57.0292 -115.836 59.682 -119.768 61.25 -124.752C61.2584 -124.76 61.2584 -124.777 61.2669 -124.794C62.3009 -128.396 62.8264 -133.32 63.0806 -136.778C63.2501 -139.084 63.301 -140.736 63.3095 -140.897V-140.948C63.3095 -142.813 63.1569 -144.584 62.8518 -146.262C62.8518 -146.279 62.8518 -146.296 62.8433 -146.313C62.0721 -150.635 60.3346 -154.297 57.6903 -157.068C54.7663 -160.128 50.9101 -161.958 46.6809 -162.323H46.6724C46.1554 -162.365 45.6384 -162.391 45.1045 -162.391H41.3245C36.4766 -162.391 32.0102 -160.501 28.7387 -157.068C25.0604 -153.212 23.1111 -147.635 23.1111 -140.948V-140.897C23.1195 -140.677 23.2128 -137.736 23.5772 -134.134C23.8738 -131.083 24.3654 -127.549 25.1621 -124.794C25.1621 -124.777 25.1706 -124.76 25.1706 -124.752C26.747 -119.768 29.3913 -115.844 33.0526 -113.064V-107.818C33.0526 -106.123 32.4932 -105.733 32.3068 -105.606C28.4166 -102.886 24.679 -100.589 23.6365 -100.267C23.2043 -100.131 22.6958 -99.9869 22.1533 -99.8428C20.543 -99.4021 18.5344 -98.8597 16.441 -97.885C11.4151 -95.5289 5.93162 -90.6641 4.57557 -78.7647C4.16875 -74.9085 3.29579 -53.432 3.29579 -50.7454C3.28731 -44.8126 2.14315 -41.5751 0.693876 -37.4815C-0.111279 -35.2017 -1.02662 -32.6167 -1.86567 -29.2181C-3.2641 -23.5312 -4.07772 -17.5476 -4.79812 -12.2675C-5.74736 -5.21603 -6.57794 0.877747 -8.39166 3.7085C-8.45098 3.79324 -8.49336 3.87801 -8.52726 3.96275C-9.86636 7.11557 -11.2648 12.6923 -11.7394 15.9299C-11.9598 17.447 -11.197 25.3375 -10.9766 26.5749C-10.9512 26.7274 -10.9343 26.9393 -10.9004 27.1597C-10.7308 28.6513 -10.4935 30.6854 -8.81542 31.2702C-8.66287 31.321 -8.51032 31.355 -8.35776 31.3634C-8.28148 31.3634 -8.2052 31.3634 -8.12892 31.3634C-4.46759 31.3634 -13.3573 26.3037 -12.281 21.4134C-12.1369 20.7354 -11.9589 19.9387 -11.7724 19.159C-11.7385 20.7269 -11.5182 22.4474 -10.7893 23.3288C-10.4079 23.7865 -9.97567 24.1425 -9.51801 24.3798C-9.11119 24.5747 -8.70438 24.6764 -8.29756 24.6764C-7.89075 24.6764 -6.44148 24.5323 -5.80583 22.6508C-5.77193 22.5491 -5.74649 22.4474 -5.72954 22.3372C-5.33968 19.5065 -4.64471 14.701 -4.4074 13.828C-3.11067 8.98015 -4.01753 6.53925 -4.67013 4.75943C-5.14475 3.47118 -5.40748 2.76775 -4.88201 1.27609C-4.88201 1.25914 -4.87355 1.24219 -4.86507 1.22523C-2.73777 -5.48721 9.19461 -11.1742 10.8981 -16.1916C15.8901 -30.8962 18.9073 -39.7783 19.3989 -52.0251C19.7125 -54.5338 19.8904 -56.8815 20.0006 -58.8901C20.0006 -58.9918 20.0006 -59.0936 20.0176 -59.1953C20.1362 -58.9495 20.2549 -58.7122 20.3566 -58.4918C20.6278 -57.9409 20.8566 -57.4832 21.0177 -57.1697C23.7976 -51.8387 24.1959 -40.8038 24.34 -36.6509C24.3569 -36.1 24.3739 -35.6339 24.3908 -35.2864C24.5264 -32.5913 22.789 -29.074 20.5939 -24.6245C17.9665 -19.302 14.6951 -12.6743 13.1441 -4.31764C10.6354 9.26828 10.8812 20.6761 14.0086 35.0502C15.8562 43.5594 21.1956 73.7146 20.8142 78.7828C20.4413 81.2491 20.2718 86.3427 20.1447 90.0804C20.1108 91.0804 20.0854 91.9619 20.0515 92.623C19.5345 104.649 21.1533 113.608 24.7044 129.83C25.1706 131.94 25.6028 133.805 25.9927 135.44C27.2301 140.703 27.9759 143.882 27.8403 147.746C27.7894 149.263 27.5521 149.95 27.4165 150.221C26.7215 151.611 26.5775 152.832 26.4419 153.908C26.3571 154.611 26.2723 155.272 26.0435 155.967C25.6875 157.086 24.9332 158.078 24.0518 159.23C23.6958 159.705 23.3229 160.188 22.95 160.731C21.7126 161.951 21.1448 163.231 21.2635 164.544C21.4245 166.333 22.8314 167.299 22.9924 167.409C23.1195 167.485 23.2551 167.553 23.3907 167.596C24.1959 167.867 25.2892 167.943 27.8742 167.943C33.1458 167.943 35.5528 167.943 39.4854 167.57C39.5616 167.562 39.6379 167.553 39.7057 167.536C42.5788 166.875 42.2398 163.273 41.994 160.637C41.9262 159.858 41.8246 158.781 41.9008 158.434C41.9517 158.179 42.0957 157.9 42.2822 157.552C42.6297 156.908 43.0619 156.103 43.2145 154.916C43.3586 156.103 43.7908 156.908 44.1383 157.552C44.3248 157.9 44.4773 158.179 44.5282 158.434C44.6044 158.781 44.5027 159.858 44.4265 160.646C44.1807 163.273 43.8502 166.875 46.7148 167.536C46.7911 167.553 46.8589 167.562 46.9351 167.57C50.8677 167.943 53.2747 167.943 58.5548 167.943C61.1398 167.943 62.2246 167.867 63.0298 167.596C63.1739 167.553 63.3094 167.485 63.4366 167.409C63.5891 167.299 64.996 166.333 65.1571 164.544C65.2757 163.231 64.7079 161.951 63.479 160.731C63.0976 160.188 62.7331 159.705 62.3687 159.23C61.4958 158.078 60.733 157.086 60.377 155.967C60.1482 155.272 60.0719 154.611 59.9871 153.908C59.8515 152.832 59.699 151.611 59.004 150.221C58.8684 149.95 58.6311 149.263 58.5802 147.746C58.4446 143.882 59.1989 140.703 60.4363 135.44C60.8177 133.796 61.2584 131.94 61.7161 129.83C65.2757 113.608 66.886 104.649 66.3691 92.623C66.3436 91.9704 66.3097 91.0889 66.2758 90.0888C66.1487 86.3512 65.9792 81.2491 65.6063 78.7828C65.2164 73.6298 70.5389 43.1102 72.412 35.0756C75.3359 22.5576 76.5987 11.065 73.2679 -4.3685C71.5475 -12.3438 68.437 -18.8273 65.9368 -24.0397C63.6739 -28.7519 61.8941 -32.4726 62.0297 -35.2864C62.0467 -35.6339 62.0636 -36.1 62.0806 -36.6509C62.2331 -40.8038 62.623 -51.8387 65.3944 -57.1358C65.5554 -57.4578 65.7843 -57.9239 66.0555 -58.4748C66.1656 -58.7037 66.2843 -58.941 66.4114 -59.1953C66.4199 -59.0936 66.4199 -58.9918 66.4284 -58.8901C66.5385 -56.8815 66.7081 -54.5338 67.0216 -52.0251C67.5047 -39.9902 70.6576 -30.6928 75.4207 -16.6407C77.1666 -11.4793 89.1498 -5.63976 91.2856 1.21677C91.2856 1.23372 91.3026 1.25914 91.311 1.27609C91.8365 2.76775 91.5738 3.47118 91.0991 4.75943C90.4381 6.53925 89.5397 8.98015 90.8364 13.8365C91.0652 14.701 91.7687 19.5065 92.1586 22.3372C92.167 22.4474 92.1924 22.5491 92.2263 22.6508C92.862 24.5323 94.3028 24.6764 94.7266 24.6764C95.1503 24.6764 95.5402 24.5747 95.9301 24.3798C96.3962 24.1425 96.8285 23.7865 97.2098 23.3204C97.9472 22.4474 88.1675 20.7269 88.193 19.1675C88.3879 19.9387 88.5574 20.7354 88.71 21.4134C89.7778 26.3037 90.8881 31.3634 94.5579 31.3634C94.6342 31.3634 94.7105 31.3634 94.7868 31.3634C94.9393 31.355 95.0919 31.321 95.236 31.2702C96.9225 30.6854 97.1514 28.6429 97.3294 27.1597C97.3548 26.9308 97.3802 26.7274 97.4056 26.5749C97.626 25.3375 98.3803 17.447 98.1599 15.9299ZM43.2145 153.06C43.1891 152.882 43.1721 152.704 43.1382 152.518C42.3839 147.89 42.4263 144.738 42.4941 139.958C42.5704 135.05 42.6551 128.94 41.9432 118.413C40.9855 104.175 40.799 94.674 41.3499 88.5294C41.4516 87.4446 41.5872 86.275 41.7313 85.0291C42.1975 81.0881 42.7653 76.1894 42.7145 69.2989C42.6636 61.8576 42.8924 53.3653 43.1382 45.0087C43.4518 53.2806 43.7654 61.7813 43.7061 69.2989C43.6552 76.1978 44.2315 81.0965 44.6892 85.0375C44.8333 86.2749 44.9774 87.453 45.0706 88.5294C45.63 94.674 45.4435 104.175 44.4773 118.413C43.7654 128.94 43.8586 135.05 43.9264 139.958C43.9942 144.738 44.0451 147.899 43.2908 152.518C43.2569 152.704 43.2315 152.882 43.2145 153.06ZM43.2654 7.94615C43.2654 7.32745 43.2908 6.76805 43.3247 6.26801C43.3247 6.76805 43.3077 7.32745 43.2654 7.94615ZM95.5411 27.7699C95.4139 28.6344 95.1936 29.4904 94.6766 29.6769H94.5579C90.2779 29.6769 100.558 14.2009 97.4048 14.2009C97.2776 14.2009 97.142 14.2263 97.0064 14.2857C96.8963 14.3196 96.7945 14.362 96.7098 14.4128C95.9809 14.7773 96.1928 15.1925 96.3538 16.2011C96.5572 17.3792 96.6759 21.3372 95.9131 22.2525C95.6843 22.5237 95.43 22.744 95.1758 22.8712C95.0232 22.9474 94.8707 22.9898 94.7266 22.9898C94.3706 22.9898 94.0485 22.7355 93.8367 22.1169C93.8367 22.1169 92.8196 14.6925 92.4721 13.4043C90.3703 5.54764 94.5316 5.31879 92.9044 0.71669C84.9884 -24.6245 69.3524 -35.9305 68.7167 -52.1523C68.2675 -55.6865 68.1065 -58.8817 68.0133 -61.2971C67.8946 -64.1025 67.8777 -65.8484 67.6149 -65.8484C67.2674 -64.6788 63.8942 -57.9155 63.8942 -57.9155C63.64 -57.4324 63.4027 -56.9069 63.1908 -56.356C60.5719 -49.669 60.4872 -38.346 60.3346 -35.3627C60.055 -29.5995 66.208 -21.709 69.9965 -9.97914C70.0389 -9.84354 70.0812 -9.7079 70.1236 -9.5723C70.683 -7.80943 71.183 -5.95338 71.6068 -4.00406C72.0645 -1.90218 72.4289 0.123428 72.7171 2.09818C74.3952 13.5992 73.4035 23.3712 70.7593 34.7027C69.0303 42.1101 63.4535 73.5451 63.9197 78.9862C64.3858 81.978 64.5469 89.6736 64.674 92.7077C65.191 104.692 63.5553 113.523 60.0634 129.482C58.1395 138.254 56.6987 142.441 56.8852 147.814C56.9276 149.119 57.114 150.23 57.4954 150.992C58.4701 152.942 58.1141 154.484 58.7667 156.501C59.3854 158.442 60.8177 159.875 62.1823 161.841C64.8943 164.426 62.5043 165.994 62.5043 165.994C61.911 166.189 60.9025 166.256 58.5548 166.256C57.5039 166.256 56.5716 166.256 55.7241 166.248C55.3088 166.256 54.9104 166.248 54.529 166.248C53.5544 166.239 52.6814 166.223 51.8508 166.206C51.3762 166.189 50.9185 166.163 50.4609 166.138C49.4015 166.087 48.3336 166.011 47.0962 165.892C44.9604 165.4 46.5707 159.883 46.1893 158.086C45.8758 156.662 44.6299 155.959 44.8841 153.34C44.9011 153.162 44.9265 152.984 44.9604 152.789C45.1384 151.679 45.274 150.653 45.3757 149.662C46.1639 142.119 44.918 136.991 46.1724 118.532C47.2996 101.827 47.2148 93.4281 46.7572 88.3768C46.3504 83.8764 45.3333 78.3166 45.4011 69.3074C45.5452 50.06 43.2992 24.812 44.6638 11.1922C44.6807 10.9973 44.7062 10.8108 44.7231 10.6243C44.7316 10.548 44.7401 10.4802 44.7485 10.404C44.7655 10.2853 44.7739 10.1667 44.7909 10.048C45.452 3.86104 44.5875 1.0981 43.5789 1.0981C42.4941 1.0981 41.2482 4.3611 41.6466 10.065C41.655 10.1752 41.6635 10.2853 41.672 10.404C41.6805 10.4718 41.6805 10.5396 41.689 10.6074C41.7059 10.8024 41.7144 10.9803 41.7313 11.1752C42.6043 23.9306 40.8753 50.0854 41.0194 69.3074C41.0872 78.3166 40.0702 83.8764 39.6633 88.3768C39.2057 93.4281 39.1294 101.827 40.2566 118.532C41.511 137.178 40.2397 142.22 41.0702 149.899C41.1719 150.823 41.2991 151.772 41.4686 152.789C41.5788 153.467 41.5957 154.027 41.5618 154.501C41.4092 156.213 40.4854 156.908 40.2397 158.086C39.8583 159.883 41.4686 165.4 39.3243 165.892C38.1632 166.002 37.1462 166.078 36.1461 166.129C35.6884 166.155 35.2307 166.18 34.7561 166.197C33.9171 166.223 33.0526 166.239 32.0864 166.248H30.8914C29.993 166.256 29.0014 166.256 27.8742 166.256C25.5265 166.256 24.5095 166.189 23.9162 165.994C23.9162 165.994 21.5262 164.426 24.2467 161.841C25.6028 159.875 27.0351 158.442 27.6623 156.501C28.3064 154.484 27.9589 152.942 28.9336 150.992C29.315 150.23 29.493 149.119 29.5353 147.814C29.7218 142.441 28.281 138.254 26.3571 129.482C22.8653 113.523 21.2295 104.692 21.7465 92.7077C21.8821 89.6736 22.0347 81.978 22.5008 78.9862C22.9755 73.5451 17.2801 42.1356 15.6613 34.7027C13.2458 23.6001 12.3983 13.7009 13.8645 2.08969C13.8815 1.94562 13.8984 1.80156 13.9238 1.65749C13.9408 1.5473 13.9493 1.42863 13.9662 1.31845C14.195 -0.393555 14.4747 -2.16492 14.8137 -4.00406C14.89 -4.4024 14.9663 -4.79222 15.0511 -5.18208C15.1189 -5.52957 15.1951 -5.87711 15.2799 -6.22459C15.2799 -6.28392 15.3053 -6.34322 15.3223 -6.40254C15.3985 -6.75003 15.4833 -7.09755 15.5765 -7.44504C15.6697 -7.8349 15.7714 -8.22475 15.8816 -8.60614C15.9749 -8.94516 16.0681 -9.27568 16.1613 -9.59775C16.2037 -9.73335 16.2461 -9.87741 16.2884 -10.0045C19.8904 -21.8107 26.3741 -29.591 26.0859 -35.3627C25.9333 -38.346 25.8486 -49.6605 23.2382 -56.3475C23.0263 -56.9069 22.789 -57.4324 22.5347 -57.9155C22.5347 -57.9155 19.1616 -64.6788 18.8141 -65.8484C18.5513 -65.8484 18.5259 -64.1025 18.4157 -61.3056C18.3225 -58.8817 18.1615 -55.6865 17.7123 -52.1523C17.0766 -35.9305 1.77111 -25.3195 -6.48384 0.71669C-8.1111 5.31879 -3.94126 5.54764 -6.05161 13.4043C-6.39062 14.6925 -7.40766 22.1169 -7.40766 22.1169C-7.61955 22.7355 -7.9416 22.9898 -8.29756 22.9898C-8.44164 22.9898 -8.5942 22.9474 -8.74675 22.8712C-9.00101 22.744 -9.25528 22.5237 -9.48411 22.2525C-10.2469 21.3372 -10.1282 17.3792 -9.9333 16.2011C-9.7638 15.1925 -9.55191 14.7773 -10.2893 14.4128C-10.374 14.362 -10.4673 14.3196 -10.5859 14.2857C-10.7215 14.2263 -10.8571 14.2009 -10.9842 14.2009C-14.1286 14.2009 -3.85737 29.6769 -8.12892 29.6769H-8.24758C-8.76457 29.4904 -8.98493 28.6259 -9.12053 27.7614C-9.20529 27.2021 -9.24766 26.6342 -9.31546 26.2783C-9.40021 25.7867 -9.53582 24.5916 -9.66295 23.1763C-9.91721 20.4472 -10.1715 16.9384 -10.0613 16.1756C-9.6121 13.0991 -8.25606 7.67497 -6.96781 4.62386C-3.46751 -0.825775 -3.49293 -15.5559 -0.221459 -28.8113C2.10077 -38.2104 4.9739 -41.1259 4.99085 -50.7454C4.99085 -53.3812 5.85533 -74.7305 6.26215 -78.5698C7.47412 -89.2148 12.1271 -93.7915 16.6359 -96.0798C16.8139 -96.1815 16.9919 -96.2662 17.1699 -96.3425C17.8818 -96.6815 18.5937 -96.9612 19.2718 -97.207C19.7972 -97.4019 20.3142 -97.563 20.8142 -97.7155C20.9583 -97.7579 21.1024 -97.8003 21.2465 -97.8342C21.7211 -97.9698 22.1703 -98.0969 22.5941 -98.2071C22.7975 -98.2664 22.9924 -98.3173 23.1789 -98.3681C23.3484 -98.419 23.5179 -98.4613 23.6789 -98.5122C23.7467 -98.5291 23.8145 -98.5546 23.8823 -98.5715C23.9671 -98.597 24.0518 -98.6224 24.1366 -98.6478C25.7299 -99.1394 30.349 -102.174 33.2814 -104.216C34.4341 -105.021 34.7477 -106.411 34.7477 -107.818V-113.929C34.2053 -114.31 33.6798 -114.709 33.1882 -115.132C32.8153 -115.454 32.4508 -115.785 32.1034 -116.141C31.9254 -116.319 31.7559 -116.497 31.5864 -116.683C31.4169 -116.861 31.2558 -117.048 31.0948 -117.234C30.9338 -117.421 30.7727 -117.607 30.6287 -117.802C30.4676 -117.997 30.3235 -118.192 30.1795 -118.395C30.1032 -118.497 30.0269 -118.599 29.9591 -118.7C29.8828 -118.802 29.815 -118.904 29.7472 -119.006C29.6031 -119.209 29.4675 -119.412 29.3404 -119.624C29.0777 -120.056 28.8234 -120.489 28.5861 -120.938C28.459 -121.158 28.3488 -121.387 28.2386 -121.616C28.103 -121.887 27.9759 -122.167 27.8488 -122.455C27.7555 -122.641 27.6792 -122.836 27.603 -123.031C27.4758 -123.311 27.3657 -123.599 27.264 -123.896C27.1962 -124.057 27.1368 -124.218 27.086 -124.379C26.9843 -124.667 26.8826 -124.964 26.7893 -125.26C26.5351 -126.133 26.3147 -127.091 26.1283 -128.1C26.0096 -128.701 25.8994 -129.311 25.8062 -129.939C25.6282 -131.091 25.4757 -132.261 25.357 -133.397C25.2977 -133.888 25.2553 -134.371 25.2045 -134.837C25.0858 -136.126 25.0011 -137.312 24.9417 -138.278C24.9248 -138.6 24.9078 -138.897 24.8909 -139.177C24.8739 -139.448 24.857 -139.702 24.8485 -139.914C24.84 -140.024 24.84 -140.126 24.8316 -140.219C24.8146 -140.685 24.8061 -140.948 24.8061 -140.948C24.8061 -154.492 33.0526 -160.696 41.3245 -160.696H45.1045C53.3679 -160.696 61.6144 -154.492 61.6144 -140.948C61.6144 -140.948 61.6059 -140.626 61.5805 -140.067C61.5805 -139.999 61.572 -139.923 61.572 -139.846C61.5636 -139.685 61.5551 -139.516 61.5381 -139.321C61.5212 -139.024 61.4957 -138.685 61.4788 -138.304C61.4788 -138.134 61.4619 -137.948 61.4449 -137.753C61.411 -137.27 61.3771 -136.736 61.3262 -136.168C61.3262 -135.965 61.3008 -135.761 61.2754 -135.549C61.2161 -134.837 61.1398 -134.083 61.055 -133.303C60.9957 -132.761 60.9364 -132.21 60.8601 -131.651C60.8177 -131.312 60.7669 -130.973 60.716 -130.634C60.6736 -130.286 60.6228 -129.947 60.5635 -129.608C60.4533 -128.93 60.3346 -128.269 60.2075 -127.625C60.1227 -127.21 60.038 -126.794 59.9363 -126.404C59.8431 -126.015 59.7414 -125.625 59.6397 -125.26C59.5295 -124.913 59.4108 -124.565 59.2837 -124.226C59.2837 -124.209 59.2752 -124.192 59.2667 -124.175C59.2159 -124.023 59.165 -123.879 59.1057 -123.735C58.9701 -123.37 58.826 -123.023 58.6735 -122.675C58.5718 -122.438 58.4701 -122.201 58.3599 -121.972C57.9785 -121.158 57.5547 -120.387 57.0886 -119.641C56.9614 -119.429 56.8258 -119.217 56.6818 -119.014C56.5462 -118.811 56.4105 -118.607 56.258 -118.412C56.1224 -118.217 55.9783 -118.031 55.8258 -117.844C55.6732 -117.641 55.5122 -117.446 55.3427 -117.251C55.0291 -116.87 54.6901 -116.505 54.3426 -116.149C54.1392 -115.954 53.9358 -115.751 53.7239 -115.565C53.5798 -115.429 53.4357 -115.293 53.2832 -115.166C53.2747 -115.166 53.2747 -115.158 53.2662 -115.149C53.2408 -115.132 53.2238 -115.115 53.1984 -115.098C53.0204 -114.946 52.834 -114.802 52.656 -114.658C52.5119 -114.531 52.3594 -114.412 52.1983 -114.302C52.0288 -114.175 51.8593 -114.047 51.6813 -113.929V-107.818C51.6813 -106.411 51.9949 -105.021 53.1476 -104.216C56.0715 -102.174 60.6991 -99.1394 62.284 -98.6478C62.3687 -98.6224 62.4534 -98.597 62.5382 -98.5715C62.606 -98.5546 62.6738 -98.5291 62.7416 -98.5122C62.962 -98.4444 63.1908 -98.3851 63.4281 -98.3173C63.5892 -98.2749 63.7587 -98.2325 63.9282 -98.1817C64.3519 -98.0715 64.8011 -97.9444 65.2673 -97.8088C65.3774 -97.7834 65.4876 -97.7494 65.6063 -97.7155C65.7843 -97.6647 65.9622 -97.6054 66.1402 -97.5461C66.4368 -97.4528 66.7335 -97.3511 67.0471 -97.2409C67.3522 -97.1392 67.6658 -97.0206 67.9794 -96.8934C68.2929 -96.7748 68.6065 -96.6392 68.9286 -96.4951C73.6917 -94.3509 78.8701 -89.8928 80.1584 -78.5698C80.5737 -74.7305 81.4297 -53.3812 81.4297 -50.7454C81.4466 -41.1259 84.3197 -38.2104 86.642 -28.8113C89.9134 -15.5559 89.8965 -0.825775 93.3968 4.62386C94.6851 7.67497 96.0326 13.0991 96.4818 16.1756C96.592 16.9384 96.3462 20.4472 96.0919 23.1678C95.9563 24.5832 95.8207 25.7867 95.736 26.2783C95.6767 26.6342 95.6343 27.2021 95.5411 27.7614V27.7699Z" fill="black" fill-opacity="0.2"/>
<path d="M39.8919 148.28C40.2563 148.687 40.6716 149.229 41.07 149.899C40.2394 142.22 41.5107 137.177 40.2563 118.532C39.1291 101.827 39.2054 93.4278 39.6631 88.3765C40.0699 83.8761 41.0869 78.3163 41.0191 69.307C40.875 50.085 42.604 23.9303 41.731 11.1749C33.0523 4.67435 23.0854 1.4029 13.949 2.08092H13.8642C12.398 13.7006 13.2455 23.5997 15.661 34.7024C17.2798 42.1352 22.9752 73.5447 22.5006 78.9859C22.0344 81.9777 21.8819 89.6732 21.7463 92.7074C21.2293 104.691 22.865 113.523 26.3568 129.482C28.2807 138.254 29.7215 142.44 29.5351 147.814C29.4927 149.119 29.3147 150.229 28.9333 150.992C27.9587 152.941 28.3061 154.484 27.662 156.501C27.0348 158.442 25.6025 159.874 24.2465 161.84C21.5259 164.425 23.9159 165.993 23.9159 165.993C24.5092 166.188 25.5262 166.256 27.8739 166.256C29.0011 166.256 29.9927 166.256 30.8911 166.248C30.8996 165.137 30.6538 164.129 31.1793 163.146C31.5946 162.366 32.0014 162.29 31.7895 163.154C31.4929 164.434 31.9675 164.976 32.0861 166.248C33.0523 166.239 33.9168 166.222 34.7558 166.197C34.6287 164.815 35.0101 164.078 35.1627 163.112C35.3067 162.137 36.4001 162.137 36.5357 163.12C36.6543 163.925 36.0356 163.773 36.1458 166.129C37.1459 166.078 38.1629 166.002 39.324 165.892C41.4683 165.4 39.858 159.883 40.2394 158.086C40.4852 156.908 41.409 156.213 41.5615 154.509C41.1547 152.704 40.5106 150.636 39.5274 148.551C39.2054 147.865 39.3918 147.712 39.8919 148.28ZM24.9838 166.07C24.8906 166.07 24.7889 166.078 24.6957 166.087C24.738 165.12 24.4838 164.247 24.933 163.391C25.2805 162.747 25.611 162.688 25.4415 163.4C25.1788 164.51 25.6279 164.951 25.6957 166.137C25.4669 166.095 25.2296 166.07 24.9838 166.07ZM27.9078 166.171C27.8146 166.171 27.7129 166.171 27.6196 166.171C27.662 165.205 27.3993 164.332 27.857 163.485C28.2044 162.841 28.535 162.773 28.3655 163.485C28.1027 164.595 28.5519 165.036 28.6197 166.231C28.3909 166.188 28.1536 166.163 27.9078 166.163V166.171ZM35.5017 81.7319C34.883 82.6641 33.7303 84.088 32.5014 84.1812C30.0775 84.1812 29.1028 83.054 27.162 81.3759C26.3568 80.6725 27.1959 80.6131 28.1705 81.2318C30.6199 82.7828 34.0694 82.4946 35.1712 81.6302C35.6458 81.2572 35.7898 81.2996 35.5017 81.7319Z" fill="#FFEACA"/>
<path d="M72.7167 2.09814L72.4794 2.08123C63.3175 1.4032 53.3506 4.68315 44.6634 11.1922C43.2989 24.812 45.5448 50.0599 45.4007 69.3073C45.3329 78.3166 46.35 83.8764 46.7568 88.3768C47.2144 93.4281 47.2992 101.827 46.172 118.532C44.9176 136.991 46.172 142.119 45.3753 149.662C45.7482 149.136 46.1127 148.713 46.4263 148.374C46.9517 147.814 47.1297 147.975 46.7822 148.662C45.9516 150.272 45.3329 151.865 44.8837 153.34C44.6295 155.959 45.8754 156.662 46.1889 158.086C46.5703 159.883 44.96 165.4 47.0958 165.892C48.3332 166.011 49.4011 166.087 50.4605 166.138C50.5791 163.773 49.9605 163.926 50.0706 163.121C50.2147 162.137 51.308 162.137 51.4521 163.112C51.5962 164.087 51.9861 164.816 51.8505 166.206C52.681 166.223 53.554 166.239 54.5287 166.248C54.6473 164.977 55.1219 164.434 54.8168 163.154C54.6134 162.29 55.0202 162.366 55.4355 163.146C55.961 164.129 55.7152 165.138 55.7237 166.248C56.5712 166.256 57.5035 166.256 58.5544 166.256C60.9021 166.256 61.9106 166.189 62.5039 165.994C62.5039 165.994 64.894 164.426 62.1819 161.841C60.8173 159.875 59.385 158.442 58.7663 156.501C58.1137 154.484 58.4697 152.942 57.495 150.992C57.1136 150.23 56.9272 149.119 56.8848 147.814C56.6983 142.441 58.1391 138.254 60.063 129.482C63.5549 113.523 65.1906 104.692 64.6736 92.7077C64.5465 89.6735 64.3854 81.978 63.9193 78.9862C63.4531 73.545 69.0299 42.1101 70.7589 34.7027C73.4032 23.3712 74.3948 13.5991 72.7167 2.09814ZM61.1733 163.4C61.0038 162.688 61.3343 162.748 61.6733 163.392C62.131 164.248 61.8767 165.121 61.9191 166.087C61.8174 166.078 61.7242 166.07 61.6225 166.07C61.3852 166.07 61.1479 166.095 60.9106 166.138C60.9784 164.951 61.436 164.51 61.1733 163.4ZM58.2493 163.493C58.0798 162.782 58.4103 162.849 58.7493 163.493C59.207 164.341 58.9528 165.214 58.9951 166.18C58.8934 166.18 58.8002 166.18 58.707 166.18C58.4612 166.18 58.2239 166.206 57.995 166.248C58.0544 165.053 58.512 164.612 58.2493 163.502V163.493ZM59.2155 81.3762C57.2831 83.0543 56.3 84.1815 53.8845 84.1815C52.6556 84.0883 51.503 82.6645 50.8843 81.7322C50.5961 81.2999 50.7402 81.2576 51.2148 81.6305C52.3166 82.4949 55.7661 82.7831 58.2154 81.2321C59.1901 80.6134 60.0291 80.6728 59.2155 81.3762Z" fill="#FFEACA"/>
<path d="M71.6065 -4.00446C71.2505 -5.94531 70.7844 -7.80985 70.2674 -9.59814C65.7077 -8.91164 54.8847 -6.86912 43.2142 -6.86912C31.5437 -6.86912 20.7122 -8.91164 16.1525 -9.59814C15.6271 -7.80985 15.1694 -5.94531 14.8134 -4.00446C14.449 -2.04666 14.1608 -0.173576 13.915 1.65709C23.8735 0.928214 34.0185 4.70818 42.5023 11.2257H43.9092C52.4014 4.70818 62.5379 0.928214 72.4964 1.65709C72.2506 -0.173576 71.9624 -2.04666 71.598 -4.00446H71.6065Z" fill="#333333"/>
<path d="M71.6065 -4.00446C71.2505 -5.94531 70.7844 -7.80985 70.2674 -9.59814C65.7077 -8.91164 54.8847 -6.86912 43.2142 -6.86912C31.5437 -6.86912 20.7122 -8.91164 16.1525 -9.59814C15.6271 -7.80985 15.1694 -5.94531 14.8134 -4.00446C14.449 -2.04666 14.1608 -0.173576 13.915 1.65709C23.8735 0.928214 34.0185 4.70818 42.5023 11.2257H43.9092C52.4014 4.70818 62.5379 0.928214 72.4964 1.65709C72.2506 -0.173576 71.9624 -2.04666 71.598 -4.00446H71.6065Z" fill="black" fill-opacity="0.2"/>
<path d="M72.929 1.6062C72.6747 -0.309225 72.3781 -2.16528 72.0221 -4.0807C71.6831 -5.9368 71.2424 -7.78444 70.6745 -9.71681L70.5728 -10.0728L70.2084 -10.0134C70.1406 -10.0134 70.0643 -9.99649 69.9965 -9.97954C69.4287 -9.89478 68.7676 -9.79309 68.0387 -9.67444C62.8773 -8.84386 53.2832 -7.29288 43.2145 -7.29288C33.1459 -7.29288 23.5433 -8.84386 18.3903 -9.67444C17.5852 -9.80157 16.8817 -9.91171 16.2885 -10.0049C16.263 -10.0049 16.2461 -10.0049 16.2207 -10.0049L15.8478 -10.0643L15.7461 -9.70832C15.1952 -7.80985 14.7375 -5.91136 14.3985 -4.07222C14.0425 -2.1568 13.7459 -0.300741 13.5001 1.61468L13.4238 2.13171L13.8645 2.09778H13.9493C23.0857 1.41128 33.0526 4.68277 41.7314 11.1833C41.9009 11.3105 42.0788 11.4376 42.2483 11.5732L42.367 11.658H44.0621L44.1723 11.5732C44.3333 11.446 44.5028 11.3189 44.6638 11.2003C53.351 4.69121 63.318 1.41127 72.4798 2.08929L72.7171 2.10626L72.9968 2.13171L72.929 1.61468V1.6062ZM44.7909 10.0476C44.4519 10.2934 44.1129 10.5477 43.7739 10.8019H42.6467C42.3161 10.5477 41.9856 10.3019 41.6466 10.0646C33.1204 3.85219 23.4416 0.673927 14.407 1.1994C14.6443 -0.512615 14.907 -2.19919 15.2291 -3.92815C15.5426 -5.62322 15.9579 -7.36913 16.458 -9.12352C16.9834 -9.03877 17.5852 -8.94552 18.2548 -8.83534C23.4332 -7.99628 33.0781 -6.44535 43.2145 -6.44535C53.351 -6.44535 62.9874 -7.99628 68.1743 -8.83534C68.8354 -8.94552 69.4371 -9.03877 69.9626 -9.12352C70.4711 -7.34371 70.878 -5.64017 71.1915 -3.92815C71.5136 -2.19919 71.7848 -0.512615 72.0221 1.1994C62.9874 0.673927 53.3171 3.84369 44.7909 10.0476Z" fill="#333333"/>
<path d="M72.929 1.6062C72.6747 -0.309225 72.3781 -2.16528 72.0221 -4.0807C71.6831 -5.9368 71.2424 -7.78444 70.6745 -9.71681L70.5728 -10.0728L70.2084 -10.0134C70.1406 -10.0134 70.0643 -9.99649 69.9965 -9.97954C69.4287 -9.89478 68.7676 -9.79309 68.0387 -9.67444C62.8773 -8.84386 53.2832 -7.29288 43.2145 -7.29288C33.1459 -7.29288 23.5433 -8.84386 18.3903 -9.67444C17.5852 -9.80157 16.8817 -9.91171 16.2885 -10.0049C16.263 -10.0049 16.2461 -10.0049 16.2207 -10.0049L15.8478 -10.0643L15.7461 -9.70832C15.1952 -7.80985 14.7375 -5.91136 14.3985 -4.07222C14.0425 -2.1568 13.7459 -0.300741 13.5001 1.61468L13.4238 2.13171L13.8645 2.09778H13.9493C23.0857 1.41128 33.0526 4.68277 41.7314 11.1833C41.9009 11.3105 42.0788 11.4376 42.2483 11.5732L42.367 11.658H44.0621L44.1723 11.5732C44.3333 11.446 44.5028 11.3189 44.6638 11.2003C53.351 4.69121 63.318 1.41127 72.4798 2.08929L72.7171 2.10626L72.9968 2.13171L72.929 1.61468V1.6062ZM44.7909 10.0476C44.4519 10.2934 44.1129 10.5477 43.7739 10.8019H42.6467C42.3161 10.5477 41.9856 10.3019 41.6466 10.0646C33.1204 3.85219 23.4416 0.673927 14.407 1.1994C14.6443 -0.512615 14.907 -2.19919 15.2291 -3.92815C15.5426 -5.62322 15.9579 -7.36913 16.458 -9.12352C16.9834 -9.03877 17.5852 -8.94552 18.2548 -8.83534C23.4332 -7.99628 33.0781 -6.44535 43.2145 -6.44535C53.351 -6.44535 62.9874 -7.99628 68.1743 -8.83534C68.8354 -8.94552 69.4371 -9.03877 69.9626 -9.12352C70.4711 -7.34371 70.878 -5.64017 71.1915 -3.92815C71.5136 -2.19919 71.7848 -0.512615 72.0221 1.1994C62.9874 0.673927 53.3171 3.84369 44.7909 10.0476Z" fill="black" fill-opacity="0.2"/>
</g>
<defs>
<clipPath id="clip0_8985_53526">
<rect width="85" height="80" fill="white"/>
</clipPath>
</defs>
</svg>
