<svg width="85" height="80" viewBox="0 0 85 80" fill="none" xmlns="http://www.w3.org/2000/svg">
<g clip-path="url(#clip0_8984_53050)">
<path d="M52.5852 54.3203C52.0358 53.6336 51.538 52.9384 51.0916 52.2345C47.4694 46.5265 47.1089 40.561 47.2463 37.3765C47.3063 36.0718 47.5982 36.0804 47.8128 37.3507C48.2505 39.9687 48.8256 42.3978 49.4608 44.5866C49.4608 44.5952 49.4694 44.6124 49.4694 44.6209V44.6381C50.6625 48.741 52.0358 51.977 52.9285 53.8911C53.4435 54.9898 53.289 55.2044 52.5852 54.3203Z" fill="#DFCBAD"/>
<path d="M69.752 50.0371C69.0996 51.4792 68.2499 52.9212 67.134 54.3203C66.4302 55.2044 66.2757 54.9898 66.7907 53.8911C68.0868 51.1272 69.5889 45.651 70.7992 38.7498C70.8335 38.561 70.8592 38.3722 70.8936 38.1747C70.9451 37.9086 70.9966 37.6254 71.0395 37.3507C71.2541 36.0804 71.5545 36.0718 71.606 37.3765C71.7262 40.1575 71.9923 45.0501 69.752 50.0371Z" fill="#DFCBAD"/>
<path d="M34.7747 51.6165C34.234 52.5263 33.616 53.4362 32.9035 54.3203C32.1997 55.2044 32.0452 54.9898 32.5602 53.8911C33.8048 51.2388 35.9507 46.0716 37.2725 39.5567C37.2725 39.5138 37.2811 39.4794 37.2897 39.4365C37.4356 38.7584 37.5558 38.0632 37.676 37.3507C37.8905 36.0804 38.1909 36.0718 38.2424 37.3765C38.3712 40.4494 38.045 46.1059 34.7747 51.6165Z" fill="#DFCBAD"/>
<path d="M29.8138 68.9456C27.668 71.6494 26.0028 74.233 24.6637 73.4605C24.5607 73.409 24.4577 73.3317 24.3547 73.2287C23.711 72.5764 23.608 72.3789 24.6981 71.8296C24.7496 71.8038 24.8011 71.7781 24.8526 71.7524C26.0972 71.1515 26.7495 71.203 29.4705 68.7052C30.552 67.7181 30.7065 67.8125 29.8138 68.9456Z" fill="#DFCBAD"/>
<path d="M61.1858 73.2287C61.0827 73.3317 60.9798 73.409 60.8768 73.4605C59.5377 74.233 57.8725 71.6494 55.7181 68.9456C54.8254 67.8125 54.9799 67.7181 56.0614 68.7052C58.791 71.203 59.4433 71.1515 60.6793 71.7524C60.7308 71.7781 60.7823 71.8038 60.8338 71.8296C61.9325 72.3789 61.8295 72.5764 61.1858 73.2287Z" fill="#DFCBAD"/>
<path d="M64.2081 69.5129C63.5214 71.015 62.2511 73.3154 60.8778 73.4613C60.6117 73.5042 60.337 73.4527 60.0623 73.2896C59.2726 72.8175 59.8563 72.2596 60.6546 71.9162C60.7147 71.8905 60.7747 71.8647 60.8348 71.8304C61.6073 71.4613 62.6202 70.7403 63.8476 69.3498C64.3626 68.7489 64.5343 68.8176 64.2081 69.5129Z" fill="#DFCBAD"/>
<path d="M15.6181 50.0371C16.2705 51.4792 17.1203 52.9212 18.2361 54.3203C18.94 55.2044 19.0945 54.9898 18.5794 53.8911C17.2833 51.1272 15.7812 45.651 14.571 38.7498C14.5366 38.561 14.5109 38.3722 14.4766 38.1747C14.4251 37.9086 14.3735 37.6254 14.3306 37.3507C14.116 36.0804 13.8156 36.0718 13.7641 37.3765C13.6439 40.1575 13.3779 45.0501 15.6181 50.0371Z" fill="#DFCBAD"/>
<path d="M21.162 69.5129C21.8487 71.015 23.119 73.3154 24.4924 73.4613C24.7584 73.5042 25.0331 73.4527 25.3078 73.2896C26.0975 72.8175 25.5138 72.2596 24.7155 71.9162C24.6555 71.8905 24.5954 71.8647 24.5353 71.8304C23.7628 71.4613 22.7499 70.7403 21.5225 69.3498C21.0075 68.7489 20.8358 68.8176 21.162 69.5129Z" fill="#DFCBAD"/>
<path d="M74.6029 6.50989L74.3883 6.6558C74.251 6.75022 73.9763 6.85322 73.5901 6.96481C72.2682 7.34248 69.5988 7.81459 66.3027 8.23518C62.0367 8.77594 56.7322 9.22227 51.934 9.22227C49.3332 9.22227 47.0929 9.09353 45.2647 8.82744C45.2218 8.82744 45.1874 8.82744 45.1531 8.81027L44.8097 8.75877L44.7926 8.40685C44.7153 6.45839 44.6467 5.85754 44.5952 5.31678C44.5437 4.75027 44.4922 4.25243 44.4321 2.43273H41.8313C41.7798 4.24384 41.7283 4.7331 41.6768 5.29103C41.6253 5.82321 41.5652 6.42405 41.4794 8.36393L41.4622 8.73302L41.0931 8.76735C40.9043 8.78452 40.7154 8.80168 40.518 8.81885C38.0374 9.0506 35.1877 9.17078 32.235 9.17078C23.4455 9.17078 15.2655 8.17508 12.2355 6.72447C12.2012 6.70731 12.1668 6.69014 12.1325 6.67297L11.875 6.54423L11.9007 6.25239C12.081 4.14085 12.1583 1.86621 12.2355 -0.331161C12.3471 -3.81606 12.4758 -7.4297 13.0166 -10.7172C13.3084 -12.5283 13.8149 -14.3995 14.3556 -16.3737C15.0423 -18.8715 15.7461 -21.4637 16.0208 -24.0302L16.0723 -24.4937L16.5272 -24.4079C16.6302 -24.3907 16.7418 -24.3735 16.8534 -24.3478C19.2568 -23.9529 23.5399 -23.6353 28.9904 -23.4551C29.4453 -23.4379 29.9089 -23.4208 30.3724 -23.4036C33.6942 -23.3092 37.3936 -23.2577 41.3249 -23.2577C45.9599 -23.2577 51.1787 -23.3435 55.9511 -23.5324C56.4232 -23.5495 56.8952 -23.5667 57.3502 -23.5924C62.1054 -23.807 66.2941 -24.1332 68.8692 -24.6139H68.9035L69.3241 -24.6997L69.3756 -24.2362C69.6245 -21.7298 70.3284 -19.3779 71.0065 -17.1033C71.5386 -15.3094 72.088 -13.4553 72.397 -11.5755C73.2811 -6.19368 74.1051 0.475695 74.5772 6.26097L74.6029 6.50989Z" fill="#333333"/>
<path d="M74.6029 6.50989L74.3883 6.6558C74.251 6.75022 73.9763 6.85322 73.5901 6.96481C72.2682 7.34248 69.5988 7.81459 66.3027 8.23518C62.0367 8.77594 56.7322 9.22227 51.934 9.22227C49.3332 9.22227 47.0929 9.09353 45.2647 8.82744C45.2218 8.82744 45.1874 8.82744 45.1531 8.81027L44.8097 8.75877L44.7926 8.40685C44.7153 6.45839 44.6467 5.85754 44.5952 5.31678C44.5437 4.75027 44.4922 4.25243 44.4321 2.43273H41.8313C41.7798 4.24384 41.7283 4.7331 41.6768 5.29103C41.6253 5.82321 41.5652 6.42405 41.4794 8.36393L41.4622 8.73302L41.0931 8.76735C40.9043 8.78452 40.7154 8.80168 40.518 8.81885C38.0374 9.0506 35.1877 9.17078 32.235 9.17078C23.4455 9.17078 15.2655 8.17508 12.2355 6.72447C12.2012 6.70731 12.1668 6.69014 12.1325 6.67297L11.875 6.54423L11.9007 6.25239C12.081 4.14085 12.1583 1.86621 12.2355 -0.331161C12.3471 -3.81606 12.4758 -7.4297 13.0166 -10.7172C13.3084 -12.5283 13.8149 -14.3995 14.3556 -16.3737C15.0423 -18.8715 15.7461 -21.4637 16.0208 -24.0302L16.0723 -24.4937L16.5272 -24.4079C16.6302 -24.3907 16.7418 -24.3735 16.8534 -24.3478C19.2568 -23.9529 23.5399 -23.6353 28.9904 -23.4551C29.4453 -23.4379 29.9089 -23.4208 30.3724 -23.4036C33.6942 -23.3092 37.3936 -23.2577 41.3249 -23.2577C45.9599 -23.2577 51.1787 -23.3435 55.9511 -23.5324C56.4232 -23.5495 56.8952 -23.5667 57.3502 -23.5924C62.1054 -23.807 66.2941 -24.1332 68.8692 -24.6139H68.9035L69.3241 -24.6997L69.3756 -24.2362C69.6245 -21.7298 70.3284 -19.3779 71.0065 -17.1033C71.5386 -15.3094 72.088 -13.4553 72.397 -11.5755C73.2811 -6.19368 74.1051 0.475695 74.5772 6.26097L74.6029 6.50989Z" fill="black" fill-opacity="0.2"/>
<path d="M106.73 -37.2143C105.854 -41.9095 104.438 -45.094 103.073 -48.1669C101.623 -51.42 100.258 -54.4929 99.6483 -59.2138C99.4853 -60.4928 99.3994 -61.7717 99.3136 -63.1365C99.2278 -64.4154 99.1505 -65.7373 98.9874 -67.0506L98.8072 -68.5269C98.3351 -72.4753 97.6913 -77.0246 96.7128 -80.4408C95.7515 -83.8399 93.4511 -89.7024 93.1077 -90.8268C92.9876 -91.8139 92.9189 -92.801 92.8503 -93.8482C92.67 -96.5005 92.4811 -99.2473 91.3825 -101.908C89.8718 -105.582 87.3997 -108.715 84.2325 -110.955C79.7004 -114.174 73.2456 -115.419 71.5461 -115.702C66.087 -119.453 59.0915 -122.672 55.8555 -123.77V-129.598C59.4863 -132.345 60.3704 -136.311 61.1429 -140.869C63.6922 -141.813 65.7522 -144.414 66.3531 -147.624C66.9968 -151.1 65.7952 -154.422 63.5206 -156.121C63.2974 -156.293 63.0656 -156.439 62.8253 -156.576L62.9798 -159.134V-159.237C62.9798 -171.495 53.1603 -178.198 43.4267 -178.507C43.358 -178.507 43.2722 -178.524 43.1863 -178.524H42.5941C42.5082 -178.524 42.431 -178.516 42.3623 -178.507C33.4441 -178.224 24.4744 -172.585 23.0238 -162.242V-162.216C22.8779 -161.263 22.8092 -160.267 22.8092 -159.237V-159.134L22.9637 -156.576C20.2342 -155.066 18.7235 -151.435 19.4359 -147.624C20.0282 -144.414 22.0882 -141.813 24.646 -140.869C25.4186 -136.311 26.3027 -132.345 29.9249 -129.598V-123.77C26.6031 -122.637 19.3329 -119.264 14.2343 -115.702C12.5176 -115.419 6.08003 -114.174 1.54797 -110.955C-1.61075 -108.715 -4.08279 -105.582 -5.60206 -101.908C-6.70074 -99.2473 -6.88099 -96.5005 -7.06124 -93.8482C-7.1385 -92.801 -7.20717 -91.8139 -7.31875 -90.8268C-7.66209 -89.7024 -9.96246 -83.8399 -10.9324 -80.4408C-11.9023 -77.0246 -12.5547 -72.4753 -13.0267 -68.5269L-13.1984 -67.0591C-13.3615 -65.7373 -13.4473 -64.4154 -13.5332 -63.1365C-13.619 -61.7717 -13.6963 -60.4928 -13.8679 -59.2138C-14.4774 -54.4929 -15.8421 -51.42 -17.2842 -48.1669C-18.6575 -45.094 -20.0652 -41.9095 -20.9493 -37.2229C-23.078 -25.8154 -25.2496 -11.687 -23.1381 3.10234C-23.0437 3.73752 -22.9836 4.40704 -22.9063 5.11948C-22.6231 7.91769 -22.2711 11.394 -20.151 15.5484C-20.1424 15.5656 -20.1253 15.5828 -20.1167 15.5999C-13.7392 27.0503 -11.4045 27.0503 -10.632 27.0503C-10.4689 27.0503 -10.3058 27.0331 -10.1513 26.9988C-9.20712 26.7928 -8.44319 26.2606 -7.92818 25.4452C-6.47758 23.1105 -7.49901 18.9475 -8.58052 14.5441C-8.83803 13.497 -9.16419 12.1751 -9.39595 11.0078C-8.63202 12.3639 -7.46467 14.0206 -6.08273 14.527C-5.49047 14.7416 -4.91538 14.8531 -4.39179 14.8531C-3.50769 14.8531 -2.74377 14.527 -2.23734 13.9347C-1.87684 13.5056 -1.49058 12.7588 -1.688 11.5914C-1.688 11.5571 -1.69659 11.5228 -1.70517 11.4884C-1.76526 11.2223 -3.21585 4.81905 -3.53344 3.52293C-4.68363 -1.15506 -6.38315 -3.03485 -7.62776 -4.39963C-8.5376 -5.39531 -8.87237 -5.77298 -8.8552 -6.97467C-8.76078 -11.1463 -6.42607 -15.2921 -3.95404 -20.5967C-1.29316 -26.3047 1.46212 -32.2016 2.08871 -38.2529C2.47497 -41.9438 3.82258 -49.8149 4.06291 -51.214C4.58651 -52.3728 5.1616 -53.935 5.77961 -55.583C6.36328 -57.1624 6.96412 -58.7932 7.45338 -59.8662C9.95975 -65.3682 11.1786 -70.441 11.9082 -73.986C11.9425 -74.1749 11.9854 -74.3637 12.0284 -74.5525L12.5691 -74.0118C13.17 -73.4195 13.7451 -72.853 14.2086 -72.2436C15.4017 -70.6728 15.6678 -69.9174 15.6592 -68.1836C15.6506 -66.2008 16.0626 -62.8704 16.4746 -59.6516C16.7493 -57.4628 17.0068 -55.4028 17.084 -54.1238C17.2729 -50.802 17.4703 -48.081 17.6591 -45.4545C17.848 -42.8279 18.0454 -40.1241 18.2342 -36.8195L18.3801 -34.3818C17.6677 -32.811 15.3931 -27.6437 15.1871 -24.9571C14.9982 -22.485 14.2257 -19.292 13.4704 -16.2019C12.9296 -13.9702 12.4232 -11.8673 12.1142 -10.0218C10.0542 2.50151 9.91683 15.66 11.7194 29.0846C12.0455 31.5395 12.4576 34.7325 12.8438 36.99C13.7622 42.286 14.6292 47.2902 14.2172 52.4403C14.0026 55.0582 14.1656 57.7535 14.3373 60.0796C14.4575 61.7105 14.6292 63.41 14.8695 65.2898C14.9725 66.1052 15.0841 66.8777 15.1957 67.6245C15.642 70.6802 15.9853 73.0836 15.5304 76.0191C15.1098 78.7144 14.8781 81.6499 14.8008 85.255C14.5347 97.0745 15.2557 102.293 17.393 114.173C17.7707 116.276 18.1827 118.473 18.629 120.696C18.9381 124.43 19.3844 134.559 17.9166 138.146C17.7535 138.541 17.599 138.945 17.4359 139.348C16.5261 141.683 15.6592 143.889 13.3674 146.018C9.97693 149.168 10.1314 151.125 10.6893 153.348L10.7237 153.485C11.1271 155.09 12.4833 155.846 23.1096 155.846C27.7876 155.846 32.5428 155.674 33.7359 155.631C33.9334 155.674 34.1823 155.717 34.4655 155.717C35.4269 155.717 36.2938 155.288 36.9118 154.515C38.3109 152.764 38.371 149.296 37.0921 143.614C36.8088 142.344 36.5342 141.271 36.2938 140.318C34.7831 134.327 34.3282 132.516 37.2723 107.778C37.4612 106.19 37.6414 104.834 37.8045 103.641C38.371 99.4006 38.7058 96.8341 38.5169 91.1175C38.1908 81.3752 37.2208 75.9419 36.7058 73.0149C36.5342 72.045 36.3968 71.2725 36.3797 70.8605C36.3539 70.2511 36.2938 69.4613 36.2337 68.6202C36.0964 66.8176 35.899 64.337 36.0535 63.1696C36.1479 62.4315 36.1307 61.4615 36.0964 60.2255C36.0277 57.393 35.9247 53.1184 37.1865 48.3631C39.7358 38.7496 41.9417 19.1964 42.534 2.43283C42.5683 1.64316 42.5941 0.85347 42.6113 0.0723724H43.1777C43.1949 0.85347 43.2207 1.64316 43.255 2.43283C43.8473 19.1964 46.0446 38.7496 48.5939 48.3631C49.8557 53.1184 49.7527 57.393 49.684 60.2255C49.6583 61.4615 49.6325 62.4315 49.7269 63.1696C49.8814 64.337 49.6926 66.8176 49.5553 68.6202C49.4866 69.4613 49.4265 70.2511 49.4007 70.8605C49.3836 71.2725 49.2463 72.045 49.0746 73.0149C48.5596 75.9419 47.5982 81.3752 47.2635 91.1175C47.0746 96.8341 47.418 99.392 47.9845 103.632C48.139 104.834 48.3193 106.182 48.5081 107.778C51.4522 132.516 50.9973 134.327 49.4866 140.318C49.2463 141.271 48.9802 142.344 48.6883 143.614C47.4094 149.296 47.4695 152.764 48.8686 154.515C49.4866 155.288 50.3621 155.717 51.3235 155.717C51.5981 155.717 51.8471 155.674 52.0531 155.631C53.2376 155.674 57.9928 155.846 62.6794 155.846C73.3057 155.846 74.6533 155.09 75.0567 153.485L75.0911 153.348C75.649 151.125 75.8121 149.168 72.413 146.018C70.1212 143.889 69.2629 141.683 68.3445 139.348C68.19 138.945 68.0355 138.541 67.8724 138.146C66.396 134.559 66.851 124.43 67.1514 120.696C67.5977 118.473 68.0183 116.276 68.396 114.173C70.5247 102.293 71.2457 97.0745 70.9882 85.255C70.9109 81.6499 70.6706 78.7144 70.25 76.0191C69.7951 73.0836 70.147 70.6802 70.5848 67.6245C70.6963 66.8777 70.8079 66.1052 70.9109 65.2898C71.1512 63.41 71.3229 61.7105 71.4431 60.0796C71.6148 57.7535 71.7778 55.0582 71.5718 52.4403C71.1513 47.2902 72.0182 42.286 72.9366 36.99C73.3315 34.7325 73.7349 31.5395 74.061 29.0846C75.8807 15.5141 75.7348 -0.0907135 73.6662 -12.6484C73.3229 -14.717 72.722 -16.6053 72.1384 -18.4422C71.4345 -20.6396 70.765 -22.7168 70.5933 -24.9571C70.3873 -27.6437 68.1213 -32.811 67.4003 -34.3818L67.5462 -36.8195C67.735 -40.1241 67.9324 -42.8279 68.1213 -45.4545C68.3101 -48.081 68.5076 -50.802 68.705 -54.1238C68.7736 -55.4028 69.0397 -57.4628 69.3144 -59.6516C69.7178 -62.8704 70.1384 -66.2008 70.1212 -68.1836C70.1127 -69.9174 70.3873 -70.6728 71.5718 -72.2436C72.0354 -72.853 72.6104 -73.4195 73.2199 -74.0118C73.4259 -74.2178 73.6319 -74.4238 73.8465 -74.6384C73.9666 -74.1062 74.0954 -73.5311 74.2155 -72.9818C75.0396 -69.2994 76.2842 -64.5871 78.3184 -59.8919C78.7648 -58.8791 79.3227 -57.377 79.8635 -55.9263C80.4986 -54.2182 81.1596 -52.4586 81.7175 -51.2226C81.9578 -49.8063 83.2883 -41.9353 83.6917 -38.2444C84.2668 -33.0342 86.8933 -27.2661 89.434 -21.6868C92.0606 -15.9101 94.5412 -11.3093 94.6356 -6.97467C94.6614 -5.77298 94.318 -5.39531 93.4167 -4.39963C92.1721 -3.03485 90.464 -1.15506 89.3224 3.52293C89.0049 4.81905 87.5543 12.0807 87.4856 12.3468C87.4856 12.3811 87.477 12.4154 87.4684 12.4498C87.271 13.6171 87.6658 13.5056 88.0263 13.9347C88.5242 14.527 89.2881 14.8531 90.1722 14.8531C90.7044 14.8531 91.2709 14.7416 91.8631 14.527C93.1678 14.0463 94.2837 12.3124 95.1077 10.6043C94.8931 11.7288 94.6013 12.9476 94.3695 13.9433C93.2794 18.6471 92.2408 23.0847 93.7515 25.4709C94.2579 26.2692 95.0133 26.8014 95.9403 26.9988C96.0948 27.0331 96.2493 27.0503 96.4124 27.0503C97.1849 27.0503 99.5282 27.0503 105.906 15.5999C105.914 15.5828 105.923 15.5656 105.931 15.5484C108.052 11.394 108.412 7.91769 108.695 5.11948C108.764 4.40704 108.833 3.73752 108.919 3.10234C111.039 -11.687 108.858 -25.8154 106.73 -37.2143ZM107.228 2.86201C106.755 6.11516 106.893 9.90048 104.404 14.7673C104.404 14.7673 98.5153 25.3336 96.4124 25.3336C96.3781 25.3336 96.3351 25.325 96.3008 25.3164C91.8889 24.3723 98.1806 10.2095 97.039 6.86192C96.687 5.84048 96.3265 5.47141 95.9918 5.47141C95.3309 5.47141 94.7558 6.93059 94.4897 7.6516C94.0777 8.77603 92.567 12.4412 91.2795 12.9133C90.8846 13.0506 90.507 13.1365 90.1722 13.1365C89.4855 13.1365 89.0134 12.7845 89.1594 11.8747C89.1594 11.8747 90.67 5.23105 90.9876 3.93495C92.9189 -3.95329 96.4381 -2.91469 96.3523 -7.00902C96.1549 -16.1161 86.5242 -28.2532 85.3998 -38.4332C84.9449 -42.5704 83.3741 -51.729 83.3741 -51.729C82.3527 -53.9264 80.8935 -58.2696 79.8978 -60.5786C77.0738 -67.0591 75.8464 -74.6298 74.988 -77.1533C74.8078 -77.7113 74.6276 -78.0203 74.4645 -78.0203C74.3958 -78.0203 74.3357 -77.9688 74.2756 -77.8658C73.3486 -76.3551 71.9409 -75.2735 70.7822 -73.9689C70.5762 -73.7457 70.3873 -73.5225 70.2071 -73.2822C68.7908 -71.411 68.396 -70.278 68.4045 -68.1664C68.4303 -64.9734 67.1771 -57.4199 66.9883 -54.2268C66.602 -47.6004 66.2158 -43.549 65.8295 -36.9225C65.778 -35.9611 65.7179 -35.0084 65.6664 -34.047C65.6664 -34.047 68.6706 -27.6094 68.8852 -24.8198C68.8938 -24.7511 68.8938 -24.691 68.9024 -24.6223C69.2801 -20.322 71.2628 -16.6826 71.9753 -12.3651C72.8937 -6.74292 73.4774 -0.0821381 73.589 6.96492C73.7006 14.0978 73.3314 21.6255 72.3615 28.8614C71.9409 32.0287 71.383 35.1274 70.8937 38.1745C70.8594 38.3719 70.8337 38.5608 70.7993 38.7496C70.1899 42.595 69.7092 46.346 69.7522 50.0369C69.7522 50.8952 69.7865 51.7364 69.8552 52.5776C70.0526 55.0239 69.9152 57.5217 69.735 59.9508C69.6062 61.6675 69.426 63.3757 69.2114 65.0752C68.6792 69.2038 67.941 72.3282 68.559 76.2852C69.0226 79.2637 69.2028 82.2851 69.2715 85.2893C69.5376 97.1603 68.7994 102.216 66.705 113.872C66.3102 116.07 65.8896 118.267 65.4518 120.456C65.4518 120.456 64.6965 129.494 65.4947 135.417C65.6664 136.747 65.9239 137.915 66.2844 138.799C66.4046 139.091 66.5162 139.383 66.6364 139.683C67.6063 142.164 68.5591 144.79 71.2457 147.279C74.2499 150.069 73.8207 151.357 73.3915 153.073C73.2885 153.468 72.0783 153.726 70.2843 153.88C69.9238 153.914 69.5461 153.949 69.1513 153.974C68.3788 154.017 67.5376 154.052 66.645 154.086C66.2844 154.086 65.9068 154.095 65.5291 154.103C64.6021 154.12 63.6407 154.129 62.6794 154.129H62.6107C62.1644 154.129 61.7094 154.129 61.2631 154.12C60.0614 154.12 58.8769 154.103 57.7868 154.077C57.186 154.069 56.6109 154.052 56.0701 154.043C53.5809 153.974 51.8385 153.906 51.8385 153.906C51.8385 153.906 51.6239 154 51.3235 154C50.3106 154 48.345 152.962 50.3621 143.992C52.4822 134.593 53.6582 136.473 50.2162 107.581C49.3664 100.439 48.7398 98.3706 48.9802 91.1776C49.4265 77.9676 51.0316 72.8776 51.1174 70.9291C51.1947 68.9807 51.684 64.8606 51.4351 62.9465C51.2205 61.2899 51.7526 57.2728 51.0917 52.2343C50.9114 50.8609 50.6454 49.4189 50.2505 47.9254C49.9844 46.9297 49.7269 45.8224 49.4694 44.6379V44.6207C49.4694 44.6207 49.4608 44.595 49.4608 44.5864C47.5639 35.6939 46.0017 21.8487 45.2635 8.82755C45.0575 5.23965 44.9202 1.70323 44.8515 -1.64433H40.9289C40.8602 1.70323 40.7229 5.23105 40.5169 8.81895C39.9075 19.5483 38.7401 30.8185 37.2895 39.4363C37.2809 39.4792 37.2723 39.5135 37.2723 39.5565C36.723 42.7753 36.1393 45.625 35.5299 47.9254C35.1951 49.1957 34.9462 50.4317 34.7746 51.6163C33.9849 56.9466 34.5771 61.2298 34.3539 62.9465C34.105 64.8606 34.5857 68.9807 34.6716 70.9291C34.7488 72.8776 36.3539 77.9676 36.8002 91.1776C37.0406 98.3706 36.4226 100.439 35.5642 107.581C32.1308 136.473 33.2982 134.593 35.4183 143.992C37.4354 152.962 35.4698 154 34.4655 154C34.1651 154 33.942 153.906 33.942 153.906C33.942 153.906 32.0879 153.983 29.4614 154.052C28.9292 154.06 28.3541 154.069 27.7619 154.086C26.6632 154.103 25.4787 154.12 24.277 154.12C23.8907 154.129 23.4959 154.129 23.1096 154.129H22.9208C21.9337 154.129 20.9552 154.12 20.011 154.103C19.6247 154.103 19.2556 154.086 18.8866 154.069C17.9939 154.043 17.1441 154.009 16.3802 153.957C15.9768 153.932 15.6077 153.897 15.2558 153.863C13.5906 153.7 12.4919 153.451 12.3975 153.073C11.9683 151.357 11.5391 150.069 14.5433 147.279C17.5475 144.49 18.3801 141.537 19.5046 138.799C19.5217 138.747 19.5475 138.696 19.5646 138.644C19.908 137.734 20.1569 136.559 20.32 135.228C21.0753 129.305 20.3372 120.456 20.3372 120.456C19.8908 118.267 19.4702 116.07 19.084 113.872C16.9896 102.216 16.2514 97.1603 16.5175 85.2893C16.5776 82.2851 16.7664 79.2637 17.23 76.2852C17.8394 72.3282 17.1012 69.2038 16.5776 65.0752C16.3544 63.3757 16.1742 61.6675 16.054 59.9508C15.8738 57.5217 15.7278 55.0239 15.9253 52.5776C15.9768 51.9339 16.0111 51.2901 16.0197 50.6378C16.0798 48.3717 15.9338 46.0714 15.6678 43.7452C15.127 38.9213 14.1056 33.9858 13.4189 28.8614C12.3717 21.0419 12.0284 13.66 12.2344 6.72458C12.406 0.913559 12.964 -4.57986 13.8137 -9.74713C14.509 -13.9702 16.4231 -19.9958 16.8523 -24.3477C16.878 -24.5108 16.8952 -24.6653 16.9038 -24.8198C17.1184 -27.6094 20.1226 -34.047 20.1226 -34.047C20.0625 -35.0084 20.011 -35.9611 19.9509 -36.9225C19.5647 -43.549 19.1784 -47.6004 18.7921 -54.2268C18.6119 -57.4199 17.3587 -64.9734 17.3759 -68.1664C17.393 -70.278 16.9896 -71.411 15.5733 -73.2822C15.4446 -73.4538 15.3072 -73.6255 15.1527 -73.7886C13.9682 -75.1705 12.4747 -76.2864 11.5134 -77.8658C11.4447 -77.9773 11.376 -78.0289 11.3159 -78.0289C11.1099 -78.0289 10.9211 -77.531 10.6979 -76.6641C9.97693 -73.8659 8.90399 -67.1879 5.8912 -60.5786C4.84401 -58.2868 3.42774 -53.9264 2.41489 -51.729C2.41489 -51.729 0.818367 -42.579 0.389193 -38.4332C-0.81249 -26.9656 -10.3745 -16.1161 -10.5633 -7.00902C-10.6577 -2.91469 -7.12992 -3.95329 -5.19864 3.93495C-4.88105 5.23105 -3.37895 11.8747 -3.37895 11.8747C-3.22444 12.7845 -3.69653 13.1365 -4.39179 13.1365C-4.71796 13.1365 -5.10421 13.0506 -5.49047 12.9133C-6.77799 12.4412 -8.29726 9.63438 -8.70927 8.50995C-8.97536 7.78894 -9.55045 6.32974 -10.2114 6.32974C-10.5461 6.32974 -10.8981 6.69884 -11.25 7.72028C-12.3916 11.0678 -6.0999 24.3723 -10.5118 25.3164C-10.5547 25.325 -10.5891 25.3336 -10.632 25.3336C-12.7349 25.3336 -18.6232 14.7673 -18.6232 14.7673C-21.1124 9.90048 -20.975 6.11516 -21.4385 2.86201C-23.3612 -10.6227 -21.7561 -23.5494 -19.2583 -36.9053C-17.4902 -46.3643 -13.3873 -49.5316 -12.1598 -58.9907C-11.8251 -61.5915 -11.8165 -64.2438 -11.4989 -66.8446C-11.0268 -70.69 -10.3401 -76.2435 -9.28437 -79.9773C-8.38311 -83.1532 -6.31448 -89.9427 -5.77373 -91.7367C-5.68789 -92.0199 -5.6364 -92.183 -5.6364 -92.183C-5.5334 -93.0328 -5.46472 -93.8053 -5.39605 -94.5177C-5.20722 -96.8353 -5.08705 -98.6378 -4.01411 -101.256C-2.64076 -104.586 -0.400476 -107.47 2.54365 -109.556C7.41906 -113.015 14.8953 -114.062 14.8953 -114.062C21.4015 -118.715 30.8519 -122.466 31.53 -122.466H31.6416V-130.5C31.6416 -130.5 31.5557 -130.551 31.5214 -130.577C27.6674 -133.118 27.0237 -136.997 26.1567 -142.242C23.8135 -142.577 21.6934 -144.851 21.1183 -147.941C20.5861 -150.791 21.5303 -153.486 23.3242 -154.774C23.7534 -155.091 24.234 -155.323 24.7491 -155.452L24.5259 -159.237C24.5259 -170.851 33.839 -176.567 42.5254 -176.799C42.5512 -176.799 42.5769 -176.808 42.5941 -176.808H43.1863C43.1863 -176.808 43.2293 -176.799 43.255 -176.799C51.9415 -176.567 61.2631 -170.851 61.2631 -159.237L61.0399 -155.452C62.0442 -155.194 62.894 -154.568 63.5377 -153.701C64.6021 -152.259 65.0742 -150.147 64.6621 -147.941C64.0871 -144.851 61.9755 -142.577 59.6237 -142.242C58.7996 -137.229 58.1645 -133.452 54.7397 -130.912C54.5508 -130.774 54.3448 -130.637 54.1388 -130.5V-122.466H54.2504C54.9371 -122.466 63.8381 -119.006 70.8937 -114.062C70.8937 -114.062 78.3699 -113.015 83.2368 -109.556C86.1895 -107.47 88.4212 -104.586 89.7945 -101.256C90.8846 -98.6121 90.9876 -96.801 91.1936 -94.4577C91.2537 -93.7624 91.3224 -93.0156 91.4254 -92.183C91.4254 -92.183 91.4769 -92.0285 91.5541 -91.7453C92.0949 -89.9599 94.1635 -83.1618 95.0648 -79.9773C96.1291 -76.2435 96.8072 -70.69 97.2793 -66.8446C97.5969 -64.2438 97.6141 -61.5915 97.9488 -58.9907C99.1677 -49.5316 103.271 -46.3643 105.039 -36.9053C107.537 -23.5494 109.15 -10.6227 107.228 2.86201Z" fill="#333333"/>
<path d="M106.73 -37.2143C105.854 -41.9095 104.438 -45.094 103.073 -48.1669C101.623 -51.42 100.258 -54.4929 99.6483 -59.2138C99.4853 -60.4928 99.3994 -61.7717 99.3136 -63.1365C99.2278 -64.4154 99.1505 -65.7373 98.9874 -67.0506L98.8072 -68.5269C98.3351 -72.4753 97.6913 -77.0246 96.7128 -80.4408C95.7515 -83.8399 93.4511 -89.7024 93.1077 -90.8268C92.9876 -91.8139 92.9189 -92.801 92.8503 -93.8482C92.67 -96.5005 92.4811 -99.2473 91.3825 -101.908C89.8718 -105.582 87.3997 -108.715 84.2325 -110.955C79.7004 -114.174 73.2456 -115.419 71.5461 -115.702C66.087 -119.453 59.0915 -122.672 55.8555 -123.77V-129.598C59.4863 -132.345 60.3704 -136.311 61.1429 -140.869C63.6922 -141.813 65.7522 -144.414 66.3531 -147.624C66.9968 -151.1 65.7952 -154.422 63.5206 -156.121C63.2974 -156.293 63.0656 -156.439 62.8253 -156.576L62.9798 -159.134V-159.237C62.9798 -171.495 53.1603 -178.198 43.4267 -178.507C43.358 -178.507 43.2722 -178.524 43.1863 -178.524H42.5941C42.5082 -178.524 42.431 -178.516 42.3623 -178.507C33.4441 -178.224 24.4744 -172.585 23.0238 -162.242V-162.216C22.8779 -161.263 22.8092 -160.267 22.8092 -159.237V-159.134L22.9637 -156.576C20.2342 -155.066 18.7235 -151.435 19.4359 -147.624C20.0282 -144.414 22.0882 -141.813 24.646 -140.869C25.4186 -136.311 26.3027 -132.345 29.9249 -129.598V-123.77C26.6031 -122.637 19.3329 -119.264 14.2343 -115.702C12.5176 -115.419 6.08003 -114.174 1.54797 -110.955C-1.61075 -108.715 -4.08279 -105.582 -5.60206 -101.908C-6.70074 -99.2473 -6.88099 -96.5005 -7.06124 -93.8482C-7.1385 -92.801 -7.20717 -91.8139 -7.31875 -90.8268C-7.66209 -89.7024 -9.96246 -83.8399 -10.9324 -80.4408C-11.9023 -77.0246 -12.5547 -72.4753 -13.0267 -68.5269L-13.1984 -67.0591C-13.3615 -65.7373 -13.4473 -64.4154 -13.5332 -63.1365C-13.619 -61.7717 -13.6963 -60.4928 -13.8679 -59.2138C-14.4774 -54.4929 -15.8421 -51.42 -17.2842 -48.1669C-18.6575 -45.094 -20.0652 -41.9095 -20.9493 -37.2229C-23.078 -25.8154 -25.2496 -11.687 -23.1381 3.10234C-23.0437 3.73752 -22.9836 4.40704 -22.9063 5.11948C-22.6231 7.91769 -22.2711 11.394 -20.151 15.5484C-20.1424 15.5656 -20.1253 15.5828 -20.1167 15.5999C-13.7392 27.0503 -11.4045 27.0503 -10.632 27.0503C-10.4689 27.0503 -10.3058 27.0331 -10.1513 26.9988C-9.20712 26.7928 -8.44319 26.2606 -7.92818 25.4452C-6.47758 23.1105 -7.49901 18.9475 -8.58052 14.5441C-8.83803 13.497 -9.16419 12.1751 -9.39595 11.0078C-8.63202 12.3639 -7.46467 14.0206 -6.08273 14.527C-5.49047 14.7416 -4.91538 14.8531 -4.39179 14.8531C-3.50769 14.8531 -2.74377 14.527 -2.23734 13.9347C-1.87684 13.5056 -1.49058 12.7588 -1.688 11.5914C-1.688 11.5571 -1.69659 11.5228 -1.70517 11.4884C-1.76526 11.2223 -3.21585 4.81905 -3.53344 3.52293C-4.68363 -1.15506 -6.38315 -3.03485 -7.62776 -4.39963C-8.5376 -5.39531 -8.87237 -5.77298 -8.8552 -6.97467C-8.76078 -11.1463 -6.42607 -15.2921 -3.95404 -20.5967C-1.29316 -26.3047 1.46212 -32.2016 2.08871 -38.2529C2.47497 -41.9438 3.82258 -49.8149 4.06291 -51.214C4.58651 -52.3728 5.1616 -53.935 5.77961 -55.583C6.36328 -57.1624 6.96412 -58.7932 7.45338 -59.8662C9.95975 -65.3682 11.1786 -70.441 11.9082 -73.986C11.9425 -74.1749 11.9854 -74.3637 12.0284 -74.5525L12.5691 -74.0118C13.17 -73.4195 13.7451 -72.853 14.2086 -72.2436C15.4017 -70.6728 15.6678 -69.9174 15.6592 -68.1836C15.6506 -66.2008 16.0626 -62.8704 16.4746 -59.6516C16.7493 -57.4628 17.0068 -55.4028 17.084 -54.1238C17.2729 -50.802 17.4703 -48.081 17.6591 -45.4545C17.848 -42.8279 18.0454 -40.1241 18.2342 -36.8195L18.3801 -34.3818C17.6677 -32.811 15.3931 -27.6437 15.1871 -24.9571C14.9982 -22.485 14.2257 -19.292 13.4704 -16.2019C12.9296 -13.9702 12.4232 -11.8673 12.1142 -10.0218C10.0542 2.50151 9.91683 15.66 11.7194 29.0846C12.0455 31.5395 12.4576 34.7325 12.8438 36.99C13.7622 42.286 14.6292 47.2902 14.2172 52.4403C14.0026 55.0582 14.1656 57.7535 14.3373 60.0796C14.4575 61.7105 14.6292 63.41 14.8695 65.2898C14.9725 66.1052 15.0841 66.8777 15.1957 67.6245C15.642 70.6802 15.9853 73.0836 15.5304 76.0191C15.1098 78.7144 14.8781 81.6499 14.8008 85.255C14.5347 97.0745 15.2557 102.293 17.393 114.173C17.7707 116.276 18.1827 118.473 18.629 120.696C18.9381 124.43 19.3844 134.559 17.9166 138.146C17.7535 138.541 17.599 138.945 17.4359 139.348C16.5261 141.683 15.6592 143.889 13.3674 146.018C9.97693 149.168 10.1314 151.125 10.6893 153.348L10.7237 153.485C11.1271 155.09 12.4833 155.846 23.1096 155.846C27.7876 155.846 32.5428 155.674 33.7359 155.631C33.9334 155.674 34.1823 155.717 34.4655 155.717C35.4269 155.717 36.2938 155.288 36.9118 154.515C38.3109 152.764 38.371 149.296 37.0921 143.614C36.8088 142.344 36.5342 141.271 36.2938 140.318C34.7831 134.327 34.3282 132.516 37.2723 107.778C37.4612 106.19 37.6414 104.834 37.8045 103.641C38.371 99.4006 38.7058 96.8341 38.5169 91.1175C38.1908 81.3752 37.2208 75.9419 36.7058 73.0149C36.5342 72.045 36.3968 71.2725 36.3797 70.8605C36.3539 70.2511 36.2938 69.4613 36.2337 68.6202C36.0964 66.8176 35.899 64.337 36.0535 63.1696C36.1479 62.4315 36.1307 61.4615 36.0964 60.2255C36.0277 57.393 35.9247 53.1184 37.1865 48.3631C39.7358 38.7496 41.9417 19.1964 42.534 2.43283C42.5683 1.64316 42.5941 0.85347 42.6113 0.0723724H43.1777C43.1949 0.85347 43.2207 1.64316 43.255 2.43283C43.8473 19.1964 46.0446 38.7496 48.5939 48.3631C49.8557 53.1184 49.7527 57.393 49.684 60.2255C49.6583 61.4615 49.6325 62.4315 49.7269 63.1696C49.8814 64.337 49.6926 66.8176 49.5553 68.6202C49.4866 69.4613 49.4265 70.2511 49.4007 70.8605C49.3836 71.2725 49.2463 72.045 49.0746 73.0149C48.5596 75.9419 47.5982 81.3752 47.2635 91.1175C47.0746 96.8341 47.418 99.392 47.9845 103.632C48.139 104.834 48.3193 106.182 48.5081 107.778C51.4522 132.516 50.9973 134.327 49.4866 140.318C49.2463 141.271 48.9802 142.344 48.6883 143.614C47.4094 149.296 47.4695 152.764 48.8686 154.515C49.4866 155.288 50.3621 155.717 51.3235 155.717C51.5981 155.717 51.8471 155.674 52.0531 155.631C53.2376 155.674 57.9928 155.846 62.6794 155.846C73.3057 155.846 74.6533 155.09 75.0567 153.485L75.0911 153.348C75.649 151.125 75.8121 149.168 72.413 146.018C70.1212 143.889 69.2629 141.683 68.3445 139.348C68.19 138.945 68.0355 138.541 67.8724 138.146C66.396 134.559 66.851 124.43 67.1514 120.696C67.5977 118.473 68.0183 116.276 68.396 114.173C70.5247 102.293 71.2457 97.0745 70.9882 85.255C70.9109 81.6499 70.6706 78.7144 70.25 76.0191C69.7951 73.0836 70.147 70.6802 70.5848 67.6245C70.6963 66.8777 70.8079 66.1052 70.9109 65.2898C71.1512 63.41 71.3229 61.7105 71.4431 60.0796C71.6148 57.7535 71.7778 55.0582 71.5718 52.4403C71.1513 47.2902 72.0182 42.286 72.9366 36.99C73.3315 34.7325 73.7349 31.5395 74.061 29.0846C75.8807 15.5141 75.7348 -0.0907135 73.6662 -12.6484C73.3229 -14.717 72.722 -16.6053 72.1384 -18.4422C71.4345 -20.6396 70.765 -22.7168 70.5933 -24.9571C70.3873 -27.6437 68.1213 -32.811 67.4003 -34.3818L67.5462 -36.8195C67.735 -40.1241 67.9324 -42.8279 68.1213 -45.4545C68.3101 -48.081 68.5076 -50.802 68.705 -54.1238C68.7736 -55.4028 69.0397 -57.4628 69.3144 -59.6516C69.7178 -62.8704 70.1384 -66.2008 70.1212 -68.1836C70.1127 -69.9174 70.3873 -70.6728 71.5718 -72.2436C72.0354 -72.853 72.6104 -73.4195 73.2199 -74.0118C73.4259 -74.2178 73.6319 -74.4238 73.8465 -74.6384C73.9666 -74.1062 74.0954 -73.5311 74.2155 -72.9818C75.0396 -69.2994 76.2842 -64.5871 78.3184 -59.8919C78.7648 -58.8791 79.3227 -57.377 79.8635 -55.9263C80.4986 -54.2182 81.1596 -52.4586 81.7175 -51.2226C81.9578 -49.8063 83.2883 -41.9353 83.6917 -38.2444C84.2668 -33.0342 86.8933 -27.2661 89.434 -21.6868C92.0606 -15.9101 94.5412 -11.3093 94.6356 -6.97467C94.6614 -5.77298 94.318 -5.39531 93.4167 -4.39963C92.1721 -3.03485 90.464 -1.15506 89.3224 3.52293C89.0049 4.81905 87.5543 12.0807 87.4856 12.3468C87.4856 12.3811 87.477 12.4154 87.4684 12.4498C87.271 13.6171 87.6658 13.5056 88.0263 13.9347C88.5242 14.527 89.2881 14.8531 90.1722 14.8531C90.7044 14.8531 91.2709 14.7416 91.8631 14.527C93.1678 14.0463 94.2837 12.3124 95.1077 10.6043C94.8931 11.7288 94.6013 12.9476 94.3695 13.9433C93.2794 18.6471 92.2408 23.0847 93.7515 25.4709C94.2579 26.2692 95.0133 26.8014 95.9403 26.9988C96.0948 27.0331 96.2493 27.0503 96.4124 27.0503C97.1849 27.0503 99.5282 27.0503 105.906 15.5999C105.914 15.5828 105.923 15.5656 105.931 15.5484C108.052 11.394 108.412 7.91769 108.695 5.11948C108.764 4.40704 108.833 3.73752 108.919 3.10234C111.039 -11.687 108.858 -25.8154 106.73 -37.2143ZM107.228 2.86201C106.755 6.11516 106.893 9.90048 104.404 14.7673C104.404 14.7673 98.5153 25.3336 96.4124 25.3336C96.3781 25.3336 96.3351 25.325 96.3008 25.3164C91.8889 24.3723 98.1806 10.2095 97.039 6.86192C96.687 5.84048 96.3265 5.47141 95.9918 5.47141C95.3309 5.47141 94.7558 6.93059 94.4897 7.6516C94.0777 8.77603 92.567 12.4412 91.2795 12.9133C90.8846 13.0506 90.507 13.1365 90.1722 13.1365C89.4855 13.1365 89.0134 12.7845 89.1594 11.8747C89.1594 11.8747 90.67 5.23105 90.9876 3.93495C92.9189 -3.95329 96.4381 -2.91469 96.3523 -7.00902C96.1549 -16.1161 86.5242 -28.2532 85.3998 -38.4332C84.9449 -42.5704 83.3741 -51.729 83.3741 -51.729C82.3527 -53.9264 80.8935 -58.2696 79.8978 -60.5786C77.0738 -67.0591 75.8464 -74.6298 74.988 -77.1533C74.8078 -77.7113 74.6276 -78.0203 74.4645 -78.0203C74.3958 -78.0203 74.3357 -77.9688 74.2756 -77.8658C73.3486 -76.3551 71.9409 -75.2735 70.7822 -73.9689C70.5762 -73.7457 70.3873 -73.5225 70.2071 -73.2822C68.7908 -71.411 68.396 -70.278 68.4045 -68.1664C68.4303 -64.9734 67.1771 -57.4199 66.9883 -54.2268C66.602 -47.6004 66.2158 -43.549 65.8295 -36.9225C65.778 -35.9611 65.7179 -35.0084 65.6664 -34.047C65.6664 -34.047 68.6706 -27.6094 68.8852 -24.8198C68.8938 -24.7511 68.8938 -24.691 68.9024 -24.6223C69.2801 -20.322 71.2628 -16.6826 71.9753 -12.3651C72.8937 -6.74292 73.4774 -0.0821381 73.589 6.96492C73.7006 14.0978 73.3314 21.6255 72.3615 28.8614C71.9409 32.0287 71.383 35.1274 70.8937 38.1745C70.8594 38.3719 70.8337 38.5608 70.7993 38.7496C70.1899 42.595 69.7092 46.346 69.7522 50.0369C69.7522 50.8952 69.7865 51.7364 69.8552 52.5776C70.0526 55.0239 69.9152 57.5217 69.735 59.9508C69.6062 61.6675 69.426 63.3757 69.2114 65.0752C68.6792 69.2038 67.941 72.3282 68.559 76.2852C69.0226 79.2637 69.2028 82.2851 69.2715 85.2893C69.5376 97.1603 68.7994 102.216 66.705 113.872C66.3102 116.07 65.8896 118.267 65.4518 120.456C65.4518 120.456 64.6965 129.494 65.4947 135.417C65.6664 136.747 65.9239 137.915 66.2844 138.799C66.4046 139.091 66.5162 139.383 66.6364 139.683C67.6063 142.164 68.5591 144.79 71.2457 147.279C74.2499 150.069 73.8207 151.357 73.3915 153.073C73.2885 153.468 72.0783 153.726 70.2843 153.88C69.9238 153.914 69.5461 153.949 69.1513 153.974C68.3788 154.017 67.5376 154.052 66.645 154.086C66.2844 154.086 65.9068 154.095 65.5291 154.103C64.6021 154.12 63.6407 154.129 62.6794 154.129H62.6107C62.1644 154.129 61.7094 154.129 61.2631 154.12C60.0614 154.12 58.8769 154.103 57.7868 154.077C57.186 154.069 56.6109 154.052 56.0701 154.043C53.5809 153.974 51.8385 153.906 51.8385 153.906C51.8385 153.906 51.6239 154 51.3235 154C50.3106 154 48.345 152.962 50.3621 143.992C52.4822 134.593 53.6582 136.473 50.2162 107.581C49.3664 100.439 48.7398 98.3706 48.9802 91.1776C49.4265 77.9676 51.0316 72.8776 51.1174 70.9291C51.1947 68.9807 51.684 64.8606 51.4351 62.9465C51.2205 61.2899 51.7526 57.2728 51.0917 52.2343C50.9114 50.8609 50.6454 49.4189 50.2505 47.9254C49.9844 46.9297 49.7269 45.8224 49.4694 44.6379V44.6207C49.4694 44.6207 49.4608 44.595 49.4608 44.5864C47.5639 35.6939 46.0017 21.8487 45.2635 8.82755C45.0575 5.23965 44.9202 1.70323 44.8515 -1.64433H40.9289C40.8602 1.70323 40.7229 5.23105 40.5169 8.81895C39.9075 19.5483 38.7401 30.8185 37.2895 39.4363C37.2809 39.4792 37.2723 39.5135 37.2723 39.5565C36.723 42.7753 36.1393 45.625 35.5299 47.9254C35.1951 49.1957 34.9462 50.4317 34.7746 51.6163C33.9849 56.9466 34.5771 61.2298 34.3539 62.9465C34.105 64.8606 34.5857 68.9807 34.6716 70.9291C34.7488 72.8776 36.3539 77.9676 36.8002 91.1776C37.0406 98.3706 36.4226 100.439 35.5642 107.581C32.1308 136.473 33.2982 134.593 35.4183 143.992C37.4354 152.962 35.4698 154 34.4655 154C34.1651 154 33.942 153.906 33.942 153.906C33.942 153.906 32.0879 153.983 29.4614 154.052C28.9292 154.06 28.3541 154.069 27.7619 154.086C26.6632 154.103 25.4787 154.12 24.277 154.12C23.8907 154.129 23.4959 154.129 23.1096 154.129H22.9208C21.9337 154.129 20.9552 154.12 20.011 154.103C19.6247 154.103 19.2556 154.086 18.8866 154.069C17.9939 154.043 17.1441 154.009 16.3802 153.957C15.9768 153.932 15.6077 153.897 15.2558 153.863C13.5906 153.7 12.4919 153.451 12.3975 153.073C11.9683 151.357 11.5391 150.069 14.5433 147.279C17.5475 144.49 18.3801 141.537 19.5046 138.799C19.5217 138.747 19.5475 138.696 19.5646 138.644C19.908 137.734 20.1569 136.559 20.32 135.228C21.0753 129.305 20.3372 120.456 20.3372 120.456C19.8908 118.267 19.4702 116.07 19.084 113.872C16.9896 102.216 16.2514 97.1603 16.5175 85.2893C16.5776 82.2851 16.7664 79.2637 17.23 76.2852C17.8394 72.3282 17.1012 69.2038 16.5776 65.0752C16.3544 63.3757 16.1742 61.6675 16.054 59.9508C15.8738 57.5217 15.7278 55.0239 15.9253 52.5776C15.9768 51.9339 16.0111 51.2901 16.0197 50.6378C16.0798 48.3717 15.9338 46.0714 15.6678 43.7452C15.127 38.9213 14.1056 33.9858 13.4189 28.8614C12.3717 21.0419 12.0284 13.66 12.2344 6.72458C12.406 0.913559 12.964 -4.57986 13.8137 -9.74713C14.509 -13.9702 16.4231 -19.9958 16.8523 -24.3477C16.878 -24.5108 16.8952 -24.6653 16.9038 -24.8198C17.1184 -27.6094 20.1226 -34.047 20.1226 -34.047C20.0625 -35.0084 20.011 -35.9611 19.9509 -36.9225C19.5647 -43.549 19.1784 -47.6004 18.7921 -54.2268C18.6119 -57.4199 17.3587 -64.9734 17.3759 -68.1664C17.393 -70.278 16.9896 -71.411 15.5733 -73.2822C15.4446 -73.4538 15.3072 -73.6255 15.1527 -73.7886C13.9682 -75.1705 12.4747 -76.2864 11.5134 -77.8658C11.4447 -77.9773 11.376 -78.0289 11.3159 -78.0289C11.1099 -78.0289 10.9211 -77.531 10.6979 -76.6641C9.97693 -73.8659 8.90399 -67.1879 5.8912 -60.5786C4.84401 -58.2868 3.42774 -53.9264 2.41489 -51.729C2.41489 -51.729 0.818367 -42.579 0.389193 -38.4332C-0.81249 -26.9656 -10.3745 -16.1161 -10.5633 -7.00902C-10.6577 -2.91469 -7.12992 -3.95329 -5.19864 3.93495C-4.88105 5.23105 -3.37895 11.8747 -3.37895 11.8747C-3.22444 12.7845 -3.69653 13.1365 -4.39179 13.1365C-4.71796 13.1365 -5.10421 13.0506 -5.49047 12.9133C-6.77799 12.4412 -8.29726 9.63438 -8.70927 8.50995C-8.97536 7.78894 -9.55045 6.32974 -10.2114 6.32974C-10.5461 6.32974 -10.8981 6.69884 -11.25 7.72028C-12.3916 11.0678 -6.0999 24.3723 -10.5118 25.3164C-10.5547 25.325 -10.5891 25.3336 -10.632 25.3336C-12.7349 25.3336 -18.6232 14.7673 -18.6232 14.7673C-21.1124 9.90048 -20.975 6.11516 -21.4385 2.86201C-23.3612 -10.6227 -21.7561 -23.5494 -19.2583 -36.9053C-17.4902 -46.3643 -13.3873 -49.5316 -12.1598 -58.9907C-11.8251 -61.5915 -11.8165 -64.2438 -11.4989 -66.8446C-11.0268 -70.69 -10.3401 -76.2435 -9.28437 -79.9773C-8.38311 -83.1532 -6.31448 -89.9427 -5.77373 -91.7367C-5.68789 -92.0199 -5.6364 -92.183 -5.6364 -92.183C-5.5334 -93.0328 -5.46472 -93.8053 -5.39605 -94.5177C-5.20722 -96.8353 -5.08705 -98.6378 -4.01411 -101.256C-2.64076 -104.586 -0.400476 -107.47 2.54365 -109.556C7.41906 -113.015 14.8953 -114.062 14.8953 -114.062C21.4015 -118.715 30.8519 -122.466 31.53 -122.466H31.6416V-130.5C31.6416 -130.5 31.5557 -130.551 31.5214 -130.577C27.6674 -133.118 27.0237 -136.997 26.1567 -142.242C23.8135 -142.577 21.6934 -144.851 21.1183 -147.941C20.5861 -150.791 21.5303 -153.486 23.3242 -154.774C23.7534 -155.091 24.234 -155.323 24.7491 -155.452L24.5259 -159.237C24.5259 -170.851 33.839 -176.567 42.5254 -176.799C42.5512 -176.799 42.5769 -176.808 42.5941 -176.808H43.1863C43.1863 -176.808 43.2293 -176.799 43.255 -176.799C51.9415 -176.567 61.2631 -170.851 61.2631 -159.237L61.0399 -155.452C62.0442 -155.194 62.894 -154.568 63.5377 -153.701C64.6021 -152.259 65.0742 -150.147 64.6621 -147.941C64.0871 -144.851 61.9755 -142.577 59.6237 -142.242C58.7996 -137.229 58.1645 -133.452 54.7397 -130.912C54.5508 -130.774 54.3448 -130.637 54.1388 -130.5V-122.466H54.2504C54.9371 -122.466 63.8381 -119.006 70.8937 -114.062C70.8937 -114.062 78.3699 -113.015 83.2368 -109.556C86.1895 -107.47 88.4212 -104.586 89.7945 -101.256C90.8846 -98.6121 90.9876 -96.801 91.1936 -94.4577C91.2537 -93.7624 91.3224 -93.0156 91.4254 -92.183C91.4254 -92.183 91.4769 -92.0285 91.5541 -91.7453C92.0949 -89.9599 94.1635 -83.1618 95.0648 -79.9773C96.1291 -76.2435 96.8072 -70.69 97.2793 -66.8446C97.5969 -64.2438 97.6141 -61.5915 97.9488 -58.9907C99.1677 -49.5316 103.271 -46.3643 105.039 -36.9053C107.537 -23.5494 109.15 -10.6227 107.228 2.86201Z" fill="black" fill-opacity="0.2"/>
<path d="M71.2458 147.279C68.5592 144.79 67.6064 142.163 66.6365 139.683C65.7181 137.872 64.5335 135.889 63.0486 133.966C62.4649 133.211 62.6538 132.979 63.4177 133.537C64.0185 133.983 64.7567 134.601 65.4949 135.417C64.6966 129.494 65.452 120.456 65.452 120.456C65.8897 118.267 66.3103 116.07 66.7051 113.872C68.7995 102.216 69.5377 97.1602 69.2716 85.2892C69.2029 82.285 69.0227 79.2636 68.5592 76.2851C67.9412 72.3281 68.6793 69.2037 69.2115 65.0751C69.4261 63.3755 69.6064 61.6674 69.7351 59.9507C69.9154 57.5216 70.0527 55.0238 69.8553 52.5775C69.7866 51.7363 69.7523 50.8952 69.7523 50.0454C69.0999 51.4788 68.2502 52.9209 67.1343 54.32C66.4305 55.2041 66.276 54.9895 66.791 53.8908C68.0871 51.1269 69.5892 45.6507 70.7995 38.7495C70.8338 38.5607 70.8595 38.3718 70.8939 38.1744C71.3831 35.1273 71.9411 32.0286 72.3616 28.8613C73.3316 21.6255 73.7007 14.0977 73.5891 6.96484C72.2672 7.34252 69.5978 7.81462 66.3017 8.23521C62.0357 8.77597 56.7312 9.22231 51.933 9.22231C49.3322 9.22231 47.0919 9.09356 45.2637 8.82747C46.0018 21.8486 47.564 35.6938 49.461 44.5863C49.461 44.5949 49.4696 44.612 49.4696 44.6206V44.6378C50.6627 48.7407 52.036 51.9767 52.9287 53.8908C53.4437 54.9895 53.2892 55.2041 52.5854 54.32C52.036 53.6333 51.5382 52.938 51.0918 52.2342C51.7527 57.2727 51.2206 61.2898 51.4352 62.9464C51.6841 64.8605 51.1948 68.9806 51.1176 70.929C51.0317 72.8775 49.4266 77.9675 48.9803 91.1775C48.74 98.3705 49.3666 100.439 50.2163 107.581C53.6583 136.473 52.4824 134.593 50.3623 143.992C48.3451 152.961 50.3107 154 51.3236 154C51.624 154 51.8386 153.906 51.8386 153.906C51.8386 153.906 53.581 153.974 56.0702 154.043C56.2505 150.927 55.4437 151.142 55.5896 150.129C55.7612 148.919 57.1174 148.91 57.2977 150.129C57.4865 151.356 57.9844 152.275 57.7869 154.077C58.877 154.103 60.0615 154.12 61.2632 154.12C61.4692 153.142 61.7611 152.455 61.4692 151.228C61.2203 150.146 61.7096 150.241 62.2332 151.219C62.731 152.155 62.6623 153.116 62.6108 154.129H62.6795C63.6408 154.129 64.6022 154.12 65.5292 154.103C65.7009 153.253 65.967 152.687 65.7181 151.648C65.5035 150.764 65.9155 150.841 66.3447 151.64C66.7652 152.429 66.6966 153.228 66.6451 154.086C67.5378 154.052 68.3789 154.017 69.1514 153.974C69.3231 153.133 69.5892 152.567 69.3403 151.528C69.1257 150.644 69.5377 150.721 69.9669 151.528C70.3789 152.292 70.3188 153.064 70.2845 153.888C72.0784 153.734 73.2887 153.476 73.3917 153.082C73.8208 151.365 74.25 150.077 71.2458 147.288V147.279ZM60.877 73.4612C59.538 74.2337 57.8728 71.65 55.7183 68.9462C54.8256 67.8132 54.9801 67.7188 56.0617 68.7059C58.7912 71.2037 59.4435 71.1522 60.6796 71.753C60.7311 71.7788 60.7826 71.8045 60.8341 71.8303C61.6066 71.4612 62.6194 70.7402 63.8469 69.3497C64.3619 68.7488 64.5335 68.8175 64.2074 69.5128C63.5207 71.0149 62.2503 73.3153 60.877 73.4612Z" fill="#FFEACA"/>
<path d="M32.2336 9.16993C23.4441 9.16993 15.2641 8.17424 12.2341 6.72363C12.0281 13.6591 12.3715 21.0409 13.4187 28.8605C14.1053 33.9848 15.1268 38.9203 15.6675 43.7357C16.6546 48.2763 17.7361 51.8385 18.6975 53.8899C19.2125 54.9886 19.058 55.2032 18.3541 54.3191C17.3928 53.1088 16.6289 51.8728 16.0194 50.6368C16.0109 51.2892 15.9765 51.9329 15.925 52.5767C15.7276 55.0229 15.8735 57.5207 16.0538 59.9499C16.1739 61.6666 16.3542 63.3747 16.5774 65.0742C17.101 69.2029 17.8391 72.3273 17.2297 76.2843C16.7662 79.2627 16.5774 82.2841 16.5173 85.2884C16.2512 97.1593 16.9894 102.215 19.0837 113.871C19.47 116.069 19.8906 118.266 20.3369 120.455C20.3369 120.455 21.0751 129.305 20.3198 135.227C21.0064 134.506 21.6674 133.948 22.2253 133.536C22.9892 132.978 23.1781 133.21 22.5944 133.965C21.3927 135.528 20.3884 137.124 19.5644 138.635C19.5472 138.695 19.5215 138.746 19.5043 138.798C18.3799 141.536 17.5473 144.489 14.5431 147.278C11.5389 150.068 11.968 151.356 12.3972 153.072C12.4916 153.45 13.5903 153.699 15.2555 153.862C15.2126 153.055 15.1697 152.283 15.5731 151.519C16.0023 150.72 16.4057 150.643 16.1997 151.519C15.9594 152.549 16.2083 153.115 16.3799 153.948C17.1439 153.999 17.9936 154.034 18.8863 154.059C18.8434 153.21 18.7747 152.411 19.1953 151.63C19.6245 150.832 20.0279 150.755 19.8219 151.639C19.573 152.677 19.8305 153.244 20.0107 154.094C20.9549 154.111 21.9335 154.119 22.9206 154.119C22.8691 153.107 22.8004 152.145 23.2982 151.21C23.8218 150.231 24.3197 150.137 24.0707 151.218C23.7789 152.446 24.0621 153.132 24.2767 154.111C25.4784 154.111 26.6629 154.094 27.7616 154.076C27.5556 152.274 28.0535 151.347 28.2337 150.119C28.4226 148.901 29.7702 148.909 29.9504 150.119C30.0963 151.132 29.2895 150.918 29.4611 154.042C32.0877 153.973 33.9417 153.896 33.9417 153.896C33.9417 153.896 34.1649 153.991 34.4653 153.991C35.4696 153.991 37.4352 152.952 35.4181 143.982C33.298 134.583 32.1306 136.463 35.564 107.571C36.4223 100.43 37.0403 98.361 36.8 91.1681C36.3537 77.9581 34.7486 72.868 34.6713 70.9196C34.5855 68.9711 34.1048 64.8511 34.3537 62.9369C34.5769 61.2202 33.9846 56.9371 34.7743 51.6067C34.2336 52.5166 33.6155 53.4264 32.9031 54.3105C32.1993 55.1946 32.0448 54.98 32.5598 53.8814C33.8044 51.2291 35.9502 46.0618 37.2721 39.5469C37.2721 39.504 37.2807 39.4697 37.2893 39.4267C38.7399 30.8089 39.9072 19.5388 40.5166 8.80943C38.036 9.04118 35.1863 9.16136 32.2336 9.16136V9.16993ZM29.8131 68.9454C27.6672 71.6492 26.002 74.2328 24.663 73.4603C23.2896 73.3144 22.0193 71.014 21.324 69.5119C21.0064 68.8166 21.1695 68.748 21.6931 69.3488C22.9205 70.7393 23.9334 71.4603 24.6973 71.8294C24.7488 71.8037 24.8003 71.7779 24.8518 71.7522C26.0964 71.1513 26.7488 71.2028 29.4697 68.705C30.5512 67.7179 30.7057 67.8124 29.8131 68.9454Z" fill="#FFEACA"/>
<path d="M105.039 -36.9057C103.271 -46.3647 99.1677 -49.5321 97.9489 -58.9911C97.6141 -61.5919 97.5969 -64.2442 97.2793 -66.845C96.8073 -70.6904 96.1292 -76.2439 95.0648 -79.9777C94.1636 -83.1622 92.0949 -89.9603 91.5542 -91.7457C90.6014 -88.8015 89.9748 -86.2351 89.6229 -84.6557C89.4083 -83.7287 89.1937 -83.7459 89.1851 -84.69C89.1336 -88.6814 90.0092 -91.5139 91.125 -94.3036C91.1508 -94.3551 91.1679 -94.4066 91.1937 -94.4581C90.9877 -96.8014 90.8847 -98.6125 89.7946 -101.256C88.4212 -104.587 86.1895 -107.471 83.2368 -109.556C78.37 -113.016 70.8938 -114.063 70.8938 -114.063C63.8382 -119.007 54.9371 -122.466 54.2505 -122.466H54.1389V-129.65C51.1003 -127.539 46.1477 -126.226 44.6026 -126.226H40.9289C39.4268 -126.226 34.6887 -127.47 31.6416 -129.487V-122.466H31.53C30.8519 -122.466 21.4016 -118.715 14.8953 -114.063C14.8953 -114.063 7.41909 -113.016 2.54369 -109.556C-0.400438 -107.471 -2.64072 -104.587 -4.01408 -101.256C-5.08701 -98.6382 -5.20718 -96.8357 -5.39601 -94.5181C-4.34025 -91.6856 -3.43041 -88.3638 -3.42183 -84.69C-3.42183 -83.7459 -3.63641 -83.7287 -3.84241 -84.6557C-4.20291 -86.2351 -4.82951 -88.7929 -5.77369 -91.7371C-6.31445 -89.9431 -8.38307 -83.1536 -9.28433 -79.9777C-10.3401 -76.2439 -11.0268 -70.6904 -11.4989 -66.845C-11.8164 -64.2442 -11.825 -61.5919 -12.1598 -58.9911C-13.3872 -49.5321 -17.4901 -46.3647 -19.2583 -36.9057C-21.7561 -23.5498 -23.3612 -10.6231 -21.4385 2.8616C-20.975 6.11476 -21.1123 9.90007 -18.6231 14.7669C-18.6231 14.7669 -12.7349 25.3332 -10.6319 25.3332C-10.589 25.3332 -10.5547 25.3246 -10.5118 25.316C-6.09986 24.3719 -12.3915 11.0674 -11.2499 7.71986C-10.898 6.69844 -10.5461 6.32935 -10.2113 6.32935C-9.55041 6.32935 -8.97532 7.78853 -8.70923 8.50954C-8.29722 9.63397 -6.77795 12.4408 -5.49043 12.9129C-5.10418 13.0502 -4.71792 13.136 -4.39175 13.136C-3.69649 13.136 -3.22441 12.7841 -3.37891 11.8743C-3.37891 11.8743 -4.88101 5.23065 -5.1986 3.93454C-7.12988 -3.95368 -10.6577 -2.91508 -10.5633 -7.00941C-10.3744 -16.1165 -0.812452 -26.966 0.389231 -38.4336C0.818405 -42.5794 2.41493 -51.7294 2.41493 -51.7294C3.42778 -53.9268 4.84405 -58.2872 5.89123 -60.579C8.90403 -67.1883 9.97697 -73.8663 10.698 -76.6645C10.5177 -76.9048 10.3546 -77.1537 10.2173 -77.4198C10.08 -77.6773 8.7066 -80.7502 7.42767 -82.7158C6.91266 -83.5141 7.11009 -83.8231 7.91693 -83.3253C9.00703 -82.6472 10.4147 -81.4455 11.2731 -79.4026C12.1743 -77.2396 13.3503 -76.5186 14.2086 -76.0293C16.9725 -74.7589 20.8865 -74.201 28.3284 -74.2783C29.2812 -74.2868 29.3069 -74.1152 28.3713 -73.9263C25.5302 -73.3598 19.6248 -72.4757 15.1528 -73.789C15.3073 -73.6259 15.4446 -73.4542 15.5734 -73.2826C16.9896 -71.4114 17.3931 -70.2784 17.3759 -68.1668C17.3587 -64.9738 18.6119 -57.4203 18.7922 -54.2272C19.1784 -47.6008 19.5647 -43.5493 19.9509 -36.9229C20.011 -35.9615 20.0625 -35.0088 20.1226 -34.0474C20.1226 -34.0474 17.1184 -27.6098 16.9038 -24.8202C16.8952 -24.6657 16.8781 -24.5112 16.8523 -24.3481C19.2557 -23.9532 23.5388 -23.6356 28.9893 -23.4554C27.3155 -27.2922 27.6417 -30.6913 28.0795 -32.6054C28.2855 -33.5324 28.5859 -33.4809 28.6374 -32.5281C28.8434 -29.0261 29.5902 -25.8588 30.3713 -23.4039C33.6931 -23.3095 37.3926 -23.258 41.3238 -23.258C45.9588 -23.258 51.1776 -23.3438 55.95 -23.5326C56.7139 -25.9618 57.4435 -29.0862 57.6409 -32.5281C57.6924 -33.4809 57.9843 -33.5324 58.1988 -32.6054C58.6366 -30.717 58.9628 -27.378 57.3491 -23.5927C62.1043 -23.8073 66.2931 -24.1335 68.8681 -24.6142H68.9024C68.9024 -24.6914 68.9024 -24.7515 68.8853 -24.8202C68.6707 -27.6098 65.6665 -34.0474 65.6665 -34.0474C65.718 -35.0088 65.7781 -35.9615 65.8296 -36.9229C66.2158 -43.5493 66.6021 -47.6008 66.9883 -54.2272C67.1772 -57.4203 68.4303 -64.9738 68.4046 -68.1668C68.396 -70.2784 68.7908 -71.4114 70.2071 -73.2826C70.3874 -73.5229 70.5762 -73.7461 70.7822 -73.9693C66.2587 -72.3985 59.967 -73.3341 56.9972 -73.9263C56.0616 -74.1152 56.0873 -74.2868 57.0401 -74.2783C64.482 -74.201 68.396 -74.7589 71.1599 -76.0293C72.0182 -76.5186 73.1941 -77.2396 74.104 -79.4026C74.9538 -81.4455 76.3615 -82.6472 77.4516 -83.3253C78.2584 -83.8231 78.4558 -83.5141 77.9408 -82.7158C76.6704 -80.7502 75.2885 -77.6773 75.1512 -77.4198C75.0997 -77.3254 75.0568 -77.2396 74.9881 -77.1537C75.8464 -74.6302 77.0739 -67.0595 79.8978 -60.579C80.8935 -58.27 82.3527 -53.9268 83.3741 -51.7294C83.3741 -51.7294 84.9449 -42.5708 85.3998 -38.4336C86.5243 -28.2536 96.1549 -16.1165 96.3523 -7.00941C96.4382 -2.91508 92.919 -3.95368 90.9877 3.93454C90.6701 5.23065 89.1594 11.8743 89.1594 11.8743C89.0135 12.7841 89.4856 13.136 90.1722 13.136C90.507 13.136 90.8847 13.0502 91.2795 12.9129C92.567 12.4408 94.0777 8.77562 94.4897 7.65118C94.7558 6.93018 95.3309 5.47099 95.9918 5.47099C96.3266 5.47099 96.6871 5.84009 97.039 6.86153C98.1806 10.2091 91.8889 24.3719 96.3008 25.316C96.3352 25.3246 96.3781 25.3332 96.4124 25.3332C98.5154 25.3332 104.404 14.7669 104.404 14.7669C106.893 9.90007 106.756 6.11476 107.228 2.8616C109.15 -10.6231 107.537 -23.5498 105.039 -36.9057ZM1.53941 -53.2659C-0.486284 -50.7166 -3.954 -46.6909 -5.72219 -46.6909C-5.72219 -46.6909 -5.73078 -46.6995 -5.73936 -46.6909C-7.21572 -46.4935 -8.63198 -49.0428 -9.37874 -50.6565C-9.69633 -51.3517 -9.53325 -51.4118 -9.00966 -50.8196C-7.78222 -49.429 -6.77796 -48.6994 -6.00545 -48.3389C-5.95394 -48.3647 -5.90245 -48.3904 -5.85095 -48.4162C-4.60635 -49.017 -1.52488 -51.0084 1.19608 -53.4976C2.2776 -54.4933 2.44068 -54.3903 1.53941 -53.2659ZM41.7186 -108.449C42.0791 -108.312 42.4396 -108.226 42.7744 -108.183C43.7185 -108.054 44.1048 -107.479 43.2722 -107.007C42.2937 -106.449 41.5384 -107.076 41.0234 -107.823C40.4912 -108.604 40.8259 -108.784 41.7186 -108.449ZM43.1263 -80.8446C42.9975 -79.9005 42.6113 -79.9005 42.474 -80.8361C41.6671 -86.1578 42.3538 -93.265 42.7057 -96.9644C42.7915 -97.9086 42.9632 -97.9086 43.0405 -96.9644C43.9246 -87.1964 43.4868 -83.3682 43.1263 -80.8446ZM19.8479 -112.732C18.9381 -112.99 18.981 -113.247 19.9338 -113.23C23.8393 -113.153 33.324 -112.81 36.8089 -111.29C40.9203 -109.505 27.307 -110.629 19.8479 -112.732ZM28.1739 -55.7465C27.8992 -54.8366 27.719 -54.8624 27.779 -55.8066C28.3713 -64.5703 33.4098 -68.9222 35.9763 -70.5874C36.7745 -71.1024 36.9462 -70.8706 36.3196 -70.1582C31.3069 -64.433 29.0408 -58.5447 28.1739 -55.7465ZM43.0576 -26.1592C42.9546 -25.7987 42.6628 -25.7987 42.5598 -26.1592C41.9418 -28.2021 42.4654 -31.584 42.74 -33.0002C42.8087 -33.3607 42.9289 -33.3607 42.9975 -33.0002C43.667 -29.2578 43.3323 -27.1291 43.0576 -26.1592ZM42.8087 -36.056C41.8645 -36.056 41.092 -36.4851 41.092 -37.0173C41.092 -37.5495 41.8645 -37.9872 42.8087 -37.9872C43.7529 -37.9872 44.5254 -37.5495 44.5254 -37.0173C44.5254 -36.4851 43.7529 -36.056 42.8087 -36.056ZM51.2806 -60.7249C49.4094 -60.3988 47.315 -60.2442 45.2292 -60.1927C44.2851 -60.1756 43.5297 -59.4116 43.5383 -58.4589C43.5726 -55.901 43.564 -53.2401 43.5383 -50.6136C43.5211 -49.6608 44.2851 -48.8883 45.2292 -48.8625C46.6541 -48.8282 47.8129 -48.7424 48.6712 -48.6651C49.624 -48.5793 49.6326 -48.296 48.6884 -48.1673C47.5897 -48.0128 46.4138 -47.9269 45.2121 -47.884C44.2679 -47.8583 43.4782 -47.0858 43.4611 -46.1416C43.3065 -38.8198 43.1177 -38.5452 42.8688 -38.0731C42.268 -37.7126 42.225 -41.3262 42.1563 -46.1501C42.1392 -47.1029 41.3581 -47.8926 40.4053 -47.9269C38.9118 -47.9956 37.5814 -48.0986 36.6029 -48.193C35.6587 -48.2703 35.6587 -48.4591 36.6029 -48.5535C37.9505 -48.6823 39.2122 -48.7681 40.3968 -48.8196C41.3495 -48.8625 42.1134 -49.6436 42.1049 -50.5964C42.0877 -53.5663 42.1049 -56.1928 42.1478 -58.476C42.1649 -59.4202 41.4182 -60.2099 40.4654 -60.2442C37.8303 -60.3558 35.5042 -60.5704 34.0192 -60.7249C33.0751 -60.8279 33.0751 -61.0339 34.0192 -61.1455C36.3539 -61.4116 38.5256 -61.5661 40.5083 -61.6434C41.4611 -61.6863 42.2508 -62.4674 42.2937 -63.4201C42.4053 -66.3643 42.5598 -68.4157 42.6714 -69.7118C42.7572 -70.656 42.9461 -70.656 43.0405 -69.7118C43.2207 -67.8578 43.3409 -65.7291 43.4267 -63.4287C43.461 -62.4845 44.2507 -61.712 45.1949 -61.6949C47.8558 -61.6434 49.933 -61.4717 51.2634 -61.3172C52.2076 -61.2142 52.2162 -60.888 51.2806 -60.7249ZM58.4993 -55.8066C58.5593 -54.8624 58.3448 -54.8281 58.0358 -55.7293C57.0572 -58.5619 54.6024 -64.5961 49.933 -70.1324C49.3236 -70.862 49.5038 -71.1024 50.3021 -70.5874C52.8685 -68.9222 57.907 -64.5703 58.4993 -55.8066ZM65.5205 -112.732C58.0701 -110.629 44.4482 -109.505 48.5596 -111.29C52.0445 -112.81 61.5292 -113.153 65.4347 -113.23C66.3875 -113.247 66.4304 -112.99 65.5205 -112.732ZM94.9103 -50.6565C94.1721 -49.0428 92.7559 -46.4935 91.2709 -46.6909H91.2624C89.4942 -46.6909 86.0264 -50.7166 83.9922 -53.2659C83.0995 -54.3903 83.254 -54.4933 84.3355 -53.4976C87.065 -51.0084 90.1465 -49.017 91.3825 -48.4162C91.4426 -48.3904 91.4941 -48.3647 91.5456 -48.3389C92.3095 -48.6994 93.3224 -49.429 94.5498 -50.8196C95.0734 -51.4118 95.2365 -51.3517 94.9103 -50.6565Z" fill="#FFEACA"/>
</g>
<defs>
<clipPath id="clip0_8984_53050">
<rect width="85" height="80" fill="white"/>
</clipPath>
</defs>
</svg>
