<svg width="220" height="40" viewBox="0 0 220 40" fill="none" xmlns="http://www.w3.org/2000/svg">
<g clip-path="url(#clip0_10946_423)">
<path d="M31.3756 0H8.62437C3.86126 0 0 3.86126 0 8.62437V31.3756C0 36.1387 3.86126 40 8.62437 40H31.3756C36.1387 40 40 36.1387 40 31.3756V8.62437C40 3.86126 36.1387 0 31.3756 0Z" fill="#56A8EB"/>
<path d="M20.0009 36.343C29.0265 36.343 36.3432 29.0263 36.3432 20.0007C36.3432 10.9751 29.0265 3.65845 20.0009 3.65845C10.9753 3.65845 3.65857 10.9751 3.65857 20.0007C3.65857 29.0263 10.9753 36.343 20.0009 36.343Z" fill="white"/>
<path d="M20.0008 36.9158C10.6729 36.9158 3.08588 29.3271 3.08588 20.0008C3.08588 10.6745 10.6729 3.08423 20.0008 3.08423C29.3288 3.08423 36.9158 10.6729 36.9158 19.9992C36.9158 29.3255 29.3271 36.9141 20.0008 36.9141V36.9158ZM20.0008 4.2312C11.3045 4.2312 4.23121 11.3061 4.23121 20.0008C4.23121 28.6955 11.3061 35.7704 20.0008 35.7704C28.6956 35.7704 35.7705 28.6955 35.7705 20.0008C35.7705 11.3061 28.6956 4.22956 20.0008 4.22956V4.2312Z" fill="white"/>
<path d="M20.0008 33.4749C27.4424 33.4749 33.4749 27.4424 33.4749 20.0009C33.4749 12.5594 27.4424 6.52686 20.0008 6.52686C12.5593 6.52686 6.52679 12.5594 6.52679 20.0009C6.52679 27.4424 12.5593 33.4749 20.0008 33.4749Z" fill="white"/>
<path d="M8.44772 28.527C8.87313 28.527 9.12183 28.0493 8.87967 27.7008C7.32365 25.4494 6.48102 22.7676 6.48102 20.0041C6.48102 12.5365 12.5562 6.45971 20.0254 6.45971C27.4946 6.45971 33.5698 12.5349 33.5698 20.0041C33.5698 22.7676 32.7272 25.4494 31.1712 27.7008C30.929 28.0509 31.1777 28.527 31.6031 28.527C31.7749 28.527 31.9369 28.4452 32.0334 28.3045C33.7122 25.8764 34.6235 22.9853 34.6235 20.0041C34.6235 11.9557 28.0755 5.40601 20.0254 5.40601C11.9754 5.40601 5.42731 11.9557 5.42731 20.0041C5.42731 22.9853 6.33867 25.8764 8.0174 28.3045C8.11557 28.4452 8.27756 28.527 8.44772 28.527Z" fill="#CCD4E2"/>
<path d="M31.6031 29.2633C31.1319 29.2633 30.7032 29.0048 30.4856 28.5875C30.2663 28.1703 30.2974 27.6696 30.5657 27.2819C32.0498 25.1335 32.8351 22.6171 32.8351 20.0041C32.8351 12.9423 27.0888 7.19596 20.027 7.19596C12.9652 7.19596 7.21727 12.9423 7.21727 20.0041C7.21727 22.6171 8.00101 25.1335 9.48667 27.2819C9.75501 27.6696 9.78609 28.1703 9.56684 28.5875C9.3476 29.0048 8.92055 29.2633 8.44933 29.2633C8.03373 29.2633 7.64759 29.0604 7.41362 28.7234C5.63344 26.1496 4.69263 23.1357 4.69263 20.0041C4.69263 11.5482 11.5712 4.66968 20.027 4.66968C28.4829 4.66968 35.3614 11.5482 35.3614 20.0041C35.3614 23.1341 34.4206 26.1496 32.6404 28.7234C32.4065 29.062 32.0187 29.2633 31.6047 29.2633H31.6031Z" fill="#CCD4E2"/>
<path d="M8.39863 28.5024C8.82404 28.5024 9.07275 28.0246 8.83059 27.6761C7.27457 25.4247 6.43193 22.743 6.43193 19.9795C6.43193 12.5119 12.5071 6.43506 19.9763 6.43506C27.4456 6.43506 33.5207 12.5102 33.5207 19.9795C33.5207 22.743 32.6781 25.4247 31.1221 27.6761C30.8799 28.0263 31.1286 28.5024 31.554 28.5024C31.7258 28.5024 31.8878 28.4206 31.9844 28.2799C33.6631 25.8518 34.5744 22.9606 34.5744 19.9795C34.5744 11.931 28.0264 5.38135 19.9763 5.38135C11.9263 5.38135 5.37659 11.931 5.37659 19.9795C5.37659 22.9606 6.28795 25.8518 7.96668 28.2799C8.06485 28.4206 8.22683 28.5024 8.397 28.5024H8.39863Z" fill="#CCD4E2"/>
<path d="M31.5524 29.2403C31.0811 29.2403 30.6525 28.9817 30.4348 28.5645C30.2156 28.1473 30.2467 27.6466 30.515 27.2588C31.999 25.1105 32.7844 22.5941 32.7844 19.9811C32.7844 12.9192 27.0381 7.17294 19.9763 7.17294C12.9145 7.17294 7.16655 12.9176 7.16655 19.9794C7.16655 22.5924 7.95029 25.1089 9.43595 27.2572C9.70429 27.645 9.73537 28.1457 9.51612 28.5629C9.29687 28.9801 8.86983 29.2386 8.39861 29.2386C7.98465 29.2386 7.59687 29.0374 7.3629 28.6987C5.58272 26.125 4.64191 23.1111 4.64191 19.9794C4.64191 11.5236 11.5205 4.64502 19.9763 4.64502C28.4321 4.64502 35.3107 11.5236 35.3107 19.9794C35.3107 23.1095 34.3699 26.125 32.5897 28.6987C32.3557 29.0374 31.968 29.2386 31.554 29.2386L31.5524 29.2403Z" fill="#CCD4E2"/>
<path d="M31.5523 11.5073C31.1269 11.5073 30.8782 11.9851 31.1204 12.3336C32.6764 14.585 33.519 17.2667 33.519 20.0303C33.519 27.4978 27.4439 33.5747 19.9746 33.5747C12.5071 33.5747 6.43023 27.4995 6.43023 20.0303C6.43023 17.2667 7.27287 14.585 8.82889 12.3336C9.07105 11.9835 8.82235 11.5073 8.39694 11.5073C8.22514 11.5073 8.06315 11.5891 7.96662 11.7298C6.28788 14.158 5.37653 17.0491 5.37653 20.0303C5.37653 28.0787 11.9246 34.6284 19.9746 34.6284C28.0247 34.6284 34.5727 28.0803 34.5727 20.0303C34.5727 17.0491 33.6614 14.158 31.9827 11.7298C31.8845 11.5891 31.7225 11.5073 31.5523 11.5073Z" fill="#CCD4E2"/>
<path d="M19.9747 35.3646C11.5188 35.3646 4.64026 28.4861 4.64026 20.0302C4.64026 16.9002 5.58107 13.8847 7.36125 11.3109C7.59522 10.9722 7.983 10.771 8.39696 10.771C8.86818 10.771 9.29686 11.0295 9.51448 11.4467C9.73373 11.864 9.70264 12.3646 9.4343 12.7524C7.95028 14.9007 7.1649 17.4172 7.1649 20.0302C7.1649 27.092 12.9112 32.8383 19.973 32.8383C27.0348 32.8383 32.7811 27.0937 32.7811 20.0302C32.7811 17.4172 31.9974 14.9007 30.5117 12.7524C30.2434 12.3646 30.2123 11.864 30.4316 11.4467C30.6508 11.0295 31.0779 10.771 31.5491 10.771C31.9647 10.771 32.3508 10.9739 32.5848 11.3109C34.365 13.8847 35.3058 16.8985 35.3058 20.0302C35.3058 28.4861 28.4272 35.3646 19.9714 35.3646H19.9747Z" fill="#CCD4E2"/>
<path d="M34.0443 19.8699C34.3453 19.8699 34.5842 19.6179 34.5711 19.3168C34.2291 11.5695 27.8202 5.37158 19.9894 5.37158C12.1585 5.37158 5.39288 11.9196 5.39288 19.9681C5.39288 22.9492 6.30424 25.8404 7.98298 28.2685C8.08115 28.4092 8.24313 28.491 8.41329 28.491C8.8387 28.491 9.08741 28.0132 8.84525 27.6647C7.28923 25.4133 6.44659 22.7316 6.44659 19.9681C6.44659 12.5005 12.5218 6.42365 19.991 6.42365C27.4602 6.42365 33.2049 12.1765 33.519 19.3676C33.5321 19.6474 33.7628 19.8682 34.0443 19.8682V19.8699Z" fill="#56A8EB"/>
<path d="M8.41332 29.3107C7.97155 29.3107 7.55923 29.0947 7.30889 28.7348C5.5189 26.1479 4.57318 23.1177 4.57318 19.9697C4.57318 11.4697 11.4894 4.55347 19.9894 4.55347C23.9801 4.55347 27.7678 6.0784 30.6541 8.84847C33.5305 11.6087 35.2125 15.3147 35.3876 19.2808C35.404 19.6473 35.2682 20.0089 35.0145 20.2724C34.7626 20.5358 34.4075 20.688 34.0426 20.688C33.3211 20.688 32.7321 20.1251 32.701 19.4052C32.4015 12.5855 26.8189 7.24337 19.9894 7.24337C13.1599 7.24337 7.26472 12.952 7.26472 19.968C7.26472 22.5647 8.04355 25.0648 9.51939 27.1984C9.80573 27.6123 9.83681 28.1441 9.60447 28.5891C9.37213 29.0325 8.91564 29.3091 8.41496 29.3091L8.41332 29.3107Z" fill="#56A8EB"/>
<path d="M30.7801 12.5985C31.7524 12.5985 32.5406 11.8103 32.5406 10.8379C32.5406 9.86561 31.7524 9.07739 30.7801 9.07739C29.8078 9.07739 29.0195 9.86561 29.0195 10.8379C29.0195 11.8103 29.8078 12.5985 30.7801 12.5985Z" fill="#56A8EB"/>
<path d="M30.7801 13.0076C29.584 13.0076 28.6088 12.0341 28.6088 10.838C28.6088 9.64199 29.5824 8.66846 30.7801 8.66846C31.9777 8.66846 32.9496 9.64199 32.9496 10.838C32.9496 12.0341 31.9761 13.0076 30.7801 13.0076ZM30.7801 9.48492C30.0339 9.48492 29.4269 10.0919 29.4269 10.8364C29.4269 11.5809 30.0339 12.1879 30.7801 12.1879C31.5262 12.1879 32.1315 11.5809 32.1315 10.8364C32.1315 10.0919 31.5245 9.48492 30.7801 9.48492Z" fill="white"/>
<path d="M20.9711 19.2956C20.7911 19.1156 20.5473 19.0043 20.2773 19.0043L14.0925 18.9978C13.5346 18.9978 13.0813 19.4707 13.0781 20.0531C13.0781 20.3558 13.1959 20.6275 13.3889 20.8205C13.5689 21.0005 13.8127 21.1118 14.0827 21.1118L20.2675 21.1183C20.8254 21.1183 21.2787 20.6454 21.2819 20.063C21.2819 19.7603 21.1641 19.4887 20.9711 19.2956Z" fill="#56A8EB"/>
<path d="M17.1538 20.467C17.0523 20.3656 16.9902 20.2249 16.9902 20.0711C16.9902 19.7618 17.2405 19.5115 17.5498 19.5115H26.3165C26.6257 19.5115 26.876 19.7618 26.876 20.0711C26.876 20.3803 26.6257 20.6306 26.3165 20.6306H17.5498C17.3943 20.6306 17.2552 20.5685 17.1538 20.467Z" fill="#56A8EB"/>
<path d="M26.7926 22.5123C25.3806 22.5123 24.2369 21.4128 24.2369 20.058C24.2369 18.7033 25.3806 17.6038 26.7926 17.6038C28.2046 17.6038 31.4754 18.7033 31.4754 20.058C31.4754 21.4128 28.2046 22.5123 26.7926 22.5123Z" fill="#56A8EB"/>
<path d="M19.9812 21.8382C20.9535 21.8382 21.7417 21.05 21.7417 20.0777C21.7417 19.1054 20.9535 18.3171 19.9812 18.3171C19.0089 18.3171 18.2206 19.1054 18.2206 20.0777C18.2206 21.05 19.0089 21.8382 19.9812 21.8382Z" fill="#56A8EB"/>
<path d="M19.9812 22.2474C18.7851 22.2474 17.8099 21.2739 17.8099 20.0778C17.8099 18.8817 18.7835 17.9082 19.9812 17.9082C21.1789 17.9082 22.1508 18.8817 22.1508 20.0778C22.1508 21.2739 21.1772 22.2474 19.9812 22.2474ZM19.9812 18.7247C19.2351 18.7247 18.628 19.3317 18.628 20.0762C18.628 20.8206 19.2351 21.4277 19.9812 21.4277C20.7273 21.4277 21.3327 20.8206 21.3327 20.0762C21.3327 19.3317 20.7256 18.7247 19.9812 18.7247Z" fill="white"/>
<path d="M20.2822 19.3693C20.2151 19.4364 20.1219 19.4789 20.0188 19.4789C19.8126 19.4789 19.6458 19.312 19.6458 19.1058V9.49976C19.6458 9.2936 19.8126 9.12671 20.0188 9.12671C20.225 9.12671 20.3919 9.2936 20.3919 9.49976V19.1058C20.3919 19.2089 20.3493 19.3022 20.2822 19.3693Z" fill="#56A8EB"/>
<path d="M21.745 15.6715C21.3752 16.0413 20.8811 16.2932 20.3297 16.2932H19.6703C19.1189 16.2932 18.5855 16.0364 18.1666 15.57C17.7887 15.1479 17.5629 14.6063 17.5629 14.1187V9.49976C17.5629 9.2936 17.7298 9.12671 17.9359 9.12671C18.1421 9.12671 18.309 9.2936 18.309 9.49976V14.1187C18.309 14.4231 18.4677 14.7879 18.7213 15.0726C18.88 15.251 19.2154 15.5488 19.6686 15.5488H20.328C21.048 15.5488 21.6877 14.7503 21.6877 14.1204V9.5014C21.6877 9.29524 21.8546 9.12835 22.0608 9.12835C22.2669 9.12835 22.4338 9.29524 22.4338 9.5014V14.1204C22.4338 14.6603 22.1687 15.2461 21.7417 15.6731L21.745 15.6715Z" fill="#56A8EB"/>
<path d="M19.2334 19.2022C19.0534 19.3822 18.9422 19.626 18.9422 19.896L18.9356 26.0808C18.9356 26.6387 19.4085 27.092 19.991 27.0952C20.2936 27.0952 20.5653 26.9774 20.7583 26.7844C20.9383 26.6044 21.0496 26.3606 21.0496 26.0906L21.0561 19.9058C21.0561 19.3479 20.5833 18.8946 20.0008 18.8914C19.6981 18.8914 19.4265 19.0092 19.2334 19.2022Z" fill="#56A8EB"/>
<path d="M20.3967 23.5104C20.2953 23.6118 20.1545 23.674 20.0007 23.674C19.6915 23.674 19.4412 23.4237 19.4412 23.1144V15.8464C19.4412 15.5372 19.6915 15.2869 20.0007 15.2869C20.31 15.2869 20.5603 15.5372 20.5603 15.8464V23.1144C20.5603 23.2698 20.4981 23.4089 20.3967 23.5104Z" fill="#56A8EB"/>
<path d="M18.1813 13.1582H21.7924V15.3965C21.7924 15.5601 21.6599 15.6927 21.4963 15.6927H18.4775C18.3139 15.6927 18.1813 15.5601 18.1813 15.3965V13.1582Z" fill="#56A8EB"/>
</g>
<path d="M66.7188 20.3496H63.1152L63.0957 18.8359H66.3672C66.9076 18.8359 67.3796 18.7448 67.7832 18.5625C68.1868 18.3802 68.4993 18.1198 68.7207 17.7812C68.9486 17.4362 69.0625 17.026 69.0625 16.5508C69.0625 16.0299 68.9616 15.6068 68.7598 15.2812C68.5645 14.9492 68.2617 14.7083 67.8516 14.5586C67.4479 14.4023 66.9336 14.3242 66.3086 14.3242H63.5352V27H61.6504V12.7812H66.3086C67.0378 12.7812 67.6888 12.8561 68.2617 13.0059C68.8346 13.1491 69.3197 13.377 69.7168 13.6895C70.1204 13.9954 70.4264 14.3861 70.6348 14.8613C70.8431 15.3366 70.9473 15.9062 70.9473 16.5703C70.9473 17.1562 70.7975 17.6868 70.498 18.1621C70.1986 18.6309 69.7819 19.015 69.248 19.3145C68.7207 19.6139 68.1022 19.806 67.3926 19.8906L66.7188 20.3496ZM66.6309 27H62.373L63.4375 25.4668H66.6309C67.2298 25.4668 67.7376 25.3626 68.1543 25.1543C68.5775 24.946 68.8997 24.653 69.1211 24.2754C69.3424 23.8913 69.4531 23.4388 69.4531 22.918C69.4531 22.3906 69.3587 21.9349 69.1699 21.5508C68.9811 21.1667 68.6849 20.8704 68.2812 20.6621C67.8776 20.4538 67.3568 20.3496 66.7188 20.3496H64.0332L64.0527 18.8359H67.7246L68.125 19.3828C68.8086 19.4414 69.388 19.6367 69.8633 19.9688C70.3385 20.2943 70.6999 20.7109 70.9473 21.2188C71.2012 21.7266 71.3281 22.2865 71.3281 22.8984C71.3281 23.7839 71.1328 24.5326 70.7422 25.1445C70.3581 25.75 69.8145 26.2122 69.1113 26.5312C68.4082 26.8438 67.5814 27 66.6309 27ZM75.8008 12V27H73.9844V12H75.8008ZM85.166 24.5586V16.4336H86.9824V27H85.2539L85.166 24.5586ZM85.5078 22.332L86.2598 22.3125C86.2598 23.0156 86.1849 23.6667 86.0352 24.2656C85.8919 24.8581 85.6576 25.3724 85.332 25.8086C85.0065 26.2448 84.5801 26.5866 84.0527 26.834C83.5254 27.0749 82.8841 27.1953 82.1289 27.1953C81.6146 27.1953 81.1426 27.1204 80.7129 26.9707C80.2897 26.821 79.9251 26.5898 79.6191 26.2773C79.3132 25.9648 79.0755 25.5579 78.9062 25.0566C78.7435 24.5553 78.6621 23.9531 78.6621 23.25V16.4336H80.4688V23.2695C80.4688 23.7448 80.5208 24.1387 80.625 24.4512C80.7357 24.7572 80.8822 25.0013 81.0645 25.1836C81.2533 25.3594 81.4616 25.4831 81.6895 25.5547C81.9238 25.6263 82.1647 25.6621 82.4121 25.6621C83.1803 25.6621 83.7891 25.5156 84.2383 25.2227C84.6875 24.9232 85.0098 24.5228 85.2051 24.0215C85.4069 23.5137 85.5078 22.9505 85.5078 22.332ZM94.1211 27.1953C93.3854 27.1953 92.7181 27.0716 92.1191 26.8242C91.5267 26.5703 91.0156 26.2155 90.5859 25.7598C90.1628 25.304 89.8372 24.7637 89.6094 24.1387C89.3815 23.5137 89.2676 22.8301 89.2676 22.0879V21.6777C89.2676 20.8184 89.3945 20.0534 89.6484 19.3828C89.9023 18.7057 90.2474 18.1328 90.6836 17.6641C91.1198 17.1953 91.6146 16.8405 92.168 16.5996C92.7214 16.3587 93.2943 16.2383 93.8867 16.2383C94.6419 16.2383 95.293 16.3685 95.8398 16.6289C96.3932 16.8893 96.8457 17.2539 97.1973 17.7227C97.5488 18.1849 97.8092 18.7318 97.9785 19.3633C98.1478 19.9883 98.2324 20.6719 98.2324 21.4141V22.2246H90.3418V20.75H96.4258V20.6133C96.3997 20.1445 96.3021 19.6888 96.1328 19.2461C95.9701 18.8034 95.7096 18.4388 95.3516 18.1523C94.9935 17.8659 94.5052 17.7227 93.8867 17.7227C93.4766 17.7227 93.099 17.8105 92.7539 17.9863C92.4089 18.1556 92.1126 18.4095 91.8652 18.748C91.6178 19.0866 91.4258 19.5 91.2891 19.9883C91.1523 20.4766 91.084 21.0397 91.084 21.6777V22.0879C91.084 22.5892 91.1523 23.0612 91.2891 23.5039C91.4323 23.9401 91.6374 24.3242 91.9043 24.6562C92.1777 24.9883 92.5065 25.2487 92.8906 25.4375C93.2812 25.6263 93.724 25.7207 94.2188 25.7207C94.8568 25.7207 95.3971 25.5905 95.8398 25.3301C96.2826 25.0697 96.6699 24.7214 97.002 24.2852L98.0957 25.1543C97.8678 25.4993 97.5781 25.8281 97.2266 26.1406C96.875 26.4531 96.4421 26.707 95.9277 26.9023C95.4199 27.0977 94.8177 27.1953 94.1211 27.1953ZM115.117 25.4668V27H105.488V25.4668H115.117ZM114.805 14.1484L105.938 27H104.775V25.5938L113.633 12.7812H114.805V14.1484ZM114.004 12.7812V14.3242H104.902V12.7812H114.004ZM116.602 21.834V21.6094C116.602 20.8477 116.712 20.1413 116.934 19.4902C117.155 18.8327 117.474 18.263 117.891 17.7812C118.307 17.293 118.812 16.9154 119.404 16.6484C119.997 16.375 120.661 16.2383 121.396 16.2383C122.139 16.2383 122.806 16.375 123.398 16.6484C123.997 16.9154 124.505 17.293 124.922 17.7812C125.345 18.263 125.667 18.8327 125.889 19.4902C126.11 20.1413 126.221 20.8477 126.221 21.6094V21.834C126.221 22.5957 126.11 23.3021 125.889 23.9531C125.667 24.6042 125.345 25.1738 124.922 25.6621C124.505 26.1439 124.001 26.5215 123.408 26.7949C122.822 27.0618 122.158 27.1953 121.416 27.1953C120.674 27.1953 120.007 27.0618 119.414 26.7949C118.822 26.5215 118.314 26.1439 117.891 25.6621C117.474 25.1738 117.155 24.6042 116.934 23.9531C116.712 23.3021 116.602 22.5957 116.602 21.834ZM118.408 21.6094V21.834C118.408 22.3613 118.47 22.8594 118.594 23.3281C118.717 23.7904 118.903 24.2005 119.15 24.5586C119.404 24.9167 119.72 25.1999 120.098 25.4082C120.475 25.61 120.915 25.7109 121.416 25.7109C121.911 25.7109 122.344 25.61 122.715 25.4082C123.092 25.1999 123.405 24.9167 123.652 24.5586C123.9 24.2005 124.085 23.7904 124.209 23.3281C124.339 22.8594 124.404 22.3613 124.404 21.834V21.6094C124.404 21.0885 124.339 20.597 124.209 20.1348C124.085 19.666 123.896 19.2526 123.643 18.8945C123.395 18.5299 123.083 18.2435 122.705 18.0352C122.334 17.8268 121.898 17.7227 121.396 17.7227C120.902 17.7227 120.465 17.8268 120.088 18.0352C119.717 18.2435 119.404 18.5299 119.15 18.8945C118.903 19.2526 118.717 19.666 118.594 20.1348C118.47 20.597 118.408 21.0885 118.408 21.6094ZM130.293 18.6895V27H128.486V16.4336H130.195L130.293 18.6895ZM129.863 21.3164L129.111 21.2871C129.118 20.5645 129.225 19.8971 129.434 19.2852C129.642 18.6667 129.935 18.1296 130.312 17.6738C130.69 17.2181 131.139 16.8665 131.66 16.6191C132.188 16.3652 132.77 16.2383 133.408 16.2383C133.929 16.2383 134.398 16.3099 134.814 16.4531C135.231 16.5898 135.586 16.8112 135.879 17.1172C136.178 17.4232 136.406 17.8203 136.562 18.3086C136.719 18.7904 136.797 19.3796 136.797 20.0762V27H134.98V20.0566C134.98 19.5033 134.899 19.0605 134.736 18.7285C134.574 18.39 134.336 18.1458 134.023 17.9961C133.711 17.8398 133.327 17.7617 132.871 17.7617C132.422 17.7617 132.012 17.8561 131.641 18.0449C131.276 18.2337 130.96 18.4941 130.693 18.8262C130.433 19.1582 130.228 19.5391 130.078 19.9688C129.935 20.3919 129.863 20.8411 129.863 21.3164ZM143.926 27.1953C143.19 27.1953 142.523 27.0716 141.924 26.8242C141.331 26.5703 140.82 26.2155 140.391 25.7598C139.967 25.304 139.642 24.7637 139.414 24.1387C139.186 23.5137 139.072 22.8301 139.072 22.0879V21.6777C139.072 20.8184 139.199 20.0534 139.453 19.3828C139.707 18.7057 140.052 18.1328 140.488 17.6641C140.924 17.1953 141.419 16.8405 141.973 16.5996C142.526 16.3587 143.099 16.2383 143.691 16.2383C144.447 16.2383 145.098 16.3685 145.645 16.6289C146.198 16.8893 146.65 17.2539 147.002 17.7227C147.354 18.1849 147.614 18.7318 147.783 19.3633C147.952 19.9883 148.037 20.6719 148.037 21.4141V22.2246H140.146V20.75H146.23V20.6133C146.204 20.1445 146.107 19.6888 145.938 19.2461C145.775 18.8034 145.514 18.4388 145.156 18.1523C144.798 17.8659 144.31 17.7227 143.691 17.7227C143.281 17.7227 142.904 17.8105 142.559 17.9863C142.214 18.1556 141.917 18.4095 141.67 18.748C141.423 19.0866 141.23 19.5 141.094 19.9883C140.957 20.4766 140.889 21.0397 140.889 21.6777V22.0879C140.889 22.5892 140.957 23.0612 141.094 23.5039C141.237 23.9401 141.442 24.3242 141.709 24.6562C141.982 24.9883 142.311 25.2487 142.695 25.4375C143.086 25.6263 143.529 25.7207 144.023 25.7207C144.661 25.7207 145.202 25.5905 145.645 25.3301C146.087 25.0697 146.475 24.7214 146.807 24.2852L147.9 25.1543C147.673 25.4993 147.383 25.8281 147.031 26.1406C146.68 26.4531 146.247 26.707 145.732 26.9023C145.225 27.0977 144.622 27.1953 143.926 27.1953ZM157.266 12.7812V27H155.381V12.7812H157.266ZM163.223 19.1777V20.7207H156.855V19.1777H163.223ZM164.189 12.7812V14.3242H156.855V12.7812H164.189ZM172.061 25.1934V19.7539C172.061 19.3372 171.976 18.9759 171.807 18.6699C171.644 18.3574 171.396 18.1165 171.064 17.9473C170.732 17.778 170.322 17.6934 169.834 17.6934C169.378 17.6934 168.978 17.7715 168.633 17.9277C168.294 18.084 168.027 18.2891 167.832 18.543C167.643 18.7969 167.549 19.0703 167.549 19.3633H165.742C165.742 18.9857 165.84 18.6113 166.035 18.2402C166.23 17.8691 166.51 17.5339 166.875 17.2344C167.246 16.9284 167.689 16.6875 168.203 16.5117C168.724 16.3294 169.303 16.2383 169.941 16.2383C170.71 16.2383 171.387 16.3685 171.973 16.6289C172.565 16.8893 173.027 17.2832 173.359 17.8105C173.698 18.3314 173.867 18.9857 173.867 19.7734V24.6953C173.867 25.0469 173.896 25.4212 173.955 25.8184C174.02 26.2155 174.115 26.5573 174.238 26.8438V27H172.354C172.262 26.7917 172.191 26.515 172.139 26.1699C172.087 25.8184 172.061 25.4928 172.061 25.1934ZM172.373 20.5938L172.393 21.8633H170.566C170.052 21.8633 169.593 21.9056 169.189 21.9902C168.786 22.0684 168.447 22.1888 168.174 22.3516C167.9 22.5143 167.692 22.7194 167.549 22.9668C167.406 23.2077 167.334 23.4909 167.334 23.8164C167.334 24.1484 167.409 24.4512 167.559 24.7246C167.708 24.998 167.933 25.2161 168.232 25.3789C168.538 25.5352 168.913 25.6133 169.355 25.6133C169.909 25.6133 170.397 25.4961 170.82 25.2617C171.243 25.0273 171.579 24.7409 171.826 24.4023C172.08 24.0638 172.217 23.735 172.236 23.416L173.008 24.2852C172.962 24.5586 172.839 24.8613 172.637 25.1934C172.435 25.5254 172.165 25.8444 171.826 26.1504C171.494 26.4499 171.097 26.7005 170.635 26.9023C170.179 27.0977 169.665 27.1953 169.092 27.1953C168.376 27.1953 167.747 27.0553 167.207 26.7754C166.673 26.4954 166.257 26.1211 165.957 25.6523C165.664 25.1771 165.518 24.6465 165.518 24.0605C165.518 23.4941 165.628 22.9961 165.85 22.5664C166.071 22.1302 166.39 21.7689 166.807 21.4824C167.223 21.1895 167.725 20.9681 168.311 20.8184C168.896 20.6686 169.551 20.5938 170.273 20.5938H172.373ZM182.861 24.1973C182.861 23.9368 182.803 23.696 182.686 23.4746C182.575 23.2467 182.344 23.0417 181.992 22.8594C181.647 22.6706 181.126 22.5078 180.43 22.3711C179.844 22.2474 179.313 22.1009 178.838 21.9316C178.369 21.7624 177.969 21.5573 177.637 21.3164C177.311 21.0755 177.061 20.7923 176.885 20.4668C176.709 20.1413 176.621 19.7604 176.621 19.3242C176.621 18.9076 176.712 18.5137 176.895 18.1426C177.083 17.7715 177.347 17.4427 177.686 17.1562C178.031 16.8698 178.444 16.6452 178.926 16.4824C179.408 16.3197 179.945 16.2383 180.537 16.2383C181.383 16.2383 182.106 16.388 182.705 16.6875C183.304 16.987 183.763 17.3874 184.082 17.8887C184.401 18.3835 184.561 18.9336 184.561 19.5391H182.754C182.754 19.2461 182.666 18.9629 182.49 18.6895C182.321 18.4095 182.07 18.1784 181.738 17.9961C181.413 17.8138 181.012 17.7227 180.537 17.7227C180.036 17.7227 179.629 17.8008 179.316 17.957C179.01 18.1068 178.786 18.2988 178.643 18.5332C178.506 18.7676 178.438 19.015 178.438 19.2754C178.438 19.4707 178.47 19.6465 178.535 19.8027C178.607 19.9525 178.73 20.0924 178.906 20.2227C179.082 20.3464 179.329 20.4635 179.648 20.5742C179.967 20.6849 180.374 20.7956 180.869 20.9062C181.735 21.1016 182.448 21.3359 183.008 21.6094C183.568 21.8828 183.984 22.2181 184.258 22.6152C184.531 23.0124 184.668 23.4941 184.668 24.0605C184.668 24.5228 184.57 24.946 184.375 25.3301C184.186 25.7142 183.91 26.0462 183.545 26.3262C183.187 26.5996 182.757 26.8145 182.256 26.9707C181.761 27.1204 181.204 27.1953 180.586 27.1953C179.655 27.1953 178.867 27.0293 178.223 26.6973C177.578 26.3652 177.09 25.9355 176.758 25.4082C176.426 24.8809 176.26 24.3242 176.26 23.7383H178.076C178.102 24.2331 178.245 24.627 178.506 24.9199C178.766 25.2064 179.085 25.4115 179.463 25.5352C179.84 25.6523 180.215 25.7109 180.586 25.7109C181.081 25.7109 181.494 25.6458 181.826 25.5156C182.165 25.3854 182.422 25.2064 182.598 24.9785C182.773 24.7507 182.861 24.4902 182.861 24.1973ZM191.465 16.4336V17.8203H185.752V16.4336H191.465ZM187.686 13.8652H189.492V24.3828C189.492 24.7409 189.548 25.0111 189.658 25.1934C189.769 25.3757 189.912 25.4961 190.088 25.5547C190.264 25.6133 190.452 25.6426 190.654 25.6426C190.804 25.6426 190.96 25.6296 191.123 25.6035C191.292 25.571 191.419 25.5449 191.504 25.5254L191.514 27C191.37 27.0456 191.182 27.0879 190.947 27.127C190.719 27.1725 190.443 27.1953 190.117 27.1953C189.674 27.1953 189.268 27.1074 188.896 26.9316C188.525 26.7559 188.229 26.4629 188.008 26.0527C187.793 25.6361 187.686 25.0762 187.686 24.373V13.8652ZM195.547 16.4336V27H193.73V16.4336H195.547ZM193.594 13.6309C193.594 13.3379 193.682 13.0905 193.857 12.8887C194.04 12.6868 194.307 12.5859 194.658 12.5859C195.003 12.5859 195.267 12.6868 195.449 12.8887C195.638 13.0905 195.732 13.3379 195.732 13.6309C195.732 13.9108 195.638 14.1517 195.449 14.3535C195.267 14.5488 195.003 14.6465 194.658 14.6465C194.307 14.6465 194.04 14.5488 193.857 14.3535C193.682 14.1517 193.594 13.9108 193.594 13.6309ZM200.254 18.6895V27H198.447V16.4336H200.156L200.254 18.6895ZM199.824 21.3164L199.072 21.2871C199.079 20.5645 199.186 19.8971 199.395 19.2852C199.603 18.6667 199.896 18.1296 200.273 17.6738C200.651 17.2181 201.1 16.8665 201.621 16.6191C202.148 16.3652 202.731 16.2383 203.369 16.2383C203.89 16.2383 204.359 16.3099 204.775 16.4531C205.192 16.5898 205.547 16.8112 205.84 17.1172C206.139 17.4232 206.367 17.8203 206.523 18.3086C206.68 18.7904 206.758 19.3796 206.758 20.0762V27H204.941V20.0566C204.941 19.5033 204.86 19.0605 204.697 18.7285C204.535 18.39 204.297 18.1458 203.984 17.9961C203.672 17.8398 203.288 17.7617 202.832 17.7617C202.383 17.7617 201.973 17.8561 201.602 18.0449C201.237 18.2337 200.921 18.4941 200.654 18.8262C200.394 19.1582 200.189 19.5391 200.039 19.9688C199.896 20.3919 199.824 20.8411 199.824 21.3164ZM216.348 16.4336H217.988V26.7754C217.988 27.7064 217.799 28.5007 217.422 29.1582C217.044 29.8158 216.517 30.3138 215.84 30.6523C215.169 30.9974 214.395 31.1699 213.516 31.1699C213.151 31.1699 212.721 31.1113 212.227 30.9941C211.738 30.8835 211.257 30.6914 210.781 30.418C210.312 30.151 209.919 29.7897 209.6 29.334L210.547 28.2598C210.99 28.7936 211.452 29.1647 211.934 29.373C212.422 29.5814 212.904 29.6855 213.379 29.6855C213.952 29.6855 214.447 29.5781 214.863 29.3633C215.28 29.1484 215.602 28.8294 215.83 28.4062C216.064 27.9896 216.182 27.4753 216.182 26.8633V18.7578L216.348 16.4336ZM209.072 21.834V21.6289C209.072 20.8216 209.167 20.0892 209.355 19.4316C209.551 18.7676 209.827 18.1979 210.186 17.7227C210.55 17.2474 210.99 16.8828 211.504 16.6289C212.018 16.3685 212.598 16.2383 213.242 16.2383C213.906 16.2383 214.486 16.3555 214.98 16.5898C215.482 16.8177 215.905 17.153 216.25 17.5957C216.602 18.0319 216.878 18.5592 217.08 19.1777C217.282 19.7962 217.422 20.4961 217.5 21.2773V22.1758C217.428 22.9505 217.288 23.6471 217.08 24.2656C216.878 24.8841 216.602 25.4115 216.25 25.8477C215.905 26.2839 215.482 26.6191 214.98 26.8535C214.479 27.0814 213.893 27.1953 213.223 27.1953C212.591 27.1953 212.018 27.0618 211.504 26.7949C210.996 26.528 210.56 26.1536 210.195 25.6719C209.831 25.1901 209.551 24.6237 209.355 23.9727C209.167 23.3151 209.072 22.6022 209.072 21.834ZM210.879 21.6289V21.834C210.879 22.3613 210.931 22.8561 211.035 23.3184C211.146 23.7806 211.312 24.1875 211.533 24.5391C211.761 24.8906 212.051 25.1673 212.402 25.3691C212.754 25.5645 213.174 25.6621 213.662 25.6621C214.261 25.6621 214.756 25.5352 215.146 25.2812C215.537 25.0273 215.846 24.6921 216.074 24.2754C216.309 23.8587 216.491 23.4062 216.621 22.918V20.5645C216.549 20.2064 216.439 19.8613 216.289 19.5293C216.146 19.1908 215.957 18.8913 215.723 18.6309C215.495 18.3639 215.212 18.1523 214.873 17.9961C214.535 17.8398 214.137 17.7617 213.682 17.7617C213.187 17.7617 212.76 17.8659 212.402 18.0742C212.051 18.276 211.761 18.556 211.533 18.9141C211.312 19.2656 211.146 19.6758 211.035 20.1445C210.931 20.6068 210.879 21.1016 210.879 21.6289Z" fill="#1488F0"/>
<defs>
<clipPath id="clip0_10946_423">
<rect width="40" height="40" fill="white"/>
</clipPath>
</defs>
</svg>
