<svg width="50" height="50" viewBox="0 0 50 50" fill="none" xmlns="http://www.w3.org/2000/svg">
<rect width="50" height="50" rx="10" fill="#1488F0"/>
<rect x="11" y="15" width="28" height="20" fill="white"/>
<path d="M10 17.5C10 15.4287 11.6787 13.75 13.75 13.75H36.25C38.3184 13.75 40 15.4287 40 17.5V32.5C40 34.5684 38.3184 36.25 36.25 36.25H13.75C11.6787 36.25 10 34.5684 10 32.5V17.5ZM11.875 17.5V19.8379L23.3359 28.2402C24.3262 28.9668 25.6738 28.9668 26.6641 28.2402L38.125 19.8379V17.5C38.125 16.4629 37.2871 15.625 36.25 15.625H13.6973C12.7146 15.625 11.8223 16.4629 11.8223 17.5H11.875ZM11.875 22.1641V32.5C11.875 33.5371 12.7146 34.375 13.75 34.375H36.25C37.2871 34.375 38.125 33.5371 38.125 32.5V22.1641L27.7715 29.752C26.1191 30.9648 23.8809 30.9648 22.2285 29.752L11.875 22.1641Z" fill="black"/>
</svg>
