<svg width="539" height="354" viewBox="0 0 539 354" fill="none" xmlns="http://www.w3.org/2000/svg">
<g clip-path="url(#clip0_8963_39573)">
<path d="M253.18 86.4762L242.42 83.5362L234.18 78.2462L218.12 58.1262L205.77 43.6562L197.65 44.0062L192 53.8862L208.41 81.7663L233.65 116.006L234.99 116.806C241.07 106.056 247.12 95.6562 255.16 86.2962L253.18 86.4762Z" fill="#D18672"/>
<path d="M232.711 83.1741L236.951 91.6441L239.071 103.404L239.001 109.804C242.131 104.444 245.361 99.2141 248.971 94.2041L232.721 83.1641L232.711 83.1741Z" fill="#E8A481"/>
<path d="M215.791 60.0734C215.791 60.0734 224.031 57.2034 245.381 44.8534C250.291 42.0134 259.811 34.0134 265.211 32.3634C265.631 32.2334 266.091 32.2234 266.561 32.3034C266.501 29.8634 266.391 27.4434 266.251 25.0234L262.761 26.0034C262.761 26.0034 231.281 33.0634 225.771 33.2934C220.261 33.5234 201.861 40.8434 198.811 44.7234C198.221 45.4734 206.461 46.8934 206.841 47.1834C207.111 49.9634 201.721 62.0034 215.811 60.0734H215.791Z" fill="#B56760"/>
<path d="M206.778 57.5325C208.628 57.9325 214.168 57.1125 216.318 56.9625C216.318 56.9625 222.768 55.8125 244.108 43.4625C249.018 40.6225 259.268 32.4325 264.668 30.7825C264.718 30.7725 264.758 30.7625 264.808 30.7525C267.268 29.3425 269.138 28.4225 267.918 25.4725C266.698 22.5225 262.218 24.4225 262.218 24.4225C262.218 24.4225 233.138 29.8425 223.308 32.1125C217.928 33.3525 202.008 38.3925 198.778 42.1325C198.258 42.7425 197.228 45.7925 197.258 46.5625C198.848 51.4325 201.978 56.0225 206.778 57.5225V57.5325Z" fill="#E8A481"/>
<path d="M215.362 58.0112L237.092 47.9313L266.502 29.7812L239.182 40.9413L201.352 54.2713L205.712 57.8413C207.302 59.0813 215.362 58.0213 215.362 58.0213V58.0112Z" fill="#D18672"/>
<path d="M307.764 92.01H294.354L278.114 84.25L255.154 86.31C247.114 95.67 241.064 106.06 234.984 116.82L255.524 129.08L313.764 117.79L321.524 108.97L307.764 92.03V92.01Z" fill="#D18672"/>
<path d="M266.83 95.8884L261.18 95.6484L263.3 107.418L263.06 128.828L293.89 132.128L309.18 104.128L298.12 100.128L276.48 115.418L270.36 101.068L266.83 95.8884Z" fill="#E8A481"/>
<path d="M269.418 103.649L255.298 112.589L251.058 95.6488L248.958 94.2188C245.358 99.2288 242.118 104.459 238.988 109.819L238.828 124.829L269.648 128.119L284.938 100.119L269.408 103.649H269.418Z" fill="#E8A481"/>
<path d="M234.891 115.136L253.361 88.7162L256.421 88.6562L244.721 114.836L234.891 115.136Z" fill="#D18672"/>
<path d="M233.297 114.773L251.767 88.3628L256.707 88.1328L242.127 114.483L233.297 114.773Z" fill="#708BBB"/>
<path d="M233.188 114.482L247.757 94.2422L252.248 94.4022L239.308 114.482H233.188Z" fill="#8FA6D3"/>
<path d="M273.531 114.542L291.061 90.2422L297.421 91.8922L291.371 114.252L273.531 114.542Z" fill="#708BBB"/>
<path d="M273.43 114.256L288 94.0156L292.49 94.1656L288.55 114.256H273.43Z" fill="#8FA6D3"/>
<path d="M256.952 111.89L282.363 99.89L279.012 58.5L260.012 85.54L256.723 92.13C256.723 92.13 256.143 111.69 256.963 111.89H256.952Z" fill="#E8A481"/>
<path d="M280.631 68.2266C278.611 68.7466 276.851 70.2566 276.851 70.2566L276.461 107.697L281.541 103.357L283.481 100.347L280.631 68.2366V68.2266Z" fill="#D18672"/>
<path d="M279.728 15.4137C279.728 15.4137 286.758 11.7937 287.248 11.7137C287.738 11.6337 291.448 13.2837 294.828 17.7437C298.208 22.2037 298.728 26.0937 298.728 26.0937L292.128 20.2937L282.428 18.6937L279.078 16.8937L279.178 15.8337" fill="#8D4134"/>
<path d="M245.038 49.6869L242.508 62.9669L247.058 76.8169L259.058 83.8869L243.528 86.7069L233.648 78.0069L235.168 45.1969L245.048 38.0469L245.038 49.6869Z" fill="#A15544"/>
<path d="M281.482 18.3616L290.772 20.2416L294.362 24.0016C294.362 24.0016 299.302 36.5316 299.482 37.0616C299.662 37.5916 297.012 39.8816 297.012 39.8816L288.012 44.6416C288.012 44.6416 277.952 36.1716 277.772 34.7616C277.592 33.3516 281.482 18.3516 281.482 18.3516V18.3616Z" fill="#D18672"/>
<path d="M280.953 79.6528L291.033 69.0428L291.533 60.6028L297.893 47.0128L283.593 25.1328L266.273 38.7128L279.683 64.9928L280.953 79.6528Z" fill="#8D4134"/>
<path d="M278.592 58.7591L277.842 69.7891L258.383 87.1691L251.062 88.1391L237.492 69.7391L234.882 54.9791L227.812 38.0891L237.182 20.9391L260.193 11.0391L281.962 19.9391L286.913 37.1691L286.372 55.1091L278.592 58.7591Z" fill="#E8A481"/>
<path d="M261.878 67L252.508 67.61L247.148 68.77L242.398 71.26L248.498 77.17L256.088 75.57L261.878 67Z" fill="#A15544"/>
<path d="M259.509 68.2891L244.219 71.4991C244.219 71.4991 249.839 74.7391 251.479 74.3791C253.119 74.0191 257.519 70.5891 259.509 68.2891Z" fill="white"/>
<path d="M228.422 25.52L254.872 45.06L289.442 57.58L293.162 42.75L287.832 16.13L261.712 2L245.332 6.06L228.422 25.52Z" fill="#A15544"/>
<path d="M232.861 27.8587L230.331 41.1288L234.881 54.9787L237.181 69.7688L228.011 66.2388L216.711 51.0687L222.991 23.3687L232.881 16.2188L232.861 27.8587Z" fill="#A15544"/>
<path d="M280.9 68.7688L279.4 58.7587L285 55.4487L254.87 45.0587L232.24 26.7188L229.18 42.4787L234.83 58.9487L242.83 50.9487L268.85 56.7887L274.85 67.1687L262.26 83.6987C262.26 83.6987 278.47 70.6588 280.9 68.7688Z" fill="#D18672"/>
<path d="M245.328 6.06L261.708 2L288.358 15.77L294.008 45.77L289.638 57.99L277.548 41.05L264.918 27.98L277.338 31.09L267.838 15.65L245.328 6.06Z" fill="#8D4134"/>
<path d="M232.244 26.4766L230.334 41.1266L234.594 53.8866L236.034 62.1566L224.734 42.4166L232.244 26.4766Z" fill="#8D4134"/>
<path d="M282.45 28.32L287.93 23.65L291.04 21.5L292.85 22.66L293.15 25.38L294.97 27.44L295.4 30.22L297.58 31.76L298.24 35.52L299.83 36.72L298.89 39.31L297.01 42.6L293.7 44.18L290.02 43.77C290.02 43.77 290.2 41.57 292.93 40.71C293.69 40.47 295.42 37.31 295.42 37.31C295.42 37.31 286.54 41.78 285.95 39.43C285.82 38.9 286.46 37.73 286.07 37.19C285.68 36.65 284.72 36.35 284.42 35.9C284.03 35.3 284.25 34.28 284.25 34.28L288.74 27.52C288.74 27.52 283.67 30.67 282.31 30.61C280.95 30.55 282.46 28.33 282.46 28.33L282.45 28.32Z" fill="#E8A481"/>
<path d="M274.332 15.8581C274.332 15.8581 282.492 9.12813 283.142 8.80813C283.792 8.48813 289.852 8.13814 296.822 10.4881C303.792 12.8381 306.442 16.0681 306.442 16.0681L294.952 15.3781L278.272 15.7581L274.132 17.5181L273.742 16.5181" fill="#8D4134"/>
<path d="M308.886 113.305C308.886 113.305 317.476 114.845 342.136 114.565C347.806 114.505 360.036 112.205 365.546 113.415C365.976 113.505 366.376 113.725 366.756 114.025C367.906 111.875 368.986 109.705 370.056 107.535L366.536 106.675C366.536 106.675 335.646 97.3752 330.726 94.8752C325.806 92.3752 306.186 89.7152 301.626 91.5952C300.746 91.9552 324.376 100.225 324.556 100.665C323.426 103.215 309.556 112.135 308.896 113.305H308.886Z" fill="#B56760"/>
<path d="M302.272 106.662C303.692 107.922 308.922 109.922 310.862 110.852C310.862 110.852 317.052 113.012 341.702 112.732C347.372 112.672 352.322 110.562 357.842 111.772C357.892 111.782 365.932 111.802 365.982 111.812C368.812 111.792 371.402 108.942 371.782 105.772C372.162 102.602 363.312 96.5924 363.312 96.5924C363.312 96.5924 338.832 93.4724 329.162 90.6224C323.872 89.0624 311.022 85.5024 306.372 87.1824C305.622 87.4524 297.902 92.2524 297.552 92.9424C296.542 97.9624 298.842 102.992 302.292 106.652L302.272 106.662Z" fill="#E8A481"/>
<path d="M309.509 111.292L333.389 113.172L367.919 111.792L338.639 108.102L312.239 104.602L302.359 114.012C303.139 115.872 309.509 111.292 309.509 111.292Z" fill="#D18672"/>
<path d="M152.71 115H6.82C3.05342 115 0 118.053 0 121.82V346.3C0 350.067 3.05342 353.12 6.82 353.12H152.71C156.477 353.12 159.53 350.067 159.53 346.3V121.82C159.53 118.053 156.477 115 152.71 115Z" fill="#D8E0FA" stroke="#7780A4" stroke-width="2" stroke-miterlimit="10"/>
<path d="M39.8784 342.23L41.5684 351.94H84.4684L85.5184 330.94L93.5184 298L93.0484 261.29C93.0484 261.29 58.6984 241.05 23.3984 264.58C23.3984 264.58 27.6384 299.4 27.6384 301.76C27.6384 304.12 39.8784 342.23 39.8784 342.23Z" fill="#D18672"/>
<path d="M67.497 308.06C67.377 310.41 78.237 349.13 78.237 349.13L78.607 351.94H125.337L126.547 340.27L136.577 307.8L137.947 271.12C137.947 271.12 103.057 249.09 64.957 270.71C64.957 270.71 67.617 305.71 67.497 308.06Z" fill="#B56760"/>
<path d="M71.2475 351.94H121.178L126.118 332L133.177 304.12V279.76L83.0575 280.47L62.9375 292.47L67.8775 330.94L71.2475 351.94Z" fill="#D18672"/>
<path d="M67.9184 351.94H115.738L119.058 335.53L120.118 316.82L109.878 305.17L78.4684 300.59L63.6484 298.12L65.7584 331.65L67.9184 351.94Z" fill="#E8A481"/>
<path d="M118.179 142.82H45.8792L45.6992 115.94H127.349L118.179 142.82Z" fill="#B56760"/>
<path d="M114.417 142.82H42.1175L41.9375 115.94H123.587L114.417 142.82Z" fill="#D18672"/>
<path d="M103.59 142.82H47.93L46.75 115.94H110.61L103.59 142.82Z" fill="#E8A481"/>
<path d="M25.5286 219.65L21.9986 233.71L19.1786 269.92L17.0586 279.32L25.7586 287.91L52.1186 294.87L60.4686 292.55L60.8186 297.42L91.5286 298.47L122.939 294.29L143.759 284.19L140.589 272.01L135.289 237.89L125.059 212L117.289 207.41L29.0586 213.53L25.5286 219.65Z" fill="#6474A2"/>
<path d="M42.2998 166.08L43.1998 179.52L46.3498 190.61L38.2598 206.24L32.5898 214.79L32.9298 222.81L35.5898 225.06L45.2898 236.7L73.8798 238.82L87.2298 237.66L103.4 228.83L118.23 223.35L123.06 217.07L119.18 204.83L107 185.33L108.51 169.82L40.9598 163.94" fill="#B56760"/>
<path d="M38.1777 165.73L39.0877 179.16L42.2677 190.26L35.8177 201.47L28.3477 214.44L28.6877 222.46L37.2677 227.68L44.5477 236.51L68.8177 240.12L82.7077 236.41L101.288 224.82L118.708 223L119.878 216.71L115.958 204.48L103.628 184.98L105.168 169.47L36.8177 163.59" fill="#D18672"/>
<path d="M43.7086 115.94L31.9986 132.29L27.0586 140.41L29.5286 150.29L37.8786 159.82L37.2886 170.53L41.8786 174.41L57.0586 178.53L95.4086 181.35L111.879 175.7L112.709 159.47L120.469 140.41L107.059 139L99.1186 115.94H82.1786L73.1786 129.82L52.7086 137.59L45.8186 115.94H43.7086Z" fill="#6474A2"/>
<path d="M41.9373 115.94L28.4673 133.7L23.5273 141.82L25.9973 151.7L34.3473 161.23L36.5873 170.06L36.3473 175.23L52.9373 177.7L93.4073 178.65L109.177 173.47V160.88L116.937 141.82H104.237L96.9973 115.94H81.4073L73.7573 127L56.3473 137.59L50.5273 115.94H41.9373Z" fill="#708BBB"/>
<path d="M42.9367 183.7C42.9367 183.7 44.4467 189.23 44.8167 191.7C45.1067 193.6 39.3067 198.22 37.5267 201.82C34.8967 207.12 36.0267 209.39 36.5867 209.11C45.7667 204.64 52.5567 207.6 58.4067 208.17C72.0867 209.49 93.6467 214.17 92.8167 210.7C91.4567 204.98 93.0567 192.41 93.0567 192.41L84.1167 186.29C84.1167 186.29 70.7167 180.72 59.1767 179.23C51.8367 178.28 45.1367 181.23 42.9367 183.7Z" fill="#E8A481"/>
<path d="M37.528 201.35C38.708 201.35 51.758 207.81 54.528 211.08C54.768 211.36 58.058 212.33 58.058 212.33L65.818 209.83L76.818 208.64L92.108 212.13C92.108 212.13 96.108 218.8 98.228 221.58L77.988 236.31L61.278 238.53L45.038 234.78L39.388 226.58L31.388 220.74L30.918 213.58L37.508 201.35H37.528Z" fill="#E8A481"/>
<path d="M97.7603 193.35L102.47 188.17L110.94 201.76L114.47 213.53L107.18 218.7H84.8203L97.7603 193.35Z" fill="#E8A481"/>
<path d="M27.6488 228.41L22.4688 277.35L27.8787 286.29L51.6488 291L64.1188 275L104.239 289.65L139.529 282.23L129.649 237.41L118.709 228.94L66.7887 247.44L46.7087 243.23L27.6488 228.41Z" fill="#708BBB"/>
<path d="M64.3477 291.76L62.6977 278.29L52.1077 264.88L44.3477 241.35C44.3477 241.35 56.6977 243.74 68.1077 244.17C77.3077 244.52 85.9877 242.93 86.4577 242.93C87.5177 242.93 116.578 252.58 119.048 253.28C121.518 253.98 131.758 283.63 131.758 283.63C131.758 283.63 103.878 297.04 101.758 297.04C99.6377 297.04 64.3477 291.75 64.3477 291.75V291.76Z" fill="#8FA6D3"/>
<path d="M71.0586 250.12C71.0586 250.12 107.769 240.24 111.299 238.83C114.829 237.42 120.119 228.24 120.119 228.24C120.119 228.24 111.649 230.36 107.409 232.12C103.169 233.88 78.4686 242.36 71.0586 250.12Z" fill="#8FA6D3"/>
<path d="M23.7602 224.76L34.2402 239.17L32.8202 266.47L27.8802 286.29L17.4102 278.06L20.5902 255.47L23.7602 224.76Z" fill="#8FA6D3"/>
<path d="M42.5295 115.94L23.7695 141.82C23.7695 141.82 25.5395 150.76 27.4195 149.82C28.8295 149.11 53.3295 145.35 56.9495 145.35L48.6595 115.94H42.5395H42.5295Z" fill="#8FA6D3"/>
<path d="M81.5881 115.94L42.8281 144.65C42.8281 144.65 71.1781 153.59 72.1181 153.83C72.1181 153.83 96.1181 149.59 100.588 145.12L96.8781 115.94H81.5881Z" fill="#8FA6D3"/>
<path d="M34.7077 170.29L34.3477 161.23L49.2877 157.12L75.6477 165.35L93.9977 168.17L94.2377 178.06L52.9377 177.7L34.9377 175.47L34.7077 170.29Z" fill="#8FA6D3"/>
<path d="M50.5898 115.88L55.6198 135.12L57.4698 128.59L50.5898 115.88Z" fill="#D18672"/>
<path d="M342.241 115H196.351C192.585 115 189.531 118.053 189.531 121.82V346.3C189.531 350.067 192.585 353.12 196.351 353.12H342.241C346.008 353.12 349.061 350.067 349.061 346.3V121.82C349.061 118.053 346.008 115 342.241 115Z" fill="#D8E0FA" stroke="#7780A4" stroke-width="2" stroke-miterlimit="10"/>
<path d="M229.41 342.24L231.1 351.95H274L275.05 330.95L283.05 298.01L282.58 261.3C282.58 261.3 248.23 241.06 212.93 264.59C212.93 264.59 217.17 299.41 217.17 301.77C217.17 304.13 229.41 342.24 229.41 342.24Z" fill="#D18672"/>
<path d="M257.028 308.06C256.908 310.41 267.768 349.13 267.768 349.13L268.138 351.94H314.868L316.078 340.27L326.108 307.8L327.478 271.12C327.478 271.12 292.588 249.09 254.488 270.71C254.488 270.71 257.148 305.71 257.028 308.06Z" fill="#B56760"/>
<path d="M260.779 351.94H310.709L315.649 332L322.709 304.12V279.77L272.589 280.47L252.469 292.47L257.409 330.94L260.779 351.94Z" fill="#D18672"/>
<path d="M257.45 351.94H305.28L308.59 335.53L309.65 316.82L299.41 305.18L268 300.59L253.18 298.12L255.3 331.65L257.45 351.94Z" fill="#E8A481"/>
<path d="M307.71 142.82H235.41L235.23 115.94H316.88L307.71 142.82Z" fill="#B56760"/>
<path d="M303.949 142.82H231.649L231.469 115.94H313.129L303.949 142.82Z" fill="#D18672"/>
<path d="M293.121 142.82H237.461L236.281 115.94H300.141L293.121 142.82Z" fill="#E8A481"/>
<path d="M215.06 219.65L211.53 233.71L208.71 269.92L206.59 279.32L215.3 287.91L241.65 294.87L250 292.55L250.36 297.43L281.06 298.47L312.47 294.29L333.3 284.2L330.12 272.01L324.83 237.89L314.59 212L306.83 207.41L218.59 213.53L215.06 219.65Z" fill="#6474A2"/>
<path d="M231.841 166.08L232.731 179.52L232.881 190.62L227.791 206.24L222.121 214.8L222.461 222.82L225.121 225.06L234.831 236.71L263.411 238.82L276.761 237.66L292.941 228.83L307.761 223.35L312.591 217.07L308.721 204.84L300.531 185.33L298.051 169.83L230.491 163.94" fill="#B56760"/>
<path d="M227.709 165.73L228.619 179.17L228.799 190.26L222.589 200.88L217.879 214.44L218.229 222.46L226.799 227.68L234.079 236.51L258.359 240.12L272.239 236.41L290.829 224.82L307.239 222L309.409 216.72L305.489 204.48L297.159 184.98L294.699 169.47L226.349 163.59" fill="#D18672"/>
<path d="M233.24 115.94L221.53 132.3L216.59 140.41L219.06 150.3L227.41 159.82L226.83 170.53L231.41 174.41L246.59 178.53L284.94 181.35L301.41 175.71L302.24 159.47L310 140.41L296.59 139L288.65 115.94H271.71L262.71 129.82L244 140.65L235.36 115.94H233.24Z" fill="#6474A2"/>
<path d="M232.47 115.94L220.47 134.3L213.41 141.82L215.53 149.71L223.88 161.24L226.12 170.06L225.88 175.24L242.47 177.71L282.94 178.65L298.71 173.47V160.88L306.47 141.82H293.77L286.53 115.94H270.94L263.3 127L245.88 137.59L240.06 115.94H232.47Z" fill="#708BBB"/>
<path d="M232.468 185.71C232.468 185.71 230.978 189.24 231.348 191.71C231.638 193.61 228.838 198.23 227.058 201.83C224.428 207.13 225.558 209.4 226.118 209.12C235.298 204.65 243.788 204.32 249.648 204.88C263.328 206.2 283.178 214.17 282.358 210.7C280.998 204.98 279.598 192.41 279.598 192.41L273.658 186.29C273.658 186.29 260.258 181.72 248.718 180.23C241.378 179.28 234.678 183.23 232.478 185.7L232.468 185.71Z" fill="#E8A481"/>
<path d="M227.059 201.35C228.239 201.35 241.699 208.46 244.469 211.23L248.289 215.05L255.049 212.17L266.339 210.05L281.629 210.46C281.629 210.46 285.629 216.11 287.749 218.46L262.689 232.87L234.569 229.63L228.919 222.69L220.919 217.75L220.449 211.69L227.039 201.34L227.059 201.35Z" fill="#E8A481"/>
<path d="M287.299 193.35L295.999 188.18L300.469 201.77L303.999 213.53L296.709 221.71L274.359 222.71L287.299 193.35Z" fill="#E8A481"/>
<path d="M214.71 224.41L212 277.35L217.41 286.3L241.18 291L254.83 276.65L293.77 289.65L329.06 282.24L320.94 237.12L314.94 223L256.32 247.44L236.24 239.24L214.71 224.41Z" fill="#708BBB"/>
<path d="M253.532 294.3L254.352 278.54L256.472 261.13L248.592 279.48L235.882 266.42L222.352 233.36C222.352 233.36 248.462 239.51 259.882 239.95C269.082 240.3 278.942 239.95 281.762 241.01C282.752 241.38 297.472 253.36 299.942 254.07C302.412 254.78 310.002 287.25 310.002 287.25C310.002 287.25 293.412 297.07 291.292 297.07C289.172 297.07 253.532 294.31 253.532 294.31V294.3Z" fill="#8FA6D3"/>
<path d="M260.59 250.12C260.59 250.12 297.3 240.24 300.83 238.83C304.36 237.42 309.65 228.24 309.65 228.24C309.65 228.24 301.18 230.36 296.94 232.12C292.7 233.88 268 242.36 260.59 250.12Z" fill="#8FA6D3"/>
<path d="M213.301 224.77L227.771 238.06L222.361 266.47L217.411 286.3L206.941 278.06L210.121 255.47L213.301 224.77Z" fill="#8FA6D3"/>
<path d="M232.061 115.94L213.301 141.82C213.301 141.82 215.071 150.76 216.951 149.82C218.361 149.11 242.861 145.35 246.481 145.35L238.191 115.94H232.071H232.061Z" fill="#8FA6D3"/>
<path d="M271.121 115.94L238.121 143.47C238.121 143.47 268.711 153.59 269.651 153.82C269.651 153.82 285.651 149.58 290.121 145.11L286.411 115.93H271.121V115.94Z" fill="#8FA6D3"/>
<path d="M224.239 170.3L223.879 161.24L238.829 157.12L265.179 165.35L283.529 168.18L283.769 178.06L242.469 177.71L224.469 175.47L224.239 170.3Z" fill="#8FA6D3"/>
<path d="M245.168 205.62L248.408 208.53L254.058 206.41L245.168 205.62Z" fill="#B56760"/>
<path d="M240.121 115.88L245.151 135.12L247.001 128.59L240.121 115.88Z" fill="#D18672"/>
<path d="M299.591 118.18L294.301 132.65L296.591 139L299.591 118.18Z" fill="#B56760"/>
<path d="M531.769 115H385.879C382.112 115 379.059 118.053 379.059 121.82V346.3C379.059 350.067 382.112 353.12 385.879 353.12H531.769C535.535 353.12 538.589 350.067 538.589 346.3V121.82C538.589 118.053 535.535 115 531.769 115Z" fill="#D8E0FA" stroke="#7780A4" stroke-width="2" stroke-miterlimit="10"/>
<path d="M418.937 342.24L420.627 351.95H463.527L464.577 330.95L472.577 298.01L472.107 261.3C472.107 261.3 437.757 241.06 402.457 264.59C402.457 264.59 406.697 299.41 406.697 301.77C406.697 304.13 418.937 342.24 418.937 342.24Z" fill="#D18672"/>
<path d="M446.556 308.06C446.436 310.41 457.296 349.13 457.296 349.13L457.666 351.94H504.396L505.606 340.27L515.636 307.8L517.006 271.12C517.006 271.12 482.116 249.09 444.016 270.71C444.016 270.71 446.676 305.71 446.556 308.06Z" fill="#B56760"/>
<path d="M450.306 351.94H500.236L505.176 332L512.236 304.12V279.77L462.116 280.47L441.996 292.47L446.936 330.94L450.306 351.94Z" fill="#D18672"/>
<path d="M446.977 351.94H494.807L498.117 335.53L499.177 316.82L488.937 305.18L457.527 300.59L442.707 298.12L444.827 331.65L446.977 351.94Z" fill="#E8A481"/>
<path d="M497.238 142.82H424.938L424.758 115.94H506.408L497.238 142.82Z" fill="#B56760"/>
<path d="M493.476 142.82H421.176L420.996 115.94H502.656L493.476 142.82Z" fill="#D18672"/>
<path d="M482.649 142.82H426.989L425.809 115.94H489.669L482.649 142.82Z" fill="#E8A481"/>
<path d="M404.587 219.65L401.057 233.71L398.237 269.92L396.117 279.32L404.827 287.91L431.177 294.87L439.527 292.55L439.887 297.43L470.587 298.47L501.997 294.29L522.827 284.2L519.647 272.01L514.357 237.89L504.117 212L496.357 207.41L408.117 213.53L404.587 219.65Z" fill="#6474A2"/>
<path d="M421.368 166.08L422.258 179.52L425.408 190.62L417.318 206.24L411.648 214.8L411.988 222.82L414.648 225.06L424.358 236.71L452.938 238.82L466.288 237.66L482.468 228.83L497.288 223.35L502.118 217.07L498.248 204.84L486.058 185.33L487.578 169.83L420.018 163.94" fill="#B56760"/>
<path d="M417.236 165.73L418.146 179.17L421.326 190.26L414.886 201.47L407.406 214.44L407.756 222.46L416.326 227.68L423.606 236.51L447.886 240.12L461.766 236.41L480.356 224.82L497.766 223L498.936 216.72L495.016 204.48L482.686 184.98L484.226 169.47L415.876 163.59" fill="#D18672"/>
<path d="M422.767 115.94L411.057 132.3L406.117 140.41L408.587 150.3L416.937 159.82L416.357 170.53L420.937 174.41L436.117 178.53L474.467 181.35L490.937 175.71L491.767 159.47L499.527 140.41L486.117 139L478.177 115.94H461.237L452.237 129.82L431.767 137.59L424.887 115.94H422.767Z" fill="#6474A2"/>
<path d="M420.996 115.94L407.526 133.71L402.586 141.82L405.056 151.71L413.406 161.24L415.646 170.06L415.406 175.24L431.996 177.71L472.466 178.65L488.236 173.47V160.88L495.996 141.82H483.296L476.056 115.94H460.466L452.826 127L435.406 137.59L429.586 115.94H420.996Z" fill="#708BBB"/>
<path d="M421.995 183.71C421.995 183.71 423.505 189.24 423.875 191.71C424.165 193.61 418.365 198.23 416.585 201.83C413.955 207.13 415.085 209.4 415.645 209.12C424.825 204.65 431.615 207.61 437.465 208.18C451.145 209.5 472.705 214.18 471.875 210.71C470.515 204.99 472.115 192.42 472.115 192.42L463.175 186.3C463.175 186.3 449.775 180.73 438.235 179.24C430.895 178.29 424.195 181.24 421.995 183.71Z" fill="#E8A481"/>
<path d="M416.587 201.35C417.767 201.35 430.817 207.81 433.587 211.08C433.827 211.36 437.117 212.33 437.117 212.33L444.877 209.83L455.877 208.64L471.167 212.13C471.167 212.13 475.167 218.8 477.287 221.58L457.047 236.31L440.337 238.53L424.097 234.78L418.447 226.58L410.447 220.74L409.977 213.58L416.567 201.35H416.587Z" fill="#E8A481"/>
<path d="M476.827 193.35L481.527 188.18L489.997 201.77L493.527 213.53L486.237 218.71H463.887L476.827 193.35Z" fill="#E8A481"/>
<path d="M406.707 228.41L401.527 277.35L406.937 286.3L430.707 291L443.177 275L483.297 289.65L518.587 282.24L508.707 237.41L497.767 228.94L445.847 247.44L425.767 243.24L406.707 228.41Z" fill="#708BBB"/>
<path d="M443.406 291.77L441.756 278.3L431.166 264.89L423.406 241.36C423.406 241.36 435.756 243.75 447.166 244.18C456.366 244.53 465.046 242.94 465.516 242.94C466.576 242.94 495.636 252.59 498.106 253.29C500.576 253.99 510.816 283.64 510.816 283.64C510.816 283.64 482.936 297.05 480.816 297.05C478.696 297.05 443.406 291.76 443.406 291.76V291.77Z" fill="#8FA6D3"/>
<path d="M450.117 250.12C450.117 250.12 486.827 240.24 490.357 238.83C493.887 237.42 499.177 228.24 499.177 228.24C499.177 228.24 490.707 230.36 486.467 232.12C482.227 233.88 457.527 242.36 450.117 250.12Z" fill="#8FA6D3"/>
<path d="M402.829 224.77L413.299 239.18L411.889 266.47L406.939 286.3L396.469 278.06L399.649 255.47L402.829 224.77Z" fill="#8FA6D3"/>
<path d="M421.588 115.94L402.828 141.82C402.828 141.82 404.598 150.76 406.478 149.82C407.888 149.11 432.388 145.35 436.008 145.35L427.718 115.94H421.598H421.588Z" fill="#8FA6D3"/>
<path d="M460.647 115.94L421.887 144.65C421.887 144.65 450.237 153.59 451.177 153.83C451.177 153.83 475.177 149.59 479.647 145.12L475.937 115.94H460.647Z" fill="#8FA6D3"/>
<path d="M413.766 170.3L413.406 161.24L428.356 157.12L454.706 165.35L473.056 168.18L473.296 178.06L431.996 177.71L413.996 175.47L413.766 170.3Z" fill="#8FA6D3"/>
<path d="M429.648 115.88L434.678 135.12L436.528 128.59L429.648 115.88Z" fill="#D18672"/>
<path opacity="0.08" d="M349.741 117.283C343.771 124.783 327.081 147.593 327.081 147.593C327.081 147.593 326.261 148.323 325.631 149.363C325.631 149.363 325.631 149.363 325.621 149.363L322.181 152.823C322.181 152.823 318.481 163.203 318.261 164.033C317.961 165.153 315.211 172.843 315.581 173.243C315.601 173.263 315.631 173.303 315.661 173.323L315.211 186.223L314.711 194.043C314.711 194.043 314.871 193.973 315.121 193.853V193.953C315.121 193.953 317.971 193.553 318.721 192.863C319.471 192.173 320.551 182.763 320.551 182.763L321.231 179.693C322.091 180.613 322.721 181.283 322.721 181.283C322.721 181.283 332.221 178.423 336.581 175.343C337.661 174.583 336.521 168.243 336.381 165.053C336.331 163.963 335.981 159.903 333.011 154.763C333.011 154.273 332.881 153.773 332.631 153.303C336.751 149.583 345.931 145.513 349.941 142.783C350.101 142.673 350.241 142.573 350.401 142.473V116.453C350.161 116.753 349.941 117.043 349.721 117.313L349.741 117.283Z" fill="black"/>
<path d="M309.858 166.526L309.388 180.096L308.398 187.226C308.398 187.226 311.268 186.826 312.018 186.136C312.768 185.446 313.848 176.036 313.848 176.036L315.428 168.906L309.868 166.516L309.858 166.526Z" fill="#B56760"/>
<path d="M308.97 165.938L308.5 179.507L308 187.327C308 187.327 310.37 186.237 311.12 185.547C311.87 184.857 312.49 174.857 312.49 174.857L313.24 167.537L308.96 165.938H308.97Z" fill="#D18672"/>
<path d="M329.682 158.325C329.822 161.515 330.952 167.855 329.882 168.615C325.522 171.685 316.022 174.555 316.022 174.555C316.022 174.555 311.332 169.565 310.082 168.225C309.712 167.825 312.352 159.055 312.652 157.935C312.872 157.105 316.212 145.865 316.212 145.865L318.192 144.675C323.582 143.125 326.282 145.695 326.312 148.045C329.282 153.195 329.632 157.245 329.682 158.335V158.325Z" fill="#B56760"/>
<path d="M327.8 163.078C327.94 166.268 327.15 167.748 325.92 168.228C320.28 170.408 316.07 172.838 316.07 172.838C316.07 172.838 310.12 167.868 308.87 166.528C308.5 166.128 311.25 158.438 311.55 157.318C311.77 156.488 315.47 146.108 315.47 146.108L318.91 142.648C320.88 143.878 322.49 145.488 324.53 146.648C324.74 147.378 324.55 153.048 325.52 157.338C326.4 161.218 327.77 162.508 327.8 163.078Z" fill="#E8A481"/>
<path d="M328.599 163.367L327.939 167.267L317.219 172.187L322.759 169.217L321.309 161.037L323.549 154.377L323.699 147.677C323.849 147.767 324.389 146.767 324.539 146.857L326.119 152.107L325.679 156.737L328.599 163.367Z" fill="#D18672"/>
<path d="M326.514 155.961L323.344 163.681L328.094 160.311L326.514 155.961Z" fill="#B56760"/>
<path d="M367.636 117.534C367.636 117.534 361.886 123.354 343.246 136.044C338.956 138.964 328.736 143.424 325.146 147.344C324.866 147.654 324.656 148.044 324.516 148.494C322.676 147.264 320.876 145.984 319.086 144.694L321.346 142.114C321.346 142.114 340.316 117.994 342.876 113.284C345.436 108.574 358.526 98.1741 362.816 97.3741C363.636 97.2241 367.206 97.6541 367.266 98.1341C369.276 99.7141 377.256 103.244 367.646 117.534H367.636Z" fill="#B56760"/>
<path d="M369.588 108.426C369.088 110.236 366.078 114.686 365.038 116.496C365.038 116.496 361.858 119.776 343.218 132.466C338.928 135.386 327.768 142.186 324.178 146.116C324.148 146.146 324.128 146.186 324.098 146.226C321.958 147.696 320.448 148.886 318.718 146.386C316.988 143.886 320.378 140.886 320.378 140.886C320.378 140.886 337.058 118.066 343.038 110.576C346.308 106.476 352.998 97.2463 357.248 96.2363C357.938 96.0763 362.458 95.8063 363.028 96.2163C370.298 98.4763 370.518 103.506 369.588 108.436V108.426Z" fill="#E8A481"/>
<path d="M366.257 116.169L348.807 129.279L322.617 147.239L342.927 128.749L369.437 102.109L370.287 107.649C370.547 109.639 366.257 116.179 366.257 116.179V116.169Z" fill="#D18672"/>
</g>
<defs>
<clipPath id="clip0_8963_39573">
<rect width="538.59" height="353.12" fill="white"/>
</clipPath>
</defs>
</svg>
