<svg width="40" height="40" viewBox="0 0 40 40" fill="none" xmlns="http://www.w3.org/2000/svg">
<path d="M20 20.625C21.7281 20.625 23.125 19.2281 23.125 17.5C23.125 16.6797 22.793 15.9375 22.2656 15.3813L24.9023 9.23828C25.1758 8.60352 24.873 7.87109 24.2383 7.59766C23.6133 7.32422 22.8711 7.61719 22.5977 8.26172L19.9844 14.375C18.2656 14.3984 16.875 15.7812 16.875 17.5C16.875 19.2266 18.2734 20.625 20 20.625ZM34.375 5H30.607C28.0859 1.94609 24.2734 0 20 0C15.7266 0 11.9141 1.94609 9.39062 5H5.625C2.52344 5 0 7.52422 0 10.625V34.375C0 37.4766 2.52344 40 5.625 40H34.375C37.4766 40 40 37.4758 40 34.375V10.625C40 7.52422 37.4766 5 34.375 5ZM20 3.75C25.5141 3.75 30 8.23594 30 13.75C30 19.2641 25.5141 23.75 20 23.75C14.4859 23.75 10 19.2641 10 13.75C10 8.23594 14.4844 3.75 20 3.75ZM36.25 34.375C36.25 35.4078 35.4086 36.25 34.375 36.25H5.625C4.59141 36.25 3.75 35.4078 3.75 34.375V10.625C3.75 9.59219 4.59141 8.75 5.625 8.75H7.20156C6.59531 10.3047 6.25 11.9844 6.25 13.75C6.25 21.3438 12.4062 27.5 20 27.5C27.5938 27.5 33.75 21.3438 33.75 13.75C33.75 11.9836 33.4052 10.3016 32.7984 8.75H34.375C35.4086 8.75 36.25 9.59219 36.25 10.625V34.375Z" fill="#ED6C67"/>
</svg>
