<svg width="312" height="291" viewBox="0 0 312 291" fill="none" xmlns="http://www.w3.org/2000/svg">
<g clip-path="url(#clip0_11100_3685)">
<path d="M158.211 113.56C156.92 81.0183 182.511 53.2423 224.539 51.1763C266.566 49.1103 295.667 74.7285 296.949 107.27C298.239 139.812 278.665 166.669 236.638 168.735C194.611 170.801 159.492 146.101 158.211 113.56Z" fill="#DDFAFA"/>
<path d="M169.824 113.918C168.533 81.3765 194.125 53.6004 236.152 51.5345C278.179 49.4685 307.28 75.0867 308.562 107.628C309.853 140.17 290.278 167.028 248.251 169.094C206.224 171.16 171.105 146.46 169.824 113.918Z" fill="#DDFAFA"/>
<path d="M154.717 63.0396C153.436 30.4981 179.389 2.71285 222.002 0.619315C264.614 -1.47422 294.096 24.1348 295.377 56.6856C296.659 89.2271 276.806 116.094 234.194 118.188C191.582 120.281 155.999 95.5904 154.717 63.0488V63.0396Z" fill="#BDEFF4"/>
<path d="M29.7502 62.9662C28.5431 32.2152 52.7138 5.98176 92.4195 4.02596C132.125 2.07016 159.62 26.2835 160.837 57.0254C162.053 87.7672 143.565 113.147 103.86 115.093C64.1538 117.049 30.9759 93.7081 29.7595 62.957L29.7502 62.9662Z" fill="#BDEFF4"/>
<path d="M31.8762 59.1741C30.7619 31.095 52.8434 7.1296 89.1134 5.33908C125.383 3.55775 150.492 25.6684 151.597 53.7474C152.711 81.8264 135.821 105.002 99.5505 106.784C63.2805 108.565 32.9812 87.2531 31.8762 59.1649V59.1741Z" fill="#DDFAFA"/>
<path d="M19.1182 238.878C18.4311 221.533 32.2668 206.722 54.9796 205.611C77.6925 204.5 93.4039 218.145 94.0911 235.49C94.7782 252.835 84.1925 267.15 61.4796 268.27C38.7668 269.381 19.8054 256.223 19.1182 238.878Z" fill="#91C7D0"/>
<path d="M0.0359607 146.68C-0.976182 121.08 19.4431 99.2172 52.9738 97.5736C86.4952 95.93 109.691 116.076 110.703 141.685C111.715 167.285 96.0874 188.422 62.566 190.065C29.0445 191.709 1.0481 172.28 0.0359607 146.68Z" fill="#A7DADF"/>
<path d="M146.687 290.5C214.879 290.5 270.159 247.778 270.159 195.079C270.159 142.379 214.879 99.658 146.687 99.658C78.4952 99.658 23.2148 142.379 23.2148 195.079C23.2148 247.778 78.4952 290.5 146.687 290.5Z" fill="#BDEFF4"/>
<path d="M217.972 204.564C217.972 242.229 182.788 272.76 139.378 272.76C95.9669 272.76 50.8477 241.55 50.8477 203.885C50.8477 166.22 95.9762 136.368 139.378 136.368C182.779 136.368 217.972 166.899 217.972 204.564Z" fill="#91C7D0"/>
<path d="M120.658 159.59C120.073 135.579 151.821 126.599 189.483 126.176C227.156 125.754 252.756 145.394 253.341 169.406C253.926 193.417 235.931 212.69 198.258 213.113C160.586 213.535 121.233 183.592 120.648 159.581L120.658 159.59Z" fill="#A7DADF"/>
<path d="M225.975 110.043C235.502 100.154 241.111 88.0426 241.111 74.9396C241.111 41.6543 204.869 14.668 160.176 14.668C115.484 14.668 79.2422 41.6543 79.2422 74.9396C79.2422 88.0334 84.8508 100.154 94.3779 110.043H225.984H225.975Z" fill="white"/>
<path d="M219.662 155.183C218.836 134.256 235.531 116.388 262.943 115.047C290.354 113.707 309.316 130.17 310.142 151.097C310.969 172.023 298.191 189.294 270.789 190.635C243.378 191.975 220.498 176.1 219.671 155.173L219.662 155.183Z" fill="#A7DADF"/>
<path d="M160.51 131.566C202.834 131.566 237.145 106.707 237.145 76.0416C237.145 45.3762 202.834 20.5171 160.51 20.5171C118.186 20.5171 83.875 45.3762 83.875 76.0416C83.875 106.707 118.186 131.566 160.51 131.566Z" fill="#A7DADF"/>
<path d="M151.662 150.041C193.987 150.041 228.297 125.182 228.297 94.5162C228.297 63.8509 193.987 38.9917 151.662 38.9917C109.338 38.9917 75.0273 63.8509 75.0273 94.5162C75.0273 125.182 109.338 150.041 151.662 150.041Z" fill="#A7DADF"/>
<path d="M237.423 141.593H230.413C244.573 154.632 253.005 170.994 253.005 188.771C253.005 231.33 204.682 265.837 145.068 265.837C85.4532 265.837 37.1304 231.33 37.1304 188.771C37.1304 170.994 45.5618 154.632 59.7225 141.593H54.6525C40.5382 154.87 32.2461 171.766 32.2461 190.91C32.2461 237.767 83.4475 275.753 146.609 275.753C209.77 275.753 260.972 237.767 260.972 190.91C260.972 171.766 252.16 154.87 237.433 141.593H237.423Z" fill="white"/>
<path d="M236.217 141.244H229.439C243.952 155.045 252.616 172.463 252.616 191.406C252.616 236.151 211.044 264 151.429 264C91.815 264 46.5843 234.37 46.5843 189.625C46.5843 170.682 54.4121 154.062 68.9164 140.271L54.5793 135.661C40.1121 149.71 30.5664 171.986 30.5664 192.389C30.5664 241.651 83.04 279.509 146.201 279.509C209.363 279.509 262.022 244.571 262.022 195.309C262.022 174.41 252.263 155.779 236.217 141.244Z" fill="white"/>
<path d="M81.5073 117.848V83.0567C79.2323 82.8455 76.8923 82.7354 74.478 82.7354C48.1902 82.7445 31.0952 98.1889 31.5316 116.783C31.968 135.377 49.648 140.142 78.0159 139.83C105.548 139.518 122.002 135.101 122.559 117.848H81.5073Z" fill="white"/>
<path d="M124.513 231.734C121.606 231.202 114.243 230.136 98.912 221.606C68.8913 204.913 77.4713 178.551 96.0334 162.859C121.588 141.253 167.153 129.151 167.153 129.151C167.153 129.151 91.1213 133.687 69.9127 179.754C55.4827 211.083 105.913 235.664 122.201 242.716L124.522 231.725L124.513 231.734Z" fill="#BDEFF4"/>
<path d="M124.604 115.24C124.204 98.0788 106.404 84.0393 80.2272 84.3331C54.0508 84.627 37.7915 98.7675 38.1908 115.92C38.4972 128.812 70.1615 139.444 87.3308 143.962C93.7658 137.58 100.433 134.477 119.236 130.712C123.257 124.826 124.687 118.977 124.604 115.24Z" fill="#BDEFF4"/>
<path d="M125.673 236.702C124.085 235.811 111.921 234.397 97.8904 226.455C36.4654 191.663 101.363 147.506 101.363 147.506C101.363 147.506 74.1469 159.976 66.6997 183.207C60.2462 203.334 69.1604 217.823 80.7676 227.63C87.964 233.708 107.269 245.204 124.708 248.225L125.673 236.702Z" fill="#A7DADF"/>
<path d="M158.591 232.717C158.285 219.853 171.229 209.247 192.057 209.018C212.885 208.779 227.036 219.302 227.343 232.157C227.649 245.021 217.695 255.342 196.867 255.58C176.039 255.819 158.907 245.581 158.591 232.717Z" fill="#BDEFF4"/>
<path d="M254.567 109.483C254.567 109.483 326.448 205.051 242.523 270.464C242.523 270.464 300.856 245.168 289.231 168.644C282.666 125.414 254.567 109.483 254.567 109.483Z" fill="#A7DADF"/>
<path d="M214.24 151.996C213.414 131.07 230.11 113.202 257.521 111.861C284.932 110.521 303.894 126.984 304.72 147.91C305.547 168.836 292.77 186.108 265.367 187.449C237.956 188.789 215.076 172.913 214.25 151.987L214.24 151.996Z" fill="#BDEFF4"/>
<path d="M167.598 215.565C179.947 215.565 189.958 207.4 189.958 197.329C189.958 187.257 179.947 179.093 167.598 179.093C155.249 179.093 145.238 187.257 145.238 197.329C145.238 207.4 155.249 215.565 167.598 215.565Z" fill="#BDEFF4"/>
<path d="M125.681 102.706C84.2199 114.588 62.1477 133.402 50.457 151.051C53.0942 154.54 55.5456 158.167 57.9042 161.876C68.2206 141.657 88.0363 125.625 116.72 115.405C197.292 86.6928 308.442 103.092 308.442 103.092C297.206 96.0035 213.366 77.5841 125.681 102.706Z" fill="#91C7D0"/>
<path d="M32.5077 192.737C32.5077 192.737 23.417 126.938 120.443 99.1438C208.128 74.0214 300.763 96.9309 311.998 104.019C311.998 104.019 200.802 77.024 120.23 105.737C70.3377 123.522 38.4319 164.971 45.6748 209.403" fill="white"/>
<path d="M247.879 91.3943C246.273 89.1814 243.794 86.9685 242.234 86.2431C242.159 85.986 241.519 85.4075 240.989 81.7714C248.826 75.4357 252.151 68.4113 254.054 61.4421C257.954 44.5928 250.321 20.0948 229.549 11.3901C220.663 8.24985 209.427 10.7841 202.463 13.9152C198.572 15.669 194.096 21.0314 191.924 24.4655C191.032 25.7143 189.639 31.4256 189.045 32.8305C188.943 33.0692 188.618 39.9099 188.525 40.1487C187.634 42.0953 193.864 36.8063 193.27 38.7897C193.242 38.8264 193.224 38.854 193.205 38.8907C191.849 40.9291 187.977 47.8984 187.977 47.8984C187.977 47.8984 188.098 46.3099 188.488 45.4192C189.389 43.3532 190.401 40.9567 190.382 40.4517C190.28 37.3481 188.636 40.369 188.636 40.369C188.636 40.369 184.532 47.1455 185.043 47.8066C185.554 48.4677 186.482 56.6214 186.482 56.6214L189.231 69.504C183.232 75.2245 173.631 80.7521 169.768 83.0477C164.54 86.1604 153.759 93.0103 147.909 98.2441C147.9 98.1982 147.891 98.1523 147.881 98.0972C147.881 98.1523 147.881 98.1982 147.891 98.2533C146.08 99.8694 143.424 100.613 142.886 101.761C142.319 102.955 140.081 105.36 140.973 106.82C143.062 113.615 152.664 114.616 155.347 114.405C162.219 113.872 179.759 112.027 188.794 108.914C186.621 111.935 185.442 113.468 184.495 115.635C184.393 115.874 184.839 116.103 185.554 116.627C185.024 116.351 184.644 116.067 184.467 115.791L191.069 128.031L191.199 127.948C191.599 131.144 192.899 142.622 193.688 144.651C193.112 149.233 192.184 156.11 191.58 156.707C189.936 158.314 185.21 170.857 183.084 174.502C183.084 174.502 222.761 174.098 238.909 171.15C250.711 168.993 258.558 194.519 257.509 185.805C255.447 168.579 242.354 153.897 231.379 149.196C232.456 141.253 231.137 145.468 231.499 145.578C233.83 146.285 237.312 146.184 238.38 146.184C250.656 146.184 252.894 134.734 254.017 126.011C254.639 121.209 251.919 96.9495 247.879 91.3759V91.3943ZM204.905 85.536L204.924 85.8666C204.924 85.8666 204.896 85.885 204.877 85.885C204.877 85.7564 204.896 85.637 204.905 85.5269V85.536ZM227.339 85.0678C227.488 84.0485 227.627 82.8916 227.776 81.6612C229.169 81.6061 230.831 81.3582 232.771 80.8256C232.911 82.5151 233.013 84.2781 233.096 86.2431C231.258 85.7472 229.299 85.3616 227.339 85.0678ZM185.219 82.965C189.556 78.3097 192.731 74.0308 194.273 71.4598L194.793 63.7927C195.025 63.3152 197.114 70.6701 197.281 70.2019C197.393 69.8988 197.421 69.5224 197.393 69.0816C201.246 73.4707 207.013 73.1218 214.618 74.8939L213.383 84.0669L204.951 84.7372L197.783 85.3616V85.4075C196.511 85.3432 195.229 85.4718 194.031 85.9125C192.704 86.3992 184.541 89.3558 177.716 91.8534C179.713 89.5211 182.675 85.683 185.21 82.965H185.219ZM191.144 52.4344C191.134 53.4811 191.162 54.4728 191.218 55.3819L191.125 55.5563L190.976 53.1139C190.976 53.1139 191.032 52.8476 191.144 52.4344Z" fill="#91C7D0"/>
<path d="M172.832 154.622C130.508 163.382 112.401 197.962 138.113 223.489C138.401 222.736 139.989 220.247 140.295 219.504C137.834 216.088 134.036 207.034 133.321 200.625C130.508 175.429 169.248 153.034 231.23 176.43L244.109 164.374C244.109 164.374 221.638 144.522 172.832 154.622Z" fill="#91C7D0"/>
<path d="M178.089 138.627C135.366 145.596 106.088 171.141 130.481 197.723C130.806 196.989 141.977 202.801 142.311 202.067C140.027 198.55 136.684 189.349 136.294 182.913C134.753 157.625 181.878 130.538 242.616 156.523L248.791 151.372C248.791 151.372 227.35 130.593 178.08 138.627H178.089Z" fill="#91C7D0"/>
<path d="M171.387 147.442C129.063 156.202 110.955 190.782 136.668 216.308C136.955 215.555 138.543 213.067 138.85 212.323C136.389 208.907 132.591 199.854 131.876 193.445C129.063 168.249 174.776 139.206 236.758 162.602L242.664 157.193C242.664 157.193 220.193 137.342 171.387 147.442Z" fill="white"/>
<path d="M241.027 93.6346C239.421 91.3942 236.941 89.1629 235.381 88.4283C235.307 88.1712 234.016 83.4516 233.496 79.7787C241.491 75.0683 245.373 68.9622 247.276 61.9195C251.176 44.9049 243.469 21.6465 222.706 12.8592C213.82 9.69136 202.584 12.244 195.62 15.4118C191.729 17.184 187.254 22.6015 185.081 26.0631C184.189 27.3211 182.796 33.0967 182.202 34.5107C182.1 34.7495 181.775 41.6544 181.682 41.9024C180.791 43.8673 187.021 38.5233 186.427 40.525C186.399 40.5618 186.381 40.5893 186.362 40.626C185.006 42.6828 181.134 49.7256 181.134 49.7256C181.134 49.7256 181.255 48.1187 181.645 47.228C182.546 45.1345 183.558 42.7196 183.539 42.2146C183.437 39.0834 181.794 42.1319 181.794 42.1319C181.794 42.1319 177.689 48.9726 178.2 49.6429C178.711 50.3132 179.639 58.5496 179.639 58.5496L182.388 71.5515C176.389 77.3271 166.788 82.9099 162.925 85.2238C157.697 88.3732 146.916 95.2874 141.066 100.567C141.057 100.521 141.048 100.475 141.039 100.42C141.039 100.475 141.039 100.53 141.048 100.586C139.237 102.22 136.581 102.973 136.043 104.13C135.476 105.333 129.924 107.711 130.806 109.189C132.895 116.057 143.471 118.142 146.155 118.142C151.401 118.142 162.21 117.49 166.147 117.168C167.958 120.575 173.864 131.061 173.687 130.776L181.552 144.715L185.331 150.601C185.731 153.824 186.037 145.376 186.826 147.433C186.251 152.051 185.322 159.002 184.719 159.599C183.075 161.224 178.349 173.887 176.222 177.569C176.222 177.569 219.698 228.566 235.846 225.582C247.648 223.406 251.696 197.769 250.647 188.973C248.586 171.582 235.493 156.762 224.517 152.006C225.594 143.98 228.863 138.168 229.216 138.278C231.546 138.994 233.989 139.334 235.047 139.426C239.226 139.775 246.023 137.406 247.156 128.6C247.778 123.752 245.057 99.2541 241.018 93.6346H241.027ZM198.053 87.7213L198.071 88.0611C198.071 88.0611 198.044 88.0794 198.025 88.0794C198.025 87.9509 198.044 87.8315 198.053 87.7213ZM178.367 85.1228C182.704 80.4215 185.879 76.1059 187.421 73.5073L187.941 65.7668C188.173 65.2893 190.262 72.7085 190.429 72.2402C190.541 71.9372 190.569 71.5515 190.541 71.1016C194.394 75.5274 200.161 75.1785 207.766 76.969L206.531 86.2338L198.099 86.9133L190.931 87.5469V87.5928C189.659 87.5285 188.377 87.657 187.179 88.107C185.851 88.6028 177.689 91.587 170.864 94.1121C172.861 91.7523 175.823 87.8866 178.358 85.1319L178.367 85.1228ZM184.291 54.2983C184.282 55.3634 184.31 56.3551 184.366 57.2733L184.273 57.4478L184.124 54.9778C184.124 54.9778 184.18 54.7115 184.291 54.2891V54.2983Z" fill="white"/>
<path d="M177.404 194.051C176.513 172.041 183.319 155.283 205.948 154.099C228.578 152.914 249.703 169.58 250.399 191.59C251.17 215.959 242.618 230.568 219.988 231.752C197.359 232.937 178.286 216.06 177.395 194.051H177.404Z" fill="#BDEFF4"/>
<path d="M198.84 240.531C199.026 235.526 197.085 210.22 197.085 210.22C193.751 196.824 172.942 182.628 168.346 188.936C163.749 195.244 167.788 238.584 170.054 251.118C170.927 255.938 172.831 262.421 174.901 268.711C182.776 265.956 190.529 262.944 197.883 259.336C198.283 251.32 198.747 243.047 198.84 240.531Z" fill="#8C6239"/>
<path d="M231.806 232.175C233.533 217.309 234.61 201.497 232.883 198.357C229.67 192.499 203.503 204.114 200.234 211.809C200.234 211.809 203.141 236.849 207.05 254.102C218.054 248.042 224.173 242.78 231.797 232.175H231.806Z" fill="#8C6239"/>
<path d="M233.755 217.667C233.755 217.667 228.193 223.011 222.714 222.947C217.236 222.882 200.067 218.071 200.067 218.071C200.067 218.071 190.317 218.594 184.829 218.034C179.341 217.474 164.827 212.782 163.973 213.269C163.787 213.37 165.282 193.904 165.254 191.893C165.227 189.882 171.244 172.702 171.244 172.702C171.244 172.702 183.705 179.377 185.897 179.423C191.106 179.543 206.743 181.599 208.303 181.214C211.999 180.305 224.729 177.449 227.004 175.723C227.868 175.062 225.834 181.618 230.728 192.866C232.13 196.098 233.755 217.667 233.755 217.667Z" fill="#FBB03B"/>
<path d="M233.029 217.823C233.029 217.823 226.817 220.835 224.143 221.542C222.675 221.927 220.883 221.845 217.02 221.716C213.882 221.615 201.355 218.199 201.355 218.199L216.844 226.206L218.71 232.808C218.71 232.808 206.639 248.078 206.425 249.446C208.431 247.307 229.677 235.085 231.46 232.643L233.02 217.832L233.029 217.823Z" fill="#754C24"/>
<path d="M176.797 191.434L193.093 211.239L200.327 218.089L187.745 218.539L176.797 191.434Z" fill="#D88122"/>
<path d="M233.329 217.915L225.027 221.533L229.475 223.645L228.955 235.857C229.893 234.709 230.803 233.525 231.694 232.303L233.319 217.906L233.329 217.915Z" fill="#603813"/>
<path d="M199.184 233.405L199.49 218.282H187.298L194.42 247.858L183.203 255.782L171.188 256.315L174.66 269.252C175.803 268.72 197.299 259.657 198.423 259.097L199.184 233.414V233.405Z" fill="#754C24"/>
<path d="M226.327 175.043L233.468 193.536L234.025 217.75L224.498 221.533L224.117 194.207L205.898 206.704L217.431 189.23L212.222 188.128L219.651 180.167L219.233 178.34L226.327 175.043Z" fill="#D88122"/>
<path d="M242.473 60.6522C240.941 68.5488 235.444 74.9396 224.905 79.5215C213.131 84.6451 208.664 80.6234 208.664 80.6234C190.251 80.0449 179.563 66.8593 177.585 59.1555C175.607 51.4517 178.179 29.3227 193.148 18.8091C198.831 14.8149 207.921 13.8599 217.448 14.2639C238.676 23.0696 246.457 43.5917 242.464 60.6522H242.473Z" fill="#4A2A1A"/>
<path d="M193.205 88.7035C193.205 88.7035 185.98 84.3696 180.465 86.3988C177.447 87.5099 150.184 96.1595 144.566 101.246C138.948 106.324 133.962 100.751 130.805 105.727C127.648 110.704 139.895 115.442 142.969 115.029C151.02 113.945 179.555 108.225 182.173 104.873C184.792 101.522 178.673 119.804 184.56 114.818C190.447 109.822 193.316 92.0458 193.195 88.7127L193.205 88.7035Z" fill="#754C24"/>
<path d="M211.673 89.6403C211.673 89.6403 219.724 85.8297 224.506 88.5017C227.125 89.9708 231.498 89.071 235.63 94.7088C239.763 100.347 242.948 125.184 242.428 130.06C241.843 135.542 232.241 135.845 229.4 135.037C221.962 132.943 221.498 123.128 219.808 119.556C218.118 115.984 217.978 121.548 213.568 115.966C209.157 110.383 210.763 92.8357 211.683 89.6403H211.673Z" fill="#754C24"/>
<path d="M230.571 109.06C230.525 102.358 229.949 92.6244 229.949 92.6244C226.968 85.8939 209.297 84.5349 201.897 84.7369C194.496 84.9389 192.565 85.7011 189.556 87.3998C186.547 89.0985 184.746 98.9142 184.505 100.034C184.263 101.145 180.781 112.219 179.62 114.891C170.752 135.349 175.34 103.845 177.113 126.773C191.887 128.325 206.614 130.244 221.211 132.732C225.325 123.431 230.59 113.073 230.562 109.06H230.571Z" fill="#8C6239"/>
<path d="M217.04 149.04C217.476 148.149 217.328 142.199 218.915 138.177C219.593 136.451 220.383 134.614 221.209 132.741C206.612 130.253 191.885 128.334 177.111 126.782C177.204 128.022 177.789 128.82 178.198 129.592C182.255 137.213 180.955 140.133 180.603 141.804C180.473 142.41 178.838 157.212 177.919 158.102C176.238 159.737 168.661 178.753 166.488 182.444C166.488 182.444 168.968 186.301 176.006 187.825C186.536 190.111 202.192 192.673 212.025 190.57C215.443 189.836 232.305 184.923 232.101 184.125C230.42 177.642 216.418 150.297 217.03 149.04H217.04Z" fill="#D88122"/>
<path d="M202.808 66.5471C202.808 66.5471 205.11 68.7416 199.836 86.9682C198.75 90.7145 206.708 95.425 207.079 95.4617C210.691 95.8198 212.957 89.7963 213.468 89.6769C214.656 89.4107 215.956 69.3568 217.145 65.133C219.253 57.6496 202.083 56.3916 202.808 66.5471Z" fill="#754C24"/>
<path d="M186.547 32.5364C186.547 32.5364 188.172 39.5423 188.07 46.7411C187.995 51.7638 185.888 57.1904 186.853 59.1003C189.212 63.7281 194.449 74.7192 199.37 75.4354C204.292 76.1516 220.709 67.7775 222.055 62.9201C223.402 58.0627 224.693 38.2752 224.154 34.9053C223.615 31.5355 219.214 21.6647 210.885 21.481C202.555 21.2974 189.843 23.446 186.547 32.5364Z" fill="#8C6239"/>
<path d="M230.17 100.76C230.17 100.76 230.282 106.765 230.523 111.843L227.579 112.945C227.579 112.945 226.707 121.502 223.949 135.615C223.828 136.24 219.157 149.903 218.21 151.234C217.263 152.566 209.064 150.729 199.286 150.004C189.508 149.278 181.142 146.395 180.297 146.221C179.452 146.046 177.632 129.252 177.437 128.196C175.514 117.875 170.361 117.278 170.695 116.526C172.032 113.486 177.604 107.233 179.015 104.378C179.303 103.799 182.525 96.8666 182.525 96.8666L184.308 85.8388L191.635 85.196C191.635 85.196 190.864 93.4784 192.043 96.3983C193.315 99.5386 198.952 106.324 199.434 106.196C199.862 106.085 207.922 101.458 210.763 99.6304C214.162 97.4359 222.324 87.3263 222.324 87.3263C222.324 87.3263 229.214 89.1995 230.105 89.1627C230.997 89.126 230.18 100.76 230.18 100.76H230.17Z" fill="#D88122"/>
<path d="M197.597 124.468C205.889 125.956 212.667 127.131 218.991 125.928C220.755 113.541 224.377 98.0143 226.03 90.7053C226.113 90.3472 220.867 90.4482 220.941 90.1268C221.173 89.1076 222.009 87.9047 222.157 87.262C223.94 87.7119 229.79 89.2178 230.217 89.1994C231.109 89.1627 230.292 100.787 230.292 100.787C230.292 100.787 230.403 106.792 230.645 111.87L226.902 122.567C226.902 122.567 228.1 120.566 224.07 135.652C223.977 135.982 221.405 143.255 218.926 149.994C218.1 152.253 232.697 182.371 231.982 184.226C231.471 185.566 227.172 188.624 213.29 190.387C211.897 190.561 213.067 189.817 214.85 175.117C216.215 163.85 216.317 162.969 215.072 162.133C214.2 161.546 204.245 155.366 195.758 154.65C194.83 154.567 203.252 149.416 209.325 147.084C205.805 140.629 199.76 126.883 197.597 124.468Z" fill="#A65900"/>
<path d="M205.138 20.8933C205.138 20.8933 201.517 30.4244 197.013 35.0614C192.51 39.6892 182.685 46.6401 180.28 51.0108C177.875 55.3815 178.544 40.7452 182.258 31.9762C185.972 23.2073 196.224 16.8716 205.138 20.8933Z" fill="#4A2A1A"/>
<path d="M205.85 17.8634C205.85 17.8634 196.843 24.2541 201.95 32.4171C207.048 40.58 223.298 60.4227 228.322 60.8818C233.345 61.3409 234.822 39.2302 230.216 31.4254C225.61 23.6206 211.905 17.4869 205.85 17.8634Z" fill="#4A2A1A"/>
<path d="M188.972 121.741C188.972 121.741 172.276 119.133 170.66 116.682L177.411 129.068L188.972 121.741Z" fill="#A65900"/>
<path opacity="0.43" d="M184.496 53.3432L199.047 40.782L213.235 50.5978L221.788 67.4562L229.829 63.5446L238.307 53.5452L216.17 29.7451L203.309 25.6682L186.558 36.9347L184.496 53.3432Z" fill="#4A2A1A"/>
<path d="M216.513 69.0354L204.794 77.8135L200.829 89.934L194.617 88.6852L191.748 95.682L191.701 88.0976L191.516 85.2144L200.244 84.5165L202.593 75.2976L216.513 69.0354Z" fill="#603813"/>
<path d="M192.312 59.8379C192.312 59.8379 204.068 62.4089 208.971 60.3154C208.971 60.3154 206.464 68.7813 202.202 69.6261C197.94 70.48 194.885 67.9182 194.885 67.9182L192.312 59.8379Z" fill="#754C24"/>
<path d="M194.32 60.3676C194.32 60.3676 205.055 61.6348 208.732 60.0554C208.732 60.0554 205.602 65.9504 201.656 66.4829C198.425 66.9145 196.252 65.5188 196.252 65.5188L194.33 60.3676H194.32Z" fill="#42210B"/>
<path d="M209.259 60.1288C209.259 60.1288 205.081 63.416 192.396 59.9359C192.396 59.9359 188.747 57.4659 195.804 57.2823C199.342 57.1905 203.261 58.0444 203.261 58.0444L209.259 60.1196V60.1288Z" fill="#603813"/>
<path d="M194.336 60.0461C194.336 60.0461 197.326 60.1012 206.445 61.2123C206.445 61.2123 204.875 61.956 201.124 62.5253C197.372 63.0946 195.125 61.3316 195.125 61.3316L194.336 60.0461Z" fill="white"/>
<path d="M202.601 68.352C202.638 67.8361 201.73 67.3525 200.574 67.2719C199.418 67.1914 198.451 67.5444 198.414 68.0604C198.377 68.5763 199.285 69.0599 200.441 69.1405C201.597 69.221 202.564 68.868 202.601 68.352Z" fill="#8C6239"/>
<path d="M235.211 69.9609C234.928 75.8185 234.134 79.882 232.761 86.1663C228.684 104.813 224.275 114.964 224.275 114.964C222.789 119.178 224.057 127.842 226.083 130.555C227.584 132.56 237.904 134.935 239.785 131.668C242.504 126.96 241.738 107.266 241.157 99.2085C240.817 94.4882 242.487 81.2299 241.321 74.1963L235.211 69.9609Z" fill="#754C24"/>
<path d="M235.184 70.1724C234.9 76.03 235.023 81.2154 233.647 87.5087C229.57 106.155 225.927 117.266 225.927 117.266C224.442 121.48 227.36 129.228 229.386 131.94C230.887 133.946 239.49 135.768 241.38 132.503C244.098 127.794 243.333 108.101 242.752 100.043C242.412 95.3229 241.364 83.3946 242.916 75.0311L235.193 70.1747L235.184 70.1724Z" fill="#B17F4F"/>
<path d="M238.517 79.4433L254.049 65.4042C254.049 65.4042 258.404 58.3237 259.168 57.9349C259.932 57.5461 259.708 49.5534 259.708 49.5534C259.708 49.5534 259.475 46.0759 258.05 48.8829C257.817 49.3344 257.735 51.9609 257.674 54.2511C257.648 55.2314 256.405 56.7571 256.405 56.7571C256.405 56.7571 254.962 49.3856 254.586 46.9336C254.209 44.4815 254.317 44.035 253.5 44.2202C252.693 44.4079 251.48 46.3307 251.48 46.3307C251.48 46.3307 250.315 45.1719 249.647 45.9653C248.979 46.7588 248.712 48.293 249.043 50.5528C249.373 52.8126 248.266 57.9327 248.266 57.9327L247.082 60.1099L246.642 53.8638C246.642 53.8638 244.867 50.0404 244.578 48.8353C244.288 47.6302 242.762 49.8698 243.202 51.6742C243.387 52.4344 244.464 55.1454 244.387 57.2036C244.294 60.055 242.421 62.8873 242.421 62.8873C242.421 62.8873 235.333 68.3046 235.106 70.9024C234.878 73.5002 235.131 76.7551 238.53 79.4658L238.517 79.4433Z" fill="#B17F4F"/>
<path d="M171.132 61.5201C170.298 64.452 167.172 70.0573 164.41 75.9055C158.682 88.0106 152.415 102.053 152.415 102.053C150.817 106.24 146.709 107.907 143.405 108.706C140.958 109.299 129.058 108.765 129.746 105.055C130.728 99.7029 144.087 85.0156 149.759 79.1803C153.078 75.7592 160.403 64.4931 165.852 59.8135L171.132 61.5201Z" fill="#754C24"/>
<path d="M171.042 61.5447C168.376 66.2627 165.928 69.9119 162.9 75.633C153.917 92.5886 149.655 102.769 149.655 102.769C148.056 106.957 140.807 111.073 137.502 111.872C135.055 112.465 128.887 113.038 129.176 103.288C129.336 97.8559 142.327 84.64 147.999 78.8047C151.319 75.3836 159.856 66.8606 164.093 59.4379L171.042 61.5447Z" fill="#B17F4F"/>
<path d="M166.859 66.6766L157.406 48.4815C157.406 48.4815 154.314 40.7692 153.636 40.2598C152.957 39.7505 155.187 32.0295 155.187 32.0295C155.187 32.0295 156.011 28.6343 156.938 31.6364C157.089 32.1186 156.734 34.7287 156.4 36.9906C156.261 37.9615 156.56 39.5457 156.56 39.5457C156.56 39.5457 158.521 31.6887 159.311 29.3309C160.1 26.973 159.934 27.5612 160.703 27.8744C161.463 28.19 161.056 30.681 161.056 30.681C161.056 30.681 161.06 30.8704 161.575 31.7672C162.09 32.664 162.093 34.2243 161.388 36.3973C160.68 38.5614 160.904 43.8121 160.904 43.8121L161.699 46.1554L163.19 40.0643C163.19 40.0643 165.59 36.5901 166.076 35.4479C166.563 34.3058 167.689 36.7679 166.955 38.4824C166.649 39.1944 165.131 41.7039 164.85 43.7416C164.46 46.571 165.83 49.6803 165.83 49.6803C165.83 49.6803 171.897 56.1981 171.684 58.798C171.471 61.398 170.672 64.5674 166.871 66.683L166.859 66.6766Z" fill="#B17F4F"/>
<path d="M226.366 133.623L221.519 143.282L219.615 153.337L232.866 183.335L230.377 185.805L217.461 152.988L219.987 142.585L224.899 131.952" fill="#754C24"/>
<path d="M179.639 149.545L177.15 158.525L170.566 173.841L176.797 164.42L180.799 163.887C180.799 163.887 191.747 165.733 192.815 165.733C193.883 165.733 188.72 160.802 185.869 160.453C183.019 160.104 180.53 159.048 180.53 159.048L182.489 157.285L179.639 149.545Z" fill="#A65900"/>
<path d="M229.309 186.328L232.336 194.078V225.279L234.332 222.111L233.933 192.141L231.268 184.216L229.309 186.328Z" fill="#754C24"/>
<path d="M159.825 265.58C159.825 265.58 200.831 259.758 224.333 239.998C244.474 223.066 245.662 216.198 248.039 215.417C265.859 209.568 237.064 250.144 200.84 264.698C184.711 271.181 158.349 279.105 159.825 265.589V265.58Z" fill="white"/>
<path d="M134.085 209.174L139.62 202.572L143.817 222.653L126.137 212.525L134.085 209.174Z" fill="white"/>
<path d="M124.111 220.771L142.329 246.628L139.627 248.786L121.919 254.497L121.074 222.084L124.111 220.771Z" fill="#BDEFF4"/>
<path d="M121.074 221.845L139.627 248.859L121.409 256.195L121.074 221.845Z" fill="#A7DADF"/>
<path d="M100.025 35.1809C99.3287 30.7367 93.0516 26.3201 78.1851 26.9169C62.4644 27.5505 62.4273 40.2953 68.5373 44.262C79.4944 51.3874 101.446 44.2437 100.034 35.1809H100.025Z" fill="white"/>
<path d="M13.1108 133.044L30.5308 161.619C30.5308 161.619 37.1887 147.277 47.2451 180.553C47.2451 180.553 39.3801 210.689 68.8716 236.94L81.9273 228.759C81.9273 228.759 78.213 225.949 74.2758 221.413C70.3387 216.877 71.4344 216.657 71.4344 216.657L75.093 205.905L80.7758 203.747C80.7758 203.747 83.4501 208.228 84.5459 209.522L118.634 187.485L114.26 176.467L73.3473 195.529L18.998 122.338L13.1016 133.035L13.1108 133.044Z" fill="#7FB1BC"/>
<path d="M91.4883 69.065L92.5469 75.4099L132.958 163.008L131.528 167.002L69.6484 205.264L5.54906 103.544C5.54906 103.544 5.28906 98.7509 5.28906 96.9328C5.28906 95.9595 47.5669 68.7344 91.4791 69.065H91.4883Z" fill="#778083"/>
<path d="M92.0089 69.12L133.182 163.081L71.2832 199.011L8.4375 99.1273C8.4375 99.1273 44.3361 70.9932 92.0182 69.1108L92.0089 69.12Z" fill="#E6E6E6"/>
<path d="M88.4795 74.5007L126.718 160.271L72.9723 190.949L15.9023 101.01C15.9023 101.01 47.2881 76.126 88.4888 74.5007H88.4795Z" fill="#B3B3B3"/>
<path d="M93.2887 102.8L47.408 125.269C47.408 125.269 28.8366 95.2342 57.678 84.436C79.5923 76.2272 93.2887 102.8 93.2887 102.8Z" fill="#999999"/>
<path d="M89.1213 102.81L48.2734 122.349C48.2734 122.349 33.862 95.675 56.287 86.704C75.4527 79.0369 89.1306 102.81 89.1306 102.81H89.1213Z" fill="white"/>
<path d="M72.8217 114.375L52.8594 109.542L74.4777 111.358" fill="#999999"/>
<path opacity="0.49" d="M61.5065 128.703C61.5065 128.703 50.8093 139.96 59.2872 153.027C67.7743 166.084 77.0786 175.459 82.2322 175.394C87.3765 175.33 91.0722 171.804 86.0858 166.056C81.0993 160.308 75.8993 154.854 76.5493 148.94C77.1993 143.027 68.3779 124.259 61.5065 128.703Z" fill="#999999"/>
<path opacity="0.49" d="M82.9646 118.107C82.9646 118.107 97.5803 115.453 104.006 129.153C110.432 142.853 113.412 155.276 110.775 159.371C108.129 163.476 103.375 164.578 101.183 157.544C98.9918 150.501 97.1346 143.459 91.9718 140.86C86.7996 138.262 75.8703 121.284 82.9739 118.107H82.9646Z" fill="#999999"/>
<path d="M63.4348 128.446C63.4348 128.446 53.007 139.419 61.2712 152.136C69.5355 164.862 78.6077 173.989 83.622 173.934C88.6362 173.87 92.2391 170.436 87.3734 164.835C82.5077 159.234 77.447 153.917 78.0877 148.16C78.7191 142.403 70.1298 124.112 63.4255 128.437L63.4348 128.446Z" fill="#CCCCCC"/>
<path d="M84.9601 117.299C84.9601 117.299 99.1951 114.71 105.454 128.06C111.712 141.411 114.619 153.513 112.047 157.508C109.474 161.502 104.841 162.585 102.705 155.726C100.569 148.867 98.768 141.999 93.7258 139.474C88.6837 136.949 78.0422 120.403 84.9601 117.299Z" fill="#CCCCCC"/>
<path opacity="0.47" d="M60.0784 90.3396L58.5741 90.9916L56.5312 86.3546L58.0355 85.7026L60.0784 90.3396Z" fill="#999999"/>
<path opacity="0.47" d="M52.8546 93.9546L51.8518 95.231L47.8125 92.1274L48.8154 90.8511L52.8546 93.9546Z" fill="#999999"/>
<path opacity="0.47" d="M49.643 101.972L49.1509 103.506L43.7188 101.174L44.2109 99.6401L49.643 101.972Z" fill="#999999"/>
<path opacity="0.47" d="M49.5844 110.531L49.9929 112.083L44.1522 113.01L43.7344 111.449L49.5844 110.531Z" fill="#999999"/>
<path opacity="0.47" d="M66.1719 89.4055L67.7597 89.7728L68.9019 84.842L67.3047 84.4839L66.1719 89.4055Z" fill="#999999"/>
<path opacity="0.47" d="M73.7227 92.904L74.9484 93.96L78.3655 89.1761L77.1305 88.1201L73.7227 92.904Z" fill="#999999"/>
<path opacity="0.47" d="M78.7734 98.4225L79.572 99.607L84.9949 96.1086L84.187 94.9241L78.7734 98.4225Z" fill="#999999"/>
<path opacity="0.49" d="M33.8648 90.0542C33.8648 90.0542 22.4155 95.9675 15.9062 101.009L28.4048 120.521L21.8491 101.936L33.8648 90.0542Z" fill="#999999"/>
<path opacity="0.49" d="M62.1406 173.109C62.1406 173.109 68.1206 184.43 73.2185 190.867L92.4306 179.72L74.1656 184.991L62.1499 173.109H62.1406Z" fill="#999999"/>
<path opacity="0.49" d="M117.729 140.585C117.729 140.585 123.542 152.816 126.783 160.345L110.031 169.913L121.286 157.912L117.729 140.585Z" fill="#999999"/>
<path opacity="0.49" d="M71.4468 76.544C71.4468 76.544 80.5096 74.7076 88.5696 74.5698L95.2554 89.9408L85.5796 78.6375L71.4375 76.544H71.4468Z" fill="#999999"/>
<path d="M221.379 155.082C221.379 155.082 255.467 168.69 251.855 202.076C251.855 202.076 245.568 233.745 250.87 228.649C262.672 217.309 266.275 183.28 257.101 169.994C247.927 156.707 224.332 142.447 221.379 155.082Z" fill="white"/>
<path d="M232.504 150.931C232.504 150.931 270.566 165.558 265.338 221.129C265.338 221.129 287.707 167.679 234.835 142.952L232.513 150.931H232.504Z" fill="#91C7D0"/>
</g>
<defs>
<clipPath id="clip0_11100_3685">
<rect width="312" height="290" fill="white" transform="translate(0 0.5)"/>
</clipPath>
</defs>
</svg>
