<svg width="50" height="50" viewBox="0 0 50 50" fill="none" xmlns="http://www.w3.org/2000/svg">
<rect width="50" height="50" rx="10" fill="#FED600"/>
<g clip-path="url(#clip0_8919_38145)">
<path d="M28 11H22L18.8 15H13C11.8954 15 11 15.8954 11 17V37C11 38.1046 11.8954 39 13 39H37C38.1046 39 39 38.1046 39 37V17C39 15.8954 38.1046 15 37 15H31.2L28 11Z" fill="white"/>
<path d="M36.25 13.75H32.4561C30.6895 11.4871 28.0527 10 25 10C21.9473 10 19.2051 11.4871 17.5469 13.75H13.75C11.6846 13.75 10 15.4346 10 17.5V36.25C10 38.3154 11.6846 40 13.75 40H36.25C38.3154 40 40 38.3154 40 36.25V17.5C40 15.4346 38.3184 13.75 36.25 13.75ZM25 11.875C29.1455 11.875 32.5 15.2295 32.5 19.375C32.5 23.5205 29.1455 26.875 25 26.875C20.8545 26.875 17.5 23.5234 17.5 19.375C17.5 15.2266 20.8516 11.875 25 11.875ZM38.125 36.25C38.125 37.2824 37.2824 38.125 36.25 38.125H13.75C12.7176 38.125 11.875 37.2824 11.875 36.25V17.5C11.875 16.4676 12.7176 15.625 13.75 15.625H16.416C15.918 16.7734 15.625 18.0391 15.625 19.375C15.625 24.5459 19.8291 28.75 25 28.75C30.1709 28.75 34.375 24.5459 34.375 19.375C34.375 18.042 34.082 16.7746 33.584 15.625H36.25C37.2824 15.625 38.125 16.4676 38.125 17.5V36.25ZM25 25C26.5527 25 27.8125 23.7402 27.8125 22.1875C27.8125 21.3742 27.4609 20.6418 26.9043 20.1297L28.6768 15.9912C28.8745 15.5225 28.6548 14.9658 28.1787 14.7607C27.71 14.563 27.1533 14.7827 26.9482 15.2588L25.1758 19.3867C23.1016 19.2578 22.1875 21.0508 22.1875 22.1875C22.1875 23.7402 23.4473 25 25 25ZM25 21.25C25.52 21.25 25.9375 21.6675 25.9375 22.1875C25.9375 22.7075 25.5215 23.125 25 23.125C24.4785 23.125 24.0625 22.709 24.0625 22.1875C24.0625 21.666 24.4785 21.25 25 21.25Z" fill="#333333"/>
<path d="M36.25 13.75H32.4561C30.6895 11.4871 28.0527 10 25 10C21.9473 10 19.2051 11.4871 17.5469 13.75H13.75C11.6846 13.75 10 15.4346 10 17.5V36.25C10 38.3154 11.6846 40 13.75 40H36.25C38.3154 40 40 38.3154 40 36.25V17.5C40 15.4346 38.3184 13.75 36.25 13.75ZM25 11.875C29.1455 11.875 32.5 15.2295 32.5 19.375C32.5 23.5205 29.1455 26.875 25 26.875C20.8545 26.875 17.5 23.5234 17.5 19.375C17.5 15.2266 20.8516 11.875 25 11.875ZM38.125 36.25C38.125 37.2824 37.2824 38.125 36.25 38.125H13.75C12.7176 38.125 11.875 37.2824 11.875 36.25V17.5C11.875 16.4676 12.7176 15.625 13.75 15.625H16.416C15.918 16.7734 15.625 18.0391 15.625 19.375C15.625 24.5459 19.8291 28.75 25 28.75C30.1709 28.75 34.375 24.5459 34.375 19.375C34.375 18.042 34.082 16.7746 33.584 15.625H36.25C37.2824 15.625 38.125 16.4676 38.125 17.5V36.25ZM25 25C26.5527 25 27.8125 23.7402 27.8125 22.1875C27.8125 21.3742 27.4609 20.6418 26.9043 20.1297L28.6768 15.9912C28.8745 15.5225 28.6548 14.9658 28.1787 14.7607C27.71 14.563 27.1533 14.7827 26.9482 15.2588L25.1758 19.3867C23.1016 19.2578 22.1875 21.0508 22.1875 22.1875C22.1875 23.7402 23.4473 25 25 25ZM25 21.25C25.52 21.25 25.9375 21.6675 25.9375 22.1875C25.9375 22.7075 25.5215 23.125 25 23.125C24.4785 23.125 24.0625 22.709 24.0625 22.1875C24.0625 21.666 24.4785 21.25 25 21.25Z" fill="black" fill-opacity="0.2"/>
</g>
<defs>
<clipPath id="clip0_8919_38145">
<rect width="30" height="30" fill="white" transform="translate(10 10)"/>
</clipPath>
</defs>
</svg>
