<svg width="35" height="40" viewBox="0 0 35 40" fill="none" xmlns="http://www.w3.org/2000/svg">
<path d="M9.88354 4.00391C11.4907 5.50781 12.9503 7.08984 14.2391 8.67969C16.3587 5.75156 18.9907 2.77344 21.9565 0C29.5846 7.11875 35 16.4062 35 22C35 31.9453 27.2205 40 17.6087 40C7.99689 40 0.217392 31.9453 0.217392 22C0.217392 17.8438 4.25466 9.25781 9.88354 4.00391ZM17.6087 36.25C25.1398 36.25 31.2733 29.8531 31.2733 22C31.2733 18.4547 27.8377 11.5938 21.9488 5.27344C20.2096 7.1 18.618 9 17.2593 10.8906L14.4154 14.8266L11.3579 11.057C10.9018 10.5004 10.4356 9.95391 9.9604 9.41641C6.3587 13.9062 3.9441 19.5625 3.9441 22C3.9441 29.8516 10.0776 36.25 17.6087 36.25ZM10.6599 18.9922L14.6491 23.5625C14.6491 23.5625 20.889 15.5469 21.3548 15C24.6584 18.9766 26.3043 21.2969 26.3043 23.9375C26.3043 29.2422 22.3137 32.5 17.4146 32.5C15.4542 32.5 13.639 31.8848 12.1638 30.85C8.82531 28.4969 8.0396 23.9258 9.89286 20.3578C10.1242 19.9219 10.3804 19.4609 10.6599 18.9922Z" fill="#F29429"/>
</svg>
